<?xml version="1.0" encoding="UTF-8" standalone="no"?>
<!-- Created with Inkscape (http://www.inkscape.org/) -->

<svg
   xmlns:ns0="http://www.iki.fi/pav/software/textext/"
   xmlns:dc="http://purl.org/dc/elements/1.1/"
   xmlns:cc="http://creativecommons.org/ns#"
   xmlns:rdf="http://www.w3.org/1999/02/22-rdf-syntax-ns#"
   xmlns:svg="http://www.w3.org/2000/svg"
   xmlns="http://www.w3.org/2000/svg"
   xmlns:sodipodi="http://sodipodi.sourceforge.net/DTD/sodipodi-0.dtd"
   xmlns:inkscape="http://www.inkscape.org/namespaces/inkscape"
   width="81.802574mm"
   height="52.110535mm"
   viewBox="0 0 65.442059 41.688429"
   version="1.1"
   id="svg951"
   inkscape:version="0.92.4 (5da689c313, 2019-01-14)"
   sodipodi:docname="qss_distribution_stage.svg">
  <defs
     id="defs945">
    <marker
       inkscape:stockid="Arrow2Mend"
       orient="auto"
       refY="0"
       refX="0"
       id="marker1503"
       style="overflow:visible"
       inkscape:isstock="true">
      <path
         inkscape:connector-curvature="0"
         id="path1501"
         style="fill:#000000;fill-opacity:1;fill-rule:evenodd;stroke:#000000;stroke-width:0.625;stroke-linejoin:round;stroke-opacity:1"
         d="M 8.7185878,4.0337352 -2.2072895,0.01601326 8.7185884,-4.0017078 c -1.7454984,2.3720609 -1.7354408,5.6174519 -6e-7,8.035443 z"
         transform="scale(-0.6)" />
    </marker>
    <marker
       inkscape:isstock="true"
       style="overflow:visible"
       id="marker915"
       refX="0"
       refY="0"
       orient="auto"
       inkscape:stockid="Arrow2Mend"
       inkscape:collect="always">
      <path
         transform="scale(-0.6)"
         d="M 8.7185878,4.0337352 -2.2072895,0.01601326 8.7185884,-4.0017078 c -1.7454984,2.3720609 -1.7354408,5.6174519 -6e-7,8.035443 z"
         style="fill:#000000;fill-opacity:1;fill-rule:evenodd;stroke:#000000;stroke-width:0.625;stroke-linejoin:round;stroke-opacity:1"
         id="path913"
         inkscape:connector-curvature="0" />
    </marker>
    <marker
       inkscape:isstock="true"
       style="overflow:visible"
       id="marker2547"
       refX="0"
       refY="0"
       orient="auto"
       inkscape:stockid="Arrow2Mend">
      <path
         transform="scale(-0.6)"
         d="M 8.7185878,4.0337352 -2.2072895,0.01601326 8.7185884,-4.0017078 c -1.7454984,2.3720609 -1.7354408,5.6174519 -6e-7,8.035443 z"
         style="fill:#000000;fill-opacity:1;fill-rule:evenodd;stroke:#000000;stroke-width:0.625;stroke-linejoin:round;stroke-opacity:1"
         id="path2545"
         inkscape:connector-curvature="0" />
    </marker>
    <marker
       inkscape:stockid="Arrow2Mend"
       orient="auto"
       refY="0"
       refX="0"
       id="Arrow2Mend-0-1"
       style="overflow:visible"
       inkscape:isstock="true"
       inkscape:collect="always">
      <path
         inkscape:connector-curvature="0"
         id="path4782-7-2"
         style="fill:#000000;fill-opacity:1;fill-rule:evenodd;stroke:#000000;stroke-width:0.625;stroke-linejoin:round;stroke-opacity:1"
         d="M 8.7185878,4.0337352 -2.2072895,0.01601326 8.7185884,-4.0017078 c -1.7454984,2.3720609 -1.7354408,5.6174519 -6e-7,8.035443 z"
         transform="scale(-0.6)" />
    </marker>
  </defs>
  <sodipodi:namedview
     id="base"
     pagecolor="#ffffff"
     bordercolor="#666666"
     borderopacity="1.0"
     inkscape:pageopacity="0.0"
     inkscape:pageshadow="2"
     inkscape:zoom="1.4142136"
     inkscape:cx="-31.32051"
     inkscape:cy="194.99231"
     inkscape:document-units="mm"
     inkscape:current-layer="layer2"
     showgrid="false"
     fit-margin-top="0"
     fit-margin-left="0"
     fit-margin-right="0"
     fit-margin-bottom="0"
     inkscape:window-width="1920"
     inkscape:window-height="1013"
     inkscape:window-x="-9"
     inkscape:window-y="-9"
     inkscape:window-maximized="1"
     inkscape:snap-global="false"
     scale-x="0.8">
    <inkscape:grid
       originy="-4.0836623"
       originx="5.6661128"
       id="grid2913"
       type="xygrid" />
  </sodipodi:namedview>
  <metadata
     id="metadata948">
    <rdf:RDF>
      <cc:Work
         rdf:about="">
        <dc:format>image/svg+xml</dc:format>
        <dc:type
           rdf:resource="http://purl.org/dc/dcmitype/StillImage" />
        <dc:title></dc:title>
      </cc:Work>
    </rdf:RDF>
  </metadata>
  <g
     inkscape:groupmode="layer"
     id="layer3"
     inkscape:label="Arrows"
     style="display:inline"
     transform="translate(7.0826418,6.396186)">
    <path
       style="fill:none;stroke:#000000;stroke-width:0.32319999;stroke-linecap:butt;stroke-linejoin:miter;stroke-miterlimit:4;stroke-dasharray:none;stroke-dashoffset:0;stroke-opacity:1;marker-end:url(#Arrow2Mend-0-1)"
       d="M 33.492927,2.2157994 6.1568719,12.022522"
       id="path4753-4-5"
       inkscape:connector-curvature="0"
       sodipodi:nodetypes="cc" />
    <path
       inkscape:connector-curvature="0"
       id="path2543"
       d="M 32.990931,31.771278 6.2104671,21.40355"
       style="fill:none;stroke:#000000;stroke-width:0.32300001;stroke-linecap:butt;stroke-linejoin:miter;stroke-miterlimit:4;stroke-dasharray:none;stroke-dashoffset:0;stroke-opacity:1;marker-end:url(#marker2547)"
       sodipodi:nodetypes="cc" />
  </g>
  <g
     inkscape:groupmode="layer"
     id="layer2"
     inkscape:label="Text"
     style="opacity:1"
     transform="translate(7.9867539e-7,14.71735)">
    <g
       style="font-style:normal;font-variant:normal;font-weight:normal;font-stretch:normal;letter-spacing:normal;word-spacing:normal;text-anchor:start;fill:none;fill-opacity:1;fill-rule:evenodd;stroke:#000000;stroke-linecap:butt;stroke-linejoin:miter;stroke-miterlimit:10.43299961;stroke-dasharray:none;stroke-dashoffset:0;stroke-opacity:1"
       ns0:jacobian_sqrt="0.352778"
       inkscapeversion="0.92.4"
       ns0:alignment="middle center"
       ns0:scale="1.0"
       ns0:preamble="C:\\Users\\MatthewThornton\\AppData\\Roaming\\inkscape\\extensions\\textext\\default_packages.tex"
       ns0:text="$X_B = \\left\\{\\phi_B\\right\\}$"
       ns0:pdfconverter="pstoedit"
       ns0:texconverter="pdflatex"
       ns0:version="0.10.2"
       word-spacing="normal"
       letter-spacing="normal"
       font-size-adjust="none"
       font-stretch="normal"
       font-weight="normal"
       font-variant="normal"
       font-style="normal"
       stroke-miterlimit="10.433"
       xml:space="preserve"
       transform="matrix(0.352778,0,0,-0.352778,-4.8101487,227.67497)"
       id="content">
<path
   id="path2436"
   style="fill:#000000;fill-opacity:1;stroke:#000000;stroke-width:0;stroke-opacity:1"
   d="m 153.55,661.32 -0.84,1.97 c -0.03,0.08 -0.05,0.12 -0.05,0.13 0,0.06 0.17,0.25 0.59,0.29 0.1,0.01 0.2,0.02 0.2,0.19 0,0.12 -0.12,0.12 -0.15,0.12 -0.41,0 -0.84,-0.03 -1.26,-0.03 -0.25,0 -0.86,0.03 -1.11,0.03 -0.06,0 -0.18,0 -0.18,-0.2 0,-0.11 0.1,-0.11 0.23,-0.11 0.59,0 0.65,-0.1 0.74,-0.32 l 1.18,-2.77 -2.1,-2.25 -0.13,-0.11 c -0.49,-0.53 -0.96,-0.69 -1.47,-0.72 -0.13,-0.01 -0.22,-0.01 -0.22,-0.2 0,-0.01 0,-0.11 0.13,-0.11 0.3,0 0.63,0.04 0.94,0.04 0.37,0 0.76,-0.04 1.11,-0.04 0.07,0 0.19,0 0.19,0.2 0,0.1 -0.11,0.11 -0.12,0.11 -0.1,0.01 -0.4,0.03 -0.4,0.31 0,0.16 0.15,0.32 0.27,0.45 l 1.01,1.07 0.9,0.97 1.01,-2.37 c 0.04,-0.11 0.05,-0.12 0.05,-0.14 0,-0.08 -0.19,-0.25 -0.58,-0.29 -0.11,-0.01 -0.2,-0.02 -0.2,-0.19 0,-0.12 0.11,-0.12 0.15,-0.12 0.28,0 0.98,0.04 1.26,0.04 0.25,0 0.85,-0.04 1.1,-0.04 0.07,0 0.19,0 0.19,0.19 0,0.12 -0.1,0.12 -0.18,0.12 -0.67,0.01 -0.69,0.04 -0.86,0.44 -0.38,0.92 -1.05,2.47 -1.28,3.07 0.68,0.69 1.72,1.88 2.04,2.16 0.29,0.23 0.67,0.47 1.27,0.5 0.13,0.01 0.22,0.01 0.22,0.2 0,0.01 0,0.11 -0.13,0.11 -0.3,0 -0.63,-0.03 -0.94,-0.03 -0.37,0 -0.75,0.03 -1.11,0.03 -0.06,0 -0.18,0 -0.18,-0.2 0,-0.07 0.04,-0.1 0.11,-0.11 0.09,-0.01 0.4,-0.03 0.4,-0.31 0,-0.13 -0.11,-0.26 -0.19,-0.35 z"
   inkscape:connector-curvature="0" />
<path
   id="path2438"
   style="fill:#000000;fill-opacity:1;stroke:#000000;stroke-width:0;stroke-opacity:1"
   d="m 158.29,656.28 v -0.02 l -0.01,-0.02 v -0.02 l -0.01,-0.02 v -0.01 l -0.01,-0.02 -0.01,-0.02 v -0.01 l -0.01,-0.02 -0.01,-0.01 -0.01,-0.01 -0.01,-0.01 -0.01,-0.01 -0.01,-0.01 -0.01,-0.01 -0.01,-0.01 -0.02,-0.01 -0.02,-0.01 h -0.02 l -0.02,-0.01 h -0.02 l -0.01,-0.01 h -0.01 -0.01 -0.02 -0.01 L 157.99,656 h -0.01 -0.02 -0.01 -0.02 -0.02 -0.01 l -0.02,-0.01 h -0.02 -0.02 -0.02 -0.02 -0.03 -0.02 -0.02 -0.03 -0.02 c -0.12,0 -0.21,0 -0.21,-0.15 0,-0.1 0.08,-0.1 0.21,-0.1 h 2.7 c 1.18,0 2.08,0.8 2.08,1.49 0,0.49 -0.45,0.92 -1.19,0.99 0.84,0.16 1.55,0.69 1.55,1.28 0,0.53 -0.54,0.99 -1.45,0.99 l -0.11,-0.25 c 0.71,0 0.87,-0.47 0.87,-0.73 0,-0.56 -0.63,-1.2 -1.57,-1.2 h -1.15 l -0.05,-0.2 h 1.49 c 0.65,0 0.91,-0.43 0.91,-0.83 0,-0.69 -0.71,-1.29 -1.56,-1.29 h -1.12 c -0.22,0 -0.23,0.01 -0.23,0.07 0,0.01 0,0.04 0.03,0.15 l 0.48,1.9 0.05,0.2 0.43,1.69 c 0.06,0.22 0.06,0.24 0.36,0.24 h 1.06 l 0.11,0.25 h -2.54 c -0.14,0 -0.23,0 -0.23,-0.15 0,-0.1 0.09,-0.1 0.23,-0.1 0,0 0.14,0 0.26,-0.01 0.15,-0.02 0.16,-0.03 0.16,-0.1 0,-0.02 0,-0.05 -0.03,-0.15 z"
   inkscape:connector-curvature="0" />
<path
   id="path2440"
   style="fill:#000000;fill-opacity:1;stroke:#000000;stroke-width:0;stroke-opacity:1"
   d="m 173.44,660.48 h 0.03 0.03 0.03 l 0.01,0.01 h 0.02 0.01 0.02 0.01 0.01 l 0.02,0.01 h 0.01 0.01 l 0.02,0.01 h 0.01 l 0.01,0.01 h 0.01 l 0.01,0.01 0.01,0.01 0.01,0.01 0.01,0.01 0.01,0.01 v 0 l 0.01,0.01 v 0 0.01 l 0.01,0.01 v 0 0.01 0.01 0 l 0.01,0.01 v 0.01 0.01 0.01 0 0.01 0.01 c 0,0.2 -0.19,0.2 -0.33,0.2 h -5.97 c -0.14,0 -0.33,0 -0.33,-0.2 0,-0.2 0.19,-0.2 0.34,-0.2 z"
   inkscape:connector-curvature="0" />
<path
   id="path2442"
   style="fill:#000000;fill-opacity:1;stroke:#000000;stroke-width:0;stroke-opacity:1"
   d="m 173.45,658.56 h 0.02 0.01 0.03 0.02 0.02 0.01 0.02 0.01 0.01 l 0.02,0.01 h 0.01 0.01 l 0.02,0.01 h 0.01 l 0.01,0.01 h 0.01 l 0.01,0.01 h 0.01 l 0.01,0.01 0.01,0.01 0.01,0.01 h 0.01 v 0.01 0.01 h 0.01 v 0.01 0 l 0.01,0.01 v 0.01 0 0.01 0.01 h 0.01 v 0.01 0.01 0.01 0.01 0.01 0.01 c 0,0.19 -0.19,0.19 -0.34,0.19 h -5.95 c -0.15,0 -0.34,0 -0.34,-0.19 0,-0.2 0.19,-0.2 0.33,-0.2 z"
   inkscape:connector-curvature="0" />
<path
   id="path2444"
   style="fill:#000000;fill-opacity:1;stroke:#000000;stroke-width:0;stroke-opacity:1"
   d="m 179.93,663.36 v 0.04 0.04 l 0.01,0.04 v 0.04 l 0.01,0.04 0.01,0.05 0.01,0.04 0.02,0.04 0.01,0.05 0.02,0.04 0.02,0.05 0.03,0.04 0.03,0.04 0.03,0.05 0.03,0.04 0.03,0.04 0.04,0.04 0.05,0.04 0.04,0.04 0.05,0.03 0.05,0.04 0.06,0.03 0.06,0.03 0.07,0.03 0.06,0.03 0.08,0.02 0.07,0.03 0.09,0.02 h 0.04 l 0.04,0.01 0.05,0.01 0.04,0.01 h 0.05 l 0.05,0.01 h 0.04 l 0.05,0.01 c 0.05,0.01 0.1,0.05 0.1,0.11 0,0.1 -0.08,0.1 -0.19,0.1 -1,0 -1.91,-0.5 -1.92,-1.24 v -2.26 c 0,-0.39 0,-0.71 -0.4,-1.03 -0.35,-0.29 -0.73,-0.31 -0.95,-0.32 -0.04,-0.01 -0.09,-0.05 -0.09,-0.11 0,-0.1 0.06,-0.1 0.17,-0.11 0.65,-0.04 1.13,-0.4 1.24,-0.89 0.03,-0.1 0.03,-0.12 0.03,-0.48 v -1.97 c 0,-0.42 0,-0.73 0.48,-1.11 0.39,-0.3 1.05,-0.41 1.44,-0.41 0.11,0 0.19,0 0.19,0.11 0,0.1 -0.07,0.1 -0.16,0.11 -0.63,0.04 -1.12,0.36 -1.25,0.86 -0.03,0.09 -0.03,0.11 -0.03,0.47 v 2.09 c 0,0.45 -0.08,0.62 -0.4,0.94 -0.21,0.21 -0.5,0.31 -0.78,0.39 0.82,0.23 1.18,0.68 1.18,1.26 z"
   inkscape:connector-curvature="0" />
<path
   id="path2446"
   style="fill:#000000;fill-opacity:1;stroke:#000000;stroke-width:0;stroke-opacity:1"
   d="m 186.45,663.89 v 0 0 0 0.01 0 0 0 0 0.01 0 0 0.01 0 0.01 0.01 h 0.01 v 0.01 0 0.01 0.02 h 0.01 v 0.01 0 0.01 0 0.01 0 0.01 0 0 0 0 h 0.01 v 0.01 0 0 0 0 0 c 0,0.01 0,0.1 -0.12,0.1 -0.1,0 -0.11,-0.03 -0.15,-0.2 l -0.58,-2.29 c -1.59,-0.05 -3.05,-1.37 -3.05,-2.73 0,-0.94 0.69,-1.73 1.91,-1.79 l 0.05,0.21 c -0.6,0.03 -1.31,0.38 -1.31,1.38 0,1.19 0.85,2.58 2.34,2.71 l -1.03,-4.09 -0.05,-0.21 c -0.08,-0.31 -0.15,-0.63 -0.23,-0.94 -0.12,-0.46 -0.22,-0.84 -0.22,-0.87 0,-0.1 0.07,-0.11 0.12,-0.11 0.05,0 0.07,0.01 0.1,0.04 0.02,0.02 0.08,0.26 0.11,0.4 l 0.38,1.48 0.05,0.21 1.03,4.09 c 0.76,-0.04 1.32,-0.5 1.32,-1.37 0,-1.18 -0.85,-2.6 -2.35,-2.72 l -0.05,-0.21 c 1.61,0.04 3.05,1.39 3.05,2.72 0,0.78 -0.53,1.7 -1.91,1.8 z"
   inkscape:connector-curvature="0" />
<path
   id="path2448"
   style="fill:#000000;fill-opacity:1;stroke:#000000;stroke-width:0;stroke-opacity:1"
   d="m 189.35,656.28 v -0.02 l -0.01,-0.02 v -0.02 l -0.01,-0.02 -0.01,-0.01 v -0.02 l -0.01,-0.02 v -0.01 l -0.01,-0.02 -0.01,-0.01 -0.01,-0.01 -0.01,-0.01 -0.01,-0.01 -0.01,-0.01 -0.01,-0.01 -0.02,-0.01 -0.01,-0.01 -0.02,-0.01 h -0.02 l -0.02,-0.01 h -0.02 l -0.01,-0.01 h -0.01 -0.02 -0.01 -0.01 L 189.05,656 h -0.01 -0.02 -0.01 -0.02 -0.02 -0.02 l -0.02,-0.01 h -0.01 -0.02 -0.02 -0.03 -0.02 -0.02 -0.02 -0.03 -0.02 c -0.12,0 -0.21,0 -0.21,-0.15 0,-0.1 0.08,-0.1 0.21,-0.1 h 2.7 c 1.18,0 2.08,0.8 2.08,1.49 0,0.49 -0.45,0.92 -1.2,0.99 0.85,0.16 1.56,0.69 1.56,1.28 0,0.53 -0.54,0.99 -1.45,0.99 l -0.11,-0.25 c 0.71,0 0.87,-0.47 0.87,-0.73 0,-0.56 -0.64,-1.2 -1.57,-1.2 h -1.15 l -0.05,-0.2 h 1.48 c 0.66,0 0.91,-0.43 0.91,-0.83 0,-0.69 -0.7,-1.29 -1.55,-1.29 h -1.12 c -0.22,0 -0.23,0.01 -0.23,0.07 0,0.01 0,0.04 0.03,0.15 l 0.48,1.9 0.05,0.2 0.43,1.69 c 0.05,0.22 0.06,0.24 0.35,0.24 h 1.07 l 0.11,0.25 h -2.55 c -0.13,0 -0.22,0 -0.22,-0.15 0,-0.1 0.08,-0.1 0.22,-0.1 0.01,0 0.14,0 0.27,-0.01 0.15,-0.02 0.16,-0.03 0.16,-0.1 0,-0.02 0,-0.05 -0.03,-0.15 z"
   inkscape:connector-curvature="0" />
<path
   id="path2450"
   style="fill:#000000;fill-opacity:1;stroke:#000000;stroke-width:0;stroke-opacity:1"
   d="m 197.04,656.07 -0.01,-0.03 V 656 655.96 l -0.01,-0.05 -0.01,-0.04 -0.01,-0.04 -0.01,-0.04 -0.01,-0.05 -0.02,-0.04 -0.02,-0.05 -0.02,-0.04 -0.02,-0.04 -0.03,-0.05 -0.03,-0.04 -0.03,-0.04 -0.04,-0.04 -0.04,-0.04 -0.04,-0.04 -0.05,-0.04 -0.05,-0.04 -0.05,-0.03 -0.06,-0.03 -0.06,-0.03 -0.06,-0.03 -0.07,-0.03 -0.07,-0.03 -0.08,-0.02 -0.08,-0.02 -0.04,-0.01 -0.05,-0.01 h -0.04 l -0.05,-0.01 -0.04,-0.01 h -0.05 l -0.05,-0.01 h -0.05 c -0.05,-0.01 -0.09,-0.05 -0.09,-0.11 0,-0.11 0.11,-0.11 0.2,-0.11 0.97,0 1.89,0.49 1.9,1.24 v 2.27 c 0,0.39 0,0.7 0.4,1.03 0.35,0.29 0.73,0.31 0.95,0.32 0.05,0.01 0.09,0.05 0.09,0.11 0,0.1 -0.06,0.1 -0.16,0.11 -0.66,0.04 -1.14,0.39 -1.25,0.88 -0.03,0.11 -0.03,0.13 -0.03,0.49 v 1.96 c 0,0.42 0,0.74 -0.48,1.12 -0.39,0.31 -1.08,0.4 -1.42,0.4 -0.09,0 -0.2,0 -0.2,-0.1 0,-0.1 0.06,-0.1 0.16,-0.11 0.63,-0.04 1.12,-0.36 1.25,-0.87 0.03,-0.09 0.03,-0.11 0.03,-0.46 v -2.09 c 0,-0.46 0.08,-0.63 0.39,-0.94 0.21,-0.21 0.5,-0.31 0.78,-0.39 -0.82,-0.23 -1.17,-0.69 -1.17,-1.26 z"
   inkscape:connector-curvature="0" />
</g>    <g
       style="font-style:normal;font-variant:normal;font-weight:normal;font-stretch:normal;letter-spacing:normal;word-spacing:normal;text-anchor:start;fill:none;fill-opacity:1;fill-rule:evenodd;stroke:#000000;stroke-linecap:butt;stroke-linejoin:miter;stroke-miterlimit:10.43299961;stroke-dasharray:none;stroke-dashoffset:0;stroke-opacity:1"
       ns0:jacobian_sqrt="0.352778"
       inkscapeversion="0.92.4"
       ns0:alignment="middle center"
       ns0:scale="1.0"
       ns0:preamble="C:\\Users\\MatthewThornton\\AppData\\Roaming\\inkscape\\extensions\\textext\\default_packages.tex"
       ns0:text="$X_C = \\left\\{\\phi_C\\right\\}$"
       ns0:pdfconverter="pstoedit"
       ns0:texconverter="pdflatex"
       ns0:version="0.10.2"
       word-spacing="normal"
       letter-spacing="normal"
       font-size-adjust="none"
       font-stretch="normal"
       font-weight="normal"
       font-variant="normal"
       font-style="normal"
       stroke-miterlimit="10.433"
       xml:space="preserve"
       transform="matrix(0.352778,0,0,-0.352778,-4.7554681,254.98991)"
       id="g2576">
<path
   id="path2560"
   style="fill:#000000;fill-opacity:1;stroke:#000000;stroke-width:0;stroke-opacity:1"
   d="m 153.55,661.32 -0.84,1.97 c -0.03,0.08 -0.05,0.12 -0.05,0.13 0,0.06 0.17,0.25 0.59,0.29 0.1,0.01 0.2,0.02 0.2,0.19 0,0.12 -0.12,0.12 -0.15,0.12 -0.41,0 -0.84,-0.03 -1.26,-0.03 -0.25,0 -0.86,0.03 -1.11,0.03 -0.06,0 -0.18,0 -0.18,-0.2 0,-0.11 0.1,-0.11 0.23,-0.11 0.59,0 0.65,-0.1 0.74,-0.32 l 1.18,-2.77 -2.1,-2.25 -0.13,-0.11 c -0.49,-0.53 -0.96,-0.69 -1.47,-0.72 -0.13,-0.01 -0.22,-0.01 -0.22,-0.2 0,-0.01 0,-0.11 0.13,-0.11 0.3,0 0.63,0.04 0.94,0.04 0.37,0 0.76,-0.04 1.11,-0.04 0.07,0 0.19,0 0.19,0.2 0,0.1 -0.11,0.11 -0.12,0.11 -0.1,0.01 -0.4,0.03 -0.4,0.31 0,0.16 0.15,0.32 0.27,0.45 l 1.01,1.07 0.9,0.97 1.01,-2.37 c 0.04,-0.11 0.05,-0.12 0.05,-0.14 0,-0.08 -0.19,-0.25 -0.58,-0.29 -0.11,-0.01 -0.2,-0.02 -0.2,-0.19 0,-0.12 0.11,-0.12 0.15,-0.12 0.28,0 0.98,0.04 1.26,0.04 0.25,0 0.85,-0.04 1.1,-0.04 0.07,0 0.19,0 0.19,0.19 0,0.12 -0.1,0.12 -0.18,0.12 -0.67,0.01 -0.69,0.04 -0.86,0.44 -0.38,0.92 -1.05,2.47 -1.28,3.07 0.68,0.69 1.72,1.88 2.04,2.16 0.29,0.23 0.67,0.47 1.27,0.5 0.13,0.01 0.22,0.01 0.22,0.2 0,0.01 0,0.11 -0.13,0.11 -0.3,0 -0.63,-0.03 -0.94,-0.03 -0.37,0 -0.75,0.03 -1.11,0.03 -0.06,0 -0.18,0 -0.18,-0.2 0,-0.07 0.04,-0.1 0.11,-0.11 0.09,-0.01 0.4,-0.03 0.4,-0.31 0,-0.13 -0.11,-0.26 -0.19,-0.35 z"
   inkscape:connector-curvature="0" />
<path
   id="path2562"
   style="fill:#000000;fill-opacity:1;stroke:#000000;stroke-width:0;stroke-opacity:1"
   d="m 162.86,660.54 v 0 0.01 0 0 0.01 0 0 0.01 h -0.01 v 0.01 0 0 0.01 0 h -0.01 v 0.01 0 0 l -0.01,0.01 v 0 h -0.01 v 0.01 0 h -0.01 v 0 h -0.01 v 0.01 h -0.01 v 0 0 h -0.01 v 0 0 0 h -0.01 v 0 c -0.05,0 -0.06,-0.02 -0.13,-0.08 l -0.51,-0.54 c -0.06,0.08 -0.45,0.62 -1.31,0.62 -1.7,0 -3.36,-1.5 -3.36,-3.07 0,-1.13 0.89,-1.96 2.14,-1.96 0.38,0 1.05,0.08 1.77,0.68 0.55,0.47 0.71,1.07 0.71,1.13 0,0.09 -0.09,0.09 -0.12,0.09 -0.09,0 -0.11,-0.03 -0.13,-0.11 -0.28,-0.95 -1.26,-1.54 -2.11,-1.54 -0.74,0 -1.57,0.4 -1.57,1.5 0,0.2 0.05,1.3 0.86,2.17 0.48,0.54 1.21,0.86 1.88,0.86 0.81,0 1.29,-0.59 1.29,-1.36 0,-0.2 -0.03,-0.25 -0.03,-0.29 0,-0.09 0.09,-0.09 0.13,-0.09 0.11,0 0.11,0.02 0.15,0.15 z"
   inkscape:connector-curvature="0" />
<path
   id="path2564"
   style="fill:#000000;fill-opacity:1;stroke:#000000;stroke-width:0;stroke-opacity:1"
   d="m 173.29,660.48 h 0.02 0.03 0.03 l 0.02,0.01 h 0.01 0.02 0.01 0.01 0.02 l 0.01,0.01 h 0.01 0.02 l 0.01,0.01 h 0.01 l 0.01,0.01 h 0.02 l 0.01,0.01 0.01,0.01 0.01,0.01 v 0.01 l 0.01,0.01 h 0.01 v 0.01 0 l 0.01,0.01 v 0.01 0 0.01 l 0.01,0.01 v 0 0.01 0.01 0.01 0.01 0 0.01 0.01 c 0,0.2 -0.19,0.2 -0.33,0.2 h -5.97 c -0.14,0 -0.33,0 -0.33,-0.2 0,-0.2 0.19,-0.2 0.34,-0.2 z"
   inkscape:connector-curvature="0" />
<path
   id="path2566"
   style="fill:#000000;fill-opacity:1;stroke:#000000;stroke-width:0;stroke-opacity:1"
   d="m 173.29,658.56 h 0.02 0.01 0.03 0.03 0.01 0.02 0.01 0.01 0.02 l 0.01,0.01 h 0.01 0.02 l 0.01,0.01 h 0.01 l 0.01,0.01 h 0.02 l 0.01,0.01 h 0.01 l 0.01,0.01 0.01,0.01 v 0.01 h 0.01 v 0.01 l 0.01,0.01 v 0 0.01 h 0.01 v 0.01 0.01 0 l 0.01,0.01 v 0.01 0 0.01 0.01 0.01 0.01 0.01 0.01 c 0,0.19 -0.19,0.19 -0.33,0.19 h -5.96 c -0.15,0 -0.34,0 -0.34,-0.19 0,-0.2 0.19,-0.2 0.33,-0.2 z"
   inkscape:connector-curvature="0" />
<path
   id="path2568"
   style="fill:#000000;fill-opacity:1;stroke:#000000;stroke-width:0;stroke-opacity:1"
   d="m 179.77,663.36 v 0.04 l 0.01,0.04 v 0.04 l 0.01,0.04 v 0.04 l 0.01,0.05 0.02,0.04 0.01,0.04 0.02,0.05 0.02,0.04 0.02,0.05 0.02,0.04 0.03,0.04 0.03,0.05 0.03,0.04 0.04,0.04 0.04,0.04 0.04,0.04 0.05,0.04 0.04,0.03 0.06,0.04 0.05,0.03 0.06,0.03 0.07,0.03 0.07,0.03 0.07,0.02 0.08,0.03 0.08,0.02 h 0.04 l 0.04,0.01 0.05,0.01 0.04,0.01 h 0.05 l 0.05,0.01 h 0.05 l 0.05,0.01 c 0.05,0.01 0.09,0.05 0.09,0.11 0,0.1 -0.08,0.1 -0.19,0.1 -1,0 -1.91,-0.5 -1.92,-1.24 v -2.26 c 0,-0.39 0,-0.71 -0.39,-1.03 -0.35,-0.29 -0.73,-0.31 -0.95,-0.32 -0.05,-0.01 -0.09,-0.05 -0.09,-0.11 0,-0.1 0.06,-0.1 0.16,-0.11 0.66,-0.04 1.13,-0.4 1.24,-0.89 0.03,-0.1 0.03,-0.12 0.03,-0.48 v -1.97 c 0,-0.42 0,-0.73 0.48,-1.11 0.39,-0.3 1.05,-0.41 1.44,-0.41 0.11,0 0.19,0 0.19,0.11 0,0.1 -0.06,0.1 -0.16,0.11 -0.63,0.04 -1.12,0.36 -1.25,0.86 -0.03,0.09 -0.03,0.11 -0.03,0.47 v 2.09 c 0,0.45 -0.08,0.62 -0.4,0.94 -0.21,0.21 -0.49,0.31 -0.77,0.39 0.81,0.23 1.17,0.68 1.17,1.26 z"
   inkscape:connector-curvature="0" />
<path
   id="path2570"
   style="fill:#000000;fill-opacity:1;stroke:#000000;stroke-width:0;stroke-opacity:1"
   d="m 186.29,663.89 v 0 0 0 0.01 0 0 0 0 0.01 0 0 0.01 h 0.01 v 0.01 0.01 0 0.01 0 l 0.01,0.01 v 0.02 0 0.01 0 0.01 0 l 0.01,0.01 v 0 0.01 0 0 0 0 0 0.01 0 0 0 0 0 c 0,0.01 0,0.1 -0.12,0.1 -0.1,0 -0.11,-0.03 -0.15,-0.2 l -0.58,-2.29 c -1.58,-0.05 -3.05,-1.37 -3.05,-2.73 0,-0.94 0.7,-1.73 1.92,-1.79 l 0.04,0.21 c -0.59,0.03 -1.31,0.38 -1.31,1.38 0,1.19 0.86,2.58 2.34,2.71 l -1.03,-4.09 -0.04,-0.21 c -0.08,-0.31 -0.15,-0.63 -0.23,-0.94 -0.12,-0.46 -0.22,-0.84 -0.22,-0.87 0,-0.1 0.07,-0.11 0.12,-0.11 0.05,0 0.07,0.01 0.1,0.04 0.02,0.02 0.08,0.26 0.11,0.4 l 0.38,1.48 0.04,0.21 1.03,4.09 c 0.76,-0.04 1.33,-0.5 1.33,-1.37 0,-1.18 -0.86,-2.6 -2.36,-2.72 l -0.04,-0.21 c 1.6,0.04 3.05,1.39 3.05,2.72 0,0.78 -0.53,1.7 -1.92,1.8 z"
   inkscape:connector-curvature="0" />
<path
   id="path2572"
   style="fill:#000000;fill-opacity:1;stroke:#000000;stroke-width:0;stroke-opacity:1"
   d="m 193.76,660.54 v 0 0.01 0 0 0.01 0 0 0.01 0 l -0.01,0.01 v 0 0 0.01 0 0 l -0.01,0.01 v 0 0 l -0.01,0.01 v 0 0 l -0.01,0.01 v 0 h -0.01 v 0 0 l -0.01,0.01 v 0 h -0.01 v 0 0 h -0.01 v 0 0 h -0.01 v 0 c -0.05,0 -0.06,-0.02 -0.13,-0.08 l -0.5,-0.54 c -0.07,0.08 -0.46,0.62 -1.32,0.62 -1.7,0 -3.36,-1.5 -3.36,-3.07 0,-1.13 0.89,-1.96 2.14,-1.96 0.38,0 1.05,0.08 1.77,0.68 0.55,0.47 0.71,1.07 0.71,1.13 0,0.09 -0.08,0.09 -0.12,0.09 -0.09,0 -0.1,-0.03 -0.13,-0.11 -0.28,-0.95 -1.26,-1.54 -2.11,-1.54 -0.74,0 -1.56,0.4 -1.56,1.5 0,0.2 0.05,1.3 0.85,2.17 0.48,0.54 1.22,0.86 1.88,0.86 0.81,0 1.29,-0.59 1.29,-1.36 0,-0.2 -0.02,-0.25 -0.02,-0.29 0,-0.09 0.09,-0.09 0.12,-0.09 0.11,0 0.11,0.02 0.15,0.15 z"
   inkscape:connector-curvature="0" />
<path
   id="path2574"
   style="fill:#000000;fill-opacity:1;stroke:#000000;stroke-width:0;stroke-opacity:1"
   d="m 196.72,656.07 v -0.03 -0.04 -0.04 l -0.01,-0.05 -0.01,-0.04 -0.01,-0.04 -0.01,-0.04 -0.01,-0.05 -0.02,-0.04 -0.02,-0.05 -0.02,-0.04 -0.03,-0.04 -0.02,-0.05 -0.03,-0.04 -0.04,-0.04 -0.03,-0.04 -0.04,-0.04 -0.04,-0.04 -0.05,-0.04 -0.05,-0.04 -0.05,-0.03 -0.06,-0.03 -0.06,-0.03 -0.06,-0.03 -0.07,-0.03 -0.08,-0.03 -0.07,-0.02 -0.08,-0.02 -0.05,-0.01 -0.04,-0.01 h -0.04 l -0.05,-0.01 -0.05,-0.01 h -0.04 l -0.05,-0.01 h -0.05 c -0.05,-0.01 -0.09,-0.05 -0.09,-0.11 0,-0.11 0.11,-0.11 0.2,-0.11 0.96,0 1.89,0.49 1.9,1.24 v 2.27 c 0,0.39 0,0.7 0.4,1.03 0.35,0.29 0.73,0.31 0.95,0.32 0.05,0.01 0.09,0.05 0.09,0.11 0,0.1 -0.06,0.1 -0.16,0.11 -0.66,0.04 -1.14,0.39 -1.25,0.88 -0.03,0.11 -0.03,0.13 -0.03,0.49 v 1.96 c 0,0.42 0,0.74 -0.48,1.12 -0.4,0.31 -1.08,0.4 -1.42,0.4 -0.09,0 -0.2,0 -0.2,-0.1 0,-0.1 0.06,-0.1 0.16,-0.11 0.62,-0.04 1.11,-0.36 1.24,-0.87 0.03,-0.09 0.03,-0.11 0.03,-0.46 v -2.09 c 0,-0.46 0.08,-0.63 0.4,-0.94 0.21,-0.21 0.5,-0.31 0.78,-0.39 -0.82,-0.23 -1.18,-0.69 -1.18,-1.26 z"
   inkscape:connector-curvature="0" />
</g>    <g
       style="font-style:normal;font-variant:normal;font-weight:normal;font-stretch:normal;letter-spacing:normal;word-spacing:normal;text-anchor:start;fill:none;fill-opacity:1;fill-rule:evenodd;stroke:#000000;stroke-linecap:butt;stroke-linejoin:miter;stroke-miterlimit:10.43299961;stroke-dasharray:none;stroke-dashoffset:0;stroke-opacity:1"
       ns0:jacobian_sqrt="0.352778"
       inkscapeversion="0.92.4"
       ns0:alignment="middle center"
       ns0:scale="1.0"
       ns0:preamble="C:\\Users\\MatthewThornton\\AppData\\Roaming\\inkscape\\extensions\\textext\\default_packages.tex"
       ns0:text="$\\ket{\\phi_B}$"
       ns0:pdfconverter="pstoedit"
       ns0:texconverter="pdflatex"
       ns0:version="0.10.2"
       word-spacing="normal"
       letter-spacing="normal"
       font-size-adjust="none"
       font-stretch="normal"
       font-weight="normal"
       font-variant="normal"
       font-style="normal"
       stroke-miterlimit="10.433"
       xml:space="preserve"
       transform="matrix(0.32936569,-0.12637467,-0.12637467,-0.32936569,57.189048,233.91189)"
       id="g2690">
<path
   id="path2682"
   style="fill:#000000;fill-opacity:1;stroke:#000000;stroke-width:0;stroke-opacity:1"
   d="m 150.3,664.33 v 0.03 0.03 0.04 0.01 l -0.01,0.02 v 0.01 0.02 0.02 0.01 l -0.01,0.01 v 0.02 0.01 l -0.01,0.01 v 0.02 l -0.01,0.01 v 0.01 l -0.01,0.01 -0.01,0.01 -0.01,0.01 -0.01,0.01 h -0.01 l -0.01,0.01 v 0 l -0.01,0.01 h -0.01 v 0 h -0.01 l -0.01,0.01 v 0 h -0.01 -0.01 -0.01 -0.01 v 0 h -0.01 -0.01 c -0.2,0 -0.2,-0.17 -0.2,-0.35 v -9.22 c 0,-0.18 0,-0.36 0.2,-0.36 0.2,0 0.2,0.18 0.2,0.36 z"
   inkscape:connector-curvature="0" />
<path
   id="path2684"
   style="fill:#000000;fill-opacity:1;stroke:#000000;stroke-width:0;stroke-opacity:1"
   d="m 155.84,663.89 v 0 0 0 0.01 0 0 0 0 0.01 0 0 0.01 0 0.01 l 0.01,0.01 v 0 0.01 0 0.01 l 0.01,0.02 v 0 0.01 0 0.01 0 0.01 0 l 0.01,0.01 v 0 0 0 0 0 0.01 0 0 0 0 0 c 0,0.01 0,0.1 -0.12,0.1 -0.1,0 -0.11,-0.03 -0.15,-0.2 l -0.58,-2.29 c -1.59,-0.05 -3.05,-1.37 -3.05,-2.73 0,-0.94 0.7,-1.73 1.91,-1.79 l 0.05,0.21 c -0.59,0.03 -1.31,0.38 -1.31,1.38 0,1.19 0.85,2.58 2.34,2.71 l -1.03,-4.09 -0.05,-0.21 c -0.08,-0.31 -0.15,-0.63 -0.23,-0.94 -0.12,-0.46 -0.22,-0.84 -0.22,-0.87 0,-0.1 0.07,-0.11 0.12,-0.11 0.05,0 0.07,0.01 0.1,0.04 0.02,0.02 0.08,0.26 0.11,0.4 l 0.38,1.48 0.05,0.21 1.03,4.09 c 0.76,-0.04 1.33,-0.5 1.33,-1.37 0,-1.18 -0.86,-2.6 -2.36,-2.72 l -0.05,-0.21 c 1.61,0.04 3.05,1.39 3.05,2.72 0,0.78 -0.53,1.7 -1.91,1.8 z"
   inkscape:connector-curvature="0" />
<path
   id="path2686"
   style="fill:#000000;fill-opacity:1;stroke:#000000;stroke-width:0;stroke-opacity:1"
   d="m 158.74,656.28 v -0.02 l -0.01,-0.02 v -0.02 l -0.01,-0.02 v -0.01 l -0.01,-0.02 -0.01,-0.02 v -0.01 l -0.01,-0.02 -0.01,-0.01 -0.01,-0.01 -0.01,-0.01 -0.01,-0.01 -0.01,-0.01 -0.01,-0.01 -0.01,-0.01 -0.02,-0.01 -0.02,-0.01 h -0.02 l -0.02,-0.01 h -0.02 l -0.01,-0.01 h -0.01 -0.01 -0.02 -0.01 L 158.44,656 h -0.01 -0.02 -0.01 -0.02 -0.02 -0.01 l -0.02,-0.01 h -0.02 -0.02 -0.02 -0.02 -0.03 -0.02 -0.02 -0.03 -0.02 c -0.12,0 -0.21,0 -0.21,-0.15 0,-0.1 0.08,-0.1 0.21,-0.1 h 2.71 c 1.17,0 2.07,0.8 2.07,1.49 0,0.49 -0.45,0.92 -1.19,0.99 0.84,0.16 1.55,0.69 1.55,1.28 0,0.53 -0.54,0.99 -1.45,0.99 l -0.11,-0.25 c 0.71,0 0.87,-0.47 0.87,-0.73 0,-0.56 -0.63,-1.2 -1.57,-1.2 h -1.15 l -0.05,-0.2 h 1.49 c 0.65,0 0.91,-0.43 0.91,-0.83 0,-0.69 -0.71,-1.29 -1.56,-1.29 h -1.12 c -0.22,0 -0.23,0.01 -0.23,0.07 0,0.01 0,0.04 0.03,0.15 l 0.48,1.9 0.05,0.2 0.43,1.69 c 0.06,0.22 0.06,0.24 0.36,0.24 h 1.06 l 0.11,0.25 h -2.54 c -0.14,0 -0.23,0 -0.23,-0.15 0,-0.1 0.09,-0.1 0.23,-0.1 0,0 0.14,0 0.26,-0.01 0.15,-0.02 0.16,-0.03 0.16,-0.1 0,-0.02 0,-0.05 -0.03,-0.15 z"
   inkscape:connector-curvature="0" />
<path
   id="path2688"
   style="fill:#000000;fill-opacity:1;stroke:#000000;stroke-width:0;stroke-opacity:1"
   d="m 166.99,659.55 0.01,0.01 v 0 0.01 0 l 0.01,0.01 v 0 0.01 0 0 0.01 h 0.01 v 0.01 0.01 0 l 0.01,0.01 v 0.01 0 0.01 0 l 0.01,0.01 v 0 0.01 0 0.01 0 0 0.01 0 0 0.01 0 0.01 0 0.01 c 0,0.03 0,0.05 -0.05,0.17 l -1.74,4.57 c -0.06,0.17 -0.12,0.22 -0.23,0.22 -0.11,0 -0.2,-0.08 -0.2,-0.19 0,-0.03 0,-0.05 0.05,-0.16 l 1.77,-4.61 -1.77,-4.59 c -0.05,-0.11 -0.05,-0.13 -0.05,-0.18 0,-0.11 0.09,-0.2 0.2,-0.2 0.13,0 0.17,0.1 0.21,0.2 z"
   inkscape:connector-curvature="0" />
</g>    <g
       style="font-style:normal;font-variant:normal;font-weight:normal;font-stretch:normal;letter-spacing:normal;word-spacing:normal;text-anchor:start;fill:none;fill-opacity:1;fill-rule:evenodd;stroke:#000000;stroke-linecap:butt;stroke-linejoin:miter;stroke-miterlimit:10.43299961;stroke-dasharray:none;stroke-dashoffset:0;stroke-opacity:1"
       ns0:jacobian_sqrt="0.352778404357"
       inkscapeversion="0.92.4"
       ns0:alignment="middle center"
       ns0:scale="0.99999999069"
       ns0:preamble="C:\\Users\\MatthewThornton\\AppData\\Roaming\\inkscape\\extensions\\textext\\default_packages.tex"
       ns0:text="$\\ket{\\phi_C}$"
       ns0:pdfconverter="pstoedit"
       ns0:texconverter="pdflatex"
       ns0:version="0.10.2"
       word-spacing="normal"
       letter-spacing="normal"
       font-size-adjust="none"
       font-stretch="normal"
       font-weight="normal"
       font-variant="normal"
       font-style="normal"
       stroke-miterlimit="10.433"
       xml:space="preserve"
       transform="matrix(0.32916345,0.12690164,0.12690164,-0.32916345,-109.84438,217.65975)"
       id="g2911">
<path
   id="path2903"
   style="fill:#000000;fill-opacity:1;stroke:#000000;stroke-width:0;stroke-opacity:1"
   d="m 150.3,664.33 v 0.03 0.03 0.04 0.01 l -0.01,0.02 v 0.01 0.02 0.02 0.01 l -0.01,0.01 v 0.02 0.01 l -0.01,0.01 v 0.02 l -0.01,0.01 v 0.01 l -0.01,0.01 -0.01,0.01 -0.01,0.01 -0.01,0.01 h -0.01 l -0.01,0.01 v 0 l -0.01,0.01 h -0.01 v 0 h -0.01 l -0.01,0.01 v 0 h -0.01 -0.01 -0.01 -0.01 v 0 h -0.01 -0.01 c -0.2,0 -0.2,-0.17 -0.2,-0.35 v -9.22 c 0,-0.18 0,-0.36 0.2,-0.36 0.2,0 0.2,0.18 0.2,0.36 z"
   inkscape:connector-curvature="0" />
<path
   id="path2905"
   style="fill:#000000;fill-opacity:1;stroke:#000000;stroke-width:0;stroke-opacity:1"
   d="m 155.84,663.89 v 0 0 0 0.01 0 0 0 0 0.01 0 0 0.01 0 0.01 l 0.01,0.01 v 0 0.01 0 0.01 l 0.01,0.02 v 0 0.01 0 0.01 0 0.01 0 l 0.01,0.01 v 0 0 0 0 0 0.01 0 0 0 0 0 c 0,0.01 0,0.1 -0.12,0.1 -0.1,0 -0.11,-0.03 -0.15,-0.2 l -0.58,-2.29 c -1.59,-0.05 -3.05,-1.37 -3.05,-2.73 0,-0.94 0.7,-1.73 1.91,-1.79 l 0.05,0.21 c -0.59,0.03 -1.31,0.38 -1.31,1.38 0,1.19 0.85,2.58 2.34,2.71 l -1.03,-4.09 -0.05,-0.21 c -0.08,-0.31 -0.15,-0.63 -0.23,-0.94 -0.12,-0.46 -0.22,-0.84 -0.22,-0.87 0,-0.1 0.07,-0.11 0.12,-0.11 0.05,0 0.07,0.01 0.1,0.04 0.02,0.02 0.08,0.26 0.11,0.4 l 0.38,1.48 0.05,0.21 1.03,4.09 c 0.76,-0.04 1.33,-0.5 1.33,-1.37 0,-1.18 -0.86,-2.6 -2.36,-2.72 l -0.05,-0.21 c 1.61,0.04 3.05,1.39 3.05,2.72 0,0.78 -0.53,1.7 -1.91,1.8 z"
   inkscape:connector-curvature="0" />
<path
   id="path2907"
   style="fill:#000000;fill-opacity:1;stroke:#000000;stroke-width:0;stroke-opacity:1"
   d="m 163.31,660.54 v 0 0.01 0 0 0.01 0 0 0.01 h -0.01 v 0.01 0 0 0.01 0 h -0.01 v 0.01 0 0 l -0.01,0.01 v 0 h -0.01 v 0.01 0 h -0.01 v 0 h -0.01 v 0.01 h -0.01 v 0 0 h -0.01 v 0 0 0 h -0.01 v 0 c -0.05,0 -0.06,-0.02 -0.13,-0.08 l -0.51,-0.54 c -0.06,0.08 -0.45,0.62 -1.31,0.62 -1.7,0 -3.36,-1.5 -3.36,-3.07 0,-1.13 0.89,-1.96 2.14,-1.96 0.38,0 1.05,0.08 1.77,0.68 0.55,0.47 0.71,1.07 0.71,1.13 0,0.09 -0.09,0.09 -0.12,0.09 -0.09,0 -0.11,-0.03 -0.13,-0.11 -0.28,-0.95 -1.26,-1.54 -2.11,-1.54 -0.74,0 -1.57,0.4 -1.57,1.5 0,0.2 0.05,1.3 0.86,2.17 0.48,0.54 1.21,0.86 1.88,0.86 0.81,0 1.29,-0.59 1.29,-1.36 0,-0.2 -0.03,-0.25 -0.03,-0.29 0,-0.09 0.1,-0.09 0.13,-0.09 0.11,0 0.11,0.02 0.15,0.15 z"
   inkscape:connector-curvature="0" />
<path
   id="path2909"
   style="fill:#000000;fill-opacity:1;stroke:#000000;stroke-width:0;stroke-opacity:1"
   d="m 166.84,659.55 v 0.01 0 l 0.01,0.01 v 0 0.01 0 0.01 h 0.01 v 0 0.01 0 0.01 l 0.01,0.01 v 0 0.01 0.01 0 l 0.01,0.01 v 0 0.01 0 0.01 0 0.01 h 0.01 v 0 0.01 0 0 0.01 0 0.01 0 0.01 c 0,0.03 0,0.05 -0.05,0.17 l -1.75,4.57 c -0.06,0.17 -0.11,0.22 -0.22,0.22 -0.11,0 -0.21,-0.08 -0.21,-0.19 0,-0.03 0,-0.05 0.05,-0.16 l 1.77,-4.61 -1.77,-4.59 c -0.05,-0.11 -0.05,-0.13 -0.05,-0.18 0,-0.11 0.1,-0.2 0.21,-0.2 0.12,0 0.16,0.1 0.2,0.2 z"
   inkscape:connector-curvature="0" />
</g>    <g
       id="g3679"
       transform="translate(0,-0.42333333)">
      <g
         id="g3027"
         transform="matrix(0.352778,0,0,-0.352778,-45.465338,233.06354)"
         xml:space="preserve"
         stroke-miterlimit="10.433"
         font-style="normal"
         font-variant="normal"
         font-weight="normal"
         font-stretch="normal"
         font-size-adjust="none"
         letter-spacing="normal"
         word-spacing="normal"
         ns0:version="0.10.2"
         ns0:texconverter="pdflatex"
         ns0:pdfconverter="pstoedit"
         ns0:text="$A_B$"
         ns0:preamble="C:\\Users\\MatthewThornton\\AppData\\Roaming\\inkscape\\extensions\\textext\\default_packages.tex"
         ns0:scale="1.0"
         ns0:alignment="middle center"
         inkscapeversion="0.92.4"
         ns0:jacobian_sqrt="0.352778"
         style="font-style:normal;font-variant:normal;font-weight:normal;font-stretch:normal;letter-spacing:normal;word-spacing:normal;text-anchor:start;fill:none;fill-opacity:1;fill-rule:evenodd;stroke:#000000;stroke-linecap:butt;stroke-linejoin:miter;stroke-miterlimit:10.43299961;stroke-dasharray:none;stroke-dashoffset:0;stroke-opacity:1">
<path
   inkscape:connector-curvature="0"
   d="m 150.5,658.38 -0.04,-0.06 -0.04,-0.06 -0.04,-0.06 -0.03,-0.05 -0.04,-0.05 -0.04,-0.04 -0.03,-0.05 -0.04,-0.04 -0.04,-0.04 -0.04,-0.04 -0.03,-0.03 -0.04,-0.03 -0.04,-0.03 -0.04,-0.03 -0.03,-0.02 -0.04,-0.03 -0.04,-0.02 -0.04,-0.02 -0.04,-0.02 -0.03,-0.02 -0.04,-0.01 -0.04,-0.01 -0.04,-0.02 -0.04,-0.01 -0.04,-0.01 -0.04,-0.01 h -0.04 l -0.04,-0.01 -0.08,-0.01 -0.08,-0.01 c -0.12,-0.01 -0.21,-0.01 -0.21,-0.2 0,-0.06 0.05,-0.11 0.13,-0.11 0.27,0 0.58,0.04 0.86,0.04 0.33,0 0.68,-0.04 0.99,-0.04 0.06,0 0.2,0 0.2,0.19 0,0.11 -0.09,0.12 -0.17,0.12 -0.22,0.02 -0.46,0.1 -0.46,0.35 0,0.12 0.06,0.23 0.14,0.37 l 0.75,1.27 h 2.51 l -0.03,0.31 h -2.29 l 1.97,3.28 0.32,-3.28 0.03,-0.31 c 0.02,-0.21 0.16,-1.56 0.16,-1.66 0,-0.3 -0.52,-0.33 -0.72,-0.33 -0.14,0 -0.24,0 -0.24,-0.2 0,-0.11 0.12,-0.11 0.14,-0.11 0.41,0 0.84,0.04 1.25,0.04 0.25,0 0.87,-0.04 1.12,-0.04 0.06,0 0.18,0 0.18,0.2 0,0.11 -0.1,0.11 -0.23,0.11 -0.62,0 -0.62,0.07 -0.65,0.36 l -0.6,6.21 c -0.02,0.2 -0.02,0.24 -0.19,0.24 -0.16,0 -0.2,-0.07 -0.26,-0.17 z"
   style="fill:#000000;fill-opacity:1;stroke:#000000;stroke-width:0;stroke-opacity:1"
   id="path3023" />
<path
   inkscape:connector-curvature="0"
   d="m 157.51,656.28 v -0.02 l -0.01,-0.02 v -0.02 l -0.01,-0.02 -0.01,-0.01 v -0.02 l -0.01,-0.02 v -0.01 l -0.01,-0.02 -0.01,-0.01 -0.01,-0.01 -0.01,-0.01 -0.01,-0.01 -0.01,-0.01 -0.01,-0.01 -0.02,-0.01 -0.01,-0.01 -0.02,-0.01 h -0.02 l -0.02,-0.01 h -0.02 l -0.01,-0.01 h -0.01 -0.02 -0.01 -0.01 L 157.21,656 h -0.01 -0.02 -0.01 -0.02 -0.02 -0.02 l -0.02,-0.01 h -0.01 -0.02 -0.02 -0.03 -0.02 -0.02 -0.02 -0.03 -0.02 c -0.12,0 -0.21,0 -0.21,-0.15 0,-0.1 0.08,-0.1 0.21,-0.1 h 2.7 c 1.18,0 2.08,0.8 2.08,1.49 0,0.49 -0.45,0.92 -1.2,0.99 0.85,0.16 1.56,0.69 1.56,1.28 0,0.53 -0.54,0.99 -1.45,0.99 l -0.11,-0.25 c 0.71,0 0.87,-0.47 0.87,-0.73 0,-0.56 -0.64,-1.2 -1.57,-1.2 h -1.15 l -0.05,-0.2 h 1.49 c 0.65,0 0.9,-0.43 0.9,-0.83 0,-0.69 -0.7,-1.29 -1.55,-1.29 h -1.12 c -0.22,0 -0.23,0.01 -0.23,0.07 0,0.01 0,0.04 0.03,0.15 l 0.48,1.9 0.05,0.2 0.43,1.69 c 0.05,0.22 0.06,0.24 0.35,0.24 h 1.07 l 0.11,0.25 h -2.55 c -0.13,0 -0.22,0 -0.22,-0.15 0,-0.1 0.08,-0.1 0.22,-0.1 0.01,0 0.14,0 0.27,-0.01 0.15,-0.02 0.16,-0.03 0.16,-0.1 0,-0.02 0,-0.05 -0.03,-0.15 z"
   style="fill:#000000;fill-opacity:1;stroke:#000000;stroke-width:0;stroke-opacity:1"
   id="path3025" />
</g>      <g
         id="g3144"
         transform="matrix(0.352778,0,0,-0.352778,-45.472394,249.72716)"
         xml:space="preserve"
         stroke-miterlimit="10.433"
         font-style="normal"
         font-variant="normal"
         font-weight="normal"
         font-stretch="normal"
         font-size-adjust="none"
         letter-spacing="normal"
         word-spacing="normal"
         ns0:version="0.10.2"
         ns0:texconverter="pdflatex"
         ns0:pdfconverter="pstoedit"
         ns0:text="$A_C$"
         ns0:preamble="C:\\Users\\MatthewThornton\\AppData\\Roaming\\inkscape\\extensions\\textext\\default_packages.tex"
         ns0:scale="1.0"
         ns0:alignment="middle center"
         inkscapeversion="0.92.4"
         ns0:jacobian_sqrt="0.352778"
         style="font-style:normal;font-variant:normal;font-weight:normal;font-stretch:normal;letter-spacing:normal;word-spacing:normal;text-anchor:start;fill:none;fill-opacity:1;fill-rule:evenodd;stroke:#000000;stroke-linecap:butt;stroke-linejoin:miter;stroke-miterlimit:10.43299961;stroke-dasharray:none;stroke-dashoffset:0;stroke-opacity:1">
<path
   inkscape:connector-curvature="0"
   d="m 150.5,658.38 -0.04,-0.06 -0.04,-0.06 -0.04,-0.06 -0.03,-0.05 -0.04,-0.05 -0.04,-0.04 -0.03,-0.05 -0.04,-0.04 -0.04,-0.04 -0.04,-0.04 -0.03,-0.03 -0.04,-0.03 -0.04,-0.03 -0.04,-0.03 -0.03,-0.02 -0.04,-0.03 -0.04,-0.02 -0.04,-0.02 -0.04,-0.02 -0.03,-0.02 -0.04,-0.01 -0.04,-0.01 -0.04,-0.02 -0.04,-0.01 -0.04,-0.01 -0.04,-0.01 h -0.04 l -0.04,-0.01 -0.08,-0.01 -0.08,-0.01 c -0.12,-0.01 -0.21,-0.01 -0.21,-0.2 0,-0.06 0.05,-0.11 0.13,-0.11 0.27,0 0.58,0.04 0.86,0.04 0.33,0 0.68,-0.04 0.99,-0.04 0.06,0 0.2,0 0.2,0.19 0,0.11 -0.09,0.12 -0.17,0.12 -0.22,0.02 -0.46,0.1 -0.46,0.35 0,0.12 0.06,0.23 0.14,0.37 l 0.75,1.27 h 2.51 l -0.03,0.31 h -2.29 l 1.97,3.28 0.32,-3.28 0.03,-0.31 c 0.02,-0.21 0.16,-1.56 0.16,-1.66 0,-0.3 -0.52,-0.33 -0.72,-0.33 -0.14,0 -0.24,0 -0.24,-0.2 0,-0.11 0.12,-0.11 0.14,-0.11 0.41,0 0.84,0.04 1.25,0.04 0.25,0 0.87,-0.04 1.12,-0.04 0.06,0 0.18,0 0.18,0.2 0,0.11 -0.1,0.11 -0.23,0.11 -0.62,0 -0.62,0.07 -0.65,0.36 l -0.6,6.21 c -0.02,0.2 -0.02,0.24 -0.19,0.24 -0.16,0 -0.2,-0.07 -0.26,-0.17 z"
   style="fill:#000000;fill-opacity:1;stroke:#000000;stroke-width:0;stroke-opacity:1"
   id="path3140" />
<path
   inkscape:connector-curvature="0"
   d="m 162.08,660.54 v 0 0.01 0 0 0.01 0 h -0.01 v 0.01 0 0.01 0 0 0.01 h -0.01 v 0 0.01 0 h -0.01 v 0.01 0 h -0.01 v 0.01 0 h -0.01 v 0 h -0.01 v 0.01 h -0.01 v 0 0 H 162 v 0 0 h -0.01 v 0 0 c -0.05,0 -0.07,-0.02 -0.13,-0.08 l -0.51,-0.54 c -0.06,0.08 -0.45,0.62 -1.31,0.62 -1.7,0 -3.37,-1.5 -3.37,-3.07 0,-1.13 0.9,-1.96 2.15,-1.96 0.38,0 1.05,0.08 1.77,0.68 0.55,0.47 0.7,1.07 0.7,1.13 0,0.09 -0.08,0.09 -0.11,0.09 -0.09,0 -0.11,-0.03 -0.13,-0.11 -0.29,-0.95 -1.26,-1.54 -2.11,-1.54 -0.74,0 -1.57,0.4 -1.57,1.5 0,0.2 0.05,1.3 0.86,2.17 0.48,0.54 1.21,0.86 1.88,0.86 0.81,0 1.28,-0.59 1.28,-1.36 0,-0.2 -0.02,-0.25 -0.02,-0.29 0,-0.09 0.09,-0.09 0.13,-0.09 0.11,0 0.11,0.02 0.15,0.15 z"
   style="fill:#000000;fill-opacity:1;stroke:#000000;stroke-width:0;stroke-opacity:1"
   id="path3142" />
</g>    </g>
    <g
       ns0:jacobian_sqrt="0.3"
       inkscapeversion="0.92.4"
       ns0:alignment="middle center"
       ns0:scale="0.225000000001"
       ns0:preamble="C:\\Users\\MatthewThornton\\AppData\\Roaming\\inkscape\\extensions\\textext\\default_packages.tex"
       ns0:text="QSS: distribution stage"
       ns0:pdfconverter="pstoedit"
       ns0:texconverter="pdflatex"
       ns0:version="0.10.2"
       word-spacing="normal"
       letter-spacing="normal"
       font-size-adjust="none"
       font-stretch="normal"
       font-weight="normal"
       font-variant="normal"
       font-style="normal"
       stroke-miterlimit="10.433"
       xml:space="preserve"
       transform="matrix(0.3,0,0,-0.3,-27.145468,184.55465)"
       id="g3787"
       style="font-style:normal;font-variant:normal;font-weight:normal;font-stretch:normal;letter-spacing:normal;word-spacing:normal;text-anchor:start;fill:none;fill-opacity:1;fill-rule:evenodd;stroke:#000000;stroke-linecap:butt;stroke-linejoin:miter;stroke-miterlimit:10.43299961;stroke-dasharray:none;stroke-dashoffset:0;stroke-opacity:1">
<path
   id="path3737"
   d="m 153.88,657.3 0.11,0.06 0.1,0.05 0.11,0.06 0.1,0.07 0.1,0.06 0.1,0.08 0.1,0.07 0.09,0.08 0.09,0.08 0.09,0.09 0.08,0.09 0.09,0.09 0.07,0.1 0.08,0.1 0.07,0.1 0.07,0.11 0.07,0.11 0.06,0.11 0.06,0.11 0.05,0.12 0.05,0.12 0.05,0.12 0.04,0.12 0.04,0.13 0.04,0.13 0.03,0.13 0.02,0.13 0.02,0.13 0.02,0.14 0.01,0.13 0.01,0.14 v 0.14 c 0,2.03 -1.5,3.64 -3.32,3.64 v -0.25 c 0.97,0 2.32,-0.85 2.32,-3.39 0,-0.77 -0.11,-2.17 -1.17,-2.95 -0.22,0.56 -0.54,1.06 -1.13,1.06 v -0.22 c 0.54,0 0.76,-0.42 0.87,-1 v 0 c -0.34,-0.19 -0.66,-0.22 -0.88,-0.22 -0.51,0 -0.59,0.45 -0.59,0.6 0,0.29 0.21,0.62 0.6,0.62 v 0.22 c -0.51,0 -0.82,-0.43 -0.82,-0.84 0,-0.27 0.13,-0.46 0.14,-0.48 v 0 c -0.54,0.2 -1.65,0.93 -1.65,3.21 0,2.58 1.39,3.39 2.31,3.39 v 0.25 c -1.78,0 -3.31,-1.59 -3.31,-3.64 0,-2 1.51,-3.58 3.32,-3.58 0.31,0 0.66,0.06 0.95,0.14 0.15,-0.94 0.29,-1.85 1.22,-1.85 1.01,0 1.2,1.32 1.2,1.83 0,0.09 0,0.2 -0.11,0.2 -0.09,0 -0.1,-0.07 -0.11,-0.18 -0.06,-0.53 -0.48,-0.83 -0.9,-0.83 -0.47,0 -0.72,0.34 -0.96,0.97 z"
   inkscape:connector-curvature="0"
   style="fill:#000000;stroke-width:0" />
<path
   id="path3739"
   d="m 159.94,661.09 -1.28,0.31 c -0.61,0.15 -1,0.68 -1,1.26 0,0.69 0.54,1.3 1.31,1.3 1.67,0 1.89,-1.63 1.95,-2.08 0.01,-0.06 0.01,-0.11 0.12,-0.11 0.13,0 0.13,0.05 0.13,0.23 v 2 c 0,0.17 0,0.24 -0.11,0.24 -0.07,0 -0.08,-0.01 -0.15,-0.13 l -0.35,-0.57 c -0.3,0.29 -0.71,0.7 -1.6,0.7 -1.1,0 -1.94,-0.88 -1.94,-1.93 0,-0.82 0.53,-1.55 1.31,-1.82 0.1,-0.04 0.61,-0.16 1.31,-0.33 0.27,-0.06 0.57,-0.13 0.85,-0.5 0.21,-0.26 0.31,-0.59 0.31,-0.92 0,-0.7 -0.5,-1.42 -1.34,-1.42 -0.29,0 -1.05,0.05 -1.57,0.54 -0.58,0.54 -0.61,1.17 -0.62,1.53 -0.01,0.1 -0.09,0.1 -0.12,0.1 -0.13,0 -0.13,-0.07 -0.13,-0.25 v -1.98 c 0,-0.17 0,-0.24 0.11,-0.24 0.07,0 0.08,0.02 0.15,0.13 0,0.01 0.03,0.03 0.36,0.56 0.31,-0.34 0.95,-0.69 1.83,-0.69 1.17,0 1.97,0.97 1.97,2.06 0,1 -0.66,1.81 -1.5,2.01 z"
   inkscape:connector-curvature="0"
   style="fill:#000000;stroke-width:0" />
<path
   id="path3741"
   d="m 165.48,661.09 -1.28,0.31 c -0.62,0.15 -1.01,0.68 -1.01,1.26 0,0.69 0.54,1.3 1.32,1.3 1.66,0 1.88,-1.63 1.94,-2.08 0.01,-0.06 0.01,-0.11 0.12,-0.11 0.13,0 0.13,0.05 0.13,0.23 v 2 c 0,0.17 0,0.24 -0.11,0.24 -0.07,0 -0.08,-0.01 -0.15,-0.13 l -0.34,-0.57 c -0.31,0.29 -0.71,0.7 -1.6,0.7 -1.11,0 -1.95,-0.88 -1.95,-1.93 0,-0.82 0.53,-1.55 1.31,-1.82 0.11,-0.04 0.62,-0.16 1.32,-0.33 0.27,-0.06 0.57,-0.13 0.84,-0.5 0.21,-0.26 0.31,-0.59 0.31,-0.92 0,-0.7 -0.49,-1.42 -1.33,-1.42 -0.29,0 -1.05,0.05 -1.58,0.54 -0.58,0.54 -0.61,1.17 -0.62,1.53 -0.01,0.1 -0.09,0.1 -0.12,0.1 -0.13,0 -0.13,-0.07 -0.13,-0.25 v -1.98 c 0,-0.17 0,-0.24 0.11,-0.24 0.07,0 0.08,0.02 0.15,0.13 0,0.01 0.03,0.03 0.36,0.56 0.31,-0.34 0.95,-0.69 1.84,-0.69 1.16,0 1.96,0.97 1.96,2.06 0,1 -0.66,1.81 -1.49,2.01 z"
   inkscape:connector-curvature="0"
   style="fill:#000000;stroke-width:0" />
<path
   id="path3743"
   d="m 169.45,660.99 v 0.03 l -0.01,0.02 v 0.03 0.03 l -0.01,0.02 -0.01,0.03 -0.01,0.02 -0.01,0.02 -0.01,0.03 -0.01,0.02 -0.01,0.02 -0.01,0.02 -0.02,0.02 -0.02,0.02 -0.01,0.02 -0.02,0.02 -0.02,0.02 -0.02,0.02 -0.02,0.01 -0.02,0.02 -0.02,0.01 -0.02,0.01 -0.02,0.01 -0.03,0.01 -0.02,0.01 -0.03,0.01 -0.02,0.01 -0.03,0.01 H 169 168.97 l -0.03,0.01 h -0.02 c -0.29,0 -0.53,-0.24 -0.53,-0.53 0,-0.29 0.24,-0.53 0.53,-0.53 0.29,0 0.53,0.24 0.53,0.53 z"
   inkscape:connector-curvature="0"
   style="fill:#000000;stroke-width:0" />
<path
   id="path3745"
   d="m 169.45,657.76 v 0.03 l -0.01,0.03 v 0.02 0.03 l -0.01,0.02 -0.01,0.03 -0.01,0.02 -0.01,0.03 -0.01,0.02 -0.01,0.02 -0.01,0.02 -0.01,0.03 -0.02,0.02 -0.02,0.02 -0.01,0.01 -0.02,0.02 -0.02,0.02 -0.02,0.02 -0.02,0.01 -0.02,0.02 -0.02,0.01 -0.02,0.01 -0.02,0.02 -0.03,0.01 -0.02,0.01 h -0.03 l -0.02,0.01 -0.03,0.01 H 169 l -0.03,0.01 h -0.03 -0.02 c -0.29,0 -0.53,-0.24 -0.53,-0.53 0,-0.29 0.24,-0.53 0.53,-0.53 0.29,0 0.53,0.24 0.53,0.53 z"
   inkscape:connector-curvature="0"
   style="fill:#000000;stroke-width:0" />
<path
   id="path3747"
   d="m 177.41,657.78 v -0.65 l 1.46,0.1 v 0.31 c -0.7,0 -0.78,0.07 -0.78,0.56 v 6.03 l -1.43,-0.11 v -0.31 c 0.7,0 0.78,-0.07 0.78,-0.55 v -2.15 c -0.29,0.36 -0.72,0.62 -1.26,0.62 l 0.04,-0.22 c 0.35,0 0.77,-0.15 1.08,-0.6 0.11,-0.17 0.11,-0.19 0.11,-0.37 v 0 -2.03 c 0,-0.18 0,-0.2 -0.11,-0.37 -0.3,-0.48 -0.75,-0.7 -1.18,-0.7 -0.45,0 -0.81,0.26 -1.05,0.64 -0.26,0.41 -0.29,0.97 -0.29,1.38 0,0.37 0.02,0.96 0.31,1.41 0.21,0.31 0.59,0.64 1.13,0.64 l -0.04,0.22 c -1.18,0 -2.22,-0.98 -2.22,-2.26 0,-1.26 0.97,-2.24 2.11,-2.24 0.64,0 1.09,0.33 1.34,0.65 z"
   inkscape:connector-curvature="0"
   style="fill:#000000;stroke-width:0" />
<path
   id="path3749"
   d="m 180.92,661.63 -1.4,-0.11 v -0.31 c 0.65,0 0.74,-0.06 0.74,-0.55 v -2.67 c 0,-0.45 -0.11,-0.45 -0.78,-0.45 v -0.31 c 0.32,0.01 0.86,0.04 1.1,0.04 0.35,0 0.7,-0.03 1.04,-0.04 v 0.31 c -0.66,0 -0.7,0.05 -0.7,0.44 z"
   inkscape:connector-curvature="0"
   style="fill:#000000;stroke-width:0" />
<path
   id="path3751"
   d="m 180.96,663.35 v 0.03 l -0.01,0.03 v 0.03 0.03 l -0.01,0.02 -0.01,0.03 -0.01,0.03 -0.01,0.02 -0.01,0.02 -0.01,0.03 -0.01,0.02 -0.02,0.02 -0.01,0.02 -0.02,0.02 -0.02,0.02 -0.01,0.02 -0.02,0.01 -0.02,0.02 -0.02,0.01 -0.02,0.02 -0.02,0.01 -0.03,0.01 -0.02,0.01 -0.02,0.01 -0.03,0.01 -0.02,0.01 -0.02,0.01 h -0.03 l -0.02,0.01 h -0.03 -0.03 -0.02 c -0.31,0 -0.53,-0.27 -0.53,-0.53 0,-0.26 0.22,-0.52 0.53,-0.52 0.28,0 0.53,0.21 0.53,0.52 z"
   inkscape:connector-curvature="0"
   style="fill:#000000;stroke-width:0" />
<path
   id="path3753"
   d="m 183.99,659.16 h 0.03 l 0.02,-0.01 h 0.03 l 0.03,-0.01 0.03,-0.01 0.04,-0.01 0.04,-0.01 0.04,-0.01 0.04,-0.01 0.04,-0.01 0.04,-0.02 0.05,-0.02 0.04,-0.01 0.05,-0.03 0.04,-0.02 0.04,-0.02 0.05,-0.03 0.04,-0.03 0.04,-0.03 0.04,-0.03 0.04,-0.03 0.03,-0.04 0.04,-0.04 0.03,-0.04 0.03,-0.05 0.01,-0.02 0.01,-0.03 0.02,-0.02 0.01,-0.03 0.01,-0.02 0.01,-0.03 v -0.03 l 0.01,-0.02 0.01,-0.03 v -0.03 l 0.01,-0.03 v -0.04 -0.03 -0.03 c 0,-0.51 -0.35,-0.91 -1.13,-0.91 -0.83,0 -1.19,0.57 -1.38,1.42 -0.03,0.12 -0.04,0.16 -0.14,0.16 -0.13,0 -0.13,-0.07 -0.13,-0.25 v -1.31 c 0,-0.16 0,-0.23 0.11,-0.23 0.05,0 0.06,0.01 0.25,0.19 0.02,0.02 0.02,0.04 0.2,0.23 0.44,-0.41 0.88,-0.42 1.09,-0.42 1.15,0 1.61,0.66 1.61,1.38 0,0.52 -0.3,0.82 -0.42,0.94 -0.33,0.32 -0.72,0.4 -1.14,0.48 -0.55,0.11 -1.22,0.23 -1.22,0.81 0,0.35 0.26,0.76 1.11,0.76 1.1,0 1.15,-0.9 1.17,-1.21 0.01,-0.08 0.1,-0.08 0.12,-0.08 0.13,0 0.13,0.05 0.13,0.23 v 1.01 c 0,0.17 0,0.23 -0.11,0.23 -0.05,0 -0.07,0 -0.2,-0.11 -0.03,-0.04 -0.13,-0.13 -0.17,-0.16 -0.38,0.27 -0.79,0.27 -0.94,0.27 -1.21,0 -1.59,-0.66 -1.59,-1.22 0,-0.34 0.16,-0.62 0.43,-0.84 0.32,-0.26 0.59,-0.32 1.31,-0.46 z"
   inkscape:connector-curvature="0"
   style="fill:#000000;stroke-width:0" />
<path
   id="path3755"
   d="M 187.57,661.21 H 189 v 0.31 h -1.43 v 1.82 h -0.25 c -0.01,-0.81 -0.31,-1.87 -1.28,-1.91 v -0.22 h 0.85 v -2.74 c 0,-1.23 0.92,-1.34 1.28,-1.34 0.71,0 0.99,0.7 0.99,1.34 v 0.56 h -0.25 v -0.54 c 0,-0.74 -0.3,-1.12 -0.67,-1.12 -0.67,0 -0.67,0.91 -0.67,1.08 z"
   inkscape:connector-curvature="0"
   style="fill:#000000;stroke-width:0" />
<path
   id="path3757"
   d="m 191.39,660.53 v 1.1 L 190,661.52 v -0.31 c 0.7,0 0.78,-0.07 0.78,-0.56 v -2.66 c 0,-0.45 -0.11,-0.45 -0.78,-0.45 v -0.31 c 0.39,0.01 0.86,0.04 1.14,0.04 0.4,0 0.87,0 1.27,-0.04 v 0.31 h -0.21 c -0.74,0 -0.76,0.11 -0.76,0.47 v 1.53 c 0,0.98 0.42,1.87 1.18,1.87 0.06,0 0.09,0 0.11,-0.01 -0.03,-0.01 -0.24,-0.13 -0.24,-0.39 0,-0.28 0.22,-0.43 0.43,-0.43 0.18,0 0.43,0.12 0.43,0.44 0,0.32 -0.31,0.61 -0.73,0.61 -0.73,0 -1.09,-0.67 -1.23,-1.1 z"
   inkscape:connector-curvature="0"
   style="fill:#000000;stroke-width:0" />
<path
   id="path3759"
   d="m 195.39,661.63 -1.4,-0.11 v -0.31 c 0.65,0 0.74,-0.06 0.74,-0.55 v -2.67 c 0,-0.45 -0.11,-0.45 -0.78,-0.45 v -0.31 c 0.32,0.01 0.86,0.04 1.1,0.04 0.35,0 0.7,-0.03 1.04,-0.04 v 0.31 c -0.66,0 -0.7,0.05 -0.7,0.44 z"
   inkscape:connector-curvature="0"
   style="fill:#000000;stroke-width:0" />
<path
   id="path3761"
   d="m 195.43,663.35 v 0.03 0.03 l -0.01,0.03 v 0.03 l -0.01,0.02 v 0.03 l -0.01,0.03 -0.01,0.02 -0.01,0.02 -0.02,0.03 -0.01,0.02 -0.01,0.02 -0.02,0.02 -0.01,0.02 -0.02,0.02 -0.02,0.02 -0.02,0.01 -0.02,0.02 -0.02,0.01 -0.02,0.02 -0.02,0.01 -0.02,0.01 -0.02,0.01 -0.03,0.01 -0.02,0.01 -0.03,0.01 -0.02,0.01 H 195 l -0.02,0.01 h -0.03 -0.02 -0.03 c -0.31,0 -0.53,-0.27 -0.53,-0.53 0,-0.26 0.22,-0.52 0.53,-0.52 0.28,0 0.53,0.21 0.53,0.52 z"
   inkscape:connector-curvature="0"
   style="fill:#000000;stroke-width:0" />
<path
   id="path3763"
   d="m 198.11,660.98 v 3.15 l -1.44,-0.11 v -0.31 c 0.7,0 0.78,-0.07 0.78,-0.55 v -5.93 h 0.25 c 0.01,0.01 0.09,0.15 0.36,0.62 0.15,-0.23 0.57,-0.72 1.31,-0.72 l -0.05,0.21 c -0.44,0 -0.8,0.24 -1.04,0.61 -0.14,0.21 -0.14,0.24 -0.14,0.42 v 0 2.04 c 0,0.19 0,0.2 0.11,0.36 0.39,0.56 0.93,0.64 1.17,0.64 0.45,0 0.81,-0.26 1.05,-0.64 0.26,-0.41 0.29,-0.97 0.29,-1.38 0,-0.37 -0.02,-0.96 -0.31,-1.41 -0.21,-0.31 -0.59,-0.64 -1.13,-0.64 l 0.05,-0.21 c 1.18,0 2.22,0.97 2.22,2.25 0,1.26 -0.98,2.25 -2.12,2.25 -0.77,0 -1.2,-0.47 -1.36,-0.65 z"
   inkscape:connector-curvature="0"
   style="fill:#000000;stroke-width:0" />
<path
   id="path3765"
   d="m 205.83,658.02 v -0.89 l 1.43,0.1 v 0.31 c -0.69,0 -0.77,0.07 -0.77,0.56 v 3.53 l -1.47,-0.11 v -0.31 c 0.7,0 0.78,-0.07 0.78,-0.56 v -1.77 c 0,-0.86 -0.48,-1.54 -1.21,-1.54 -0.84,0 -0.88,0.47 -0.88,0.99 v 3.3 l -1.46,-0.11 v -0.31 c 0.77,0 0.77,-0.03 0.77,-0.92 v -1.49 c 0,-0.77 0,-1.67 1.52,-1.67 0.56,0 1,0.27 1.29,0.89 z"
   inkscape:connector-curvature="0"
   style="fill:#000000;stroke-width:0" />
<path
   id="path3767"
   d="m 209.19,661.21 h 1.42 v 0.31 h -1.42 v 1.82 h -0.25 c -0.01,-0.81 -0.31,-1.87 -1.29,-1.91 v -0.22 h 0.85 v -2.74 c 0,-1.23 0.93,-1.34 1.29,-1.34 0.7,0 0.98,0.7 0.98,1.34 v 0.56 h -0.25 v -0.54 c 0,-0.74 -0.29,-1.12 -0.66,-1.12 -0.67,0 -0.67,0.91 -0.67,1.08 z"
   inkscape:connector-curvature="0"
   style="fill:#000000;stroke-width:0" />
<path
   id="path3769"
   d="m 213.1,661.63 -1.39,-0.11 v -0.31 c 0.64,0 0.74,-0.06 0.74,-0.55 v -2.67 c 0,-0.45 -0.11,-0.45 -0.78,-0.45 v -0.31 c 0.32,0.01 0.85,0.04 1.09,0.04 0.35,0 0.7,-0.03 1.04,-0.04 v 0.31 c -0.66,0 -0.7,0.05 -0.7,0.44 z"
   inkscape:connector-curvature="0"
   style="fill:#000000;stroke-width:0" />
<path
   id="path3771"
   d="m 213.14,663.35 v 0.03 0.03 0.03 l -0.01,0.03 v 0.02 l -0.01,0.03 -0.01,0.03 -0.01,0.02 -0.01,0.02 -0.01,0.03 -0.02,0.02 -0.01,0.02 -0.02,0.02 -0.01,0.02 -0.02,0.02 -0.02,0.02 -0.02,0.01 -0.01,0.02 -0.03,0.01 -0.02,0.02 -0.02,0.01 -0.02,0.01 -0.02,0.01 -0.03,0.01 -0.02,0.01 -0.02,0.01 -0.03,0.01 h -0.02 l -0.03,0.01 h -0.02 -0.03 -0.03 c -0.31,0 -0.52,-0.27 -0.52,-0.53 0,-0.26 0.21,-0.52 0.52,-0.52 0.28,0 0.53,0.21 0.53,0.52 z"
   inkscape:connector-curvature="0"
   style="fill:#000000;stroke-width:0" />
<path
   id="path3773"
   d="m 218.8,659.36 v 0.12 l -0.01,0.12 -0.01,0.11 -0.02,0.12 -0.03,0.11 -0.03,0.11 -0.03,0.11 -0.04,0.1 -0.05,0.1 -0.05,0.1 -0.05,0.1 -0.06,0.09 -0.06,0.1 -0.06,0.08 -0.07,0.09 -0.08,0.08 -0.07,0.08 -0.08,0.07 -0.09,0.07 -0.08,0.06 -0.09,0.07 -0.1,0.05 -0.09,0.05 -0.1,0.05 -0.1,0.04 -0.1,0.04 -0.1,0.03 -0.11,0.03 -0.11,0.02 -0.11,0.01 -0.11,0.01 h -0.11 l -0.01,-0.21 c 0.44,0 0.87,-0.22 1.12,-0.65 0.27,-0.43 0.27,-1 0.27,-1.38 0,-0.36 0,-0.89 -0.22,-1.33 -0.22,-0.45 -0.66,-0.74 -1.16,-0.74 v 0 c -0.43,0 -0.87,0.21 -1.14,0.67 -0.25,0.44 -0.25,1.04 -0.25,1.4 0,0.39 0,0.92 0.24,1.36 0.27,0.46 0.74,0.67 1.14,0.67 l 0.01,0.21 c -1.25,0 -2.22,-1.08 -2.22,-2.32 0,-1.28 1.04,-2.23 2.21,-2.23 1.2,0 2.21,0.97 2.21,2.23 z"
   inkscape:connector-curvature="0"
   style="fill:#000000;stroke-width:0" />
<path
   id="path3775"
   d="m 220.18,660.65 v -2.66 c 0,-0.45 -0.11,-0.45 -0.77,-0.45 v -0.31 c 0.35,0.01 0.85,0.04 1.12,0.04 0.26,0 0.78,-0.03 1.12,-0.04 v 0.31 c -0.67,0 -0.78,0 -0.78,0.45 v 1.83 c 0,1.03 0.71,1.59 1.35,1.59 0.63,0 0.74,-0.54 0.74,-1.11 v -2.31 c 0,-0.45 -0.11,-0.45 -0.78,-0.45 v -0.31 c 0.35,0.01 0.86,0.04 1.12,0.04 0.26,0 0.78,-0.03 1.12,-0.04 v 0.31 c -0.52,0 -0.77,0 -0.78,0.3 v 1.9 c 0,0.85 0,1.16 -0.3,1.52 -0.14,0.17 -0.47,0.37 -1.05,0.37 -0.73,0 -1.2,-0.43 -1.48,-1.05 v 1.05 l -1.4,-0.11 v -0.31 c 0.69,0 0.77,-0.07 0.77,-0.56 z"
   inkscape:connector-curvature="0"
   style="fill:#000000;stroke-width:0" />
<path
   id="path3777"
   d="m 230.01,659.16 h 0.03 l 0.02,-0.01 h 0.03 l 0.03,-0.01 0.04,-0.01 0.03,-0.01 0.04,-0.01 0.04,-0.01 0.04,-0.01 0.04,-0.01 0.04,-0.02 0.05,-0.02 0.04,-0.01 0.05,-0.03 0.04,-0.02 0.04,-0.02 0.05,-0.03 0.04,-0.03 0.04,-0.03 0.04,-0.03 0.04,-0.03 0.03,-0.04 0.04,-0.04 0.03,-0.04 0.03,-0.05 0.01,-0.02 0.01,-0.03 0.02,-0.02 0.01,-0.03 0.01,-0.02 0.01,-0.03 v -0.03 l 0.01,-0.02 0.01,-0.03 v -0.03 l 0.01,-0.03 v -0.04 -0.03 -0.03 c 0,-0.51 -0.35,-0.91 -1.13,-0.91 -0.83,0 -1.19,0.57 -1.38,1.42 -0.03,0.12 -0.04,0.16 -0.14,0.16 -0.13,0 -0.13,-0.07 -0.13,-0.25 v -1.31 c 0,-0.16 0,-0.23 0.11,-0.23 0.05,0 0.06,0.01 0.25,0.19 0.02,0.02 0.02,0.04 0.2,0.23 0.44,-0.41 0.88,-0.42 1.09,-0.42 1.15,0 1.61,0.66 1.61,1.38 0,0.52 -0.3,0.82 -0.42,0.94 -0.33,0.32 -0.72,0.4 -1.14,0.48 -0.56,0.11 -1.22,0.23 -1.22,0.81 0,0.35 0.26,0.76 1.11,0.76 1.1,0 1.15,-0.9 1.17,-1.21 0.01,-0.08 0.1,-0.08 0.12,-0.08 0.13,0 0.13,0.05 0.13,0.23 v 1.01 c 0,0.17 0,0.23 -0.11,0.23 -0.05,0 -0.07,0 -0.2,-0.11 -0.03,-0.04 -0.13,-0.13 -0.17,-0.16 -0.38,0.27 -0.79,0.27 -0.94,0.27 -1.21,0 -1.59,-0.66 -1.59,-1.22 0,-0.34 0.16,-0.62 0.43,-0.84 0.32,-0.26 0.6,-0.32 1.31,-0.46 z"
   inkscape:connector-curvature="0"
   style="fill:#000000;stroke-width:0" />
<path
   id="path3779"
   d="m 233.59,661.21 h 1.43 v 0.31 h -1.43 v 1.82 h -0.25 c 0,-0.81 -0.3,-1.87 -1.28,-1.91 v -0.22 h 0.85 v -2.74 c 0,-1.23 0.92,-1.34 1.28,-1.34 0.71,0 0.99,0.7 0.99,1.34 v 0.56 h -0.25 v -0.54 c 0,-0.74 -0.3,-1.12 -0.67,-1.12 -0.67,0 -0.67,0.91 -0.67,1.08 z"
   inkscape:connector-curvature="0"
   style="fill:#000000;stroke-width:0" />
<path
   id="path3781"
   d="m 239.06,657.99 0.01,-0.04 v -0.03 l 0.01,-0.04 0.01,-0.04 0.01,-0.04 0.01,-0.03 0.01,-0.04 0.02,-0.03 0.01,-0.04 0.02,-0.03 0.02,-0.04 0.01,-0.03 0.02,-0.03 0.03,-0.04 0.02,-0.03 0.02,-0.03 0.03,-0.02 0.02,-0.03 0.03,-0.03 0.03,-0.02 0.03,-0.02 0.03,-0.03 0.03,-0.02 0.04,-0.01 0.03,-0.02 0.04,-0.01 0.04,-0.02 0.04,-0.01 h 0.04 l 0.04,-0.01 h 0.04 l 0.04,-0.01 c 0.21,0 0.82,0.14 0.82,0.95 v 0.55 h -0.25 v -0.55 c 0,-0.58 -0.25,-0.64 -0.36,-0.64 -0.33,0 -0.37,0.45 -0.37,0.5 v 1.99 c 0,0.41 0,0.8 -0.36,1.17 -0.39,0.39 -0.88,0.54 -1.36,0.54 -0.82,0 -1.51,-0.46 -1.51,-1.12 0,-0.29 0.2,-0.46 0.46,-0.46 0.28,0 0.46,0.19 0.46,0.45 0,0.12 -0.05,0.45 -0.51,0.46 0.27,0.35 0.76,0.46 1.08,0.46 0.49,0 1.05,-0.39 1.05,-1.27 v -0.37 -0.21 -0.99 c 0,-0.95 -0.71,-1.29 -1.16,-1.29 -0.49,0 -0.9,0.35 -0.9,0.85 0,0.54 0.42,1.37 2.06,1.43 v 0 0.21 c -0.5,-0.03 -1.2,-0.06 -1.83,-0.36 -0.75,-0.34 -1,-0.85 -1,-1.29 0,-0.81 0.97,-1.05 1.6,-1.05 0.66,0 1.11,0.39 1.3,0.86 z"
   inkscape:connector-curvature="0"
   style="fill:#000000;stroke-width:0" />
<path
   id="path3783"
   d="m 241.78,658.56 v 0 0.01 0 0.01 0.01 0.01 0.01 0.01 0.01 l 0.01,0.01 v 0.02 0.01 0.01 l 0.01,0.02 v 0.01 0.02 l 0.01,0.02 v 0.01 l 0.01,0.02 v 0.02 l 0.01,0.02 0.01,0.01 v 0.02 l 0.01,0.02 0.01,0.02 0.01,0.02 0.01,0.02 0.01,0.02 0.02,0.02 0.01,0.02 0.02,0.01 0.01,0.02 c 0.39,-0.28 0.8,-0.3 0.99,-0.3 v 0.22 c -0.87,0 -0.87,1 -0.87,1.22 0,0.27 0.01,0.59 0.16,0.84 0.08,0.12 0.31,0.4 0.71,0.4 0.87,0 0.87,-1 0.87,-1.23 0,-0.26 -0.01,-0.58 -0.16,-0.83 -0.08,-0.12 -0.31,-0.4 -0.71,-0.4 v 0 -0.22 c 0.93,0 1.61,0.68 1.61,1.44 0,0.37 -0.16,0.74 -0.4,0.97 0.35,0.34 0.71,0.39 0.89,0.39 0.02,0 0.07,0 0.1,-0.01 -0.11,-0.04 -0.16,-0.15 -0.16,-0.27 0,-0.17 0.13,-0.29 0.29,-0.29 0.1,0 0.29,0.07 0.29,0.3 0,0.17 -0.12,0.48 -0.51,0.48 -0.2,0 -0.64,-0.06 -1.06,-0.46 -0.41,0.33 -0.83,0.36 -1.05,0.36 -0.93,0 -1.62,-0.69 -1.62,-1.46 0,-0.43 0.22,-0.81 0.47,-1.02 -0.13,-0.15 -0.31,-0.48 -0.31,-0.82 0,-0.31 0.13,-0.69 0.44,-0.89 -0.6,-0.16 -0.92,-0.59 -0.92,-0.99 0,-0.72 0.99,-1.26 2.21,-1.26 l 0.01,0.23 c -1.01,0 -1.7,0.5 -1.7,1.03 0,0.46 0.38,0.83 0.82,0.85 h 0.59 c 0.86,0 1.97,0 1.97,-0.85 0,-0.54 -0.7,-1.03 -1.68,-1.03 v 0 l -0.01,-0.23 c 1.17,0 2.21,0.51 2.21,1.28 0,0.35 -0.14,0.85 -0.65,1.13 -0.53,0.28 -1.1,0.28 -1.71,0.28 -0.25,0 -0.68,0 -0.75,0.01 -0.32,0.04 -0.53,0.35 -0.53,0.67 z"
   inkscape:connector-curvature="0"
   style="fill:#000000;stroke-width:0" />
<path
   id="path3785"
   d="m 246.81,659.53 0.01,0.21 c 0.06,1.48 0.9,1.73 1.24,1.73 1.03,0 1.13,-1.34 1.13,-1.73 h -2.37 l -0.01,-0.21 h 2.79 c 0.21,0 0.24,0 0.24,0.21 0,0.98 -0.53,1.94 -1.78,1.94 -1.16,0 -2.07,-1.02 -2.07,-2.26 0,-1.33 1.04,-2.29 2.19,-2.29 1.22,0 1.66,1.1 1.66,1.29 0,0.1 -0.08,0.12 -0.13,0.12 -0.08,0 -0.11,-0.06 -0.12,-0.14 -0.35,-1.03 -1.25,-1.03 -1.35,-1.03 -0.5,0 -0.9,0.3 -1.13,0.67 -0.3,0.48 -0.3,1.13 -0.3,1.49 z"
   inkscape:connector-curvature="0"
   style="fill:#000000;stroke-width:0" />
</g>  </g>
  <g
     inkscape:label="Players"
     inkscape:groupmode="layer"
     id="layer1"
     transform="translate(20.44708,-105.26021)"
     style="display:inline">
    <g
       id="g1022"
       transform="translate(0,-0.42460703)">
      <rect
         y="124.39166"
         x="-20.386105"
         height="9.2200174"
         width="9.2200174"
         id="rect5052"
         style="opacity:1;fill:#f0f0f0;fill-opacity:1;stroke:#000000;stroke-width:0.12195123;stroke-miterlimit:4;stroke-dasharray:none;stroke-dashoffset:0;stroke-opacity:1" />
      <text
         id="text5041-4"
         y="132.38712"
         x="-19.194302"
         style="font-style:normal;font-variant:normal;font-weight:normal;font-stretch:normal;font-size:12.67294502px;line-height:125%;font-family:Garamond;-inkscape-font-specification:Garamond;letter-spacing:0px;word-spacing:0px;fill:#000000;fill-opacity:1;stroke:none;stroke-width:0.32266259px;stroke-linecap:butt;stroke-linejoin:miter;stroke-opacity:1"
         xml:space="preserve"><tspan
           style="font-size:10.32520294px;stroke-width:0.32266259px"
           y="132.38712"
           x="-19.194302"
           id="tspan5039-4"
           sodipodi:role="line">A</tspan></text>
    </g>
    <g
       id="g3671">
      <g
         transform="translate(1.403165,-14.125195)"
         id="g1003">
        <g
           id="g968">
          <rect
             y="124.39166"
             x="15.733847"
             height="9.2200174"
             width="9.2200174"
             id="rect5052-6"
             style="opacity:1;fill:#f0f0f0;fill-opacity:1;stroke:#000000;stroke-width:0.12195123;stroke-miterlimit:4;stroke-dasharray:none;stroke-dashoffset:0;stroke-opacity:1" />
          <path
             sodipodi:nodetypes="cccc"
             inkscape:connector-curvature="0"
             id="rect963"
             d="m 15.733847,124.39166 h 9.220017 l -9.220017,9.22002 z"
             style="opacity:1;fill:#f08c8c;fill-opacity:1;stroke:#000000;stroke-width:0.12195123;stroke-miterlimit:4;stroke-dasharray:none;stroke-dashoffset:0;stroke-opacity:1" />
        </g>
        <text
           xml:space="preserve"
           style="font-style:normal;font-variant:normal;font-weight:normal;font-stretch:normal;font-size:12.67294502px;line-height:125%;font-family:Garamond;-inkscape-font-specification:Garamond;letter-spacing:0px;word-spacing:0px;fill:#000000;fill-opacity:1;stroke:none;stroke-width:0.32266259px;stroke-linecap:butt;stroke-linejoin:miter;stroke-opacity:1"
           x="17.384697"
           y="132.31175"
           id="text5041-4-6"><tspan
             sodipodi:role="line"
             id="tspan5039-4-0"
             x="17.384697"
             y="132.31175"
             style="font-size:10.32520294px;stroke-width:0.32266259px">B</tspan></text>
      </g>
      <g
         transform="translate(-36.950013,12.067219)"
         id="g996">
        <g
           id="g989"
           transform="translate(38.353178,1.122532)">
          <rect
             style="opacity:1;fill:#f0f0f0;fill-opacity:1;stroke:#000000;stroke-width:0.12195123;stroke-miterlimit:4;stroke-dasharray:none;stroke-dashoffset:0;stroke-opacity:1"
             id="rect985"
             width="9.2200174"
             height="9.2200174"
             x="15.733847"
             y="124.39166" />
          <path
             style="opacity:1;fill:#f08c8c;fill-opacity:1;stroke:#000000;stroke-width:0.12195123;stroke-miterlimit:4;stroke-dasharray:none;stroke-dashoffset:0;stroke-opacity:1"
             d="m 15.733847,124.39166 h 9.220017 l -9.220017,9.22002 z"
             id="path987"
             inkscape:connector-curvature="0"
             sodipodi:nodetypes="cccc" />
        </g>
        <text
           xml:space="preserve"
           style="font-style:normal;font-variant:normal;font-weight:normal;font-stretch:normal;font-size:12.67294502px;line-height:125%;font-family:Garamond;-inkscape-font-specification:Garamond;letter-spacing:0px;word-spacing:0px;fill:#000000;fill-opacity:1;stroke:none;stroke-width:0.32266259px;stroke-linecap:butt;stroke-linejoin:miter;stroke-opacity:1"
           x="55.412693"
           y="133.40402"
           id="text5041-4-9"><tspan
             sodipodi:role="line"
             id="tspan5039-4-6"
             x="55.412693"
             y="133.40402"
             style="font-size:10.32520294px;stroke-width:0.32266259px">C</tspan></text>
      </g>
    </g>
    <g
       id="g1687"
       transform="translate(-0.88518579,-0.0895739)">
      <path
         style="display:inline;fill:none;stroke:#000000;stroke-width:0.32319999;stroke-linecap:butt;stroke-linejoin:miter;stroke-miterlimit:4;stroke-dasharray:none;stroke-dashoffset:0;stroke-opacity:1;marker-end:url(#marker915)"
         d="m 16.513264,13.770976 0.04233,-4.35851"
         id="path911"
         inkscape:connector-curvature="0"
         sodipodi:nodetypes="cc"
         transform="translate(-13.364438,111.6564)" />
      <path
         sodipodi:nodetypes="cc"
         inkscape:connector-curvature="0"
         id="path1499"
         d="m 16.513264,20.037895 0.04233,4.358509"
         style="display:inline;fill:none;stroke:#000000;stroke-width:0.32319999;stroke-linecap:butt;stroke-linejoin:miter;stroke-miterlimit:4;stroke-dasharray:none;stroke-dashoffset:0;stroke-opacity:1;marker-end:url(#marker1503)"
         transform="translate(-13.364438,111.6564)" />
      <g
         transform="matrix(0.68279351,0,0,0.68279351,-19.371909,40.785479)"
         id="g903">
        <rect
           y="123.96706"
           x="28.40662"
           height="9.2200174"
           width="9.2200174"
           id="rect891"
           style="opacity:1;fill:#f08c8c;fill-opacity:1;stroke:#000000;stroke-width:0.12195123;stroke-miterlimit:4;stroke-dasharray:none;stroke-dashoffset:0;stroke-opacity:1" />
        <text
           id="text895"
           y="131.75328"
           x="29.62615"
           style="font-style:normal;font-variant:normal;font-weight:normal;font-stretch:normal;font-size:12.67294502px;line-height:125%;font-family:Garamond;-inkscape-font-specification:Garamond;letter-spacing:0px;word-spacing:0px;fill:#000000;fill-opacity:1;stroke:none;stroke-width:0.32266259px;stroke-linecap:butt;stroke-linejoin:miter;stroke-opacity:1"
           xml:space="preserve"><tspan
             style="font-size:10.32520294px;stroke-width:0.32266259px"
             y="131.75328"
             x="29.62615"
             id="tspan893"
             sodipodi:role="line">E</tspan></text>
      </g>
    </g>
    <path
       style="opacity:1;fill:#bdbdbd;fill-opacity:1;stroke:#636363;stroke-width:0.07425569;stroke-miterlimit:4;stroke-dasharray:none;stroke-dashoffset:0;stroke-opacity:1"
       d="m -6.6725333,125.91484 c -0.7430225,0.84023 -1.9509915,1.05088 -2.9223993,0.50961 -0.9714074,-0.54127 -1.4534344,-1.69358 -1.1661484,-2.78775 0.287282,-1.09417 1.2691057,-1.84543 2.3752914,-1.8175 z"
       id="path6957"
       inkscape:connector-curvature="0"
       sodipodi:nodetypes="csscc" />
    <path
       sodipodi:nodetypes="csscc"
       inkscape:connector-curvature="0"
       id="path2223"
       d="m -6.6725332,130.70832 c -0.7430225,-0.84023 -1.9509915,-1.05088 -2.9223993,-0.50961 -0.9714085,0.54127 -1.4534355,1.69358 -1.1661495,2.78775 0.287282,1.09417 1.2691068,1.84543 2.3752925,1.8175 z"
       style="opacity:1;fill:#bdbdbd;fill-opacity:1;stroke:#636363;stroke-width:0.07425569;stroke-miterlimit:4;stroke-dasharray:none;stroke-dashoffset:0;stroke-opacity:1" />
    <g
       id="g3645"
       transform="translate(0.89853716,1.3758493)">
      <path
         inkscape:connector-curvature="0"
         id="path943"
         d="M 33.127675,127.20121 H 22.21955"
         style="display:inline;fill:none;fill-rule:evenodd;stroke:#000000;stroke-width:0.21089476;stroke-linecap:butt;stroke-linejoin:miter;stroke-miterlimit:4;stroke-dasharray:none;stroke-opacity:1" />
      <circle
         style="display:inline;opacity:1;fill:#f0f0f0;fill-opacity:1;stroke:#bdbdbd;stroke-width:0.21089476;stroke-miterlimit:4;stroke-dasharray:0.21089477, 0.21089477;stroke-dashoffset:0;stroke-opacity:1"
         id="circle945"
         cx="29.933155"
         cy="127.20122"
         r="1.4684011" />
      <circle
         style="display:inline;opacity:1;fill:#f0f0f0;fill-opacity:1;stroke:#bdbdbd;stroke-width:0.21089476;stroke-miterlimit:4;stroke-dasharray:0.21089479, 0.21089479;stroke-dashoffset:0;stroke-opacity:1"
         id="circle947"
         cx="25.456028"
         cy="127.20122"
         r="1.4684011" />
      <path
         style="display:inline;fill:none;fill-rule:evenodd;stroke:#000000;stroke-width:0.21089476;stroke-linecap:butt;stroke-linejoin:miter;stroke-miterlimit:4;stroke-dasharray:none;stroke-opacity:1"
         d="M 27.673616,132.65528 V 121.74715"
         id="path949"
         inkscape:connector-curvature="0" />
      <circle
         transform="rotate(90)"
         r="1.4684011"
         cy="-27.673613"
         cx="129.41881"
         id="circle951"
         style="display:inline;opacity:1;fill:#f0f0f0;fill-opacity:1;stroke:#bdbdbd;stroke-width:0.21089476;stroke-miterlimit:4;stroke-dasharray:0.21089479, 0.21089479;stroke-dashoffset:0;stroke-opacity:1" />
      <circle
         transform="rotate(90)"
         r="1.4684011"
         cy="-27.673613"
         cx="124.98363"
         id="circle953"
         style="display:inline;opacity:1;fill:#f0f0f0;fill-opacity:1;stroke:#bdbdbd;stroke-width:0.21089476;stroke-miterlimit:4;stroke-dasharray:0.21089477, 0.21089477;stroke-dashoffset:0;stroke-opacity:1" />
      <g
         id="g3437"
         transform="matrix(0.095141,0,0,-0.095141,14.028548,185.03333)"
         xml:space="preserve"
         stroke-miterlimit="10.433"
         font-style="normal"
         font-variant="normal"
         font-weight="normal"
         font-stretch="normal"
         font-size-adjust="none"
         letter-spacing="normal"
         word-spacing="normal"
         ns0:version="0.10.2"
         ns0:texconverter="pdflatex"
         ns0:pdfconverter="pstoedit"
         ns0:text="Im($\\alpha$)"
         ns0:preamble="C:\\Users\\MatthewThornton\\AppData\\Roaming\\inkscape\\extensions\\textext\\default_packages.tex"
         ns0:scale="0.225000000001"
         ns0:alignment="middle center"
         inkscapeversion="0.92.4"
         ns0:jacobian_sqrt="0.095141"
         style="font-style:normal;font-variant:normal;font-weight:normal;font-stretch:normal;letter-spacing:normal;word-spacing:normal;text-anchor:start;fill:#000000;fill-opacity:1;fill-rule:evenodd;stroke:#000000;stroke-linecap:butt;stroke-linejoin:miter;stroke-miterlimit:10.43299961;stroke-dasharray:none;stroke-dashoffset:0;stroke-opacity:1">
<path
   d="m 150.96,663.24 v 0.04 0.03 0.03 0.03 0.03 0.02 l 0.01,0.03 v 0.02 l 0.01,0.02 0.01,0.02 0.01,0.02 0.01,0.02 0.01,0.02 0.01,0.01 0.02,0.02 0.02,0.01 0.02,0.02 0.02,0.01 h 0.02 l 0.01,0.01 h 0.01 l 0.02,0.01 h 0.01 l 0.02,0.01 h 0.02 l 0.01,0.01 h 0.02 0.02 l 0.02,0.01 h 0.02 0.03 0.02 l 0.02,0.01 h 0.03 0.02 0.03 l 0.02,0.01 h 0.03 0.03 0.03 0.03 0.03 0.04 0.03 0.04 0.03 0.26 v 0.31 c -0.35,-0.03 -1.13,-0.03 -1.51,-0.03 -0.39,0 -1.18,0 -1.53,0.03 v -0.31 h 0.26 c 0.79,0 0.82,-0.11 0.82,-0.47 v -5.23 c 0,-0.36 -0.03,-0.47 -0.82,-0.47 h -0.26 v -0.31 c 0.35,0.04 1.14,0.04 1.52,0.04 0.39,0 1.17,0 1.52,-0.04 v 0.31 h -0.26 c -0.78,0 -0.81,0.11 -0.81,0.47 z"
   style="fill:#000000;fill-opacity:1;stroke:#000000;stroke-width:0;stroke-opacity:1"
   id="path3427"
   inkscape:connector-curvature="0" />
<path
   d="m 153.41,660.65 v -2.66 c 0,-0.45 -0.11,-0.45 -0.78,-0.45 v -0.31 c 0.35,0.01 0.86,0.04 1.13,0.04 0.25,0 0.77,-0.03 1.11,-0.04 v 0.31 c -0.67,0 -0.77,0 -0.77,0.45 v 1.83 c 0,1.03 0.7,1.59 1.34,1.59 0.63,0 0.74,-0.54 0.74,-1.11 v -2.31 c 0,-0.45 -0.11,-0.45 -0.78,-0.45 v -0.31 c 0.35,0.01 0.86,0.04 1.13,0.04 0.26,0 0.78,-0.03 1.12,-0.04 v 0.31 c -0.67,0 -0.78,0 -0.78,0.45 v 1.83 c 0,1.03 0.7,1.59 1.34,1.59 0.63,0 0.74,-0.54 0.74,-1.11 v -2.31 c 0,-0.45 -0.11,-0.45 -0.78,-0.45 v -0.31 c 0.35,0.01 0.86,0.04 1.13,0.04 0.26,0 0.78,-0.03 1.12,-0.04 v 0.31 c -0.52,0 -0.77,0 -0.78,0.3 v 1.9 c 0,0.85 0,1.16 -0.31,1.52 -0.14,0.17 -0.47,0.37 -1.05,0.37 -0.83,0 -1.27,-0.6 -1.44,-0.98 -0.14,0.87 -0.88,0.98 -1.33,0.98 -0.73,0 -1.2,-0.43 -1.47,-1.05 v 1.05 l -1.41,-0.11 v -0.31 c 0.7,0 0.78,-0.07 0.78,-0.56 z"
   style="fill:#000000;fill-opacity:1;stroke:#000000;stroke-width:0;stroke-opacity:1"
   id="path3429"
   inkscape:connector-curvature="0" />
<path
   d="m 163.91,654.85 v 0.01 0 0 0.01 0 0 0.01 0 0 l -0.01,0.01 v 0 0.01 h -0.01 v 0.01 0 l -0.01,0.01 v 0.01 h -0.01 v 0.01 h -0.01 v 0.01 0 h -0.01 v 0.01 0 l -0.01,0.01 v 0 l -0.01,0.01 v 0 l -0.01,0.01 v 0 l -0.01,0.01 -0.01,0.01 v 0 l -0.01,0.01 v 0.01 h -0.01 l -0.01,0.01 v 0.01 h -0.01 l -0.01,0.01 -0.01,0.01 c -1.24,1.25 -1.56,3.13 -1.56,4.65 0,1.73 0.38,3.45 1.6,4.7 0.13,0.12 0.13,0.14 0.13,0.17 0,0.07 -0.04,0.09 -0.1,0.09 -0.1,0 -0.99,-0.67 -1.58,-1.93 -0.51,-1.09 -0.63,-2.2 -0.63,-3.03 0,-0.78 0.11,-1.98 0.66,-3.1 0.59,-1.22 1.45,-1.87 1.55,-1.87 0.06,0 0.1,0.03 0.1,0.1 z"
   style="fill:#000000;fill-opacity:1;stroke:#000000;stroke-width:0;stroke-opacity:1"
   id="path3431"
   inkscape:connector-curvature="0" />
<path
   d="m 169.24,659.58 v 0.07 0.07 0.07 l -0.01,0.07 -0.01,0.13 -0.02,0.12 -0.02,0.12 -0.03,0.12 -0.03,0.1 -0.03,0.11 -0.04,0.09 -0.04,0.1 -0.05,0.08 -0.05,0.08 -0.05,0.08 -0.06,0.07 -0.05,0.07 -0.06,0.06 -0.06,0.05 -0.07,0.06 -0.06,0.05 -0.07,0.04 -0.07,0.04 -0.07,0.04 -0.07,0.03 -0.07,0.03 -0.07,0.02 -0.07,0.02 -0.08,0.02 -0.07,0.01 -0.07,0.01 -0.07,0.01 h -0.07 l -0.07,0.01 c -1.37,0 -2.68,-1.42 -2.68,-2.83 0,-0.92 0.59,-1.67 1.61,-1.67 l 0.02,0.21 c -0.6,0 -0.9,0.45 -0.9,1.09 0,0.48 0.26,1.56 0.58,2.06 0.47,0.73 1.01,0.92 1.36,0.92 0.99,0 0.99,-1.3 0.99,-2.08 0,-0.37 0,-0.94 0.02,-1.11 v 0 c -0.88,-0.77 -1.65,-0.88 -2.05,-0.88 l -0.02,-0.21 c 0.63,0 1.35,0.22 2.11,0.83 0.12,-0.53 0.45,-0.83 0.9,-0.83 0.53,0 0.84,0.54 0.84,0.7 0,0.07 -0.06,0.1 -0.12,0.1 -0.07,0 -0.1,-0.03 -0.13,-0.1 -0.18,-0.49 -0.54,-0.49 -0.56,-0.49 -0.31,0 -0.31,0.78 -0.31,1.02 0,0.21 0,0.23 0.1,0.35 0.94,1.17 1.15,2.32 1.15,2.33 0,0.02 -0.01,0.1 -0.12,0.1 -0.1,0 -0.1,-0.03 -0.15,-0.21 -0.18,-0.63 -0.51,-1.38 -0.98,-1.97 z"
   style="fill:#000000;fill-opacity:1;stroke:#000000;stroke-width:0;stroke-opacity:1"
   id="path3433"
   inkscape:connector-curvature="0" />
<path
   d="m 173.78,659.72 v 0.07 0.08 0.08 l -0.01,0.08 v 0.17 l -0.02,0.17 -0.01,0.18 -0.02,0.19 -0.03,0.2 -0.03,0.2 -0.04,0.2 -0.05,0.21 -0.05,0.21 -0.06,0.21 -0.07,0.21 -0.08,0.21 -0.05,0.11 -0.04,0.11 -0.05,0.1 -0.05,0.11 c -0.6,1.22 -1.46,1.86 -1.55,1.86 -0.06,0 -0.11,-0.03 -0.11,-0.09 0,-0.03 0,-0.05 0.19,-0.23 0.98,-0.99 1.55,-2.57 1.55,-4.64 0,-1.7 -0.37,-3.45 -1.6,-4.7 -0.14,-0.12 -0.14,-0.14 -0.14,-0.17 0,-0.06 0.05,-0.1 0.11,-0.1 0.09,0 0.99,0.68 1.58,1.94 0.51,1.09 0.63,2.19 0.63,3.03 z"
   style="fill:#000000;fill-opacity:1;stroke:#000000;stroke-width:0;stroke-opacity:1"
   id="path3435"
   inkscape:connector-curvature="0" />
</g>      <g
         id="g3580"
         transform="matrix(0.095141,0,0,-0.095141,18.060549,191.00717)"
         xml:space="preserve"
         stroke-miterlimit="10.433"
         font-style="normal"
         font-variant="normal"
         font-weight="normal"
         font-stretch="normal"
         font-size-adjust="none"
         letter-spacing="normal"
         word-spacing="normal"
         ns0:version="0.10.2"
         ns0:texconverter="pdflatex"
         ns0:pdfconverter="pstoedit"
         ns0:text="Re($\\alpha$)"
         ns0:preamble="C:\\Users\\MatthewThornton\\AppData\\Roaming\\inkscape\\extensions\\textext\\default_packages.tex"
         ns0:scale="0.225000000001"
         ns0:alignment="middle center"
         inkscapeversion="0.92.4"
         ns0:jacobian_sqrt="0.095141"
         style="font-style:normal;font-variant:normal;font-weight:normal;font-stretch:normal;letter-spacing:normal;word-spacing:normal;text-anchor:start;fill:#000000;fill-opacity:1;fill-rule:evenodd;stroke:#000000;stroke-linecap:butt;stroke-linejoin:miter;stroke-miterlimit:10.43299961;stroke-dasharray:none;stroke-dashoffset:0;stroke-opacity:1">
<path
   d="m 153.05,660.61 0.09,0.03 0.09,0.02 0.09,0.03 0.08,0.03 0.09,0.03 0.08,0.03 0.08,0.04 0.08,0.04 0.08,0.04 0.07,0.04 0.08,0.04 0.07,0.05 0.07,0.04 0.06,0.05 0.06,0.05 0.07,0.05 0.05,0.05 0.06,0.06 0.05,0.05 0.05,0.06 0.04,0.06 0.05,0.06 0.03,0.06 0.04,0.07 0.03,0.06 0.03,0.07 0.02,0.06 0.02,0.07 0.01,0.07 0.02,0.07 v 0.07 0.07 c 0,0.95 -1.13,1.79 -2.6,1.79 h -3.13 v -0.31 h 0.24 c 0.77,0 0.79,-0.11 0.79,-0.47 v -5.23 c 0,-0.36 -0.02,-0.47 -0.79,-0.47 h -0.24 v -0.31 c 0.36,0.04 1.07,0.04 1.46,0.04 0.39,0 1.09,0 1.45,-0.04 v 0.31 h -0.24 c -0.76,0 -0.78,0.11 -0.78,0.47 v 2.51 0.22 2.58 c 0,0.22 0,0.34 0.21,0.37 0.1,0.02 0.39,0.02 0.59,0.02 0.9,0 2.02,-0.04 2.02,-1.48 0,-0.68 -0.24,-1.49 -1.72,-1.49 h -1.1 v -0.22 h 1.14 c 0.16,0 0.58,0 0.93,-0.34 0.38,-0.35 0.38,-0.66 0.38,-1.33 0,-0.64 0,-1.04 0.41,-1.42 0.41,-0.35 0.95,-0.41 1.25,-0.41 0.78,0 0.95,0.81 0.95,1.09 0,0.06 0,0.17 -0.13,0.17 -0.11,0 -0.11,-0.09 -0.12,-0.16 -0.06,-0.71 -0.41,-0.89 -0.66,-0.89 -0.48,0 -0.56,0.51 -0.7,1.43 l -0.13,0.8 c -0.18,0.64 -0.67,0.96 -1.22,1.15 z"
   style="fill:#000000;fill-opacity:1;stroke:#000000;stroke-width:0;stroke-opacity:1"
   id="path3570"
   inkscape:connector-curvature="0" />
<path
   d="m 157.15,659.53 0.01,0.21 c 0.06,1.48 0.9,1.73 1.24,1.73 1.03,0 1.13,-1.34 1.13,-1.73 h -2.37 l -0.01,-0.21 h 2.78 c 0.22,0 0.25,0 0.25,0.21 0,0.98 -0.53,1.94 -1.78,1.94 -1.16,0 -2.08,-1.02 -2.08,-2.26 0,-1.33 1.05,-2.29 2.2,-2.29 1.22,0 1.66,1.1 1.66,1.29 0,0.1 -0.08,0.12 -0.13,0.12 -0.09,0 -0.1,-0.06 -0.12,-0.14 -0.35,-1.03 -1.25,-1.03 -1.35,-1.03 -0.5,0 -0.9,0.3 -1.13,0.67 -0.3,0.48 -0.3,1.13 -0.3,1.49 z"
   style="fill:#000000;fill-opacity:1;stroke:#000000;stroke-width:0;stroke-opacity:1"
   id="path3572"
   inkscape:connector-curvature="0" />
<path
   d="m 163.77,654.85 v 0.01 0 0 0.01 0 0 0.01 0 0 0.01 h -0.01 v 0.01 0 l -0.01,0.01 v 0 l -0.01,0.01 v 0.01 h -0.01 v 0.01 0 l -0.01,0.01 v 0 h -0.01 v 0.01 0 l -0.01,0.01 v 0 l -0.01,0.01 v 0 l -0.01,0.01 v 0 l -0.01,0.01 v 0.01 h -0.01 l -0.01,0.01 v 0.01 h -0.01 l -0.01,0.01 v 0.01 h -0.01 l -0.01,0.01 -0.01,0.01 c -1.24,1.25 -1.56,3.13 -1.56,4.65 0,1.73 0.38,3.45 1.6,4.7 0.13,0.12 0.13,0.14 0.13,0.17 0,0.07 -0.04,0.09 -0.1,0.09 -0.1,0 -0.99,-0.67 -1.58,-1.93 -0.51,-1.09 -0.63,-2.2 -0.63,-3.03 0,-0.78 0.11,-1.98 0.66,-3.1 0.6,-1.22 1.45,-1.87 1.55,-1.87 0.06,0 0.1,0.03 0.1,0.1 z"
   style="fill:#000000;fill-opacity:1;stroke:#000000;stroke-width:0;stroke-opacity:1"
   id="path3574"
   inkscape:connector-curvature="0" />
<path
   d="m 169.1,659.58 v 0.07 0.07 0.07 l -0.01,0.07 -0.01,0.13 -0.02,0.12 -0.02,0.12 -0.03,0.12 -0.03,0.1 -0.03,0.11 -0.04,0.09 -0.04,0.1 -0.05,0.08 -0.05,0.08 -0.05,0.08 -0.05,0.07 -0.06,0.07 -0.06,0.06 -0.06,0.05 -0.07,0.06 -0.06,0.05 -0.07,0.04 -0.07,0.04 -0.07,0.04 -0.07,0.03 -0.07,0.03 -0.07,0.02 -0.07,0.02 -0.08,0.02 -0.07,0.01 -0.07,0.01 -0.07,0.01 h -0.07 l -0.07,0.01 c -1.37,0 -2.68,-1.42 -2.68,-2.83 0,-0.92 0.59,-1.67 1.61,-1.67 l 0.02,0.21 c -0.6,0 -0.9,0.45 -0.9,1.09 0,0.48 0.26,1.56 0.58,2.06 0.47,0.73 1.01,0.92 1.36,0.92 0.99,0 0.99,-1.3 0.99,-2.08 0,-0.37 0,-0.94 0.02,-1.11 v 0 c -0.88,-0.77 -1.65,-0.88 -2.05,-0.88 l -0.02,-0.21 c 0.63,0 1.35,0.22 2.11,0.83 0.13,-0.53 0.45,-0.83 0.9,-0.83 0.53,0 0.84,0.54 0.84,0.7 0,0.07 -0.06,0.1 -0.12,0.1 -0.07,0 -0.1,-0.03 -0.13,-0.1 -0.18,-0.49 -0.54,-0.49 -0.56,-0.49 -0.31,0 -0.31,0.78 -0.31,1.02 0,0.21 0,0.23 0.1,0.35 0.94,1.17 1.15,2.32 1.15,2.33 0,0.02 -0.01,0.1 -0.12,0.1 -0.1,0 -0.1,-0.03 -0.15,-0.21 -0.18,-0.63 -0.51,-1.38 -0.98,-1.97 z"
   style="fill:#000000;fill-opacity:1;stroke:#000000;stroke-width:0;stroke-opacity:1"
   id="path3576"
   inkscape:connector-curvature="0" />
<path
   d="m 173.64,659.72 v 0.07 0.08 0.08 l -0.01,0.08 v 0.17 l -0.02,0.17 -0.01,0.18 -0.02,0.19 -0.03,0.2 -0.03,0.2 -0.04,0.2 -0.05,0.21 -0.05,0.21 -0.06,0.21 -0.07,0.21 -0.08,0.21 -0.05,0.11 -0.04,0.11 -0.05,0.1 -0.05,0.11 c -0.6,1.22 -1.45,1.86 -1.55,1.86 -0.06,0 -0.1,-0.03 -0.1,-0.09 0,-0.03 0,-0.05 0.19,-0.23 0.97,-0.99 1.54,-2.57 1.54,-4.64 0,-1.7 -0.37,-3.45 -1.6,-4.7 -0.13,-0.12 -0.13,-0.14 -0.13,-0.17 0,-0.06 0.04,-0.1 0.1,-0.1 0.1,0 0.99,0.68 1.58,1.94 0.51,1.09 0.63,2.19 0.63,3.03 z"
   style="fill:#000000;fill-opacity:1;stroke:#000000;stroke-width:0;stroke-opacity:1"
   id="path3578"
   inkscape:connector-curvature="0" />
</g>    </g>
  </g>
</svg>
