<?xml version="1.0" encoding="UTF-8" standalone="no"?>
<!-- Created with Inkscape (http://www.inkscape.org/) -->

<svg
   xmlns:ns0="http://www.iki.fi/pav/software/textext/"
   xmlns:dc="http://purl.org/dc/elements/1.1/"
   xmlns:cc="http://creativecommons.org/ns#"
   xmlns:rdf="http://www.w3.org/1999/02/22-rdf-syntax-ns#"
   xmlns:svg="http://www.w3.org/2000/svg"
   xmlns="http://www.w3.org/2000/svg"
   xmlns:sodipodi="http://sodipodi.sourceforge.net/DTD/sodipodi-0.dtd"
   xmlns:inkscape="http://www.inkscape.org/namespaces/inkscape"
   width="81.802574mm"
   height="52.110535mm"
   viewBox="0 0 65.442059 41.688429"
   version="1.1"
   id="svg951"
   inkscape:version="0.92.4 (5da689c313, 2019-01-14)"
   sodipodi:docname="qss_encryption_stage.svg"
   enable-background="new">
  <defs
     id="defs945">
    <marker
       inkscape:stockid="Arrow1Send"
       orient="auto"
       refY="0.0"
       refX="0.0"
       id="Arrow1Send"
       style="overflow:visible;"
       inkscape:isstock="true">
      <path
         id="path6069"
         d="M 0.0,0.0 L 5.0,-5.0 L -12.5,0.0 L 5.0,5.0 L 0.0,0.0 z "
         style="fill-rule:evenodd;stroke:#000000;stroke-width:1pt;stroke-opacity:1;fill:#000000;fill-opacity:1"
         transform="scale(0.2) rotate(180) translate(6,0)" />
    </marker>
    <marker
       inkscape:isstock="true"
       style="overflow:visible"
       id="marker5614"
       refX="0"
       refY="0"
       orient="auto"
       inkscape:stockid="Arrow2Mend">
      <path
         transform="scale(-0.6)"
         d="M 8.7185878,4.0337352 -2.2072895,0.01601326 8.7185884,-4.0017078 c -1.7454984,2.3720609 -1.7354408,5.6174519 -6e-7,8.035443 z"
         style="fill:#000000;fill-opacity:1;fill-rule:evenodd;stroke:#000000;stroke-width:0.625;stroke-linejoin:round;stroke-opacity:1"
         id="path5612"
         inkscape:connector-curvature="0" />
    </marker>
    <marker
       inkscape:isstock="true"
       style="overflow:visible"
       id="marker5103"
       refX="0"
       refY="0"
       orient="auto"
       inkscape:stockid="Arrow2Mend">
      <path
         transform="scale(-0.6)"
         d="M 8.7185878,4.0337352 -2.2072895,0.01601326 8.7185884,-4.0017078 c -1.7454984,2.3720609 -1.7354408,5.6174519 -6e-7,8.035443 z"
         style="fill:#000000;fill-opacity:1;fill-rule:evenodd;stroke:#000000;stroke-width:0.625;stroke-linejoin:round;stroke-opacity:1"
         id="path5101"
         inkscape:connector-curvature="0" />
    </marker>
    <marker
       inkscape:stockid="Arrow2Mend"
       orient="auto"
       refY="0"
       refX="0"
       id="marker1503"
       style="overflow:visible"
       inkscape:isstock="true">
      <path
         inkscape:connector-curvature="0"
         id="path1501"
         style="fill:#000000;fill-opacity:1;fill-rule:evenodd;stroke:#000000;stroke-width:0.625;stroke-linejoin:round;stroke-opacity:1"
         d="M 8.7185878,4.0337352 -2.2072895,0.01601326 8.7185884,-4.0017078 c -1.7454984,2.3720609 -1.7354408,5.6174519 -6e-7,8.035443 z"
         transform="scale(-0.6)" />
    </marker>
    <marker
       inkscape:isstock="true"
       style="overflow:visible"
       id="marker2547"
       refX="0"
       refY="0"
       orient="auto"
       inkscape:stockid="Arrow2Mend">
      <path
         transform="scale(-0.6)"
         d="M 8.7185878,4.0337352 -2.2072895,0.01601326 8.7185884,-4.0017078 c -1.7454984,2.3720609 -1.7354408,5.6174519 -6e-7,8.035443 z"
         style="fill:#000000;fill-opacity:1;fill-rule:evenodd;stroke:#000000;stroke-width:0.625;stroke-linejoin:round;stroke-opacity:1"
         id="path2545"
         inkscape:connector-curvature="0" />
    </marker>
    <marker
       inkscape:stockid="Arrow2Mend"
       orient="auto"
       refY="0"
       refX="0"
       id="Arrow2Mend-0-1"
       style="overflow:visible"
       inkscape:isstock="true"
       inkscape:collect="always">
      <path
         inkscape:connector-curvature="0"
         id="path4782-7-2"
         style="fill:#000000;fill-opacity:1;fill-rule:evenodd;stroke:#000000;stroke-width:0.625;stroke-linejoin:round;stroke-opacity:1"
         d="M 8.7185878,4.0337352 -2.2072895,0.01601326 8.7185884,-4.0017078 c -1.7454984,2.3720609 -1.7354408,5.6174519 -6e-7,8.035443 z"
         transform="scale(-0.6)" />
    </marker>
    <filter
       inkscape:collect="always"
       style="color-interpolation-filters:sRGB"
       id="filter4062">
      <feBlend
         inkscape:collect="always"
         mode="screen"
         in2="BackgroundImage"
         id="feBlend4064" />
    </filter>
  </defs>
  <sodipodi:namedview
     id="base"
     pagecolor="#ffffff"
     bordercolor="#666666"
     borderopacity="1.0"
     inkscape:pageopacity="0.0"
     inkscape:pageshadow="2"
     inkscape:zoom="2"
     inkscape:cx="30.527296"
     inkscape:cy="99.98494"
     inkscape:document-units="mm"
     inkscape:current-layer="layer1"
     showgrid="false"
     fit-margin-top="0"
     fit-margin-left="0"
     fit-margin-right="0"
     fit-margin-bottom="0"
     inkscape:window-width="1920"
     inkscape:window-height="1013"
     inkscape:window-x="-9"
     inkscape:window-y="-9"
     inkscape:window-maximized="1"
     inkscape:snap-global="false"
     scale-x="0.8">
    <inkscape:grid
       originy="-4.0836623"
       originx="5.6661128"
       id="grid2913"
       type="xygrid" />
  </sodipodi:namedview>
  <metadata
     id="metadata948">
    <rdf:RDF>
      <cc:Work
         rdf:about="">
        <dc:format>image/svg+xml</dc:format>
        <dc:type
           rdf:resource="http://purl.org/dc/dcmitype/StillImage" />
        <dc:title />
      </cc:Work>
    </rdf:RDF>
  </metadata>
  <g
     inkscape:groupmode="layer"
     id="layer3"
     inkscape:label="Arrows"
     style="display:inline"
     transform="translate(7.0826418,6.396186)">
    <path
       style="fill:none;stroke:#000000;stroke-width:0.32320002;stroke-linecap:butt;stroke-linejoin:miter;stroke-miterlimit:4;stroke-dasharray:1.29280003, 0.64640002, 0.32320001, 0.64640002;stroke-dashoffset:0;stroke-opacity:1;marker-end:url(#Arrow2Mend-0-1)"
       d="M 2.1352054,3.9791885 38.451517,3.9010763"
       id="path4753-4-5"
       inkscape:connector-curvature="0"
       sodipodi:nodetypes="cc" />
    <path
       sodipodi:nodetypes="cc"
       inkscape:connector-curvature="0"
       id="path5099"
       d="M 2.2848763,7.7583797 38.389521,30.646101"
       style="fill:none;stroke:#000000;stroke-width:0.32320002;stroke-linecap:butt;stroke-linejoin:miter;stroke-miterlimit:4;stroke-dasharray:1.29280003, 0.64640002, 0.32320001, 0.64640002;stroke-dashoffset:0;stroke-opacity:1;marker-end:url(#marker5103)" />
    <path
       sodipodi:nodetypes="cc"
       inkscape:connector-curvature="0"
       id="path5610"
       d="m -5.8615291,21.807571 v 3.386667"
       style="fill:none;stroke:#000000;stroke-width:0.32320002;stroke-linecap:butt;stroke-linejoin:miter;stroke-miterlimit:4;stroke-dasharray:none;stroke-dashoffset:0;stroke-opacity:1;marker-end:url(#Arrow1Send)" />
  </g>
  <g
     inkscape:groupmode="layer"
     id="layer2"
     inkscape:label="Text"
     style="opacity:1"
     transform="translate(7.9867539e-7,14.71735)">
    <g
       style="font-style:normal;font-variant:normal;font-weight:normal;font-stretch:normal;letter-spacing:normal;word-spacing:normal;text-anchor:start;fill:none;fill-opacity:1;fill-rule:evenodd;stroke:#000000;stroke-linecap:butt;stroke-linejoin:miter;stroke-miterlimit:10.43299961;stroke-dasharray:none;stroke-dashoffset:0;stroke-opacity:1"
       ns0:jacobian_sqrt="0.3"
       inkscapeversion="0.92.4"
       ns0:alignment="middle center"
       ns0:scale="0.225000000001"
       ns0:preamble="C:\\Users\\MatthewThornton\\AppData\\Roaming\\inkscape\\extensions\\textext\\default_packages.tex"
       ns0:text="$X_A = \\mathcal{F}\\left(A_B, A_C\\right)$"
       ns0:pdfconverter="pstoedit"
       ns0:texconverter="pdflatex"
       ns0:version="0.10.2"
       word-spacing="normal"
       letter-spacing="normal"
       font-size-adjust="none"
       font-stretch="normal"
       font-weight="normal"
       font-variant="normal"
       font-style="normal"
       stroke-miterlimit="10.433"
       xml:space="preserve"
       transform="matrix(0.3,0,0,-0.3,-44.666639,210.45372)"
       id="content">











<g
   id="g6972"
   transform="translate(0.35277779,1.5875)"><path
     inkscape:connector-curvature="0"
     d="m 153.55,661.32 -0.84,1.97 c -0.03,0.08 -0.05,0.12 -0.05,0.13 0,0.06 0.17,0.25 0.59,0.29 0.1,0.01 0.2,0.02 0.2,0.19 0,0.12 -0.12,0.12 -0.15,0.12 -0.41,0 -0.84,-0.03 -1.26,-0.03 -0.25,0 -0.86,0.03 -1.11,0.03 -0.06,0 -0.18,0 -0.18,-0.2 0,-0.11 0.1,-0.11 0.23,-0.11 0.59,0 0.65,-0.1 0.74,-0.32 l 1.18,-2.77 -2.1,-2.25 -0.13,-0.11 c -0.49,-0.53 -0.96,-0.69 -1.47,-0.72 -0.13,-0.01 -0.22,-0.01 -0.22,-0.2 0,-0.01 0,-0.11 0.13,-0.11 0.3,0 0.63,0.04 0.94,0.04 0.37,0 0.76,-0.04 1.11,-0.04 0.07,0 0.19,0 0.19,0.2 0,0.1 -0.11,0.11 -0.12,0.11 -0.1,0.01 -0.4,0.03 -0.4,0.31 0,0.16 0.15,0.32 0.27,0.45 l 1.01,1.07 0.9,0.97 1.01,-2.37 c 0.04,-0.11 0.05,-0.12 0.05,-0.14 0,-0.08 -0.19,-0.25 -0.58,-0.29 -0.11,-0.01 -0.2,-0.02 -0.2,-0.19 0,-0.12 0.11,-0.12 0.15,-0.12 0.28,0 0.98,0.04 1.26,0.04 0.25,0 0.85,-0.04 1.1,-0.04 0.07,0 0.19,0 0.19,0.19 0,0.12 -0.1,0.12 -0.18,0.12 -0.67,0.01 -0.69,0.04 -0.86,0.44 -0.38,0.92 -1.05,2.47 -1.28,3.07 0.68,0.69 1.72,1.88 2.04,2.16 0.29,0.23 0.67,0.47 1.27,0.5 0.13,0.01 0.22,0.01 0.22,0.2 0,0.01 0,0.11 -0.13,0.11 -0.3,0 -0.63,-0.03 -0.94,-0.03 -0.37,0 -0.75,0.03 -1.11,0.03 -0.06,0 -0.18,0 -0.18,-0.2 0,-0.07 0.04,-0.1 0.11,-0.11 0.09,-0.01 0.4,-0.03 0.4,-0.31 0,-0.13 -0.11,-0.26 -0.19,-0.35 z"
     style="fill:#000000;fill-opacity:1;stroke:#000000;stroke-width:0;stroke-opacity:1"
     id="path4415" /><path
     inkscape:connector-curvature="0"
     d="m 158.41,656.58 -0.03,-0.04 -0.02,-0.03 -0.02,-0.04 -0.02,-0.03 -0.03,-0.03 -0.02,-0.03 -0.02,-0.02 -0.03,-0.03 -0.02,-0.03 -0.02,-0.02 -0.03,-0.02 -0.02,-0.03 -0.03,-0.02 -0.02,-0.02 -0.03,-0.02 -0.02,-0.02 -0.03,-0.01 -0.02,-0.02 -0.03,-0.02 -0.03,-0.01 -0.03,-0.01 -0.03,-0.02 -0.03,-0.01 -0.03,-0.01 -0.03,-0.01 -0.03,-0.01 h -0.03 l -0.04,-0.01 -0.03,-0.01 h -0.04 l -0.04,-0.01 h -0.04 c -0.06,-0.01 -0.15,-0.01 -0.15,-0.15 0,-0.07 0.06,-0.1 0.09,-0.1 0.18,0 0.42,0.03 0.6,0.03 0.23,0 0.51,-0.03 0.72,-0.03 0.04,0 0.14,0 0.14,0.15 0,0.09 -0.09,0.1 -0.12,0.1 -0.05,0.01 -0.3,0.02 -0.3,0.21 0,0.08 0.07,0.2 0.1,0.26 l 0.56,0.87 h 2 l -0.03,0.25 h -1.8 l 1.47,2.27 0.33,-2.27 0.03,-0.25 0.17,-1.16 c -0.03,-0.07 -0.07,-0.18 -0.48,-0.18 -0.09,0 -0.19,0 -0.19,-0.15 0,-0.03 0.03,-0.1 0.12,-0.1 0.2,0 0.7,0.03 0.9,0.03 0.12,0 0.28,-0.01 0.41,-0.01 0.13,0 0.27,-0.02 0.4,-0.02 0.09,0 0.14,0.06 0.14,0.15 0,0.1 -0.08,0.1 -0.2,0.1 -0.4,0 -0.42,0.06 -0.44,0.22 l -0.61,4.29 c -0.02,0.15 -0.04,0.2 -0.17,0.2 -0.13,0 -0.17,-0.06 -0.24,-0.16 z"
     style="fill:#000000;fill-opacity:1;stroke:#000000;stroke-width:0;stroke-opacity:1"
     id="path4417" /><path
     inkscape:connector-curvature="0"
     d="m 173.07,660.48 h 0.03 0.03 0.03 l 0.02,0.01 h 0.01 0.01 0.02 0.01 0.02 l 0.01,0.01 h 0.01 0.02 l 0.01,0.01 h 0.01 l 0.01,0.01 h 0.01 l 0.02,0.01 0.01,0.01 v 0.01 l 0.01,0.01 0.01,0.01 v 0 l 0.01,0.01 v 0 0.01 l 0.01,0.01 v 0 0.01 0.01 h 0.01 v 0.01 0.01 0.01 0.01 0 0.01 0.01 c 0,0.2 -0.19,0.2 -0.33,0.2 h -5.97 c -0.14,0 -0.33,0 -0.33,-0.2 0,-0.2 0.19,-0.2 0.34,-0.2 z"
     style="fill:#000000;fill-opacity:1;stroke:#000000;stroke-width:0;stroke-opacity:1"
     id="path4419" /><path
     inkscape:connector-curvature="0"
     d="m 173.08,658.56 h 0.02 0.01 0.03 0.03 0.01 0.01 0.02 0.01 0.02 l 0.01,0.01 h 0.01 0.02 l 0.01,0.01 h 0.01 l 0.01,0.01 h 0.01 l 0.02,0.01 h 0.01 l 0.01,0.01 v 0.01 l 0.01,0.01 h 0.01 v 0.01 0.01 h 0.01 v 0.01 0 l 0.01,0.01 v 0.01 0 0.01 l 0.01,0.01 v 0 0.01 0.01 0.01 0.01 0.01 0.01 c 0,0.19 -0.19,0.19 -0.34,0.19 h -5.95 c -0.15,0 -0.34,0 -0.34,-0.19 0,-0.2 0.19,-0.2 0.33,-0.2 z"
     style="fill:#000000;fill-opacity:1;stroke:#000000;stroke-width:0;stroke-opacity:1"
     id="path4421" /><path
     inkscape:connector-curvature="0"
     d="m 185.02,663.64 v 0.02 l -0.01,0.02 v 0.02 0.02 l -0.01,0.02 v 0.02 l -0.01,0.01 -0.01,0.02 -0.01,0.02 -0.01,0.01 -0.01,0.01 -0.01,0.02 -0.01,0.01 -0.01,0.01 -0.01,0.01 -0.02,0.02 -0.01,0.01 -0.02,0.01 -0.03,0.01 -0.04,0.02 -0.03,0.02 -0.04,0.01 -0.04,0.01 -0.04,0.01 -0.05,0.01 h -0.04 l -0.04,0.01 h -0.05 l -0.04,0.01 h -0.05 -0.04 -0.05 -0.04 -0.05 -0.04 -0.04 -0.04 -0.03 -0.04 -0.03 -0.03 -3.76 c -0.5,0 -1.39,-0.29 -1.55,-0.82 0.02,-0.06 0.04,-0.07 0.1,-0.07 0.22,0 0.52,0.18 0.66,0.32 0.31,0 0.61,0.02 0.92,0.02 h 0.62 c 0,0 -0.04,-0.18 -0.04,-0.19 -0.39,-1.81 -0.98,-3.35 -1.42,-4.33 -0.06,-0.13 -0.6,-1.37 -0.74,-1.49 -0.44,0 -0.76,0.24 -0.94,0.63 -0.03,0.06 -0.03,0.1 -0.1,0.1 -0.23,0 -0.78,-0.32 -0.78,-0.49 0,-0.02 0.01,-0.04 0.02,-0.06 0.18,-0.47 0.63,-0.73 1.11,-0.73 0.51,0 1.1,0.36 1.42,0.73 0.33,0.38 0.99,2.01 1.25,2.61 h 1.92 c -0.01,-0.02 -0.02,-0.03 -0.02,-0.04 0,-0.04 0.06,-0.06 0.1,-0.06 0.22,0 0.79,0.27 0.79,0.58 0,0.07 -0.07,0.06 -0.19,0.06 h -2.39 c 0.26,0.9 0.6,1.77 0.78,2.68 h 1.31 c 0.25,0 0.95,0.05 1.13,-0.16 0.02,-0.06 -0.01,-0.16 0.02,-0.21 0.02,-0.02 0.05,-0.03 0.08,-0.03 0.24,0 0.78,0.29 0.78,0.56 z"
     style="fill:#000000;fill-opacity:1;stroke:#000000;stroke-width:0;stroke-opacity:1"
     id="path4423" /><path
     inkscape:connector-curvature="0"
     d="m 189.85,654.85 v 0.01 0 0 0.01 0 0 0.01 h -0.01 v 0 0.01 0 0.01 h -0.01 v 0.01 h -0.01 v 0.01 l -0.01,0.01 v 0 0.01 h -0.01 v 0.01 h -0.01 v 0 0.01 h -0.01 v 0.01 h -0.01 v 0.01 h -0.01 v 0.01 h -0.01 V 655 l -0.01,0.01 v 0 l -0.01,0.01 -0.01,0.01 v 0 l -0.01,0.01 -0.01,0.01 v 0 l -0.01,0.01 -0.01,0.01 c -1.25,1.25 -1.56,3.13 -1.56,4.65 0,1.73 0.37,3.45 1.6,4.7 0.13,0.12 0.13,0.14 0.13,0.17 0,0.07 -0.04,0.09 -0.1,0.09 -0.1,0 -1,-0.67 -1.59,-1.93 -0.5,-1.09 -0.62,-2.2 -0.62,-3.03 0,-0.78 0.11,-1.98 0.65,-3.1 0.6,-1.22 1.46,-1.87 1.56,-1.87 0.06,0 0.1,0.03 0.1,0.1 z"
     style="fill:#000000;fill-opacity:1;stroke:#000000;stroke-width:0;stroke-opacity:1"
     id="path4425" /><path
     inkscape:connector-curvature="0"
     d="m 192.21,658.38 -0.04,-0.06 -0.04,-0.06 -0.03,-0.06 -0.04,-0.05 -0.04,-0.05 -0.03,-0.04 -0.04,-0.05 -0.04,-0.04 -0.04,-0.04 -0.03,-0.04 -0.04,-0.03 -0.04,-0.03 -0.04,-0.03 -0.03,-0.03 -0.04,-0.02 -0.04,-0.03 -0.04,-0.02 -0.04,-0.02 -0.03,-0.02 -0.04,-0.02 -0.04,-0.01 -0.04,-0.01 -0.04,-0.02 -0.04,-0.01 -0.04,-0.01 -0.04,-0.01 h -0.04 l -0.04,-0.01 -0.08,-0.01 -0.08,-0.01 c -0.12,-0.01 -0.21,-0.01 -0.21,-0.2 0,-0.06 0.05,-0.11 0.13,-0.11 0.27,0 0.58,0.04 0.86,0.04 0.33,0 0.68,-0.04 1,-0.04 0.06,0 0.19,0 0.19,0.19 0,0.11 -0.09,0.12 -0.16,0.12 -0.23,0.02 -0.47,0.1 -0.47,0.35 0,0.12 0.06,0.23 0.14,0.37 l 0.76,1.27 h 2.5 l -0.03,0.31 h -2.28 l 1.96,3.28 0.32,-3.28 0.03,-0.31 c 0.02,-0.21 0.16,-1.56 0.16,-1.66 0,-0.3 -0.52,-0.33 -0.72,-0.33 -0.14,0 -0.24,0 -0.24,-0.2 0,-0.11 0.12,-0.11 0.14,-0.11 0.41,0 0.84,0.04 1.25,0.04 0.25,0 0.87,-0.04 1.12,-0.04 0.06,0 0.18,0 0.18,0.2 0,0.11 -0.1,0.11 -0.23,0.11 -0.61,0 -0.61,0.07 -0.64,0.36 l -0.61,6.21 c -0.02,0.2 -0.02,0.24 -0.19,0.24 -0.16,0 -0.2,-0.07 -0.26,-0.17 z"
     style="fill:#000000;fill-opacity:1;stroke:#000000;stroke-width:0;stroke-opacity:1"
     id="path4427" /><path
     inkscape:connector-curvature="0"
     d="m 199.22,656.28 v -0.02 l -0.01,-0.02 v -0.02 l -0.01,-0.02 v -0.01 l -0.01,-0.02 -0.01,-0.02 v -0.01 l -0.01,-0.02 -0.01,-0.01 -0.01,-0.01 -0.01,-0.01 -0.01,-0.01 -0.01,-0.01 -0.01,-0.01 -0.01,-0.01 -0.02,-0.01 -0.02,-0.01 h -0.02 l -0.02,-0.01 H 199 l -0.01,-0.01 h -0.01 -0.01 -0.02 -0.01 L 198.92,656 h -0.01 -0.02 -0.01 -0.02 -0.02 -0.01 l -0.02,-0.01 h -0.02 -0.02 -0.02 -0.02 -0.03 -0.02 -0.02 -0.03 -0.02 c -0.12,0 -0.21,0 -0.21,-0.15 0,-0.1 0.08,-0.1 0.21,-0.1 h 2.71 c 1.17,0 2.07,0.8 2.07,1.49 0,0.49 -0.45,0.92 -1.19,0.99 0.84,0.16 1.55,0.69 1.55,1.28 0,0.53 -0.54,0.99 -1.45,0.99 l -0.11,-0.25 c 0.71,0 0.87,-0.47 0.87,-0.73 0,-0.56 -0.63,-1.2 -1.57,-1.2 h -1.15 l -0.05,-0.2 h 1.49 c 0.65,0 0.9,-0.43 0.9,-0.83 0,-0.69 -0.7,-1.29 -1.55,-1.29 h -1.12 c -0.22,0 -0.23,0.01 -0.23,0.07 0,0.01 0,0.04 0.03,0.15 l 0.48,1.9 0.05,0.2 0.43,1.69 c 0.06,0.22 0.06,0.24 0.36,0.24 h 1.06 l 0.11,0.25 h -2.54 c -0.14,0 -0.23,0 -0.23,-0.15 0,-0.1 0.09,-0.1 0.23,-0.1 0,0 0.14,0 0.26,-0.01 0.15,-0.02 0.16,-0.03 0.16,-0.1 0,-0.02 0,-0.05 -0.03,-0.15 z"
     style="fill:#000000;fill-opacity:1;stroke:#000000;stroke-width:0;stroke-opacity:1"
     id="path4429" /><path
     inkscape:connector-curvature="0"
     d="m 206.78,657.24 v 0.07 l -0.01,0.05 v 0.06 0.06 l -0.01,0.05 -0.01,0.05 -0.01,0.06 -0.01,0.04 -0.01,0.05 -0.01,0.05 -0.02,0.04 -0.01,0.04 -0.02,0.04 -0.02,0.04 -0.02,0.04 -0.02,0.03 -0.02,0.04 -0.02,0.03 -0.02,0.02 -0.03,0.03 -0.02,0.03 -0.03,0.02 -0.03,0.02 -0.03,0.02 -0.03,0.01 -0.03,0.02 -0.03,0.01 -0.03,0.01 -0.04,0.01 h -0.03 l -0.03,0.01 h -0.04 c -0.33,0 -0.53,-0.25 -0.53,-0.53 0,-0.27 0.2,-0.53 0.53,-0.53 0.12,0 0.25,0.05 0.35,0.13 0.03,0.02 0.04,0.03 0.05,0.03 0.01,0 0.02,-0.01 0.02,-0.15 0,-0.73 -0.35,-1.33 -0.68,-1.65 -0.11,-0.11 -0.11,-0.13 -0.11,-0.16 0,-0.07 0.05,-0.11 0.1,-0.11 0.11,0 0.91,0.76 0.91,1.92 z"
     style="fill:#000000;fill-opacity:1;stroke:#000000;stroke-width:0;stroke-opacity:1"
     id="path4431" /><path
     inkscape:connector-curvature="0"
     d="m 210.97,658.38 -0.04,-0.06 -0.04,-0.06 -0.03,-0.06 -0.04,-0.05 -0.04,-0.05 -0.03,-0.04 -0.04,-0.05 -0.04,-0.04 -0.04,-0.04 -0.03,-0.04 -0.04,-0.03 -0.04,-0.03 -0.04,-0.03 -0.03,-0.03 -0.04,-0.02 -0.04,-0.03 -0.04,-0.02 -0.03,-0.02 -0.04,-0.02 -0.04,-0.02 -0.04,-0.01 -0.04,-0.01 -0.04,-0.02 -0.04,-0.01 -0.04,-0.01 -0.04,-0.01 h -0.03 l -0.04,-0.01 -0.09,-0.01 -0.08,-0.01 c -0.12,-0.01 -0.21,-0.01 -0.21,-0.2 0,-0.06 0.05,-0.11 0.13,-0.11 0.27,0 0.58,0.04 0.86,0.04 0.33,0 0.68,-0.04 1,-0.04 0.06,0 0.19,0 0.19,0.19 0,0.11 -0.09,0.12 -0.16,0.12 -0.23,0.02 -0.47,0.1 -0.47,0.35 0,0.12 0.06,0.23 0.14,0.37 l 0.76,1.27 h 2.5 l -0.03,0.31 h -2.28 l 1.96,3.28 0.32,-3.28 0.03,-0.31 c 0.02,-0.21 0.16,-1.56 0.16,-1.66 0,-0.3 -0.52,-0.33 -0.72,-0.33 -0.14,0 -0.24,0 -0.24,-0.2 0,-0.11 0.12,-0.11 0.14,-0.11 0.41,0 0.84,0.04 1.25,0.04 0.25,0 0.88,-0.04 1.13,-0.04 0.06,0 0.17,0 0.17,0.2 0,0.11 -0.1,0.11 -0.22,0.11 -0.62,0 -0.62,0.07 -0.65,0.36 l -0.61,6.21 c -0.02,0.2 -0.02,0.24 -0.19,0.24 -0.16,0 -0.2,-0.07 -0.26,-0.17 z"
     style="fill:#000000;fill-opacity:1;stroke:#000000;stroke-width:0;stroke-opacity:1"
     id="path4433" /><path
     inkscape:connector-curvature="0"
     d="m 222.55,660.54 v 0 0.01 0 0 0.01 h -0.01 v 0 0.01 0 0.01 0 0 l -0.01,0.01 v 0 0 0.01 0 h -0.01 v 0.01 0 h -0.01 v 0.01 h -0.01 v 0 0 h -0.01 v 0.01 h -0.01 v 0 h -0.01 v 0 0 0 h -0.01 v 0 0 c -0.05,0 -0.07,-0.02 -0.13,-0.08 l -0.51,-0.54 c -0.06,0.08 -0.45,0.62 -1.31,0.62 -1.7,0 -3.37,-1.5 -3.37,-3.07 0,-1.13 0.9,-1.96 2.15,-1.96 0.38,0 1.05,0.08 1.77,0.68 0.55,0.47 0.7,1.07 0.7,1.13 0,0.09 -0.08,0.09 -0.11,0.09 -0.1,0 -0.11,-0.03 -0.13,-0.11 -0.29,-0.95 -1.27,-1.54 -2.11,-1.54 -0.74,0 -1.57,0.4 -1.57,1.5 0,0.2 0.05,1.3 0.86,2.17 0.48,0.54 1.21,0.86 1.88,0.86 0.81,0 1.28,-0.59 1.28,-1.36 0,-0.2 -0.02,-0.25 -0.02,-0.29 0,-0.09 0.09,-0.09 0.13,-0.09 0.11,0 0.11,0.02 0.14,0.15 z"
     style="fill:#000000;fill-opacity:1;stroke:#000000;stroke-width:0;stroke-opacity:1"
     id="path4435" /><path
     inkscape:connector-curvature="0"
     d="m 226.24,659.72 v 0.07 l -0.01,0.08 v 0.08 0.08 l -0.01,0.17 -0.01,0.17 -0.02,0.18 -0.02,0.19 -0.02,0.2 -0.04,0.2 -0.04,0.2 -0.04,0.21 -0.06,0.21 -0.06,0.21 -0.07,0.21 -0.08,0.21 -0.04,0.11 -0.04,0.11 -0.05,0.1 -0.05,0.11 c -0.6,1.22 -1.46,1.86 -1.56,1.86 -0.06,0 -0.1,-0.03 -0.1,-0.09 0,-0.03 0,-0.05 0.19,-0.23 0.98,-0.99 1.55,-2.57 1.55,-4.64 0,-1.7 -0.37,-3.45 -1.61,-4.7 -0.13,-0.12 -0.13,-0.14 -0.13,-0.17 0,-0.06 0.04,-0.1 0.1,-0.1 0.1,0 1,0.68 1.59,1.94 0.51,1.09 0.63,2.19 0.63,3.03 z"
     style="fill:#000000;fill-opacity:1;stroke:#000000;stroke-width:0;stroke-opacity:1"
     id="path4437" /></g>
</g>    <g
       style="font-style:normal;font-variant:normal;font-weight:normal;font-stretch:normal;letter-spacing:normal;word-spacing:normal;text-anchor:start;fill:none;fill-opacity:1;fill-rule:evenodd;stroke:#000000;stroke-linecap:butt;stroke-linejoin:miter;stroke-miterlimit:10.43299961;stroke-dasharray:none;stroke-dashoffset:0;stroke-opacity:1"
       ns0:jacobian_sqrt="0.3"
       inkscapeversion="0.92.4"
       ns0:alignment="middle center"
       ns0:scale="0.225000000001"
       ns0:preamble="C:\\Users\\MatthewThornton\\AppData\\Roaming\\inkscape\\extensions\\textext\\default_packages.tex"
       ns0:text="$\\tilde{X}_A = 01011\\dots$"
       ns0:pdfconverter="pstoedit"
       ns0:texconverter="pdflatex"
       ns0:version="0.10.2"
       word-spacing="normal"
       letter-spacing="normal"
       font-size-adjust="none"
       font-stretch="normal"
       font-weight="normal"
       font-variant="normal"
       font-style="normal"
       stroke-miterlimit="10.433"
       xml:space="preserve"
       transform="matrix(0.3,0,0,-0.3,-44.560806,217.77306)"
       id="g4579">
<path
   id="path4553"
   style="fill:#000000;fill-opacity:1;stroke:#000000;stroke-width:0;stroke-opacity:1"
   d="m 155.72,666.24 -0.16,0.15 c 0,-0.01 -0.38,-0.48 -0.82,-0.48 -0.23,0 -0.48,0.15 -0.65,0.25 -0.27,0.16 -0.45,0.23 -0.61,0.23 -0.38,0 -0.57,-0.22 -1.08,-0.78 l 0.16,-0.14 c 0,0.01 0.38,0.47 0.82,0.47 0.22,0 0.47,-0.15 0.64,-0.25 0.27,-0.15 0.45,-0.22 0.62,-0.22 0.38,0 0.57,0.21 1.08,0.77 z"
   inkscape:connector-curvature="0" />
<path
   id="path4555"
   style="fill:#000000;fill-opacity:1;stroke:#000000;stroke-width:0;stroke-opacity:1"
   d="m 153.55,661.32 -0.84,1.97 c -0.03,0.08 -0.05,0.12 -0.05,0.13 0,0.06 0.17,0.25 0.59,0.29 0.1,0.01 0.2,0.02 0.2,0.19 0,0.12 -0.12,0.12 -0.15,0.12 -0.41,0 -0.84,-0.03 -1.26,-0.03 -0.25,0 -0.86,0.03 -1.11,0.03 -0.06,0 -0.18,0 -0.18,-0.2 0,-0.11 0.1,-0.11 0.23,-0.11 0.59,0 0.65,-0.1 0.74,-0.32 l 1.18,-2.77 -2.1,-2.25 -0.13,-0.11 c -0.49,-0.53 -0.96,-0.69 -1.47,-0.72 -0.13,-0.01 -0.22,-0.01 -0.22,-0.2 0,-0.01 0,-0.11 0.13,-0.11 0.3,0 0.63,0.04 0.94,0.04 0.37,0 0.76,-0.04 1.11,-0.04 0.07,0 0.19,0 0.19,0.2 0,0.1 -0.11,0.11 -0.12,0.11 -0.1,0.01 -0.4,0.03 -0.4,0.31 0,0.16 0.15,0.32 0.27,0.45 l 1.01,1.07 0.9,0.97 1.01,-2.37 c 0.04,-0.11 0.05,-0.12 0.05,-0.14 0,-0.08 -0.19,-0.25 -0.58,-0.29 -0.11,-0.01 -0.2,-0.02 -0.2,-0.19 0,-0.12 0.11,-0.12 0.15,-0.12 0.28,0 0.98,0.04 1.26,0.04 0.25,0 0.85,-0.04 1.1,-0.04 0.07,0 0.19,0 0.19,0.19 0,0.12 -0.1,0.12 -0.18,0.12 -0.67,0.01 -0.69,0.04 -0.86,0.44 -0.38,0.92 -1.05,2.47 -1.28,3.07 0.68,0.69 1.72,1.88 2.04,2.16 0.29,0.23 0.67,0.47 1.27,0.5 0.13,0.01 0.22,0.01 0.22,0.2 0,0.01 0,0.11 -0.13,0.11 -0.3,0 -0.63,-0.03 -0.94,-0.03 -0.37,0 -0.75,0.03 -1.11,0.03 -0.06,0 -0.18,0 -0.18,-0.2 0,-0.07 0.04,-0.1 0.11,-0.11 0.09,-0.01 0.4,-0.03 0.4,-0.31 0,-0.13 -0.11,-0.26 -0.19,-0.35 z"
   inkscape:connector-curvature="0" />
<path
   id="path4557"
   style="fill:#000000;fill-opacity:1;stroke:#000000;stroke-width:0;stroke-opacity:1"
   d="m 158.41,656.58 -0.03,-0.04 -0.02,-0.03 -0.02,-0.03 -0.02,-0.04 -0.03,-0.03 -0.02,-0.03 -0.02,-0.02 -0.03,-0.03 -0.02,-0.03 -0.02,-0.02 -0.03,-0.02 -0.02,-0.03 -0.03,-0.02 -0.02,-0.02 -0.03,-0.02 -0.02,-0.02 -0.03,-0.01 -0.02,-0.02 -0.03,-0.02 -0.03,-0.01 -0.03,-0.01 -0.03,-0.02 -0.03,-0.01 -0.03,-0.01 -0.03,-0.01 -0.03,-0.01 h -0.03 l -0.04,-0.01 -0.03,-0.01 h -0.04 l -0.04,-0.01 h -0.04 c -0.06,-0.01 -0.15,-0.01 -0.15,-0.15 0,-0.07 0.06,-0.1 0.09,-0.1 0.18,0 0.42,0.03 0.6,0.03 0.23,0 0.51,-0.03 0.72,-0.03 0.04,0 0.14,0 0.14,0.15 0,0.09 -0.09,0.1 -0.12,0.1 -0.05,0.01 -0.3,0.02 -0.3,0.21 0,0.08 0.07,0.2 0.1,0.26 l 0.56,0.87 h 2 l -0.03,0.25 h -1.8 l 1.47,2.27 0.33,-2.27 0.03,-0.25 0.17,-1.16 c -0.03,-0.07 -0.07,-0.18 -0.48,-0.18 -0.09,0 -0.19,0 -0.19,-0.15 0,-0.03 0.03,-0.1 0.12,-0.1 0.2,0 0.7,0.03 0.9,0.03 0.12,0 0.28,-0.01 0.41,-0.01 0.13,0 0.27,-0.02 0.4,-0.02 0.09,0 0.14,0.06 0.14,0.15 0,0.1 -0.08,0.1 -0.2,0.1 -0.4,0 -0.42,0.06 -0.44,0.22 l -0.61,4.29 c -0.02,0.15 -0.04,0.2 -0.17,0.2 -0.13,0 -0.17,-0.06 -0.24,-0.16 z"
   inkscape:connector-curvature="0" />
<path
   id="path4559"
   style="fill:#000000;fill-opacity:1;stroke:#000000;stroke-width:0;stroke-opacity:1"
   d="m 173.07,660.48 h 0.03 0.03 0.03 l 0.02,0.01 h 0.01 0.01 0.02 0.01 0.02 l 0.01,0.01 h 0.01 0.02 l 0.01,0.01 h 0.01 l 0.01,0.01 h 0.01 l 0.02,0.01 0.01,0.01 v 0.01 l 0.01,0.01 0.01,0.01 v 0 l 0.01,0.01 v 0 0.01 l 0.01,0.01 v 0 0.01 0.01 h 0.01 v 0.01 0.01 0.01 0.01 0 0.01 0.01 c 0,0.2 -0.19,0.2 -0.33,0.2 h -5.97 c -0.14,0 -0.33,0 -0.33,-0.2 0,-0.2 0.19,-0.2 0.34,-0.2 z"
   inkscape:connector-curvature="0" />
<path
   id="path4561"
   style="fill:#000000;fill-opacity:1;stroke:#000000;stroke-width:0;stroke-opacity:1"
   d="m 173.08,658.56 h 0.02 0.01 0.03 0.03 0.01 0.01 0.02 0.01 0.02 l 0.01,0.01 h 0.01 0.02 l 0.01,0.01 h 0.01 l 0.01,0.01 h 0.01 l 0.02,0.01 h 0.01 l 0.01,0.01 v 0.01 l 0.01,0.01 h 0.01 v 0.01 0.01 h 0.01 v 0.01 0 l 0.01,0.01 v 0.01 0 0.01 l 0.01,0.01 v 0 0.01 0.01 0.01 0.01 0.01 0.01 c 0,0.19 -0.19,0.19 -0.34,0.19 h -5.95 c -0.15,0 -0.34,0 -0.34,-0.19 0,-0.2 0.19,-0.2 0.33,-0.2 z"
   inkscape:connector-curvature="0" />
<path
   id="path4563"
   style="fill:#000000;fill-opacity:1;stroke:#000000;stroke-width:0;stroke-opacity:1"
   d="m 181.33,660.41 v 0.15 0.15 l -0.01,0.15 v 0.15 l -0.01,0.15 -0.02,0.14 -0.01,0.15 -0.02,0.15 -0.02,0.14 -0.03,0.15 -0.03,0.14 -0.04,0.15 -0.04,0.14 -0.05,0.14 -0.06,0.14 -0.03,0.07 -0.03,0.07 c -0.46,0.95 -1.28,1.11 -1.69,1.11 -0.6,0 -1.33,-0.26 -1.74,-1.18 -0.32,-0.69 -0.37,-1.46 -0.37,-2.26 0,-0.74 0.04,-1.63 0.45,-2.39 0.43,-0.8 1.16,-1 1.65,-1 v 0.21 c -0.39,0 -0.98,0.25 -1.16,1.21 -0.11,0.59 -0.11,1.51 -0.11,2.09 0,0.64 0,1.29 0.08,1.83 0.19,1.18 0.94,1.27 1.19,1.27 0.32,0 0.98,-0.18 1.17,-1.16 0.1,-0.56 0.1,-1.31 0.1,-1.94 0,-0.74 0,-1.42 -0.11,-2.05 -0.15,-0.95 -0.72,-1.25 -1.16,-1.25 v 0 -0.21 c 0.53,0 1.29,0.2 1.73,1.15 0.32,0.68 0.37,1.46 0.37,2.24 z"
   inkscape:connector-curvature="0" />
<path
   id="path4565"
   style="fill:#000000;fill-opacity:1;stroke:#000000;stroke-width:0;stroke-opacity:1"
   d="m 184.65,663.59 v 0.01 0.01 0.02 0.01 0 0.01 0.01 0.01 0.01 0.01 0.01 0.01 0 0.01 0.01 0 0.01 0.01 0.01 0.01 l -0.01,0.01 v 0.01 0.01 h -0.01 v 0.01 l -0.01,0.01 h -0.01 v 0.01 h -0.01 l -0.01,0.01 v 0 h -0.01 v 0 h -0.01 -0.01 v 0 l -0.01,0.01 v 0 h -0.01 -0.01 -0.01 v 0 h -0.01 -0.01 -0.01 -0.01 -0.01 v 0 h -0.01 -0.01 -0.01 -0.01 c -0.62,-0.63 -1.5,-0.63 -1.82,-0.63 v -0.31 c 0.2,0 0.79,0 1.31,0.26 v -5.15 c 0,-0.36 -0.03,-0.48 -0.93,-0.48 h -0.32 v -0.31 c 0.35,0.04 1.22,0.04 1.62,0.04 0.39,0 1.26,0 1.61,-0.04 v 0.31 h -0.32 c -0.9,0 -0.93,0.11 -0.93,0.48 z"
   inkscape:connector-curvature="0" />
<path
   id="path4567"
   style="fill:#000000;fill-opacity:1;stroke:#000000;stroke-width:0;stroke-opacity:1"
   d="m 191.29,660.41 v 0.15 0.15 l -0.01,0.15 v 0.15 l -0.01,0.15 -0.01,0.14 -0.02,0.15 -0.02,0.15 -0.02,0.14 -0.03,0.15 -0.03,0.14 -0.04,0.15 -0.04,0.14 -0.05,0.14 -0.06,0.14 -0.03,0.07 -0.03,0.07 c -0.46,0.95 -1.27,1.11 -1.69,1.11 -0.6,0 -1.33,-0.26 -1.74,-1.18 -0.32,-0.69 -0.37,-1.46 -0.37,-2.26 0,-0.74 0.04,-1.63 0.45,-2.39 0.43,-0.8 1.16,-1 1.65,-1 v 0.21 c -0.39,0 -0.98,0.25 -1.16,1.21 -0.11,0.59 -0.11,1.51 -0.11,2.09 0,0.64 0,1.29 0.08,1.83 0.19,1.18 0.94,1.27 1.19,1.27 0.33,0 0.98,-0.18 1.17,-1.16 0.1,-0.56 0.1,-1.31 0.1,-1.94 0,-0.74 0,-1.42 -0.11,-2.05 -0.15,-0.95 -0.71,-1.25 -1.16,-1.25 v 0 -0.21 c 0.54,0 1.29,0.2 1.73,1.15 0.32,0.68 0.37,1.46 0.37,2.24 z"
   inkscape:connector-curvature="0" />
<path
   id="path4569"
   style="fill:#000000;fill-opacity:1;stroke:#000000;stroke-width:0;stroke-opacity:1"
   d="m 194.62,663.59 v 0.01 0.01 0.02 0.01 0 0.01 0.01 0.01 0.01 0.01 0.01 0.01 0 l -0.01,0.01 v 0.01 0 0.01 0.01 0.01 0.01 l -0.01,0.01 v 0.01 0.01 h -0.01 v 0.01 l -0.01,0.01 v 0 l -0.01,0.01 h -0.01 l -0.01,0.01 v 0 h -0.01 v 0 h -0.01 v 0 h -0.01 l -0.01,0.01 v 0 h -0.01 -0.01 v 0 h -0.01 -0.01 -0.01 v 0 h -0.01 -0.01 -0.01 -0.01 -0.01 -0.01 -0.01 c -0.62,-0.63 -1.5,-0.63 -1.82,-0.63 v -0.31 c 0.2,0 0.79,0 1.31,0.26 v -5.15 c 0,-0.36 -0.03,-0.48 -0.93,-0.48 h -0.32 v -0.31 c 0.35,0.04 1.22,0.04 1.62,0.04 0.4,0 1.26,0 1.61,-0.04 v 0.31 h -0.32 c -0.89,0 -0.92,0.11 -0.92,0.48 z"
   inkscape:connector-curvature="0" />
<path
   id="path4571"
   style="fill:#000000;fill-opacity:1;stroke:#000000;stroke-width:0;stroke-opacity:1"
   d="m 199.6,663.59 v 0.01 0.01 0.02 0.01 0 0.01 0.01 0.01 0.01 0.01 0.01 0.01 0 0.01 0.01 h -0.01 v 0.01 0.01 0.01 0.01 0.01 l -0.01,0.01 v 0.01 h -0.01 v 0.01 l -0.01,0.01 v 0 l -0.01,0.01 h -0.01 l -0.01,0.01 v 0 h -0.01 v 0 h -0.01 v 0 h -0.01 v 0.01 h -0.01 -0.01 v 0 h -0.01 -0.01 -0.01 -0.01 v 0 h -0.01 -0.01 -0.01 -0.01 -0.01 -0.01 -0.01 c -0.62,-0.63 -1.5,-0.63 -1.82,-0.63 v -0.31 c 0.2,0 0.79,0 1.31,0.26 v -5.15 c 0,-0.36 -0.03,-0.48 -0.93,-0.48 h -0.32 v -0.31 c 0.35,0.04 1.22,0.04 1.62,0.04 0.4,0 1.27,0 1.62,-0.04 v 0.31 h -0.32 c -0.9,0 -0.93,0.11 -0.93,0.48 z"
   inkscape:connector-curvature="0" />
<path
   id="path4573"
   style="fill:#000000;fill-opacity:1;stroke:#000000;stroke-width:0;stroke-opacity:1"
   d="m 205.22,657.76 v 0.03 0.03 l -0.01,0.02 v 0.03 l -0.01,0.02 v 0.03 l -0.01,0.02 -0.01,0.03 -0.01,0.02 -0.01,0.02 -0.02,0.02 -0.01,0.03 -0.02,0.02 -0.01,0.02 -0.02,0.01 -0.02,0.02 -0.01,0.02 -0.02,0.02 -0.02,0.01 -0.02,0.02 -0.03,0.01 -0.02,0.01 -0.02,0.02 -0.02,0.01 -0.03,0.01 h -0.02 l -0.03,0.01 -0.02,0.01 h -0.03 l -0.02,0.01 h -0.03 -0.03 c -0.29,0 -0.53,-0.24 -0.53,-0.53 0,-0.29 0.24,-0.53 0.53,-0.53 0.29,0 0.53,0.24 0.53,0.53 z"
   inkscape:connector-curvature="0" />
<path
   id="path4575"
   style="fill:#000000;fill-opacity:1;stroke:#000000;stroke-width:0;stroke-opacity:1"
   d="m 209.65,657.76 v 0.03 0.03 0.02 l -0.01,0.03 v 0.02 l -0.01,0.03 -0.01,0.02 -0.01,0.03 -0.01,0.02 -0.01,0.02 -0.02,0.02 -0.01,0.03 -0.01,0.02 -0.02,0.02 -0.02,0.01 -0.01,0.02 -0.02,0.02 -0.02,0.02 -0.02,0.01 -0.02,0.02 -0.02,0.01 -0.03,0.01 -0.02,0.02 -0.02,0.01 -0.03,0.01 h -0.02 l -0.03,0.01 -0.02,0.01 h -0.03 l -0.02,0.01 h -0.03 -0.03 c -0.29,0 -0.52,-0.24 -0.52,-0.53 0,-0.29 0.23,-0.53 0.52,-0.53 0.29,0 0.53,0.24 0.53,0.53 z"
   inkscape:connector-curvature="0" />
<path
   id="path4577"
   style="fill:#000000;fill-opacity:1;stroke:#000000;stroke-width:0;stroke-opacity:1"
   d="m 214.07,657.76 v 0.03 0.03 0.02 l -0.01,0.03 v 0.02 l -0.01,0.03 -0.01,0.02 -0.01,0.03 -0.01,0.02 -0.01,0.02 -0.01,0.02 -0.02,0.03 -0.01,0.02 -0.02,0.02 -0.02,0.01 -0.01,0.02 -0.02,0.02 -0.02,0.02 -0.02,0.01 -0.02,0.02 -0.02,0.01 -0.02,0.01 -0.03,0.02 -0.02,0.01 -0.02,0.01 h -0.03 l -0.02,0.01 -0.03,0.01 h -0.03 l -0.02,0.01 h -0.03 -0.03 c -0.28,0 -0.52,-0.24 -0.52,-0.53 0,-0.29 0.24,-0.53 0.52,-0.53 0.29,0 0.53,0.24 0.53,0.53 z"
   inkscape:connector-curvature="0" />
</g>    <g
       style="font-style:normal;font-variant:normal;font-weight:normal;font-stretch:normal;letter-spacing:normal;word-spacing:normal;text-anchor:start;fill:none;fill-opacity:1;fill-rule:evenodd;stroke:#000000;stroke-linecap:butt;stroke-linejoin:miter;stroke-miterlimit:10.43299961;stroke-dasharray:none;stroke-dashoffset:0;stroke-opacity:1"
       ns0:jacobian_sqrt="0.3"
       inkscapeversion="0.92.4"
       ns0:alignment="middle center"
       ns0:scale="0.225000000001"
       ns0:preamble="C:\\Users\\MatthewThornton\\AppData\\Roaming\\inkscape\\extensions\\textext\\default_packages.tex"
       ns0:text="$\\varsigma_A = \\sigma_A \\oplus \\tilde{X}_A$"
       ns0:pdfconverter="pstoedit"
       ns0:texconverter="pdflatex"
       ns0:version="0.10.2"
       word-spacing="normal"
       letter-spacing="normal"
       font-size-adjust="none"
       font-stretch="normal"
       font-weight="normal"
       font-variant="normal"
       font-style="normal"
       stroke-miterlimit="10.433"
       xml:space="preserve"
       transform="matrix(0.3,0,0,-0.3,-44.572806,222.51764)"
       id="g4731">
<path
   id="path4711"
   style="fill:#000000;fill-opacity:1;stroke:#000000;stroke-width:0;stroke-opacity:1"
   d="m 151.02,657.43 0.03,-0.02 0.04,-0.02 0.04,-0.02 0.03,-0.03 0.02,-0.01 0.02,-0.01 0.02,-0.01 0.01,-0.01 0.02,-0.02 0.01,-0.01 0.02,-0.01 0.01,-0.02 0.01,-0.01 0.01,-0.02 0.02,-0.02 0.01,-0.01 0.01,-0.02 0.01,-0.02 0.01,-0.02 v -0.02 l 0.01,-0.02 0.01,-0.02 v -0.02 l 0.01,-0.03 v -0.02 -0.03 -0.02 -0.03 c 0,-0.25 -0.16,-0.53 -0.45,-0.53 -0.06,0 -0.23,0.01 -0.41,0.09 -0.02,0.01 -0.06,0.02 -0.09,0.02 -0.05,0 -0.11,-0.04 -0.11,-0.1 0,-0.15 0.45,-0.23 0.61,-0.23 0.56,0 1.01,0.55 1.01,1.07 0,0.5 -0.23,0.62 -0.98,1.04 l -0.65,0.36 c -0.37,0.2 -0.79,0.43 -0.79,1.05 0,0.9 1.08,1.73 2.16,1.73 0.21,0 0.42,-0.03 0.77,-0.19 0.09,-0.04 0.12,-0.06 0.15,-0.06 0.08,0 0.17,0.09 0.17,0.17 0,0.22 -0.64,0.3 -1.03,0.3 -1.51,0 -2.74,-1.15 -2.74,-2.26 0,-0.84 0.63,-1.19 1.06,-1.42 z"
   inkscape:connector-curvature="0" />
<path
   id="path4713"
   style="fill:#000000;fill-opacity:1;stroke:#000000;stroke-width:0;stroke-opacity:1"
   d="m 153.77,656.58 -0.03,-0.04 -0.02,-0.03 -0.02,-0.04 -0.02,-0.03 -0.03,-0.03 -0.02,-0.03 -0.02,-0.02 -0.03,-0.03 -0.02,-0.03 -0.02,-0.02 -0.03,-0.02 -0.02,-0.03 -0.02,-0.02 -0.03,-0.02 -0.02,-0.02 -0.03,-0.02 -0.03,-0.01 -0.02,-0.02 -0.03,-0.02 -0.03,-0.01 -0.03,-0.01 -0.03,-0.02 -0.03,-0.01 -0.03,-0.01 -0.03,-0.01 -0.03,-0.01 h -0.03 L 153.03,656.01 153,656 h -0.04 l -0.04,-0.01 h -0.03 c -0.07,-0.01 -0.16,-0.01 -0.16,-0.15 0,-0.07 0.06,-0.1 0.09,-0.1 0.19,0 0.42,0.03 0.61,0.03 0.22,0 0.5,-0.03 0.72,-0.03 0.03,0 0.14,0 0.14,0.15 0,0.09 -0.1,0.1 -0.12,0.1 -0.06,0.01 -0.31,0.02 -0.31,0.21 0,0.08 0.07,0.2 0.1,0.26 l 0.56,0.87 h 2 l -0.03,0.25 h -1.8 l 1.47,2.27 0.33,-2.27 0.03,-0.25 0.17,-1.16 c -0.03,-0.07 -0.07,-0.18 -0.48,-0.18 -0.09,0 -0.18,0 -0.18,-0.15 0,-0.03 0.02,-0.1 0.11,-0.1 0.2,0 0.7,0.03 0.9,0.03 0.12,0 0.29,-0.01 0.41,-0.01 0.13,0 0.28,-0.02 0.4,-0.02 0.09,0 0.14,0.06 0.14,0.15 0,0.1 -0.08,0.1 -0.2,0.1 -0.4,0 -0.41,0.06 -0.44,0.22 l -0.61,4.29 c -0.02,0.15 -0.04,0.2 -0.17,0.2 -0.13,0 -0.17,-0.06 -0.24,-0.16 z"
   inkscape:connector-curvature="0" />
<path
   id="path4715"
   style="fill:#000000;fill-opacity:1;stroke:#000000;stroke-width:0;stroke-opacity:1"
   d="m 168.43,660.48 h 0.03 0.03 0.03 l 0.02,0.01 h 0.01 0.02 0.01 0.01 0.02 l 0.01,0.01 h 0.01 0.02 l 0.01,0.01 h 0.01 l 0.01,0.01 h 0.02 l 0.01,0.01 0.01,0.01 0.01,0.01 v 0.01 l 0.01,0.01 h 0.01 v 0.01 0 l 0.01,0.01 v 0.01 0 0.01 l 0.01,0.01 v 0 0.01 0.01 0.01 0.01 0 0.01 0.01 c 0,0.2 -0.19,0.2 -0.32,0.2 h -5.98 c -0.14,0 -0.33,0 -0.33,-0.2 0,-0.2 0.19,-0.2 0.34,-0.2 z"
   inkscape:connector-curvature="0" />
<path
   id="path4717"
   style="fill:#000000;fill-opacity:1;stroke:#000000;stroke-width:0;stroke-opacity:1"
   d="m 168.45,658.56 h 0.01 0.01 0.03 0.03 0.01 0.02 0.01 0.01 0.02 l 0.01,0.01 h 0.01 0.02 l 0.01,0.01 h 0.01 l 0.01,0.01 h 0.02 l 0.01,0.01 h 0.01 l 0.01,0.01 0.01,0.01 v 0.01 h 0.01 v 0.01 l 0.01,0.01 v 0 0.01 h 0.01 v 0.01 0.01 0 l 0.01,0.01 v 0.01 0 0.01 0.01 0.01 0.01 0.01 0.01 c 0,0.19 -0.19,0.19 -0.34,0.19 h -5.95 c -0.15,0 -0.34,0 -0.34,-0.19 0,-0.2 0.19,-0.2 0.33,-0.2 z"
   inkscape:connector-curvature="0" />
<path
   id="path4719"
   style="fill:#000000;fill-opacity:1;stroke:#000000;stroke-width:0;stroke-opacity:1"
   d="m 177.27,660.94 h 0.01 0.01 0.02 0.01 0.02 0.02 0.02 l 0.02,0.01 h 0.02 0.02 0.02 l 0.02,0.01 h 0.02 l 0.02,0.01 h 0.02 l 0.02,0.01 0.02,0.01 0.02,0.01 0.02,0.01 0.01,0.01 0.02,0.02 0.02,0.01 v 0.01 l 0.01,0.01 h 0.01 l 0.01,0.01 v 0.01 l 0.01,0.01 v 0.01 l 0.01,0.01 0.01,0.01 v 0.01 0.01 l 0.01,0.02 v 0.01 l 0.01,0.01 v 0.01 0.02 0.01 0.02 0.01 0.02 c 0,0.24 -0.21,0.24 -0.38,0.24 h -2.28 c -1.5,0 -2.61,-1.64 -2.61,-2.82 0,-0.88 0.59,-1.57 1.5,-1.57 l 0.01,0.21 c -0.49,0 -0.89,0.36 -0.89,1.08 0,0.3 0.12,1.11 0.47,1.7 0.42,0.68 1.01,0.82 1.35,0.82 0.84,0 0.92,-0.66 0.92,-0.96 0,-0.47 -0.2,-1.28 -0.54,-1.79 -0.39,-0.59 -0.93,-0.85 -1.31,-0.85 v 0 l -0.01,-0.21 c 1.17,0 2.5,1.2 2.5,2.73 0,0.17 0,0.64 -0.31,1.08 z"
   inkscape:connector-curvature="0" />
<path
   id="path4721"
   style="fill:#000000;fill-opacity:1;stroke:#000000;stroke-width:0;stroke-opacity:1"
   d="m 179.23,656.58 -0.02,-0.04 -0.02,-0.03 -0.03,-0.04 -0.02,-0.03 -0.02,-0.03 -0.02,-0.03 -0.03,-0.02 -0.02,-0.03 -0.02,-0.03 -0.03,-0.02 -0.02,-0.02 -0.02,-0.03 -0.03,-0.02 -0.02,-0.02 -0.03,-0.02 -0.02,-0.02 -0.03,-0.01 -0.03,-0.02 -0.02,-0.02 -0.03,-0.01 -0.03,-0.01 -0.03,-0.02 -0.03,-0.01 -0.03,-0.01 -0.03,-0.01 -0.03,-0.01 h -0.04 l -0.03,-0.01 -0.04,-0.01 h -0.03 l -0.04,-0.01 h -0.04 c -0.07,-0.01 -0.16,-0.01 -0.16,-0.15 0,-0.07 0.07,-0.1 0.1,-0.1 0.18,0 0.41,0.03 0.6,0.03 0.23,0 0.51,-0.03 0.72,-0.03 0.04,0 0.14,0 0.14,0.15 0,0.09 -0.09,0.1 -0.12,0.1 -0.05,0.01 -0.31,0.02 -0.31,0.21 0,0.08 0.07,0.2 0.11,0.26 l 0.56,0.87 h 2 l -0.04,0.25 h -1.79 l 1.47,2.27 0.32,-2.27 0.04,-0.25 0.17,-1.16 c -0.03,-0.07 -0.07,-0.18 -0.49,-0.18 -0.08,0 -0.18,0 -0.18,-0.15 0,-0.03 0.02,-0.1 0.11,-0.1 0.21,0 0.7,0.03 0.91,0.03 0.12,0 0.28,-0.01 0.41,-0.01 0.12,0 0.27,-0.02 0.4,-0.02 0.09,0 0.14,0.06 0.14,0.15 0,0.1 -0.09,0.1 -0.2,0.1 -0.41,0 -0.42,0.06 -0.44,0.22 l -0.61,4.29 c -0.03,0.15 -0.04,0.2 -0.17,0.2 -0.14,0 -0.18,-0.06 -0.24,-0.16 z"
   inkscape:connector-curvature="0" />
<path
   id="path4723"
   style="fill:#000000;fill-opacity:1;stroke:#000000;stroke-width:0;stroke-opacity:1"
   d="m 193.7,659.72 -0.01,0.17 -0.01,0.17 -0.02,0.16 -0.03,0.16 -0.04,0.17 -0.04,0.15 -0.06,0.16 -0.06,0.15 -0.06,0.14 -0.08,0.15 -0.08,0.13 -0.08,0.14 -0.1,0.13 -0.1,0.12 -0.1,0.12 -0.11,0.12 -0.12,0.11 -0.12,0.1 -0.12,0.1 -0.13,0.09 -0.14,0.09 -0.14,0.08 -0.14,0.07 -0.15,0.07 -0.15,0.06 -0.15,0.05 -0.16,0.04 -0.16,0.04 -0.16,0.03 -0.17,0.02 -0.16,0.01 -0.17,0.01 0.11,-0.25 h -0.24 v -2.93 -0.25 h 0.24 2.96 c -0.1,-1.7 -1.42,-2.86 -2.96,-2.94 v 2.94 h -0.24 v -2.94 c -1.55,0.08 -2.86,1.24 -2.96,2.94 h 2.96 v 0.25 h -2.96 c 0.1,1.67 1.4,2.85 2.96,2.93 h 0.24 c 1.57,-0.08 2.86,-1.27 2.96,-2.93 h -2.96 v 2.93 l -0.11,0.25 c -1.86,0 -3.34,-1.5 -3.34,-3.31 0,-1.83 1.5,-3.31 3.33,-3.31 1.85,0 3.33,1.5 3.33,3.31 z"
   inkscape:connector-curvature="0" />
<path
   id="path4725"
   style="fill:#000000;fill-opacity:1;stroke:#000000;stroke-width:0;stroke-opacity:1"
   d="m 203.46,666.24 -0.16,0.15 c 0,-0.01 -0.37,-0.48 -0.81,-0.48 -0.23,0 -0.48,0.15 -0.65,0.25 -0.27,0.16 -0.45,0.23 -0.62,0.23 -0.38,0 -0.57,-0.22 -1.08,-0.78 l 0.16,-0.14 c 0,0.01 0.38,0.47 0.82,0.47 0.23,0 0.48,-0.15 0.65,-0.25 0.27,-0.15 0.45,-0.22 0.62,-0.22 0.38,0 0.57,0.21 1.07,0.77 z"
   inkscape:connector-curvature="0" />
<path
   id="path4727"
   style="fill:#000000;fill-opacity:1;stroke:#000000;stroke-width:0;stroke-opacity:1"
   d="m 201.29,661.32 -0.83,1.97 c -0.03,0.08 -0.05,0.12 -0.05,0.13 0,0.06 0.17,0.25 0.59,0.29 0.1,0.01 0.2,0.02 0.2,0.19 0,0.12 -0.12,0.12 -0.15,0.12 -0.41,0 -0.84,-0.03 -1.26,-0.03 -0.25,0 -0.87,0.03 -1.12,0.03 -0.06,0 -0.18,0 -0.18,-0.2 0,-0.11 0.1,-0.11 0.23,-0.11 0.6,0 0.66,-0.1 0.75,-0.32 l 1.18,-2.77 -2.11,-2.25 -0.13,-0.11 c -0.48,-0.53 -0.95,-0.69 -1.46,-0.72 -0.13,-0.01 -0.22,-0.01 -0.22,-0.2 0,-0.01 0,-0.11 0.13,-0.11 0.3,0 0.63,0.04 0.93,0.04 0.37,0 0.76,-0.04 1.12,-0.04 0.06,0 0.18,0 0.18,0.2 0,0.1 -0.1,0.11 -0.12,0.11 -0.09,0.01 -0.4,0.03 -0.4,0.31 0,0.16 0.15,0.32 0.27,0.45 l 1.02,1.07 0.9,0.97 1,-2.37 c 0.04,-0.11 0.05,-0.12 0.05,-0.14 0,-0.08 -0.18,-0.25 -0.57,-0.29 -0.11,-0.01 -0.2,-0.02 -0.2,-0.19 0,-0.12 0.11,-0.12 0.15,-0.12 0.27,0 0.97,0.04 1.25,0.04 0.25,0 0.86,-0.04 1.11,-0.04 0.07,0 0.19,0 0.19,0.19 0,0.12 -0.1,0.12 -0.18,0.12 -0.67,0.01 -0.69,0.04 -0.86,0.44 -0.39,0.92 -1.06,2.47 -1.29,3.07 0.68,0.69 1.73,1.88 2.05,2.16 0.29,0.23 0.67,0.47 1.27,0.5 0.12,0.01 0.22,0.01 0.22,0.2 0,0.01 0,0.11 -0.13,0.11 -0.3,0 -0.63,-0.03 -0.94,-0.03 -0.37,0 -0.75,0.03 -1.11,0.03 -0.06,0 -0.19,0 -0.19,-0.2 0,-0.07 0.05,-0.1 0.12,-0.11 0.09,-0.01 0.4,-0.03 0.4,-0.31 0,-0.13 -0.11,-0.26 -0.19,-0.35 z"
   inkscape:connector-curvature="0" />
<path
   id="path4729"
   style="fill:#000000;fill-opacity:1;stroke:#000000;stroke-width:0;stroke-opacity:1"
   d="m 206.15,656.58 -0.02,-0.04 -0.02,-0.03 -0.03,-0.04 -0.02,-0.03 -0.02,-0.03 -0.02,-0.03 -0.03,-0.02 -0.02,-0.03 -0.02,-0.03 -0.03,-0.02 -0.02,-0.02 -0.02,-0.03 -0.03,-0.02 -0.02,-0.02 -0.03,-0.02 -0.02,-0.02 -0.03,-0.01 -0.03,-0.02 -0.02,-0.02 -0.03,-0.01 -0.03,-0.01 -0.03,-0.02 -0.03,-0.01 -0.03,-0.01 -0.03,-0.01 -0.03,-0.01 h -0.04 l -0.03,-0.01 -0.04,-0.01 h -0.03 l -0.04,-0.01 h -0.04 c -0.07,-0.01 -0.16,-0.01 -0.16,-0.15 0,-0.07 0.06,-0.1 0.1,-0.1 0.18,0 0.41,0.03 0.6,0.03 0.23,0 0.51,-0.03 0.72,-0.03 0.04,0 0.14,0 0.14,0.15 0,0.09 -0.09,0.1 -0.12,0.1 -0.05,0.01 -0.31,0.02 -0.31,0.21 0,0.08 0.07,0.2 0.11,0.26 l 0.56,0.87 h 2 l -0.04,0.25 h -1.79 l 1.46,2.27 0.33,-2.27 0.04,-0.25 0.17,-1.16 c -0.03,-0.07 -0.07,-0.18 -0.49,-0.18 -0.08,0 -0.18,0 -0.18,-0.15 0,-0.03 0.02,-0.1 0.11,-0.1 0.21,0 0.7,0.03 0.91,0.03 0.12,0 0.28,-0.01 0.41,-0.01 0.12,0 0.27,-0.02 0.4,-0.02 0.09,0 0.14,0.06 0.14,0.15 0,0.1 -0.09,0.1 -0.2,0.1 -0.41,0 -0.42,0.06 -0.44,0.22 l -0.61,4.29 c -0.03,0.15 -0.04,0.2 -0.17,0.2 -0.14,0 -0.18,-0.06 -0.24,-0.16 z"
   inkscape:connector-curvature="0" />
</g>    <g
       style="font-style:normal;font-variant:normal;font-weight:normal;font-stretch:normal;letter-spacing:normal;word-spacing:normal;text-anchor:start;fill:none;fill-opacity:1;fill-rule:evenodd;stroke:#000000;stroke-linecap:butt;stroke-linejoin:miter;stroke-miterlimit:10.43299961;stroke-dasharray:none;stroke-dashoffset:0;stroke-opacity:1"
       ns0:jacobian_sqrt="0.3"
       inkscapeversion="0.92.4"
       ns0:alignment="middle center"
       ns0:scale="0.225000000001"
       ns0:preamble="C:\\Users\\MatthewThornton\\AppData\\Roaming\\inkscape\\extensions\\textext\\default_packages.tex"
       ns0:text="$\\varsigma_A$"
       ns0:pdfconverter="pstoedit"
       ns0:texconverter="pdflatex"
       ns0:version="0.10.2"
       word-spacing="normal"
       letter-spacing="normal"
       font-size-adjust="none"
       font-stretch="normal"
       font-weight="normal"
       font-variant="normal"
       font-style="normal"
       stroke-miterlimit="10.433"
       xml:space="preserve"
       transform="matrix(0.3,0,0,-0.3,-19.195295,191.64495)"
       id="g5568">
<path
   id="path5564"
   style="fill:#000000;fill-opacity:1;stroke:#000000;stroke-width:0;stroke-opacity:1"
   d="m 151.02,657.43 0.03,-0.02 0.04,-0.02 0.04,-0.02 0.03,-0.03 0.02,-0.01 0.02,-0.01 0.02,-0.01 0.01,-0.01 0.02,-0.02 0.01,-0.01 0.02,-0.01 0.01,-0.02 0.01,-0.01 0.01,-0.02 0.02,-0.02 0.01,-0.01 0.01,-0.02 0.01,-0.02 0.01,-0.02 v -0.02 l 0.01,-0.02 0.01,-0.02 v -0.02 l 0.01,-0.03 v -0.02 -0.03 -0.02 -0.03 c 0,-0.25 -0.16,-0.53 -0.45,-0.53 -0.06,0 -0.23,0.01 -0.41,0.09 -0.02,0.01 -0.06,0.02 -0.09,0.02 -0.05,0 -0.11,-0.04 -0.11,-0.1 0,-0.15 0.45,-0.23 0.61,-0.23 0.56,0 1.01,0.55 1.01,1.07 0,0.5 -0.23,0.62 -0.98,1.04 l -0.65,0.36 c -0.37,0.2 -0.79,0.43 -0.79,1.05 0,0.9 1.08,1.73 2.16,1.73 0.21,0 0.42,-0.03 0.77,-0.19 0.09,-0.04 0.12,-0.06 0.15,-0.06 0.08,0 0.17,0.09 0.17,0.17 0,0.22 -0.64,0.3 -1.03,0.3 -1.51,0 -2.74,-1.15 -2.74,-2.26 0,-0.84 0.63,-1.19 1.06,-1.42 z"
   inkscape:connector-curvature="0" />
<path
   id="path5566"
   style="fill:#000000;fill-opacity:1;stroke:#000000;stroke-width:0;stroke-opacity:1"
   d="m 153.77,656.58 -0.03,-0.04 -0.02,-0.03 -0.02,-0.04 -0.02,-0.03 -0.03,-0.03 -0.02,-0.03 -0.02,-0.02 -0.03,-0.03 -0.02,-0.03 -0.02,-0.02 -0.03,-0.02 -0.02,-0.03 -0.02,-0.02 -0.03,-0.02 -0.02,-0.02 -0.03,-0.02 -0.03,-0.01 -0.02,-0.02 -0.03,-0.02 -0.03,-0.01 -0.03,-0.01 -0.03,-0.02 -0.03,-0.01 -0.03,-0.01 -0.03,-0.01 -0.03,-0.01 h -0.03 L 153.03,656.01 153,656 h -0.04 l -0.04,-0.01 h -0.03 c -0.07,-0.01 -0.16,-0.01 -0.16,-0.15 0,-0.07 0.06,-0.1 0.09,-0.1 0.19,0 0.42,0.03 0.61,0.03 0.22,0 0.5,-0.03 0.72,-0.03 0.03,0 0.14,0 0.14,0.15 0,0.09 -0.1,0.1 -0.12,0.1 -0.06,0.01 -0.31,0.02 -0.31,0.21 0,0.08 0.07,0.2 0.1,0.26 l 0.56,0.87 h 2 l -0.03,0.25 h -1.8 l 1.47,2.27 0.33,-2.27 0.03,-0.25 0.17,-1.16 c -0.03,-0.07 -0.07,-0.18 -0.48,-0.18 -0.09,0 -0.18,0 -0.18,-0.15 0,-0.03 0.02,-0.1 0.11,-0.1 0.2,0 0.7,0.03 0.9,0.03 0.12,0 0.29,-0.01 0.41,-0.01 0.13,0 0.28,-0.02 0.4,-0.02 0.09,0 0.14,0.06 0.14,0.15 0,0.1 -0.08,0.1 -0.2,0.1 -0.4,0 -0.41,0.06 -0.44,0.22 l -0.61,4.29 c -0.02,0.15 -0.04,0.2 -0.17,0.2 -0.13,0 -0.17,-0.06 -0.24,-0.16 z"
   inkscape:connector-curvature="0" />
</g>    <g
       id="g5602"
       transform="matrix(0.3,0,0,-0.3,-18.372105,206.16303)"
       xml:space="preserve"
       stroke-miterlimit="10.433"
       font-style="normal"
       font-variant="normal"
       font-weight="normal"
       font-stretch="normal"
       font-size-adjust="none"
       letter-spacing="normal"
       word-spacing="normal"
       ns0:version="0.10.2"
       ns0:texconverter="pdflatex"
       ns0:pdfconverter="pstoedit"
       ns0:text="$\\varsigma_A$"
       ns0:preamble="C:\\Users\\MatthewThornton\\AppData\\Roaming\\inkscape\\extensions\\textext\\default_packages.tex"
       ns0:scale="0.225000000001"
       ns0:alignment="middle center"
       inkscapeversion="0.92.4"
       ns0:jacobian_sqrt="0.3"
       style="font-style:normal;font-variant:normal;font-weight:normal;font-stretch:normal;letter-spacing:normal;word-spacing:normal;text-anchor:start;fill:none;fill-opacity:1;fill-rule:evenodd;stroke:#000000;stroke-linecap:butt;stroke-linejoin:miter;stroke-miterlimit:10.43299961;stroke-dasharray:none;stroke-dashoffset:0;stroke-opacity:1">
<path
   inkscape:connector-curvature="0"
   d="m 151.02,657.43 0.03,-0.02 0.04,-0.02 0.04,-0.02 0.03,-0.03 0.02,-0.01 0.02,-0.01 0.02,-0.01 0.01,-0.01 0.02,-0.02 0.01,-0.01 0.02,-0.01 0.01,-0.02 0.01,-0.01 0.01,-0.02 0.02,-0.02 0.01,-0.01 0.01,-0.02 0.01,-0.02 0.01,-0.02 v -0.02 l 0.01,-0.02 0.01,-0.02 v -0.02 l 0.01,-0.03 v -0.02 -0.03 -0.02 -0.03 c 0,-0.25 -0.16,-0.53 -0.45,-0.53 -0.06,0 -0.23,0.01 -0.41,0.09 -0.02,0.01 -0.06,0.02 -0.09,0.02 -0.05,0 -0.11,-0.04 -0.11,-0.1 0,-0.15 0.45,-0.23 0.61,-0.23 0.56,0 1.01,0.55 1.01,1.07 0,0.5 -0.23,0.62 -0.98,1.04 l -0.65,0.36 c -0.37,0.2 -0.79,0.43 -0.79,1.05 0,0.9 1.08,1.73 2.16,1.73 0.21,0 0.42,-0.03 0.77,-0.19 0.09,-0.04 0.12,-0.06 0.15,-0.06 0.08,0 0.17,0.09 0.17,0.17 0,0.22 -0.64,0.3 -1.03,0.3 -1.51,0 -2.74,-1.15 -2.74,-2.26 0,-0.84 0.63,-1.19 1.06,-1.42 z"
   style="fill:#000000;fill-opacity:1;stroke:#000000;stroke-width:0;stroke-opacity:1"
   id="path5598" />
<path
   inkscape:connector-curvature="0"
   d="m 153.77,656.58 -0.03,-0.04 -0.02,-0.03 -0.02,-0.04 -0.02,-0.03 -0.03,-0.03 -0.02,-0.03 -0.02,-0.02 -0.03,-0.03 -0.02,-0.03 -0.02,-0.02 -0.03,-0.02 -0.02,-0.03 -0.02,-0.02 -0.03,-0.02 -0.02,-0.02 -0.03,-0.02 -0.03,-0.01 -0.02,-0.02 -0.03,-0.02 -0.03,-0.01 -0.03,-0.01 -0.03,-0.02 -0.03,-0.01 -0.03,-0.01 -0.03,-0.01 -0.03,-0.01 h -0.03 L 153.03,656.01 153,656 h -0.04 l -0.04,-0.01 h -0.03 c -0.07,-0.01 -0.16,-0.01 -0.16,-0.15 0,-0.07 0.06,-0.1 0.09,-0.1 0.19,0 0.42,0.03 0.61,0.03 0.22,0 0.5,-0.03 0.72,-0.03 0.03,0 0.14,0 0.14,0.15 0,0.09 -0.1,0.1 -0.12,0.1 -0.06,0.01 -0.31,0.02 -0.31,0.21 0,0.08 0.07,0.2 0.1,0.26 l 0.56,0.87 h 2 l -0.03,0.25 h -1.8 l 1.47,2.27 0.33,-2.27 0.03,-0.25 0.17,-1.16 c -0.03,-0.07 -0.07,-0.18 -0.48,-0.18 -0.09,0 -0.18,0 -0.18,-0.15 0,-0.03 0.02,-0.1 0.11,-0.1 0.2,0 0.7,0.03 0.9,0.03 0.12,0 0.29,-0.01 0.41,-0.01 0.13,0 0.28,-0.02 0.4,-0.02 0.09,0 0.14,0.06 0.14,0.15 0,0.1 -0.08,0.1 -0.2,0.1 -0.4,0 -0.41,0.06 -0.44,0.22 l -0.61,4.29 c -0.02,0.15 -0.04,0.2 -0.17,0.2 -0.13,0 -0.17,-0.06 -0.24,-0.16 z"
   style="fill:#000000;fill-opacity:1;stroke:#000000;stroke-width:0;stroke-opacity:1"
   id="path5600" />
</g>    <g
       style="font-style:normal;font-variant:normal;font-weight:normal;font-stretch:normal;letter-spacing:normal;word-spacing:normal;text-anchor:start;fill:none;fill-opacity:1;fill-rule:evenodd;stroke:#000000;stroke-linecap:butt;stroke-linejoin:miter;stroke-miterlimit:10.43299961;stroke-dasharray:none;stroke-dashoffset:0;stroke-opacity:1"
       ns0:jacobian_sqrt="0.3"
       inkscapeversion="0.92.4"
       ns0:alignment="middle center"
       ns0:scale="0.225000000001"
       ns0:preamble="C:\\Users\\MatthewThornton\\AppData\\Roaming\\inkscape\\extensions\\textext\\default_packages.tex"
       ns0:text="(b) QSS encryption stage"
       ns0:pdfconverter="pstoedit"
       ns0:texconverter="pdflatex"
       ns0:version="0.10.2"
       word-spacing="normal"
       letter-spacing="normal"
       font-size-adjust="none"
       font-stretch="normal"
       font-weight="normal"
       font-variant="normal"
       font-style="normal"
       stroke-miterlimit="10.433"
       xml:space="preserve"
       transform="matrix(0.3,0,0,-0.3,-28.573468,184.66048)"
       id="g1103">
<path
   id="path1059"
   style="fill:#000000;fill-opacity:1;stroke:#000000;stroke-width:0;stroke-opacity:1"
   d="m 152.01,654.85 v 0.01 0 0 0.01 0 0 0.01 0 0 l -0.01,0.01 v 0 0.01 0 l -0.01,0.01 v 0 l -0.01,0.01 v 0.01 h -0.01 v 0.01 h -0.01 v 0.01 0 h -0.01 v 0.01 0 l -0.01,0.01 v 0 l -0.01,0.01 v 0 l -0.01,0.01 v 0 l -0.01,0.01 v 0.01 h -0.01 l -0.01,0.01 v 0.01 h -0.01 l -0.01,0.01 v 0.01 h -0.01 l -0.01,0.01 -0.01,0.01 c -1.24,1.25 -1.56,3.13 -1.56,4.65 0,1.73 0.38,3.45 1.6,4.7 0.13,0.12 0.13,0.14 0.13,0.17 0,0.07 -0.04,0.09 -0.1,0.09 -0.1,0 -0.99,-0.67 -1.58,-1.93 -0.51,-1.09 -0.63,-2.2 -0.63,-3.03 0,-0.78 0.11,-1.98 0.66,-3.1 0.6,-1.22 1.45,-1.87 1.55,-1.87 0.06,0 0.1,0.03 0.1,0.1 z"
   inkscape:connector-curvature="0" />
<path
   id="path1061"
   style="fill:#000000;fill-opacity:1;stroke:#000000;stroke-width:0;stroke-opacity:1"
   d="m 154.3,660.98 v 3.15 l -1.43,-0.11 v -0.31 c 0.69,0 0.77,-0.07 0.77,-0.55 v -5.93 h 0.25 c 0.01,0.01 0.09,0.15 0.36,0.62 0.15,-0.23 0.57,-0.72 1.31,-0.72 l -0.04,0.21 c -0.45,0 -0.81,0.24 -1.05,0.61 -0.14,0.21 -0.14,0.24 -0.14,0.42 v 0 2.04 c 0,0.19 0,0.2 0.11,0.36 0.39,0.56 0.94,0.64 1.18,0.64 0.45,0 0.81,-0.26 1.04,-0.64 0.26,-0.41 0.29,-0.97 0.29,-1.38 0,-0.37 -0.02,-0.96 -0.3,-1.41 -0.21,-0.31 -0.59,-0.64 -1.13,-0.64 l 0.04,-0.21 c 1.18,0 2.22,0.97 2.22,2.25 0,1.26 -0.98,2.25 -2.11,2.25 -0.78,0 -1.21,-0.47 -1.37,-0.65 z"
   inkscape:connector-curvature="0" />
<path
   id="path1063"
   style="fill:#000000;fill-opacity:1;stroke:#000000;stroke-width:0;stroke-opacity:1"
   d="m 161,659.72 v 0.07 0.08 0.08 0.08 l -0.01,0.17 -0.01,0.17 -0.02,0.18 -0.02,0.19 -0.03,0.2 -0.03,0.2 -0.04,0.2 -0.05,0.21 -0.05,0.21 -0.06,0.21 -0.07,0.21 -0.08,0.21 -0.04,0.11 -0.05,0.11 -0.04,0.1 -0.05,0.11 c -0.6,1.22 -1.46,1.86 -1.56,1.86 -0.06,0 -0.1,-0.03 -0.1,-0.09 0,-0.03 0,-0.05 0.19,-0.23 0.98,-0.99 1.55,-2.57 1.55,-4.64 0,-1.7 -0.37,-3.45 -1.61,-4.7 -0.13,-0.12 -0.13,-0.14 -0.13,-0.17 0,-0.06 0.04,-0.1 0.1,-0.1 0.1,0 1,0.68 1.59,1.94 0.5,1.09 0.62,2.19 0.62,3.03 z"
   inkscape:connector-curvature="0" />
<path
   id="path1065"
   style="fill:#000000;fill-opacity:1;stroke:#000000;stroke-width:0;stroke-opacity:1"
   d="m 170.48,657.3 0.11,0.06 0.11,0.05 0.1,0.06 0.1,0.07 0.1,0.06 0.1,0.08 0.1,0.07 0.09,0.08 0.09,0.08 0.09,0.09 0.09,0.09 0.08,0.09 0.08,0.1 0.07,0.1 0.07,0.1 0.07,0.11 0.07,0.11 0.06,0.11 0.06,0.11 0.05,0.12 0.05,0.12 0.05,0.12 0.04,0.12 0.04,0.13 0.04,0.13 0.03,0.13 0.02,0.13 0.03,0.13 0.01,0.14 0.01,0.13 0.01,0.14 v 0.14 c 0,2.03 -1.5,3.64 -3.32,3.64 v -0.25 c 0.97,0 2.33,-0.85 2.33,-3.39 0,-0.77 -0.12,-2.17 -1.18,-2.95 -0.22,0.56 -0.54,1.06 -1.13,1.06 v -0.22 c 0.54,0 0.76,-0.42 0.87,-1 v 0 c -0.34,-0.19 -0.66,-0.22 -0.88,-0.22 -0.51,0 -0.59,0.45 -0.59,0.6 0,0.29 0.21,0.62 0.6,0.62 v 0.22 c -0.51,0 -0.82,-0.43 -0.82,-0.84 0,-0.27 0.13,-0.46 0.14,-0.48 v 0 c -0.53,0.2 -1.65,0.93 -1.65,3.21 0,2.58 1.39,3.39 2.31,3.39 v 0.25 c -1.78,0 -3.31,-1.59 -3.31,-3.64 0,-2 1.51,-3.58 3.32,-3.58 0.31,0 0.66,0.06 0.95,0.14 0.15,-0.94 0.29,-1.85 1.22,-1.85 1.01,0 1.2,1.32 1.2,1.83 0,0.09 0,0.2 -0.11,0.2 -0.09,0 -0.1,-0.07 -0.11,-0.18 -0.06,-0.53 -0.47,-0.83 -0.9,-0.83 -0.47,0 -0.72,0.34 -0.96,0.97 z"
   inkscape:connector-curvature="0" />
<path
   id="path1067"
   style="fill:#000000;fill-opacity:1;stroke:#000000;stroke-width:0;stroke-opacity:1"
   d="m 176.54,661.09 -1.27,0.31 c -0.62,0.15 -1.01,0.68 -1.01,1.26 0,0.69 0.54,1.3 1.32,1.3 1.66,0 1.88,-1.63 1.94,-2.08 0.01,-0.06 0.01,-0.11 0.12,-0.11 0.13,0 0.13,0.05 0.13,0.23 v 2 c 0,0.17 0,0.24 -0.11,0.24 -0.07,0 -0.08,-0.01 -0.15,-0.13 l -0.35,-0.57 c -0.3,0.29 -0.71,0.7 -1.59,0.7 -1.11,0 -1.95,-0.88 -1.95,-1.93 0,-0.82 0.53,-1.55 1.31,-1.82 0.11,-0.04 0.62,-0.16 1.31,-0.33 0.27,-0.06 0.57,-0.13 0.85,-0.5 0.21,-0.26 0.31,-0.59 0.31,-0.92 0,-0.7 -0.5,-1.42 -1.34,-1.42 -0.29,0 -1.04,0.05 -1.57,0.54 -0.58,0.54 -0.61,1.17 -0.62,1.53 -0.01,0.1 -0.09,0.1 -0.12,0.1 -0.13,0 -0.13,-0.07 -0.13,-0.25 v -1.98 c 0,-0.17 0,-0.24 0.11,-0.24 0.07,0 0.08,0.02 0.15,0.13 0,0.01 0.03,0.03 0.36,0.56 0.31,-0.34 0.95,-0.69 1.83,-0.69 1.17,0 1.97,0.97 1.97,2.06 0,1 -0.66,1.81 -1.5,2.01 z"
   inkscape:connector-curvature="0" />
<path
   id="path1069"
   style="fill:#000000;fill-opacity:1;stroke:#000000;stroke-width:0;stroke-opacity:1"
   d="m 182.08,661.09 -1.28,0.31 c -0.62,0.15 -1.01,0.68 -1.01,1.26 0,0.69 0.54,1.3 1.32,1.3 1.67,0 1.88,-1.63 1.94,-2.08 0.02,-0.06 0.02,-0.11 0.13,-0.11 0.12,0 0.12,0.05 0.12,0.23 v 2 c 0,0.17 0,0.24 -0.1,0.24 -0.07,0 -0.08,-0.01 -0.16,-0.13 l -0.34,-0.57 c -0.3,0.29 -0.71,0.7 -1.6,0.7 -1.11,0 -1.94,-0.88 -1.94,-1.93 0,-0.82 0.52,-1.55 1.3,-1.82 0.11,-0.04 0.62,-0.16 1.32,-0.33 0.27,-0.06 0.57,-0.13 0.85,-0.5 0.21,-0.26 0.31,-0.59 0.31,-0.92 0,-0.7 -0.5,-1.42 -1.34,-1.42 -0.29,0 -1.05,0.05 -1.58,0.54 -0.57,0.54 -0.6,1.17 -0.61,1.53 -0.01,0.1 -0.09,0.1 -0.12,0.1 -0.13,0 -0.13,-0.07 -0.13,-0.25 v -1.98 c 0,-0.17 0,-0.24 0.11,-0.24 0.07,0 0.08,0.02 0.15,0.13 0,0.01 0.03,0.03 0.35,0.56 0.31,-0.34 0.95,-0.69 1.84,-0.69 1.17,0 1.96,0.97 1.96,2.06 0,1 -0.65,1.81 -1.49,2.01 z"
   inkscape:connector-curvature="0" />
<path
   id="path1071"
   style="fill:#000000;fill-opacity:1;stroke:#000000;stroke-width:0;stroke-opacity:1"
   d="m 188.57,659.53 0.01,0.21 c 0.06,1.48 0.9,1.73 1.23,1.73 1.03,0 1.13,-1.34 1.13,-1.73 h -2.36 l -0.01,-0.21 h 2.78 c 0.22,0 0.25,0 0.25,0.21 0,0.98 -0.54,1.94 -1.79,1.94 -1.15,0 -2.07,-1.02 -2.07,-2.26 0,-1.33 1.05,-2.29 2.19,-2.29 1.22,0 1.67,1.1 1.67,1.29 0,0.1 -0.08,0.12 -0.13,0.12 -0.09,0 -0.11,-0.06 -0.13,-0.14 -0.35,-1.03 -1.25,-1.03 -1.35,-1.03 -0.5,0 -0.89,0.3 -1.12,0.67 -0.3,0.48 -0.3,1.13 -0.3,1.49 z"
   inkscape:connector-curvature="0" />
<path
   id="path1073"
   style="fill:#000000;fill-opacity:1;stroke:#000000;stroke-width:0;stroke-opacity:1"
   d="m 192.99,660.65 v -2.66 c 0,-0.45 -0.11,-0.45 -0.78,-0.45 v -0.31 c 0.35,0.01 0.86,0.04 1.12,0.04 0.26,0 0.78,-0.03 1.12,-0.04 v 0.31 c -0.67,0 -0.78,0 -0.78,0.45 v 1.83 c 0,1.03 0.71,1.59 1.35,1.59 0.63,0 0.74,-0.54 0.74,-1.11 v -2.31 c 0,-0.45 -0.11,-0.45 -0.78,-0.45 v -0.31 c 0.35,0.01 0.86,0.04 1.13,0.04 0.26,0 0.77,-0.03 1.11,-0.04 v 0.31 c -0.52,0 -0.76,0 -0.77,0.3 v 1.9 c 0,0.85 0,1.16 -0.31,1.52 -0.14,0.17 -0.47,0.37 -1.05,0.37 -0.73,0 -1.2,-0.43 -1.48,-1.05 v 1.05 l -1.4,-0.11 v -0.31 c 0.69,0 0.78,-0.07 0.78,-0.56 z"
   inkscape:connector-curvature="0" />
<path
   id="path1075"
   style="fill:#000000;fill-opacity:1;stroke:#000000;stroke-width:0;stroke-opacity:1"
   d="m 198.59,659.4 v 0.08 0.07 l 0.01,0.07 v 0.07 0.07 l 0.01,0.07 0.01,0.06 0.01,0.06 0.01,0.06 0.01,0.06 0.01,0.06 0.01,0.06 0.03,0.11 0.03,0.1 0.03,0.1 0.04,0.09 0.03,0.09 0.05,0.08 0.04,0.07 0.05,0.07 0.05,0.07 0.05,0.06 0.05,0.05 0.05,0.05 0.05,0.05 0.06,0.04 0.05,0.04 0.06,0.03 0.06,0.03 0.05,0.03 0.06,0.02 0.06,0.02 0.05,0.01 0.06,0.02 0.05,0.01 h 0.05 l 0.06,0.01 h 0.05 c 0.09,0 0.71,-0.01 1.06,-0.37 -0.41,-0.03 -0.47,-0.33 -0.47,-0.46 0,-0.26 0.18,-0.45 0.46,-0.45 0.26,0 0.46,0.16 0.46,0.46 0,0.68 -0.76,1.06 -1.52,1.06 -1.25,0 -2.17,-1.07 -2.17,-2.3 0,-1.27 0.99,-2.25 2.15,-2.25 1.33,0 1.65,1.19 1.65,1.29 0,0.1 -0.1,0.1 -0.13,0.1 -0.09,0 -0.11,-0.04 -0.13,-0.1 -0.29,-0.93 -0.93,-1.05 -1.3,-1.05 -0.53,0 -1.41,0.43 -1.41,2.03 z"
   inkscape:connector-curvature="0" />
<path
   id="path1077"
   style="fill:#000000;fill-opacity:1;stroke:#000000;stroke-width:0;stroke-opacity:1"
   d="m 203.52,660.53 v 1.1 l -1.39,-0.11 v -0.31 c 0.7,0 0.78,-0.07 0.78,-0.56 v -2.66 c 0,-0.45 -0.11,-0.45 -0.78,-0.45 v -0.31 c 0.39,0.01 0.86,0.04 1.14,0.04 0.39,0 0.86,0 1.26,-0.04 v 0.31 h -0.21 c -0.73,0 -0.75,0.11 -0.75,0.47 v 1.53 c 0,0.98 0.41,1.87 1.17,1.87 0.07,0 0.09,0 0.11,-0.01 -0.03,-0.01 -0.23,-0.13 -0.23,-0.39 0,-0.28 0.21,-0.43 0.43,-0.43 0.18,0 0.43,0.12 0.43,0.44 0,0.32 -0.31,0.61 -0.74,0.61 -0.73,0 -1.09,-0.67 -1.22,-1.1 z"
   inkscape:connector-curvature="0" />
<path
   id="path1079"
   style="fill:#000000;fill-opacity:1;stroke:#000000;stroke-width:0;stroke-opacity:1"
   d="m 209.89,660.57 0.01,0.03 0.02,0.03 0.01,0.03 0.01,0.02 0.02,0.03 0.01,0.02 0.01,0.03 0.02,0.02 0.03,0.04 0.03,0.04 0.03,0.04 0.03,0.04 0.04,0.03 0.03,0.03 0.03,0.02 0.04,0.03 0.03,0.02 0.03,0.02 0.04,0.02 0.03,0.02 0.04,0.01 0.03,0.01 0.03,0.01 0.03,0.01 0.03,0.01 0.04,0.01 h 0.02 l 0.03,0.01 h 0.03 0.03 l 0.02,0.01 h 0.02 0.03 0.02 0.01 0.02 v 0.31 c -0.23,-0.02 -0.52,-0.03 -0.75,-0.03 -0.18,0 -0.65,0.02 -0.87,0.03 v -0.31 c 0.31,-0.01 0.47,-0.18 0.47,-0.43 0,-0.1 -0.01,-0.12 -0.06,-0.24 l -1.01,-2.44 -1.1,2.67 c -0.04,0.1 -0.06,0.14 -0.06,0.18 0,0.26 0.37,0.26 0.56,0.26 v 0.31 c -0.26,-0.01 -0.92,-0.03 -1.09,-0.03 -0.27,0 -0.67,0.01 -0.97,0.03 v -0.31 c 0.48,0 0.67,0 0.81,-0.35 l 1.5,-3.63 c -0.05,-0.12 -0.19,-0.45 -0.25,-0.58 -0.22,-0.55 -0.5,-1.23 -1.14,-1.23 -0.05,0 -0.28,0 -0.47,0.18 0.31,0.04 0.39,0.25 0.39,0.41 0,0.26 -0.19,0.42 -0.42,0.42 -0.2,0 -0.42,-0.13 -0.42,-0.43 0,-0.44 0.42,-0.8 0.92,-0.8 0.63,0 1.04,0.57 1.28,1.13 z"
   inkscape:connector-curvature="0" />
<path
   id="path1081"
   style="fill:#000000;fill-opacity:1;stroke:#000000;stroke-width:0;stroke-opacity:1"
   d="m 212.73,660.97 v 0.66 l -1.44,-0.11 v -0.31 c 0.71,0 0.78,-0.06 0.78,-0.5 v -4.65 c 0,-0.44 -0.11,-0.44 -0.78,-0.44 v -0.31 c 0.34,0.01 0.86,0.03 1.12,0.03 0.27,0 0.77,-0.02 1.12,-0.03 v 0.31 c -0.66,0 -0.77,0 -0.77,0.44 v 1.67 0.09 l 0.14,0.13 c -0.14,0.21 -0.14,0.22 -0.14,0.42 v 0 2.21 c 0.28,0.51 0.77,0.8 1.28,0.8 0.73,0 1.34,-0.88 1.34,-2 0,-1.2 -0.7,-2.04 -1.44,-2.04 -0.4,0 -0.78,0.2 -1.04,0.61 l -0.14,-0.13 c 0.05,-0.16 0.47,-0.69 1.22,-0.69 1.19,0 2.23,0.97 2.23,2.25 0,1.26 -0.97,2.25 -2.09,2.25 -0.78,0 -1.19,-0.44 -1.39,-0.66 z"
   inkscape:connector-curvature="0" />
<path
   id="path1083"
   style="fill:#000000;fill-opacity:1;stroke:#000000;stroke-width:0;stroke-opacity:1"
   d="m 218.27,661.21 h 1.43 v 0.31 h -1.43 v 1.82 h -0.25 c -0.01,-0.81 -0.31,-1.87 -1.28,-1.91 v -0.22 h 0.84 v -2.74 c 0,-1.23 0.93,-1.34 1.29,-1.34 0.71,0 0.99,0.7 0.99,1.34 v 0.56 h -0.25 v -0.54 c 0,-0.74 -0.3,-1.12 -0.67,-1.12 -0.67,0 -0.67,0.91 -0.67,1.08 z"
   inkscape:connector-curvature="0" />
<path
   id="path1085"
   style="fill:#000000;fill-opacity:1;stroke:#000000;stroke-width:0;stroke-opacity:1"
   d="m 222.19,661.63 -1.4,-0.11 v -0.31 c 0.65,0 0.74,-0.06 0.74,-0.55 v -2.67 c 0,-0.45 -0.11,-0.45 -0.78,-0.45 v -0.31 c 0.32,0.01 0.86,0.04 1.1,0.04 0.35,0 0.69,-0.03 1.03,-0.04 v 0.31 c -0.65,0 -0.69,0.05 -0.69,0.44 z"
   inkscape:connector-curvature="0" />
<path
   id="path1087"
   style="fill:#000000;fill-opacity:1;stroke:#000000;stroke-width:0;stroke-opacity:1"
   d="m 222.23,663.35 v 0.03 l -0.01,0.03 v 0.03 l -0.01,0.03 v 0.02 l -0.01,0.03 -0.01,0.03 -0.01,0.02 -0.01,0.02 -0.01,0.03 -0.01,0.02 -0.02,0.02 -0.01,0.02 -0.02,0.02 -0.02,0.02 -0.01,0.02 -0.02,0.01 -0.02,0.02 -0.02,0.01 -0.02,0.02 -0.02,0.01 -0.03,0.01 -0.02,0.01 -0.02,0.01 -0.03,0.01 -0.02,0.01 -0.03,0.01 h -0.02 l -0.03,0.01 h -0.02 -0.03 -0.02 c -0.31,0 -0.53,-0.27 -0.53,-0.53 0,-0.26 0.22,-0.52 0.53,-0.52 0.28,0 0.53,0.21 0.53,0.52 z"
   inkscape:connector-curvature="0" />
<path
   id="path1089"
   style="fill:#000000;fill-opacity:1;stroke:#000000;stroke-width:0;stroke-opacity:1"
   d="m 227.88,659.36 -0.01,0.12 -0.01,0.12 -0.01,0.11 -0.02,0.12 -0.03,0.11 -0.02,0.11 -0.04,0.11 -0.04,0.1 -0.04,0.1 -0.05,0.1 -0.06,0.1 -0.05,0.09 -0.07,0.1 -0.06,0.08 -0.07,0.09 -0.07,0.08 -0.08,0.08 -0.08,0.07 -0.08,0.07 -0.09,0.06 -0.09,0.07 -0.09,0.05 -0.1,0.05 -0.1,0.05 -0.1,0.04 -0.1,0.04 -0.1,0.03 -0.11,0.03 -0.11,0.02 -0.11,0.01 -0.11,0.01 h -0.11 l -0.01,-0.21 c 0.44,0 0.87,-0.22 1.13,-0.65 0.26,-0.43 0.26,-1 0.26,-1.38 0,-0.36 0,-0.89 -0.22,-1.33 -0.22,-0.45 -0.66,-0.74 -1.16,-0.74 v 0 c -0.43,0 -0.87,0.21 -1.13,0.67 -0.25,0.44 -0.25,1.04 -0.25,1.4 0,0.39 0,0.92 0.23,1.36 0.27,0.46 0.74,0.67 1.14,0.67 l 0.01,0.21 c -1.24,0 -2.21,-1.08 -2.21,-2.32 0,-1.28 1.03,-2.23 2.2,-2.23 1.21,0 2.22,0.97 2.22,2.23 z"
   inkscape:connector-curvature="0" />
<path
   id="path1091"
   style="fill:#000000;fill-opacity:1;stroke:#000000;stroke-width:0;stroke-opacity:1"
   d="m 229.26,660.65 v -2.66 c 0,-0.45 -0.11,-0.45 -0.78,-0.45 v -0.31 c 0.35,0.01 0.86,0.04 1.13,0.04 0.26,0 0.77,-0.03 1.11,-0.04 v 0.31 c -0.67,0 -0.77,0 -0.77,0.45 v 1.83 c 0,1.03 0.7,1.59 1.34,1.59 0.63,0 0.74,-0.54 0.74,-1.11 v -2.31 c 0,-0.45 -0.11,-0.45 -0.78,-0.45 v -0.31 c 0.35,0.01 0.86,0.04 1.13,0.04 0.26,0 0.78,-0.03 1.11,-0.04 v 0.31 c -0.51,0 -0.76,0 -0.77,0.3 v 1.9 c 0,0.85 0,1.16 -0.31,1.52 -0.14,0.17 -0.47,0.37 -1.05,0.37 -0.73,0 -1.2,-0.43 -1.48,-1.05 v 1.05 l -1.4,-0.11 v -0.31 c 0.7,0 0.78,-0.07 0.78,-0.56 z"
   inkscape:connector-curvature="0" />
<path
   id="path1093"
   style="fill:#000000;fill-opacity:1;stroke:#000000;stroke-width:0;stroke-opacity:1"
   d="m 239.1,659.16 h 0.02 l 0.02,-0.01 h 0.03 l 0.03,-0.01 0.04,-0.01 0.03,-0.01 0.04,-0.01 0.04,-0.01 0.04,-0.01 0.04,-0.01 0.05,-0.02 0.04,-0.02 0.05,-0.01 0.04,-0.03 0.04,-0.02 0.05,-0.02 0.04,-0.03 0.04,-0.03 0.04,-0.03 0.04,-0.03 0.04,-0.03 0.04,-0.04 0.03,-0.04 0.03,-0.04 0.03,-0.05 0.01,-0.02 0.02,-0.03 0.01,-0.02 0.01,-0.03 0.01,-0.02 0.01,-0.03 0.01,-0.03 v -0.02 l 0.01,-0.03 v -0.03 l 0.01,-0.03 v -0.04 -0.03 -0.03 c 0,-0.51 -0.34,-0.91 -1.12,-0.91 -0.84,0 -1.2,0.57 -1.39,1.42 -0.03,0.12 -0.04,0.16 -0.14,0.16 -0.13,0 -0.13,-0.07 -0.13,-0.25 v -1.31 c 0,-0.16 0,-0.23 0.11,-0.23 0.05,0 0.06,0.01 0.25,0.19 0.02,0.02 0.02,0.04 0.2,0.23 0.44,-0.41 0.89,-0.42 1.1,-0.42 1.14,0 1.6,0.66 1.6,1.38 0,0.52 -0.3,0.82 -0.42,0.94 -0.33,0.32 -0.71,0.4 -1.13,0.48 -0.56,0.11 -1.23,0.23 -1.23,0.81 0,0.35 0.26,0.76 1.12,0.76 1.09,0 1.14,-0.9 1.16,-1.21 0.01,-0.08 0.1,-0.08 0.12,-0.08 0.13,0 0.13,0.05 0.13,0.23 v 1.01 c 0,0.17 0,0.23 -0.11,0.23 -0.05,0 -0.07,0 -0.2,-0.11 -0.03,-0.04 -0.13,-0.13 -0.17,-0.16 -0.37,0.27 -0.78,0.27 -0.93,0.27 -1.22,0 -1.6,-0.66 -1.6,-1.22 0,-0.34 0.16,-0.62 0.43,-0.84 0.32,-0.26 0.6,-0.32 1.32,-0.46 z"
   inkscape:connector-curvature="0" />
<path
   id="path1095"
   style="fill:#000000;fill-opacity:1;stroke:#000000;stroke-width:0;stroke-opacity:1"
   d="m 242.68,661.21 h 1.42 v 0.31 h -1.42 v 1.82 h -0.25 c -0.01,-0.81 -0.31,-1.87 -1.29,-1.91 v -0.22 h 0.85 v -2.74 c 0,-1.23 0.93,-1.34 1.28,-1.34 0.71,0 0.99,0.7 0.99,1.34 v 0.56 h -0.25 v -0.54 c 0,-0.74 -0.3,-1.12 -0.66,-1.12 -0.67,0 -0.67,0.91 -0.67,1.08 z"
   inkscape:connector-curvature="0" />
<path
   id="path1097"
   style="fill:#000000;fill-opacity:1;stroke:#000000;stroke-width:0;stroke-opacity:1"
   d="m 248.15,657.99 v -0.04 l 0.01,-0.03 v -0.04 l 0.01,-0.04 0.01,-0.04 0.01,-0.03 0.02,-0.04 0.01,-0.03 0.01,-0.04 0.02,-0.03 0.02,-0.04 0.02,-0.03 0.02,-0.03 0.02,-0.04 0.02,-0.03 0.03,-0.03 0.02,-0.02 0.03,-0.03 0.02,-0.03 0.03,-0.02 0.03,-0.02 0.03,-0.03 0.04,-0.02 0.03,-0.01 0.04,-0.02 0.03,-0.01 0.04,-0.02 0.04,-0.01 h 0.04 l 0.04,-0.01 h 0.04 l 0.05,-0.01 c 0.2,0 0.81,0.14 0.81,0.95 v 0.55 h -0.25 v -0.55 c 0,-0.58 -0.25,-0.64 -0.36,-0.64 -0.33,0 -0.37,0.45 -0.37,0.5 v 1.99 c 0,0.41 0,0.8 -0.35,1.17 -0.39,0.39 -0.89,0.54 -1.37,0.54 -0.82,0 -1.51,-0.46 -1.51,-1.12 0,-0.29 0.2,-0.46 0.46,-0.46 0.28,0 0.46,0.19 0.46,0.45 0,0.12 -0.05,0.45 -0.51,0.46 0.27,0.35 0.76,0.46 1.08,0.46 0.49,0 1.06,-0.39 1.06,-1.27 v -0.37 -0.21 -0.99 c 0,-0.95 -0.72,-1.29 -1.17,-1.29 -0.49,0 -0.9,0.35 -0.9,0.85 0,0.54 0.42,1.37 2.07,1.43 v 0 0.21 c -0.51,-0.03 -1.21,-0.06 -1.84,-0.36 -0.75,-0.34 -1,-0.85 -1,-1.29 0,-0.81 0.97,-1.05 1.6,-1.05 0.66,0 1.12,0.39 1.31,0.86 z"
   inkscape:connector-curvature="0" />
<path
   id="path1099"
   style="fill:#000000;fill-opacity:1;stroke:#000000;stroke-width:0;stroke-opacity:1"
   d="m 250.86,658.56 v 0 0.01 0 0.01 0.01 l 0.01,0.01 v 0.01 0.01 0.01 0.01 0.02 0.01 l 0.01,0.01 v 0.02 0.01 l 0.01,0.02 v 0.02 0.01 l 0.01,0.02 0.01,0.02 v 0.02 l 0.01,0.01 0.01,0.02 0.01,0.02 0.01,0.02 0.01,0.02 0.01,0.02 0.01,0.02 0.01,0.02 0.01,0.02 0.02,0.01 0.01,0.02 c 0.39,-0.28 0.8,-0.3 0.99,-0.3 v 0.22 c -0.87,0 -0.87,1 -0.87,1.22 0,0.27 0.01,0.59 0.16,0.84 0.08,0.12 0.31,0.4 0.71,0.4 0.87,0 0.87,-1 0.87,-1.23 0,-0.26 -0.01,-0.58 -0.16,-0.83 -0.08,-0.12 -0.31,-0.4 -0.71,-0.4 v 0 -0.22 c 0.93,0 1.62,0.68 1.62,1.44 0,0.37 -0.16,0.74 -0.41,0.97 0.36,0.34 0.72,0.39 0.9,0.39 0.02,0 0.07,0 0.1,-0.01 -0.11,-0.04 -0.16,-0.15 -0.16,-0.27 0,-0.17 0.13,-0.29 0.28,-0.29 0.1,0 0.29,0.07 0.29,0.3 0,0.17 -0.12,0.48 -0.51,0.48 -0.19,0 -0.63,-0.06 -1.05,-0.46 -0.42,0.33 -0.84,0.36 -1.06,0.36 -0.93,0 -1.61,-0.69 -1.61,-1.46 0,-0.43 0.22,-0.81 0.46,-1.02 -0.13,-0.15 -0.3,-0.48 -0.3,-0.82 0,-0.31 0.13,-0.69 0.43,-0.89 -0.59,-0.16 -0.91,-0.59 -0.91,-0.99 0,-0.72 0.98,-1.26 2.2,-1.26 l 0.01,0.23 c -1.01,0 -1.7,0.5 -1.7,1.03 0,0.46 0.38,0.83 0.82,0.85 h 0.59 c 0.86,0 1.98,0 1.98,-0.85 0,-0.54 -0.71,-1.03 -1.69,-1.03 v 0 l -0.01,-0.23 c 1.18,0 2.21,0.51 2.21,1.28 0,0.35 -0.14,0.85 -0.64,1.13 -0.53,0.28 -1.11,0.28 -1.72,0.28 -0.25,0 -0.68,0 -0.75,0.01 -0.32,0.04 -0.53,0.35 -0.53,0.67 z"
   inkscape:connector-curvature="0" />
<path
   id="path1101"
   style="fill:#000000;fill-opacity:1;stroke:#000000;stroke-width:0;stroke-opacity:1"
   d="m 255.9,659.53 v 0.21 c 0.06,1.48 0.9,1.73 1.24,1.73 1.03,0 1.13,-1.34 1.13,-1.73 h -2.37 v -0.21 h 2.78 c 0.22,0 0.25,0 0.25,0.21 0,0.98 -0.54,1.94 -1.79,1.94 -1.15,0 -2.07,-1.02 -2.07,-2.26 0,-1.33 1.04,-2.29 2.19,-2.29 1.22,0 1.67,1.1 1.67,1.29 0,0.1 -0.08,0.12 -0.13,0.12 -0.09,0 -0.11,-0.06 -0.13,-0.14 -0.35,-1.03 -1.25,-1.03 -1.35,-1.03 -0.5,0 -0.9,0.3 -1.12,0.67 -0.3,0.48 -0.3,1.13 -0.3,1.49 z"
   inkscape:connector-curvature="0" />
</g>  </g>
  <g
     inkscape:label="Players"
     inkscape:groupmode="layer"
     id="layer1"
     transform="translate(20.44708,-105.26021)"
     style="display:inline;filter:url(#filter4062)">
    <g
       id="g1022"
       transform="translate(0,-13.124607)">
      <rect
         y="124.39166"
         x="-20.386105"
         height="9.2200174"
         width="9.2200174"
         id="rect5052"
         style="opacity:1;fill:#f0f0f0;fill-opacity:1;stroke:#000000;stroke-width:0.12195123;stroke-miterlimit:4;stroke-dasharray:none;stroke-dashoffset:0;stroke-opacity:1" />
      <text
         id="text5041-4"
         y="132.38712"
         x="-19.194302"
         style="font-style:normal;font-variant:normal;font-weight:normal;font-stretch:normal;font-size:12.67294502px;line-height:125%;font-family:Garamond;-inkscape-font-specification:Garamond;letter-spacing:0px;word-spacing:0px;fill:#000000;fill-opacity:1;stroke:none;stroke-width:0.32266259px;stroke-linecap:butt;stroke-linejoin:miter;stroke-opacity:1"
         xml:space="preserve"><tspan
           sodipodi:role="line"
           id="tspan5039-4"
           x="-19.194302"
           y="132.38712"
           style="font-size:10.32520294px;stroke-width:0.32266259px">A</tspan></text>
    </g>
    <g
       id="g1193">
      <g
         transform="translate(9.8698316,-14.125195)"
         id="g1003">
        <g
           id="g968">
          <rect
             y="124.39166"
             x="15.733847"
             height="9.2200174"
             width="9.2200174"
             id="rect5052-6"
             style="opacity:1;fill:#f0f0f0;fill-opacity:1;stroke:#000000;stroke-width:0.12195123;stroke-miterlimit:4;stroke-dasharray:none;stroke-dashoffset:0;stroke-opacity:1" />
          <path
             sodipodi:nodetypes="cccc"
             inkscape:connector-curvature="0"
             id="rect963"
             d="m 15.733847,124.39166 h 9.220017 l -9.220017,9.22002 z"
             style="opacity:1;fill:#f08c8c;fill-opacity:1;stroke:#000000;stroke-width:0.12195123;stroke-miterlimit:4;stroke-dasharray:none;stroke-dashoffset:0;stroke-opacity:1" />
        </g>
        <text
           xml:space="preserve"
           style="font-style:normal;font-variant:normal;font-weight:normal;font-stretch:normal;font-size:12.67294502px;line-height:125%;font-family:Garamond;-inkscape-font-specification:Garamond;letter-spacing:0px;word-spacing:0px;fill:#000000;fill-opacity:1;stroke:none;stroke-width:0.32266259px;stroke-linecap:butt;stroke-linejoin:miter;stroke-opacity:1"
           x="17.384697"
           y="132.31175"
           id="text5041-4-6"><tspan
             style="font-size:10.32520294px;stroke-width:0.32266259px"
             y="132.31175"
             x="17.384697"
             id="tspan5039-4-0"
             sodipodi:role="line">B</tspan></text>
      </g>
      <g
         id="g1179">
        <g
           id="g989"
           transform="rotate(-180,25.278771,135.59655)">
          <rect
             style="opacity:1;fill:#f0f0f0;fill-opacity:1;stroke:#000000;stroke-width:0.12195123;stroke-miterlimit:4;stroke-dasharray:none;stroke-dashoffset:0;stroke-opacity:1"
             id="rect985"
             width="9.2200174"
             height="9.2200174"
             x="15.733847"
             y="124.39166" />
          <path
             style="opacity:1;fill:#f08c8c;fill-opacity:1;stroke:#000000;stroke-width:0.12195123;stroke-miterlimit:4;stroke-dasharray:none;stroke-dashoffset:0;stroke-opacity:1"
             d="m 15.733847,124.39166 h 9.220017 l -9.220017,9.22002 z"
             id="path987"
             inkscape:connector-curvature="0"
             sodipodi:nodetypes="cccc" />
        </g>
        <text
           xml:space="preserve"
           style="font-style:normal;font-variant:normal;font-weight:normal;font-stretch:normal;font-size:12.67294502px;line-height:125%;font-family:Garamond;-inkscape-font-specification:Garamond;letter-spacing:0px;word-spacing:0px;fill:#000000;fill-opacity:1;stroke:none;stroke-width:0.32266259px;stroke-linecap:butt;stroke-linejoin:miter;stroke-opacity:1"
           x="26.929346"
           y="145.47124"
           id="text5041-4-9"><tspan
             style="font-size:10.32520294px;stroke-width:0.32266259px"
             y="145.47124"
             x="26.929346"
             id="tspan5039-4-6"
             sodipodi:role="line">C</tspan></text>
      </g>
    </g>
    <g
       id="g4069"
       transform="translate(1.0667632)">
      <rect
         style="opacity:1;fill:#f08c8c;fill-opacity:1;stroke:#000000;stroke-width:0.12195123;stroke-miterlimit:4;stroke-dasharray:none;stroke-dashoffset:0;stroke-opacity:1"
         id="rect4047"
         width="9.2200174"
         height="9.2200174"
         x="34.647224"
         y="123.96706" />
      <text
         xml:space="preserve"
         style="font-style:normal;font-variant:normal;font-weight:normal;font-stretch:normal;font-size:12.67294502px;line-height:125%;font-family:Garamond;-inkscape-font-specification:Garamond;letter-spacing:0px;word-spacing:0px;fill:#000000;fill-opacity:1;stroke:none;stroke-width:0.32266259px;stroke-linecap:butt;stroke-linejoin:miter;stroke-opacity:1"
         x="35.866756"
         y="131.96251"
         id="text4051"><tspan
           style="font-size:10.32520294px;stroke-width:0.32266259px"
           y="131.96251"
           x="35.866756"
           id="tspan4049"
           sodipodi:role="line">E</tspan></text>
    </g>
  </g>
</svg>
