<?xml version="1.0" encoding="UTF-8" standalone="no"?>
<!-- Created with Inkscape (http://www.inkscape.org/) -->

<svg
   xmlns:ns0="http://www.iki.fi/pav/software/textext/"
   xmlns:dc="http://purl.org/dc/elements/1.1/"
   xmlns:cc="http://creativecommons.org/ns#"
   xmlns:rdf="http://www.w3.org/1999/02/22-rdf-syntax-ns#"
   xmlns:svg="http://www.w3.org/2000/svg"
   xmlns="http://www.w3.org/2000/svg"
   xmlns:sodipodi="http://sodipodi.sourceforge.net/DTD/sodipodi-0.dtd"
   xmlns:inkscape="http://www.inkscape.org/namespaces/inkscape"
   width="72.668365mm"
   height="45.928936mm"
   viewBox="0 0 58.134691 36.743149"
   version="1.1"
   id="svg951"
   inkscape:version="0.92.4 (5da689c313, 2019-01-14)"
   sodipodi:docname="qss_setup_cartoon.svg">
  <defs
     id="defs945">
    <marker
       inkscape:isstock="true"
       style="overflow:visible"
       id="marker2547"
       refX="0"
       refY="0"
       orient="auto"
       inkscape:stockid="Arrow2Mend">
      <path
         transform="scale(-0.6)"
         d="M 8.7185878,4.0337352 -2.2072895,0.01601326 8.7185884,-4.0017078 c -1.7454984,2.3720609 -1.7354408,5.6174519 -6e-7,8.035443 z"
         style="fill:#000000;fill-opacity:1;fill-rule:evenodd;stroke:#000000;stroke-width:0.625;stroke-linejoin:round;stroke-opacity:1"
         id="path2545"
         inkscape:connector-curvature="0" />
    </marker>
    <marker
       inkscape:stockid="Arrow2Mend"
       orient="auto"
       refY="0"
       refX="0"
       id="Arrow2Mend-0-1"
       style="overflow:visible"
       inkscape:isstock="true"
       inkscape:collect="always">
      <path
         inkscape:connector-curvature="0"
         id="path4782-7-2"
         style="fill:#000000;fill-opacity:1;fill-rule:evenodd;stroke:#000000;stroke-width:0.625;stroke-linejoin:round;stroke-opacity:1"
         d="M 8.7185878,4.0337352 -2.2072895,0.01601326 8.7185884,-4.0017078 c -1.7454984,2.3720609 -1.7354408,5.6174519 -6e-7,8.035443 z"
         transform="scale(-0.6)" />
    </marker>
  </defs>
  <sodipodi:namedview
     id="base"
     pagecolor="#ffffff"
     bordercolor="#666666"
     borderopacity="1.0"
     inkscape:pageopacity="0.0"
     inkscape:pageshadow="2"
     inkscape:zoom="2.0000001"
     inkscape:cx="-92.821857"
     inkscape:cy="146.26902"
     inkscape:document-units="mm"
     inkscape:current-layer="layer3"
     showgrid="false"
     fit-margin-top="0"
     fit-margin-left="0"
     fit-margin-right="0"
     fit-margin-bottom="0"
     inkscape:window-width="1920"
     inkscape:window-height="1013"
     inkscape:window-x="-9"
     inkscape:window-y="-9"
     inkscape:window-maximized="1"
     inkscape:snap-global="false"
     scale-x="0.8">
    <inkscape:grid
       originy="-4.0836634"
       originx="5.6661132"
       id="grid2913"
       type="xygrid" />
  </sodipodi:namedview>
  <metadata
     id="metadata948">
    <rdf:RDF>
      <cc:Work
         rdf:about="">
        <dc:format>image/svg+xml</dc:format>
        <dc:type
           rdf:resource="http://purl.org/dc/dcmitype/StillImage" />
        <dc:title />
      </cc:Work>
    </rdf:RDF>
  </metadata>
  <g
     inkscape:groupmode="layer"
     id="layer3"
     inkscape:label="Arrows"
     style="display:inline"
     transform="translate(7.0826416,1.4509072)">
    <path
       style="fill:none;stroke:#000000;stroke-width:0.3232;stroke-linecap:butt;stroke-linejoin:miter;stroke-miterlimit:4;stroke-dasharray:1.29279998,0.64639999,0.3232,0.64639999;stroke-opacity:1;marker-end:url(#Arrow2Mend-0-1);stroke-dashoffset:0"
       d="M 1.4360063,14.617642 29.894588,3.538716"
       id="path4753-4-5"
       inkscape:connector-curvature="0"
       sodipodi:nodetypes="cc" />
    <path
       inkscape:connector-curvature="0"
       id="path2543"
       d="M 2.0187684,19.856125 29.92176,30.448359"
       style="fill:none;stroke:#000000;stroke-width:0.323;stroke-linecap:butt;stroke-linejoin:miter;stroke-miterlimit:4;stroke-dasharray:1.29200001,0.646,0.323,0.646;stroke-opacity:1;marker-end:url(#marker2547);stroke-dashoffset:0"
       sodipodi:nodetypes="cc" />
  </g>
  <g
     inkscape:groupmode="layer"
     id="layer2"
     inkscape:label="Text"
     style="opacity:1"
     transform="translate(5.9602618e-7,9.7720718)">
    <g
       style="font-style:normal;font-variant:normal;font-weight:normal;font-stretch:normal;letter-spacing:normal;word-spacing:normal;text-anchor:start;fill:none;fill-opacity:1;fill-rule:evenodd;stroke:#000000;stroke-linecap:butt;stroke-linejoin:miter;stroke-miterlimit:10.43299961;stroke-dasharray:none;stroke-dashoffset:0;stroke-opacity:1"
       ns0:jacobian_sqrt="0.352778"
       inkscapeversion="0.92.4"
       ns0:alignment="middle center"
       ns0:scale="1.0"
       ns0:preamble="C:\\Users\\MatthewThornton\\AppData\\Roaming\\inkscape\\extensions\\textext\\default_packages.tex"
       ns0:text="$K_C$"
       ns0:pdfconverter="pstoedit"
       ns0:texconverter="pdflatex"
       ns0:version="0.10.2"
       word-spacing="normal"
       letter-spacing="normal"
       font-size-adjust="none"
       font-stretch="normal"
       font-weight="normal"
       font-variant="normal"
       font-style="normal"
       stroke-miterlimit="10.433"
       xml:space="preserve"
       transform="matrix(0.352778,0,0,-0.352778,-32.521524,252.02296)"
       id="g1905">
<path
   id="path1901"
   style="fill:#000000;fill-opacity:1;stroke:#000000;stroke-width:0;stroke-opacity:1"
   d="m 153.79,661.25 v 0 0 l -0.01,0.01 v 0 0.01 0 0 0.01 h -0.01 v 0.01 0 0.01 l -0.01,0.01 v 0.01 0.01 h -0.01 v 0.01 0 0.01 0 l -0.01,0.01 v 0 0.01 0 0 0.01 0 0 0.01 c 0,0.01 0.18,0.15 0.29,0.23 l 1.74,1.34 c 0.94,0.68 1.33,0.72 1.63,0.75 0.08,0.01 0.18,0.02 0.18,0.2 0,0.04 -0.03,0.11 -0.11,0.11 -0.22,0 -0.47,-0.03 -0.71,-0.03 -0.36,0 -0.75,0.03 -1.11,0.03 -0.07,0 -0.19,0 -0.19,-0.2 0,-0.07 0.05,-0.1 0.12,-0.11 0.22,-0.02 0.31,-0.07 0.31,-0.21 0,-0.18 -0.3,-0.4 -0.36,-0.45 l -3.89,-2.98 0.8,3.19 c 0.09,0.35 0.11,0.45 0.84,0.45 0.25,0 0.34,0 0.34,0.2 0,0.09 -0.08,0.11 -0.14,0.11 -0.28,0 -1,-0.03 -1.28,-0.03 -0.29,0 -0.99,0.03 -1.28,0.03 -0.07,0 -0.2,0 -0.2,-0.19 0,-0.12 0.09,-0.12 0.29,-0.12 0.12,0 0.31,-0.01 0.42,-0.02 0.16,-0.02 0.22,-0.05 0.22,-0.16 0,-0.04 -0.01,-0.07 -0.04,-0.19 l -1.33,-5.33 c -0.1,-0.39 -0.12,-0.47 -0.91,-0.47 -0.17,0 -0.28,0 -0.28,-0.19 0,-0.12 0.12,-0.12 0.15,-0.12 0.28,0 0.99,0.04 1.27,0.04 0.21,0 0.43,-0.01 0.64,-0.01 0.22,0 0.43,-0.03 0.64,-0.03 0.07,0 0.2,0 0.2,0.2 0,0.11 -0.09,0.11 -0.28,0.11 -0.36,0 -0.64,0 -0.64,0.18 0,0.07 0.06,0.29 0.08,0.44 0.14,0.51 0.27,1.04 0.4,1.56 l 1.49,1.15 1.16,-2.67 c 0.12,-0.27 0.12,-0.29 0.12,-0.35 0,-0.3 -0.43,-0.31 -0.52,-0.31 -0.11,0 -0.22,0 -0.22,-0.2 0,-0.11 0.12,-0.11 0.14,-0.11 0.4,0 0.82,0.04 1.21,0.04 0.22,0 0.76,-0.04 0.98,-0.04 0.05,0 0.18,0 0.18,0.2 0,0.11 -0.11,0.11 -0.2,0.11 -0.41,0.01 -0.54,0.1 -0.69,0.45 z"
   inkscape:connector-curvature="0" />
<path
   id="path1903"
   style="fill:#000000;fill-opacity:1;stroke:#000000;stroke-width:0;stroke-opacity:1"
   d="m 163.07,660.54 v 0 0.01 0 0 0.01 0 h -0.01 v 0.01 0 0.01 0 0 0.01 h -0.01 v 0 0.01 0 h -0.01 v 0.01 0 h -0.01 v 0.01 0 h -0.01 v 0 h -0.01 v 0.01 H 163 v 0 0 h -0.01 v 0 0 h -0.01 v 0 0 c -0.05,0 -0.07,-0.02 -0.13,-0.08 l -0.51,-0.54 c -0.06,0.08 -0.45,0.62 -1.31,0.62 -1.7,0 -3.37,-1.5 -3.37,-3.07 0,-1.13 0.9,-1.96 2.15,-1.96 0.38,0 1.05,0.08 1.77,0.68 0.55,0.47 0.71,1.07 0.71,1.13 0,0.09 -0.09,0.09 -0.12,0.09 -0.1,0 -0.11,-0.03 -0.13,-0.11 -0.29,-0.95 -1.27,-1.54 -2.11,-1.54 -0.74,0 -1.57,0.4 -1.57,1.5 0,0.2 0.05,1.3 0.86,2.17 0.48,0.54 1.21,0.86 1.88,0.86 0.81,0 1.28,-0.59 1.28,-1.36 0,-0.2 -0.02,-0.25 -0.02,-0.29 0,-0.09 0.09,-0.09 0.13,-0.09 0.11,0 0.11,0.02 0.14,0.15 z"
   inkscape:connector-curvature="0" />
</g>    <g
       style="font-style:normal;font-variant:normal;font-weight:normal;font-stretch:normal;letter-spacing:normal;word-spacing:normal;text-anchor:start;fill:none;fill-opacity:1;fill-rule:evenodd;stroke:#000000;stroke-linecap:butt;stroke-linejoin:miter;stroke-miterlimit:10.43299961;stroke-dasharray:none;stroke-dashoffset:0;stroke-opacity:1"
       ns0:jacobian_sqrt="0.352778"
       inkscapeversion="0.92.4"
       ns0:alignment="middle center"
       ns0:scale="1.0"
       ns0:preamble="C:\\Users\\MatthewThornton\\AppData\\Roaming\\inkscape\\extensions\\textext\\default_packages.tex"
       ns0:text="$K_B$"
       ns0:pdfconverter="pstoedit"
       ns0:texconverter="pdflatex"
       ns0:version="0.10.2"
       word-spacing="normal"
       letter-spacing="normal"
       font-size-adjust="none"
       font-stretch="normal"
       font-weight="normal"
       font-variant="normal"
       font-style="normal"
       stroke-miterlimit="10.433"
       xml:space="preserve"
       transform="matrix(0.352778,0,0,-0.352778,-32.514468,230.51057)"
       id="content">
<path
   id="path2091"
   style="fill:#000000;fill-opacity:1;stroke:#000000;stroke-width:0;stroke-opacity:1"
   d="m 153.79,661.25 v 0 0 l -0.01,0.01 v 0 0.01 0 0 0.01 h -0.01 v 0.01 0 0.01 l -0.01,0.01 v 0.01 0.01 h -0.01 v 0.01 0 0.01 0 l -0.01,0.01 v 0 0.01 0 0 0.01 0 0 0.01 c 0,0.01 0.18,0.15 0.29,0.23 l 1.74,1.34 c 0.94,0.68 1.33,0.72 1.63,0.75 0.08,0.01 0.18,0.02 0.18,0.2 0,0.04 -0.03,0.11 -0.11,0.11 -0.22,0 -0.47,-0.03 -0.71,-0.03 -0.36,0 -0.75,0.03 -1.11,0.03 -0.07,0 -0.19,0 -0.19,-0.2 0,-0.07 0.05,-0.1 0.12,-0.11 0.22,-0.02 0.31,-0.07 0.31,-0.21 0,-0.18 -0.3,-0.4 -0.36,-0.45 l -3.89,-2.98 0.8,3.19 c 0.09,0.35 0.11,0.45 0.84,0.45 0.25,0 0.34,0 0.34,0.2 0,0.09 -0.08,0.11 -0.14,0.11 -0.28,0 -1,-0.03 -1.28,-0.03 -0.29,0 -0.99,0.03 -1.28,0.03 -0.07,0 -0.2,0 -0.2,-0.19 0,-0.12 0.09,-0.12 0.29,-0.12 0.12,0 0.31,-0.01 0.42,-0.02 0.16,-0.02 0.22,-0.05 0.22,-0.16 0,-0.04 -0.01,-0.07 -0.04,-0.19 l -1.33,-5.33 c -0.1,-0.39 -0.12,-0.47 -0.91,-0.47 -0.17,0 -0.28,0 -0.28,-0.19 0,-0.12 0.12,-0.12 0.15,-0.12 0.28,0 0.99,0.04 1.27,0.04 0.21,0 0.43,-0.01 0.64,-0.01 0.22,0 0.43,-0.03 0.64,-0.03 0.07,0 0.2,0 0.2,0.2 0,0.11 -0.09,0.11 -0.28,0.11 -0.36,0 -0.64,0 -0.64,0.18 0,0.07 0.06,0.29 0.08,0.44 0.14,0.51 0.27,1.04 0.4,1.56 l 1.49,1.15 1.16,-2.67 c 0.12,-0.27 0.12,-0.29 0.12,-0.35 0,-0.3 -0.43,-0.31 -0.52,-0.31 -0.11,0 -0.22,0 -0.22,-0.2 0,-0.11 0.12,-0.11 0.14,-0.11 0.4,0 0.82,0.04 1.21,0.04 0.22,0 0.76,-0.04 0.98,-0.04 0.05,0 0.18,0 0.18,0.2 0,0.11 -0.11,0.11 -0.2,0.11 -0.41,0.01 -0.54,0.1 -0.69,0.45 z"
   inkscape:connector-curvature="0" />
<path
   id="path2093"
   style="fill:#000000;fill-opacity:1;stroke:#000000;stroke-width:0;stroke-opacity:1"
   d="m 158.5,656.28 v -0.02 l -0.01,-0.02 v -0.02 l -0.01,-0.02 -0.01,-0.01 v -0.02 l -0.01,-0.02 v -0.01 l -0.01,-0.02 -0.01,-0.01 -0.01,-0.01 -0.01,-0.01 -0.01,-0.01 -0.01,-0.01 -0.01,-0.01 -0.02,-0.01 -0.01,-0.01 -0.02,-0.01 h -0.02 l -0.02,-0.01 h -0.02 l -0.01,-0.01 h -0.01 -0.02 -0.01 -0.01 L 158.2,656 h -0.01 -0.02 -0.01 -0.02 -0.02 -0.02 l -0.02,-0.01 h -0.01 -0.02 -0.02 -0.03 -0.02 -0.02 -0.02 -0.03 -0.02 c -0.12,0 -0.21,0 -0.21,-0.15 0,-0.1 0.08,-0.1 0.21,-0.1 h 2.7 c 1.18,0 2.08,0.8 2.08,1.49 0,0.49 -0.46,0.92 -1.2,0.99 0.85,0.16 1.56,0.69 1.56,1.28 0,0.53 -0.54,0.99 -1.45,0.99 l -0.11,-0.25 c 0.71,0 0.87,-0.47 0.87,-0.73 0,-0.56 -0.63,-1.2 -1.57,-1.2 h -1.15 l -0.05,-0.2 h 1.48 c 0.66,0 0.91,-0.43 0.91,-0.83 0,-0.69 -0.7,-1.29 -1.55,-1.29 h -1.12 c -0.22,0 -0.23,0.01 -0.23,0.07 0,0.01 0,0.04 0.03,0.15 l 0.48,1.9 0.05,0.2 0.43,1.69 c 0.05,0.22 0.06,0.24 0.35,0.24 h 1.07 l 0.11,0.25 h -2.55 c -0.13,0 -0.22,0 -0.22,-0.15 0,-0.1 0.08,-0.1 0.22,-0.1 0.01,0 0.14,0 0.27,-0.01 0.15,-0.02 0.16,-0.03 0.16,-0.1 0,-0.02 0,-0.05 -0.03,-0.15 z"
   inkscape:connector-curvature="0" />
</g>    <g
       style="font-style:normal;font-variant:normal;font-weight:normal;font-stretch:normal;letter-spacing:normal;word-spacing:normal;text-anchor:start;fill:none;fill-opacity:1;fill-rule:evenodd;stroke:#000000;stroke-linecap:butt;stroke-linejoin:miter;stroke-miterlimit:10.43299961;stroke-dasharray:none;stroke-dashoffset:0;stroke-opacity:1"
       ns0:jacobian_sqrt="0.352778"
       inkscapeversion="0.92.4"
       ns0:alignment="middle center"
       ns0:scale="1.0"
       ns0:preamble="C:\\Users\\MatthewThornton\\AppData\\Roaming\\inkscape\\extensions\\textext\\default_packages.tex"
       ns0:text="$\\varsigma_A = K_A \\oplus \\sigma_A$"
       ns0:pdfconverter="pstoedit"
       ns0:texconverter="pdflatex"
       ns0:version="0.10.2"
       word-spacing="normal"
       letter-spacing="normal"
       font-size-adjust="none"
       font-stretch="normal"
       font-weight="normal"
       font-variant="normal"
       font-style="normal"
       stroke-miterlimit="10.433"
       xml:space="preserve"
       transform="matrix(0.352778,0,0,-0.352778,-37.642286,239.07219)"
       id="g2171">
<path
   id="path2153"
   style="fill:#000000;fill-opacity:1;stroke:#000000;stroke-width:0;stroke-opacity:1"
   d="m 151.02,657.43 0.03,-0.02 0.04,-0.02 0.04,-0.02 0.03,-0.03 0.02,-0.01 0.02,-0.01 0.02,-0.01 0.01,-0.01 0.02,-0.02 0.01,-0.01 0.02,-0.01 0.01,-0.02 0.01,-0.01 0.01,-0.02 0.02,-0.02 0.01,-0.01 0.01,-0.02 0.01,-0.02 0.01,-0.02 v -0.02 l 0.01,-0.02 0.01,-0.02 v -0.02 l 0.01,-0.03 v -0.02 -0.03 -0.02 -0.03 c 0,-0.25 -0.16,-0.53 -0.45,-0.53 -0.06,0 -0.23,0.01 -0.41,0.09 -0.02,0.01 -0.06,0.02 -0.09,0.02 -0.05,0 -0.11,-0.04 -0.11,-0.1 0,-0.15 0.45,-0.23 0.61,-0.23 0.56,0 1.01,0.55 1.01,1.07 0,0.5 -0.23,0.62 -0.98,1.04 l -0.65,0.36 c -0.37,0.2 -0.79,0.43 -0.79,1.05 0,0.9 1.08,1.73 2.16,1.73 0.21,0 0.42,-0.03 0.77,-0.19 0.09,-0.04 0.12,-0.06 0.15,-0.06 0.08,0 0.17,0.09 0.17,0.17 0,0.22 -0.64,0.3 -1.03,0.3 -1.51,0 -2.74,-1.15 -2.74,-2.26 0,-0.84 0.63,-1.19 1.06,-1.42 z"
   inkscape:connector-curvature="0" />
<path
   id="path2155"
   style="fill:#000000;fill-opacity:1;stroke:#000000;stroke-width:0;stroke-opacity:1"
   d="m 153.77,656.58 -0.03,-0.04 -0.02,-0.03 -0.02,-0.04 -0.02,-0.03 -0.03,-0.03 -0.02,-0.03 -0.02,-0.02 -0.03,-0.03 -0.02,-0.03 -0.02,-0.02 -0.03,-0.02 -0.02,-0.03 -0.02,-0.02 -0.03,-0.02 -0.02,-0.02 -0.03,-0.02 -0.03,-0.01 -0.02,-0.02 -0.03,-0.02 -0.03,-0.01 -0.03,-0.01 -0.03,-0.02 -0.03,-0.01 -0.03,-0.01 -0.03,-0.01 -0.03,-0.01 h -0.03 L 153.03,656.01 153,656 h -0.04 l -0.04,-0.01 h -0.03 c -0.07,-0.01 -0.16,-0.01 -0.16,-0.15 0,-0.07 0.06,-0.1 0.09,-0.1 0.19,0 0.42,0.03 0.61,0.03 0.22,0 0.5,-0.03 0.72,-0.03 0.03,0 0.14,0 0.14,0.15 0,0.09 -0.1,0.1 -0.12,0.1 -0.06,0.01 -0.31,0.02 -0.31,0.21 0,0.08 0.07,0.2 0.1,0.26 l 0.56,0.87 h 2 l -0.03,0.25 h -1.8 l 1.47,2.27 0.33,-2.27 0.03,-0.25 0.17,-1.16 c -0.03,-0.07 -0.07,-0.18 -0.48,-0.18 -0.09,0 -0.18,0 -0.18,-0.15 0,-0.03 0.02,-0.1 0.11,-0.1 0.2,0 0.7,0.03 0.9,0.03 0.12,0 0.29,-0.01 0.41,-0.01 0.13,0 0.28,-0.02 0.4,-0.02 0.09,0 0.14,0.06 0.14,0.15 0,0.1 -0.08,0.1 -0.2,0.1 -0.4,0 -0.41,0.06 -0.44,0.22 l -0.61,4.29 c -0.02,0.15 -0.04,0.2 -0.17,0.2 -0.13,0 -0.17,-0.06 -0.24,-0.16 z"
   inkscape:connector-curvature="0" />
<path
   id="path2157"
   style="fill:#000000;fill-opacity:1;stroke:#000000;stroke-width:0;stroke-opacity:1"
   d="m 168.43,660.48 h 0.03 0.03 0.03 l 0.02,0.01 h 0.01 0.02 0.01 0.01 0.02 l 0.01,0.01 h 0.01 0.02 l 0.01,0.01 h 0.01 l 0.01,0.01 h 0.02 l 0.01,0.01 0.01,0.01 0.01,0.01 v 0.01 l 0.01,0.01 h 0.01 v 0.01 0 l 0.01,0.01 v 0.01 0 0.01 l 0.01,0.01 v 0 0.01 0.01 0.01 0.01 0 0.01 0.01 c 0,0.2 -0.19,0.2 -0.32,0.2 h -5.98 c -0.14,0 -0.33,0 -0.33,-0.2 0,-0.2 0.19,-0.2 0.34,-0.2 z"
   inkscape:connector-curvature="0" />
<path
   id="path2159"
   style="fill:#000000;fill-opacity:1;stroke:#000000;stroke-width:0;stroke-opacity:1"
   d="m 168.45,658.56 h 0.01 0.01 0.03 0.03 0.01 0.02 0.01 0.01 0.02 l 0.01,0.01 h 0.01 0.02 l 0.01,0.01 h 0.01 l 0.01,0.01 h 0.02 l 0.01,0.01 h 0.01 l 0.01,0.01 0.01,0.01 v 0.01 h 0.01 v 0.01 l 0.01,0.01 v 0 0.01 h 0.01 v 0.01 0.01 0 l 0.01,0.01 v 0.01 0 0.01 0.01 0.01 0.01 0.01 0.01 c 0,0.19 -0.19,0.19 -0.34,0.19 h -5.95 c -0.15,0 -0.34,0 -0.34,-0.19 0,-0.2 0.19,-0.2 0.33,-0.2 z"
   inkscape:connector-curvature="0" />
<path
   id="path2161"
   style="fill:#000000;fill-opacity:1;stroke:#000000;stroke-width:0;stroke-opacity:1"
   d="m 177.18,661.25 h -0.01 v 0 0.01 0 0.01 0 0 l -0.01,0.01 v 0 0.01 0 0.01 l -0.01,0.01 v 0.01 l -0.01,0.01 v 0 0.01 0 0.01 h -0.01 v 0.01 0 0.01 0 0 0.01 0 0 0.01 c 0,0.01 0.17,0.15 0.28,0.23 l 1.75,1.34 c 0.94,0.68 1.33,0.72 1.63,0.75 0.08,0.01 0.17,0.02 0.17,0.2 0,0.04 -0.03,0.11 -0.11,0.11 -0.21,0 -0.46,-0.03 -0.7,-0.03 -0.36,0 -0.75,0.03 -1.11,0.03 -0.07,0 -0.19,0 -0.19,-0.2 0,-0.07 0.05,-0.1 0.12,-0.11 0.22,-0.02 0.31,-0.07 0.31,-0.21 0,-0.18 -0.3,-0.4 -0.36,-0.45 l -3.89,-2.98 0.8,3.19 c 0.09,0.35 0.11,0.45 0.84,0.45 0.25,0 0.34,0 0.34,0.2 0,0.09 -0.08,0.11 -0.14,0.11 -0.28,0 -1,-0.03 -1.28,-0.03 -0.29,0 -1,0.03 -1.29,0.03 -0.07,0 -0.2,0 -0.2,-0.19 0,-0.12 0.09,-0.12 0.29,-0.12 0.13,0 0.31,-0.01 0.43,-0.02 0.16,-0.02 0.22,-0.05 0.22,-0.16 0,-0.04 -0.01,-0.07 -0.04,-0.19 l -1.33,-5.33 c -0.1,-0.39 -0.12,-0.47 -0.91,-0.47 -0.17,0 -0.28,0 -0.28,-0.19 0,-0.12 0.12,-0.12 0.15,-0.12 0.28,0 0.99,0.04 1.27,0.04 0.2,0 0.42,-0.01 0.63,-0.01 0.22,0 0.44,-0.03 0.65,-0.03 0.07,0 0.2,0 0.2,0.2 0,0.11 -0.09,0.11 -0.28,0.11 -0.37,0 -0.65,0 -0.65,0.18 0,0.07 0.06,0.29 0.09,0.44 0.14,0.51 0.27,1.04 0.4,1.56 l 1.49,1.15 1.16,-2.67 c 0.11,-0.27 0.11,-0.29 0.11,-0.35 0,-0.3 -0.43,-0.31 -0.51,-0.31 -0.11,0 -0.22,0 -0.22,-0.2 0,-0.11 0.12,-0.11 0.14,-0.11 0.4,0 0.81,0.04 1.21,0.04 0.22,0 0.76,-0.04 0.98,-0.04 0.05,0 0.18,0 0.18,0.2 0,0.11 -0.11,0.11 -0.2,0.11 -0.41,0.01 -0.54,0.1 -0.69,0.45 z"
   inkscape:connector-curvature="0" />
<path
   id="path2163"
   style="fill:#000000;fill-opacity:1;stroke:#000000;stroke-width:0;stroke-opacity:1"
   d="m 182,656.58 -0.02,-0.04 -0.02,-0.03 -0.03,-0.04 -0.02,-0.03 -0.02,-0.03 -0.02,-0.03 -0.03,-0.02 -0.02,-0.03 -0.02,-0.03 -0.03,-0.02 -0.02,-0.02 -0.03,-0.03 -0.02,-0.02 -0.02,-0.02 -0.03,-0.02 -0.03,-0.02 -0.02,-0.01 -0.03,-0.02 -0.03,-0.02 -0.02,-0.01 -0.03,-0.01 -0.03,-0.02 -0.03,-0.01 -0.03,-0.01 -0.03,-0.01 -0.04,-0.01 h -0.03 l -0.03,-0.01 -0.04,-0.01 h -0.03 l -0.04,-0.01 h -0.04 c -0.07,-0.01 -0.16,-0.01 -0.16,-0.15 0,-0.07 0.06,-0.1 0.1,-0.1 0.18,0 0.41,0.03 0.6,0.03 0.22,0 0.51,-0.03 0.72,-0.03 0.03,0 0.14,0 0.14,0.15 0,0.09 -0.09,0.1 -0.12,0.1 -0.05,0.01 -0.31,0.02 -0.31,0.21 0,0.08 0.07,0.2 0.11,0.26 l 0.56,0.87 h 2 l -0.04,0.25 h -1.79 l 1.46,2.27 0.33,-2.27 0.04,-0.25 0.17,-1.16 c -0.03,-0.07 -0.08,-0.18 -0.49,-0.18 -0.08,0 -0.18,0 -0.18,-0.15 0,-0.03 0.02,-0.1 0.11,-0.1 0.2,0 0.7,0.03 0.9,0.03 0.13,0 0.29,-0.01 0.42,-0.01 0.12,0 0.27,-0.02 0.4,-0.02 0.09,0 0.14,0.06 0.14,0.15 0,0.1 -0.09,0.1 -0.2,0.1 -0.41,0 -0.42,0.06 -0.44,0.22 l -0.62,4.29 c -0.02,0.15 -0.03,0.2 -0.16,0.2 -0.14,0 -0.18,-0.06 -0.24,-0.16 z"
   inkscape:connector-curvature="0" />
<path
   id="path2165"
   style="fill:#000000;fill-opacity:1;stroke:#000000;stroke-width:0;stroke-opacity:1"
   d="m 196.46,659.72 v 0.17 l -0.01,0.17 -0.02,0.16 -0.03,0.16 -0.04,0.17 -0.05,0.15 -0.05,0.16 -0.06,0.15 -0.06,0.14 -0.08,0.15 -0.08,0.13 -0.08,0.14 -0.1,0.13 -0.1,0.12 -0.1,0.12 -0.11,0.12 -0.12,0.11 -0.12,0.1 -0.12,0.1 -0.13,0.09 -0.14,0.09 -0.14,0.08 -0.14,0.07 -0.15,0.07 -0.15,0.06 -0.15,0.05 -0.16,0.04 -0.16,0.04 -0.16,0.03 -0.17,0.02 -0.17,0.01 -0.17,0.01 0.12,-0.25 h -0.25 v -2.93 -0.25 h 0.25 2.96 c -0.1,-1.7 -1.42,-2.86 -2.96,-2.94 v 2.94 h -0.25 v -2.94 c -1.54,0.08 -2.85,1.24 -2.95,2.94 h 2.95 v 0.25 h -2.95 c 0.1,1.67 1.4,2.85 2.95,2.93 h 0.25 c 1.57,-0.08 2.86,-1.27 2.96,-2.93 h -2.96 v 2.93 l -0.12,0.25 c -1.85,0 -3.33,-1.5 -3.33,-3.31 0,-1.83 1.5,-3.31 3.32,-3.31 1.86,0 3.33,1.5 3.33,3.31 z"
   inkscape:connector-curvature="0" />
<path
   id="path2167"
   style="fill:#000000;fill-opacity:1;stroke:#000000;stroke-width:0;stroke-opacity:1"
   d="m 204.39,660.94 h 0.02 0.01 0.02 0.01 0.02 0.02 0.02 l 0.01,0.01 h 0.02 0.02 0.02 l 0.03,0.01 h 0.02 l 0.02,0.01 h 0.02 l 0.02,0.01 0.02,0.01 0.02,0.01 0.01,0.01 0.02,0.01 0.02,0.02 0.01,0.01 0.01,0.01 0.01,0.01 h 0.01 v 0.01 l 0.01,0.01 0.01,0.01 v 0.01 l 0.01,0.01 v 0.01 l 0.01,0.01 v 0.01 l 0.01,0.02 v 0.01 0.01 l 0.01,0.01 v 0.02 0.01 0.02 0.01 0.02 c 0,0.24 -0.21,0.24 -0.39,0.24 h -2.27 c -1.51,0 -2.61,-1.64 -2.61,-2.82 0,-0.88 0.59,-1.57 1.49,-1.57 l 0.01,0.21 c -0.49,0 -0.88,0.36 -0.88,1.08 0,0.3 0.12,1.11 0.46,1.7 0.42,0.68 1.02,0.82 1.36,0.82 0.84,0 0.92,-0.66 0.92,-0.96 0,-0.47 -0.2,-1.28 -0.54,-1.79 -0.39,-0.59 -0.93,-0.85 -1.32,-0.85 v 0 l -0.01,-0.21 c 1.18,0 2.51,1.2 2.51,2.73 0,0.17 0,0.64 -0.31,1.08 z"
   inkscape:connector-curvature="0" />
<path
   id="path2169"
   style="fill:#000000;fill-opacity:1;stroke:#000000;stroke-width:0;stroke-opacity:1"
   d="m 206.36,656.58 -0.02,-0.04 -0.03,-0.03 -0.02,-0.04 -0.02,-0.03 -0.02,-0.03 -0.03,-0.03 -0.02,-0.02 -0.02,-0.03 -0.03,-0.03 -0.02,-0.02 -0.02,-0.02 -0.03,-0.03 -0.02,-0.02 -0.03,-0.02 -0.02,-0.02 -0.03,-0.02 -0.02,-0.01 -0.03,-0.02 -0.03,-0.02 -0.03,-0.01 -0.02,-0.01 -0.03,-0.02 -0.03,-0.01 -0.03,-0.01 -0.03,-0.01 -0.04,-0.01 h -0.03 l -0.03,-0.01 -0.04,-0.01 h -0.04 l -0.03,-0.01 h -0.04 c -0.07,-0.01 -0.16,-0.01 -0.16,-0.15 0,-0.07 0.06,-0.1 0.1,-0.1 0.18,0 0.41,0.03 0.6,0.03 0.22,0 0.51,-0.03 0.72,-0.03 0.03,0 0.14,0 0.14,0.15 0,0.09 -0.09,0.1 -0.12,0.1 -0.06,0.01 -0.31,0.02 -0.31,0.21 0,0.08 0.07,0.2 0.11,0.26 l 0.56,0.87 h 2 l -0.04,0.25 h -1.8 l 1.47,2.27 0.33,-2.27 0.04,-0.25 0.16,-1.16 c -0.02,-0.07 -0.07,-0.18 -0.48,-0.18 -0.08,0 -0.18,0 -0.18,-0.15 0,-0.03 0.02,-0.1 0.11,-0.1 0.2,0 0.7,0.03 0.9,0.03 0.13,0 0.29,-0.01 0.41,-0.01 0.13,0 0.28,-0.02 0.4,-0.02 0.1,0 0.14,0.06 0.14,0.15 0,0.1 -0.08,0.1 -0.19,0.1 -0.41,0 -0.42,0.06 -0.44,0.22 l -0.62,4.29 c -0.02,0.15 -0.03,0.2 -0.17,0.2 -0.13,0 -0.17,-0.06 -0.23,-0.16 z"
   inkscape:connector-curvature="0" />
</g>    <g
       style="font-style:normal;font-variant:normal;font-weight:normal;font-stretch:normal;letter-spacing:normal;word-spacing:normal;text-anchor:start;fill:none;fill-opacity:1;fill-rule:evenodd;stroke:#000000;stroke-linecap:butt;stroke-linejoin:miter;stroke-miterlimit:10.43299961;stroke-dasharray:none;stroke-dashoffset:0;stroke-opacity:1"
       ns0:jacobian_sqrt="0.352778"
       inkscapeversion="0.92.4"
       ns0:alignment="middle center"
       ns0:scale="1.0"
       ns0:preamble="C:\\Users\\MatthewThornton\\AppData\\Roaming\\inkscape\\extensions\\textext\\default_packages.tex"
       ns0:text="$K_A = K_B \\oplus K_C$"
       ns0:pdfconverter="pstoedit"
       ns0:texconverter="pdflatex"
       ns0:version="0.10.2"
       word-spacing="normal"
       letter-spacing="normal"
       font-size-adjust="none"
       font-stretch="normal"
       font-weight="normal"
       font-variant="normal"
       font-style="normal"
       stroke-miterlimit="10.433"
       xml:space="preserve"
       transform="matrix(0.352778,0,0,-0.352778,-39.494184,243.23879)"
       id="g2255">
<path
   id="path2237"
   style="fill:#000000;fill-opacity:1;stroke:#000000;stroke-width:0;stroke-opacity:1"
   d="m 153.79,661.25 v 0 0 l -0.01,0.01 v 0 0.01 0 0 0.01 h -0.01 v 0.01 0 0.01 l -0.01,0.01 v 0.01 0.01 h -0.01 v 0.01 0 0.01 0 l -0.01,0.01 v 0 0.01 0 0 0.01 0 0 0.01 c 0,0.01 0.18,0.15 0.29,0.23 l 1.74,1.34 c 0.94,0.68 1.33,0.72 1.63,0.75 0.08,0.01 0.18,0.02 0.18,0.2 0,0.04 -0.03,0.11 -0.11,0.11 -0.22,0 -0.47,-0.03 -0.71,-0.03 -0.36,0 -0.75,0.03 -1.11,0.03 -0.07,0 -0.19,0 -0.19,-0.2 0,-0.07 0.05,-0.1 0.12,-0.11 0.22,-0.02 0.31,-0.07 0.31,-0.21 0,-0.18 -0.3,-0.4 -0.36,-0.45 l -3.89,-2.98 0.8,3.19 c 0.09,0.35 0.11,0.45 0.84,0.45 0.25,0 0.34,0 0.34,0.2 0,0.09 -0.08,0.11 -0.14,0.11 -0.28,0 -1,-0.03 -1.28,-0.03 -0.29,0 -0.99,0.03 -1.28,0.03 -0.07,0 -0.2,0 -0.2,-0.19 0,-0.12 0.09,-0.12 0.29,-0.12 0.12,0 0.31,-0.01 0.42,-0.02 0.16,-0.02 0.22,-0.05 0.22,-0.16 0,-0.04 -0.01,-0.07 -0.04,-0.19 l -1.33,-5.33 c -0.1,-0.39 -0.12,-0.47 -0.91,-0.47 -0.17,0 -0.28,0 -0.28,-0.19 0,-0.12 0.12,-0.12 0.15,-0.12 0.28,0 0.99,0.04 1.27,0.04 0.21,0 0.43,-0.01 0.64,-0.01 0.22,0 0.43,-0.03 0.64,-0.03 0.07,0 0.2,0 0.2,0.2 0,0.11 -0.09,0.11 -0.28,0.11 -0.36,0 -0.64,0 -0.64,0.18 0,0.07 0.06,0.29 0.08,0.44 0.14,0.51 0.27,1.04 0.4,1.56 l 1.49,1.15 1.16,-2.67 c 0.12,-0.27 0.12,-0.29 0.12,-0.35 0,-0.3 -0.43,-0.31 -0.52,-0.31 -0.11,0 -0.22,0 -0.22,-0.2 0,-0.11 0.12,-0.11 0.14,-0.11 0.4,0 0.82,0.04 1.21,0.04 0.22,0 0.76,-0.04 0.98,-0.04 0.05,0 0.18,0 0.18,0.2 0,0.11 -0.11,0.11 -0.2,0.11 -0.41,0.01 -0.54,0.1 -0.69,0.45 z"
   inkscape:connector-curvature="0" />
<path
   id="path2239"
   style="fill:#000000;fill-opacity:1;stroke:#000000;stroke-width:0;stroke-opacity:1"
   d="m 158.61,656.58 -0.02,-0.04 -0.02,-0.03 -0.02,-0.04 -0.03,-0.03 -0.02,-0.03 -0.02,-0.03 -0.03,-0.02 -0.02,-0.03 -0.02,-0.03 -0.03,-0.02 -0.02,-0.02 -0.02,-0.03 -0.03,-0.02 -0.02,-0.02 -0.03,-0.02 -0.02,-0.02 -0.03,-0.01 -0.03,-0.02 -0.02,-0.02 -0.03,-0.01 -0.03,-0.01 -0.03,-0.02 -0.03,-0.01 -0.03,-0.01 -0.03,-0.01 -0.03,-0.01 h -0.04 l -0.03,-0.01 -0.04,-0.01 h -0.03 l -0.04,-0.01 h -0.04 c -0.07,-0.01 -0.16,-0.01 -0.16,-0.15 0,-0.07 0.06,-0.1 0.1,-0.1 0.18,0 0.41,0.03 0.6,0.03 0.23,0 0.51,-0.03 0.72,-0.03 0.04,0 0.14,0 0.14,0.15 0,0.09 -0.09,0.1 -0.12,0.1 -0.05,0.01 -0.3,0.02 -0.3,0.21 0,0.08 0.06,0.2 0.1,0.26 l 0.56,0.87 h 2 l -0.04,0.25 h -1.79 l 1.47,2.27 0.32,-2.27 0.04,-0.25 0.17,-1.16 c -0.03,-0.07 -0.07,-0.18 -0.49,-0.18 -0.08,0 -0.18,0 -0.18,-0.15 0,-0.03 0.02,-0.1 0.12,-0.1 0.2,0 0.69,0.03 0.9,0.03 0.12,0 0.28,-0.01 0.41,-0.01 0.13,0 0.27,-0.02 0.4,-0.02 0.09,0 0.14,0.06 0.14,0.15 0,0.1 -0.09,0.1 -0.2,0.1 -0.4,0 -0.42,0.06 -0.44,0.22 l -0.61,4.29 c -0.02,0.15 -0.04,0.2 -0.17,0.2 -0.13,0 -0.18,-0.06 -0.24,-0.16 z"
   inkscape:connector-curvature="0" />
<path
   id="path2241"
   style="fill:#000000;fill-opacity:1;stroke:#000000;stroke-width:0;stroke-opacity:1"
   d="m 173.28,660.48 h 0.03 0.03 0.03 l 0.01,0.01 h 0.02 0.01 0.02 0.01 0.01 l 0.02,0.01 h 0.01 0.01 l 0.02,0.01 h 0.01 l 0.01,0.01 h 0.01 l 0.01,0.01 0.01,0.01 0.01,0.01 0.01,0.01 0.01,0.01 v 0 l 0.01,0.01 v 0 0.01 l 0.01,0.01 v 0 0.01 0.01 0 l 0.01,0.01 v 0.01 0.01 0.01 0 0.01 0.01 c 0,0.2 -0.19,0.2 -0.33,0.2 h -5.97 c -0.14,0 -0.33,0 -0.33,-0.2 0,-0.2 0.19,-0.2 0.34,-0.2 z"
   inkscape:connector-curvature="0" />
<path
   id="path2243"
   style="fill:#000000;fill-opacity:1;stroke:#000000;stroke-width:0;stroke-opacity:1"
   d="m 173.29,658.56 h 0.02 0.01 0.03 0.02 0.02 0.01 0.02 0.01 0.01 l 0.02,0.01 h 0.01 0.01 l 0.02,0.01 h 0.01 l 0.01,0.01 h 0.01 l 0.01,0.01 h 0.01 l 0.01,0.01 0.01,0.01 0.01,0.01 h 0.01 v 0.01 0.01 h 0.01 v 0.01 0 l 0.01,0.01 v 0.01 0 0.01 0.01 h 0.01 v 0.01 0.01 0.01 0.01 0.01 0.01 c 0,0.19 -0.19,0.19 -0.34,0.19 h -5.95 c -0.15,0 -0.34,0 -0.34,-0.19 0,-0.2 0.19,-0.2 0.33,-0.2 z"
   inkscape:connector-curvature="0" />
<path
   id="path2245"
   style="fill:#000000;fill-opacity:1;stroke:#000000;stroke-width:0;stroke-opacity:1"
   d="m 182.02,661.25 v 0 0 0.01 0 0.01 h -0.01 v 0 0.01 0 0.01 H 182 v 0.01 0.01 l -0.01,0.01 v 0.01 0 0.01 h -0.01 v 0.01 0 0.01 0 0.01 0 h -0.01 v 0.01 0 0 0.01 c 0,0.01 0.18,0.15 0.29,0.23 l 1.75,1.34 c 0.94,0.68 1.32,0.72 1.62,0.75 0.08,0.01 0.18,0.02 0.18,0.2 0,0.04 -0.03,0.11 -0.11,0.11 -0.22,0 -0.47,-0.03 -0.71,-0.03 -0.36,0 -0.74,0.03 -1.1,0.03 -0.07,0 -0.19,0 -0.19,-0.2 0,-0.07 0.05,-0.1 0.12,-0.11 0.22,-0.02 0.31,-0.07 0.31,-0.21 0,-0.18 -0.3,-0.4 -0.36,-0.45 l -3.89,-2.98 0.8,3.19 c 0.09,0.35 0.11,0.45 0.83,0.45 0.25,0 0.34,0 0.34,0.2 0,0.09 -0.08,0.11 -0.14,0.11 -0.28,0 -0.99,-0.03 -1.27,-0.03 -0.29,0 -1,0.03 -1.29,0.03 -0.07,0 -0.2,0 -0.2,-0.19 0,-0.12 0.09,-0.12 0.29,-0.12 0.13,0 0.31,-0.01 0.43,-0.02 0.16,-0.02 0.22,-0.05 0.22,-0.16 0,-0.04 -0.01,-0.07 -0.04,-0.19 l -1.34,-5.33 c -0.1,-0.39 -0.12,-0.47 -0.91,-0.47 -0.16,0 -0.27,0 -0.27,-0.19 0,-0.12 0.12,-0.12 0.15,-0.12 0.28,0 0.98,0.04 1.26,0.04 0.21,0 0.43,-0.01 0.64,-0.01 0.22,0 0.44,-0.03 0.65,-0.03 0.07,0 0.2,0 0.2,0.2 0,0.11 -0.09,0.11 -0.28,0.11 -0.37,0 -0.65,0 -0.65,0.18 0,0.07 0.06,0.29 0.09,0.44 0.14,0.51 0.27,1.04 0.4,1.56 l 1.48,1.15 1.16,-2.67 c 0.12,-0.27 0.12,-0.29 0.12,-0.35 0,-0.3 -0.43,-0.31 -0.52,-0.31 -0.11,0 -0.22,0 -0.22,-0.2 0,-0.11 0.12,-0.11 0.14,-0.11 0.4,0 0.82,0.04 1.22,0.04 0.22,0 0.76,-0.04 0.98,-0.04 0.05,0 0.18,0 0.18,0.2 0,0.11 -0.11,0.11 -0.2,0.11 -0.41,0.01 -0.54,0.1 -0.69,0.45 z"
   inkscape:connector-curvature="0" />
<path
   id="path2247"
   style="fill:#000000;fill-opacity:1;stroke:#000000;stroke-width:0;stroke-opacity:1"
   d="m 186.74,656.28 -0.01,-0.02 -0.01,-0.02 v -0.02 l -0.01,-0.02 v -0.01 l -0.01,-0.02 v -0.02 l -0.01,-0.01 -0.01,-0.02 -0.01,-0.01 v -0.01 l -0.01,-0.01 -0.01,-0.01 -0.02,-0.01 -0.01,-0.01 -0.01,-0.01 -0.02,-0.01 -0.02,-0.01 h -0.01 l -0.02,-0.01 h -0.03 l -0.01,-0.01 h -0.01 -0.01 -0.02 -0.01 L 186.44,656 h -0.02 -0.01 -0.02 -0.02 -0.01 -0.02 l -0.02,-0.01 h -0.02 -0.02 -0.02 -0.02 -0.02 -0.03 -0.02 -0.02 -0.03 c -0.12,0 -0.21,0 -0.21,-0.15 0,-0.1 0.08,-0.1 0.21,-0.1 h 2.71 c 1.17,0 2.07,0.8 2.07,1.49 0,0.49 -0.45,0.92 -1.19,0.99 0.84,0.16 1.55,0.69 1.55,1.28 0,0.53 -0.54,0.99 -1.45,0.99 l -0.11,-0.25 c 0.71,0 0.87,-0.47 0.87,-0.73 0,-0.56 -0.63,-1.2 -1.57,-1.2 h -1.15 l -0.04,-0.2 h 1.48 c 0.66,0 0.91,-0.43 0.91,-0.83 0,-0.69 -0.71,-1.29 -1.55,-1.29 h -1.13 c -0.22,0 -0.22,0.01 -0.22,0.07 0,0.01 0,0.04 0.02,0.15 l 0.49,1.9 0.04,0.2 0.43,1.69 c 0.06,0.22 0.07,0.24 0.36,0.24 h 1.06 l 0.11,0.25 h -2.54 c -0.14,0 -0.23,0 -0.23,-0.15 0,-0.1 0.09,-0.1 0.23,-0.1 0,0 0.14,0 0.26,-0.01 0.15,-0.02 0.16,-0.03 0.16,-0.1 0,-0.02 0,-0.05 -0.02,-0.15 z"
   inkscape:connector-curvature="0" />
<path
   id="path2249"
   style="fill:#000000;fill-opacity:1;stroke:#000000;stroke-width:0;stroke-opacity:1"
   d="m 201.68,659.72 -0.01,0.17 -0.01,0.17 -0.02,0.16 -0.03,0.16 -0.04,0.17 -0.04,0.15 -0.05,0.16 -0.06,0.15 -0.07,0.14 -0.07,0.15 -0.08,0.13 -0.09,0.14 -0.09,0.13 -0.1,0.12 -0.11,0.12 -0.11,0.12 -0.11,0.11 -0.12,0.1 -0.13,0.1 -0.13,0.09 -0.13,0.09 -0.14,0.08 -0.15,0.07 -0.14,0.07 -0.15,0.06 -0.16,0.05 -0.16,0.04 -0.16,0.04 -0.16,0.03 -0.16,0.02 -0.17,0.01 -0.17,0.01 0.12,-0.25 h -0.25 v -2.93 -0.25 h 0.25 2.95 c -0.1,-1.7 -1.42,-2.86 -2.95,-2.94 v 2.94 h -0.25 v -2.94 c -1.55,0.08 -2.85,1.24 -2.95,2.94 h 2.95 v 0.25 h -2.95 c 0.1,1.67 1.39,2.85 2.95,2.93 h 0.25 c 1.56,-0.08 2.85,-1.27 2.95,-2.93 h -2.95 v 2.93 l -0.12,0.25 c -1.86,0 -3.33,-1.5 -3.33,-3.31 0,-1.83 1.49,-3.31 3.32,-3.31 1.85,0 3.33,1.5 3.33,3.31 z"
   inkscape:connector-curvature="0" />
<path
   id="path2251"
   style="fill:#000000;fill-opacity:1;stroke:#000000;stroke-width:0;stroke-opacity:1"
   d="m 209.52,661.25 v 0 0 l -0.01,0.01 v 0 0.01 0 0 0.01 h -0.01 v 0.01 0 0.01 l -0.01,0.01 v 0.01 0.01 h -0.01 v 0.01 0 0.01 0 l -0.01,0.01 v 0 0.01 0 0 0.01 0 0 0.01 c 0,0.01 0.18,0.15 0.29,0.23 l 1.74,1.34 c 0.94,0.68 1.33,0.72 1.63,0.75 0.08,0.01 0.18,0.02 0.18,0.2 0,0.04 -0.03,0.11 -0.11,0.11 -0.22,0 -0.47,-0.03 -0.71,-0.03 -0.36,0 -0.75,0.03 -1.11,0.03 -0.07,0 -0.19,0 -0.19,-0.2 0,-0.07 0.05,-0.1 0.12,-0.11 0.22,-0.02 0.31,-0.07 0.31,-0.21 0,-0.18 -0.3,-0.4 -0.36,-0.45 l -3.89,-2.98 0.8,3.19 c 0.09,0.35 0.11,0.45 0.84,0.45 0.25,0 0.34,0 0.34,0.2 0,0.09 -0.08,0.11 -0.14,0.11 -0.28,0 -1,-0.03 -1.28,-0.03 -0.29,0 -1,0.03 -1.28,0.03 -0.07,0 -0.2,0 -0.2,-0.19 0,-0.12 0.09,-0.12 0.29,-0.12 0.13,0 0.3,-0.01 0.42,-0.02 0.16,-0.02 0.22,-0.05 0.22,-0.16 0,-0.04 -0.01,-0.07 -0.04,-0.19 l -1.33,-5.33 c -0.1,-0.39 -0.12,-0.47 -0.91,-0.47 -0.17,0 -0.28,0 -0.28,-0.19 0,-0.12 0.12,-0.12 0.15,-0.12 0.28,0 0.99,0.04 1.27,0.04 0.21,0 0.43,-0.01 0.64,-0.01 0.22,0 0.43,-0.03 0.64,-0.03 0.07,0 0.2,0 0.2,0.2 0,0.11 -0.09,0.11 -0.28,0.11 -0.37,0 -0.65,0 -0.65,0.18 0,0.07 0.06,0.29 0.09,0.44 0.14,0.51 0.27,1.04 0.4,1.56 l 1.49,1.15 1.16,-2.67 c 0.12,-0.27 0.12,-0.29 0.12,-0.35 0,-0.3 -0.43,-0.31 -0.52,-0.31 -0.11,0 -0.22,0 -0.22,-0.2 0,-0.11 0.12,-0.11 0.14,-0.11 0.4,0 0.82,0.04 1.21,0.04 0.22,0 0.76,-0.04 0.98,-0.04 0.05,0 0.18,0 0.18,0.2 0,0.11 -0.11,0.11 -0.2,0.11 -0.41,0.01 -0.54,0.1 -0.69,0.45 z"
   inkscape:connector-curvature="0" />
<path
   id="path2253"
   style="fill:#000000;fill-opacity:1;stroke:#000000;stroke-width:0;stroke-opacity:1"
   d="m 218.8,660.54 v 0 0.01 0 0 0.01 h -0.01 v 0 0.01 0 0.01 0 0 l -0.01,0.01 v 0 0 0.01 0 h -0.01 v 0.01 0 h -0.01 v 0.01 h -0.01 v 0 0 h -0.01 v 0.01 h -0.01 v 0 h -0.01 v 0 0 0 h -0.01 v 0 0 c -0.05,0 -0.07,-0.02 -0.13,-0.08 l -0.51,-0.54 c -0.06,0.08 -0.45,0.62 -1.31,0.62 -1.7,0 -3.37,-1.5 -3.37,-3.07 0,-1.13 0.9,-1.96 2.15,-1.96 0.38,0 1.05,0.08 1.77,0.68 0.55,0.47 0.7,1.07 0.7,1.13 0,0.09 -0.08,0.09 -0.11,0.09 -0.1,0 -0.11,-0.03 -0.13,-0.11 -0.29,-0.95 -1.27,-1.54 -2.11,-1.54 -0.74,0 -1.57,0.4 -1.57,1.5 0,0.2 0.05,1.3 0.86,2.17 0.48,0.54 1.21,0.86 1.88,0.86 0.81,0 1.28,-0.59 1.28,-1.36 0,-0.2 -0.02,-0.25 -0.02,-0.29 0,-0.09 0.09,-0.09 0.13,-0.09 0.11,0 0.11,0.02 0.14,0.15 z"
   inkscape:connector-curvature="0" />
</g>  </g>
  <g
     inkscape:label="Players"
     inkscape:groupmode="layer"
     id="layer1"
     transform="translate(20.44708,-110.20549)"
     style="display:inline">
    <g
       id="g1022"
       transform="translate(0,-0.42460703)">
      <rect
         y="124.39166"
         x="-20.386105"
         height="9.2200174"
         width="9.2200174"
         id="rect5052"
         style="opacity:1;fill:#f0f0f0;fill-opacity:1;stroke:#000000;stroke-width:0.12195123;stroke-miterlimit:4;stroke-dasharray:none;stroke-dashoffset:0;stroke-opacity:1" />
      <text
         id="text5041-4"
         y="132.38712"
         x="-19.194302"
         style="font-style:normal;font-variant:normal;font-weight:normal;font-stretch:normal;font-size:12.67294502px;line-height:125%;font-family:Garamond;-inkscape-font-specification:Garamond;letter-spacing:0px;word-spacing:0px;fill:#000000;fill-opacity:1;stroke:none;stroke-width:0.32266259px;stroke-linecap:butt;stroke-linejoin:miter;stroke-opacity:1"
         xml:space="preserve"><tspan
           style="font-size:10.32520294px;stroke-width:0.32266259px"
           y="132.38712"
           x="-19.194302"
           id="tspan5039-4"
           sodipodi:role="line">A</tspan></text>
    </g>
    <g
       id="g1017">
      <g
         transform="translate(1.403165,-14.125195)"
         id="g1003">
        <g
           id="g968">
          <rect
             y="124.39166"
             x="15.733847"
             height="9.2200174"
             width="9.2200174"
             id="rect5052-6"
             style="opacity:1;fill:#f0f0f0;fill-opacity:1;stroke:#000000;stroke-width:0.12195123;stroke-miterlimit:4;stroke-dasharray:none;stroke-dashoffset:0;stroke-opacity:1" />
          <path
             sodipodi:nodetypes="cccc"
             inkscape:connector-curvature="0"
             id="rect963"
             d="m 15.733847,124.39166 h 9.220017 l -9.220017,9.22002 z"
             style="opacity:1;fill:#f08c8c;fill-opacity:1;stroke:#000000;stroke-width:0.12195123;stroke-miterlimit:4;stroke-dasharray:none;stroke-dashoffset:0;stroke-opacity:1" />
        </g>
        <text
           xml:space="preserve"
           style="font-style:normal;font-variant:normal;font-weight:normal;font-stretch:normal;font-size:12.67294502px;line-height:125%;font-family:Garamond;-inkscape-font-specification:Garamond;letter-spacing:0px;word-spacing:0px;fill:#000000;fill-opacity:1;stroke:none;stroke-width:0.32266259px;stroke-linecap:butt;stroke-linejoin:miter;stroke-opacity:1"
           x="17.384697"
           y="132.31175"
           id="text5041-4-6"><tspan
             sodipodi:role="line"
             id="tspan5039-4-0"
             x="17.384697"
             y="132.31175"
             style="font-size:10.32520294px;stroke-width:0.32266259px">B</tspan></text>
      </g>
      <g
         transform="translate(-36.950013,12.067219)"
         id="g996">
        <g
           id="g989"
           transform="translate(38.353178,1.122532)">
          <rect
             style="opacity:1;fill:#f0f0f0;fill-opacity:1;stroke:#000000;stroke-width:0.12195123;stroke-miterlimit:4;stroke-dasharray:none;stroke-dashoffset:0;stroke-opacity:1"
             id="rect985"
             width="9.2200174"
             height="9.2200174"
             x="15.733847"
             y="124.39166" />
          <path
             style="opacity:1;fill:#f08c8c;fill-opacity:1;stroke:#000000;stroke-width:0.12195123;stroke-miterlimit:4;stroke-dasharray:none;stroke-dashoffset:0;stroke-opacity:1"
             d="m 15.733847,124.39166 h 9.220017 l -9.220017,9.22002 z"
             id="path987"
             inkscape:connector-curvature="0"
             sodipodi:nodetypes="cccc" />
        </g>
        <text
           xml:space="preserve"
           style="font-style:normal;font-variant:normal;font-weight:normal;font-stretch:normal;font-size:12.67294502px;line-height:125%;font-family:Garamond;-inkscape-font-specification:Garamond;letter-spacing:0px;word-spacing:0px;fill:#000000;fill-opacity:1;stroke:none;stroke-width:0.32266259px;stroke-linecap:butt;stroke-linejoin:miter;stroke-opacity:1"
           x="55.412693"
           y="133.40402"
           id="text5041-4-9"><tspan
             sodipodi:role="line"
             id="tspan5039-4-6"
             x="55.412693"
             y="133.40402"
             style="font-size:10.32520294px;stroke-width:0.32266259px">C</tspan></text>
      </g>
    </g>
    <rect
       y="123.96706"
       x="28.40662"
       height="9.2200174"
       width="9.2200174"
       id="rect891"
       style="opacity:1;fill:#f08c8c;fill-opacity:1;stroke:#000000;stroke-width:0.12195123;stroke-miterlimit:4;stroke-dasharray:none;stroke-dashoffset:0;stroke-opacity:1" />
    <text
       id="text895"
       y="131.75328"
       x="29.62615"
       style="font-style:normal;font-variant:normal;font-weight:normal;font-stretch:normal;font-size:12.67294502px;line-height:125%;font-family:Garamond;-inkscape-font-specification:Garamond;letter-spacing:0px;word-spacing:0px;fill:#000000;fill-opacity:1;stroke:none;stroke-width:0.32266259px;stroke-linecap:butt;stroke-linejoin:miter;stroke-opacity:1"
       xml:space="preserve"><tspan
         style="font-size:10.32520294px;stroke-width:0.32266259px"
         y="131.75328"
         x="29.62615"
         id="tspan893"
         sodipodi:role="line">E</tspan></text>
  </g>
</svg>
