<?xml version="1.0" encoding="UTF-8" standalone="no"?>
<!-- Created with Inkscape (http://www.inkscape.org/) -->

<svg
   xmlns:ns0="http://www.iki.fi/pav/software/textext/"
   xmlns:dc="http://purl.org/dc/elements/1.1/"
   xmlns:cc="http://creativecommons.org/ns#"
   xmlns:rdf="http://www.w3.org/1999/02/22-rdf-syntax-ns#"
   xmlns:svg="http://www.w3.org/2000/svg"
   xmlns="http://www.w3.org/2000/svg"
   xmlns:sodipodi="http://sodipodi.sourceforge.net/DTD/sodipodi-0.dtd"
   xmlns:inkscape="http://www.inkscape.org/namespaces/inkscape"
   width="81.802574mm"
   height="52.110535mm"
   viewBox="0 0 65.442059 41.688429"
   version="1.1"
   id="svg951"
   inkscape:version="0.92.4 (5da689c313, 2019-01-14)"
   sodipodi:docname="qss_encryption_stage.svg"
   enable-background="new">
  <defs
     id="defs945">
    <marker
       inkscape:stockid="Arrow1Send"
       orient="auto"
       refY="0.0"
       refX="0.0"
       id="Arrow1Send"
       style="overflow:visible;"
       inkscape:isstock="true">
      <path
         id="path6069"
         d="M 0.0,0.0 L 5.0,-5.0 L -12.5,0.0 L 5.0,5.0 L 0.0,0.0 z "
         style="fill-rule:evenodd;stroke:#000000;stroke-width:1pt;stroke-opacity:1;fill:#000000;fill-opacity:1"
         transform="scale(0.2) rotate(180) translate(6,0)" />
    </marker>
    <marker
       inkscape:isstock="true"
       style="overflow:visible"
       id="marker5614"
       refX="0"
       refY="0"
       orient="auto"
       inkscape:stockid="Arrow2Mend">
      <path
         transform="scale(-0.6)"
         d="M 8.7185878,4.0337352 -2.2072895,0.01601326 8.7185884,-4.0017078 c -1.7454984,2.3720609 -1.7354408,5.6174519 -6e-7,8.035443 z"
         style="fill:#000000;fill-opacity:1;fill-rule:evenodd;stroke:#000000;stroke-width:0.625;stroke-linejoin:round;stroke-opacity:1"
         id="path5612"
         inkscape:connector-curvature="0" />
    </marker>
    <marker
       inkscape:isstock="true"
       style="overflow:visible"
       id="marker5103"
       refX="0"
       refY="0"
       orient="auto"
       inkscape:stockid="Arrow2Mend">
      <path
         transform="scale(-0.6)"
         d="M 8.7185878,4.0337352 -2.2072895,0.01601326 8.7185884,-4.0017078 c -1.7454984,2.3720609 -1.7354408,5.6174519 -6e-7,8.035443 z"
         style="fill:#000000;fill-opacity:1;fill-rule:evenodd;stroke:#000000;stroke-width:0.625;stroke-linejoin:round;stroke-opacity:1"
         id="path5101"
         inkscape:connector-curvature="0" />
    </marker>
    <marker
       inkscape:stockid="Arrow2Mend"
       orient="auto"
       refY="0"
       refX="0"
       id="marker1503"
       style="overflow:visible"
       inkscape:isstock="true">
      <path
         inkscape:connector-curvature="0"
         id="path1501"
         style="fill:#000000;fill-opacity:1;fill-rule:evenodd;stroke:#000000;stroke-width:0.625;stroke-linejoin:round;stroke-opacity:1"
         d="M 8.7185878,4.0337352 -2.2072895,0.01601326 8.7185884,-4.0017078 c -1.7454984,2.3720609 -1.7354408,5.6174519 -6e-7,8.035443 z"
         transform="scale(-0.6)" />
    </marker>
    <marker
       inkscape:isstock="true"
       style="overflow:visible"
       id="marker2547"
       refX="0"
       refY="0"
       orient="auto"
       inkscape:stockid="Arrow2Mend">
      <path
         transform="scale(-0.6)"
         d="M 8.7185878,4.0337352 -2.2072895,0.01601326 8.7185884,-4.0017078 c -1.7454984,2.3720609 -1.7354408,5.6174519 -6e-7,8.035443 z"
         style="fill:#000000;fill-opacity:1;fill-rule:evenodd;stroke:#000000;stroke-width:0.625;stroke-linejoin:round;stroke-opacity:1"
         id="path2545"
         inkscape:connector-curvature="0" />
    </marker>
    <marker
       inkscape:stockid="Arrow2Mend"
       orient="auto"
       refY="0"
       refX="0"
       id="Arrow2Mend-0-1"
       style="overflow:visible"
       inkscape:isstock="true"
       inkscape:collect="always">
      <path
         inkscape:connector-curvature="0"
         id="path4782-7-2"
         style="fill:#000000;fill-opacity:1;fill-rule:evenodd;stroke:#000000;stroke-width:0.625;stroke-linejoin:round;stroke-opacity:1"
         d="M 8.7185878,4.0337352 -2.2072895,0.01601326 8.7185884,-4.0017078 c -1.7454984,2.3720609 -1.7354408,5.6174519 -6e-7,8.035443 z"
         transform="scale(-0.6)" />
    </marker>
    <filter
       inkscape:collect="always"
       style="color-interpolation-filters:sRGB"
       id="filter4062">
      <feBlend
         inkscape:collect="always"
         mode="screen"
         in2="BackgroundImage"
         id="feBlend4064" />
    </filter>
  </defs>
  <sodipodi:namedview
     id="base"
     pagecolor="#ffffff"
     bordercolor="#666666"
     borderopacity="1.0"
     inkscape:pageopacity="0.0"
     inkscape:pageshadow="2"
     inkscape:zoom="2"
     inkscape:cx="28.777296"
     inkscape:cy="142.48494"
     inkscape:document-units="mm"
     inkscape:current-layer="layer1"
     showgrid="false"
     fit-margin-top="0"
     fit-margin-left="0"
     fit-margin-right="0"
     fit-margin-bottom="0"
     inkscape:window-width="1920"
     inkscape:window-height="1013"
     inkscape:window-x="-9"
     inkscape:window-y="-9"
     inkscape:window-maximized="1"
     inkscape:snap-global="false"
     scale-x="0.8">
    <inkscape:grid
       type="xygrid"
       id="grid2913"
       originx="5.6661128"
       originy="-4.0836623" />
  </sodipodi:namedview>
  <metadata
     id="metadata948">
    <rdf:RDF>
      <cc:Work
         rdf:about="">
        <dc:format>image/svg+xml</dc:format>
        <dc:type
           rdf:resource="http://purl.org/dc/dcmitype/StillImage" />
        <dc:title></dc:title>
      </cc:Work>
    </rdf:RDF>
  </metadata>
  <g
     inkscape:groupmode="layer"
     id="layer3"
     inkscape:label="Arrows"
     style="display:inline"
     transform="translate(7.0826418,6.396186)">
    <path
       style="fill:none;stroke:#000000;stroke-width:0.32320002;stroke-linecap:butt;stroke-linejoin:miter;stroke-miterlimit:4;stroke-dasharray:1.29280003, 0.64640002, 0.32320001, 0.64640002;stroke-dashoffset:0;stroke-opacity:1;marker-end:url(#Arrow2Mend-0-1)"
       d="M 2.1352054,3.9791885 38.451517,3.9010763"
       id="path4753-4-5"
       inkscape:connector-curvature="0"
       sodipodi:nodetypes="cc" />
    <path
       sodipodi:nodetypes="cc"
       inkscape:connector-curvature="0"
       id="path5099"
       d="M 2.2848763,7.7583797 38.389521,30.646101"
       style="fill:none;stroke:#000000;stroke-width:0.32320002;stroke-linecap:butt;stroke-linejoin:miter;stroke-miterlimit:4;stroke-dasharray:1.29280003, 0.64640002, 0.32320001, 0.64640002;stroke-dashoffset:0;stroke-opacity:1;marker-end:url(#marker5103)" />
    <path
       sodipodi:nodetypes="cc"
       inkscape:connector-curvature="0"
       id="path5610"
       d="m -5.8615291,21.807571 v 3.386667"
       style="fill:none;stroke:#000000;stroke-width:0.32320002;stroke-linecap:butt;stroke-linejoin:miter;stroke-miterlimit:4;stroke-dasharray:none;stroke-dashoffset:0;stroke-opacity:1;marker-end:url(#Arrow1Send)" />
  </g>
  <g
     inkscape:groupmode="layer"
     id="layer2"
     inkscape:label="Text"
     style="opacity:1"
     transform="translate(7.9867539e-7,14.71735)">
    <g
       style="stroke:#000000;stroke-opacity:1;fill-opacity:1"
       ns0:jacobian_sqrt="0.3"
       inkscapeversion="0.92.4"
       ns0:alignment="middle center"
       ns0:scale="0.225000000001"
       ns0:preamble="C:\\Users\\MatthewThornton\\AppData\\Roaming\\inkscape\\extensions\\textext\\default_packages.tex"
       ns0:text="QSS: encryption stage"
       ns0:pdfconverter="pstoedit"
       ns0:texconverter="pdflatex"
       ns0:version="0.10.2"
       text-anchor="start"
       word-spacing="normal"
       letter-spacing="normal"
       font-size-adjust="none"
       font-stretch="normal"
       font-weight="normal"
       font-variant="normal"
       font-style="normal"
       fill-opacity="1"
       fill-rule="evenodd"
       fill="none"
       stroke-opacity="1"
       stroke-dashoffset="0"
       stroke-dasharray="none"
       stroke-miterlimit="10.433"
       stroke-linejoin="miter"
       stroke-linecap="butt"
       stroke="black"
       xml:space="preserve"
       transform="matrix(0.300000,0.000000,0.000000,-0.300000,-26.432968,184.554650)"
       id="g3956">
<path
   id="path3914"
   style="stroke:#000000;stroke-opacity:1;fill-opacity:1"
   fill="black"
   stroke-width="0"
   d="M153.88,657.3 L153.99,657.36 L154.09,657.41 L154.2,657.47 L154.3,657.54 L154.4,657.6 L154.5,657.68 L154.6,657.75 L154.69,657.83 L154.78,657.91 L154.87,658 L154.95,658.09 L155.04,658.18 L155.11,658.28 L155.19,658.38 L155.26,658.48 L155.33,658.59 L155.4,658.7 L155.46,658.81 L155.52,658.92 L155.57,659.04 L155.62,659.16 L155.67,659.28 L155.71,659.4 L155.75,659.53 L155.79,659.66 L155.82,659.79 L155.84,659.92 L155.86,660.05 L155.88,660.19 L155.89,660.32 L155.9,660.46 L155.9,660.6 C155.9,662.63,154.4,664.24,152.58,664.24 V663.99 C153.55,663.99,154.9,663.14,154.9,660.6 C154.9,659.83,154.79,658.43,153.73,657.65 C153.51,658.21,153.19,658.71,152.6,658.71 V658.49 C153.14,658.49,153.36,658.07,153.47,657.49 H153.47 C153.13,657.3,152.81,657.27,152.59,657.27 C152.08,657.27,152,657.72,152,657.87 C152,658.16,152.21,658.49,152.6,658.49 V658.71 C152.09,658.71,151.78,658.28,151.78,657.87 C151.78,657.6,151.91,657.41,151.92,657.39 H151.92 C151.38,657.59,150.27,658.32,150.27,660.6 C150.27,663.18,151.66,663.99,152.58,663.99 V664.24 C150.8,664.24,149.27,662.65,149.27,660.6 C149.27,658.6,150.78,657.02,152.59,657.02 C152.9,657.02,153.25,657.08,153.54,657.16 C153.69,656.22,153.83,655.31,154.76,655.31 C155.77,655.31,155.96,656.63,155.96,657.14 C155.96,657.23,155.96,657.34,155.85,657.34 C155.76,657.34,155.75,657.27,155.74,657.16 C155.68,656.63,155.26,656.33,154.84,656.33 C154.37,656.33,154.12,656.67,153.88,657.3 Z " />
<path
   id="path3916"
   style="stroke:#000000;stroke-opacity:1;fill-opacity:1"
   fill="black"
   stroke-width="0"
   d="M159.94,661.09 L158.66,661.4 C158.05,661.55,157.66,662.08,157.66,662.66 C157.66,663.35,158.2,663.96,158.97,663.96 C160.64,663.96,160.86,662.33,160.92,661.88 C160.93,661.82,160.93,661.77,161.04,661.77 C161.17,661.77,161.17,661.82,161.17,662 V664 C161.17,664.17,161.17,664.24,161.06,664.24 C160.99,664.24,160.98,664.23,160.91,664.11 L160.56,663.54 C160.26,663.83,159.85,664.24,158.96,664.24 C157.86,664.24,157.02,663.36,157.02,662.31 C157.02,661.49,157.55,660.76,158.33,660.49 C158.43,660.45,158.94,660.33,159.64,660.16 C159.91,660.1,160.21,660.03,160.49,659.66 C160.7,659.4,160.8,659.07,160.8,658.74 C160.8,658.04,160.3,657.32,159.46,657.32 C159.17,657.32,158.41,657.37,157.89,657.86 C157.31,658.4,157.28,659.03,157.27,659.39 C157.26,659.49,157.18,659.49,157.15,659.49 C157.02,659.49,157.02,659.42,157.02,659.24 V657.26 C157.02,657.09,157.02,657.02,157.13,657.02 C157.2,657.02,157.21,657.04,157.28,657.15 C157.28,657.16,157.31,657.18,157.64,657.71 C157.95,657.37,158.59,657.02,159.47,657.02 C160.64,657.02,161.44,657.99,161.44,659.08 C161.44,660.08,160.78,660.89,159.94,661.09 Z " />
<path
   id="path3918"
   style="stroke:#000000;stroke-opacity:1;fill-opacity:1"
   fill="black"
   stroke-width="0"
   d="M165.48,661.09 L164.2,661.4 C163.58,661.55,163.19,662.08,163.19,662.66 C163.19,663.35,163.73,663.96,164.51,663.96 C166.17,663.96,166.39,662.33,166.45,661.88 C166.46,661.82,166.46,661.77,166.57,661.77 C166.7,661.77,166.7,661.82,166.7,662 V664 C166.7,664.17,166.7,664.24,166.59,664.24 C166.52,664.24,166.51,664.23,166.44,664.11 L166.1,663.54 C165.79,663.83,165.39,664.24,164.5,664.24 C163.39,664.24,162.55,663.36,162.55,662.31 C162.55,661.49,163.08,660.76,163.86,660.49 C163.97,660.45,164.48,660.33,165.18,660.16 C165.45,660.1,165.75,660.03,166.02,659.66 C166.23,659.4,166.33,659.07,166.33,658.74 C166.33,658.04,165.84,657.32,165,657.32 C164.71,657.32,163.95,657.37,163.42,657.86 C162.84,658.4,162.81,659.03,162.8,659.39 C162.79,659.49,162.71,659.49,162.68,659.49 C162.55,659.49,162.55,659.42,162.55,659.24 V657.26 C162.55,657.09,162.55,657.02,162.66,657.02 C162.73,657.02,162.74,657.04,162.81,657.15 C162.81,657.16,162.84,657.18,163.17,657.71 C163.48,657.37,164.12,657.02,165.01,657.02 C166.17,657.02,166.97,657.99,166.97,659.08 C166.97,660.08,166.31,660.89,165.48,661.09 Z " />
<path
   id="path3920"
   style="stroke:#000000;stroke-opacity:1;fill-opacity:1"
   fill="black"
   stroke-width="0"
   d="M169.45,660.99 L169.45,661.02 L169.44,661.04 L169.44,661.07 L169.44,661.1 L169.43,661.12 L169.42,661.15 L169.41,661.17 L169.4,661.19 L169.39,661.22 L169.38,661.24 L169.37,661.26 L169.36,661.28 L169.34,661.3 L169.32,661.32 L169.31,661.34 L169.29,661.36 L169.27,661.38 L169.25,661.4 L169.23,661.41 L169.21,661.43 L169.19,661.44 L169.17,661.45 L169.15,661.46 L169.12,661.47 L169.1,661.48 L169.07,661.49 L169.05,661.5 L169.02,661.51 L169,661.51 L168.97,661.51 L168.94,661.52 L168.92,661.52 C168.63,661.52,168.39,661.28,168.39,660.99 C168.39,660.7,168.63,660.46,168.92,660.46 C169.21,660.46,169.45,660.7,169.45,660.99 Z " />
<path
   id="path3922"
   style="stroke:#000000;stroke-opacity:1;fill-opacity:1"
   fill="black"
   stroke-width="0"
   d="M169.45,657.76 L169.45,657.79 L169.44,657.82 L169.44,657.84 L169.44,657.87 L169.43,657.89 L169.42,657.92 L169.41,657.94 L169.4,657.97 L169.39,657.99 L169.38,658.01 L169.37,658.03 L169.36,658.06 L169.34,658.08 L169.32,658.1 L169.31,658.11 L169.29,658.13 L169.27,658.15 L169.25,658.17 L169.23,658.18 L169.21,658.2 L169.19,658.21 L169.17,658.22 L169.15,658.24 L169.12,658.25 L169.1,658.26 L169.07,658.26 L169.05,658.27 L169.02,658.28 L169,658.28 L168.97,658.29 L168.94,658.29 L168.92,658.29 C168.63,658.29,168.39,658.05,168.39,657.76 C168.39,657.47,168.63,657.23,168.92,657.23 C169.21,657.23,169.45,657.47,169.45,657.76 Z " />
<path
   id="path3924"
   style="stroke:#000000;stroke-opacity:1;fill-opacity:1"
   fill="black"
   stroke-width="0"
   d="M174.72,659.53 L174.73,659.74 C174.79,661.22,175.63,661.47,175.97,661.47 C177,661.47,177.1,660.13,177.1,659.74 H174.73 L174.72,659.53 H177.51 C177.73,659.53,177.76,659.53,177.76,659.74 C177.76,660.72,177.22,661.68,175.97,661.68 C174.81,661.68,173.9,660.66,173.9,659.42 C173.9,658.09,174.94,657.13,176.09,657.13 C177.31,657.13,177.76,658.23,177.76,658.42 C177.76,658.52,177.68,658.54,177.63,658.54 C177.54,658.54,177.52,658.48,177.5,658.4 C177.15,657.37,176.25,657.37,176.15,657.37 C175.65,657.37,175.25,657.67,175.02,658.04 C174.72,658.52,174.72,659.17,174.72,659.53 Z " />
<path
   id="path3926"
   style="stroke:#000000;stroke-opacity:1;fill-opacity:1"
   fill="black"
   stroke-width="0"
   d="M179.14,660.65 V657.99 C179.14,657.54,179.03,657.54,178.36,657.54 V657.23 C178.71,657.24,179.22,657.27,179.49,657.27 C179.75,657.27,180.27,657.24,180.61,657.23 V657.54 C179.94,657.54,179.83,657.54,179.83,657.99 V659.82 C179.83,660.85,180.54,661.41,181.18,661.41 C181.8,661.41,181.91,660.87,181.91,660.3 V657.99 C181.91,657.54,181.8,657.54,181.13,657.54 V657.23 C181.48,657.24,181.99,657.27,182.26,657.27 C182.52,657.27,183.04,657.24,183.38,657.23 V657.54 C182.86,657.54,182.61,657.54,182.6,657.84 V659.74 C182.6,660.59,182.6,660.9,182.29,661.26 C182.15,661.43,181.82,661.63,181.24,661.63 C180.52,661.63,180.05,661.2,179.77,660.58 V661.63 L178.36,661.52 V661.21 C179.06,661.21,179.14,661.14,179.14,660.65 Z " />
<path
   id="path3928"
   style="stroke:#000000;stroke-opacity:1;fill-opacity:1"
   fill="black"
   stroke-width="0"
   d="M184.75,659.4 L184.75,659.48 L184.75,659.55 L184.75,659.62 L184.76,659.69 L184.76,659.76 L184.77,659.83 L184.77,659.89 L184.78,659.95 L184.79,660.01 L184.8,660.07 L184.81,660.13 L184.82,660.19 L184.85,660.3 L184.88,660.4 L184.92,660.5 L184.95,660.59 L184.99,660.68 L185.03,660.76 L185.08,660.83 L185.12,660.9 L185.17,660.97 L185.22,661.03 L185.27,661.08 L185.33,661.13 L185.38,661.18 L185.43,661.22 L185.49,661.26 L185.55,661.29 L185.6,661.32 L185.66,661.35 L185.72,661.37 L185.77,661.39 L185.83,661.4 L185.88,661.42 L185.94,661.43 L185.99,661.43 L186.04,661.44 L186.09,661.44 C186.18,661.44,186.81,661.43,187.16,661.07 C186.75,661.04,186.69,660.74,186.69,660.61 C186.69,660.35,186.87,660.16,187.15,660.16 C187.41,660.16,187.61,660.32,187.61,660.62 C187.61,661.3,186.85,661.68,186.08,661.68 C184.84,661.68,183.92,660.61,183.92,659.38 C183.92,658.11,184.9,657.13,186.06,657.13 C187.4,657.13,187.72,658.32,187.72,658.42 C187.72,658.52,187.62,658.52,187.59,658.52 C187.5,658.52,187.48,658.48,187.46,658.42 C187.17,657.49,186.52,657.37,186.15,657.37 C185.62,657.37,184.75,657.8,184.75,659.4 Z " />
<path
   id="path3930"
   style="stroke:#000000;stroke-opacity:1;fill-opacity:1"
   fill="black"
   stroke-width="0"
   d="M189.67,660.53 V661.63 L188.29,661.52 V661.21 C188.98,661.21,189.06,661.14,189.06,660.65 V657.99 C189.06,657.54,188.95,657.54,188.29,657.54 V657.23 C188.68,657.24,189.14,657.27,189.42,657.27 C189.82,657.27,190.29,657.27,190.69,657.23 V657.54 H190.48 C189.74,657.54,189.72,657.65,189.72,658.01 V659.54 C189.72,660.52,190.14,661.41,190.9,661.41 C190.97,661.41,190.99,661.41,191.01,661.4 C190.98,661.39,190.78,661.27,190.78,661.01 C190.78,660.73,190.99,660.58,191.21,660.58 C191.39,660.58,191.64,660.7,191.64,661.02 C191.64,661.34,191.33,661.63,190.9,661.63 C190.17,661.63,189.81,660.96,189.67,660.53 Z " />
<path
   id="path3932"
   style="stroke:#000000;stroke-opacity:1;fill-opacity:1"
   fill="black"
   stroke-width="0"
   d="M196.05,660.57 L196.06,660.6 L196.07,660.63 L196.09,660.66 L196.1,660.68 L196.11,660.71 L196.13,660.73 L196.14,660.76 L196.15,660.78 L196.18,660.82 L196.22,660.86 L196.25,660.9 L196.28,660.94 L196.31,660.97 L196.34,661 L196.38,661.02 L196.41,661.05 L196.45,661.07 L196.48,661.09 L196.51,661.11 L196.55,661.13 L196.58,661.14 L196.61,661.15 L196.65,661.16 L196.68,661.17 L196.71,661.18 L196.74,661.19 L196.77,661.19 L196.8,661.2 L196.83,661.2 L196.85,661.2 L196.88,661.21 L196.9,661.21 L196.92,661.21 L196.94,661.21 L196.96,661.21 L196.98,661.21 V661.52 C196.74,661.5,196.46,661.49,196.23,661.49 C196.05,661.49,195.58,661.51,195.36,661.52 V661.21 C195.67,661.2,195.83,661.03,195.83,660.78 C195.83,660.68,195.82,660.66,195.77,660.54 L194.76,658.1 L193.65,660.77 C193.61,660.87,193.59,660.91,193.59,660.95 C193.59,661.21,193.96,661.21,194.15,661.21 V661.52 C193.89,661.51,193.24,661.49,193.07,661.49 C192.8,661.49,192.4,661.5,192.1,661.52 V661.21 C192.58,661.21,192.77,661.21,192.91,660.86 L194.4,657.23 C194.35,657.11,194.21,656.78,194.15,656.65 C193.93,656.1,193.65,655.42,193.02,655.42 C192.97,655.42,192.74,655.42,192.55,655.6 C192.86,655.64,192.94,655.85,192.94,656.01 C192.94,656.27,192.75,656.43,192.52,656.43 C192.32,656.43,192.1,656.3,192.1,656 C192.1,655.56,192.52,655.2,193.02,655.2 C193.64,655.2,194.05,655.77,194.29,656.33 Z " />
<path
   id="path3934"
   style="stroke:#000000;stroke-opacity:1;fill-opacity:1"
   fill="black"
   stroke-width="0"
   d="M198.88,660.97 V661.63 L197.45,661.52 V661.21 C198.15,661.21,198.22,661.15,198.22,660.71 V656.06 C198.22,655.62,198.11,655.62,197.45,655.62 V655.31 C197.79,655.32,198.3,655.34,198.56,655.34 C198.83,655.34,199.34,655.32,199.69,655.31 V655.62 C199.02,655.62,198.91,655.62,198.91,656.06 V657.73 V657.82 L199.05,657.95 C198.91,658.16,198.91,658.17,198.91,658.37 H198.91 V660.58 C199.2,661.09,199.69,661.38,200.2,661.38 C200.93,661.38,201.54,660.5,201.54,659.38 C201.54,658.18,200.84,657.34,200.1,657.34 C199.7,657.34,199.32,657.54,199.05,657.95 L198.91,657.82 C198.96,657.66,199.38,657.13,200.14,657.13 C201.32,657.13,202.36,658.1,202.36,659.38 C202.36,660.64,201.4,661.63,200.28,661.63 C199.5,661.63,199.08,661.19,198.88,660.97 Z " />
<path
   id="path3936"
   style="stroke:#000000;stroke-opacity:1;fill-opacity:1"
   fill="black"
   stroke-width="0"
   d="M204.43,661.21 H205.85 V661.52 H204.43 V663.34 H204.18 C204.17,662.53,203.87,661.47,202.89,661.43 V661.21 H203.74 V658.47 C203.74,657.24,204.67,657.13,205.03,657.13 C205.73,657.13,206.01,657.83,206.01,658.47 V659.03 H205.76 V658.49 C205.76,657.75,205.46,657.37,205.1,657.37 C204.43,657.37,204.43,658.28,204.43,658.45 Z " />
<path
   id="path3938"
   style="stroke:#000000;stroke-opacity:1;fill-opacity:1"
   fill="black"
   stroke-width="0"
   d="M208.34,661.63 L206.95,661.52 V661.21 C207.59,661.21,207.68,661.15,207.68,660.66 V657.99 C207.68,657.54,207.57,657.54,206.91,657.54 V657.23 C207.23,657.24,207.76,657.27,208,657.27 C208.35,657.27,208.7,657.24,209.04,657.23 V657.54 C208.38,657.54,208.34,657.59,208.34,657.98 Z " />
<path
   id="path3940"
   style="stroke:#000000;stroke-opacity:1;fill-opacity:1"
   fill="black"
   stroke-width="0"
   d="M208.38,663.35 L208.38,663.38 L208.38,663.41 L208.38,663.44 L208.37,663.47 L208.36,663.49 L208.36,663.52 L208.35,663.55 L208.34,663.57 L208.33,663.59 L208.32,663.62 L208.3,663.64 L208.29,663.66 L208.27,663.68 L208.26,663.7 L208.24,663.72 L208.22,663.74 L208.2,663.75 L208.18,663.77 L208.16,663.78 L208.14,663.8 L208.12,663.81 L208.1,663.82 L208.08,663.83 L208.05,663.84 L208.03,663.85 L208.01,663.86 L207.98,663.87 L207.96,663.87 L207.93,663.88 L207.9,663.88 L207.88,663.88 L207.85,663.88 C207.54,663.88,207.32,663.61,207.32,663.35 C207.32,663.09,207.54,662.83,207.85,662.83 C208.13,662.83,208.38,663.04,208.38,663.35 Z " />
<path
   id="path3942"
   style="stroke:#000000;stroke-opacity:1;fill-opacity:1"
   fill="black"
   stroke-width="0"
   d="M214.04,659.36 L214.04,659.48 L214.03,659.6 L214.02,659.71 L214,659.83 L213.97,659.94 L213.94,660.05 L213.91,660.16 L213.87,660.26 L213.82,660.36 L213.77,660.46 L213.72,660.56 L213.66,660.65 L213.6,660.75 L213.53,660.83 L213.46,660.92 L213.39,661 L213.31,661.08 L213.23,661.15 L213.15,661.22 L213.06,661.28 L212.98,661.35 L212.88,661.4 L212.79,661.45 L212.69,661.5 L212.59,661.54 L212.49,661.58 L212.38,661.61 L212.28,661.64 L212.17,661.66 L212.06,661.67 L211.95,661.68 L211.84,661.68 L211.83,661.47 C212.27,661.47,212.7,661.25,212.95,660.82 C213.21,660.39,213.21,659.82,213.21,659.44 C213.21,659.08,213.21,658.55,212.99,658.11 C212.77,657.66,212.34,657.37,211.84,657.37 H211.84 C211.41,657.37,210.97,657.58,210.7,658.04 C210.45,658.48,210.45,659.08,210.45,659.44 C210.45,659.83,210.45,660.36,210.69,660.8 C210.96,661.26,211.43,661.47,211.83,661.47 L211.84,661.68 C210.59,661.68,209.62,660.6,209.62,659.36 C209.62,658.08,210.66,657.13,211.83,657.13 C213.03,657.13,214.04,658.1,214.04,659.36 Z " />
<path
   id="path3944"
   style="stroke:#000000;stroke-opacity:1;fill-opacity:1"
   fill="black"
   stroke-width="0"
   d="M215.42,660.65 V657.99 C215.42,657.54,215.31,657.54,214.65,657.54 V657.23 C214.99,657.24,215.5,657.27,215.77,657.27 C216.03,657.27,216.55,657.24,216.89,657.23 V657.54 C216.22,657.54,216.11,657.54,216.11,657.99 V659.82 C216.11,660.85,216.82,661.41,217.46,661.41 C218.09,661.41,218.2,660.87,218.2,660.3 V657.99 C218.2,657.54,218.09,657.54,217.42,657.54 V657.23 C217.77,657.24,218.27,657.27,218.54,657.27 C218.8,657.27,219.32,657.24,219.66,657.23 V657.54 C219.14,657.54,218.89,657.54,218.88,657.84 V659.74 C218.88,660.59,218.88,660.9,218.57,661.26 C218.43,661.43,218.1,661.63,217.53,661.63 C216.8,661.63,216.33,661.2,216.05,660.58 V661.63 L214.65,661.52 V661.21 C215.34,661.21,215.42,661.14,215.42,660.65 Z " />
<path
   id="path3946"
   style="stroke:#000000;stroke-opacity:1;fill-opacity:1"
   fill="black"
   stroke-width="0"
   d="M225.25,659.16 L225.27,659.16 L225.3,659.15 L225.33,659.15 L225.36,659.14 L225.39,659.13 L225.43,659.12 L225.47,659.11 L225.51,659.1 L225.55,659.09 L225.59,659.08 L225.63,659.06 L225.68,659.04 L225.72,659.03 L225.77,659 L225.81,658.98 L225.85,658.96 L225.9,658.93 L225.94,658.9 L225.98,658.87 L226.02,658.84 L226.06,658.81 L226.09,658.77 L226.13,658.73 L226.16,658.69 L226.19,658.64 L226.2,658.62 L226.21,658.59 L226.22,658.57 L226.24,658.54 L226.25,658.52 L226.25,658.49 L226.26,658.46 L226.27,658.44 L226.28,658.41 L226.28,658.38 L226.28,658.35 L226.29,658.31 L226.29,658.28 L226.29,658.25 C226.29,657.74,225.94,657.34,225.16,657.34 C224.32,657.34,223.97,657.91,223.78,658.76 C223.75,658.88,223.74,658.92,223.64,658.92 C223.51,658.92,223.51,658.85,223.51,658.67 V657.36 C223.51,657.2,223.51,657.13,223.62,657.13 C223.67,657.13,223.68,657.14,223.87,657.32 C223.89,657.34,223.89,657.36,224.07,657.55 C224.51,657.14,224.95,657.13,225.16,657.13 C226.31,657.13,226.77,657.79,226.77,658.51 C226.77,659.03,226.47,659.33,226.35,659.45 C226.02,659.77,225.63,659.85,225.21,659.93 C224.65,660.04,223.99,660.16,223.99,660.74 C223.99,661.09,224.24,661.5,225.1,661.5 C226.2,661.5,226.25,660.6,226.27,660.29 C226.28,660.21,226.37,660.21,226.39,660.21 C226.52,660.21,226.52,660.26,226.52,660.44 V661.45 C226.52,661.62,226.52,661.68,226.41,661.68 C226.36,661.68,226.34,661.68,226.21,661.57 C226.18,661.53,226.08,661.44,226.04,661.41 C225.66,661.68,225.25,661.68,225.1,661.68 C223.89,661.68,223.51,661.02,223.51,660.46 C223.51,660.12,223.67,659.84,223.94,659.62 C224.26,659.36,224.53,659.3,225.25,659.16 Z " />
<path
   id="path3948"
   style="stroke:#000000;stroke-opacity:1;fill-opacity:1"
   fill="black"
   stroke-width="0"
   d="M228.84,661.21 H230.27 V661.52 H228.84 V663.34 H228.59 C228.58,662.53,228.28,661.47,227.31,661.43 V661.21 H228.15 V658.47 C228.15,657.24,229.08,657.13,229.44,657.13 C230.15,657.13,230.43,657.83,230.43,658.47 V659.03 H230.18 V658.49 C230.18,657.75,229.88,657.37,229.51,657.37 C228.84,657.37,228.84,658.28,228.84,658.45 Z " />
<path
   id="path3950"
   style="stroke:#000000;stroke-opacity:1;fill-opacity:1"
   fill="black"
   stroke-width="0"
   d="M234.31,657.99 L234.32,657.95 L234.32,657.92 L234.33,657.88 L234.34,657.84 L234.35,657.8 L234.36,657.77 L234.37,657.73 L234.39,657.7 L234.4,657.66 L234.42,657.63 L234.43,657.59 L234.45,657.56 L234.47,657.53 L234.49,657.49 L234.52,657.46 L234.54,657.43 L234.57,657.41 L234.59,657.38 L234.62,657.35 L234.65,657.33 L234.68,657.31 L234.71,657.28 L234.74,657.26 L234.78,657.25 L234.81,657.23 L234.85,657.22 L234.89,657.2 L234.92,657.19 L234.96,657.19 L235,657.18 L235.05,657.18 L235.09,657.17 C235.3,657.17,235.91,657.31,235.91,658.12 V658.67 H235.66 V658.12 C235.66,657.54,235.41,657.48,235.3,657.48 C234.97,657.48,234.93,657.93,234.93,657.98 V659.97 C234.93,660.38,234.93,660.77,234.57,661.14 C234.18,661.53,233.68,661.68,233.21,661.68 C232.39,661.68,231.7,661.22,231.7,660.56 C231.7,660.27,231.9,660.1,232.16,660.1 C232.44,660.1,232.62,660.29,232.62,660.55 C232.62,660.67,232.57,661,232.11,661.01 C232.38,661.36,232.87,661.47,233.19,661.47 C233.67,661.47,234.24,661.08,234.24,660.2 V659.83 V659.62 V658.63 C234.24,657.68,233.52,657.34,233.08,657.34 C232.59,657.34,232.18,657.69,232.18,658.19 C232.18,658.73,232.6,659.56,234.24,659.62 H234.24 V659.83 C233.73,659.8,233.04,659.77,232.41,659.47 C231.66,659.13,231.41,658.62,231.41,658.18 C231.41,657.37,232.38,657.13,233.01,657.13 C233.66,657.13,234.12,657.52,234.31,657.99 Z " />
<path
   id="path3952"
   style="stroke:#000000;stroke-opacity:1;fill-opacity:1"
   fill="black"
   stroke-width="0"
   d="M237.03,658.56 L237.03,658.56 L237.03,658.57 L237.03,658.57 L237.03,658.58 L237.03,658.59 L237.03,658.6 L237.03,658.61 L237.03,658.62 L237.03,658.63 L237.04,658.64 L237.04,658.66 L237.04,658.67 L237.04,658.68 L237.04,658.7 L237.05,658.71 L237.05,658.73 L237.06,658.75 L237.06,658.76 L237.07,658.78 L237.07,658.8 L237.08,658.82 L237.09,658.83 L237.09,658.85 L237.1,658.87 L237.11,658.89 L237.12,658.91 L237.13,658.93 L237.14,658.95 L237.16,658.97 L237.17,658.99 L237.18,659 L237.2,659.02 C237.59,658.74,238,658.72,238.19,658.72 V658.94 C237.32,658.94,237.32,659.94,237.32,660.16 C237.32,660.43,237.33,660.75,237.48,661 C237.56,661.12,237.79,661.4,238.19,661.4 C239.05,661.4,239.05,660.4,239.05,660.17 C239.05,659.91,239.04,659.59,238.9,659.34 C238.82,659.22,238.59,658.94,238.19,658.94 H238.19 V658.72 C239.11,658.72,239.8,659.4,239.8,660.16 C239.8,660.53,239.64,660.9,239.39,661.13 C239.75,661.47,240.11,661.52,240.29,661.52 C240.31,661.52,240.36,661.52,240.39,661.51 C240.28,661.47,240.23,661.36,240.23,661.24 C240.23,661.07,240.36,660.95,240.52,660.95 C240.62,660.95,240.81,661.02,240.81,661.25 C240.81,661.42,240.69,661.73,240.3,661.73 C240.1,661.73,239.66,661.67,239.24,661.27 C238.82,661.6,238.41,661.63,238.19,661.63 C237.26,661.63,236.57,660.94,236.57,660.17 C236.57,659.74,236.79,659.36,237.04,659.15 C236.91,659,236.73,658.67,236.73,658.33 C236.73,658.02,236.86,657.64,237.17,657.44 C236.57,657.28,236.25,656.85,236.25,656.45 C236.25,655.73,237.24,655.19,238.46,655.19 L238.47,655.42 C237.46,655.42,236.77,655.92,236.77,656.45 C236.77,656.91,237.15,657.28,237.59,657.3 H238.18 C239.04,657.3,240.15,657.3,240.15,656.45 C240.15,655.91,239.44,655.42,238.47,655.42 H238.47 L238.46,655.19 C239.63,655.19,240.67,655.7,240.67,656.47 C240.67,656.82,240.53,657.32,240.02,657.6 C239.49,657.88,238.91,657.88,238.31,657.88 C238.06,657.88,237.63,657.88,237.56,657.89 C237.24,657.93,237.03,658.24,237.03,658.56 Z " />
<path
   id="path3954"
   style="stroke:#000000;stroke-opacity:1;fill-opacity:1"
   fill="black"
   stroke-width="0"
   d="M242.06,659.53 L242.07,659.74 C242.13,661.22,242.97,661.47,243.31,661.47 C244.34,661.47,244.43,660.13,244.43,659.74 H242.07 L242.06,659.53 H244.84 C245.06,659.53,245.09,659.53,245.09,659.74 C245.09,660.72,244.55,661.68,243.31,661.68 C242.15,661.68,241.23,660.66,241.23,659.42 C241.23,658.09,242.28,657.13,243.43,657.13 C244.64,657.13,245.09,658.23,245.09,658.42 C245.09,658.52,245.01,658.54,244.96,658.54 C244.87,658.54,244.85,658.48,244.83,658.4 C244.49,657.37,243.59,657.37,243.49,657.37 C242.99,657.37,242.59,657.67,242.36,658.04 C242.06,658.52,242.06,659.17,242.06,659.53 Z " />
</g>    <g
       style="font-style:normal;font-variant:normal;font-weight:normal;font-stretch:normal;letter-spacing:normal;word-spacing:normal;text-anchor:start;fill:none;fill-opacity:1;fill-rule:evenodd;stroke:#000000;stroke-linecap:butt;stroke-linejoin:miter;stroke-miterlimit:10.43299961;stroke-dasharray:none;stroke-dashoffset:0;stroke-opacity:1"
       ns0:jacobian_sqrt="0.3"
       inkscapeversion="0.92.4"
       ns0:alignment="middle center"
       ns0:scale="0.225000000001"
       ns0:preamble="C:\\Users\\MatthewThornton\\AppData\\Roaming\\inkscape\\extensions\\textext\\default_packages.tex"
       ns0:text="$X_A = \\mathcal{F}\\left(A_B, A_C\\right)$"
       ns0:pdfconverter="pstoedit"
       ns0:texconverter="pdflatex"
       ns0:version="0.10.2"
       word-spacing="normal"
       letter-spacing="normal"
       font-size-adjust="none"
       font-stretch="normal"
       font-weight="normal"
       font-variant="normal"
       font-style="normal"
       stroke-miterlimit="10.433"
       xml:space="preserve"
       transform="matrix(0.3,0,0,-0.3,-44.666639,210.45372)"
       id="content">











<g
   id="g6972"
   transform="translate(0.35277779,1.5875)"><path
     inkscape:connector-curvature="0"
     d="m 153.55,661.32 -0.84,1.97 c -0.03,0.08 -0.05,0.12 -0.05,0.13 0,0.06 0.17,0.25 0.59,0.29 0.1,0.01 0.2,0.02 0.2,0.19 0,0.12 -0.12,0.12 -0.15,0.12 -0.41,0 -0.84,-0.03 -1.26,-0.03 -0.25,0 -0.86,0.03 -1.11,0.03 -0.06,0 -0.18,0 -0.18,-0.2 0,-0.11 0.1,-0.11 0.23,-0.11 0.59,0 0.65,-0.1 0.74,-0.32 l 1.18,-2.77 -2.1,-2.25 -0.13,-0.11 c -0.49,-0.53 -0.96,-0.69 -1.47,-0.72 -0.13,-0.01 -0.22,-0.01 -0.22,-0.2 0,-0.01 0,-0.11 0.13,-0.11 0.3,0 0.63,0.04 0.94,0.04 0.37,0 0.76,-0.04 1.11,-0.04 0.07,0 0.19,0 0.19,0.2 0,0.1 -0.11,0.11 -0.12,0.11 -0.1,0.01 -0.4,0.03 -0.4,0.31 0,0.16 0.15,0.32 0.27,0.45 l 1.01,1.07 0.9,0.97 1.01,-2.37 c 0.04,-0.11 0.05,-0.12 0.05,-0.14 0,-0.08 -0.19,-0.25 -0.58,-0.29 -0.11,-0.01 -0.2,-0.02 -0.2,-0.19 0,-0.12 0.11,-0.12 0.15,-0.12 0.28,0 0.98,0.04 1.26,0.04 0.25,0 0.85,-0.04 1.1,-0.04 0.07,0 0.19,0 0.19,0.19 0,0.12 -0.1,0.12 -0.18,0.12 -0.67,0.01 -0.69,0.04 -0.86,0.44 -0.38,0.92 -1.05,2.47 -1.28,3.07 0.68,0.69 1.72,1.88 2.04,2.16 0.29,0.23 0.67,0.47 1.27,0.5 0.13,0.01 0.22,0.01 0.22,0.2 0,0.01 0,0.11 -0.13,0.11 -0.3,0 -0.63,-0.03 -0.94,-0.03 -0.37,0 -0.75,0.03 -1.11,0.03 -0.06,0 -0.18,0 -0.18,-0.2 0,-0.07 0.04,-0.1 0.11,-0.11 0.09,-0.01 0.4,-0.03 0.4,-0.31 0,-0.13 -0.11,-0.26 -0.19,-0.35 z"
     style="fill:#000000;fill-opacity:1;stroke:#000000;stroke-width:0;stroke-opacity:1"
     id="path4415" /><path
     inkscape:connector-curvature="0"
     d="m 158.41,656.58 -0.03,-0.04 -0.02,-0.03 -0.02,-0.04 -0.02,-0.03 -0.03,-0.03 -0.02,-0.03 -0.02,-0.02 -0.03,-0.03 -0.02,-0.03 -0.02,-0.02 -0.03,-0.02 -0.02,-0.03 -0.03,-0.02 -0.02,-0.02 -0.03,-0.02 -0.02,-0.02 -0.03,-0.01 -0.02,-0.02 -0.03,-0.02 -0.03,-0.01 -0.03,-0.01 -0.03,-0.02 -0.03,-0.01 -0.03,-0.01 -0.03,-0.01 -0.03,-0.01 h -0.03 l -0.04,-0.01 -0.03,-0.01 h -0.04 l -0.04,-0.01 h -0.04 c -0.06,-0.01 -0.15,-0.01 -0.15,-0.15 0,-0.07 0.06,-0.1 0.09,-0.1 0.18,0 0.42,0.03 0.6,0.03 0.23,0 0.51,-0.03 0.72,-0.03 0.04,0 0.14,0 0.14,0.15 0,0.09 -0.09,0.1 -0.12,0.1 -0.05,0.01 -0.3,0.02 -0.3,0.21 0,0.08 0.07,0.2 0.1,0.26 l 0.56,0.87 h 2 l -0.03,0.25 h -1.8 l 1.47,2.27 0.33,-2.27 0.03,-0.25 0.17,-1.16 c -0.03,-0.07 -0.07,-0.18 -0.48,-0.18 -0.09,0 -0.19,0 -0.19,-0.15 0,-0.03 0.03,-0.1 0.12,-0.1 0.2,0 0.7,0.03 0.9,0.03 0.12,0 0.28,-0.01 0.41,-0.01 0.13,0 0.27,-0.02 0.4,-0.02 0.09,0 0.14,0.06 0.14,0.15 0,0.1 -0.08,0.1 -0.2,0.1 -0.4,0 -0.42,0.06 -0.44,0.22 l -0.61,4.29 c -0.02,0.15 -0.04,0.2 -0.17,0.2 -0.13,0 -0.17,-0.06 -0.24,-0.16 z"
     style="fill:#000000;fill-opacity:1;stroke:#000000;stroke-width:0;stroke-opacity:1"
     id="path4417" /><path
     inkscape:connector-curvature="0"
     d="m 173.07,660.48 h 0.03 0.03 0.03 l 0.02,0.01 h 0.01 0.01 0.02 0.01 0.02 l 0.01,0.01 h 0.01 0.02 l 0.01,0.01 h 0.01 l 0.01,0.01 h 0.01 l 0.02,0.01 0.01,0.01 v 0.01 l 0.01,0.01 0.01,0.01 v 0 l 0.01,0.01 v 0 0.01 l 0.01,0.01 v 0 0.01 0.01 h 0.01 v 0.01 0.01 0.01 0.01 0 0.01 0.01 c 0,0.2 -0.19,0.2 -0.33,0.2 h -5.97 c -0.14,0 -0.33,0 -0.33,-0.2 0,-0.2 0.19,-0.2 0.34,-0.2 z"
     style="fill:#000000;fill-opacity:1;stroke:#000000;stroke-width:0;stroke-opacity:1"
     id="path4419" /><path
     inkscape:connector-curvature="0"
     d="m 173.08,658.56 h 0.02 0.01 0.03 0.03 0.01 0.01 0.02 0.01 0.02 l 0.01,0.01 h 0.01 0.02 l 0.01,0.01 h 0.01 l 0.01,0.01 h 0.01 l 0.02,0.01 h 0.01 l 0.01,0.01 v 0.01 l 0.01,0.01 h 0.01 v 0.01 0.01 h 0.01 v 0.01 0 l 0.01,0.01 v 0.01 0 0.01 l 0.01,0.01 v 0 0.01 0.01 0.01 0.01 0.01 0.01 c 0,0.19 -0.19,0.19 -0.34,0.19 h -5.95 c -0.15,0 -0.34,0 -0.34,-0.19 0,-0.2 0.19,-0.2 0.33,-0.2 z"
     style="fill:#000000;fill-opacity:1;stroke:#000000;stroke-width:0;stroke-opacity:1"
     id="path4421" /><path
     inkscape:connector-curvature="0"
     d="m 185.02,663.64 v 0.02 l -0.01,0.02 v 0.02 0.02 l -0.01,0.02 v 0.02 l -0.01,0.01 -0.01,0.02 -0.01,0.02 -0.01,0.01 -0.01,0.01 -0.01,0.02 -0.01,0.01 -0.01,0.01 -0.01,0.01 -0.02,0.02 -0.01,0.01 -0.02,0.01 -0.03,0.01 -0.04,0.02 -0.03,0.02 -0.04,0.01 -0.04,0.01 -0.04,0.01 -0.05,0.01 h -0.04 l -0.04,0.01 h -0.05 l -0.04,0.01 h -0.05 -0.04 -0.05 -0.04 -0.05 -0.04 -0.04 -0.04 -0.03 -0.04 -0.03 -0.03 -3.76 c -0.5,0 -1.39,-0.29 -1.55,-0.82 0.02,-0.06 0.04,-0.07 0.1,-0.07 0.22,0 0.52,0.18 0.66,0.32 0.31,0 0.61,0.02 0.92,0.02 h 0.62 c 0,0 -0.04,-0.18 -0.04,-0.19 -0.39,-1.81 -0.98,-3.35 -1.42,-4.33 -0.06,-0.13 -0.6,-1.37 -0.74,-1.49 -0.44,0 -0.76,0.24 -0.94,0.63 -0.03,0.06 -0.03,0.1 -0.1,0.1 -0.23,0 -0.78,-0.32 -0.78,-0.49 0,-0.02 0.01,-0.04 0.02,-0.06 0.18,-0.47 0.63,-0.73 1.11,-0.73 0.51,0 1.1,0.36 1.42,0.73 0.33,0.38 0.99,2.01 1.25,2.61 h 1.92 c -0.01,-0.02 -0.02,-0.03 -0.02,-0.04 0,-0.04 0.06,-0.06 0.1,-0.06 0.22,0 0.79,0.27 0.79,0.58 0,0.07 -0.07,0.06 -0.19,0.06 h -2.39 c 0.26,0.9 0.6,1.77 0.78,2.68 h 1.31 c 0.25,0 0.95,0.05 1.13,-0.16 0.02,-0.06 -0.01,-0.16 0.02,-0.21 0.02,-0.02 0.05,-0.03 0.08,-0.03 0.24,0 0.78,0.29 0.78,0.56 z"
     style="fill:#000000;fill-opacity:1;stroke:#000000;stroke-width:0;stroke-opacity:1"
     id="path4423" /><path
     inkscape:connector-curvature="0"
     d="m 189.85,654.85 v 0.01 0 0 0.01 0 0 0.01 h -0.01 v 0 0.01 0 0.01 h -0.01 v 0.01 h -0.01 v 0.01 l -0.01,0.01 v 0 0.01 h -0.01 v 0.01 h -0.01 v 0 0.01 h -0.01 v 0.01 h -0.01 v 0.01 h -0.01 v 0.01 h -0.01 V 655 l -0.01,0.01 v 0 l -0.01,0.01 -0.01,0.01 v 0 l -0.01,0.01 -0.01,0.01 v 0 l -0.01,0.01 -0.01,0.01 c -1.25,1.25 -1.56,3.13 -1.56,4.65 0,1.73 0.37,3.45 1.6,4.7 0.13,0.12 0.13,0.14 0.13,0.17 0,0.07 -0.04,0.09 -0.1,0.09 -0.1,0 -1,-0.67 -1.59,-1.93 -0.5,-1.09 -0.62,-2.2 -0.62,-3.03 0,-0.78 0.11,-1.98 0.65,-3.1 0.6,-1.22 1.46,-1.87 1.56,-1.87 0.06,0 0.1,0.03 0.1,0.1 z"
     style="fill:#000000;fill-opacity:1;stroke:#000000;stroke-width:0;stroke-opacity:1"
     id="path4425" /><path
     inkscape:connector-curvature="0"
     d="m 192.21,658.38 -0.04,-0.06 -0.04,-0.06 -0.03,-0.06 -0.04,-0.05 -0.04,-0.05 -0.03,-0.04 -0.04,-0.05 -0.04,-0.04 -0.04,-0.04 -0.03,-0.04 -0.04,-0.03 -0.04,-0.03 -0.04,-0.03 -0.03,-0.03 -0.04,-0.02 -0.04,-0.03 -0.04,-0.02 -0.04,-0.02 -0.03,-0.02 -0.04,-0.02 -0.04,-0.01 -0.04,-0.01 -0.04,-0.02 -0.04,-0.01 -0.04,-0.01 -0.04,-0.01 h -0.04 l -0.04,-0.01 -0.08,-0.01 -0.08,-0.01 c -0.12,-0.01 -0.21,-0.01 -0.21,-0.2 0,-0.06 0.05,-0.11 0.13,-0.11 0.27,0 0.58,0.04 0.86,0.04 0.33,0 0.68,-0.04 1,-0.04 0.06,0 0.19,0 0.19,0.19 0,0.11 -0.09,0.12 -0.16,0.12 -0.23,0.02 -0.47,0.1 -0.47,0.35 0,0.12 0.06,0.23 0.14,0.37 l 0.76,1.27 h 2.5 l -0.03,0.31 h -2.28 l 1.96,3.28 0.32,-3.28 0.03,-0.31 c 0.02,-0.21 0.16,-1.56 0.16,-1.66 0,-0.3 -0.52,-0.33 -0.72,-0.33 -0.14,0 -0.24,0 -0.24,-0.2 0,-0.11 0.12,-0.11 0.14,-0.11 0.41,0 0.84,0.04 1.25,0.04 0.25,0 0.87,-0.04 1.12,-0.04 0.06,0 0.18,0 0.18,0.2 0,0.11 -0.1,0.11 -0.23,0.11 -0.61,0 -0.61,0.07 -0.64,0.36 l -0.61,6.21 c -0.02,0.2 -0.02,0.24 -0.19,0.24 -0.16,0 -0.2,-0.07 -0.26,-0.17 z"
     style="fill:#000000;fill-opacity:1;stroke:#000000;stroke-width:0;stroke-opacity:1"
     id="path4427" /><path
     inkscape:connector-curvature="0"
     d="m 199.22,656.28 v -0.02 l -0.01,-0.02 v -0.02 l -0.01,-0.02 v -0.01 l -0.01,-0.02 -0.01,-0.02 v -0.01 l -0.01,-0.02 -0.01,-0.01 -0.01,-0.01 -0.01,-0.01 -0.01,-0.01 -0.01,-0.01 -0.01,-0.01 -0.01,-0.01 -0.02,-0.01 -0.02,-0.01 h -0.02 l -0.02,-0.01 H 199 l -0.01,-0.01 h -0.01 -0.01 -0.02 -0.01 L 198.92,656 h -0.01 -0.02 -0.01 -0.02 -0.02 -0.01 l -0.02,-0.01 h -0.02 -0.02 -0.02 -0.02 -0.03 -0.02 -0.02 -0.03 -0.02 c -0.12,0 -0.21,0 -0.21,-0.15 0,-0.1 0.08,-0.1 0.21,-0.1 h 2.71 c 1.17,0 2.07,0.8 2.07,1.49 0,0.49 -0.45,0.92 -1.19,0.99 0.84,0.16 1.55,0.69 1.55,1.28 0,0.53 -0.54,0.99 -1.45,0.99 l -0.11,-0.25 c 0.71,0 0.87,-0.47 0.87,-0.73 0,-0.56 -0.63,-1.2 -1.57,-1.2 h -1.15 l -0.05,-0.2 h 1.49 c 0.65,0 0.9,-0.43 0.9,-0.83 0,-0.69 -0.7,-1.29 -1.55,-1.29 h -1.12 c -0.22,0 -0.23,0.01 -0.23,0.07 0,0.01 0,0.04 0.03,0.15 l 0.48,1.9 0.05,0.2 0.43,1.69 c 0.06,0.22 0.06,0.24 0.36,0.24 h 1.06 l 0.11,0.25 h -2.54 c -0.14,0 -0.23,0 -0.23,-0.15 0,-0.1 0.09,-0.1 0.23,-0.1 0,0 0.14,0 0.26,-0.01 0.15,-0.02 0.16,-0.03 0.16,-0.1 0,-0.02 0,-0.05 -0.03,-0.15 z"
     style="fill:#000000;fill-opacity:1;stroke:#000000;stroke-width:0;stroke-opacity:1"
     id="path4429" /><path
     inkscape:connector-curvature="0"
     d="m 206.78,657.24 v 0.07 l -0.01,0.05 v 0.06 0.06 l -0.01,0.05 -0.01,0.05 -0.01,0.06 -0.01,0.04 -0.01,0.05 -0.01,0.05 -0.02,0.04 -0.01,0.04 -0.02,0.04 -0.02,0.04 -0.02,0.04 -0.02,0.03 -0.02,0.04 -0.02,0.03 -0.02,0.02 -0.03,0.03 -0.02,0.03 -0.03,0.02 -0.03,0.02 -0.03,0.02 -0.03,0.01 -0.03,0.02 -0.03,0.01 -0.03,0.01 -0.04,0.01 h -0.03 l -0.03,0.01 h -0.04 c -0.33,0 -0.53,-0.25 -0.53,-0.53 0,-0.27 0.2,-0.53 0.53,-0.53 0.12,0 0.25,0.05 0.35,0.13 0.03,0.02 0.04,0.03 0.05,0.03 0.01,0 0.02,-0.01 0.02,-0.15 0,-0.73 -0.35,-1.33 -0.68,-1.65 -0.11,-0.11 -0.11,-0.13 -0.11,-0.16 0,-0.07 0.05,-0.11 0.1,-0.11 0.11,0 0.91,0.76 0.91,1.92 z"
     style="fill:#000000;fill-opacity:1;stroke:#000000;stroke-width:0;stroke-opacity:1"
     id="path4431" /><path
     inkscape:connector-curvature="0"
     d="m 210.97,658.38 -0.04,-0.06 -0.04,-0.06 -0.03,-0.06 -0.04,-0.05 -0.04,-0.05 -0.03,-0.04 -0.04,-0.05 -0.04,-0.04 -0.04,-0.04 -0.03,-0.04 -0.04,-0.03 -0.04,-0.03 -0.04,-0.03 -0.03,-0.03 -0.04,-0.02 -0.04,-0.03 -0.04,-0.02 -0.03,-0.02 -0.04,-0.02 -0.04,-0.02 -0.04,-0.01 -0.04,-0.01 -0.04,-0.02 -0.04,-0.01 -0.04,-0.01 -0.04,-0.01 h -0.03 l -0.04,-0.01 -0.09,-0.01 -0.08,-0.01 c -0.12,-0.01 -0.21,-0.01 -0.21,-0.2 0,-0.06 0.05,-0.11 0.13,-0.11 0.27,0 0.58,0.04 0.86,0.04 0.33,0 0.68,-0.04 1,-0.04 0.06,0 0.19,0 0.19,0.19 0,0.11 -0.09,0.12 -0.16,0.12 -0.23,0.02 -0.47,0.1 -0.47,0.35 0,0.12 0.06,0.23 0.14,0.37 l 0.76,1.27 h 2.5 l -0.03,0.31 h -2.28 l 1.96,3.28 0.32,-3.28 0.03,-0.31 c 0.02,-0.21 0.16,-1.56 0.16,-1.66 0,-0.3 -0.52,-0.33 -0.72,-0.33 -0.14,0 -0.24,0 -0.24,-0.2 0,-0.11 0.12,-0.11 0.14,-0.11 0.41,0 0.84,0.04 1.25,0.04 0.25,0 0.88,-0.04 1.13,-0.04 0.06,0 0.17,0 0.17,0.2 0,0.11 -0.1,0.11 -0.22,0.11 -0.62,0 -0.62,0.07 -0.65,0.36 l -0.61,6.21 c -0.02,0.2 -0.02,0.24 -0.19,0.24 -0.16,0 -0.2,-0.07 -0.26,-0.17 z"
     style="fill:#000000;fill-opacity:1;stroke:#000000;stroke-width:0;stroke-opacity:1"
     id="path4433" /><path
     inkscape:connector-curvature="0"
     d="m 222.55,660.54 v 0 0.01 0 0 0.01 h -0.01 v 0 0.01 0 0.01 0 0 l -0.01,0.01 v 0 0 0.01 0 h -0.01 v 0.01 0 h -0.01 v 0.01 h -0.01 v 0 0 h -0.01 v 0.01 h -0.01 v 0 h -0.01 v 0 0 0 h -0.01 v 0 0 c -0.05,0 -0.07,-0.02 -0.13,-0.08 l -0.51,-0.54 c -0.06,0.08 -0.45,0.62 -1.31,0.62 -1.7,0 -3.37,-1.5 -3.37,-3.07 0,-1.13 0.9,-1.96 2.15,-1.96 0.38,0 1.05,0.08 1.77,0.68 0.55,0.47 0.7,1.07 0.7,1.13 0,0.09 -0.08,0.09 -0.11,0.09 -0.1,0 -0.11,-0.03 -0.13,-0.11 -0.29,-0.95 -1.27,-1.54 -2.11,-1.54 -0.74,0 -1.57,0.4 -1.57,1.5 0,0.2 0.05,1.3 0.86,2.17 0.48,0.54 1.21,0.86 1.88,0.86 0.81,0 1.28,-0.59 1.28,-1.36 0,-0.2 -0.02,-0.25 -0.02,-0.29 0,-0.09 0.09,-0.09 0.13,-0.09 0.11,0 0.11,0.02 0.14,0.15 z"
     style="fill:#000000;fill-opacity:1;stroke:#000000;stroke-width:0;stroke-opacity:1"
     id="path4435" /><path
     inkscape:connector-curvature="0"
     d="m 226.24,659.72 v 0.07 l -0.01,0.08 v 0.08 0.08 l -0.01,0.17 -0.01,0.17 -0.02,0.18 -0.02,0.19 -0.02,0.2 -0.04,0.2 -0.04,0.2 -0.04,0.21 -0.06,0.21 -0.06,0.21 -0.07,0.21 -0.08,0.21 -0.04,0.11 -0.04,0.11 -0.05,0.1 -0.05,0.11 c -0.6,1.22 -1.46,1.86 -1.56,1.86 -0.06,0 -0.1,-0.03 -0.1,-0.09 0,-0.03 0,-0.05 0.19,-0.23 0.98,-0.99 1.55,-2.57 1.55,-4.64 0,-1.7 -0.37,-3.45 -1.61,-4.7 -0.13,-0.12 -0.13,-0.14 -0.13,-0.17 0,-0.06 0.04,-0.1 0.1,-0.1 0.1,0 1,0.68 1.59,1.94 0.51,1.09 0.63,2.19 0.63,3.03 z"
     style="fill:#000000;fill-opacity:1;stroke:#000000;stroke-width:0;stroke-opacity:1"
     id="path4437" /></g>
</g>    <g
       style="font-style:normal;font-variant:normal;font-weight:normal;font-stretch:normal;letter-spacing:normal;word-spacing:normal;text-anchor:start;fill:none;fill-opacity:1;fill-rule:evenodd;stroke:#000000;stroke-linecap:butt;stroke-linejoin:miter;stroke-miterlimit:10.43299961;stroke-dasharray:none;stroke-dashoffset:0;stroke-opacity:1"
       ns0:jacobian_sqrt="0.3"
       inkscapeversion="0.92.4"
       ns0:alignment="middle center"
       ns0:scale="0.225000000001"
       ns0:preamble="C:\\Users\\MatthewThornton\\AppData\\Roaming\\inkscape\\extensions\\textext\\default_packages.tex"
       ns0:text="$\\tilde{X}_A = 01011\\dots$"
       ns0:pdfconverter="pstoedit"
       ns0:texconverter="pdflatex"
       ns0:version="0.10.2"
       word-spacing="normal"
       letter-spacing="normal"
       font-size-adjust="none"
       font-stretch="normal"
       font-weight="normal"
       font-variant="normal"
       font-style="normal"
       stroke-miterlimit="10.433"
       xml:space="preserve"
       transform="matrix(0.3,0,0,-0.3,-44.560806,217.77306)"
       id="g4579">
<path
   id="path4553"
   style="fill:#000000;fill-opacity:1;stroke:#000000;stroke-width:0;stroke-opacity:1"
   d="m 155.72,666.24 -0.16,0.15 c 0,-0.01 -0.38,-0.48 -0.82,-0.48 -0.23,0 -0.48,0.15 -0.65,0.25 -0.27,0.16 -0.45,0.23 -0.61,0.23 -0.38,0 -0.57,-0.22 -1.08,-0.78 l 0.16,-0.14 c 0,0.01 0.38,0.47 0.82,0.47 0.22,0 0.47,-0.15 0.64,-0.25 0.27,-0.15 0.45,-0.22 0.62,-0.22 0.38,0 0.57,0.21 1.08,0.77 z"
   inkscape:connector-curvature="0" />
<path
   id="path4555"
   style="fill:#000000;fill-opacity:1;stroke:#000000;stroke-width:0;stroke-opacity:1"
   d="m 153.55,661.32 -0.84,1.97 c -0.03,0.08 -0.05,0.12 -0.05,0.13 0,0.06 0.17,0.25 0.59,0.29 0.1,0.01 0.2,0.02 0.2,0.19 0,0.12 -0.12,0.12 -0.15,0.12 -0.41,0 -0.84,-0.03 -1.26,-0.03 -0.25,0 -0.86,0.03 -1.11,0.03 -0.06,0 -0.18,0 -0.18,-0.2 0,-0.11 0.1,-0.11 0.23,-0.11 0.59,0 0.65,-0.1 0.74,-0.32 l 1.18,-2.77 -2.1,-2.25 -0.13,-0.11 c -0.49,-0.53 -0.96,-0.69 -1.47,-0.72 -0.13,-0.01 -0.22,-0.01 -0.22,-0.2 0,-0.01 0,-0.11 0.13,-0.11 0.3,0 0.63,0.04 0.94,0.04 0.37,0 0.76,-0.04 1.11,-0.04 0.07,0 0.19,0 0.19,0.2 0,0.1 -0.11,0.11 -0.12,0.11 -0.1,0.01 -0.4,0.03 -0.4,0.31 0,0.16 0.15,0.32 0.27,0.45 l 1.01,1.07 0.9,0.97 1.01,-2.37 c 0.04,-0.11 0.05,-0.12 0.05,-0.14 0,-0.08 -0.19,-0.25 -0.58,-0.29 -0.11,-0.01 -0.2,-0.02 -0.2,-0.19 0,-0.12 0.11,-0.12 0.15,-0.12 0.28,0 0.98,0.04 1.26,0.04 0.25,0 0.85,-0.04 1.1,-0.04 0.07,0 0.19,0 0.19,0.19 0,0.12 -0.1,0.12 -0.18,0.12 -0.67,0.01 -0.69,0.04 -0.86,0.44 -0.38,0.92 -1.05,2.47 -1.28,3.07 0.68,0.69 1.72,1.88 2.04,2.16 0.29,0.23 0.67,0.47 1.27,0.5 0.13,0.01 0.22,0.01 0.22,0.2 0,0.01 0,0.11 -0.13,0.11 -0.3,0 -0.63,-0.03 -0.94,-0.03 -0.37,0 -0.75,0.03 -1.11,0.03 -0.06,0 -0.18,0 -0.18,-0.2 0,-0.07 0.04,-0.1 0.11,-0.11 0.09,-0.01 0.4,-0.03 0.4,-0.31 0,-0.13 -0.11,-0.26 -0.19,-0.35 z"
   inkscape:connector-curvature="0" />
<path
   id="path4557"
   style="fill:#000000;fill-opacity:1;stroke:#000000;stroke-width:0;stroke-opacity:1"
   d="m 158.41,656.58 -0.03,-0.04 -0.02,-0.03 -0.02,-0.03 -0.02,-0.04 -0.03,-0.03 -0.02,-0.03 -0.02,-0.02 -0.03,-0.03 -0.02,-0.03 -0.02,-0.02 -0.03,-0.02 -0.02,-0.03 -0.03,-0.02 -0.02,-0.02 -0.03,-0.02 -0.02,-0.02 -0.03,-0.01 -0.02,-0.02 -0.03,-0.02 -0.03,-0.01 -0.03,-0.01 -0.03,-0.02 -0.03,-0.01 -0.03,-0.01 -0.03,-0.01 -0.03,-0.01 h -0.03 l -0.04,-0.01 -0.03,-0.01 h -0.04 l -0.04,-0.01 h -0.04 c -0.06,-0.01 -0.15,-0.01 -0.15,-0.15 0,-0.07 0.06,-0.1 0.09,-0.1 0.18,0 0.42,0.03 0.6,0.03 0.23,0 0.51,-0.03 0.72,-0.03 0.04,0 0.14,0 0.14,0.15 0,0.09 -0.09,0.1 -0.12,0.1 -0.05,0.01 -0.3,0.02 -0.3,0.21 0,0.08 0.07,0.2 0.1,0.26 l 0.56,0.87 h 2 l -0.03,0.25 h -1.8 l 1.47,2.27 0.33,-2.27 0.03,-0.25 0.17,-1.16 c -0.03,-0.07 -0.07,-0.18 -0.48,-0.18 -0.09,0 -0.19,0 -0.19,-0.15 0,-0.03 0.03,-0.1 0.12,-0.1 0.2,0 0.7,0.03 0.9,0.03 0.12,0 0.28,-0.01 0.41,-0.01 0.13,0 0.27,-0.02 0.4,-0.02 0.09,0 0.14,0.06 0.14,0.15 0,0.1 -0.08,0.1 -0.2,0.1 -0.4,0 -0.42,0.06 -0.44,0.22 l -0.61,4.29 c -0.02,0.15 -0.04,0.2 -0.17,0.2 -0.13,0 -0.17,-0.06 -0.24,-0.16 z"
   inkscape:connector-curvature="0" />
<path
   id="path4559"
   style="fill:#000000;fill-opacity:1;stroke:#000000;stroke-width:0;stroke-opacity:1"
   d="m 173.07,660.48 h 0.03 0.03 0.03 l 0.02,0.01 h 0.01 0.01 0.02 0.01 0.02 l 0.01,0.01 h 0.01 0.02 l 0.01,0.01 h 0.01 l 0.01,0.01 h 0.01 l 0.02,0.01 0.01,0.01 v 0.01 l 0.01,0.01 0.01,0.01 v 0 l 0.01,0.01 v 0 0.01 l 0.01,0.01 v 0 0.01 0.01 h 0.01 v 0.01 0.01 0.01 0.01 0 0.01 0.01 c 0,0.2 -0.19,0.2 -0.33,0.2 h -5.97 c -0.14,0 -0.33,0 -0.33,-0.2 0,-0.2 0.19,-0.2 0.34,-0.2 z"
   inkscape:connector-curvature="0" />
<path
   id="path4561"
   style="fill:#000000;fill-opacity:1;stroke:#000000;stroke-width:0;stroke-opacity:1"
   d="m 173.08,658.56 h 0.02 0.01 0.03 0.03 0.01 0.01 0.02 0.01 0.02 l 0.01,0.01 h 0.01 0.02 l 0.01,0.01 h 0.01 l 0.01,0.01 h 0.01 l 0.02,0.01 h 0.01 l 0.01,0.01 v 0.01 l 0.01,0.01 h 0.01 v 0.01 0.01 h 0.01 v 0.01 0 l 0.01,0.01 v 0.01 0 0.01 l 0.01,0.01 v 0 0.01 0.01 0.01 0.01 0.01 0.01 c 0,0.19 -0.19,0.19 -0.34,0.19 h -5.95 c -0.15,0 -0.34,0 -0.34,-0.19 0,-0.2 0.19,-0.2 0.33,-0.2 z"
   inkscape:connector-curvature="0" />
<path
   id="path4563"
   style="fill:#000000;fill-opacity:1;stroke:#000000;stroke-width:0;stroke-opacity:1"
   d="m 181.33,660.41 v 0.15 0.15 l -0.01,0.15 v 0.15 l -0.01,0.15 -0.02,0.14 -0.01,0.15 -0.02,0.15 -0.02,0.14 -0.03,0.15 -0.03,0.14 -0.04,0.15 -0.04,0.14 -0.05,0.14 -0.06,0.14 -0.03,0.07 -0.03,0.07 c -0.46,0.95 -1.28,1.11 -1.69,1.11 -0.6,0 -1.33,-0.26 -1.74,-1.18 -0.32,-0.69 -0.37,-1.46 -0.37,-2.26 0,-0.74 0.04,-1.63 0.45,-2.39 0.43,-0.8 1.16,-1 1.65,-1 v 0.21 c -0.39,0 -0.98,0.25 -1.16,1.21 -0.11,0.59 -0.11,1.51 -0.11,2.09 0,0.64 0,1.29 0.08,1.83 0.19,1.18 0.94,1.27 1.19,1.27 0.32,0 0.98,-0.18 1.17,-1.16 0.1,-0.56 0.1,-1.31 0.1,-1.94 0,-0.74 0,-1.42 -0.11,-2.05 -0.15,-0.95 -0.72,-1.25 -1.16,-1.25 v 0 -0.21 c 0.53,0 1.29,0.2 1.73,1.15 0.32,0.68 0.37,1.46 0.37,2.24 z"
   inkscape:connector-curvature="0" />
<path
   id="path4565"
   style="fill:#000000;fill-opacity:1;stroke:#000000;stroke-width:0;stroke-opacity:1"
   d="m 184.65,663.59 v 0.01 0.01 0.02 0.01 0 0.01 0.01 0.01 0.01 0.01 0.01 0.01 0 0.01 0.01 0 0.01 0.01 0.01 0.01 l -0.01,0.01 v 0.01 0.01 h -0.01 v 0.01 l -0.01,0.01 h -0.01 v 0.01 h -0.01 l -0.01,0.01 v 0 h -0.01 v 0 h -0.01 -0.01 v 0 l -0.01,0.01 v 0 h -0.01 -0.01 -0.01 v 0 h -0.01 -0.01 -0.01 -0.01 -0.01 v 0 h -0.01 -0.01 -0.01 -0.01 c -0.62,-0.63 -1.5,-0.63 -1.82,-0.63 v -0.31 c 0.2,0 0.79,0 1.31,0.26 v -5.15 c 0,-0.36 -0.03,-0.48 -0.93,-0.48 h -0.32 v -0.31 c 0.35,0.04 1.22,0.04 1.62,0.04 0.39,0 1.26,0 1.61,-0.04 v 0.31 h -0.32 c -0.9,0 -0.93,0.11 -0.93,0.48 z"
   inkscape:connector-curvature="0" />
<path
   id="path4567"
   style="fill:#000000;fill-opacity:1;stroke:#000000;stroke-width:0;stroke-opacity:1"
   d="m 191.29,660.41 v 0.15 0.15 l -0.01,0.15 v 0.15 l -0.01,0.15 -0.01,0.14 -0.02,0.15 -0.02,0.15 -0.02,0.14 -0.03,0.15 -0.03,0.14 -0.04,0.15 -0.04,0.14 -0.05,0.14 -0.06,0.14 -0.03,0.07 -0.03,0.07 c -0.46,0.95 -1.27,1.11 -1.69,1.11 -0.6,0 -1.33,-0.26 -1.74,-1.18 -0.32,-0.69 -0.37,-1.46 -0.37,-2.26 0,-0.74 0.04,-1.63 0.45,-2.39 0.43,-0.8 1.16,-1 1.65,-1 v 0.21 c -0.39,0 -0.98,0.25 -1.16,1.21 -0.11,0.59 -0.11,1.51 -0.11,2.09 0,0.64 0,1.29 0.08,1.83 0.19,1.18 0.94,1.27 1.19,1.27 0.33,0 0.98,-0.18 1.17,-1.16 0.1,-0.56 0.1,-1.31 0.1,-1.94 0,-0.74 0,-1.42 -0.11,-2.05 -0.15,-0.95 -0.71,-1.25 -1.16,-1.25 v 0 -0.21 c 0.54,0 1.29,0.2 1.73,1.15 0.32,0.68 0.37,1.46 0.37,2.24 z"
   inkscape:connector-curvature="0" />
<path
   id="path4569"
   style="fill:#000000;fill-opacity:1;stroke:#000000;stroke-width:0;stroke-opacity:1"
   d="m 194.62,663.59 v 0.01 0.01 0.02 0.01 0 0.01 0.01 0.01 0.01 0.01 0.01 0.01 0 l -0.01,0.01 v 0.01 0 0.01 0.01 0.01 0.01 l -0.01,0.01 v 0.01 0.01 h -0.01 v 0.01 l -0.01,0.01 v 0 l -0.01,0.01 h -0.01 l -0.01,0.01 v 0 h -0.01 v 0 h -0.01 v 0 h -0.01 l -0.01,0.01 v 0 h -0.01 -0.01 v 0 h -0.01 -0.01 -0.01 v 0 h -0.01 -0.01 -0.01 -0.01 -0.01 -0.01 -0.01 c -0.62,-0.63 -1.5,-0.63 -1.82,-0.63 v -0.31 c 0.2,0 0.79,0 1.31,0.26 v -5.15 c 0,-0.36 -0.03,-0.48 -0.93,-0.48 h -0.32 v -0.31 c 0.35,0.04 1.22,0.04 1.62,0.04 0.4,0 1.26,0 1.61,-0.04 v 0.31 h -0.32 c -0.89,0 -0.92,0.11 -0.92,0.48 z"
   inkscape:connector-curvature="0" />
<path
   id="path4571"
   style="fill:#000000;fill-opacity:1;stroke:#000000;stroke-width:0;stroke-opacity:1"
   d="m 199.6,663.59 v 0.01 0.01 0.02 0.01 0 0.01 0.01 0.01 0.01 0.01 0.01 0.01 0 0.01 0.01 h -0.01 v 0.01 0.01 0.01 0.01 0.01 l -0.01,0.01 v 0.01 h -0.01 v 0.01 l -0.01,0.01 v 0 l -0.01,0.01 h -0.01 l -0.01,0.01 v 0 h -0.01 v 0 h -0.01 v 0 h -0.01 v 0.01 h -0.01 -0.01 v 0 h -0.01 -0.01 -0.01 -0.01 v 0 h -0.01 -0.01 -0.01 -0.01 -0.01 -0.01 -0.01 c -0.62,-0.63 -1.5,-0.63 -1.82,-0.63 v -0.31 c 0.2,0 0.79,0 1.31,0.26 v -5.15 c 0,-0.36 -0.03,-0.48 -0.93,-0.48 h -0.32 v -0.31 c 0.35,0.04 1.22,0.04 1.62,0.04 0.4,0 1.27,0 1.62,-0.04 v 0.31 h -0.32 c -0.9,0 -0.93,0.11 -0.93,0.48 z"
   inkscape:connector-curvature="0" />
<path
   id="path4573"
   style="fill:#000000;fill-opacity:1;stroke:#000000;stroke-width:0;stroke-opacity:1"
   d="m 205.22,657.76 v 0.03 0.03 l -0.01,0.02 v 0.03 l -0.01,0.02 v 0.03 l -0.01,0.02 -0.01,0.03 -0.01,0.02 -0.01,0.02 -0.02,0.02 -0.01,0.03 -0.02,0.02 -0.01,0.02 -0.02,0.01 -0.02,0.02 -0.01,0.02 -0.02,0.02 -0.02,0.01 -0.02,0.02 -0.03,0.01 -0.02,0.01 -0.02,0.02 -0.02,0.01 -0.03,0.01 h -0.02 l -0.03,0.01 -0.02,0.01 h -0.03 l -0.02,0.01 h -0.03 -0.03 c -0.29,0 -0.53,-0.24 -0.53,-0.53 0,-0.29 0.24,-0.53 0.53,-0.53 0.29,0 0.53,0.24 0.53,0.53 z"
   inkscape:connector-curvature="0" />
<path
   id="path4575"
   style="fill:#000000;fill-opacity:1;stroke:#000000;stroke-width:0;stroke-opacity:1"
   d="m 209.65,657.76 v 0.03 0.03 0.02 l -0.01,0.03 v 0.02 l -0.01,0.03 -0.01,0.02 -0.01,0.03 -0.01,0.02 -0.01,0.02 -0.02,0.02 -0.01,0.03 -0.01,0.02 -0.02,0.02 -0.02,0.01 -0.01,0.02 -0.02,0.02 -0.02,0.02 -0.02,0.01 -0.02,0.02 -0.02,0.01 -0.03,0.01 -0.02,0.02 -0.02,0.01 -0.03,0.01 h -0.02 l -0.03,0.01 -0.02,0.01 h -0.03 l -0.02,0.01 h -0.03 -0.03 c -0.29,0 -0.52,-0.24 -0.52,-0.53 0,-0.29 0.23,-0.53 0.52,-0.53 0.29,0 0.53,0.24 0.53,0.53 z"
   inkscape:connector-curvature="0" />
<path
   id="path4577"
   style="fill:#000000;fill-opacity:1;stroke:#000000;stroke-width:0;stroke-opacity:1"
   d="m 214.07,657.76 v 0.03 0.03 0.02 l -0.01,0.03 v 0.02 l -0.01,0.03 -0.01,0.02 -0.01,0.03 -0.01,0.02 -0.01,0.02 -0.01,0.02 -0.02,0.03 -0.01,0.02 -0.02,0.02 -0.02,0.01 -0.01,0.02 -0.02,0.02 -0.02,0.02 -0.02,0.01 -0.02,0.02 -0.02,0.01 -0.02,0.01 -0.03,0.02 -0.02,0.01 -0.02,0.01 h -0.03 l -0.02,0.01 -0.03,0.01 h -0.03 l -0.02,0.01 h -0.03 -0.03 c -0.28,0 -0.52,-0.24 -0.52,-0.53 0,-0.29 0.24,-0.53 0.52,-0.53 0.29,0 0.53,0.24 0.53,0.53 z"
   inkscape:connector-curvature="0" />
</g>    <g
       style="font-style:normal;font-variant:normal;font-weight:normal;font-stretch:normal;letter-spacing:normal;word-spacing:normal;text-anchor:start;fill:none;fill-opacity:1;fill-rule:evenodd;stroke:#000000;stroke-linecap:butt;stroke-linejoin:miter;stroke-miterlimit:10.43299961;stroke-dasharray:none;stroke-dashoffset:0;stroke-opacity:1"
       ns0:jacobian_sqrt="0.3"
       inkscapeversion="0.92.4"
       ns0:alignment="middle center"
       ns0:scale="0.225000000001"
       ns0:preamble="C:\\Users\\MatthewThornton\\AppData\\Roaming\\inkscape\\extensions\\textext\\default_packages.tex"
       ns0:text="$\\varsigma_A = \\sigma_A \\oplus \\tilde{X}_A$"
       ns0:pdfconverter="pstoedit"
       ns0:texconverter="pdflatex"
       ns0:version="0.10.2"
       word-spacing="normal"
       letter-spacing="normal"
       font-size-adjust="none"
       font-stretch="normal"
       font-weight="normal"
       font-variant="normal"
       font-style="normal"
       stroke-miterlimit="10.433"
       xml:space="preserve"
       transform="matrix(0.3,0,0,-0.3,-44.572806,222.51764)"
       id="g4731">
<path
   id="path4711"
   style="fill:#000000;fill-opacity:1;stroke:#000000;stroke-width:0;stroke-opacity:1"
   d="m 151.02,657.43 0.03,-0.02 0.04,-0.02 0.04,-0.02 0.03,-0.03 0.02,-0.01 0.02,-0.01 0.02,-0.01 0.01,-0.01 0.02,-0.02 0.01,-0.01 0.02,-0.01 0.01,-0.02 0.01,-0.01 0.01,-0.02 0.02,-0.02 0.01,-0.01 0.01,-0.02 0.01,-0.02 0.01,-0.02 v -0.02 l 0.01,-0.02 0.01,-0.02 v -0.02 l 0.01,-0.03 v -0.02 -0.03 -0.02 -0.03 c 0,-0.25 -0.16,-0.53 -0.45,-0.53 -0.06,0 -0.23,0.01 -0.41,0.09 -0.02,0.01 -0.06,0.02 -0.09,0.02 -0.05,0 -0.11,-0.04 -0.11,-0.1 0,-0.15 0.45,-0.23 0.61,-0.23 0.56,0 1.01,0.55 1.01,1.07 0,0.5 -0.23,0.62 -0.98,1.04 l -0.65,0.36 c -0.37,0.2 -0.79,0.43 -0.79,1.05 0,0.9 1.08,1.73 2.16,1.73 0.21,0 0.42,-0.03 0.77,-0.19 0.09,-0.04 0.12,-0.06 0.15,-0.06 0.08,0 0.17,0.09 0.17,0.17 0,0.22 -0.64,0.3 -1.03,0.3 -1.51,0 -2.74,-1.15 -2.74,-2.26 0,-0.84 0.63,-1.19 1.06,-1.42 z"
   inkscape:connector-curvature="0" />
<path
   id="path4713"
   style="fill:#000000;fill-opacity:1;stroke:#000000;stroke-width:0;stroke-opacity:1"
   d="m 153.77,656.58 -0.03,-0.04 -0.02,-0.03 -0.02,-0.04 -0.02,-0.03 -0.03,-0.03 -0.02,-0.03 -0.02,-0.02 -0.03,-0.03 -0.02,-0.03 -0.02,-0.02 -0.03,-0.02 -0.02,-0.03 -0.02,-0.02 -0.03,-0.02 -0.02,-0.02 -0.03,-0.02 -0.03,-0.01 -0.02,-0.02 -0.03,-0.02 -0.03,-0.01 -0.03,-0.01 -0.03,-0.02 -0.03,-0.01 -0.03,-0.01 -0.03,-0.01 -0.03,-0.01 h -0.03 L 153.03,656.01 153,656 h -0.04 l -0.04,-0.01 h -0.03 c -0.07,-0.01 -0.16,-0.01 -0.16,-0.15 0,-0.07 0.06,-0.1 0.09,-0.1 0.19,0 0.42,0.03 0.61,0.03 0.22,0 0.5,-0.03 0.72,-0.03 0.03,0 0.14,0 0.14,0.15 0,0.09 -0.1,0.1 -0.12,0.1 -0.06,0.01 -0.31,0.02 -0.31,0.21 0,0.08 0.07,0.2 0.1,0.26 l 0.56,0.87 h 2 l -0.03,0.25 h -1.8 l 1.47,2.27 0.33,-2.27 0.03,-0.25 0.17,-1.16 c -0.03,-0.07 -0.07,-0.18 -0.48,-0.18 -0.09,0 -0.18,0 -0.18,-0.15 0,-0.03 0.02,-0.1 0.11,-0.1 0.2,0 0.7,0.03 0.9,0.03 0.12,0 0.29,-0.01 0.41,-0.01 0.13,0 0.28,-0.02 0.4,-0.02 0.09,0 0.14,0.06 0.14,0.15 0,0.1 -0.08,0.1 -0.2,0.1 -0.4,0 -0.41,0.06 -0.44,0.22 l -0.61,4.29 c -0.02,0.15 -0.04,0.2 -0.17,0.2 -0.13,0 -0.17,-0.06 -0.24,-0.16 z"
   inkscape:connector-curvature="0" />
<path
   id="path4715"
   style="fill:#000000;fill-opacity:1;stroke:#000000;stroke-width:0;stroke-opacity:1"
   d="m 168.43,660.48 h 0.03 0.03 0.03 l 0.02,0.01 h 0.01 0.02 0.01 0.01 0.02 l 0.01,0.01 h 0.01 0.02 l 0.01,0.01 h 0.01 l 0.01,0.01 h 0.02 l 0.01,0.01 0.01,0.01 0.01,0.01 v 0.01 l 0.01,0.01 h 0.01 v 0.01 0 l 0.01,0.01 v 0.01 0 0.01 l 0.01,0.01 v 0 0.01 0.01 0.01 0.01 0 0.01 0.01 c 0,0.2 -0.19,0.2 -0.32,0.2 h -5.98 c -0.14,0 -0.33,0 -0.33,-0.2 0,-0.2 0.19,-0.2 0.34,-0.2 z"
   inkscape:connector-curvature="0" />
<path
   id="path4717"
   style="fill:#000000;fill-opacity:1;stroke:#000000;stroke-width:0;stroke-opacity:1"
   d="m 168.45,658.56 h 0.01 0.01 0.03 0.03 0.01 0.02 0.01 0.01 0.02 l 0.01,0.01 h 0.01 0.02 l 0.01,0.01 h 0.01 l 0.01,0.01 h 0.02 l 0.01,0.01 h 0.01 l 0.01,0.01 0.01,0.01 v 0.01 h 0.01 v 0.01 l 0.01,0.01 v 0 0.01 h 0.01 v 0.01 0.01 0 l 0.01,0.01 v 0.01 0 0.01 0.01 0.01 0.01 0.01 0.01 c 0,0.19 -0.19,0.19 -0.34,0.19 h -5.95 c -0.15,0 -0.34,0 -0.34,-0.19 0,-0.2 0.19,-0.2 0.33,-0.2 z"
   inkscape:connector-curvature="0" />
<path
   id="path4719"
   style="fill:#000000;fill-opacity:1;stroke:#000000;stroke-width:0;stroke-opacity:1"
   d="m 177.27,660.94 h 0.01 0.01 0.02 0.01 0.02 0.02 0.02 l 0.02,0.01 h 0.02 0.02 0.02 l 0.02,0.01 h 0.02 l 0.02,0.01 h 0.02 l 0.02,0.01 0.02,0.01 0.02,0.01 0.02,0.01 0.01,0.01 0.02,0.02 0.02,0.01 v 0.01 l 0.01,0.01 h 0.01 l 0.01,0.01 v 0.01 l 0.01,0.01 v 0.01 l 0.01,0.01 0.01,0.01 v 0.01 0.01 l 0.01,0.02 v 0.01 l 0.01,0.01 v 0.01 0.02 0.01 0.02 0.01 0.02 c 0,0.24 -0.21,0.24 -0.38,0.24 h -2.28 c -1.5,0 -2.61,-1.64 -2.61,-2.82 0,-0.88 0.59,-1.57 1.5,-1.57 l 0.01,0.21 c -0.49,0 -0.89,0.36 -0.89,1.08 0,0.3 0.12,1.11 0.47,1.7 0.42,0.68 1.01,0.82 1.35,0.82 0.84,0 0.92,-0.66 0.92,-0.96 0,-0.47 -0.2,-1.28 -0.54,-1.79 -0.39,-0.59 -0.93,-0.85 -1.31,-0.85 v 0 l -0.01,-0.21 c 1.17,0 2.5,1.2 2.5,2.73 0,0.17 0,0.64 -0.31,1.08 z"
   inkscape:connector-curvature="0" />
<path
   id="path4721"
   style="fill:#000000;fill-opacity:1;stroke:#000000;stroke-width:0;stroke-opacity:1"
   d="m 179.23,656.58 -0.02,-0.04 -0.02,-0.03 -0.03,-0.04 -0.02,-0.03 -0.02,-0.03 -0.02,-0.03 -0.03,-0.02 -0.02,-0.03 -0.02,-0.03 -0.03,-0.02 -0.02,-0.02 -0.02,-0.03 -0.03,-0.02 -0.02,-0.02 -0.03,-0.02 -0.02,-0.02 -0.03,-0.01 -0.03,-0.02 -0.02,-0.02 -0.03,-0.01 -0.03,-0.01 -0.03,-0.02 -0.03,-0.01 -0.03,-0.01 -0.03,-0.01 -0.03,-0.01 h -0.04 l -0.03,-0.01 -0.04,-0.01 h -0.03 l -0.04,-0.01 h -0.04 c -0.07,-0.01 -0.16,-0.01 -0.16,-0.15 0,-0.07 0.07,-0.1 0.1,-0.1 0.18,0 0.41,0.03 0.6,0.03 0.23,0 0.51,-0.03 0.72,-0.03 0.04,0 0.14,0 0.14,0.15 0,0.09 -0.09,0.1 -0.12,0.1 -0.05,0.01 -0.31,0.02 -0.31,0.21 0,0.08 0.07,0.2 0.11,0.26 l 0.56,0.87 h 2 l -0.04,0.25 h -1.79 l 1.47,2.27 0.32,-2.27 0.04,-0.25 0.17,-1.16 c -0.03,-0.07 -0.07,-0.18 -0.49,-0.18 -0.08,0 -0.18,0 -0.18,-0.15 0,-0.03 0.02,-0.1 0.11,-0.1 0.21,0 0.7,0.03 0.91,0.03 0.12,0 0.28,-0.01 0.41,-0.01 0.12,0 0.27,-0.02 0.4,-0.02 0.09,0 0.14,0.06 0.14,0.15 0,0.1 -0.09,0.1 -0.2,0.1 -0.41,0 -0.42,0.06 -0.44,0.22 l -0.61,4.29 c -0.03,0.15 -0.04,0.2 -0.17,0.2 -0.14,0 -0.18,-0.06 -0.24,-0.16 z"
   inkscape:connector-curvature="0" />
<path
   id="path4723"
   style="fill:#000000;fill-opacity:1;stroke:#000000;stroke-width:0;stroke-opacity:1"
   d="m 193.7,659.72 -0.01,0.17 -0.01,0.17 -0.02,0.16 -0.03,0.16 -0.04,0.17 -0.04,0.15 -0.06,0.16 -0.06,0.15 -0.06,0.14 -0.08,0.15 -0.08,0.13 -0.08,0.14 -0.1,0.13 -0.1,0.12 -0.1,0.12 -0.11,0.12 -0.12,0.11 -0.12,0.1 -0.12,0.1 -0.13,0.09 -0.14,0.09 -0.14,0.08 -0.14,0.07 -0.15,0.07 -0.15,0.06 -0.15,0.05 -0.16,0.04 -0.16,0.04 -0.16,0.03 -0.17,0.02 -0.16,0.01 -0.17,0.01 0.11,-0.25 h -0.24 v -2.93 -0.25 h 0.24 2.96 c -0.1,-1.7 -1.42,-2.86 -2.96,-2.94 v 2.94 h -0.24 v -2.94 c -1.55,0.08 -2.86,1.24 -2.96,2.94 h 2.96 v 0.25 h -2.96 c 0.1,1.67 1.4,2.85 2.96,2.93 h 0.24 c 1.57,-0.08 2.86,-1.27 2.96,-2.93 h -2.96 v 2.93 l -0.11,0.25 c -1.86,0 -3.34,-1.5 -3.34,-3.31 0,-1.83 1.5,-3.31 3.33,-3.31 1.85,0 3.33,1.5 3.33,3.31 z"
   inkscape:connector-curvature="0" />
<path
   id="path4725"
   style="fill:#000000;fill-opacity:1;stroke:#000000;stroke-width:0;stroke-opacity:1"
   d="m 203.46,666.24 -0.16,0.15 c 0,-0.01 -0.37,-0.48 -0.81,-0.48 -0.23,0 -0.48,0.15 -0.65,0.25 -0.27,0.16 -0.45,0.23 -0.62,0.23 -0.38,0 -0.57,-0.22 -1.08,-0.78 l 0.16,-0.14 c 0,0.01 0.38,0.47 0.82,0.47 0.23,0 0.48,-0.15 0.65,-0.25 0.27,-0.15 0.45,-0.22 0.62,-0.22 0.38,0 0.57,0.21 1.07,0.77 z"
   inkscape:connector-curvature="0" />
<path
   id="path4727"
   style="fill:#000000;fill-opacity:1;stroke:#000000;stroke-width:0;stroke-opacity:1"
   d="m 201.29,661.32 -0.83,1.97 c -0.03,0.08 -0.05,0.12 -0.05,0.13 0,0.06 0.17,0.25 0.59,0.29 0.1,0.01 0.2,0.02 0.2,0.19 0,0.12 -0.12,0.12 -0.15,0.12 -0.41,0 -0.84,-0.03 -1.26,-0.03 -0.25,0 -0.87,0.03 -1.12,0.03 -0.06,0 -0.18,0 -0.18,-0.2 0,-0.11 0.1,-0.11 0.23,-0.11 0.6,0 0.66,-0.1 0.75,-0.32 l 1.18,-2.77 -2.11,-2.25 -0.13,-0.11 c -0.48,-0.53 -0.95,-0.69 -1.46,-0.72 -0.13,-0.01 -0.22,-0.01 -0.22,-0.2 0,-0.01 0,-0.11 0.13,-0.11 0.3,0 0.63,0.04 0.93,0.04 0.37,0 0.76,-0.04 1.12,-0.04 0.06,0 0.18,0 0.18,0.2 0,0.1 -0.1,0.11 -0.12,0.11 -0.09,0.01 -0.4,0.03 -0.4,0.31 0,0.16 0.15,0.32 0.27,0.45 l 1.02,1.07 0.9,0.97 1,-2.37 c 0.04,-0.11 0.05,-0.12 0.05,-0.14 0,-0.08 -0.18,-0.25 -0.57,-0.29 -0.11,-0.01 -0.2,-0.02 -0.2,-0.19 0,-0.12 0.11,-0.12 0.15,-0.12 0.27,0 0.97,0.04 1.25,0.04 0.25,0 0.86,-0.04 1.11,-0.04 0.07,0 0.19,0 0.19,0.19 0,0.12 -0.1,0.12 -0.18,0.12 -0.67,0.01 -0.69,0.04 -0.86,0.44 -0.39,0.92 -1.06,2.47 -1.29,3.07 0.68,0.69 1.73,1.88 2.05,2.16 0.29,0.23 0.67,0.47 1.27,0.5 0.12,0.01 0.22,0.01 0.22,0.2 0,0.01 0,0.11 -0.13,0.11 -0.3,0 -0.63,-0.03 -0.94,-0.03 -0.37,0 -0.75,0.03 -1.11,0.03 -0.06,0 -0.19,0 -0.19,-0.2 0,-0.07 0.05,-0.1 0.12,-0.11 0.09,-0.01 0.4,-0.03 0.4,-0.31 0,-0.13 -0.11,-0.26 -0.19,-0.35 z"
   inkscape:connector-curvature="0" />
<path
   id="path4729"
   style="fill:#000000;fill-opacity:1;stroke:#000000;stroke-width:0;stroke-opacity:1"
   d="m 206.15,656.58 -0.02,-0.04 -0.02,-0.03 -0.03,-0.04 -0.02,-0.03 -0.02,-0.03 -0.02,-0.03 -0.03,-0.02 -0.02,-0.03 -0.02,-0.03 -0.03,-0.02 -0.02,-0.02 -0.02,-0.03 -0.03,-0.02 -0.02,-0.02 -0.03,-0.02 -0.02,-0.02 -0.03,-0.01 -0.03,-0.02 -0.02,-0.02 -0.03,-0.01 -0.03,-0.01 -0.03,-0.02 -0.03,-0.01 -0.03,-0.01 -0.03,-0.01 -0.03,-0.01 h -0.04 l -0.03,-0.01 -0.04,-0.01 h -0.03 l -0.04,-0.01 h -0.04 c -0.07,-0.01 -0.16,-0.01 -0.16,-0.15 0,-0.07 0.06,-0.1 0.1,-0.1 0.18,0 0.41,0.03 0.6,0.03 0.23,0 0.51,-0.03 0.72,-0.03 0.04,0 0.14,0 0.14,0.15 0,0.09 -0.09,0.1 -0.12,0.1 -0.05,0.01 -0.31,0.02 -0.31,0.21 0,0.08 0.07,0.2 0.11,0.26 l 0.56,0.87 h 2 l -0.04,0.25 h -1.79 l 1.46,2.27 0.33,-2.27 0.04,-0.25 0.17,-1.16 c -0.03,-0.07 -0.07,-0.18 -0.49,-0.18 -0.08,0 -0.18,0 -0.18,-0.15 0,-0.03 0.02,-0.1 0.11,-0.1 0.21,0 0.7,0.03 0.91,0.03 0.12,0 0.28,-0.01 0.41,-0.01 0.12,0 0.27,-0.02 0.4,-0.02 0.09,0 0.14,0.06 0.14,0.15 0,0.1 -0.09,0.1 -0.2,0.1 -0.41,0 -0.42,0.06 -0.44,0.22 l -0.61,4.29 c -0.03,0.15 -0.04,0.2 -0.17,0.2 -0.14,0 -0.18,-0.06 -0.24,-0.16 z"
   inkscape:connector-curvature="0" />
</g>    <g
       style="font-style:normal;font-variant:normal;font-weight:normal;font-stretch:normal;letter-spacing:normal;word-spacing:normal;text-anchor:start;fill:none;fill-opacity:1;fill-rule:evenodd;stroke:#000000;stroke-linecap:butt;stroke-linejoin:miter;stroke-miterlimit:10.43299961;stroke-dasharray:none;stroke-dashoffset:0;stroke-opacity:1"
       ns0:jacobian_sqrt="0.3"
       inkscapeversion="0.92.4"
       ns0:alignment="middle center"
       ns0:scale="0.225000000001"
       ns0:preamble="C:\\Users\\MatthewThornton\\AppData\\Roaming\\inkscape\\extensions\\textext\\default_packages.tex"
       ns0:text="$\\varsigma_A$"
       ns0:pdfconverter="pstoedit"
       ns0:texconverter="pdflatex"
       ns0:version="0.10.2"
       word-spacing="normal"
       letter-spacing="normal"
       font-size-adjust="none"
       font-stretch="normal"
       font-weight="normal"
       font-variant="normal"
       font-style="normal"
       stroke-miterlimit="10.433"
       xml:space="preserve"
       transform="matrix(0.3,0,0,-0.3,-19.195295,191.64495)"
       id="g5568">
<path
   id="path5564"
   style="fill:#000000;fill-opacity:1;stroke:#000000;stroke-width:0;stroke-opacity:1"
   d="m 151.02,657.43 0.03,-0.02 0.04,-0.02 0.04,-0.02 0.03,-0.03 0.02,-0.01 0.02,-0.01 0.02,-0.01 0.01,-0.01 0.02,-0.02 0.01,-0.01 0.02,-0.01 0.01,-0.02 0.01,-0.01 0.01,-0.02 0.02,-0.02 0.01,-0.01 0.01,-0.02 0.01,-0.02 0.01,-0.02 v -0.02 l 0.01,-0.02 0.01,-0.02 v -0.02 l 0.01,-0.03 v -0.02 -0.03 -0.02 -0.03 c 0,-0.25 -0.16,-0.53 -0.45,-0.53 -0.06,0 -0.23,0.01 -0.41,0.09 -0.02,0.01 -0.06,0.02 -0.09,0.02 -0.05,0 -0.11,-0.04 -0.11,-0.1 0,-0.15 0.45,-0.23 0.61,-0.23 0.56,0 1.01,0.55 1.01,1.07 0,0.5 -0.23,0.62 -0.98,1.04 l -0.65,0.36 c -0.37,0.2 -0.79,0.43 -0.79,1.05 0,0.9 1.08,1.73 2.16,1.73 0.21,0 0.42,-0.03 0.77,-0.19 0.09,-0.04 0.12,-0.06 0.15,-0.06 0.08,0 0.17,0.09 0.17,0.17 0,0.22 -0.64,0.3 -1.03,0.3 -1.51,0 -2.74,-1.15 -2.74,-2.26 0,-0.84 0.63,-1.19 1.06,-1.42 z"
   inkscape:connector-curvature="0" />
<path
   id="path5566"
   style="fill:#000000;fill-opacity:1;stroke:#000000;stroke-width:0;stroke-opacity:1"
   d="m 153.77,656.58 -0.03,-0.04 -0.02,-0.03 -0.02,-0.04 -0.02,-0.03 -0.03,-0.03 -0.02,-0.03 -0.02,-0.02 -0.03,-0.03 -0.02,-0.03 -0.02,-0.02 -0.03,-0.02 -0.02,-0.03 -0.02,-0.02 -0.03,-0.02 -0.02,-0.02 -0.03,-0.02 -0.03,-0.01 -0.02,-0.02 -0.03,-0.02 -0.03,-0.01 -0.03,-0.01 -0.03,-0.02 -0.03,-0.01 -0.03,-0.01 -0.03,-0.01 -0.03,-0.01 h -0.03 L 153.03,656.01 153,656 h -0.04 l -0.04,-0.01 h -0.03 c -0.07,-0.01 -0.16,-0.01 -0.16,-0.15 0,-0.07 0.06,-0.1 0.09,-0.1 0.19,0 0.42,0.03 0.61,0.03 0.22,0 0.5,-0.03 0.72,-0.03 0.03,0 0.14,0 0.14,0.15 0,0.09 -0.1,0.1 -0.12,0.1 -0.06,0.01 -0.31,0.02 -0.31,0.21 0,0.08 0.07,0.2 0.1,0.26 l 0.56,0.87 h 2 l -0.03,0.25 h -1.8 l 1.47,2.27 0.33,-2.27 0.03,-0.25 0.17,-1.16 c -0.03,-0.07 -0.07,-0.18 -0.48,-0.18 -0.09,0 -0.18,0 -0.18,-0.15 0,-0.03 0.02,-0.1 0.11,-0.1 0.2,0 0.7,0.03 0.9,0.03 0.12,0 0.29,-0.01 0.41,-0.01 0.13,0 0.28,-0.02 0.4,-0.02 0.09,0 0.14,0.06 0.14,0.15 0,0.1 -0.08,0.1 -0.2,0.1 -0.4,0 -0.41,0.06 -0.44,0.22 l -0.61,4.29 c -0.02,0.15 -0.04,0.2 -0.17,0.2 -0.13,0 -0.17,-0.06 -0.24,-0.16 z"
   inkscape:connector-curvature="0" />
</g>    <g
       id="g5602"
       transform="matrix(0.3,0,0,-0.3,-18.372105,206.16303)"
       xml:space="preserve"
       stroke-miterlimit="10.433"
       font-style="normal"
       font-variant="normal"
       font-weight="normal"
       font-stretch="normal"
       font-size-adjust="none"
       letter-spacing="normal"
       word-spacing="normal"
       ns0:version="0.10.2"
       ns0:texconverter="pdflatex"
       ns0:pdfconverter="pstoedit"
       ns0:text="$\\varsigma_A$"
       ns0:preamble="C:\\Users\\MatthewThornton\\AppData\\Roaming\\inkscape\\extensions\\textext\\default_packages.tex"
       ns0:scale="0.225000000001"
       ns0:alignment="middle center"
       inkscapeversion="0.92.4"
       ns0:jacobian_sqrt="0.3"
       style="font-style:normal;font-variant:normal;font-weight:normal;font-stretch:normal;letter-spacing:normal;word-spacing:normal;text-anchor:start;fill:none;fill-opacity:1;fill-rule:evenodd;stroke:#000000;stroke-linecap:butt;stroke-linejoin:miter;stroke-miterlimit:10.43299961;stroke-dasharray:none;stroke-dashoffset:0;stroke-opacity:1">
<path
   inkscape:connector-curvature="0"
   d="m 151.02,657.43 0.03,-0.02 0.04,-0.02 0.04,-0.02 0.03,-0.03 0.02,-0.01 0.02,-0.01 0.02,-0.01 0.01,-0.01 0.02,-0.02 0.01,-0.01 0.02,-0.01 0.01,-0.02 0.01,-0.01 0.01,-0.02 0.02,-0.02 0.01,-0.01 0.01,-0.02 0.01,-0.02 0.01,-0.02 v -0.02 l 0.01,-0.02 0.01,-0.02 v -0.02 l 0.01,-0.03 v -0.02 -0.03 -0.02 -0.03 c 0,-0.25 -0.16,-0.53 -0.45,-0.53 -0.06,0 -0.23,0.01 -0.41,0.09 -0.02,0.01 -0.06,0.02 -0.09,0.02 -0.05,0 -0.11,-0.04 -0.11,-0.1 0,-0.15 0.45,-0.23 0.61,-0.23 0.56,0 1.01,0.55 1.01,1.07 0,0.5 -0.23,0.62 -0.98,1.04 l -0.65,0.36 c -0.37,0.2 -0.79,0.43 -0.79,1.05 0,0.9 1.08,1.73 2.16,1.73 0.21,0 0.42,-0.03 0.77,-0.19 0.09,-0.04 0.12,-0.06 0.15,-0.06 0.08,0 0.17,0.09 0.17,0.17 0,0.22 -0.64,0.3 -1.03,0.3 -1.51,0 -2.74,-1.15 -2.74,-2.26 0,-0.84 0.63,-1.19 1.06,-1.42 z"
   style="fill:#000000;fill-opacity:1;stroke:#000000;stroke-width:0;stroke-opacity:1"
   id="path5598" />
<path
   inkscape:connector-curvature="0"
   d="m 153.77,656.58 -0.03,-0.04 -0.02,-0.03 -0.02,-0.04 -0.02,-0.03 -0.03,-0.03 -0.02,-0.03 -0.02,-0.02 -0.03,-0.03 -0.02,-0.03 -0.02,-0.02 -0.03,-0.02 -0.02,-0.03 -0.02,-0.02 -0.03,-0.02 -0.02,-0.02 -0.03,-0.02 -0.03,-0.01 -0.02,-0.02 -0.03,-0.02 -0.03,-0.01 -0.03,-0.01 -0.03,-0.02 -0.03,-0.01 -0.03,-0.01 -0.03,-0.01 -0.03,-0.01 h -0.03 L 153.03,656.01 153,656 h -0.04 l -0.04,-0.01 h -0.03 c -0.07,-0.01 -0.16,-0.01 -0.16,-0.15 0,-0.07 0.06,-0.1 0.09,-0.1 0.19,0 0.42,0.03 0.61,0.03 0.22,0 0.5,-0.03 0.72,-0.03 0.03,0 0.14,0 0.14,0.15 0,0.09 -0.1,0.1 -0.12,0.1 -0.06,0.01 -0.31,0.02 -0.31,0.21 0,0.08 0.07,0.2 0.1,0.26 l 0.56,0.87 h 2 l -0.03,0.25 h -1.8 l 1.47,2.27 0.33,-2.27 0.03,-0.25 0.17,-1.16 c -0.03,-0.07 -0.07,-0.18 -0.48,-0.18 -0.09,0 -0.18,0 -0.18,-0.15 0,-0.03 0.02,-0.1 0.11,-0.1 0.2,0 0.7,0.03 0.9,0.03 0.12,0 0.29,-0.01 0.41,-0.01 0.13,0 0.28,-0.02 0.4,-0.02 0.09,0 0.14,0.06 0.14,0.15 0,0.1 -0.08,0.1 -0.2,0.1 -0.4,0 -0.41,0.06 -0.44,0.22 l -0.61,4.29 c -0.02,0.15 -0.04,0.2 -0.17,0.2 -0.13,0 -0.17,-0.06 -0.24,-0.16 z"
   style="fill:#000000;fill-opacity:1;stroke:#000000;stroke-width:0;stroke-opacity:1"
   id="path5600" />
</g>  </g>
  <g
     inkscape:label="Players"
     inkscape:groupmode="layer"
     id="layer1"
     transform="translate(20.44708,-105.26021)"
     style="display:inline;filter:url(#filter4062)">
    <g
       id="g1022"
       transform="translate(0,-13.124607)">
      <rect
         y="124.39166"
         x="-20.386105"
         height="9.2200174"
         width="9.2200174"
         id="rect5052"
         style="opacity:1;fill:#f0f0f0;fill-opacity:1;stroke:#000000;stroke-width:0.12195123;stroke-miterlimit:4;stroke-dasharray:none;stroke-dashoffset:0;stroke-opacity:1" />
      <text
         id="text5041-4"
         y="132.38712"
         x="-19.194302"
         style="font-style:normal;font-variant:normal;font-weight:normal;font-stretch:normal;font-size:12.67294502px;line-height:125%;font-family:Garamond;-inkscape-font-specification:Garamond;letter-spacing:0px;word-spacing:0px;fill:#000000;fill-opacity:1;stroke:none;stroke-width:0.32266259px;stroke-linecap:butt;stroke-linejoin:miter;stroke-opacity:1"
         xml:space="preserve"><tspan
           style="font-size:10.32520294px;stroke-width:0.32266259px"
           y="132.38712"
           x="-19.194302"
           id="tspan5039-4"
           sodipodi:role="line">A</tspan></text>
    </g>
    <g
       id="g3671"
       transform="translate(8.4666666)">
      <g
         transform="translate(1.403165,-14.125195)"
         id="g1003">
        <g
           id="g968">
          <rect
             y="124.39166"
             x="15.733847"
             height="9.2200174"
             width="9.2200174"
             id="rect5052-6"
             style="opacity:1;fill:#f0f0f0;fill-opacity:1;stroke:#000000;stroke-width:0.12195123;stroke-miterlimit:4;stroke-dasharray:none;stroke-dashoffset:0;stroke-opacity:1" />
          <path
             sodipodi:nodetypes="cccc"
             inkscape:connector-curvature="0"
             id="rect963"
             d="m 15.733847,124.39166 h 9.220017 l -9.220017,9.22002 z"
             style="opacity:1;fill:#f08c8c;fill-opacity:1;stroke:#000000;stroke-width:0.12195123;stroke-miterlimit:4;stroke-dasharray:none;stroke-dashoffset:0;stroke-opacity:1" />
        </g>
        <text
           xml:space="preserve"
           style="font-style:normal;font-variant:normal;font-weight:normal;font-stretch:normal;font-size:12.67294502px;line-height:125%;font-family:Garamond;-inkscape-font-specification:Garamond;letter-spacing:0px;word-spacing:0px;fill:#000000;fill-opacity:1;stroke:none;stroke-width:0.32266259px;stroke-linecap:butt;stroke-linejoin:miter;stroke-opacity:1"
           x="17.384697"
           y="132.31175"
           id="text5041-4-6"><tspan
             sodipodi:role="line"
             id="tspan5039-4-0"
             x="17.384697"
             y="132.31175"
             style="font-size:10.32520294px;stroke-width:0.32266259px">B</tspan></text>
      </g>
      <g
         transform="translate(-36.950013,12.067219)"
         id="g996">
        <g
           id="g989"
           transform="translate(38.353178,1.122532)">
          <rect
             style="opacity:1;fill:#f0f0f0;fill-opacity:1;stroke:#000000;stroke-width:0.12195123;stroke-miterlimit:4;stroke-dasharray:none;stroke-dashoffset:0;stroke-opacity:1"
             id="rect985"
             width="9.2200174"
             height="9.2200174"
             x="15.733847"
             y="124.39166" />
          <path
             style="opacity:1;fill:#f08c8c;fill-opacity:1;stroke:#000000;stroke-width:0.12195123;stroke-miterlimit:4;stroke-dasharray:none;stroke-dashoffset:0;stroke-opacity:1"
             d="m 15.733847,124.39166 h 9.220017 l -9.220017,9.22002 z"
             id="path987"
             inkscape:connector-curvature="0"
             sodipodi:nodetypes="cccc" />
        </g>
        <text
           xml:space="preserve"
           style="font-style:normal;font-variant:normal;font-weight:normal;font-stretch:normal;font-size:12.67294502px;line-height:125%;font-family:Garamond;-inkscape-font-specification:Garamond;letter-spacing:0px;word-spacing:0px;fill:#000000;fill-opacity:1;stroke:none;stroke-width:0.32266259px;stroke-linecap:butt;stroke-linejoin:miter;stroke-opacity:1"
           x="55.412693"
           y="133.40402"
           id="text5041-4-9"><tspan
             sodipodi:role="line"
             id="tspan5039-4-6"
             x="55.412693"
             y="133.40402"
             style="font-size:10.32520294px;stroke-width:0.32266259px">C</tspan></text>
      </g>
    </g>
    <g
       id="g4069"
       transform="translate(1.0667632)">
      <rect
         style="opacity:1;fill:#f08c8c;fill-opacity:1;stroke:#000000;stroke-width:0.12195123;stroke-miterlimit:4;stroke-dasharray:none;stroke-dashoffset:0;stroke-opacity:1"
         id="rect4047"
         width="9.2200174"
         height="9.2200174"
         x="34.647224"
         y="123.96706" />
      <text
         xml:space="preserve"
         style="font-style:normal;font-variant:normal;font-weight:normal;font-stretch:normal;font-size:12.67294502px;line-height:125%;font-family:Garamond;-inkscape-font-specification:Garamond;letter-spacing:0px;word-spacing:0px;fill:#000000;fill-opacity:1;stroke:none;stroke-width:0.32266259px;stroke-linecap:butt;stroke-linejoin:miter;stroke-opacity:1"
         x="35.866756"
         y="131.96251"
         id="text4051"><tspan
           sodipodi:role="line"
           id="tspan4049"
           x="35.866756"
           y="131.96251"
           style="font-size:10.32520294px;stroke-width:0.32266259px">E</tspan></text>
    </g>
  </g>
</svg>
