<?xml version="1.0" encoding="UTF-8" standalone="no"?>
<!-- Created with Inkscape (http://www.inkscape.org/) -->

<svg
   xmlns:ns0="http://www.iki.fi/pav/software/textext/"
   xmlns:dc="http://purl.org/dc/elements/1.1/"
   xmlns:cc="http://creativecommons.org/ns#"
   xmlns:rdf="http://www.w3.org/1999/02/22-rdf-syntax-ns#"
   xmlns:svg="http://www.w3.org/2000/svg"
   xmlns="http://www.w3.org/2000/svg"
   xmlns:sodipodi="http://sodipodi.sourceforge.net/DTD/sodipodi-0.dtd"
   xmlns:inkscape="http://www.inkscape.org/namespaces/inkscape"
   width="8.6123714cm"
   height="4.3722444cm"
   viewBox="0 0 80.697917 40.967931"
   version="1.1"
   id="svg8"
   inkscape:version="0.92.4 (5da689c313, 2019-01-14)"
   sodipodi:docname="elimsig2.svg">
  <defs
     id="defs2">
    <clipPath
       clipPathUnits="userSpaceOnUse"
       id="clipPath4741">
      <rect
         y="0.017679155"
         x="63.500004"
         height="16.933331"
         width="17.197918"
         id="rect4743"
         style="display:inline;opacity:1;fill:#bdbdbd;fill-opacity:1;stroke:none;stroke-width:0.70667678;stroke-miterlimit:4;stroke-dasharray:none;stroke-dashoffset:0;stroke-opacity:1" />
    </clipPath>
    <clipPath
       clipPathUnits="userSpaceOnUse"
       id="clipPath4747">
      <rect
         y="0.017679155"
         x="63.500004"
         height="16.933331"
         width="17.197918"
         id="rect4749"
         style="display:inline;opacity:1;fill:#bdbdbd;fill-opacity:1;stroke:none;stroke-width:0.70667678;stroke-miterlimit:4;stroke-dasharray:none;stroke-dashoffset:0;stroke-opacity:1" />
    </clipPath>
  </defs>
  <sodipodi:namedview
     id="base"
     pagecolor="#ffffff"
     bordercolor="#666666"
     borderopacity="1.0"
     inkscape:pageopacity="0.0"
     inkscape:pageshadow="2"
     inkscape:zoom="2.8"
     inkscape:cx="271.27918"
     inkscape:cy="99.896244"
     inkscape:document-units="mm"
     inkscape:current-layer="layer1"
     showgrid="false"
     units="cm"
     inkscape:window-width="1920"
     inkscape:window-height="1013"
     inkscape:window-x="-9"
     inkscape:window-y="-9"
     inkscape:window-maximized="1"
     showguides="false"
     fit-margin-top="0"
     fit-margin-left="0"
     fit-margin-right="0"
     fit-margin-bottom="0"
     inkscape:snap-global="false">
    <inkscape:grid
       type="xygrid"
       id="grid4485"
       originx="-1.239567"
       originy="1.5329505" />
  </sodipodi:namedview>
  <metadata
     id="metadata5">
    <rdf:RDF>
      <cc:Work
         rdf:about="">
        <dc:format>image/svg+xml</dc:format>
        <dc:type
           rdf:resource="http://purl.org/dc/dcmitype/StillImage" />
        <dc:title />
      </cc:Work>
    </rdf:RDF>
  </metadata>
  <g
     inkscape:label="Layer 1"
     inkscape:groupmode="layer"
     id="layer1"
     transform="translate(-1.32291,-254.91358)"
     style="display:inline">
    <rect
       style="display:inline;opacity:1;fill:#f0f0f0;fill-opacity:1;stroke:none;stroke-width:0.70667678;stroke-miterlimit:4;stroke-dasharray:none;stroke-dashoffset:0;stroke-opacity:1"
       id="rect4669"
       width="17.197918"
       height="16.933331"
       x="64.822914"
       y="254.93126" />
    <path
       style="fill:none;fill-rule:evenodd;stroke:#000000;stroke-width:0.66500002;stroke-linecap:butt;stroke-linejoin:miter;stroke-miterlimit:4;stroke-dasharray:none;stroke-opacity:1"
       d="M 35.71875,272.11149 H 1.32291"
       id="path4497"
       inkscape:connector-curvature="0" />
    <circle
       r="4.6302085"
       cy="272.11151"
       cx="25.513393"
       id="circle4515"
       style="opacity:1;fill:#f0f0f0;fill-opacity:1;stroke:#bdbdbd;stroke-width:0.66500002;stroke-miterlimit:4;stroke-dasharray:0.665, 0.665;stroke-dashoffset:0;stroke-opacity:1" />
    <circle
       r="4.6302085"
       cy="272.11151"
       cx="11.528275"
       id="circle4517"
       style="opacity:1;fill:#f0f0f0;fill-opacity:1;stroke:#bdbdbd;stroke-width:0.66500002;stroke-miterlimit:4;stroke-dasharray:0.66500005, 0.66500005;stroke-dashoffset:0;stroke-opacity:1" />
    <path
       inkscape:connector-curvature="0"
       id="path4537"
       d="M 18.520843,289.30942 V 254.91358"
       style="fill:none;fill-rule:evenodd;stroke:#000000;stroke-width:0.66500002;stroke-linecap:butt;stroke-linejoin:miter;stroke-miterlimit:4;stroke-dasharray:none;stroke-opacity:1" />
    <circle
       style="opacity:1;fill:#f0f0f0;fill-opacity:1;stroke:#bdbdbd;stroke-width:0.66500002;stroke-miterlimit:4;stroke-dasharray:0.66500005, 0.66500005;stroke-dashoffset:0;stroke-opacity:1"
       id="circle4539"
       cx="279.10406"
       cy="-18.520832"
       r="4.6302085"
       transform="rotate(90)" />
    <circle
       style="opacity:1;fill:#f0f0f0;fill-opacity:1;stroke:#bdbdbd;stroke-width:0.66500002;stroke-miterlimit:4;stroke-dasharray:0.665, 0.665;stroke-dashoffset:0;stroke-opacity:1"
       id="circle4541"
       cx="265.11896"
       cy="-18.520832"
       r="4.6302085"
       transform="rotate(90)" />
    <g
       id="g4577"
       transform="translate(-39.404018,-5.706202)"
       style="fill:none;stroke:#636363;stroke-opacity:1">
      <g
         style="fill:none;stroke:#636363;stroke-width:0.76499999;stroke-miterlimit:4;stroke-dasharray:none;stroke-opacity:1"
         transform="translate(-6.8980647,7.2760204)"
         id="g4572">
        <path
           style="fill:none;fill-rule:evenodd;stroke:#636363;stroke-width:0.76499999;stroke-linecap:butt;stroke-linejoin:miter;stroke-miterlimit:4;stroke-dasharray:none;stroke-opacity:1"
           d="m 54.523065,267.2344 6.614583,6.61458"
           id="path4567"
           inkscape:connector-curvature="0" />
      </g>
      <path
         style="fill:none;fill-rule:evenodd;stroke:#636363;stroke-width:0.76499999;stroke-linecap:butt;stroke-linejoin:miter;stroke-miterlimit:4;stroke-dasharray:none;stroke-opacity:1"
         d="m 54.239582,274.51042 -6.61458,6.61458"
         id="path4569"
         inkscape:connector-curvature="0" />
    </g>
    <g
       style="fill:none;stroke:#636363;stroke-opacity:1"
       transform="translate(-32.411461,1.2863517)"
       id="g4585">
      <g
         id="g4581"
         transform="translate(-6.8980647,7.2760204)"
         style="fill:none;stroke:#636363;stroke-width:0.76499999;stroke-miterlimit:4;stroke-dasharray:none;stroke-opacity:1">
        <path
           inkscape:connector-curvature="0"
           id="path4579"
           d="m 54.523065,267.2344 6.614583,6.61458"
           style="fill:none;fill-rule:evenodd;stroke:#636363;stroke-width:0.76499999;stroke-linecap:butt;stroke-linejoin:miter;stroke-miterlimit:4;stroke-dasharray:none;stroke-opacity:1" />
      </g>
      <path
         inkscape:connector-curvature="0"
         id="path4583"
         d="m 54.239582,274.51042 -6.61458,6.61458"
         style="fill:none;fill-rule:evenodd;stroke:#636363;stroke-width:0.76499999;stroke-linecap:butt;stroke-linejoin:miter;stroke-miterlimit:4;stroke-dasharray:none;stroke-opacity:1" />
    </g>
    <g
       id="content"
       transform="matrix(0.39999999,0,0,-0.39999999,-43.509155,577.7815)"
       xml:space="preserve"
       stroke-miterlimit="10.433"
       font-style="normal"
       font-variant="normal"
       font-weight="normal"
       font-stretch="normal"
       font-size-adjust="none"
       letter-spacing="normal"
       word-spacing="normal"
       ns0:text="(a)"
       ns0:preamble="C:\\Users\\Matthew Thornton\\AppData\\Roaming\\inkscape\\extensions\\default_packages.tex"
       ns0:scale="0.4"
       style="font-style:normal;font-variant:normal;font-weight:normal;font-stretch:normal;letter-spacing:normal;word-spacing:normal;text-anchor:start;fill:#000000;fill-opacity:1;fill-rule:evenodd;stroke:#000000;stroke-linecap:butt;stroke-linejoin:miter;stroke-miterlimit:10.43299961;stroke-dasharray:none;stroke-dashoffset:0;stroke-opacity:1"><path
         inkscape:connector-curvature="0"
         d="m 152.01,704.85 v 0.01 0 0 0.01 0 0 0.01 0 0 l -0.01,0.01 v 0 0.01 0 l -0.01,0.01 v 0 l -0.01,0.01 v 0.01 h -0.01 v 0.01 h -0.01 v 0.01 0 h -0.01 v 0.01 0 l -0.01,0.01 v 0 l -0.01,0.01 v 0 l -0.01,0.01 v 0 l -0.01,0.01 v 0.01 h -0.01 l -0.01,0.01 v 0.01 h -0.01 l -0.01,0.01 v 0.01 h -0.01 l -0.01,0.01 -0.01,0.01 c -1.24,1.25 -1.56,3.13 -1.56,4.65 0,1.73 0.38,3.45 1.6,4.7 0.13,0.12 0.13,0.14 0.13,0.17 0,0.07 -0.04,0.09 -0.1,0.09 -0.1,0 -0.99,-0.67 -1.58,-1.93 -0.51,-1.09 -0.63,-2.2 -0.63,-3.03 0,-0.78 0.11,-1.98 0.66,-3.1 0.6,-1.22 1.45,-1.87 1.55,-1.87 0.06,0 0.1,0.03 0.1,0.1 z"
         font-size-adjust="none"
         font-stretch="normal"
         font-style="normal"
         font-variant="normal"
         font-weight="normal"
         letter-spacing="normal"
         stroke-miterlimit="10.433"
         word-spacing="normal"
         style="font-style:normal;font-variant:normal;font-weight:normal;font-stretch:normal;letter-spacing:normal;word-spacing:normal;text-anchor:start;fill:#000000;fill-opacity:1;fill-rule:evenodd;stroke:#000000;stroke-width:0;stroke-linecap:butt;stroke-linejoin:miter;stroke-miterlimit:10.43299961;stroke-dasharray:none;stroke-dashoffset:0;stroke-opacity:1"
         id="path4604" /><path
         inkscape:connector-curvature="0"
         d="m 155.91,707.99 v -0.04 l 0.01,-0.03 v -0.04 l 0.01,-0.04 0.01,-0.04 0.01,-0.03 0.02,-0.04 0.01,-0.03 0.01,-0.04 0.02,-0.03 0.02,-0.04 0.02,-0.03 0.02,-0.03 0.02,-0.04 0.02,-0.03 0.03,-0.03 0.02,-0.02 0.03,-0.03 0.02,-0.03 0.03,-0.02 0.03,-0.02 0.03,-0.03 0.04,-0.02 0.03,-0.01 0.04,-0.02 0.03,-0.01 0.04,-0.02 0.04,-0.01 h 0.04 l 0.04,-0.01 h 0.04 l 0.04,-0.01 c 0.21,0 0.82,0.14 0.82,0.95 v 0.55 h -0.25 v -0.55 c 0,-0.58 -0.25,-0.64 -0.36,-0.64 -0.32,0 -0.37,0.45 -0.37,0.5 v 1.99 c 0,0.41 0,0.8 -0.35,1.17 -0.39,0.39 -0.89,0.54 -1.37,0.54 -0.82,0 -1.51,-0.46 -1.51,-1.12 0,-0.29 0.2,-0.46 0.46,-0.46 0.28,0 0.46,0.19 0.46,0.45 0,0.12 -0.05,0.45 -0.51,0.46 0.27,0.35 0.76,0.46 1.08,0.46 0.49,0 1.06,-0.39 1.06,-1.27 v -0.37 -0.21 -0.99 c 0,-0.95 -0.72,-1.29 -1.17,-1.29 -0.49,0 -0.9,0.35 -0.9,0.85 0,0.54 0.42,1.37 2.07,1.43 v 0 0.21 c -0.51,-0.03 -1.21,-0.06 -1.84,-0.36 -0.74,-0.34 -0.99,-0.85 -0.99,-1.29 0,-0.81 0.96,-1.05 1.59,-1.05 0.66,0 1.12,0.39 1.31,0.86 z"
         font-size-adjust="none"
         font-stretch="normal"
         font-style="normal"
         font-variant="normal"
         font-weight="normal"
         letter-spacing="normal"
         stroke-miterlimit="10.433"
         word-spacing="normal"
         style="font-style:normal;font-variant:normal;font-weight:normal;font-stretch:normal;letter-spacing:normal;word-spacing:normal;text-anchor:start;fill:#000000;fill-opacity:1;fill-rule:evenodd;stroke:#000000;stroke-width:0;stroke-linecap:butt;stroke-linejoin:miter;stroke-miterlimit:10.43299961;stroke-dasharray:none;stroke-dashoffset:0;stroke-opacity:1"
         id="path4606" /><path
         inkscape:connector-curvature="0"
         d="m 160.45,709.72 v 0.07 0.08 0.08 l -0.01,0.08 v 0.17 l -0.02,0.17 -0.01,0.18 -0.02,0.19 -0.03,0.2 -0.03,0.2 -0.04,0.2 -0.05,0.21 -0.05,0.21 -0.06,0.21 -0.07,0.21 -0.08,0.21 -0.05,0.11 -0.04,0.11 -0.05,0.1 -0.05,0.11 c -0.6,1.22 -1.45,1.86 -1.55,1.86 -0.06,0 -0.1,-0.03 -0.1,-0.09 0,-0.03 0,-0.05 0.19,-0.23 0.97,-0.99 1.54,-2.57 1.54,-4.64 0,-1.7 -0.37,-3.45 -1.6,-4.7 -0.13,-0.12 -0.13,-0.14 -0.13,-0.17 0,-0.06 0.04,-0.1 0.1,-0.1 0.1,0 0.99,0.68 1.58,1.94 0.51,1.09 0.63,2.19 0.63,3.03 z"
         font-size-adjust="none"
         font-stretch="normal"
         font-style="normal"
         font-variant="normal"
         font-weight="normal"
         letter-spacing="normal"
         stroke-miterlimit="10.433"
         word-spacing="normal"
         style="font-style:normal;font-variant:normal;font-weight:normal;font-stretch:normal;letter-spacing:normal;word-spacing:normal;text-anchor:start;fill:#000000;fill-opacity:1;fill-rule:evenodd;stroke:#000000;stroke-width:0;stroke-linecap:butt;stroke-linejoin:miter;stroke-miterlimit:10.43299961;stroke-dasharray:none;stroke-dashoffset:0;stroke-opacity:1"
         id="path4608" /></g>    <g
       style="font-style:normal;font-variant:normal;font-weight:normal;font-stretch:normal;letter-spacing:normal;word-spacing:normal;text-anchor:start;fill:#000000;fill-opacity:1;fill-rule:evenodd;stroke:#000000;stroke-linecap:butt;stroke-linejoin:miter;stroke-miterlimit:10.43299961;stroke-dasharray:none;stroke-dashoffset:0;stroke-opacity:1"
       ns0:scale="0.4"
       ns0:preamble="C:\\Users\\Matthew Thornton\\AppData\\Roaming\\inkscape\\extensions\\default_packages.tex"
       ns0:text="(b)"
       word-spacing="normal"
       letter-spacing="normal"
       font-size-adjust="none"
       font-stretch="normal"
       font-weight="normal"
       font-variant="normal"
       font-style="normal"
       stroke-miterlimit="10.433"
       xml:space="preserve"
       transform="matrix(0.39999999,0,0,-0.39999999,2.6829146,577.7815)"
       id="g4699"><path
         id="path4693"
         style="font-style:normal;font-variant:normal;font-weight:normal;font-stretch:normal;letter-spacing:normal;word-spacing:normal;text-anchor:start;fill:#000000;fill-opacity:1;fill-rule:evenodd;stroke:#000000;stroke-width:0;stroke-linecap:butt;stroke-linejoin:miter;stroke-miterlimit:10.43299961;stroke-dasharray:none;stroke-dashoffset:0;stroke-opacity:1"
         word-spacing="normal"
         stroke-miterlimit="10.433"
         letter-spacing="normal"
         font-weight="normal"
         font-variant="normal"
         font-style="normal"
         font-stretch="normal"
         font-size-adjust="none"
         d="m 152.01,704.85 v 0.01 0 0 0.01 0 0 0.01 0 0 l -0.01,0.01 v 0 0.01 0 l -0.01,0.01 v 0 l -0.01,0.01 v 0.01 h -0.01 v 0.01 h -0.01 v 0.01 0 h -0.01 v 0.01 0 l -0.01,0.01 v 0 l -0.01,0.01 v 0 l -0.01,0.01 v 0 l -0.01,0.01 v 0.01 h -0.01 l -0.01,0.01 v 0.01 h -0.01 l -0.01,0.01 v 0.01 h -0.01 l -0.01,0.01 -0.01,0.01 c -1.24,1.25 -1.56,3.13 -1.56,4.65 0,1.73 0.38,3.45 1.6,4.7 0.13,0.12 0.13,0.14 0.13,0.17 0,0.07 -0.04,0.09 -0.1,0.09 -0.1,0 -0.99,-0.67 -1.58,-1.93 -0.51,-1.09 -0.63,-2.2 -0.63,-3.03 0,-0.78 0.11,-1.98 0.66,-3.1 0.6,-1.22 1.45,-1.87 1.55,-1.87 0.06,0 0.1,0.03 0.1,0.1 z"
         inkscape:connector-curvature="0" /><path
         id="path4695"
         style="font-style:normal;font-variant:normal;font-weight:normal;font-stretch:normal;letter-spacing:normal;word-spacing:normal;text-anchor:start;fill:#000000;fill-opacity:1;fill-rule:evenodd;stroke:#000000;stroke-width:0;stroke-linecap:butt;stroke-linejoin:miter;stroke-miterlimit:10.43299961;stroke-dasharray:none;stroke-dashoffset:0;stroke-opacity:1"
         word-spacing="normal"
         stroke-miterlimit="10.433"
         letter-spacing="normal"
         font-weight="normal"
         font-variant="normal"
         font-style="normal"
         font-stretch="normal"
         font-size-adjust="none"
         d="m 154.3,710.98 v 3.15 l -1.43,-0.11 v -0.31 c 0.69,0 0.77,-0.07 0.77,-0.55 v -5.93 h 0.25 c 0.01,0.01 0.09,0.15 0.36,0.62 0.15,-0.23 0.57,-0.72 1.31,-0.72 l -0.04,0.21 c -0.45,0 -0.81,0.24 -1.05,0.61 -0.14,0.21 -0.14,0.24 -0.14,0.42 v 0 2.04 c 0,0.19 0,0.2 0.11,0.36 0.39,0.56 0.94,0.64 1.18,0.64 0.45,0 0.81,-0.26 1.04,-0.64 0.26,-0.41 0.29,-0.97 0.29,-1.38 0,-0.37 -0.02,-0.96 -0.3,-1.41 -0.21,-0.31 -0.59,-0.64 -1.13,-0.64 l 0.04,-0.21 c 1.18,0 2.22,0.97 2.22,2.25 0,1.26 -0.98,2.25 -2.11,2.25 -0.78,0 -1.21,-0.47 -1.37,-0.65 z"
         inkscape:connector-curvature="0" /><path
         id="path4697"
         style="font-style:normal;font-variant:normal;font-weight:normal;font-stretch:normal;letter-spacing:normal;word-spacing:normal;text-anchor:start;fill:#000000;fill-opacity:1;fill-rule:evenodd;stroke:#000000;stroke-width:0;stroke-linecap:butt;stroke-linejoin:miter;stroke-miterlimit:10.43299961;stroke-dasharray:none;stroke-dashoffset:0;stroke-opacity:1"
         word-spacing="normal"
         stroke-miterlimit="10.433"
         letter-spacing="normal"
         font-weight="normal"
         font-variant="normal"
         font-style="normal"
         font-stretch="normal"
         font-size-adjust="none"
         d="m 161,709.72 v 0.07 0.08 0.08 0.08 l -0.01,0.17 -0.01,0.17 -0.02,0.18 -0.02,0.19 -0.03,0.2 -0.03,0.2 -0.04,0.2 -0.05,0.21 -0.05,0.21 -0.06,0.21 -0.07,0.21 -0.08,0.21 -0.04,0.11 -0.05,0.11 -0.04,0.1 -0.05,0.11 c -0.6,1.22 -1.46,1.86 -1.56,1.86 -0.06,0 -0.1,-0.03 -0.1,-0.09 0,-0.03 0,-0.05 0.19,-0.23 0.98,-0.99 1.55,-2.57 1.55,-4.64 0,-1.7 -0.37,-3.45 -1.61,-4.7 -0.13,-0.12 -0.13,-0.14 -0.13,-0.17 0,-0.06 0.04,-0.1 0.1,-0.1 0.1,0 1,0.68 1.59,1.94 0.5,1.09 0.62,2.19 0.62,3.03 z"
         inkscape:connector-curvature="0" /></g>    <g
       style="font-style:normal;font-variant:normal;font-weight:normal;font-stretch:normal;letter-spacing:normal;word-spacing:normal;text-anchor:start;fill:#000000;fill-opacity:1;fill-rule:evenodd;stroke:#000000;stroke-linecap:butt;stroke-linejoin:miter;stroke-miterlimit:10.43299961;stroke-dasharray:none;stroke-dashoffset:0;stroke-opacity:1"
       ns0:jacobian_sqrt="0.3"
       inkscapeversion="0.92.1"
       ns0:alignment="middle center"
       ns0:scale="0.225000000001"
       ns0:preamble="C:\\Users\\MatthewThornton\\AppData\\Roaming\\inkscape\\extensions\\textext\\default_packages.tex"
       ns0:text="Im($z$)"
       ns0:pdfconverter="pstoedit"
       ns0:texconverter="pdflatex"
       ns0:version="0.10.2"
       word-spacing="normal"
       letter-spacing="normal"
       font-size-adjust="none"
       font-stretch="normal"
       font-weight="normal"
       font-variant="normal"
       font-style="normal"
       stroke-miterlimit="10.433"
       xml:space="preserve"
       transform="matrix(0.3,0,0,-0.3,-25.072963,454.55096)"
       id="g936">
<path
   id="path926"
   style="fill:#000000;fill-opacity:1;stroke:#000000;stroke-width:0;stroke-opacity:1"
   d="m 150.96,663.24 v 0.04 0.03 0.03 0.03 0.03 0.02 l 0.01,0.03 v 0.02 l 0.01,0.02 0.01,0.02 0.01,0.02 0.01,0.02 0.01,0.02 0.01,0.01 0.02,0.02 0.02,0.01 0.02,0.02 0.02,0.01 h 0.02 l 0.01,0.01 h 0.01 l 0.02,0.01 h 0.01 l 0.02,0.01 h 0.02 l 0.01,0.01 h 0.02 0.02 l 0.02,0.01 h 0.02 0.03 0.02 l 0.02,0.01 h 0.03 0.02 0.03 l 0.02,0.01 h 0.03 0.03 0.03 0.03 0.03 0.04 0.03 0.04 0.03 0.26 v 0.31 c -0.35,-0.03 -1.13,-0.03 -1.51,-0.03 -0.39,0 -1.18,0 -1.53,0.03 v -0.31 h 0.26 c 0.79,0 0.82,-0.11 0.82,-0.47 v -5.23 c 0,-0.36 -0.03,-0.47 -0.82,-0.47 h -0.26 v -0.31 c 0.35,0.04 1.14,0.04 1.52,0.04 0.39,0 1.17,0 1.52,-0.04 v 0.31 h -0.26 c -0.78,0 -0.81,0.11 -0.81,0.47 z"
   inkscape:connector-curvature="0" />
<path
   id="path928"
   style="fill:#000000;fill-opacity:1;stroke:#000000;stroke-width:0;stroke-opacity:1"
   d="m 153.41,660.65 v -2.66 c 0,-0.45 -0.11,-0.45 -0.78,-0.45 v -0.31 c 0.35,0.01 0.86,0.04 1.13,0.04 0.25,0 0.77,-0.03 1.11,-0.04 v 0.31 c -0.67,0 -0.77,0 -0.77,0.45 v 1.83 c 0,1.03 0.7,1.59 1.34,1.59 0.63,0 0.74,-0.54 0.74,-1.11 v -2.31 c 0,-0.45 -0.11,-0.45 -0.78,-0.45 v -0.31 c 0.35,0.01 0.86,0.04 1.13,0.04 0.26,0 0.78,-0.03 1.12,-0.04 v 0.31 c -0.67,0 -0.78,0 -0.78,0.45 v 1.83 c 0,1.03 0.7,1.59 1.34,1.59 0.63,0 0.74,-0.54 0.74,-1.11 v -2.31 c 0,-0.45 -0.11,-0.45 -0.78,-0.45 v -0.31 c 0.35,0.01 0.86,0.04 1.13,0.04 0.26,0 0.78,-0.03 1.12,-0.04 v 0.31 c -0.52,0 -0.77,0 -0.78,0.3 v 1.9 c 0,0.85 0,1.16 -0.31,1.52 -0.14,0.17 -0.47,0.37 -1.05,0.37 -0.83,0 -1.27,-0.6 -1.44,-0.98 -0.14,0.87 -0.88,0.98 -1.33,0.98 -0.73,0 -1.2,-0.43 -1.47,-1.05 v 1.05 l -1.41,-0.11 v -0.31 c 0.7,0 0.78,-0.07 0.78,-0.56 z"
   inkscape:connector-curvature="0" />
<path
   id="path930"
   style="fill:#000000;fill-opacity:1;stroke:#000000;stroke-width:0;stroke-opacity:1"
   d="m 163.91,654.85 v 0.01 0 0 0.01 0 0 0.01 0 0 l -0.01,0.01 v 0 0.01 h -0.01 v 0.01 0 l -0.01,0.01 v 0.01 h -0.01 v 0.01 h -0.01 v 0.01 0 h -0.01 v 0.01 0 l -0.01,0.01 v 0 l -0.01,0.01 v 0 l -0.01,0.01 v 0 l -0.01,0.01 -0.01,0.01 v 0 l -0.01,0.01 v 0.01 h -0.01 l -0.01,0.01 v 0.01 h -0.01 l -0.01,0.01 -0.01,0.01 c -1.24,1.25 -1.56,3.13 -1.56,4.65 0,1.73 0.38,3.45 1.6,4.7 0.13,0.12 0.13,0.14 0.13,0.17 0,0.07 -0.04,0.09 -0.1,0.09 -0.1,0 -0.99,-0.67 -1.58,-1.93 -0.51,-1.09 -0.63,-2.2 -0.63,-3.03 0,-0.78 0.11,-1.98 0.66,-3.1 0.59,-1.22 1.45,-1.87 1.55,-1.87 0.06,0 0.1,0.03 0.1,0.1 z"
   inkscape:connector-curvature="0" />
<path
   id="path932"
   style="fill:#000000;fill-opacity:1;stroke:#000000;stroke-width:0;stroke-opacity:1"
   d="m 165.81,658.06 0.05,0.05 0.05,0.05 0.05,0.05 0.04,0.05 0.05,0.05 0.04,0.04 0.04,0.04 0.05,0.05 0.04,0.04 0.03,0.04 0.04,0.03 0.04,0.04 0.04,0.04 0.03,0.03 0.07,0.07 0.07,0.06 0.07,0.06 0.06,0.06 0.07,0.06 0.13,0.11 0.06,0.05 0.07,0.06 c 0,0.01 0.62,0.54 0.98,0.9 0.95,0.92 1.16,1.4 1.16,1.44 0,0.1 -0.09,0.1 -0.11,0.1 -0.07,0 -0.1,-0.02 -0.15,-0.11 -0.29,-0.48 -0.5,-0.64 -0.74,-0.64 -0.24,0 -0.36,0.15 -0.51,0.32 -0.19,0.23 -0.36,0.43 -0.69,0.43 -0.75,0 -1.21,-0.93 -1.21,-1.14 0,-0.05 0.03,-0.11 0.12,-0.11 0.09,0 0.11,0.05 0.13,0.11 0.19,0.46 0.77,0.47 0.85,0.47 0.21,0 0.4,-0.07 0.63,-0.15 0.4,-0.15 0.51,-0.15 0.77,-0.15 -0.36,-0.43 -1.2,-1.14 -1.39,-1.3 l -0.9,-0.83 c -0.68,-0.67 -1.02,-1.24 -1.02,-1.31 0,-0.09 0.1,-0.09 0.12,-0.09 0.08,0 0.09,0.02 0.16,0.13 0.22,0.34 0.52,0.61 0.84,0.61 0.23,0 0.33,-0.09 0.58,-0.38 0.17,-0.21 0.35,-0.36 0.64,-0.36 0.99,0 1.56,1.26 1.56,1.53 0,0.05 -0.03,0.1 -0.11,0.1 -0.09,0 -0.11,-0.06 -0.14,-0.13 -0.23,-0.65 -0.87,-0.84 -1.2,-0.84 -0.2,0 -0.38,0.06 -0.59,0.13 -0.34,0.13 -0.49,0.17 -0.7,0.17 -0.02,0 -0.18,0 -0.27,-0.03 z"
   inkscape:connector-curvature="0" />
<path
   id="path934"
   style="fill:#000000;fill-opacity:1;stroke:#000000;stroke-width:0;stroke-opacity:1"
   d="m 172.44,659.72 v 0.07 0.08 0.08 l -0.01,0.08 v 0.17 l -0.02,0.17 -0.01,0.18 -0.02,0.19 -0.03,0.2 -0.03,0.2 -0.04,0.2 -0.05,0.21 -0.05,0.21 -0.06,0.21 -0.07,0.21 -0.08,0.21 -0.05,0.11 -0.04,0.11 -0.05,0.1 -0.05,0.11 c -0.6,1.22 -1.45,1.86 -1.55,1.86 -0.06,0 -0.1,-0.03 -0.1,-0.09 0,-0.03 0,-0.05 0.19,-0.23 0.97,-0.99 1.54,-2.57 1.54,-4.64 0,-1.7 -0.37,-3.45 -1.6,-4.7 -0.13,-0.12 -0.13,-0.14 -0.13,-0.17 0,-0.06 0.04,-0.1 0.1,-0.1 0.1,0 0.99,0.68 1.58,1.94 0.51,1.09 0.63,2.19 0.63,3.03 z"
   inkscape:connector-curvature="0" />
</g>    <g
       style="font-style:normal;font-variant:normal;font-weight:normal;font-stretch:normal;letter-spacing:normal;word-spacing:normal;text-anchor:start;fill:#000000;fill-opacity:1;fill-rule:evenodd;stroke:#000000;stroke-linecap:butt;stroke-linejoin:miter;stroke-miterlimit:10.43299961;stroke-dasharray:none;stroke-dashoffset:0;stroke-opacity:1"
       ns0:jacobian_sqrt="0.3"
       inkscapeversion="0.92.1"
       ns0:alignment="middle center"
       ns0:scale="0.225000000001"
       ns0:preamble="C:\\Users\\MatthewThornton\\AppData\\Roaming\\inkscape\\extensions\\textext\\default_packages.tex"
       ns0:text="Re($z$)"
       ns0:pdfconverter="pstoedit"
       ns0:texconverter="pdflatex"
       ns0:version="0.10.2"
       word-spacing="normal"
       letter-spacing="normal"
       font-size-adjust="none"
       font-stretch="normal"
       font-weight="normal"
       font-variant="normal"
       font-style="normal"
       stroke-miterlimit="10.433"
       xml:space="preserve"
       transform="matrix(0.3,0,0,-0.3,-12.35913,472.85868)"
       id="g1016">
<path
   id="path1006"
   style="fill:#000000;fill-opacity:1;stroke:#000000;stroke-width:0;stroke-opacity:1"
   d="m 153.05,660.61 0.09,0.03 0.09,0.02 0.09,0.03 0.08,0.03 0.09,0.03 0.08,0.03 0.08,0.04 0.08,0.04 0.08,0.04 0.07,0.04 0.08,0.04 0.07,0.05 0.07,0.04 0.06,0.05 0.06,0.05 0.07,0.05 0.05,0.05 0.06,0.06 0.05,0.05 0.05,0.06 0.04,0.06 0.05,0.06 0.03,0.06 0.04,0.07 0.03,0.06 0.03,0.07 0.02,0.06 0.02,0.07 0.01,0.07 0.02,0.07 v 0.07 0.07 c 0,0.95 -1.13,1.79 -2.6,1.79 h -3.13 v -0.31 h 0.24 c 0.77,0 0.79,-0.11 0.79,-0.47 v -5.23 c 0,-0.36 -0.02,-0.47 -0.79,-0.47 h -0.24 v -0.31 c 0.36,0.04 1.07,0.04 1.46,0.04 0.39,0 1.09,0 1.45,-0.04 v 0.31 h -0.24 c -0.76,0 -0.78,0.11 -0.78,0.47 v 2.51 0.22 2.58 c 0,0.22 0,0.34 0.21,0.37 0.1,0.02 0.39,0.02 0.59,0.02 0.9,0 2.02,-0.04 2.02,-1.48 0,-0.68 -0.24,-1.49 -1.72,-1.49 h -1.1 v -0.22 h 1.14 c 0.16,0 0.58,0 0.93,-0.34 0.38,-0.35 0.38,-0.66 0.38,-1.33 0,-0.64 0,-1.04 0.41,-1.42 0.41,-0.35 0.95,-0.41 1.25,-0.41 0.78,0 0.95,0.81 0.95,1.09 0,0.06 0,0.17 -0.13,0.17 -0.11,0 -0.11,-0.09 -0.12,-0.16 -0.06,-0.71 -0.41,-0.89 -0.66,-0.89 -0.48,0 -0.56,0.51 -0.7,1.43 l -0.13,0.8 c -0.18,0.64 -0.67,0.96 -1.22,1.15 z"
   inkscape:connector-curvature="0" />
<path
   id="path1008"
   style="fill:#000000;fill-opacity:1;stroke:#000000;stroke-width:0;stroke-opacity:1"
   d="m 157.15,659.53 0.01,0.21 c 0.06,1.48 0.9,1.73 1.24,1.73 1.03,0 1.13,-1.34 1.13,-1.73 h -2.37 l -0.01,-0.21 h 2.78 c 0.22,0 0.25,0 0.25,0.21 0,0.98 -0.53,1.94 -1.78,1.94 -1.16,0 -2.08,-1.02 -2.08,-2.26 0,-1.33 1.05,-2.29 2.2,-2.29 1.22,0 1.66,1.1 1.66,1.29 0,0.1 -0.08,0.12 -0.13,0.12 -0.09,0 -0.1,-0.06 -0.12,-0.14 -0.35,-1.03 -1.25,-1.03 -1.35,-1.03 -0.5,0 -0.9,0.3 -1.13,0.67 -0.3,0.48 -0.3,1.13 -0.3,1.49 z"
   inkscape:connector-curvature="0" />
<path
   id="path1010"
   style="fill:#000000;fill-opacity:1;stroke:#000000;stroke-width:0;stroke-opacity:1"
   d="m 163.77,654.85 v 0.01 0 0 0.01 0 0 0.01 0 0 0.01 h -0.01 v 0.01 0 l -0.01,0.01 v 0 l -0.01,0.01 v 0.01 h -0.01 v 0.01 0 l -0.01,0.01 v 0 h -0.01 v 0.01 0 l -0.01,0.01 v 0 l -0.01,0.01 v 0 l -0.01,0.01 v 0 l -0.01,0.01 v 0.01 h -0.01 l -0.01,0.01 v 0.01 h -0.01 l -0.01,0.01 v 0.01 h -0.01 l -0.01,0.01 -0.01,0.01 c -1.24,1.25 -1.56,3.13 -1.56,4.65 0,1.73 0.38,3.45 1.6,4.7 0.13,0.12 0.13,0.14 0.13,0.17 0,0.07 -0.04,0.09 -0.1,0.09 -0.1,0 -0.99,-0.67 -1.58,-1.93 -0.51,-1.09 -0.63,-2.2 -0.63,-3.03 0,-0.78 0.11,-1.98 0.66,-3.1 0.6,-1.22 1.45,-1.87 1.55,-1.87 0.06,0 0.1,0.03 0.1,0.1 z"
   inkscape:connector-curvature="0" />
<path
   id="path1012"
   style="fill:#000000;fill-opacity:1;stroke:#000000;stroke-width:0;stroke-opacity:1"
   d="m 165.67,658.06 0.05,0.05 0.05,0.05 0.05,0.05 0.05,0.05 0.04,0.05 0.04,0.04 0.05,0.04 0.04,0.05 0.04,0.04 0.04,0.04 0.03,0.03 0.04,0.04 0.04,0.04 0.03,0.03 0.07,0.07 0.07,0.06 0.07,0.06 0.07,0.06 0.06,0.06 0.13,0.11 0.06,0.05 0.07,0.06 c 0,0.01 0.62,0.54 0.98,0.9 0.95,0.92 1.17,1.4 1.17,1.44 0,0.1 -0.1,0.1 -0.11,0.1 -0.07,0 -0.1,-0.02 -0.15,-0.11 -0.3,-0.48 -0.51,-0.64 -0.75,-0.64 -0.24,0 -0.36,0.15 -0.51,0.32 -0.19,0.23 -0.36,0.43 -0.69,0.43 -0.75,0 -1.2,-0.93 -1.2,-1.14 0,-0.05 0.02,-0.11 0.11,-0.11 0.09,0 0.11,0.05 0.13,0.11 0.19,0.46 0.77,0.47 0.85,0.47 0.21,0 0.4,-0.07 0.63,-0.15 0.4,-0.15 0.51,-0.15 0.77,-0.15 -0.36,-0.43 -1.2,-1.14 -1.39,-1.3 l -0.9,-0.83 c -0.67,-0.67 -1.02,-1.24 -1.02,-1.31 0,-0.09 0.1,-0.09 0.12,-0.09 0.08,0 0.1,0.02 0.16,0.13 0.23,0.34 0.53,0.61 0.84,0.61 0.23,0 0.33,-0.09 0.58,-0.38 0.17,-0.21 0.35,-0.36 0.64,-0.36 0.99,0 1.57,1.26 1.57,1.53 0,0.05 -0.04,0.1 -0.12,0.1 -0.09,0 -0.11,-0.06 -0.14,-0.13 -0.23,-0.65 -0.87,-0.84 -1.2,-0.84 -0.2,0 -0.38,0.06 -0.59,0.13 -0.34,0.13 -0.49,0.17 -0.7,0.17 -0.02,0 -0.18,0 -0.27,-0.03 z"
   inkscape:connector-curvature="0" />
<path
   id="path1014"
   style="fill:#000000;fill-opacity:1;stroke:#000000;stroke-width:0;stroke-opacity:1"
   d="m 172.3,659.72 v 0.07 0.08 0.08 0.08 l -0.01,0.17 -0.01,0.17 -0.02,0.18 -0.02,0.19 -0.03,0.2 -0.03,0.2 -0.04,0.2 -0.05,0.21 -0.05,0.21 -0.06,0.21 -0.07,0.21 -0.08,0.21 -0.04,0.11 -0.05,0.11 -0.05,0.1 -0.05,0.11 c -0.6,1.22 -1.45,1.86 -1.55,1.86 -0.06,0 -0.1,-0.03 -0.1,-0.09 0,-0.03 0,-0.05 0.19,-0.23 0.97,-0.99 1.54,-2.57 1.54,-4.64 0,-1.7 -0.37,-3.45 -1.6,-4.7 -0.13,-0.12 -0.13,-0.14 -0.13,-0.17 0,-0.06 0.04,-0.1 0.1,-0.1 0.1,0 0.99,0.68 1.58,1.94 0.51,1.09 0.63,2.19 0.63,3.03 z"
   inkscape:connector-curvature="0" />
</g>    <g
       style="font-style:normal;font-variant:normal;font-weight:normal;font-stretch:normal;letter-spacing:normal;word-spacing:normal;text-anchor:start;fill:#000000;fill-opacity:1;fill-rule:evenodd;stroke:#000000;stroke-linecap:butt;stroke-linejoin:miter;stroke-miterlimit:10.43299961;stroke-dasharray:none;stroke-dashoffset:0;stroke-opacity:1"
       ns0:jacobian_sqrt="0.3"
       inkscapeversion="0.92.1"
       ns0:alignment="middle center"
       ns0:scale="0.225000000001"
       ns0:preamble="C:\\Users\\MatthewThornton\\AppData\\Roaming\\inkscape\\extensions\\textext\\default_packages.tex"
       ns0:text="Im($z$)"
       ns0:pdfconverter="pstoedit"
       ns0:texconverter="pdflatex"
       ns0:version="0.10.2"
       word-spacing="normal"
       letter-spacing="normal"
       font-size-adjust="none"
       font-stretch="normal"
       font-weight="normal"
       font-variant="normal"
       font-style="normal"
       stroke-miterlimit="10.433"
       xml:space="preserve"
       transform="matrix(0.3,0,0,-0.3,11.600224,454.55096)"
       id="g1096">
<path
   id="path1086"
   style="fill:#000000;fill-opacity:1;stroke:#000000;stroke-width:0;stroke-opacity:1"
   d="m 150.96,663.24 v 0.04 0.03 0.03 0.03 0.03 0.02 l 0.01,0.03 v 0.02 l 0.01,0.02 0.01,0.02 0.01,0.02 0.01,0.02 0.01,0.02 0.01,0.01 0.02,0.02 0.02,0.01 0.02,0.02 0.02,0.01 h 0.02 l 0.01,0.01 h 0.01 l 0.02,0.01 h 0.01 l 0.02,0.01 h 0.02 l 0.01,0.01 h 0.02 0.02 l 0.02,0.01 h 0.02 0.03 0.02 l 0.02,0.01 h 0.03 0.02 0.03 l 0.02,0.01 h 0.03 0.03 0.03 0.03 0.03 0.04 0.03 0.04 0.03 0.26 v 0.31 c -0.35,-0.03 -1.13,-0.03 -1.51,-0.03 -0.39,0 -1.18,0 -1.53,0.03 v -0.31 h 0.26 c 0.79,0 0.82,-0.11 0.82,-0.47 v -5.23 c 0,-0.36 -0.03,-0.47 -0.82,-0.47 h -0.26 v -0.31 c 0.35,0.04 1.14,0.04 1.52,0.04 0.39,0 1.17,0 1.52,-0.04 v 0.31 h -0.26 c -0.78,0 -0.81,0.11 -0.81,0.47 z"
   inkscape:connector-curvature="0" />
<path
   id="path1088"
   style="fill:#000000;fill-opacity:1;stroke:#000000;stroke-width:0;stroke-opacity:1"
   d="m 153.41,660.65 v -2.66 c 0,-0.45 -0.11,-0.45 -0.78,-0.45 v -0.31 c 0.35,0.01 0.86,0.04 1.13,0.04 0.25,0 0.77,-0.03 1.11,-0.04 v 0.31 c -0.67,0 -0.77,0 -0.77,0.45 v 1.83 c 0,1.03 0.7,1.59 1.34,1.59 0.63,0 0.74,-0.54 0.74,-1.11 v -2.31 c 0,-0.45 -0.11,-0.45 -0.78,-0.45 v -0.31 c 0.35,0.01 0.86,0.04 1.13,0.04 0.26,0 0.78,-0.03 1.12,-0.04 v 0.31 c -0.67,0 -0.78,0 -0.78,0.45 v 1.83 c 0,1.03 0.7,1.59 1.34,1.59 0.63,0 0.74,-0.54 0.74,-1.11 v -2.31 c 0,-0.45 -0.11,-0.45 -0.78,-0.45 v -0.31 c 0.35,0.01 0.86,0.04 1.13,0.04 0.26,0 0.78,-0.03 1.12,-0.04 v 0.31 c -0.52,0 -0.77,0 -0.78,0.3 v 1.9 c 0,0.85 0,1.16 -0.31,1.52 -0.14,0.17 -0.47,0.37 -1.05,0.37 -0.83,0 -1.27,-0.6 -1.44,-0.98 -0.14,0.87 -0.88,0.98 -1.33,0.98 -0.73,0 -1.2,-0.43 -1.47,-1.05 v 1.05 l -1.41,-0.11 v -0.31 c 0.7,0 0.78,-0.07 0.78,-0.56 z"
   inkscape:connector-curvature="0" />
<path
   id="path1090"
   style="fill:#000000;fill-opacity:1;stroke:#000000;stroke-width:0;stroke-opacity:1"
   d="m 163.91,654.85 v 0.01 0 0 0.01 0 0 0.01 0 0 l -0.01,0.01 v 0 0.01 h -0.01 v 0.01 0 l -0.01,0.01 v 0.01 h -0.01 v 0.01 h -0.01 v 0.01 0 h -0.01 v 0.01 0 l -0.01,0.01 v 0 l -0.01,0.01 v 0 l -0.01,0.01 v 0 l -0.01,0.01 -0.01,0.01 v 0 l -0.01,0.01 v 0.01 h -0.01 l -0.01,0.01 v 0.01 h -0.01 l -0.01,0.01 -0.01,0.01 c -1.24,1.25 -1.56,3.13 -1.56,4.65 0,1.73 0.38,3.45 1.6,4.7 0.13,0.12 0.13,0.14 0.13,0.17 0,0.07 -0.04,0.09 -0.1,0.09 -0.1,0 -0.99,-0.67 -1.58,-1.93 -0.51,-1.09 -0.63,-2.2 -0.63,-3.03 0,-0.78 0.11,-1.98 0.66,-3.1 0.59,-1.22 1.45,-1.87 1.55,-1.87 0.06,0 0.1,0.03 0.1,0.1 z"
   inkscape:connector-curvature="0" />
<path
   id="path1092"
   style="fill:#000000;fill-opacity:1;stroke:#000000;stroke-width:0;stroke-opacity:1"
   d="m 165.81,658.06 0.05,0.05 0.05,0.05 0.05,0.05 0.04,0.05 0.05,0.05 0.04,0.04 0.04,0.04 0.05,0.05 0.04,0.04 0.03,0.04 0.04,0.03 0.04,0.04 0.04,0.04 0.03,0.03 0.07,0.07 0.07,0.06 0.07,0.06 0.06,0.06 0.07,0.06 0.13,0.11 0.06,0.05 0.07,0.06 c 0,0.01 0.62,0.54 0.98,0.9 0.95,0.92 1.16,1.4 1.16,1.44 0,0.1 -0.09,0.1 -0.11,0.1 -0.07,0 -0.1,-0.02 -0.15,-0.11 -0.29,-0.48 -0.5,-0.64 -0.74,-0.64 -0.24,0 -0.36,0.15 -0.51,0.32 -0.19,0.23 -0.36,0.43 -0.69,0.43 -0.75,0 -1.21,-0.93 -1.21,-1.14 0,-0.05 0.03,-0.11 0.12,-0.11 0.09,0 0.11,0.05 0.13,0.11 0.19,0.46 0.77,0.47 0.85,0.47 0.21,0 0.4,-0.07 0.63,-0.15 0.4,-0.15 0.51,-0.15 0.77,-0.15 -0.36,-0.43 -1.2,-1.14 -1.39,-1.3 l -0.9,-0.83 c -0.68,-0.67 -1.02,-1.24 -1.02,-1.31 0,-0.09 0.1,-0.09 0.12,-0.09 0.08,0 0.09,0.02 0.16,0.13 0.22,0.34 0.52,0.61 0.84,0.61 0.23,0 0.33,-0.09 0.58,-0.38 0.17,-0.21 0.35,-0.36 0.64,-0.36 0.99,0 1.56,1.26 1.56,1.53 0,0.05 -0.03,0.1 -0.11,0.1 -0.09,0 -0.11,-0.06 -0.14,-0.13 -0.23,-0.65 -0.87,-0.84 -1.2,-0.84 -0.2,0 -0.38,0.06 -0.59,0.13 -0.34,0.13 -0.49,0.17 -0.7,0.17 -0.02,0 -0.18,0 -0.27,-0.03 z"
   inkscape:connector-curvature="0" />
<path
   id="path1094"
   style="fill:#000000;fill-opacity:1;stroke:#000000;stroke-width:0;stroke-opacity:1"
   d="m 172.44,659.72 v 0.07 0.08 0.08 l -0.01,0.08 v 0.17 l -0.02,0.17 -0.01,0.18 -0.02,0.19 -0.03,0.2 -0.03,0.2 -0.04,0.2 -0.05,0.21 -0.05,0.21 -0.06,0.21 -0.07,0.21 -0.08,0.21 -0.05,0.11 -0.04,0.11 -0.05,0.1 -0.05,0.11 c -0.6,1.22 -1.45,1.86 -1.55,1.86 -0.06,0 -0.1,-0.03 -0.1,-0.09 0,-0.03 0,-0.05 0.19,-0.23 0.97,-0.99 1.54,-2.57 1.54,-4.64 0,-1.7 -0.37,-3.45 -1.6,-4.7 -0.13,-0.12 -0.13,-0.14 -0.13,-0.17 0,-0.06 0.04,-0.1 0.1,-0.1 0.1,0 0.99,0.68 1.58,1.94 0.51,1.09 0.63,2.19 0.63,3.03 z"
   inkscape:connector-curvature="0" />
</g>    <g
       style="font-style:normal;font-variant:normal;font-weight:normal;font-stretch:normal;letter-spacing:normal;word-spacing:normal;text-anchor:start;fill:#000000;fill-opacity:1;fill-rule:evenodd;stroke:#000000;stroke-linecap:butt;stroke-linejoin:miter;stroke-miterlimit:10.43299961;stroke-dasharray:none;stroke-dashoffset:0;stroke-opacity:1"
       ns0:jacobian_sqrt="0.3"
       inkscapeversion="0.92.1"
       ns0:alignment="middle center"
       ns0:scale="0.225000000001"
       ns0:preamble="C:\\Users\\MatthewThornton\\AppData\\Roaming\\inkscape\\extensions\\textext\\default_packages.tex"
       ns0:text="Re($z$)"
       ns0:pdfconverter="pstoedit"
       ns0:texconverter="pdflatex"
       ns0:version="0.10.2"
       word-spacing="normal"
       letter-spacing="normal"
       font-size-adjust="none"
       font-stretch="normal"
       font-weight="normal"
       font-variant="normal"
       font-style="normal"
       stroke-miterlimit="10.433"
       xml:space="preserve"
       transform="matrix(0.3,0,0,-0.3,29.375609,472.85868)"
       id="g1176">
<path
   id="path1166"
   style="fill:#000000;fill-opacity:1;stroke:#000000;stroke-width:0;stroke-opacity:1"
   d="m 153.05,660.61 0.09,0.03 0.09,0.02 0.09,0.03 0.08,0.03 0.09,0.03 0.08,0.03 0.08,0.04 0.08,0.04 0.08,0.04 0.07,0.04 0.08,0.04 0.07,0.05 0.07,0.04 0.06,0.05 0.06,0.05 0.07,0.05 0.05,0.05 0.06,0.06 0.05,0.05 0.05,0.06 0.04,0.06 0.05,0.06 0.03,0.06 0.04,0.07 0.03,0.06 0.03,0.07 0.02,0.06 0.02,0.07 0.01,0.07 0.02,0.07 v 0.07 0.07 c 0,0.95 -1.13,1.79 -2.6,1.79 h -3.13 v -0.31 h 0.24 c 0.77,0 0.79,-0.11 0.79,-0.47 v -5.23 c 0,-0.36 -0.02,-0.47 -0.79,-0.47 h -0.24 v -0.31 c 0.36,0.04 1.07,0.04 1.46,0.04 0.39,0 1.09,0 1.45,-0.04 v 0.31 h -0.24 c -0.76,0 -0.78,0.11 -0.78,0.47 v 2.51 0.22 2.58 c 0,0.22 0,0.34 0.21,0.37 0.1,0.02 0.39,0.02 0.59,0.02 0.9,0 2.02,-0.04 2.02,-1.48 0,-0.68 -0.24,-1.49 -1.72,-1.49 h -1.1 v -0.22 h 1.14 c 0.16,0 0.58,0 0.93,-0.34 0.38,-0.35 0.38,-0.66 0.38,-1.33 0,-0.64 0,-1.04 0.41,-1.42 0.41,-0.35 0.95,-0.41 1.25,-0.41 0.78,0 0.95,0.81 0.95,1.09 0,0.06 0,0.17 -0.13,0.17 -0.11,0 -0.11,-0.09 -0.12,-0.16 -0.06,-0.71 -0.41,-0.89 -0.66,-0.89 -0.48,0 -0.56,0.51 -0.7,1.43 l -0.13,0.8 c -0.18,0.64 -0.67,0.96 -1.22,1.15 z"
   inkscape:connector-curvature="0" />
<path
   id="path1168"
   style="fill:#000000;fill-opacity:1;stroke:#000000;stroke-width:0;stroke-opacity:1"
   d="m 157.15,659.53 0.01,0.21 c 0.06,1.48 0.9,1.73 1.24,1.73 1.03,0 1.13,-1.34 1.13,-1.73 h -2.37 l -0.01,-0.21 h 2.78 c 0.22,0 0.25,0 0.25,0.21 0,0.98 -0.53,1.94 -1.78,1.94 -1.16,0 -2.08,-1.02 -2.08,-2.26 0,-1.33 1.05,-2.29 2.2,-2.29 1.22,0 1.66,1.1 1.66,1.29 0,0.1 -0.08,0.12 -0.13,0.12 -0.09,0 -0.1,-0.06 -0.12,-0.14 -0.35,-1.03 -1.25,-1.03 -1.35,-1.03 -0.5,0 -0.9,0.3 -1.13,0.67 -0.3,0.48 -0.3,1.13 -0.3,1.49 z"
   inkscape:connector-curvature="0" />
<path
   id="path1170"
   style="fill:#000000;fill-opacity:1;stroke:#000000;stroke-width:0;stroke-opacity:1"
   d="m 163.77,654.85 v 0.01 0 0 0.01 0 0 0.01 0 0 0.01 h -0.01 v 0.01 0 l -0.01,0.01 v 0 l -0.01,0.01 v 0.01 h -0.01 v 0.01 0 l -0.01,0.01 v 0 h -0.01 v 0.01 0 l -0.01,0.01 v 0 l -0.01,0.01 v 0 l -0.01,0.01 v 0 l -0.01,0.01 v 0.01 h -0.01 l -0.01,0.01 v 0.01 h -0.01 l -0.01,0.01 v 0.01 h -0.01 l -0.01,0.01 -0.01,0.01 c -1.24,1.25 -1.56,3.13 -1.56,4.65 0,1.73 0.38,3.45 1.6,4.7 0.13,0.12 0.13,0.14 0.13,0.17 0,0.07 -0.04,0.09 -0.1,0.09 -0.1,0 -0.99,-0.67 -1.58,-1.93 -0.51,-1.09 -0.63,-2.2 -0.63,-3.03 0,-0.78 0.11,-1.98 0.66,-3.1 0.6,-1.22 1.45,-1.87 1.55,-1.87 0.06,0 0.1,0.03 0.1,0.1 z"
   inkscape:connector-curvature="0" />
<path
   id="path1172"
   style="fill:#000000;fill-opacity:1;stroke:#000000;stroke-width:0;stroke-opacity:1"
   d="m 165.67,658.06 0.05,0.05 0.05,0.05 0.05,0.05 0.05,0.05 0.04,0.05 0.04,0.04 0.05,0.04 0.04,0.05 0.04,0.04 0.04,0.04 0.03,0.03 0.04,0.04 0.04,0.04 0.03,0.03 0.07,0.07 0.07,0.06 0.07,0.06 0.07,0.06 0.06,0.06 0.13,0.11 0.06,0.05 0.07,0.06 c 0,0.01 0.62,0.54 0.98,0.9 0.95,0.92 1.17,1.4 1.17,1.44 0,0.1 -0.1,0.1 -0.11,0.1 -0.07,0 -0.1,-0.02 -0.15,-0.11 -0.3,-0.48 -0.51,-0.64 -0.75,-0.64 -0.24,0 -0.36,0.15 -0.51,0.32 -0.19,0.23 -0.36,0.43 -0.69,0.43 -0.75,0 -1.2,-0.93 -1.2,-1.14 0,-0.05 0.02,-0.11 0.11,-0.11 0.09,0 0.11,0.05 0.13,0.11 0.19,0.46 0.77,0.47 0.85,0.47 0.21,0 0.4,-0.07 0.63,-0.15 0.4,-0.15 0.51,-0.15 0.77,-0.15 -0.36,-0.43 -1.2,-1.14 -1.39,-1.3 l -0.9,-0.83 c -0.67,-0.67 -1.02,-1.24 -1.02,-1.31 0,-0.09 0.1,-0.09 0.12,-0.09 0.08,0 0.1,0.02 0.16,0.13 0.23,0.34 0.53,0.61 0.84,0.61 0.23,0 0.33,-0.09 0.58,-0.38 0.17,-0.21 0.35,-0.36 0.64,-0.36 0.99,0 1.57,1.26 1.57,1.53 0,0.05 -0.04,0.1 -0.12,0.1 -0.09,0 -0.11,-0.06 -0.14,-0.13 -0.23,-0.65 -0.87,-0.84 -1.2,-0.84 -0.2,0 -0.38,0.06 -0.59,0.13 -0.34,0.13 -0.49,0.17 -0.7,0.17 -0.02,0 -0.18,0 -0.27,-0.03 z"
   inkscape:connector-curvature="0" />
<path
   id="path1174"
   style="fill:#000000;fill-opacity:1;stroke:#000000;stroke-width:0;stroke-opacity:1"
   d="m 172.3,659.72 v 0.07 0.08 0.08 0.08 l -0.01,0.17 -0.01,0.17 -0.02,0.18 -0.02,0.19 -0.03,0.2 -0.03,0.2 -0.04,0.2 -0.05,0.21 -0.05,0.21 -0.06,0.21 -0.07,0.21 -0.08,0.21 -0.04,0.11 -0.05,0.11 -0.05,0.1 -0.05,0.11 c -0.6,1.22 -1.45,1.86 -1.55,1.86 -0.06,0 -0.1,-0.03 -0.1,-0.09 0,-0.03 0,-0.05 0.19,-0.23 0.97,-0.99 1.54,-2.57 1.54,-4.64 0,-1.7 -0.37,-3.45 -1.6,-4.7 -0.13,-0.12 -0.13,-0.14 -0.13,-0.17 0,-0.06 0.04,-0.1 0.1,-0.1 0.1,0 0.99,0.68 1.58,1.94 0.51,1.09 0.63,2.19 0.63,3.03 z"
   inkscape:connector-curvature="0" />
</g>  </g>
  <g
     inkscape:groupmode="layer"
     id="layer2"
     inkscape:label="Layer 2"
     style="display:inline">
    <path
       style="fill:none;fill-rule:evenodd;stroke:#bdbdbd;stroke-width:0.26458332px;stroke-linecap:butt;stroke-linejoin:miter;stroke-opacity:1"
       d="m 63.500004,12.982257 c 1.859043,0.497197 3.484107,1.354757 3.96875,3.96875"
       id="path4672"
       inkscape:connector-curvature="0"
       sodipodi:nodetypes="cc" />
    <path
       style="fill:none;fill-rule:evenodd;stroke:#bdbdbd;stroke-width:0.26458332px;stroke-linecap:butt;stroke-linejoin:miter;stroke-opacity:1"
       d="m 63.500007,9.013507 c 3.168032,0.3250139 6.9249,2.76699 7.9375,7.9375"
       id="path4674"
       inkscape:connector-curvature="0"
       sodipodi:nodetypes="cc" />
    <path
       style="fill:none;fill-rule:evenodd;stroke:#bdbdbd;stroke-width:0.26458332px;stroke-linecap:butt;stroke-linejoin:miter;stroke-opacity:1"
       d="M 63.500004,5.0447569 C 69.517953,6.4400482 74.064706,9.682921 75.406254,16.951007"
       id="path4676"
       inkscape:connector-curvature="0"
       sodipodi:nodetypes="cc" />
    <path
       style="fill:none;fill-rule:evenodd;stroke:#bdbdbd;stroke-width:0.26458332px;stroke-linecap:butt;stroke-linejoin:miter;stroke-opacity:1"
       d="m 63.500004,1.076007 c 7.869033,1.3028803 12.817176,5.2123687 15.875,15.875"
       id="path4678"
       inkscape:connector-curvature="0"
       sodipodi:nodetypes="cc" />
    <path
       style="fill:none;fill-rule:evenodd;stroke:#bdbdbd;stroke-width:0.26458332px;stroke-linecap:butt;stroke-linejoin:miter;stroke-opacity:1"
       d="m 63.500004,-2.892743 c 9.602319,2.38450888 17.490305,7.1880698 19.84375,19.84375"
       id="path4680"
       inkscape:connector-curvature="0"
       sodipodi:nodetypes="cc"
       clip-path="url(#clipPath4747)" />
    <path
       style="fill:none;fill-rule:evenodd;stroke:#bdbdbd;stroke-width:0.26458332px;stroke-linecap:butt;stroke-linejoin:miter;stroke-opacity:1"
       d="m 63.500004,-6.8614929 c 12.992288,2.6659494 21.180147,10.3423544 23.8125,23.8124999"
       id="path4682"
       inkscape:connector-curvature="0"
       sodipodi:nodetypes="cc"
       clip-path="url(#clipPath4741)" />
  </g>
  <g
     inkscape:groupmode="layer"
     id="layer3"
     inkscape:label="Layer 3"
     style="display:inline">
    <path
       transform="translate(-1.32291,-254.91358)"
       inkscape:connector-curvature="0"
       id="path4665"
       d="M 82.020833,272.11149 H 47.624993"
       style="display:inline;fill:none;fill-rule:evenodd;stroke:#000000;stroke-width:0.66500002;stroke-linecap:butt;stroke-linejoin:miter;stroke-miterlimit:4;stroke-dasharray:none;stroke-opacity:1" />
    <path
       transform="translate(-1.32291,-254.91358)"
       style="display:inline;fill:none;fill-rule:evenodd;stroke:#000000;stroke-width:0.66500002;stroke-linecap:butt;stroke-linejoin:miter;stroke-miterlimit:4;stroke-dasharray:none;stroke-opacity:1"
       d="M 64.822913,289.30942 V 254.91358"
       id="path4667"
       inkscape:connector-curvature="0" />
  </g>
</svg>
