<?xml version="1.0" encoding="UTF-8" standalone="no"?>
<svg
   xmlns:ns0="http://www.iki.fi/pav/software/textext/"
   xmlns:dc="http://purl.org/dc/elements/1.1/"
   xmlns:cc="http://creativecommons.org/ns#"
   xmlns:rdf="http://www.w3.org/1999/02/22-rdf-syntax-ns#"
   xmlns:svg="http://www.w3.org/2000/svg"
   xmlns="http://www.w3.org/2000/svg"
   xmlns:sodipodi="http://sodipodi.sourceforge.net/DTD/sodipodi-0.dtd"
   xmlns:inkscape="http://www.inkscape.org/namespaces/inkscape"
   width="911.23505"
   height="771.052"
   viewBox="0 0 241.0976 204.00751"
   version="1.1"
   id="svg8"
   inkscape:version="1.0 (4035a4fb49, 2020-05-01)"
   sodipodi:docname="TF-QKD.svg">
  <defs
     id="defs2">
    <marker
       inkscape:stockid="Arrow2Mend"
       orient="auto"
       refY="0"
       refX="0"
       id="marker6238"
       style="overflow:visible"
       inkscape:isstock="true">
      <path
         inkscape:connector-curvature="0"
         id="path6236"
         style="fill:#000000;fill-opacity:1;fill-rule:evenodd;stroke:#000000;stroke-width:0.625;stroke-linejoin:round;stroke-opacity:1"
         d="M 8.7185878,4.0337352 -2.2072895,0.01601326 8.7185884,-4.0017078 c -1.7454984,2.3720609 -1.7354408,5.6174519 -6e-7,8.035443 z"
         transform="scale(-0.6)" />
    </marker>
    <marker
       inkscape:isstock="true"
       style="overflow:visible"
       id="marker6088"
       refX="0"
       refY="0"
       orient="auto"
       inkscape:stockid="Arrow2Mend">
      <path
         transform="scale(-0.6)"
         d="M 8.7185878,4.0337352 -2.2072895,0.01601326 8.7185884,-4.0017078 c -1.7454984,2.3720609 -1.7354408,5.6174519 -6e-7,8.035443 z"
         style="fill:#000000;fill-opacity:1;fill-rule:evenodd;stroke:#000000;stroke-width:0.625;stroke-linejoin:round;stroke-opacity:1"
         id="path6086"
         inkscape:connector-curvature="0" />
    </marker>
    <marker
       inkscape:collect="always"
       inkscape:stockid="Arrow2Mend"
       orient="auto"
       refY="0"
       refX="0"
       id="marker5836"
       style="overflow:visible"
       inkscape:isstock="true">
      <path
         inkscape:connector-curvature="0"
         id="path5834"
         style="fill:#000000;fill-opacity:1;fill-rule:evenodd;stroke:#000000;stroke-width:0.625;stroke-linejoin:round;stroke-opacity:1"
         d="M 8.7185878,4.0337352 -2.2072895,0.01601326 8.7185884,-4.0017078 c -1.7454984,2.3720609 -1.7354408,5.6174519 -6e-7,8.035443 z"
         transform="scale(-0.6)" />
    </marker>
    <marker
       inkscape:collect="always"
       inkscape:isstock="true"
       style="overflow:visible"
       id="Arrow2Mend-0-1"
       refX="0"
       refY="0"
       orient="auto"
       inkscape:stockid="Arrow2Mend">
      <path
         transform="scale(-0.6)"
         d="M 8.7185878,4.0337352 -2.2072895,0.01601326 8.7185884,-4.0017078 c -1.7454984,2.3720609 -1.7354408,5.6174519 -6e-7,8.035443 z"
         style="fill:#000000;fill-opacity:1;fill-rule:evenodd;stroke:#000000;stroke-width:0.625;stroke-linejoin:round;stroke-opacity:1"
         id="path4782-7-2"
         inkscape:connector-curvature="0" />
    </marker>
  </defs>
  <sodipodi:namedview
     inkscape:document-rotation="0"
     fit-margin-bottom="0"
     fit-margin-right="0"
     fit-margin-left="0"
     fit-margin-top="0"
     inkscape:snap-global="false"
     units="px"
     inkscape:window-maximized="1"
     inkscape:window-y="43"
     inkscape:window-x="1912"
     inkscape:window-height="1027"
     inkscape:window-width="1920"
     showgrid="false"
     inkscape:current-layer="layer5"
     inkscape:document-units="mm"
     inkscape:cy="511.65607"
     inkscape:cx="590.73824"
     inkscape:zoom="0.49497475"
     inkscape:pageshadow="2"
     inkscape:pageopacity="0.0"
     borderopacity="1.0"
     bordercolor="#666666"
     pagecolor="#ffffff"
     id="base" />
  <metadata
     id="metadata5">
    <rdf:RDF>
      <cc:Work
         rdf:about="">
        <dc:format>image/svg+xml</dc:format>
        <dc:type
           rdf:resource="http://purl.org/dc/dcmitype/StillImage" />
        <dc:title></dc:title>
      </cc:Work>
    </rdf:RDF>
  </metadata>
  <g
     sodipodi:insensitive="true"
     transform="translate(-53.447526,-72.21377)"
     id="layer1"
     inkscape:groupmode="layer"
     inkscape:label="Layer 1" />
  <g
     transform="translate(-53.447526,-39.797096)"
     inkscape:label="Arrows"
     id="layer3"
     inkscape:groupmode="layer" />
  <g
     transform="translate(-53.447526,-39.797096)"
     inkscape:label="BS"
     id="layer2"
     inkscape:groupmode="layer" />
  <g
     transform="translate(-53.447526,-39.797096)"
     inkscape:label="States"
     id="layer4"
     inkscape:groupmode="layer" />
  <g
     transform="translate(-53.447526,-39.797096)"
     inkscape:label="Detector"
     id="layer5"
     inkscape:groupmode="layer">
    <g
       id="g932">
      <path
         style="fill:none;stroke:#000000;stroke-width:1.372;stroke-linecap:butt;stroke-linejoin:miter;stroke-miterlimit:4;stroke-dasharray:none;stroke-opacity:1;marker-end:url(#Arrow2Mend-0-1)"
         d="M 88.512037,40.768572 160.25131,111.96697"
         id="path4753-4-5"
         inkscape:connector-curvature="0" />
      <path
         inkscape:connector-curvature="0"
         id="path5832"
         d="M 248.27267,40.280332 177.07428,112.0196"
         style="fill:none;stroke:#000000;stroke-width:1.372;stroke-linecap:butt;stroke-linejoin:miter;stroke-miterlimit:4;stroke-dasharray:none;stroke-opacity:1;marker-end:url(#marker5836)" />
      <path
         style="fill:none;stroke:#000000;stroke-width:1.372;stroke-linecap:butt;stroke-linejoin:miter;stroke-miterlimit:4;stroke-dasharray:none;stroke-opacity:1;marker-end:url(#marker6088)"
         d="M 162.69792,126.50517 91.499523,198.24444"
         id="path6084"
         inkscape:connector-curvature="0" />
      <rect
         style="fill:#bdbdbd;fill-opacity:1;stroke:#636363;stroke-width:0.744;stroke-miterlimit:4;stroke-dasharray:none;stroke-dashoffset:0;stroke-opacity:1"
         id="rect816"
         width="12.851191"
         height="92.98214"
         x="-174.74019"
         y="-167.53308"
         transform="rotate(179.7832)" />
      <path
         inkscape:connector-curvature="0"
         id="path105"
         d="m 175.12529,126.50517 71.19842,71.73927"
         style="fill:none;stroke:#000000;stroke-width:1.372;stroke-linecap:butt;stroke-linejoin:miter;stroke-miterlimit:4;stroke-dasharray:none;stroke-opacity:1;marker-end:url(#marker6088)" />
      <g
         style="font-style:normal;font-variant:normal;font-weight:normal;font-stretch:normal;letter-spacing:normal;word-spacing:normal;text-anchor:start;fill:none;fill-opacity:1;fill-rule:evenodd;stroke:#000000;stroke-linecap:butt;stroke-linejoin:miter;stroke-miterlimit:10.433;stroke-dasharray:none;stroke-dashoffset:0;stroke-opacity:1"
         ns0:jacobian_sqrt="2.116667"
         inkscapeversion="0.92.4"
         ns0:alignment="middle center"
         ns0:scale="6.0"
         ns0:preamble="C:\\Users\\MatthewThornton\\AppData\\Roaming\\inkscape\\extensions\\textext\\default_packages.tex"
         ns0:text="$\\ket{\\alpha}$"
         ns0:pdfconverter="pstoedit"
         ns0:texconverter="pdflatex"
         ns0:version="0.10.2"
         word-spacing="normal"
         letter-spacing="normal"
         font-size-adjust="none"
         font-stretch="normal"
         font-weight="normal"
         font-variant="normal"
         font-style="normal"
         stroke-miterlimit="10.433"
         xml:space="preserve"
         transform="matrix(2.116667,0,0,-2.116667,-243.95374,1463.1581)"
         id="content">
<path
   id="path6616"
   style="fill:#000000;fill-opacity:1;stroke:#000000;stroke-width:0;stroke-opacity:1"
   d="m 150.3,664.33 v 0.03 0.03 0.04 0.01 l -0.01,0.02 v 0.01 0.02 0.02 0.01 l -0.01,0.01 v 0.02 0.01 l -0.01,0.01 v 0.02 l -0.01,0.01 v 0.01 l -0.01,0.01 -0.01,0.01 -0.01,0.01 -0.01,0.01 h -0.01 l -0.01,0.01 v 0 l -0.01,0.01 h -0.01 v 0 h -0.01 l -0.01,0.01 v 0 h -0.01 -0.01 -0.01 -0.01 v 0 h -0.01 -0.01 c -0.2,0 -0.2,-0.17 -0.2,-0.35 v -9.22 c 0,-0.18 0,-0.36 0.2,-0.36 0.2,0 0.2,0.18 0.2,0.36 z"
   inkscape:connector-curvature="0" />
<path
   id="path6618"
   style="fill:#000000;fill-opacity:1;stroke:#000000;stroke-width:0;stroke-opacity:1"
   d="m 156.24,659.58 v 0.07 l -0.01,0.07 v 0.07 0.07 l -0.02,0.13 -0.01,0.12 -0.03,0.12 -0.02,0.12 -0.03,0.1 -0.04,0.11 -0.04,0.09 -0.04,0.1 -0.05,0.08 -0.05,0.08 -0.05,0.08 -0.05,0.07 -0.06,0.07 -0.06,0.06 -0.06,0.05 -0.06,0.06 -0.07,0.05 -0.07,0.04 -0.07,0.04 -0.07,0.04 -0.07,0.03 -0.07,0.03 -0.07,0.02 -0.07,0.02 -0.07,0.02 -0.08,0.01 -0.07,0.01 -0.07,0.01 h -0.07 l -0.07,0.01 c -1.36,0 -2.68,-1.42 -2.68,-2.83 0,-0.92 0.6,-1.67 1.61,-1.67 l 0.02,0.21 c -0.59,0 -0.89,0.45 -0.89,1.09 0,0.48 0.26,1.56 0.58,2.06 0.46,0.73 1,0.92 1.35,0.92 0.99,0 0.99,-1.3 0.99,-2.08 0,-0.37 0,-0.94 0.02,-1.11 v 0 c -0.88,-0.77 -1.65,-0.88 -2.05,-0.88 l -0.02,-0.21 c 0.63,0 1.35,0.22 2.11,0.83 0.13,-0.53 0.46,-0.83 0.91,-0.83 0.52,0 0.83,0.54 0.83,0.7 0,0.07 -0.06,0.1 -0.12,0.1 -0.07,0 -0.1,-0.03 -0.13,-0.1 -0.17,-0.49 -0.53,-0.49 -0.55,-0.49 -0.31,0 -0.31,0.78 -0.31,1.02 0,0.21 0,0.23 0.1,0.35 0.93,1.17 1.14,2.32 1.14,2.33 0,0.02 -0.01,0.1 -0.12,0.1 -0.1,0 -0.1,-0.03 -0.15,-0.21 -0.18,-0.63 -0.5,-1.38 -0.97,-1.97 z"
   inkscape:connector-curvature="0" />
<path
   id="path6620"
   style="fill:#000000;fill-opacity:1;stroke:#000000;stroke-width:0;stroke-opacity:1"
   d="m 160.61,659.55 v 0.01 h 0.01 v 0.01 0 0.01 0 l 0.01,0.01 v 0 0 0.01 0 l 0.01,0.01 v 0.01 0 0.01 l 0.01,0.01 v 0 0.01 0 0.01 0 l 0.01,0.01 v 0 0.01 0 0 0.01 0 0 0.01 0 0.01 0 0.01 c 0,0.03 0,0.05 -0.05,0.17 l -1.74,4.57 c -0.06,0.17 -0.12,0.22 -0.23,0.22 -0.11,0 -0.2,-0.08 -0.2,-0.19 0,-0.03 0,-0.05 0.05,-0.16 l 1.76,-4.61 -1.76,-4.59 c -0.05,-0.11 -0.05,-0.13 -0.05,-0.18 0,-0.11 0.09,-0.2 0.2,-0.2 0.13,0 0.17,0.1 0.21,0.2 z"
   inkscape:connector-curvature="0" />
</g>
      <g
         style="font-style:normal;font-variant:normal;font-weight:normal;font-stretch:normal;letter-spacing:normal;word-spacing:normal;text-anchor:start;fill:none;fill-opacity:1;fill-rule:evenodd;stroke:#000000;stroke-linecap:butt;stroke-linejoin:miter;stroke-miterlimit:10.433;stroke-dasharray:none;stroke-dashoffset:0;stroke-opacity:1"
         ns0:jacobian_sqrt="2.116667"
         inkscapeversion="0.92.4"
         ns0:alignment="middle center"
         ns0:scale="6.0"
         ns0:preamble="C:\\Users\\MatthewThornton\\AppData\\Roaming\\inkscape\\extensions\\textext\\default_packages.tex"
         ns0:text="$\\ket{\\beta}$"
         ns0:pdfconverter="pstoedit"
         ns0:texconverter="pdflatex"
         ns0:version="0.10.2"
         word-spacing="normal"
         letter-spacing="normal"
         font-size-adjust="none"
         font-stretch="normal"
         font-weight="normal"
         font-variant="normal"
         font-style="normal"
         stroke-miterlimit="10.433"
         xml:space="preserve"
         transform="matrix(2.116667,0,0,-2.116667,-79.182747,1463.1581)"
         id="g6666">
<path
   id="path6660"
   style="fill:#000000;fill-opacity:1;stroke:#000000;stroke-width:0;stroke-opacity:1"
   d="m 150.3,664.33 v 0.03 0.03 0.04 0.01 l -0.01,0.02 v 0.01 0.02 0.02 0.01 l -0.01,0.01 v 0.02 0.01 l -0.01,0.01 v 0.02 l -0.01,0.01 v 0.01 l -0.01,0.01 -0.01,0.01 -0.01,0.01 -0.01,0.01 h -0.01 l -0.01,0.01 v 0 l -0.01,0.01 h -0.01 v 0 h -0.01 l -0.01,0.01 v 0 h -0.01 -0.01 -0.01 -0.01 v 0 h -0.01 -0.01 c -0.2,0 -0.2,-0.17 -0.2,-0.35 v -9.22 c 0,-0.18 0,-0.36 0.2,-0.36 0.2,0 0.2,0.18 0.2,0.36 z"
   inkscape:connector-curvature="0" />
<path
   id="path6662"
   style="fill:#000000;fill-opacity:1;stroke:#000000;stroke-width:0;stroke-opacity:1"
   d="m 157.21,662.89 v 0.07 0.07 l -0.01,0.06 -0.01,0.07 -0.02,0.06 -0.01,0.07 -0.02,0.06 -0.02,0.06 -0.03,0.06 -0.03,0.06 -0.03,0.06 -0.03,0.06 -0.04,0.05 -0.04,0.05 -0.04,0.05 -0.04,0.05 -0.05,0.04 -0.05,0.05 -0.05,0.04 -0.05,0.03 -0.05,0.04 -0.06,0.03 -0.06,0.03 -0.06,0.03 -0.06,0.02 -0.07,0.03 -0.06,0.01 -0.07,0.02 -0.07,0.01 -0.07,0.01 -0.08,0.01 h -0.07 c -0.58,0 -0.86,-0.16 -1.21,-0.42 -0.55,-0.4 -1.1,-1.36 -1.28,-2.11 l -1.59,-6.31 c -0.01,-0.04 0.04,-0.1 0.12,-0.1 0.08,0 0.11,0.02 0.12,0.05 l 0.7,2.74 c 0.19,-0.6 0.63,-0.96 1.35,-0.96 l -0.03,0.21 c -0.75,0 -1.13,0.58 -1.13,1.29 0,0.09 0,0.24 0.05,0.43 l 0.63,2.52 c 0.22,0.85 0.94,2.43 2.14,2.43 0.58,0 0.92,-0.31 0.92,-0.9 v 0 c 0,-0.7 -0.37,-1.41 -0.89,-1.72 -0.27,0.1 -0.47,0.12 -0.77,0.12 -0.21,0 -0.77,0.01 -0.77,-0.32 -0.01,-0.28 0.51,-0.25 0.69,-0.25 l 0.03,0.22 c -0.14,0 -0.34,-0.01 -0.44,0.04 0.02,0.1 0.38,0.08 0.49,0.08 0.21,0 0.3,0 0.43,-0.05 v 0 c -0.13,-0.05 -0.24,-0.07 -0.48,-0.07 l -0.03,-0.22 c 0.37,0 0.52,0.01 0.82,0.13 0.38,-0.36 0.43,-0.67 0.44,-1.12 0.02,-0.58 -0.22,-1.32 -0.5,-1.71 -0.39,-0.54 -1.06,-0.9 -1.63,-0.9 l 0.03,-0.21 c 0.73,0 1.48,0.34 1.93,0.78 0.48,0.46 0.79,1.09 0.79,1.83 0,0.71 -0.36,1.23 -0.72,1.48 0.58,0.33 1.14,0.94 1.14,1.66 z"
   inkscape:connector-curvature="0" />
<path
   id="path6664"
   style="fill:#000000;fill-opacity:1;stroke:#000000;stroke-width:0;stroke-opacity:1"
   d="m 160.36,659.55 0.01,0.01 v 0 0.01 0 0.01 h 0.01 v 0.01 0 0 0.01 0 l 0.01,0.01 v 0.01 0 0.01 l 0.01,0.01 v 0 0.01 0 0.01 h 0.01 v 0.01 0 0.01 0 0 0.01 0 0 0.01 0 0.01 0 0.01 c 0,0.03 0,0.05 -0.05,0.17 l -1.74,4.57 c -0.06,0.17 -0.12,0.22 -0.23,0.22 -0.11,0 -0.2,-0.08 -0.2,-0.19 0,-0.03 0,-0.05 0.05,-0.16 l 1.76,-4.61 -1.76,-4.59 c -0.05,-0.11 -0.05,-0.13 -0.05,-0.18 0,-0.11 0.09,-0.2 0.2,-0.2 0.13,0 0.17,0.1 0.21,0.2 z"
   inkscape:connector-curvature="0" />
</g>
      <g
         style="font-style:normal;font-variant:normal;font-weight:normal;font-stretch:normal;letter-spacing:normal;word-spacing:normal;text-anchor:start;fill:none;fill-opacity:1;fill-rule:evenodd;stroke:#000000;stroke-linecap:butt;stroke-linejoin:miter;stroke-miterlimit:10.433;stroke-dasharray:none;stroke-dashoffset:0;stroke-opacity:1"
         ns0:jacobian_sqrt="2.116667"
         inkscapeversion="0.92.4"
         ns0:alignment="middle center"
         ns0:scale="6.0"
         ns0:preamble="C:\\Users\\MatthewThornton\\AppData\\Roaming\\inkscape\\extensions\\textext\\default_packages.tex"
         ns0:text="$\\ket{\\frac{\\left(\\alpha-\\beta\\right)}{\\sqrt{2}}}$"
         ns0:pdfconverter="pstoedit"
         ns0:texconverter="pdflatex"
         ns0:version="0.10.2"
         word-spacing="normal"
         letter-spacing="normal"
         font-size-adjust="none"
         font-stretch="normal"
         font-weight="normal"
         font-variant="normal"
         font-style="normal"
         stroke-miterlimit="10.433"
         xml:space="preserve"
         transform="matrix(2.116667,0,0,-2.116667,-90.476595,1544.1987)"
         id="g6735">
<path
   id="path6709"
   style="fill:#000000;fill-opacity:1;stroke:#000000;stroke-width:0;stroke-opacity:1"
   d="m 150.16,661.4 v -0.03 -0.03 -0.04 -0.01 -0.02 -0.01 -0.02 l 0.01,-0.01 v -0.02 -0.01 l 0.01,-0.02 v -0.01 -0.02 l 0.01,-0.01 0.01,-0.01 v -0.01 l 0.01,-0.02 0.01,-0.01 0.01,-0.01 0.01,-0.01 0.01,-0.01 v 0 h 0.01 v -0.01 h 0.01 0.01 v -0.01 h 0.01 0.01 0.01 v -0.01 h 0.01 0.01 0.01 0.01 0.01 0.01 c 0.22,0 0.22,0.2 0.22,0.37 v 5.64 c 0,0.16 0,0.37 -0.21,0.37 -0.22,0 -0.22,-0.2 -0.22,-0.37 z"
   inkscape:connector-curvature="0" />
<path
   id="path6711"
   style="fill:#000000;fill-opacity:1;stroke:#000000;stroke-width:0;stroke-opacity:1"
   d="m 150.16,655.42 v -0.03 -0.03 -0.03 -0.02 -0.02 -0.01 -0.02 l 0.01,-0.01 v -0.02 -0.01 l 0.01,-0.02 v -0.01 -0.01 l 0.01,-0.02 0.01,-0.01 v -0.01 l 0.01,-0.01 0.01,-0.02 0.01,-0.01 0.01,-0.01 h 0.01 v -0.01 h 0.01 v -0.01 h 0.01 0.01 v 0 l 0.01,-0.01 h 0.01 0.01 v 0 l 0.01,-0.01 h 0.01 0.01 0.01 0.01 0.01 c 0.22,0 0.22,0.2 0.22,0.37 v 5.64 c 0,0.16 0,0.37 -0.21,0.37 -0.22,0 -0.22,-0.2 -0.22,-0.37 z"
   inkscape:connector-curvature="0" />
<path
   id="path6713"
   style="fill:#000000;fill-opacity:1;stroke:#000000;stroke-width:0;stroke-opacity:1"
   d="m 150.16,649.44 v -0.03 -0.03 -0.03 -0.02 -0.01 -0.02 -0.01 l 0.01,-0.02 v -0.01 -0.02 l 0.01,-0.01 v -0.02 -0.01 l 0.01,-0.01 0.01,-0.02 v -0.01 l 0.01,-0.01 0.01,-0.01 0.01,-0.01 0.01,-0.01 0.01,-0.01 v 0 l 0.01,-0.01 v 0 l 0.01,-0.01 h 0.01 v 0 h 0.01 l 0.01,-0.01 h 0.01 v 0 h 0.01 0.01 0.01 l 0.01,-0.01 h 0.01 0.01 c 0.22,0 0.22,0.2 0.22,0.37 v 5.64 c 0,0.16 0,0.37 -0.21,0.37 -0.22,0 -0.22,-0.2 -0.22,-0.37 z"
   inkscape:connector-curvature="0" />
<path
   id="path6715"
   style="fill:#000000;fill-opacity:1;stroke:#000000;stroke-width:0;stroke-opacity:1"
   d="m 155.71,665.79 -0.12,-0.09 -0.12,-0.09 -0.11,-0.1 -0.1,-0.1 -0.1,-0.09 -0.1,-0.11 -0.09,-0.1 -0.08,-0.11 -0.08,-0.11 -0.08,-0.11 -0.07,-0.11 -0.06,-0.11 -0.07,-0.11 -0.05,-0.12 -0.06,-0.11 -0.05,-0.12 -0.04,-0.11 -0.04,-0.12 -0.04,-0.12 -0.04,-0.11 -0.03,-0.12 -0.03,-0.11 -0.02,-0.12 -0.02,-0.11 -0.02,-0.11 -0.02,-0.12 -0.01,-0.11 -0.01,-0.11 -0.01,-0.1 v -0.11 l -0.01,-0.1 v -0.1 c 0,-0.98 0.3,-2.5 1.68,-3.48 0.06,0 0.14,0 0.14,0.08 0,0.05 -0.02,0.06 -0.07,0.11 -0.93,0.83 -1.27,2.02 -1.27,3.28 0,1.88 0.72,2.8 1.29,3.31 0.03,0.03 0.05,0.05 0.05,0.09 0,0.08 -0.08,0.08 -0.14,0.08 z"
   inkscape:connector-curvature="0" />
<path
   id="path6717"
   style="fill:#000000;fill-opacity:1;stroke:#000000;stroke-width:0;stroke-opacity:1"
   d="m 160.17,661.55 0.06,0.07 0.05,0.06 0.06,0.06 0.05,0.07 0.05,0.07 0.05,0.07 0.05,0.06 0.04,0.07 0.04,0.07 0.04,0.07 0.04,0.06 0.03,0.07 0.04,0.06 0.03,0.07 0.03,0.06 0.03,0.06 0.03,0.06 0.02,0.06 0.02,0.06 0.02,0.05 0.02,0.05 0.02,0.05 0.01,0.04 0.02,0.05 0.01,0.03 0.01,0.04 0.01,0.03 0.01,0.03 v 0.02 l 0.01,0.02 v 0.02 0.01 c 0,0.09 -0.08,0.09 -0.12,0.09 -0.1,0 -0.1,-0.03 -0.15,-0.18 -0.12,-0.46 -0.35,-0.88 -0.65,-1.26 0,0.11 -0.02,0.57 -0.03,0.64 -0.11,0.69 -0.63,1.13 -1.33,1.13 l -0.01,-0.19 c 0.56,0 0.72,-0.54 0.78,-0.97 0.04,-0.3 0.03,-0.79 0.06,-1.16 v 0 c -0.68,-0.56 -1.28,-0.62 -1.54,-0.62 -0.46,0 -0.72,0.3 -0.72,0.77 0,0.2 0.09,0.96 0.46,1.44 0.32,0.42 0.72,0.54 0.96,0.54 l 0.01,0.19 c -1.03,0 -2.02,-0.95 -2.02,-1.93 0,-0.64 0.47,-1.21 1.28,-1.21 0.65,0 1.23,0.3 1.62,0.59 0.16,-0.5 0.52,-0.59 0.73,-0.59 0.4,0 0.65,0.34 0.65,0.49 0,0.08 -0.08,0.08 -0.11,0.08 -0.09,0 -0.11,-0.02 -0.12,-0.07 -0.1,-0.26 -0.32,-0.3 -0.4,-0.3 -0.1,0 -0.22,0 -0.25,0.85 z"
   inkscape:connector-curvature="0" />
<path
   id="path6719"
   style="fill:#000000;fill-opacity:1;stroke:#000000;stroke-width:0;stroke-opacity:1"
   d="m 166.72,662.14 h 0.01 0.01 0.02 0.01 l 0.02,0.01 h 0.01 0.01 0.02 0.01 0.01 0.01 l 0.01,0.01 h 0.01 0.01 0.02 l 0.01,0.01 h 0.01 v 0.01 h 0.01 l 0.01,0.01 0.01,0.01 0.01,0.01 v 0 h 0.01 v 0.01 0 0.01 h 0.01 v 0.01 0 0.01 l 0.01,0.01 v 0 0.01 0 0.01 0.01 0.01 0 0.01 c 0,0.17 -0.16,0.17 -0.28,0.17 h -4.16 c -0.12,0 -0.28,0 -0.28,-0.16 0,-0.18 0.16,-0.18 0.28,-0.18 z"
   inkscape:connector-curvature="0" />
<path
   id="path6721"
   style="fill:#000000;fill-opacity:1;stroke:#000000;stroke-width:0;stroke-opacity:1"
   d="m 172.17,664.51 v 0.06 0.05 l -0.01,0.05 -0.01,0.06 -0.01,0.05 -0.02,0.05 -0.02,0.04 -0.02,0.05 -0.02,0.04 -0.03,0.04 -0.03,0.04 -0.03,0.04 -0.03,0.04 -0.03,0.04 -0.04,0.03 -0.04,0.03 -0.04,0.03 -0.04,0.03 -0.04,0.03 -0.05,0.02 -0.05,0.02 -0.04,0.02 -0.05,0.02 -0.05,0.02 -0.06,0.02 -0.05,0.01 -0.05,0.01 -0.06,0.01 -0.05,0.01 h -0.06 -0.06 -0.05 l -0.02,-0.19 c 0.42,0 0.7,-0.22 0.7,-0.65 v 0 c 0,-0.36 -0.18,-0.91 -0.61,-1.15 -0.14,0.04 -0.27,0.09 -0.66,0.09 -0.24,0 -0.59,-0.01 -0.59,-0.26 0,-0.18 0.21,-0.21 0.57,-0.21 l 0.01,0.19 c -0.11,0 -0.28,0.01 -0.33,0.04 0.07,0.04 0.27,0.05 0.33,0.05 0.11,0 0.26,-0.01 0.36,-0.04 v 0 c -0.11,-0.02 -0.15,-0.05 -0.36,-0.05 l -0.01,-0.19 c 0.24,0 0.45,0.04 0.66,0.1 0.21,-0.15 0.32,-0.43 0.32,-0.74 0,-1 -0.69,-1.75 -1.54,-1.75 -0.54,0 -0.92,0.32 -0.92,0.87 0,0.07 0,0.14 0.02,0.2 l 0.46,1.85 c 0.17,0.66 0.78,1.65 1.59,1.65 l 0.02,0.19 c -0.96,0 -1.67,-1.08 -1.84,-1.78 l -1.1,-4.38 c -0.01,-0.05 0.06,-0.09 0.1,-0.09 0.06,0 0.12,0.01 0.13,0.05 l 0.47,1.86 c 0.15,-0.32 0.48,-0.62 1.05,-0.62 0.98,0 2.08,0.7 2.08,1.77 0,0.41 -0.19,0.82 -0.54,1.05 0.34,0.22 0.79,0.62 0.79,1.18 z"
   inkscape:connector-curvature="0" />
<path
   id="path6723"
   style="fill:#000000;fill-opacity:1;stroke:#000000;stroke-width:0;stroke-opacity:1"
   d="m 173.25,665.79 v 0 h -0.01 v 0 h -0.01 v 0 h -0.01 v 0 h -0.01 v 0 h -0.01 l -0.01,-0.01 v 0 h -0.01 v 0 h -0.01 v 0 h -0.01 v -0.01 h -0.01 v 0 l -0.01,-0.01 v 0 0 0 l -0.01,-0.01 v 0 0 0 -0.01 0 0 h -0.01 v -0.01 0 0 -0.01 0 0 -0.01 0 0 c 0,-0.04 0.02,-0.06 0.06,-0.11 0.61,-0.55 1.28,-1.49 1.28,-3.28 0,-1.46 -0.46,-2.55 -1.21,-3.23 -0.12,-0.12 -0.13,-0.13 -0.13,-0.17 0,-0.03 0.02,-0.08 0.09,-0.08 0.08,0 0.75,0.46 1.21,1.33 0.31,0.58 0.51,1.33 0.51,2.14 0,0.98 -0.29,2.51 -1.68,3.48 z"
   inkscape:connector-curvature="0" />
<line
   id="line6725"
   style="fill-opacity:1;stroke:#000000;stroke-width:0.398;stroke-opacity:1"
   y2="658.22998"
   x2="175.74001"
   y1="658.22998"
   x1="153.23" />
<path
   id="path6727"
   style="fill:#000000;fill-opacity:1;stroke:#000000;stroke-width:0;stroke-opacity:1"
   d="m 162.32,651.1 -1.37,2.71 c -0.03,0.07 -0.05,0.11 -0.11,0.11 -0.03,0 -0.04,0 -0.11,-0.06 l -0.75,-0.49 c -0.1,-0.07 -0.1,-0.1 -0.1,-0.12 0,-0.04 0.04,-0.1 0.1,-0.1 0.03,0 0.04,0 0.13,0.07 0.08,0.05 0.28,0.19 0.37,0.25 l 1.53,-3.01 c 0.05,-0.1 0.06,-0.12 0.16,-0.12 0.06,0 0.14,0 0.21,0.13 l 3.52,6.51 c 0.05,0.09 0.05,0.11 0.05,0.14 0,0.11 -0.09,0.18 -0.17,0.18 -0.1,0 -0.14,-0.07 -0.18,-0.15 z"
   inkscape:connector-curvature="0" />
<line
   id="line6729"
   style="fill-opacity:1;stroke:#000000;stroke-width:0.339;stroke-opacity:1"
   y2="657.13"
   x2="169.74001"
   y1="657.13"
   x1="165.77" />
<path
   id="path6731"
   style="fill:#000000;fill-opacity:1;stroke:#000000;stroke-width:0;stroke-opacity:1"
   d="m 169.3,652.45 h -0.24 c -0.02,-0.16 -0.09,-0.57 -0.18,-0.64 -0.06,-0.04 -0.59,-0.04 -0.69,-0.04 h -1.29 c 0.74,0.65 0.98,0.84 1.4,1.17 0.52,0.41 1,0.84 1,1.5 0,0.84 -0.74,1.36 -1.64,1.36 -0.86,0 -1.45,-0.61 -1.45,-1.25 0,-0.35 0.3,-0.39 0.37,-0.39 0.17,0 0.37,0.12 0.37,0.37 0,0.13 -0.05,0.37 -0.41,0.37 0.22,0.49 0.69,0.65 1.02,0.65 0.7,0 1.06,-0.54 1.06,-1.11 0,-0.6 -0.43,-1.08 -0.65,-1.33 l -1.69,-1.66 c -0.07,-0.06 -0.07,-0.07 -0.07,-0.27 h 2.88 z"
   inkscape:connector-curvature="0" />
<path
   id="path6733"
   style="fill:#000000;fill-opacity:1;stroke:#000000;stroke-width:0;stroke-opacity:1"
   d="m 177.87,649.75 v 0 -0.01 h -0.01 v -0.01 -0.01 l -0.01,-0.01 v -0.01 -0.01 h -0.01 v -0.01 -0.01 h -0.01 v -0.01 -0.01 0 -0.01 h -0.01 v -0.01 0 -0.01 0 -0.01 0 h -0.01 v -0.01 -0.01 -0.01 -0.01 0 -0.01 c 0,-0.15 0.13,-0.23 0.23,-0.23 0.16,0 0.2,0.08 0.26,0.23 l 3.54,8.51 c 0.05,0.12 0.06,0.14 0.06,0.19 0,0.06 -0.01,0.07 -0.06,0.2 l -3.54,8.5 c -0.06,0.15 -0.1,0.24 -0.26,0.24 -0.1,0 -0.23,-0.08 -0.23,-0.24 0,-0.05 0.01,-0.07 0.06,-0.19 l 3.54,-8.5 z"
   inkscape:connector-curvature="0" />
</g>
      <g
         style="font-style:normal;font-variant:normal;font-weight:normal;font-stretch:normal;letter-spacing:normal;word-spacing:normal;text-anchor:start;fill:none;fill-opacity:1;fill-rule:evenodd;stroke:#000000;stroke-linecap:butt;stroke-linejoin:miter;stroke-miterlimit:10.433;stroke-dasharray:none;stroke-dashoffset:0;stroke-opacity:1"
         ns0:jacobian_sqrt="2.116667"
         inkscapeversion="0.92.4"
         ns0:alignment="middle center"
         ns0:scale="6.0"
         ns0:preamble="C:\\Users\\MatthewThornton\\AppData\\Roaming\\inkscape\\extensions\\textext\\default_packages.tex"
         ns0:text="$\\ket{\\frac{\\left(\\alpha+\\beta\\right)}{\\sqrt{2}}}$"
         ns0:pdfconverter="pstoedit"
         ns0:texconverter="pdflatex"
         ns0:version="0.10.2"
         word-spacing="normal"
         letter-spacing="normal"
         font-size-adjust="none"
         font-stretch="normal"
         font-weight="normal"
         font-variant="normal"
         font-style="normal"
         stroke-miterlimit="10.433"
         xml:space="preserve"
         transform="matrix(2.116667,0,0,-2.116667,-264.39119,1544.1987)"
         id="g6848">
<path
   id="path6822"
   style="fill:#000000;fill-opacity:1;stroke:#000000;stroke-width:0;stroke-opacity:1"
   d="m 150.16,661.4 v -0.03 -0.03 -0.04 -0.01 -0.02 -0.01 -0.02 l 0.01,-0.01 v -0.02 -0.01 l 0.01,-0.02 v -0.01 -0.02 l 0.01,-0.01 0.01,-0.01 v -0.01 l 0.01,-0.02 0.01,-0.01 0.01,-0.01 0.01,-0.01 0.01,-0.01 v 0 h 0.01 v -0.01 h 0.01 0.01 v -0.01 h 0.01 0.01 0.01 v -0.01 h 0.01 0.01 0.01 0.01 0.01 0.01 c 0.22,0 0.22,0.2 0.22,0.37 v 5.64 c 0,0.16 0,0.37 -0.21,0.37 -0.22,0 -0.22,-0.2 -0.22,-0.37 z"
   inkscape:connector-curvature="0" />
<path
   id="path6824"
   style="fill:#000000;fill-opacity:1;stroke:#000000;stroke-width:0;stroke-opacity:1"
   d="m 150.16,655.42 v -0.03 -0.03 -0.03 -0.02 -0.02 -0.01 -0.02 l 0.01,-0.01 v -0.02 -0.01 l 0.01,-0.02 v -0.01 -0.01 l 0.01,-0.02 0.01,-0.01 v -0.01 l 0.01,-0.01 0.01,-0.02 0.01,-0.01 0.01,-0.01 h 0.01 v -0.01 h 0.01 v -0.01 h 0.01 0.01 v 0 l 0.01,-0.01 h 0.01 0.01 v 0 l 0.01,-0.01 h 0.01 0.01 0.01 0.01 0.01 c 0.22,0 0.22,0.2 0.22,0.37 v 5.64 c 0,0.16 0,0.37 -0.21,0.37 -0.22,0 -0.22,-0.2 -0.22,-0.37 z"
   inkscape:connector-curvature="0" />
<path
   id="path6826"
   style="fill:#000000;fill-opacity:1;stroke:#000000;stroke-width:0;stroke-opacity:1"
   d="m 150.16,649.44 v -0.03 -0.03 -0.03 -0.02 -0.01 -0.02 -0.01 l 0.01,-0.02 v -0.01 -0.02 l 0.01,-0.01 v -0.02 -0.01 l 0.01,-0.01 0.01,-0.02 v -0.01 l 0.01,-0.01 0.01,-0.01 0.01,-0.01 0.01,-0.01 0.01,-0.01 v 0 l 0.01,-0.01 v 0 l 0.01,-0.01 h 0.01 v 0 h 0.01 l 0.01,-0.01 h 0.01 v 0 h 0.01 0.01 0.01 l 0.01,-0.01 h 0.01 0.01 c 0.22,0 0.22,0.2 0.22,0.37 v 5.64 c 0,0.16 0,0.37 -0.21,0.37 -0.22,0 -0.22,-0.2 -0.22,-0.37 z"
   inkscape:connector-curvature="0" />
<path
   id="path6828"
   style="fill:#000000;fill-opacity:1;stroke:#000000;stroke-width:0;stroke-opacity:1"
   d="m 155.71,665.79 -0.12,-0.09 -0.12,-0.09 -0.11,-0.1 -0.1,-0.1 -0.1,-0.09 -0.1,-0.11 -0.09,-0.1 -0.08,-0.11 -0.08,-0.11 -0.08,-0.11 -0.07,-0.11 -0.06,-0.11 -0.07,-0.11 -0.05,-0.12 -0.06,-0.11 -0.05,-0.12 -0.04,-0.11 -0.04,-0.12 -0.04,-0.12 -0.04,-0.11 -0.03,-0.12 -0.03,-0.11 -0.02,-0.12 -0.02,-0.11 -0.02,-0.11 -0.02,-0.12 -0.01,-0.11 -0.01,-0.11 -0.01,-0.1 v -0.11 l -0.01,-0.1 v -0.1 c 0,-0.98 0.3,-2.5 1.68,-3.48 0.06,0 0.14,0 0.14,0.08 0,0.05 -0.02,0.06 -0.07,0.11 -0.93,0.83 -1.27,2.02 -1.27,3.28 0,1.88 0.72,2.8 1.29,3.31 0.03,0.03 0.05,0.05 0.05,0.09 0,0.08 -0.08,0.08 -0.14,0.08 z"
   inkscape:connector-curvature="0" />
<path
   id="path6830"
   style="fill:#000000;fill-opacity:1;stroke:#000000;stroke-width:0;stroke-opacity:1"
   d="m 160.17,661.55 0.06,0.07 0.05,0.06 0.06,0.06 0.05,0.07 0.05,0.07 0.05,0.07 0.05,0.06 0.04,0.07 0.04,0.07 0.04,0.07 0.04,0.06 0.03,0.07 0.04,0.06 0.03,0.07 0.03,0.06 0.03,0.06 0.03,0.06 0.02,0.06 0.02,0.06 0.02,0.05 0.02,0.05 0.02,0.05 0.01,0.04 0.02,0.05 0.01,0.03 0.01,0.04 0.01,0.03 0.01,0.03 v 0.02 l 0.01,0.02 v 0.02 0.01 c 0,0.09 -0.08,0.09 -0.12,0.09 -0.1,0 -0.1,-0.03 -0.15,-0.18 -0.12,-0.46 -0.35,-0.88 -0.65,-1.26 0,0.11 -0.02,0.57 -0.03,0.64 -0.11,0.69 -0.63,1.13 -1.33,1.13 l -0.01,-0.19 c 0.56,0 0.72,-0.54 0.78,-0.97 0.04,-0.3 0.03,-0.79 0.06,-1.16 v 0 c -0.68,-0.56 -1.28,-0.62 -1.54,-0.62 -0.46,0 -0.72,0.3 -0.72,0.77 0,0.2 0.09,0.96 0.46,1.44 0.32,0.42 0.72,0.54 0.96,0.54 l 0.01,0.19 c -1.03,0 -2.02,-0.95 -2.02,-1.93 0,-0.64 0.47,-1.21 1.28,-1.21 0.65,0 1.23,0.3 1.62,0.59 0.16,-0.5 0.52,-0.59 0.73,-0.59 0.4,0 0.65,0.34 0.65,0.49 0,0.08 -0.08,0.08 -0.11,0.08 -0.09,0 -0.11,-0.02 -0.12,-0.07 -0.1,-0.26 -0.32,-0.3 -0.4,-0.3 -0.1,0 -0.22,0 -0.25,0.85 z"
   inkscape:connector-curvature="0" />
<path
   id="path6832"
   style="fill:#000000;fill-opacity:1;stroke:#000000;stroke-width:0;stroke-opacity:1"
   d="m 164.76,662.14 h 2.14 c 0.09,0 0.26,0 0.26,0.17 0,0.17 -0.16,0.17 -0.26,0.17 h -2.14 v 2.14 c 0,0.09 0,0.26 -0.17,0.26 -0.17,0 -0.17,-0.16 -0.17,-0.26 v -2.14 h -2.15 c -0.09,0 -0.26,0 -0.26,-0.16 0,-0.18 0.16,-0.18 0.26,-0.18 h 2.15 v -2.13 c 0,-0.09 0,-0.26 0.16,-0.26 0.18,0 0.18,0.16 0.18,0.26 z"
   inkscape:connector-curvature="0" />
<path
   id="path6834"
   style="fill:#000000;fill-opacity:1;stroke:#000000;stroke-width:0;stroke-opacity:1"
   d="m 172.06,664.51 v 0.06 0.05 l -0.01,0.05 -0.01,0.06 -0.01,0.05 -0.02,0.05 -0.02,0.04 -0.02,0.05 -0.02,0.04 -0.03,0.04 -0.03,0.04 -0.03,0.04 -0.03,0.04 -0.03,0.04 -0.04,0.03 -0.04,0.03 -0.04,0.03 -0.04,0.03 -0.05,0.03 -0.04,0.02 -0.05,0.02 -0.05,0.02 -0.04,0.02 -0.05,0.02 -0.06,0.02 -0.05,0.01 -0.05,0.01 -0.06,0.01 -0.05,0.01 h -0.06 -0.06 -0.05 l -0.02,-0.19 c 0.42,0 0.7,-0.22 0.7,-0.65 v 0 c 0,-0.36 -0.18,-0.91 -0.61,-1.15 -0.14,0.04 -0.27,0.09 -0.66,0.09 -0.25,0 -0.59,-0.01 -0.59,-0.26 0,-0.18 0.21,-0.21 0.57,-0.21 l 0.01,0.19 c -0.11,0 -0.28,0.01 -0.33,0.04 0.07,0.04 0.27,0.05 0.33,0.05 0.11,0 0.26,-0.01 0.36,-0.04 v 0 c -0.11,-0.02 -0.16,-0.05 -0.36,-0.05 l -0.01,-0.19 c 0.24,0 0.45,0.04 0.66,0.1 0.21,-0.15 0.32,-0.43 0.32,-0.74 0,-1 -0.69,-1.75 -1.54,-1.75 -0.54,0 -0.92,0.32 -0.92,0.87 0,0.07 0,0.14 0.02,0.2 l 0.46,1.85 c 0.17,0.66 0.78,1.65 1.59,1.65 l 0.02,0.19 c -0.96,0 -1.67,-1.08 -1.84,-1.78 l -1.1,-4.38 c -0.01,-0.05 0.06,-0.09 0.1,-0.09 0.06,0 0.12,0.01 0.13,0.05 l 0.47,1.86 c 0.15,-0.32 0.48,-0.62 1.05,-0.62 0.98,0 2.08,0.7 2.08,1.77 0,0.41 -0.19,0.82 -0.54,1.05 0.34,0.22 0.79,0.62 0.79,1.18 z"
   inkscape:connector-curvature="0" />
<path
   id="path6836"
   style="fill:#000000;fill-opacity:1;stroke:#000000;stroke-width:0;stroke-opacity:1"
   d="m 173.14,665.79 v 0 h -0.01 v 0 h -0.01 v 0 h -0.01 v 0 h -0.01 -0.01 v 0 l -0.01,-0.01 v 0 h -0.01 v 0 h -0.01 v 0 h -0.01 v -0.01 h -0.01 v 0 l -0.01,-0.01 v 0 0 h -0.01 v -0.01 0 0 0 -0.01 0 h -0.01 v 0 -0.01 0 0 -0.01 0 0 -0.01 0 0 c 0,-0.04 0.02,-0.06 0.06,-0.11 0.6,-0.55 1.28,-1.49 1.28,-3.28 0,-1.46 -0.46,-2.55 -1.22,-3.23 -0.11,-0.12 -0.12,-0.13 -0.12,-0.17 0,-0.03 0.02,-0.08 0.09,-0.08 0.08,0 0.75,0.46 1.21,1.33 0.31,0.58 0.51,1.33 0.51,2.14 0,0.98 -0.29,2.51 -1.68,3.48 z"
   inkscape:connector-curvature="0" />
<line
   id="line6838"
   style="fill-opacity:1;stroke:#000000;stroke-width:0.398;stroke-opacity:1"
   y2="658.22998"
   x2="175.63"
   y1="658.22998"
   x1="153.23" />
<path
   id="path6840"
   style="fill:#000000;fill-opacity:1;stroke:#000000;stroke-width:0;stroke-opacity:1"
   d="m 162.27,651.1 -1.37,2.71 c -0.04,0.07 -0.06,0.11 -0.11,0.11 -0.03,0 -0.05,0 -0.12,-0.06 l -0.74,-0.49 c -0.1,-0.07 -0.1,-0.1 -0.1,-0.12 0,-0.04 0.03,-0.1 0.1,-0.1 0.02,0 0.04,0 0.13,0.07 0.07,0.05 0.28,0.19 0.36,0.25 l 1.53,-3.01 c 0.05,-0.1 0.07,-0.12 0.16,-0.12 0.07,0 0.14,0 0.21,0.13 l 3.52,6.51 c 0.06,0.09 0.06,0.11 0.06,0.14 0,0.11 -0.1,0.18 -0.17,0.18 -0.11,0 -0.14,-0.07 -0.18,-0.15 z"
   inkscape:connector-curvature="0" />
<line
   id="line6842"
   style="fill-opacity:1;stroke:#000000;stroke-width:0.339;stroke-opacity:1"
   y2="657.13"
   x2="169.67999"
   y1="657.13"
   x1="165.71001" />
<path
   id="path6844"
   style="fill:#000000;fill-opacity:1;stroke:#000000;stroke-width:0;stroke-opacity:1"
   d="m 169.24,652.45 h -0.23 c -0.02,-0.16 -0.09,-0.57 -0.19,-0.64 -0.05,-0.04 -0.59,-0.04 -0.69,-0.04 h -1.28 c 0.73,0.65 0.98,0.84 1.39,1.17 0.52,0.41 1,0.84 1,1.5 0,0.84 -0.74,1.36 -1.63,1.36 -0.87,0 -1.46,-0.61 -1.46,-1.25 0,-0.35 0.31,-0.39 0.37,-0.39 0.17,0 0.38,0.12 0.38,0.37 0,0.13 -0.05,0.37 -0.42,0.37 0.22,0.49 0.7,0.65 1.02,0.65 0.7,0 1.07,-0.54 1.07,-1.11 0,-0.6 -0.44,-1.08 -0.66,-1.33 l -1.69,-1.66 c -0.07,-0.06 -0.07,-0.07 -0.07,-0.27 h 2.89 z"
   inkscape:connector-curvature="0" />
<path
   id="path6846"
   style="fill:#000000;fill-opacity:1;stroke:#000000;stroke-width:0;stroke-opacity:1"
   d="m 177.76,649.75 v 0 l -0.01,-0.01 v 0 -0.01 -0.01 l -0.01,-0.01 v -0.01 l -0.01,-0.01 v 0 -0.01 -0.01 h -0.01 v -0.01 -0.01 0 l -0.01,-0.01 v 0 -0.01 0 -0.01 0 l -0.01,-0.01 v 0 0 -0.01 -0.01 -0.01 -0.01 0 -0.01 c 0,-0.15 0.13,-0.23 0.23,-0.23 0.16,0 0.2,0.08 0.26,0.23 l 3.54,8.51 c 0.05,0.12 0.06,0.14 0.06,0.19 0,0.06 -0.01,0.07 -0.06,0.2 l -3.54,8.5 c -0.06,0.15 -0.1,0.24 -0.26,0.24 -0.1,0 -0.23,-0.08 -0.23,-0.24 0,-0.05 0.01,-0.07 0.06,-0.19 l 3.54,-8.5 z"
   inkscape:connector-curvature="0" />
</g>
      <g
         ns0:jacobian_sqrt="1.411111"
         inkscapeversion="0.92.4"
         ns0:alignment="middle center"
         ns0:scale="4.0"
         ns0:preamble="C:\\Users\\MatthewThornton\\AppData\\Roaming\\inkscape\\extensions\\textext\\default_packages.tex"
         ns0:text="$50:50$"
         ns0:pdfconverter="pstoedit"
         ns0:texconverter="pdflatex"
         ns0:version="0.10.2"
         word-spacing="normal"
         letter-spacing="normal"
         font-size-adjust="none"
         font-stretch="normal"
         font-weight="normal"
         font-variant="normal"
         font-style="normal"
         stroke-miterlimit="10.433"
         xml:space="preserve"
         transform="matrix(1.411111,0,0,-1.411111,-61.070365,993.14501)"
         id="g7140"
         style="font-style:normal;font-variant:normal;font-weight:normal;font-stretch:normal;letter-spacing:normal;word-spacing:normal;text-anchor:start;fill:none;fill-opacity:1;fill-rule:evenodd;stroke:#000000;stroke-linecap:butt;stroke-linejoin:miter;stroke-miterlimit:10.433;stroke-dasharray:none;stroke-dashoffset:0;stroke-opacity:1">
<path
   id="path7128"
   d="m 153.19,659.23 v 0.11 l -0.01,0.11 -0.01,0.11 -0.02,0.1 -0.02,0.11 -0.02,0.1 -0.03,0.1 -0.03,0.1 -0.04,0.1 -0.04,0.09 -0.05,0.09 -0.05,0.09 -0.05,0.09 -0.05,0.08 -0.06,0.08 -0.06,0.07 -0.07,0.08 -0.07,0.06 -0.07,0.07 -0.07,0.06 -0.08,0.06 -0.08,0.05 -0.08,0.05 -0.08,0.04 -0.09,0.04 -0.09,0.04 -0.09,0.03 -0.09,0.02 -0.1,0.02 -0.1,0.02 h -0.09 l -0.11,0.01 c -0.47,0 -0.9,-0.16 -1.26,-0.51 v 1.94 c 0.2,-0.06 0.53,-0.13 0.85,-0.13 1.22,0 1.92,0.9 1.92,1.03 0,0.06 -0.03,0.11 -0.1,0.11 -0.01,0 -0.03,0 -0.08,-0.03 -0.2,-0.09 -0.69,-0.29 -1.36,-0.29 -0.39,0 -0.85,0.07 -1.32,0.28 -0.08,0.03 -0.1,0.03 -0.12,0.03 -0.1,0 -0.1,-0.08 -0.1,-0.24 v -2.94 c 0,-0.18 0,-0.26 0.14,-0.26 0.07,0 0.09,0.03 0.13,0.09 0.11,0.16 0.48,0.7 1.28,0.7 0.52,0 0.77,-0.46 0.85,-0.64 0.16,-0.37 0.18,-0.75 0.18,-1.25 0,-0.35 0,-0.94 -0.24,-1.36 -0.24,-0.39 -0.61,-0.65 -1.06,-0.65 -0.73,0 -1.3,0.53 -1.47,1.12 0.03,-0.01 0.06,-0.02 0.17,-0.02 0.33,0 0.5,0.25 0.5,0.48 0,0.24 -0.17,0.49 -0.5,0.49 -0.14,0 -0.49,-0.07 -0.49,-0.53 0,-0.85 0.69,-1.81 1.81,-1.81 1.15,0 2.17,0.95 2.17,2.21 z"
   inkscape:connector-curvature="0"
   style="fill:#000000;stroke-width:0" />
<path
   id="path7130"
   d="m 158.28,660.41 v 0.15 0.15 l -0.01,0.15 v 0.15 l -0.01,0.15 -0.01,0.14 -0.02,0.15 -0.02,0.15 -0.02,0.14 -0.03,0.15 -0.03,0.14 -0.04,0.15 -0.04,0.14 -0.05,0.14 -0.06,0.14 -0.03,0.07 -0.03,0.07 c -0.46,0.95 -1.28,1.11 -1.69,1.11 -0.6,0 -1.33,-0.26 -1.74,-1.18 -0.32,-0.69 -0.37,-1.46 -0.37,-2.26 0,-0.74 0.04,-1.63 0.45,-2.39 0.43,-0.8 1.16,-1 1.65,-1 v 0.21 c -0.39,0 -0.98,0.25 -1.16,1.21 -0.11,0.59 -0.11,1.51 -0.11,2.09 0,0.64 0,1.29 0.08,1.83 0.19,1.18 0.94,1.27 1.19,1.27 0.33,0 0.98,-0.18 1.17,-1.16 0.1,-0.56 0.1,-1.31 0.1,-1.94 0,-0.74 0,-1.42 -0.11,-2.05 -0.15,-0.95 -0.71,-1.25 -1.16,-1.25 v 0 -0.21 c 0.53,0 1.29,0.2 1.73,1.15 0.32,0.68 0.37,1.46 0.37,2.24 z"
   inkscape:connector-curvature="0"
   style="fill:#000000;stroke-width:0" />
<path
   id="path7132"
   d="m 163.36,660.99 v 0.03 0.02 l -0.01,0.03 v 0.03 l -0.01,0.02 v 0.03 l -0.01,0.02 -0.01,0.02 -0.01,0.03 -0.02,0.02 -0.01,0.02 -0.01,0.02 -0.02,0.02 -0.01,0.02 -0.02,0.02 -0.02,0.02 -0.02,0.02 -0.01,0.02 -0.02,0.01 -0.03,0.02 -0.02,0.01 -0.02,0.01 -0.02,0.01 -0.03,0.01 -0.02,0.01 -0.02,0.01 -0.03,0.01 -0.02,0.01 h -0.03 -0.03 l -0.02,0.01 h -0.03 c -0.29,0 -0.53,-0.24 -0.53,-0.53 0,-0.29 0.24,-0.53 0.53,-0.53 0.29,0 0.53,0.24 0.53,0.53 z"
   inkscape:connector-curvature="0"
   style="fill:#000000;stroke-width:0" />
<path
   id="path7134"
   d="m 163.36,657.76 v 0.03 0.03 l -0.01,0.02 v 0.03 l -0.01,0.02 v 0.03 l -0.01,0.02 -0.01,0.03 -0.01,0.02 -0.02,0.02 -0.01,0.02 -0.01,0.03 -0.02,0.02 -0.01,0.02 -0.02,0.01 -0.02,0.02 -0.02,0.02 -0.01,0.02 -0.02,0.01 -0.03,0.02 -0.02,0.01 -0.02,0.01 -0.02,0.02 -0.03,0.01 -0.02,0.01 h -0.02 l -0.03,0.01 -0.02,0.01 h -0.03 l -0.03,0.01 h -0.02 -0.03 c -0.29,0 -0.53,-0.24 -0.53,-0.53 0,-0.29 0.24,-0.53 0.53,-0.53 0.29,0 0.53,0.24 0.53,0.53 z"
   inkscape:connector-curvature="0"
   style="fill:#000000;stroke-width:0" />
<path
   id="path7136"
   d="m 171.46,659.23 v 0.11 l -0.01,0.11 -0.01,0.11 -0.02,0.1 -0.02,0.11 -0.02,0.1 -0.03,0.1 -0.04,0.1 -0.03,0.1 -0.04,0.09 -0.05,0.09 -0.05,0.09 -0.05,0.09 -0.05,0.08 -0.06,0.08 -0.06,0.07 -0.07,0.08 -0.07,0.06 -0.07,0.07 -0.07,0.06 -0.08,0.06 -0.08,0.05 -0.08,0.05 -0.09,0.04 -0.08,0.04 -0.09,0.04 -0.09,0.03 -0.1,0.02 -0.09,0.02 -0.1,0.02 h -0.1 l -0.1,0.01 c -0.47,0 -0.9,-0.16 -1.26,-0.51 v 1.94 c 0.2,-0.06 0.53,-0.13 0.85,-0.13 1.22,0 1.92,0.9 1.92,1.03 0,0.06 -0.03,0.11 -0.1,0.11 -0.01,0 -0.03,0 -0.08,-0.03 -0.2,-0.09 -0.69,-0.29 -1.36,-0.29 -0.4,0 -0.85,0.07 -1.32,0.28 -0.08,0.03 -0.1,0.03 -0.12,0.03 -0.1,0 -0.1,-0.08 -0.1,-0.24 v -2.94 c 0,-0.18 0,-0.26 0.14,-0.26 0.07,0 0.09,0.03 0.13,0.09 0.11,0.16 0.48,0.7 1.28,0.7 0.52,0 0.77,-0.46 0.85,-0.64 0.16,-0.37 0.18,-0.75 0.18,-1.25 0,-0.35 0,-0.94 -0.24,-1.36 -0.24,-0.39 -0.61,-0.65 -1.07,-0.65 -0.72,0 -1.29,0.53 -1.46,1.12 0.03,-0.01 0.06,-0.02 0.17,-0.02 0.33,0 0.5,0.25 0.5,0.48 0,0.24 -0.17,0.49 -0.5,0.49 -0.14,0 -0.49,-0.07 -0.49,-0.53 0,-0.85 0.69,-1.81 1.81,-1.81 1.15,0 2.17,0.95 2.17,2.21 z"
   inkscape:connector-curvature="0"
   style="fill:#000000;stroke-width:0" />
<path
   id="path7138"
   d="m 176.55,660.41 v 0.15 0.15 l -0.01,0.15 v 0.15 l -0.01,0.15 -0.01,0.14 -0.02,0.15 -0.02,0.15 -0.02,0.14 -0.03,0.15 -0.03,0.14 -0.04,0.15 -0.04,0.14 -0.05,0.14 -0.06,0.14 -0.03,0.07 -0.03,0.07 c -0.46,0.95 -1.27,1.11 -1.69,1.11 -0.6,0 -1.33,-0.26 -1.74,-1.18 -0.32,-0.69 -0.37,-1.46 -0.37,-2.26 0,-0.74 0.04,-1.63 0.45,-2.39 0.43,-0.8 1.16,-1 1.65,-1 v 0.21 c -0.39,0 -0.98,0.25 -1.16,1.21 -0.11,0.59 -0.11,1.51 -0.11,2.09 0,0.64 0,1.29 0.08,1.83 0.19,1.18 0.94,1.27 1.19,1.27 0.32,0 0.98,-0.18 1.17,-1.16 0.1,-0.56 0.1,-1.31 0.1,-1.94 0,-0.74 0,-1.42 -0.11,-2.05 -0.15,-0.95 -0.72,-1.25 -1.16,-1.25 v 0 -0.21 c 0.53,0 1.29,0.2 1.73,1.15 0.32,0.68 0.37,1.46 0.37,2.24 z"
   inkscape:connector-curvature="0"
   style="fill:#000000;stroke-width:0" />
</g>
      <g
         id="g175">
        <g
           id="g7231"
           transform="matrix(1.41111,0,0,-1.41111,-149.47509,1170.9321)"
           xml:space="preserve"
           stroke-miterlimit="10.433"
           font-style="normal"
           font-variant="normal"
           font-weight="normal"
           font-stretch="normal"
           font-size-adjust="none"
           letter-spacing="normal"
           word-spacing="normal"
           ns0:version="0.10.2"
           ns0:texconverter="pdflatex"
           ns0:pdfconverter="pstoedit"
           ns0:text="Click?"
           ns0:preamble="C:\\Users\\MatthewThornton\\AppData\\Roaming\\inkscape\\extensions\\textext\\default_packages.tex"
           ns0:scale="4.0"
           ns0:alignment="middle center"
           inkscapeversion="0.92.4"
           ns0:jacobian_sqrt="1.41111"
           style="font-style:normal;font-variant:normal;font-weight:normal;font-stretch:normal;letter-spacing:normal;word-spacing:normal;text-anchor:start;fill:none;fill-opacity:1;fill-rule:evenodd;stroke:#000000;stroke-linecap:butt;stroke-linejoin:miter;stroke-miterlimit:10.433;stroke-dasharray:none;stroke-dashoffset:0;stroke-opacity:1">
<path
   inkscape:connector-curvature="0"
   d="m 149.27,660.63 v -0.19 l 0.02,-0.19 0.02,-0.18 0.03,-0.18 0.04,-0.18 0.05,-0.18 0.06,-0.16 0.06,-0.17 0.07,-0.16 0.08,-0.16 0.09,-0.15 0.09,-0.15 0.1,-0.14 0.1,-0.13 0.11,-0.13 0.12,-0.13 0.12,-0.12 0.13,-0.11 0.13,-0.1 0.14,-0.1 0.14,-0.09 0.14,-0.09 0.15,-0.08 0.16,-0.07 0.15,-0.06 0.16,-0.06 0.16,-0.04 0.17,-0.04 0.17,-0.03 0.17,-0.03 0.17,-0.01 h 0.17 c 1.63,0 2.6,1.38 2.6,2.53 0,0.1 0,0.17 -0.13,0.17 -0.11,0 -0.11,-0.06 -0.12,-0.16 -0.08,-1.42 -1.14,-2.24 -2.23,-2.24 -0.61,0 -2.56,0.34 -2.56,3.3 0,2.97 1.94,3.31 2.55,3.31 1.09,0 1.97,-0.9 2.17,-2.35 0.02,-0.14 0.02,-0.17 0.16,-0.17 0.16,0 0.16,0.03 0.16,0.24 V 664 c 0,0.17 0,0.24 -0.11,0.24 -0.04,0 -0.08,0 -0.16,-0.12 l -0.49,-0.74 c -0.37,0.36 -0.88,0.86 -1.84,0.86 -1.86,0 -3.47,-1.58 -3.47,-3.61 z"
   style="fill:#000000;fill-opacity:1;stroke:#000000;stroke-width:0;stroke-opacity:1"
   id="path7215" />
<path
   inkscape:connector-curvature="0"
   d="m 157.67,664.13 -1.43,-0.11 v -0.31 c 0.69,0 0.77,-0.07 0.77,-0.55 v -5.17 c 0,-0.45 -0.11,-0.45 -0.77,-0.45 v -0.31 c 0.33,0.01 0.85,0.04 1.1,0.04 0.25,0 0.74,-0.03 1.11,-0.04 v 0.31 c -0.67,0 -0.78,0 -0.78,0.45 z"
   style="fill:#000000;fill-opacity:1;stroke:#000000;stroke-width:0;stroke-opacity:1"
   id="path7217" />
<path
   inkscape:connector-curvature="0"
   d="m 160.44,661.63 -1.4,-0.11 v -0.31 c 0.65,0 0.74,-0.06 0.74,-0.55 v -2.67 c 0,-0.45 -0.11,-0.45 -0.78,-0.45 v -0.31 c 0.32,0.01 0.86,0.04 1.1,0.04 0.35,0 0.7,-0.03 1.04,-0.04 v 0.31 c -0.66,0 -0.7,0.05 -0.7,0.44 z"
   style="fill:#000000;fill-opacity:1;stroke:#000000;stroke-width:0;stroke-opacity:1"
   id="path7219" />
<path
   inkscape:connector-curvature="0"
   d="m 160.48,663.35 v 0.03 0.03 l -0.01,0.03 v 0.03 l -0.01,0.02 -0.01,0.03 v 0.03 l -0.01,0.02 -0.02,0.02 -0.01,0.03 -0.01,0.02 -0.01,0.02 -0.02,0.02 -0.02,0.02 -0.01,0.02 -0.02,0.02 -0.02,0.01 -0.02,0.02 -0.02,0.01 -0.02,0.02 -0.02,0.01 -0.02,0.01 -0.03,0.01 -0.02,0.01 -0.02,0.01 -0.03,0.01 -0.02,0.01 h -0.03 l -0.02,0.01 h -0.03 -0.02 -0.03 c -0.31,0 -0.53,-0.27 -0.53,-0.53 0,-0.26 0.22,-0.52 0.53,-0.52 0.28,0 0.53,0.21 0.53,0.52 z"
   style="fill:#000000;fill-opacity:1;stroke:#000000;stroke-width:0;stroke-opacity:1"
   id="path7221" />
<path
   inkscape:connector-curvature="0"
   d="m 162.61,659.4 v 0.08 0.07 0.07 l 0.01,0.07 v 0.07 l 0.01,0.07 0.01,0.06 0.01,0.06 v 0.06 l 0.01,0.06 0.02,0.06 0.01,0.06 0.02,0.11 0.04,0.1 0.03,0.1 0.03,0.09 0.04,0.09 0.05,0.08 0.04,0.07 0.05,0.07 0.04,0.07 0.05,0.06 0.06,0.05 0.05,0.05 0.05,0.05 0.06,0.04 0.05,0.04 0.06,0.03 0.06,0.03 0.05,0.03 0.06,0.02 0.05,0.02 0.06,0.01 0.06,0.02 0.05,0.01 h 0.05 l 0.05,0.01 h 0.06 c 0.08,0 0.71,-0.01 1.06,-0.37 -0.41,-0.03 -0.47,-0.33 -0.47,-0.46 0,-0.26 0.18,-0.45 0.46,-0.45 0.26,0 0.46,0.16 0.46,0.46 0,0.68 -0.76,1.06 -1.52,1.06 -1.25,0 -2.17,-1.07 -2.17,-2.3 0,-1.27 0.99,-2.25 2.15,-2.25 1.33,0 1.65,1.19 1.65,1.29 0,0.1 -0.1,0.1 -0.13,0.1 -0.09,0 -0.11,-0.04 -0.13,-0.1 -0.29,-0.93 -0.94,-1.05 -1.31,-1.05 -0.52,0 -1.4,0.43 -1.4,2.03 z"
   style="fill:#000000;fill-opacity:1;stroke:#000000;stroke-width:0;stroke-opacity:1"
   id="path7223" />
<path
   inkscape:connector-curvature="0"
   d="m 166.65,657.99 v -0.02 -0.02 -0.04 l -0.01,-0.03 v -0.04 -0.03 l -0.01,-0.03 v -0.02 l -0.01,-0.03 -0.01,-0.02 -0.01,-0.02 -0.01,-0.02 -0.01,-0.02 -0.02,-0.01 -0.01,-0.02 -0.02,-0.01 -0.02,-0.01 -0.02,-0.01 -0.03,-0.01 -0.02,-0.01 h -0.03 l -0.03,-0.01 h -0.03 l -0.04,-0.01 h -0.02 -0.02 -0.02 -0.02 -0.02 -0.02 -0.02 l -0.03,-0.01 h -0.02 -0.02 -0.03 -0.03 -0.02 -0.03 -0.03 -0.03 -0.03 -0.03 v -0.31 c 0.33,0.01 0.8,0.04 1.09,0.04 0.3,0 0.69,-0.01 1.09,-0.04 v 0.31 c -0.66,0 -0.77,0 -0.77,0.45 v 1.02 l 0.63,0.55 c 0.77,-1.05 1.19,-1.61 1.19,-1.79 0,-0.19 -0.17,-0.23 -0.36,-0.23 v -0.31 c 0.28,0.01 0.87,0.04 1.08,0.04 0.29,0 0.58,-0.01 0.87,-0.04 v 0.31 c -0.37,0 -0.59,0 -0.97,0.53 l -1.27,1.78 c -0.01,0.02 -0.06,0.08 -0.06,0.11 0,0.04 0.71,0.63 0.81,0.71 0.63,0.51 1.05,0.53 1.26,0.54 v 0.31 c -0.29,-0.03 -0.42,-0.03 -0.7,-0.03 -0.36,0 -0.98,0.02 -1.12,0.03 v -0.31 c 0.19,-0.01 0.29,-0.12 0.29,-0.25 0,-0.2 -0.14,-0.32 -0.22,-0.39 l -1.4,-1.21 v 4.77 l -1.44,-0.11 v -0.31 c 0.7,0 0.78,-0.07 0.78,-0.55 z"
   style="fill:#000000;fill-opacity:1;stroke:#000000;stroke-width:0;stroke-opacity:1"
   id="path7225" />
<path
   inkscape:connector-curvature="0"
   d="m 173.19,659.71 v 0.11 l 0.01,0.12 0.02,0.11 0.01,0.1 0.03,0.11 0.02,0.1 0.03,0.09 0.04,0.1 0.04,0.09 0.04,0.08 0.04,0.09 0.05,0.08 0.04,0.08 0.05,0.08 0.06,0.07 0.05,0.07 0.05,0.07 0.06,0.06 0.05,0.06 0.06,0.06 0.05,0.05 0.06,0.06 0.05,0.05 0.06,0.04 0.05,0.05 0.05,0.04 0.05,0.04 0.04,0.04 0.05,0.03 0.04,0.03 0.03,0.03 0.04,0.02 c 0.27,0.2 0.48,0.56 0.48,0.98 0,0.57 -0.4,1.34 -1.89,1.34 -1.08,0 -1.69,-0.68 -1.69,-1.32 0,-0.34 0.23,-0.48 0.46,-0.48 0.28,0 0.45,0.2 0.45,0.46 0,0.44 -0.41,0.44 -0.55,0.44 0.3,0.53 0.88,0.68 1.3,0.68 1.09,0 1.09,-0.68 1.09,-1.06 0,-0.59 -0.16,-0.77 -0.34,-0.95 -0.66,-0.71 -0.88,-1.63 -0.88,-2.23 v -0.45 c 0,-0.18 0,-0.24 0.12,-0.24 0.13,0 0.13,0.09 0.13,0.27 z"
   style="fill:#000000;fill-opacity:1;stroke:#000000;stroke-width:0;stroke-opacity:1"
   id="path7227" />
<path
   inkscape:connector-curvature="0"
   d="m 173.59,657.76 v 0.03 0.03 l -0.01,0.02 v 0.03 l -0.01,0.02 v 0.03 l -0.01,0.02 -0.01,0.03 -0.01,0.02 -0.01,0.02 -0.02,0.02 -0.01,0.03 -0.01,0.02 -0.02,0.02 -0.02,0.01 -0.01,0.02 -0.02,0.02 -0.02,0.02 -0.02,0.01 -0.02,0.02 -0.02,0.01 -0.03,0.01 -0.02,0.02 -0.02,0.01 -0.03,0.01 h -0.02 l -0.03,0.01 -0.02,0.01 h -0.03 l -0.02,0.01 h -0.03 -0.03 c -0.29,0 -0.53,-0.24 -0.53,-0.53 0,-0.29 0.24,-0.53 0.53,-0.53 0.29,0 0.53,0.24 0.53,0.53 z"
   style="fill:#000000;fill-opacity:1;stroke:#000000;stroke-width:0;stroke-opacity:1"
   id="path7229" />
</g>
        <path
           style="fill:#bdbdbd;fill-opacity:1;stroke:#636363;stroke-width:0.744;stroke-miterlimit:4;stroke-dasharray:none;stroke-dashoffset:0;stroke-opacity:1"
           d="m 74.791419,183.96318 c -10.719649,3.37425 -17.573039,13.57093 -16.580144,24.66849 0.992904,11.09753 9.573668,20.20772 20.759134,22.03992 11.185475,1.83219 22.064541,-4.09044 26.319331,-14.32838 z"
           id="path143"
           inkscape:connector-curvature="0"
           sodipodi:nodetypes="csscc" />
      </g>
      <g
         id="g187">
        <path
           sodipodi:nodetypes="csscc"
           inkscape:connector-curvature="0"
           id="path145"
           d="m 263.30349,183.96318 c 10.71965,3.37425 17.57304,13.57093 16.58015,24.66849 -0.99291,11.09753 -9.57367,20.20772 -20.75914,22.03992 -11.18549,1.83219 -22.06456,-4.09044 -26.31935,-14.32838 z"
           style="fill:#bdbdbd;fill-opacity:1;stroke:#636363;stroke-width:0.744;stroke-miterlimit:4;stroke-dasharray:none;stroke-dashoffset:0;stroke-opacity:1" />
        <g
           style="font-style:normal;font-variant:normal;font-weight:normal;font-stretch:normal;letter-spacing:normal;word-spacing:normal;text-anchor:start;fill:none;fill-opacity:1;fill-rule:evenodd;stroke:#000000;stroke-linecap:butt;stroke-linejoin:miter;stroke-miterlimit:10.433;stroke-dasharray:none;stroke-dashoffset:0;stroke-opacity:1"
           ns0:jacobian_sqrt="1.41111"
           inkscapeversion="0.92.4"
           ns0:alignment="middle center"
           ns0:scale="4.0"
           ns0:preamble="C:\\Users\\MatthewThornton\\AppData\\Roaming\\inkscape\\extensions\\textext\\default_packages.tex"
           ns0:text="Click?"
           ns0:pdfconverter="pstoedit"
           ns0:texconverter="pdflatex"
           ns0:version="0.10.2"
           word-spacing="normal"
           letter-spacing="normal"
           font-size-adjust="none"
           font-stretch="normal"
           font-weight="normal"
           font-variant="normal"
           font-style="normal"
           stroke-miterlimit="10.433"
           xml:space="preserve"
           transform="matrix(1.41111,0,0,-1.41111,27.576736,1170.9321)"
           id="g163">
<path
   id="path147"
   style="fill:#000000;fill-opacity:1;stroke:#000000;stroke-width:0;stroke-opacity:1"
   d="m 149.27,660.63 v -0.19 l 0.02,-0.19 0.02,-0.18 0.03,-0.18 0.04,-0.18 0.05,-0.18 0.06,-0.16 0.06,-0.17 0.07,-0.16 0.08,-0.16 0.09,-0.15 0.09,-0.15 0.1,-0.14 0.1,-0.13 0.11,-0.13 0.12,-0.13 0.12,-0.12 0.13,-0.11 0.13,-0.1 0.14,-0.1 0.14,-0.09 0.14,-0.09 0.15,-0.08 0.16,-0.07 0.15,-0.06 0.16,-0.06 0.16,-0.04 0.17,-0.04 0.17,-0.03 0.17,-0.03 0.17,-0.01 h 0.17 c 1.63,0 2.6,1.38 2.6,2.53 0,0.1 0,0.17 -0.13,0.17 -0.11,0 -0.11,-0.06 -0.12,-0.16 -0.08,-1.42 -1.14,-2.24 -2.23,-2.24 -0.61,0 -2.56,0.34 -2.56,3.3 0,2.97 1.94,3.31 2.55,3.31 1.09,0 1.97,-0.9 2.17,-2.35 0.02,-0.14 0.02,-0.17 0.16,-0.17 0.16,0 0.16,0.03 0.16,0.24 V 664 c 0,0.17 0,0.24 -0.11,0.24 -0.04,0 -0.08,0 -0.16,-0.12 l -0.49,-0.74 c -0.37,0.36 -0.88,0.86 -1.84,0.86 -1.86,0 -3.47,-1.58 -3.47,-3.61 z"
   inkscape:connector-curvature="0" />
<path
   id="path149"
   style="fill:#000000;fill-opacity:1;stroke:#000000;stroke-width:0;stroke-opacity:1"
   d="m 157.67,664.13 -1.43,-0.11 v -0.31 c 0.69,0 0.77,-0.07 0.77,-0.55 v -5.17 c 0,-0.45 -0.11,-0.45 -0.77,-0.45 v -0.31 c 0.33,0.01 0.85,0.04 1.1,0.04 0.25,0 0.74,-0.03 1.11,-0.04 v 0.31 c -0.67,0 -0.78,0 -0.78,0.45 z"
   inkscape:connector-curvature="0" />
<path
   id="path151"
   style="fill:#000000;fill-opacity:1;stroke:#000000;stroke-width:0;stroke-opacity:1"
   d="m 160.44,661.63 -1.4,-0.11 v -0.31 c 0.65,0 0.74,-0.06 0.74,-0.55 v -2.67 c 0,-0.45 -0.11,-0.45 -0.78,-0.45 v -0.31 c 0.32,0.01 0.86,0.04 1.1,0.04 0.35,0 0.7,-0.03 1.04,-0.04 v 0.31 c -0.66,0 -0.7,0.05 -0.7,0.44 z"
   inkscape:connector-curvature="0" />
<path
   id="path153"
   style="fill:#000000;fill-opacity:1;stroke:#000000;stroke-width:0;stroke-opacity:1"
   d="m 160.48,663.35 v 0.03 0.03 l -0.01,0.03 v 0.03 l -0.01,0.02 -0.01,0.03 v 0.03 l -0.01,0.02 -0.02,0.02 -0.01,0.03 -0.01,0.02 -0.01,0.02 -0.02,0.02 -0.02,0.02 -0.01,0.02 -0.02,0.02 -0.02,0.01 -0.02,0.02 -0.02,0.01 -0.02,0.02 -0.02,0.01 -0.02,0.01 -0.03,0.01 -0.02,0.01 -0.02,0.01 -0.03,0.01 -0.02,0.01 h -0.03 l -0.02,0.01 h -0.03 -0.02 -0.03 c -0.31,0 -0.53,-0.27 -0.53,-0.53 0,-0.26 0.22,-0.52 0.53,-0.52 0.28,0 0.53,0.21 0.53,0.52 z"
   inkscape:connector-curvature="0" />
<path
   id="path155"
   style="fill:#000000;fill-opacity:1;stroke:#000000;stroke-width:0;stroke-opacity:1"
   d="m 162.61,659.4 v 0.08 0.07 0.07 l 0.01,0.07 v 0.07 l 0.01,0.07 0.01,0.06 0.01,0.06 v 0.06 l 0.01,0.06 0.02,0.06 0.01,0.06 0.02,0.11 0.04,0.1 0.03,0.1 0.03,0.09 0.04,0.09 0.05,0.08 0.04,0.07 0.05,0.07 0.04,0.07 0.05,0.06 0.06,0.05 0.05,0.05 0.05,0.05 0.06,0.04 0.05,0.04 0.06,0.03 0.06,0.03 0.05,0.03 0.06,0.02 0.05,0.02 0.06,0.01 0.06,0.02 0.05,0.01 h 0.05 l 0.05,0.01 h 0.06 c 0.08,0 0.71,-0.01 1.06,-0.37 -0.41,-0.03 -0.47,-0.33 -0.47,-0.46 0,-0.26 0.18,-0.45 0.46,-0.45 0.26,0 0.46,0.16 0.46,0.46 0,0.68 -0.76,1.06 -1.52,1.06 -1.25,0 -2.17,-1.07 -2.17,-2.3 0,-1.27 0.99,-2.25 2.15,-2.25 1.33,0 1.65,1.19 1.65,1.29 0,0.1 -0.1,0.1 -0.13,0.1 -0.09,0 -0.11,-0.04 -0.13,-0.1 -0.29,-0.93 -0.94,-1.05 -1.31,-1.05 -0.52,0 -1.4,0.43 -1.4,2.03 z"
   inkscape:connector-curvature="0" />
<path
   id="path157"
   style="fill:#000000;fill-opacity:1;stroke:#000000;stroke-width:0;stroke-opacity:1"
   d="m 166.65,657.99 v -0.02 -0.02 -0.04 l -0.01,-0.03 v -0.04 -0.03 l -0.01,-0.03 v -0.02 l -0.01,-0.03 -0.01,-0.02 -0.01,-0.02 -0.01,-0.02 -0.01,-0.02 -0.02,-0.01 -0.01,-0.02 -0.02,-0.01 -0.02,-0.01 -0.02,-0.01 -0.03,-0.01 -0.02,-0.01 h -0.03 l -0.03,-0.01 h -0.03 l -0.04,-0.01 h -0.02 -0.02 -0.02 -0.02 -0.02 -0.02 -0.02 l -0.03,-0.01 h -0.02 -0.02 -0.03 -0.03 -0.02 -0.03 -0.03 -0.03 -0.03 -0.03 v -0.31 c 0.33,0.01 0.8,0.04 1.09,0.04 0.3,0 0.69,-0.01 1.09,-0.04 v 0.31 c -0.66,0 -0.77,0 -0.77,0.45 v 1.02 l 0.63,0.55 c 0.77,-1.05 1.19,-1.61 1.19,-1.79 0,-0.19 -0.17,-0.23 -0.36,-0.23 v -0.31 c 0.28,0.01 0.87,0.04 1.08,0.04 0.29,0 0.58,-0.01 0.87,-0.04 v 0.31 c -0.37,0 -0.59,0 -0.97,0.53 l -1.27,1.78 c -0.01,0.02 -0.06,0.08 -0.06,0.11 0,0.04 0.71,0.63 0.81,0.71 0.63,0.51 1.05,0.53 1.26,0.54 v 0.31 c -0.29,-0.03 -0.42,-0.03 -0.7,-0.03 -0.36,0 -0.98,0.02 -1.12,0.03 v -0.31 c 0.19,-0.01 0.29,-0.12 0.29,-0.25 0,-0.2 -0.14,-0.32 -0.22,-0.39 l -1.4,-1.21 v 4.77 l -1.44,-0.11 v -0.31 c 0.7,0 0.78,-0.07 0.78,-0.55 z"
   inkscape:connector-curvature="0" />
<path
   id="path159"
   style="fill:#000000;fill-opacity:1;stroke:#000000;stroke-width:0;stroke-opacity:1"
   d="m 173.19,659.71 v 0.11 l 0.01,0.12 0.02,0.11 0.01,0.1 0.03,0.11 0.02,0.1 0.03,0.09 0.04,0.1 0.04,0.09 0.04,0.08 0.04,0.09 0.05,0.08 0.04,0.08 0.05,0.08 0.06,0.07 0.05,0.07 0.05,0.07 0.06,0.06 0.05,0.06 0.06,0.06 0.05,0.05 0.06,0.06 0.05,0.05 0.06,0.04 0.05,0.05 0.05,0.04 0.05,0.04 0.04,0.04 0.05,0.03 0.04,0.03 0.03,0.03 0.04,0.02 c 0.27,0.2 0.48,0.56 0.48,0.98 0,0.57 -0.4,1.34 -1.89,1.34 -1.08,0 -1.69,-0.68 -1.69,-1.32 0,-0.34 0.23,-0.48 0.46,-0.48 0.28,0 0.45,0.2 0.45,0.46 0,0.44 -0.41,0.44 -0.55,0.44 0.3,0.53 0.88,0.68 1.3,0.68 1.09,0 1.09,-0.68 1.09,-1.06 0,-0.59 -0.16,-0.77 -0.34,-0.95 -0.66,-0.71 -0.88,-1.63 -0.88,-2.23 v -0.45 c 0,-0.18 0,-0.24 0.12,-0.24 0.13,0 0.13,0.09 0.13,0.27 z"
   inkscape:connector-curvature="0" />
<path
   id="path161"
   style="fill:#000000;fill-opacity:1;stroke:#000000;stroke-width:0;stroke-opacity:1"
   d="m 173.59,657.76 v 0.03 0.03 l -0.01,0.02 v 0.03 l -0.01,0.02 v 0.03 l -0.01,0.02 -0.01,0.03 -0.01,0.02 -0.01,0.02 -0.02,0.02 -0.01,0.03 -0.01,0.02 -0.02,0.02 -0.02,0.01 -0.01,0.02 -0.02,0.02 -0.02,0.02 -0.02,0.01 -0.02,0.02 -0.02,0.01 -0.03,0.01 -0.02,0.02 -0.02,0.01 -0.03,0.01 h -0.02 l -0.03,0.01 -0.02,0.01 h -0.03 l -0.02,0.01 h -0.03 -0.03 c -0.29,0 -0.53,-0.24 -0.53,-0.53 0,-0.29 0.24,-0.53 0.53,-0.53 0.29,0 0.53,0.24 0.53,0.53 z"
   inkscape:connector-curvature="0" />
</g>
      </g>
      <g
         id="g662"
         ns0:jacobian_sqrt="2.82222"
         ns0:inkscapeversion="1.0"
         ns0:alignment="middle center"
         ns0:scale="8.0"
         ns0:preamble="C:\\Users\\mt45\\AppData\\Roaming\\inkscape\\extensions\\textext\\default_packages.tex"
         ns0:text="D"
         ns0:pdfconverter="inkscape"
         ns0:texconverter="pdflatex"
         ns0:version="1.0.1"
         transform="matrix(2.82222,0,0,2.82222,246.90186,204.05968)">
        <defs
           id="id-5d2e5b31-2547-4040-91a7-7252985f6d4f">
          <g
             id="id-32f0c14e-44e5-48bf-9d1c-e2a5d143bc34">
            <symbol
               overflow="visible"
               id="id-74d64b4b-b798-47c1-85dd-c6f4af9bcc25">
              <path
                 style="stroke:none"
                 d=""
                 id="id-e7211e3e-f47f-42a0-888a-36900ab13823" />
            </symbol>
            <symbol
               overflow="visible"
               id="id-076ae73e-1f0c-4f8e-899a-1e0c2b21d363">
              <path
                 style="stroke:none"
                 d="M 0.34375,-6.8125 V -6.5 h 0.25 c 0.765625,0 0.78125,0.109375 0.78125,0.46875 v 5.25 c 0,0.359375 -0.015625,0.46875 -0.78125,0.46875 h -0.25 V 0 H 4 C 5.671875,0 7.046875,-1.46875 7.046875,-3.34375 7.046875,-5.25 5.703125,-6.8125 4,-6.8125 Z m 2.375,6.5 C 2.25,-0.3125 2.234375,-0.375 2.234375,-0.703125 V -6.09375 C 2.234375,-6.4375 2.25,-6.5 2.71875,-6.5 h 1 c 0.625,0 1.3125,0.21875 1.8125,0.921875 0.4375,0.59375 0.515625,1.453125 0.515625,2.234375 0,1.09375 -0.1875,1.703125 -0.546875,2.1875 -0.203125,0.265625 -0.765625,0.84375 -1.765625,0.84375 z m 0,0"
                 id="id-99696ce2-c5a0-43d4-9491-8d02b2c78723" />
            </symbol>
          </g>
        </defs>
        <g
           id="id-d08182bd-d5d5-4749-b5ad-7135337273b0"
           transform="translate(-149.056,-127.953)">
          <g
             style="fill:#000000;fill-opacity:1"
             id="id-b0f86b41-da34-4f50-a4e1-92500f5d9065">
            <g
               id="g658"
               transform="translate(148.712,134.765)">
              <path
                 style="stroke:none"
                 d="M 0.34375,-6.8125 V -6.5 h 0.25 c 0.765625,0 0.78125,0.109375 0.78125,0.46875 v 5.25 c 0,0.359375 -0.015625,0.46875 -0.78125,0.46875 h -0.25 V 0 H 4 C 5.671875,0 7.046875,-1.46875 7.046875,-3.34375 7.046875,-5.25 5.703125,-6.8125 4,-6.8125 Z m 2.375,6.5 C 2.25,-0.3125 2.234375,-0.375 2.234375,-0.703125 V -6.09375 C 2.234375,-6.4375 2.25,-6.5 2.71875,-6.5 h 1 c 0.625,0 1.3125,0.21875 1.8125,0.921875 0.4375,0.59375 0.515625,1.453125 0.515625,2.234375 0,1.09375 -0.1875,1.703125 -0.546875,2.1875 -0.203125,0.265625 -0.765625,0.84375 -1.765625,0.84375 z m 0,0"
                 id="id-a6e75bad-97a8-421f-9573-d771e669db69" />
            </g>
          </g>
        </g>
      </g>
      <g
         id="g784"
         ns0:jacobian_sqrt="2.82222"
         ns0:inkscapeversion="1.0"
         ns0:alignment="middle center"
         ns0:scale="8.0"
         ns0:preamble="C:\\Users\\mt45\\AppData\\Roaming\\inkscape\\extensions\\textext\\default_packages.tex"
         ns0:text="A"
         ns0:pdfconverter="inkscape"
         ns0:texconverter="pdflatex"
         ns0:version="1.0.1"
         transform="matrix(2.82222,0,0,2.82222,72.101077,203.59419)">
        <defs
           id="id-3ab618c8-b05b-48dc-a119-5f659103656b">
          <g
             id="id-7218925b-1a08-45eb-baa4-51b1f85553da">
            <symbol
               overflow="visible"
               id="id-904eb05f-77ad-4803-b99a-3e3dd1240549">
              <path
                 style="stroke:none"
                 d=""
                 id="id-39f64fc1-50af-4149-a407-02cdfbcf0896" />
            </symbol>
            <symbol
               overflow="visible"
               id="id-460a31de-0257-454b-9fb7-46d8bff776ae">
              <path
                 style="stroke:none"
                 d="m 3.96875,-6.9375 c -0.046875,-0.125 -0.078125,-0.203125 -0.234375,-0.203125 -0.15625,0 -0.1875,0.0625 -0.234375,0.203125 L 1.4375,-0.984375 C 1.25,-0.46875 0.859375,-0.3125 0.3125,-0.3125 V 0 c 0.234375,-0.015625 0.671875,-0.03125 1.015625,-0.03125 0.3125,0 0.828125,0.015625 1.15625,0.03125 v -0.3125 c -0.5,0 -0.75,-0.25 -0.75,-0.5 0,-0.03125 0.015625,-0.140625 0.015625,-0.15625 L 2.21875,-2.265625 H 4.671875 L 5.203125,-0.75 c 0.015625,0.046875 0.03125,0.109375 0.03125,0.140625 0,0.296875 -0.5625,0.296875 -0.828125,0.296875 V 0 c 0.359375,-0.03125 1.0625,-0.03125 1.4375,-0.03125 0.421875,0 0.890625,0.015625 1.296875,0.03125 V -0.3125 H 6.96875 C 6.375,-0.3125 6.234375,-0.375 6.125,-0.703125 Z m -0.53125,1.109375 1.125,3.25 H 2.328125 Z m 0,0"
                 id="id-9fec5fe0-9837-429c-b07d-52177075a0ec" />
            </symbol>
          </g>
        </defs>
        <g
           id="id-5048276b-2c35-41ae-ab14-1e153dde695c"
           transform="translate(-149.025,-127.624)">
          <g
             style="fill:#000000;fill-opacity:1"
             id="id-b9c04348-958c-46b9-a6bc-ee78490e306b">
            <g
               id="g780"
               transform="translate(148.712,134.765)">
              <path
                 style="stroke:none"
                 d="m 3.96875,-6.9375 c -0.046875,-0.125 -0.078125,-0.203125 -0.234375,-0.203125 -0.15625,0 -0.1875,0.0625 -0.234375,0.203125 L 1.4375,-0.984375 C 1.25,-0.46875 0.859375,-0.3125 0.3125,-0.3125 V 0 c 0.234375,-0.015625 0.671875,-0.03125 1.015625,-0.03125 0.3125,0 0.828125,0.015625 1.15625,0.03125 v -0.3125 c -0.5,0 -0.75,-0.25 -0.75,-0.5 0,-0.03125 0.015625,-0.140625 0.015625,-0.15625 L 2.21875,-2.265625 H 4.671875 L 5.203125,-0.75 c 0.015625,0.046875 0.03125,0.109375 0.03125,0.140625 0,0.296875 -0.5625,0.296875 -0.828125,0.296875 V 0 c 0.359375,-0.03125 1.0625,-0.03125 1.4375,-0.03125 0.421875,0 0.890625,0.015625 1.296875,0.03125 V -0.3125 H 6.96875 C 6.375,-0.3125 6.234375,-0.375 6.125,-0.703125 Z m -0.53125,1.109375 1.125,3.25 H 2.328125 Z m 0,0"
                 id="id-d43c2d76-6d20-4251-b2ed-7a5be3361aa3" />
            </g>
          </g>
        </g>
      </g>
    </g>
  </g>
</svg>
