<?xml version="1.0" encoding="UTF-8" standalone="no"?>
<!-- Created with Inkscape (http://www.inkscape.org/) -->

<svg
   xmlns:ns0="http://www.iki.fi/pav/software/textext/"
   xmlns:dc="http://purl.org/dc/elements/1.1/"
   xmlns:cc="http://creativecommons.org/ns#"
   xmlns:rdf="http://www.w3.org/1999/02/22-rdf-syntax-ns#"
   xmlns:svg="http://www.w3.org/2000/svg"
   xmlns="http://www.w3.org/2000/svg"
   xmlns:sodipodi="http://sodipodi.sourceforge.net/DTD/sodipodi-0.dtd"
   xmlns:inkscape="http://www.inkscape.org/namespaces/inkscape"
   width="122.25691mm"
   height="58.76474mm"
   viewBox="0 0 122.25691 58.76474"
   version="1.1"
   id="svg1274"
   inkscape:version="0.92.4 (5da689c313, 2019-01-14)"
   sodipodi:docname="multi_mode.svg">
  <defs
     id="defs1268" />
  <sodipodi:namedview
     id="base"
     pagecolor="#ffffff"
     bordercolor="#666666"
     borderopacity="1.0"
     inkscape:pageopacity="0.0"
     inkscape:pageshadow="2"
     inkscape:zoom="1.4"
     inkscape:cx="64.856667"
     inkscape:cy="89.984626"
     inkscape:document-units="mm"
     inkscape:current-layer="layer1"
     showgrid="false"
     inkscape:window-width="1920"
     inkscape:window-height="1013"
     inkscape:window-x="-9"
     inkscape:window-y="-9"
     inkscape:window-maximized="1"
     fit-margin-top="0"
     fit-margin-left="0"
     fit-margin-right="0"
     fit-margin-bottom="0" />
  <metadata
     id="metadata1271">
    <rdf:RDF>
      <cc:Work
         rdf:about="">
        <dc:format>image/svg+xml</dc:format>
        <dc:type
           rdf:resource="http://purl.org/dc/dcmitype/StillImage" />
        <dc:title></dc:title>
      </cc:Work>
    </rdf:RDF>
  </metadata>
  <g
     inkscape:label="Layer 1"
     inkscape:groupmode="layer"
     id="layer1"
     transform="translate(-18.246529,-101.3081)">
    <g
       id="g997">
      <path
         style="display:inline;opacity:1;fill:none;fill-opacity:1;fill-rule:nonzero;stroke:none;stroke-width:0.2375;stroke-linecap:butt;stroke-linejoin:miter;stroke-miterlimit:4;stroke-dasharray:none;stroke-dashoffset:0;stroke-opacity:0.13131313"
         d="m 33.656089,109.90328 c -0.54808,0.1721 -0.36825,0.94939 -0.59612,1.37607 -0.30762,1.10748 -1.02622,2.01108 -1.6459,2.94574 -0.0684,0.61216 0.79231,0.58177 1.17103,0.82793 10.90009,4.19414 20.549375,11.03395 29.678135,18.24806 0.69424,0.27281 0.57383,-0.70916 0.63298,-1.11482 0.11515,-1.69957 0.81274,-3.30232 1.93829,-4.57308 0.27036,-0.65542 -0.70659,-0.68694 -1.09152,-0.93716 -8.02363,-3.30777 -15.927166,-7.05843 -23.115375,-11.95899 -2.26481,-1.49168 -4.42421,-3.14622 -6.62565,-4.72405 -0.10566,-0.0563 -0.22374,-0.1034 -0.34587,-0.0897 z"
         id="path6045-1"
         inkscape:connector-curvature="0" />
      <path
         style="display:inline;opacity:1;fill:none;fill-opacity:1;fill-rule:nonzero;stroke:none;stroke-width:0.2375;stroke-linecap:butt;stroke-linejoin:miter;stroke-miterlimit:4;stroke-dasharray:none;stroke-dashoffset:0;stroke-opacity:0.13131313"
         d="m 33.656089,109.90328 c -0.54808,0.1721 -0.36825,0.94939 -0.59612,1.37607 -0.30762,1.10748 -1.02622,2.01108 -1.6459,2.94574 -0.0684,0.61216 0.79231,0.58177 1.17103,0.82793 10.90009,4.19414 20.549375,11.03395 29.678135,18.24806 0.69424,0.27281 0.57383,-0.70916 0.63298,-1.11482 0.11515,-1.69957 0.81274,-3.30232 1.93829,-4.57308 0.27036,-0.65542 -0.70659,-0.68694 -1.09152,-0.93716 -8.02363,-3.30777 -15.927166,-7.05843 -23.115375,-11.95899 -2.26481,-1.49168 -4.42421,-3.14622 -6.62565,-4.72405 -0.10566,-0.0563 -0.22374,-0.1034 -0.34587,-0.0897 z"
         id="path6047-5"
         inkscape:connector-curvature="0" />
      <path
         style="display:inline;opacity:1;fill:none;fill-opacity:1;fill-rule:nonzero;stroke:none;stroke-width:0.2375;stroke-linecap:butt;stroke-linejoin:miter;stroke-miterlimit:4;stroke-dasharray:none;stroke-dashoffset:0;stroke-opacity:0.13131313"
         d="m 33.656089,109.90328 c -0.54808,0.1721 -0.36825,0.94939 -0.59612,1.37607 -0.30762,1.10748 -1.02622,2.01108 -1.6459,2.94574 -0.0684,0.61216 0.79231,0.58177 1.17103,0.82793 10.90009,4.19414 20.549375,11.03395 29.678135,18.24806 0.69424,0.27281 0.57383,-0.70916 0.63298,-1.11482 0.11515,-1.69957 0.81274,-3.30232 1.93829,-4.57308 0.27036,-0.65542 -0.70659,-0.68694 -1.09152,-0.93716 -8.02363,-3.30777 -15.927166,-7.05843 -23.115375,-11.95899 -2.26481,-1.49168 -4.42421,-3.14622 -6.62565,-4.72405 -0.10566,-0.0563 -0.22374,-0.1034 -0.34587,-0.0897 z"
         id="path6049-16"
         inkscape:connector-curvature="0" />
      <path
         style="display:inline;opacity:1;fill:#ffaaaa;fill-opacity:1;fill-rule:nonzero;stroke:none;stroke-width:0.2375;stroke-linecap:butt;stroke-linejoin:miter;stroke-miterlimit:4;stroke-dasharray:none;stroke-dashoffset:0;stroke-opacity:0.13131313"
         d="m 63.558104,136.43526 c -1.17991,1.75151 -2.42594,3.49085 -4.07635,4.8382 -1.90296,1.67881 -4.18819,2.81598 -6.4817,3.85303 -0.28893,0.1833 0.37617,0.30366 0.48889,0.392 1.31993,0.62102 2.36556,1.68504 3.25488,2.80936 0.85053,-1.08265 1.49635,-2.36283 2.42567,-3.40794 1.93378,-2.39577 4.38049,-4.34461 7.08243,-5.80671 0.037,-0.24794 -0.56761,-0.38966 -0.73178,-0.60443 -0.79748,-0.54637 -1.33108,-1.39274 -1.96204,-2.07351 z"
         id="path6073-7"
         inkscape:connector-curvature="0" />
      <path
         style="display:inline;opacity:1;fill:#ff00ff;fill-opacity:1;fill-rule:nonzero;stroke:none;stroke-width:0.35332382;stroke-linecap:butt;stroke-linejoin:miter;stroke-miterlimit:4;stroke-dasharray:none;stroke-dashoffset:0;stroke-opacity:0.13131313"
         d="m 63.688884,136.34543 c -1.2907,1.61471 -2.453,3.36939 -4.05971,4.71317 -2.03748,1.84599 -4.48904,3.22259 -7.02006,4.25355 -0.50477,0.11877 0.41352,0.61178 0.57274,0.68366 1.31686,0.61391 2.33769,1.71315 3.24618,2.78738 1.50332,-1.77584 2.64422,-3.93464 4.41472,-5.51847 1.72921,-1.64848 3.66381,-3.09803 5.80401,-4.17035 -1.17305,-0.72169 -2.04938,-1.76348 -2.95788,-2.74894 z"
         id="path4561-8"
         inkscape:connector-curvature="0" />
      <path
         style="display:inline;opacity:1;fill:none;fill-opacity:1;fill-rule:nonzero;stroke:none;stroke-width:0.47499999;stroke-linecap:butt;stroke-linejoin:miter;stroke-miterlimit:4;stroke-dasharray:none;stroke-dashoffset:0;stroke-opacity:0.13131313"
         d="m 69.989734,125.45037 c -3.98694,-0.20219 -7.43675,3.47436 -7.27015,7.39785 -0.0572,3.39778 2.58959,6.61085 5.94796,7.15719 3.97859,0.77989 8.31647,-2.1802 8.72409,-6.28681 0.65597,-4.27261 -2.98552,-8.59899 -7.4019,-8.26823 z m -2.6259,2.8267 c 0.70135,-0.01 1.24342,0.7752 1.94524,0.30046 0.86123,0.0918 0.10508,1.33025 0.10261,1.84264 -0.20245,1.33698 -1.05739,2.80471 -0.58062,4.13374 0.97191,0.43842 1.09074,-1.20557 1.4355,-1.76364 0.43238,-0.64879 0.24201,0.57901 0.0716,0.74894 -0.12135,1.10457 -1.37307,1.76053 -2.26749,1.0243 -0.64658,-1.10672 -1.36086,0.5532 -2.28594,0.33959 -2.1341,-0.0482 -2.50809,-2.9313 -1.44032,-4.36329 0.50667,-1.18001 1.70053,-2.21695 3.0194,-2.26274 z m 6.67475,1.88841 c 1.13082,-0.11561 2.48563,0.84303 1.84225,2.07554 -0.81296,0.83874 -0.92003,1.40177 0.14396,2.07666 1.14918,1.3013 -0.63481,3.03367 -2.03532,2.93263 -1.01723,0.0611 -2.75077,-0.73058 -2.1859,-1.96628 0.60247,-0.60679 1.46598,0.62461 0.52378,0.98333 0.34559,0.53275 1.43727,0.84397 2.08255,0.53485 1.5741,-0.78105 0.84308,-3.56022 -0.97624,-3.27332 -1.16954,-0.0123 0.91857,-0.25985 1.17188,-0.79473 0.89946,-0.72555 0.47848,-2.59519 -0.88219,-2.26195 -0.44827,-0.003 -1.55475,0.31513 -0.81723,0.8523 0.42219,0.83067 -1.21253,0.98036 -0.91985,0.072 0.19967,-0.91983 1.20259,-1.28925 2.05231,-1.23101 z"
         id="path4571-2"
         inkscape:connector-curvature="0" />
      <path
         style="display:inline;opacity:1;fill:none;fill-opacity:1;fill-rule:nonzero;stroke:none;stroke-width:0.47499999;stroke-linecap:butt;stroke-linejoin:miter;stroke-miterlimit:4;stroke-dasharray:none;stroke-dashoffset:0;stroke-opacity:0.13131313"
         d="m 77.204134,129.9932 c 0.35972,1.79869 0.54062,3.80418 -0.1661,5.57663 2.42277,-1.18894 5.27967,-1.02386 7.7581,-0.14137 -0.23463,-1.26761 -0.59931,-2.7876 -0.25505,-4.15627 0.31831,-0.76336 0.0757,-1.269 -0.79102,-0.81612 -2.18961,0.44035 -4.40968,0.0333 -6.54593,-0.46287 z"
         id="path4573-5"
         inkscape:connector-curvature="0" />
      <path
         style="display:inline;opacity:1;fill:#00ffff;fill-opacity:1;fill-rule:nonzero;stroke:none;stroke-width:0.58881825;stroke-linecap:butt;stroke-linejoin:miter;stroke-miterlimit:4;stroke-dasharray:none;stroke-dashoffset:0;stroke-opacity:0.13131313"
         d="m 75.448484,129.96958 c 0.54814,1.81392 0.82379,3.8364 -0.2531,5.62387 3.69169,-1.19901 8.04488,-1.03254 11.82135,-0.14257 -0.35751,-1.27836 -0.91317,-2.81122 -0.38864,-4.19147 0.48503,-0.76983 0.11541,-1.27976 -1.20531,-0.82304 -3.33639,0.44408 -6.7192,0.0336 -9.9743,-0.46679 z"
         id="path4575-2"
         inkscape:connector-curvature="0" />
      <path
         style="display:inline;opacity:1;fill:#ff00ff;fill-opacity:0.36683415;fill-rule:nonzero;stroke:none;stroke-width:0.52561736;stroke-linecap:butt;stroke-linejoin:miter;stroke-miterlimit:4;stroke-dasharray:none;stroke-dashoffset:0;stroke-opacity:0.13131313"
         d="m 32.312351,109.59992 c -0.12938,1.67962 -1.13943,3.18379 -2.00149,4.57552 2.69658,1.43346 5.73126,2.28112 8.445887,3.72683 9.3755,4.3987 17.849606,10.29276 26.050116,16.42382 0.75919,0.70227 0.50651,-0.9263 0.67621,-1.29417 0.29174,-1.67614 1.07405,-3.26534 2.21827,-4.56393 -11.36543,-4.46247 -22.494157,-9.69144 -32.331623,-16.7994 -1.01581,-0.6896 -2.00598,-1.44041 -3.05737,-2.06867 z"
         id="path4683-3"
         inkscape:connector-curvature="0" />
      <path
         inkscape:connector-curvature="0"
         id="path5952"
         d="m 99.108144,130.36027 c 0.0994,0.49757 0.2586,1.01871 0.30159,1.53966 0.12844,1.08593 0.004,2.19433 -0.33787,3.23132 -0.0388,0.14823 0.1847,0.0195 0.25306,0.0416 3.769316,-0.49278 7.566296,-0.77956 11.366706,-0.86074 2.78588,-0.029 5.57449,-0.0272 8.3555,0.16132 2.23451,0.13543 4.46304,0.35892 6.68311,0.64499 -0.20873,-0.71257 -0.37828,-1.44392 -0.35622,-2.19139 -0.0214,-0.74003 0.0337,-1.48364 0.24147,-2.19715 0.013,-0.0599 0.09,-0.20742 -0.0396,-0.16555 -8.77087,1.12436 -17.69095,1.03631 -26.444346,-0.20508 h -0.0133 z"
         style="display:inline;opacity:1;fill:#00ffff;fill-opacity:0.18039216;fill-rule:nonzero;stroke:none;stroke-width:0.08396893;stroke-linecap:butt;stroke-linejoin:miter;stroke-miterlimit:4;stroke-dasharray:none;stroke-dashoffset:0;stroke-opacity:1" />
      <circle
         style="display:inline;opacity:1;fill:#ff95fa;fill-opacity:1;fill-rule:nonzero;stroke:#000000;stroke-width:0.5;stroke-linecap:butt;stroke-linejoin:miter;stroke-miterlimit:2.29999995;stroke-dasharray:none;stroke-dashoffset:0;stroke-opacity:1"
         id="path4485-2"
         cx="50.301617"
         cy="152.33929"
         r="7.4835467" />
      <circle
         style="display:inline;opacity:1;fill:#ff95fa;fill-opacity:1;fill-rule:nonzero;stroke:#000000;stroke-width:0.5;stroke-linecap:butt;stroke-linejoin:miter;stroke-miterlimit:2.29999995;stroke-dasharray:none;stroke-dashoffset:0;stroke-opacity:1"
         id="path4485-4-6"
         cx="25.980076"
         cy="109.04165"
         r="7.4835467" />
      <circle
         style="display:inline;opacity:1;fill:#a0e3ff;fill-opacity:1;fill-rule:nonzero;stroke:#000000;stroke-width:0.5;stroke-linecap:butt;stroke-linejoin:miter;stroke-miterlimit:2.29999995;stroke-dasharray:none;stroke-dashoffset:0;stroke-opacity:1"
         id="path4485-46-6"
         cx="70.079544"
         cy="132.78152"
         r="7.4835467" />
      <circle
         style="display:inline;opacity:1;fill:#a0deff;fill-opacity:1;fill-rule:nonzero;stroke:#000000;stroke-width:0.5;stroke-linecap:butt;stroke-linejoin:miter;stroke-miterlimit:2.29999995;stroke-dasharray:none;stroke-dashoffset:0;stroke-opacity:1"
         id="path4485-46-0"
         cx="91.906563"
         cy="132.78152"
         r="7.4835467" />
      <circle
         style="display:inline;opacity:1;fill:#a0e3ff;fill-opacity:1;fill-rule:nonzero;stroke:#000000;stroke-width:0.5;stroke-linecap:butt;stroke-linejoin:miter;stroke-miterlimit:2.29999995;stroke-dasharray:none;stroke-dashoffset:0;stroke-opacity:1"
         id="path4485-46-0-0-9-0"
         cx="132.7699"
         cy="132.78152"
         r="7.4835467" />
      <g
         transform="translate(-0.040526,-108.04477)"
         id="g6528"
         style="display:inline">
        <circle
           r="0.53453898"
           cy="240.82628"
           cx="115.29338"
           id="path4485-46-0-0-9-4-1-9"
           style="display:inline;opacity:1;fill:#49deff;fill-opacity:1;fill-rule:nonzero;stroke:none;stroke-width:0.03571428;stroke-linecap:butt;stroke-linejoin:miter;stroke-miterlimit:2.29999995;stroke-dasharray:none;stroke-dashoffset:0;stroke-opacity:0.13131313" />
        <circle
           r="0.53453898"
           cy="240.82628"
           cx="113.3503"
           id="path4485-46-0-0-9-4-1-9-7"
           style="display:inline;opacity:1;fill:#49deff;fill-opacity:1;fill-rule:nonzero;stroke:none;stroke-width:0.03571428;stroke-linecap:butt;stroke-linejoin:miter;stroke-miterlimit:2.29999995;stroke-dasharray:none;stroke-dashoffset:0;stroke-opacity:0.13131313" />
        <circle
           r="0.53453898"
           cy="240.82628"
           cx="111.40722"
           id="path4485-46-0-0-9-4-1-9-4"
           style="display:inline;opacity:1;fill:#49deff;fill-opacity:1;fill-rule:nonzero;stroke:none;stroke-width:0.03571428;stroke-linecap:butt;stroke-linejoin:miter;stroke-miterlimit:2.29999995;stroke-dasharray:none;stroke-dashoffset:0;stroke-opacity:0.13131313" />
        <circle
           r="0.53453898"
           cy="240.82628"
           cx="109.46414"
           id="path4485-46-0-0-9-4-1-9-9"
           style="display:inline;opacity:1;fill:#49deff;fill-opacity:1;fill-rule:nonzero;stroke:none;stroke-width:0.03571428;stroke-linecap:butt;stroke-linejoin:miter;stroke-miterlimit:2.29999995;stroke-dasharray:none;stroke-dashoffset:0;stroke-opacity:0.13131313" />
      </g>
      <g
         style="font-style:normal;font-variant:normal;font-weight:normal;font-stretch:normal;letter-spacing:normal;word-spacing:normal;text-anchor:start;fill:#000000;fill-opacity:1;fill-rule:evenodd;stroke:#000000;stroke-linecap:butt;stroke-linejoin:miter;stroke-miterlimit:10.43299961;stroke-dasharray:none;stroke-dashoffset:0;stroke-opacity:1"
         ns0:jacobian_sqrt="1.0"
         inkscapeversion="0.92.4"
         ns0:alignment="middle center"
         ns0:scale="2.83464566935"
         ns0:preamble="C:\\Users\\MatthewThornton\\AppData\\Roaming\\inkscape\\extensions\\textext\\default_packages.tex"
         ns0:text="$a$"
         ns0:pdfconverter="pstoedit"
         ns0:texconverter="pdflatex"
         ns0:version="0.10.2"
         word-spacing="normal"
         letter-spacing="normal"
         font-size-adjust="none"
         font-stretch="normal"
         font-weight="normal"
         font-variant="normal"
         font-style="normal"
         stroke-miterlimit="10.433"
         xml:space="preserve"
         transform="matrix(1,0,0,-1,-125.41492,768.42165)"
         id="g2641">
<path
   inkscape:connector-curvature="0"
   id="path2639"
   style="fill:#000000;fill-opacity:1;stroke:#000000;stroke-width:0;stroke-opacity:1"
   d="m 152.43,660.99 -0.02,0.03 -0.01,0.04 -0.02,0.03 -0.02,0.03 -0.02,0.03 -0.02,0.04 -0.02,0.03 -0.02,0.02 -0.03,0.03 -0.02,0.03 -0.02,0.03 -0.03,0.02 -0.02,0.03 -0.03,0.02 -0.03,0.02 -0.03,0.03 -0.02,0.02 -0.03,0.02 -0.03,0.01 -0.04,0.02 -0.03,0.02 -0.03,0.01 -0.03,0.02 -0.04,0.01 -0.03,0.01 -0.04,0.01 -0.04,0.01 h -0.04 l -0.03,0.01 h -0.04 l -0.04,0.01 h -0.05 c -1.16,0 -2.4,-1.47 -2.4,-2.91 0,-0.94 0.55,-1.59 1.33,-1.59 l 0.02,0.21 c -0.5,0 -0.64,0.55 -0.64,0.94 0,0.5 0.32,1.72 0.55,2.17 0.31,0.59 0.76,0.96 1.15,0.96 0.65,0 0.79,-0.82 0.79,-0.88 0,-0.06 -0.02,-0.12 -0.03,-0.17 l -0.5,-1.94 c -0.05,-0.18 -0.05,-0.2 -0.2,-0.37 -0.43,-0.55 -0.84,-0.71 -1.12,-0.71 l -0.02,-0.21 c 0.2,0 0.69,0.03 1.29,0.74 0.08,-0.42 0.43,-0.74 0.91,-0.74 0.35,0 0.58,0.22 0.74,0.54 0.17,0.36 0.3,0.97 0.3,0.99 0,0.1 -0.09,0.1 -0.12,0.1 -0.1,0 -0.11,-0.04 -0.14,-0.18 -0.17,-0.65 -0.35,-1.24 -0.76,-1.24 -0.27,0 -0.3,0.26 -0.3,0.46 0,0.22 0.02,0.3 0.13,0.74 0.11,0.41 0.13,0.51 0.22,0.89 l 0.36,1.39 c 0.07,0.28 0.07,0.3 0.07,0.34 0,0.17 -0.12,0.27 -0.29,0.27 -0.24,0 -0.39,-0.22 -0.42,-0.44 z" />
</g>      <g
         style="font-style:normal;font-variant:normal;font-weight:normal;font-stretch:normal;letter-spacing:normal;word-spacing:normal;text-anchor:start;fill:#000000;fill-opacity:1;fill-rule:evenodd;stroke:#000000;stroke-linecap:butt;stroke-linejoin:miter;stroke-miterlimit:10.43299961;stroke-dasharray:none;stroke-dashoffset:0;stroke-opacity:1"
         ns0:jacobian_sqrt="1.0"
         inkscapeversion="0.92.4"
         ns0:alignment="middle center"
         ns0:scale="2.83464566935"
         ns0:preamble="C:\\Users\\MatthewThornton\\AppData\\Roaming\\inkscape\\extensions\\textext\\default_packages.tex"
         ns0:text="$b$"
         ns0:pdfconverter="pstoedit"
         ns0:texconverter="pdflatex"
         ns0:version="0.10.2"
         word-spacing="normal"
         letter-spacing="normal"
         font-size-adjust="none"
         font-stretch="normal"
         font-weight="normal"
         font-variant="normal"
         font-style="normal"
         stroke-miterlimit="10.433"
         xml:space="preserve"
         transform="matrix(1,0,0,-1,-100.71338,812.96929)"
         id="g2645">
<path
   inkscape:connector-curvature="0"
   id="path2643"
   style="fill:#000000;fill-opacity:1;stroke:#000000;stroke-width:0;stroke-opacity:1"
   d="m 151.1,664.02 v 0 h -0.01 v 0 0.01 0 0 0 0.01 0 0.01 0 0 0.01 0 l -0.01,0.01 v 0 0.01 0 l -0.01,0.01 v 0 l -0.01,0.01 v 0 0 0 l -0.01,0.01 v 0 0 h -0.01 v 0 0.01 h -0.01 v 0 0 h -0.01 v 0 h -0.01 v 0 l -0.01,0.01 v 0 h -0.01 v 0 h -0.01 v 0 h -0.01 v 0 c -0.23,0 -0.96,-0.08 -1.22,-0.1 -0.08,-0.01 -0.19,-0.02 -0.19,-0.2 0,-0.12 0.09,-0.12 0.24,-0.12 0.48,0 0.5,-0.07 0.5,-0.17 0,-0.07 -0.09,-0.4 -0.14,-0.61 l -0.82,-3.24 c -0.12,-0.5 -0.16,-0.66 -0.16,-1.01 0,-0.94 0.53,-1.55 1.27,-1.55 v 0.21 c -0.34,0 -0.67,0.27 -0.67,1.01 0,0.19 0,0.37 0.16,1 l 0.22,0.92 c 0.06,0.21 0.06,0.23 0.15,0.34 0.49,0.65 0.93,0.8 1.19,0.8 0.36,0 0.63,-0.3 0.63,-0.94 0,-0.58 -0.33,-1.73 -0.51,-2.1 -0.33,-0.67 -0.78,-1.03 -1.17,-1.03 v -0.21 c 1.17,0 2.4,1.48 2.4,2.91 0,0.9 -0.53,1.59 -1.33,1.59 -0.45,0 -0.86,-0.29 -1.16,-0.6 z" />
</g>      <g
         style="font-style:normal;font-variant:normal;font-weight:normal;font-stretch:normal;letter-spacing:normal;word-spacing:normal;text-anchor:start;fill:#000000;fill-opacity:1;fill-rule:evenodd;stroke:#000000;stroke-linecap:butt;stroke-linejoin:miter;stroke-miterlimit:10.43299961;stroke-dasharray:none;stroke-dashoffset:0;stroke-opacity:1"
         ns0:jacobian_sqrt="1.0"
         inkscapeversion="0.92.4"
         ns0:alignment="middle center"
         ns0:scale="2.83464566935"
         ns0:preamble="C:\\Users\\MatthewThornton\\AppData\\Roaming\\inkscape\\extensions\\textext\\default_packages.tex"
         ns0:text="$c_0$"
         ns0:pdfconverter="pstoedit"
         ns0:texconverter="pdflatex"
         ns0:version="0.10.2"
         word-spacing="normal"
         letter-spacing="normal"
         font-size-adjust="none"
         font-stretch="normal"
         font-weight="normal"
         font-variant="normal"
         font-style="normal"
         stroke-miterlimit="10.433"
         xml:space="preserve"
         transform="matrix(1,0,0,-1,-82.795456,791.39652)"
         id="g2651">
<path
   inkscape:connector-curvature="0"
   id="path2647"
   style="fill:#000000;fill-opacity:1;stroke:#000000;stroke-width:0;stroke-opacity:1"
   d="m 152.66,661.01 h -0.03 -0.03 -0.03 -0.03 -0.02 L 152.49,661 h -0.02 -0.01 -0.01 l -0.02,-0.01 h -0.01 -0.01 l -0.02,-0.01 h -0.01 l -0.01,-0.01 -0.02,-0.01 h -0.01 l -0.01,-0.01 -0.02,-0.01 h -0.01 l -0.01,-0.01 -0.02,-0.01 -0.01,-0.01 -0.01,-0.01 -0.01,-0.02 -0.02,-0.01 c -0.16,-0.15 -0.18,-0.32 -0.18,-0.39 0,-0.24 0.18,-0.34 0.37,-0.34 0.29,0 0.56,0.23 0.56,0.63 0,0.49 -0.47,0.86 -1.18,0.86 -1.34,0 -2.67,-1.42 -2.67,-2.83 0,-0.89 0.58,-1.67 1.62,-1.67 1.42,0 2.26,1.05 2.26,1.17 0,0.06 -0.06,0.13 -0.12,0.13 -0.05,0 -0.07,-0.02 -0.13,-0.1 -0.79,-0.99 -1.87,-0.99 -1.99,-0.99 -0.63,0 -0.9,0.49 -0.9,1.09 0,0.4 0.2,1.37 0.54,1.98 0.31,0.57 0.86,1 1.4,1 0.34,0 0.72,-0.13 0.86,-0.4 z" />
<path
   inkscape:connector-curvature="0"
   id="path2649"
   style="fill:#000000;fill-opacity:1;stroke:#000000;stroke-width:0;stroke-opacity:1"
   d="m 156.63,657.96 v 0.14 0.14 l -0.01,0.13 -0.01,0.12 -0.01,0.13 -0.01,0.12 -0.02,0.11 -0.02,0.11 -0.03,0.11 -0.03,0.11 -0.03,0.1 -0.04,0.1 -0.04,0.1 -0.05,0.09 -0.05,0.1 -0.03,0.04 -0.03,0.05 c -0.22,0.32 -0.65,0.6 -1.21,0.6 v -0.2 c 0.38,0 0.74,-0.23 0.87,-0.63 0.11,-0.37 0.12,-0.87 0.12,-1.48 0,-0.52 0,-1.03 -0.1,-1.47 -0.14,-0.63 -0.61,-0.78 -0.89,-0.78 v 0 c -0.32,0 -0.75,0.18 -0.89,0.75 -0.1,0.42 -0.1,0.98 -0.1,1.5 0,0.51 0,1.04 0.11,1.42 0.15,0.55 0.59,0.69 0.88,0.69 v 0.2 c -1.62,0 -1.62,-1.9 -1.62,-2.4 0,-0.5 0,-2.36 1.62,-2.36 1.62,0 1.62,1.86 1.62,2.36 z" />
</g>      <g
         style="font-style:normal;font-variant:normal;font-weight:normal;font-stretch:normal;letter-spacing:normal;word-spacing:normal;text-anchor:start;fill:#000000;fill-opacity:1;fill-rule:evenodd;stroke:#000000;stroke-linecap:butt;stroke-linejoin:miter;stroke-miterlimit:10.43299961;stroke-dasharray:none;stroke-dashoffset:0;stroke-opacity:1"
         ns0:jacobian_sqrt="0.973043"
         inkscapeversion="0.92.4"
         ns0:alignment="middle center"
         ns0:scale="1.41732283468"
         ns0:preamble="C:\\Users\\MatthewThornton\\AppData\\Roaming\\inkscape\\extensions\\textext\\default_packages.tex"
         ns0:text="$g_b$"
         ns0:pdfconverter="pstoedit"
         ns0:texconverter="pdflatex"
         ns0:version="0.10.2"
         word-spacing="normal"
         letter-spacing="normal"
         font-size-adjust="none"
         font-stretch="normal"
         font-weight="normal"
         font-variant="normal"
         font-style="normal"
         stroke-miterlimit="10.433"
         xml:space="preserve"
         transform="matrix(0.973043,0,0,-0.973043,-84.405488,787.55184)"
         id="g2668">
<path
   id="path2664"
   style="fill:#000000;fill-opacity:1;stroke:#000000;stroke-width:0;stroke-opacity:1"
   d="m 153.41,660.98 v 0.01 0.01 l 0.01,0.01 v 0.01 0.02 l 0.01,0.02 v 0.01 0.01 0.01 0.01 l 0.01,0.01 v 0.01 0.01 0 0.01 0.01 0 0.01 c 0,0.17 -0.12,0.27 -0.29,0.27 -0.1,0 -0.37,-0.07 -0.41,-0.43 -0.18,0.37 -0.53,0.63 -0.93,0.63 l 0.01,-0.22 c 0.66,0 0.8,-0.81 0.8,-0.86 0,-0.05 -0.02,-0.11 -0.03,-0.15 l -0.48,-1.89 c -0.06,-0.26 -0.29,-0.51 -0.51,-0.7 -0.2,-0.18 -0.51,-0.36 -0.8,-0.36 -0.5,0 -0.65,0.52 -0.65,0.92 0,0.47 0.29,1.65 0.56,2.15 0.27,0.49 0.69,0.89 1.11,0.89 l -0.01,0.22 c -1.13,0 -2.37,-1.4 -2.37,-2.83 0,-0.98 0.61,-1.57 1.33,-1.57 0.58,0 1.05,0.47 1.15,0.58 l 0.01,-0.01 c -0.21,-0.88 -0.33,-1.29 -0.33,-1.31 -0.04,-0.09 -0.37,-1.07 -1.43,-1.07 -0.19,0 -0.52,0.01 -0.8,0.1 0.3,0.09 0.41,0.34 0.41,0.51 0,0.16 -0.11,0.35 -0.38,0.35 -0.22,0 -0.54,-0.18 -0.54,-0.58 0,-0.4 0.37,-0.6 1.33,-0.6 1.24,0 1.96,0.77 2.11,1.37 z"
   inkscape:connector-curvature="0" />
<path
   id="path2666"
   style="fill:#000000;fill-opacity:1;stroke:#000000;stroke-width:0;stroke-opacity:1"
   d="m 155.31,660.36 v 0 0 0 0 0 0 0.01 0 0 h 0.01 v 0.01 0 0 0.01 0 0.01 0 0.01 l 0.01,0.01 v 0 0.01 0 0 0.01 0 0.01 0 h 0.01 v 0.01 0 0 0 0 0 0.01 0 0 0 0 0 0 c 0,0.03 -0.03,0.1 -0.11,0.1 -0.14,0 -0.72,-0.06 -0.9,-0.07 -0.06,-0.01 -0.15,-0.02 -0.15,-0.16 0,-0.1 0.09,-0.1 0.18,-0.1 0.34,0 0.34,-0.05 0.34,-0.1 0,-0.05 -0.07,-0.33 -0.12,-0.49 l -0.16,-0.64 c -0.06,-0.24 -0.45,-1.76 -0.46,-1.85 -0.03,-0.17 -0.03,-0.26 -0.03,-0.34 0,-0.7 0.44,-1.15 1.02,-1.15 l 0.01,0.2 c -0.34,0 -0.54,0.29 -0.54,0.71 0,0.25 0.07,0.49 0.26,1.27 0.04,0.14 0.04,0.15 0.17,0.3 0.27,0.31 0.59,0.46 0.84,0.46 0.27,0 0.51,-0.2 0.51,-0.67 0,-0.29 -0.16,-1 -0.37,-1.4 -0.16,-0.34 -0.51,-0.67 -0.87,-0.67 v 0 l -0.01,-0.2 c 0.88,0 1.81,0.95 1.81,1.98 0,0.81 -0.57,1.16 -1.05,1.16 -0.36,0 -0.67,-0.2 -0.88,-0.39 z"
   inkscape:connector-curvature="0" />
</g>      <g
         style="font-style:normal;font-variant:normal;font-weight:normal;font-stretch:normal;letter-spacing:normal;word-spacing:normal;text-anchor:start;fill:#000000;fill-opacity:1;fill-rule:evenodd;stroke:#000000;stroke-linecap:butt;stroke-linejoin:miter;stroke-miterlimit:10.43299961;stroke-dasharray:none;stroke-dashoffset:0;stroke-opacity:1"
         ns0:jacobian_sqrt="0.972718"
         inkscapeversion="0.92.4"
         ns0:alignment="middle center"
         ns0:scale="1.41732283468"
         ns0:preamble="C:\\Users\\MatthewThornton\\AppData\\Roaming\\inkscape\\extensions\\textext\\default_packages.tex"
         ns0:text="$g_a$"
         ns0:pdfconverter="pstoedit"
         ns0:texconverter="pdflatex"
         ns0:version="0.10.2"
         word-spacing="normal"
         letter-spacing="normal"
         font-size-adjust="none"
         font-stretch="normal"
         font-weight="normal"
         font-variant="normal"
         font-style="normal"
         stroke-miterlimit="10.433"
         xml:space="preserve"
         transform="matrix(0.972718,0,0,-0.972718,-96.959441,754.38343)"
         id="g2674">
<path
   id="path2670"
   style="fill:#000000;fill-opacity:1;stroke:#000000;stroke-width:0;stroke-opacity:1"
   d="m 153.41,660.98 v 0.01 0.01 l 0.01,0.01 v 0.01 0.02 l 0.01,0.02 v 0.01 0.01 0.01 0.01 l 0.01,0.01 v 0.01 0.01 0 0.01 0.01 0 0.01 c 0,0.17 -0.12,0.27 -0.29,0.27 -0.1,0 -0.37,-0.07 -0.41,-0.43 -0.18,0.37 -0.53,0.63 -0.93,0.63 l 0.01,-0.22 c 0.66,0 0.8,-0.81 0.8,-0.86 0,-0.05 -0.02,-0.11 -0.03,-0.15 l -0.48,-1.89 c -0.06,-0.26 -0.29,-0.51 -0.51,-0.7 -0.2,-0.18 -0.51,-0.36 -0.8,-0.36 -0.5,0 -0.65,0.52 -0.65,0.92 0,0.47 0.29,1.65 0.56,2.15 0.27,0.49 0.69,0.89 1.11,0.89 l -0.01,0.22 c -1.13,0 -2.37,-1.4 -2.37,-2.83 0,-0.98 0.61,-1.57 1.33,-1.57 0.58,0 1.05,0.47 1.15,0.58 l 0.01,-0.01 c -0.21,-0.88 -0.33,-1.29 -0.33,-1.31 -0.04,-0.09 -0.37,-1.07 -1.43,-1.07 -0.19,0 -0.52,0.01 -0.8,0.1 0.3,0.09 0.41,0.34 0.41,0.51 0,0.16 -0.11,0.35 -0.38,0.35 -0.22,0 -0.54,-0.18 -0.54,-0.58 0,-0.4 0.37,-0.6 1.33,-0.6 1.24,0 1.96,0.77 2.11,1.37 z"
   inkscape:connector-curvature="0" />
<path
   id="path2672"
   style="fill:#000000;fill-opacity:1;stroke:#000000;stroke-width:0;stroke-opacity:1"
   d="m 156.41,658.4 -0.01,0.02 -0.01,0.02 -0.02,0.02 -0.01,0.02 -0.02,0.02 -0.02,0.02 -0.01,0.02 -0.02,0.02 -0.02,0.02 -0.02,0.01 -0.02,0.02 -0.02,0.02 -0.02,0.01 -0.02,0.02 -0.02,0.01 -0.02,0.02 -0.03,0.01 -0.02,0.01 -0.02,0.02 -0.03,0.01 -0.02,0.01 -0.03,0.01 -0.03,0.01 -0.02,0.01 h -0.03 l -0.03,0.01 h -0.03 l -0.02,0.01 h -0.03 -0.03 l -0.03,0.01 h -0.04 v -0.2 c 0.49,0 0.63,-0.53 0.63,-0.6 0,-0.03 -0.02,-0.08 -0.02,-0.1 l -0.33,-1.3 c -0.05,-0.2 -0.21,-0.33 -0.36,-0.47 -0.06,-0.05 -0.34,-0.27 -0.64,-0.27 -0.26,0 -0.51,0.18 -0.51,0.67 0,0.37 0.2,1.13 0.36,1.41 0.32,0.56 0.68,0.66 0.87,0.66 v 0.2 c -0.89,0 -1.8,-0.98 -1.8,-1.98 0,-0.68 0.46,-1.16 1.06,-1.16 0.37,0 0.71,0.22 0.99,0.49 0.13,-0.42 0.54,-0.49 0.72,-0.49 0.25,0 0.43,0.15 0.55,0.37 0.16,0.27 0.25,0.67 0.25,0.69 0,0.1 -0.09,0.1 -0.11,0.1 -0.1,0 -0.11,-0.03 -0.16,-0.22 -0.08,-0.33 -0.22,-0.74 -0.51,-0.74 -0.18,0 -0.23,0.15 -0.23,0.34 0,0.12 0.06,0.37 0.1,0.55 0.05,0.18 0.12,0.47 0.16,0.62 l 0.14,0.53 c 0.04,0.18 0.12,0.51 0.12,0.54 0,0.16 -0.12,0.22 -0.23,0.22 -0.12,0 -0.28,-0.08 -0.33,-0.27 z"
   inkscape:connector-curvature="0" />
</g>      <g
         id="g2919"
         transform="matrix(1,0,0,-1,-21.6601,791.46652)"
         xml:space="preserve"
         stroke-miterlimit="10.433"
         font-style="normal"
         font-variant="normal"
         font-weight="normal"
         font-stretch="normal"
         font-size-adjust="none"
         letter-spacing="normal"
         word-spacing="normal"
         ns0:version="0.10.2"
         ns0:texconverter="pdflatex"
         ns0:pdfconverter="pstoedit"
         ns0:text="$c_N$"
         ns0:preamble="C:\\Users\\MatthewThornton\\AppData\\Roaming\\inkscape\\extensions\\textext\\default_packages.tex"
         ns0:scale="2.83464566935"
         ns0:alignment="middle center"
         inkscapeversion="0.92.4"
         ns0:jacobian_sqrt="1.0"
         style="font-style:normal;font-variant:normal;font-weight:normal;font-stretch:normal;letter-spacing:normal;word-spacing:normal;text-anchor:start;fill:#000000;fill-opacity:1;fill-rule:evenodd;stroke:#000000;stroke-linecap:butt;stroke-linejoin:miter;stroke-miterlimit:10.43299961;stroke-dasharray:none;stroke-dashoffset:0;stroke-opacity:1">
<path
   inkscape:connector-curvature="0"
   d="m 152.66,661.01 h -0.03 -0.03 -0.03 -0.03 -0.02 L 152.49,661 h -0.02 -0.01 -0.01 l -0.02,-0.01 h -0.01 -0.01 l -0.02,-0.01 h -0.01 l -0.01,-0.01 -0.02,-0.01 h -0.01 l -0.01,-0.01 -0.02,-0.01 h -0.01 l -0.01,-0.01 -0.02,-0.01 -0.01,-0.01 -0.01,-0.01 -0.01,-0.02 -0.02,-0.01 c -0.16,-0.15 -0.18,-0.32 -0.18,-0.39 0,-0.24 0.18,-0.34 0.37,-0.34 0.29,0 0.56,0.23 0.56,0.63 0,0.49 -0.47,0.86 -1.18,0.86 -1.34,0 -2.67,-1.42 -2.67,-2.83 0,-0.89 0.58,-1.67 1.62,-1.67 1.42,0 2.26,1.05 2.26,1.17 0,0.06 -0.06,0.13 -0.12,0.13 -0.05,0 -0.07,-0.02 -0.13,-0.1 -0.79,-0.99 -1.87,-0.99 -1.99,-0.99 -0.63,0 -0.9,0.49 -0.9,1.09 0,0.4 0.2,1.37 0.54,1.98 0.31,0.57 0.86,1 1.4,1 0.34,0 0.72,-0.13 0.86,-0.4 z"
   style="fill:#000000;fill-opacity:1;stroke:#000000;stroke-width:0;stroke-opacity:1"
   id="path2915" />
<path
   inkscape:connector-curvature="0"
   d="m 158.85,659.73 0.02,0.05 0.01,0.05 0.01,0.02 0.01,0.03 0.01,0.02 0.01,0.02 0.01,0.02 0.02,0.02 0.01,0.03 0.01,0.02 0.02,0.02 0.01,0.01 0.02,0.02 0.02,0.02 0.02,0.02 0.03,0.01 0.02,0.02 0.02,0.01 0.03,0.02 0.03,0.01 0.03,0.01 0.03,0.01 0.04,0.01 0.04,0.01 0.04,0.01 0.04,0.01 h 0.04 0.02 0.03 l 0.02,0.01 h 0.02 0.03 0.03 c 0.03,0 0.14,0.01 0.14,0.15 0,0.04 -0.04,0.1 -0.11,0.1 -0.23,0 -0.49,-0.03 -0.73,-0.03 -0.16,0 -0.57,0.03 -0.74,0.03 -0.03,0 -0.14,0 -0.14,-0.15 0,-0.09 0.09,-0.1 0.16,-0.1 0.33,-0.01 0.45,-0.11 0.45,-0.28 0,-0.06 -0.01,-0.1 -0.03,-0.17 l -0.77,-3.03 -1.77,3.61 c -0.06,0.12 -0.07,0.12 -0.24,0.12 h -0.96 c -0.13,0 -0.22,0 -0.22,-0.15 0,-0.1 0.08,-0.1 0.23,-0.1 0.15,0 0.3,-0.01 0.45,-0.03 l -0.94,-3.73 c -0.06,-0.26 -0.18,-0.47 -0.73,-0.49 -0.05,0 -0.14,-0.01 -0.14,-0.15 0,-0.07 0.05,-0.1 0.1,-0.1 0.23,0 0.49,0.03 0.73,0.03 0.17,0 0.57,-0.03 0.74,-0.03 0.07,0 0.14,0.04 0.14,0.15 0,0.09 -0.08,0.1 -0.16,0.1 -0.44,0.02 -0.44,0.2 -0.44,0.29 0,0.03 0,0.07 0.03,0.18 l 0.89,3.56 2.04,-4.16 c 0.06,-0.11 0.09,-0.12 0.16,-0.12 0.11,0 0.11,0.02 0.14,0.15 z"
   style="fill:#000000;fill-opacity:1;stroke:#000000;stroke-width:0;stroke-opacity:1"
   id="path2917" />
</g>      <g
         id="g3046"
         transform="matrix(1,0,0,-1,-60.818437,791.46652)"
         xml:space="preserve"
         stroke-miterlimit="10.433"
         font-style="normal"
         font-variant="normal"
         font-weight="normal"
         font-stretch="normal"
         font-size-adjust="none"
         letter-spacing="normal"
         word-spacing="normal"
         ns0:version="0.10.2"
         ns0:texconverter="pdflatex"
         ns0:pdfconverter="pstoedit"
         ns0:text="$c_1$"
         ns0:preamble="C:\\Users\\MatthewThornton\\AppData\\Roaming\\inkscape\\extensions\\textext\\default_packages.tex"
         ns0:scale="2.83464566935"
         ns0:alignment="middle center"
         inkscapeversion="0.92.4"
         ns0:jacobian_sqrt="1.0"
         style="font-style:normal;font-variant:normal;font-weight:normal;font-stretch:normal;letter-spacing:normal;word-spacing:normal;text-anchor:start;fill:#000000;fill-opacity:1;fill-rule:evenodd;stroke:#000000;stroke-linecap:butt;stroke-linejoin:miter;stroke-miterlimit:10.43299961;stroke-dasharray:none;stroke-dashoffset:0;stroke-opacity:1">
<path
   inkscape:connector-curvature="0"
   d="m 152.66,661.01 h -0.03 -0.03 -0.03 -0.03 -0.02 L 152.49,661 h -0.02 -0.01 -0.01 l -0.02,-0.01 h -0.01 -0.01 l -0.02,-0.01 h -0.01 l -0.01,-0.01 -0.02,-0.01 h -0.01 l -0.01,-0.01 -0.02,-0.01 h -0.01 l -0.01,-0.01 -0.02,-0.01 -0.01,-0.01 -0.01,-0.01 -0.01,-0.02 -0.02,-0.01 c -0.16,-0.15 -0.18,-0.32 -0.18,-0.39 0,-0.24 0.18,-0.34 0.37,-0.34 0.29,0 0.56,0.23 0.56,0.63 0,0.49 -0.47,0.86 -1.18,0.86 -1.34,0 -2.67,-1.42 -2.67,-2.83 0,-0.89 0.58,-1.67 1.62,-1.67 1.42,0 2.26,1.05 2.26,1.17 0,0.06 -0.06,0.13 -0.12,0.13 -0.05,0 -0.07,-0.02 -0.13,-0.1 -0.79,-0.99 -1.87,-0.99 -1.99,-0.99 -0.63,0 -0.9,0.49 -0.9,1.09 0,0.4 0.2,1.37 0.54,1.98 0.31,0.57 0.86,1 1.4,1 0.34,0 0.72,-0.13 0.86,-0.4 z"
   style="fill:#000000;fill-opacity:1;stroke:#000000;stroke-width:0;stroke-opacity:1"
   id="path3042" />
<path
   inkscape:connector-curvature="0"
   d="m 155.37,660.16 v 0.01 0.01 0.01 0.01 0 0.01 0.01 0.01 h -0.01 v 0.01 0.01 0 0.01 0 0.01 0 0.01 0 0.01 l -0.01,0.01 v 0.01 0 l -0.01,0.01 v 0.01 h -0.01 v 0.01 h -0.01 v 0 l -0.01,0.01 h -0.01 -0.01 -0.01 v 0 h -0.01 v 0 l -0.01,0.01 h -0.01 v 0 h -0.01 v 0 h -0.01 -0.01 -0.01 v 0 h -0.01 -0.01 -0.01 -0.01 v 0 h -0.01 c -0.45,-0.44 -1.09,-0.45 -1.37,-0.45 v -0.25 c 0.16,0 0.62,0 1.01,0.2 v -3.55 c 0,-0.23 0,-0.32 -0.7,-0.32 h -0.26 v -0.25 c 0.12,0.01 0.98,0.03 1.24,0.03 0.22,0 1.1,-0.02 1.25,-0.03 v 0.25 h -0.26 c -0.7,0 -0.7,0.09 -0.7,0.32 z"
   style="fill:#000000;fill-opacity:1;stroke:#000000;stroke-width:0;stroke-opacity:1"
   id="path3044" />
</g>      <g
         id="content"
         transform="matrix(0.973043,0,0,-0.973043,-36.374606,765.62922)"
         xml:space="preserve"
         stroke-miterlimit="10.433"
         font-style="normal"
         font-variant="normal"
         font-weight="normal"
         font-stretch="normal"
         font-size-adjust="none"
         letter-spacing="normal"
         word-spacing="normal"
         ns0:version="0.10.2"
         ns0:texconverter="pdflatex"
         ns0:pdfconverter="pstoedit"
         ns0:text="$g_c$"
         ns0:preamble="C:\\Users\\MatthewThornton\\AppData\\Roaming\\inkscape\\extensions\\textext\\default_packages.tex"
         ns0:scale="1.41732283468"
         ns0:alignment="middle center"
         ns0:jacobian_sqrt="0.973043"
         style="font-style:normal;font-variant:normal;font-weight:normal;font-stretch:normal;letter-spacing:normal;word-spacing:normal;text-anchor:start;fill:#000000;fill-opacity:1;fill-rule:evenodd;stroke:#000000;stroke-linecap:butt;stroke-linejoin:miter;stroke-miterlimit:10.43299961;stroke-dasharray:none;stroke-dashoffset:0;stroke-opacity:1">
<path
   inkscape:connector-curvature="0"
   d="m 153.41,660.98 v 0.01 0.01 l 0.01,0.01 v 0.01 0.02 l 0.01,0.02 v 0.01 0.01 0.01 0.01 l 0.01,0.01 v 0.01 0.01 0 0.01 0.01 0 0.01 c 0,0.17 -0.12,0.27 -0.29,0.27 -0.1,0 -0.37,-0.07 -0.41,-0.43 -0.18,0.37 -0.53,0.63 -0.93,0.63 l 0.01,-0.22 c 0.66,0 0.8,-0.81 0.8,-0.86 0,-0.05 -0.02,-0.11 -0.03,-0.15 l -0.48,-1.89 c -0.06,-0.26 -0.29,-0.51 -0.51,-0.7 -0.2,-0.18 -0.51,-0.36 -0.8,-0.36 -0.5,0 -0.65,0.52 -0.65,0.92 0,0.47 0.29,1.65 0.56,2.15 0.27,0.49 0.69,0.89 1.11,0.89 l -0.01,0.22 c -1.13,0 -2.37,-1.4 -2.37,-2.83 0,-0.98 0.61,-1.57 1.33,-1.57 0.58,0 1.05,0.47 1.15,0.58 l 0.01,-0.01 c -0.21,-0.88 -0.33,-1.29 -0.33,-1.31 -0.04,-0.09 -0.37,-1.07 -1.43,-1.07 -0.19,0 -0.52,0.01 -0.8,0.1 0.3,0.09 0.41,0.34 0.41,0.51 0,0.16 -0.11,0.35 -0.38,0.35 -0.22,0 -0.54,-0.18 -0.54,-0.58 0,-0.4 0.37,-0.6 1.33,-0.6 1.24,0 1.96,0.77 2.11,1.37 z"
   style="fill:#000000;fill-opacity:1;stroke:#000000;stroke-width:0;stroke-opacity:1"
   id="path1996" />
<path
   inkscape:connector-curvature="0"
   d="m 156.53,658.4 h -0.03 l -0.02,-0.01 h -0.02 l -0.02,-0.01 -0.02,-0.01 h -0.02 l -0.02,-0.01 -0.02,-0.01 -0.01,-0.01 -0.02,-0.01 -0.01,-0.01 -0.02,-0.02 -0.01,-0.01 -0.01,-0.01 -0.01,-0.01 -0.02,-0.02 -0.01,-0.01 -0.01,-0.02 -0.01,-0.01 v -0.02 l -0.01,-0.01 -0.01,-0.02 v -0.01 l -0.01,-0.02 v -0.01 l -0.01,-0.02 v -0.01 l -0.01,-0.02 v -0.01 -0.02 -0.01 -0.01 c 0,-0.19 0.15,-0.26 0.27,-0.26 0.16,0 0.4,0.11 0.4,0.44 0,0.47 -0.54,0.61 -0.92,0.61 -1.05,0 -2.02,-0.96 -2.02,-1.93 0,-0.6 0.42,-1.21 1.29,-1.21 1.18,0 1.74,0.69 1.74,0.79 0,0.04 -0.07,0.12 -0.12,0.12 -0.05,0 -0.06,-0.02 -0.12,-0.07 -0.54,-0.64 -1.36,-0.64 -1.48,-0.64 -0.51,0 -0.73,0.34 -0.73,0.77 0,0.2 0.1,0.96 0.46,1.44 0.27,0.34 0.63,0.53 0.98,0.53 0.1,0 0.43,-0.01 0.61,-0.21 z"
   style="fill:#000000;fill-opacity:1;stroke:#000000;stroke-width:0;stroke-opacity:1"
   id="path1998" />
</g>      <g
         style="font-style:normal;font-variant:normal;font-weight:normal;font-stretch:normal;letter-spacing:normal;word-spacing:normal;text-anchor:start;fill:#000000;fill-opacity:1;fill-rule:evenodd;stroke:#000000;stroke-linecap:butt;stroke-linejoin:miter;stroke-miterlimit:10.43299961;stroke-dasharray:none;stroke-dashoffset:0;stroke-opacity:1"
         ns0:jacobian_sqrt="0.973043"
         ns0:alignment="middle center"
         ns0:scale="1.41732283468"
         ns0:preamble="C:\\Users\\MatthewThornton\\AppData\\Roaming\\inkscape\\extensions\\textext\\default_packages.tex"
         ns0:text="$g_c$"
         ns0:pdfconverter="pstoedit"
         ns0:texconverter="pdflatex"
         ns0:version="0.10.2"
         word-spacing="normal"
         letter-spacing="normal"
         font-size-adjust="none"
         font-stretch="normal"
         font-weight="normal"
         font-variant="normal"
         font-style="normal"
         stroke-miterlimit="10.433"
         xml:space="preserve"
         transform="matrix(0.973043,0,0,-0.973043,-67.595456,765.62922)"
         id="g2010">
<path
   inkscape:connector-curvature="0"
   id="path2006"
   style="fill:#000000;fill-opacity:1;stroke:#000000;stroke-width:0;stroke-opacity:1"
   d="m 153.41,660.98 v 0.01 0.01 l 0.01,0.01 v 0.01 0.02 l 0.01,0.02 v 0.01 0.01 0.01 0.01 l 0.01,0.01 v 0.01 0.01 0 0.01 0.01 0 0.01 c 0,0.17 -0.12,0.27 -0.29,0.27 -0.1,0 -0.37,-0.07 -0.41,-0.43 -0.18,0.37 -0.53,0.63 -0.93,0.63 l 0.01,-0.22 c 0.66,0 0.8,-0.81 0.8,-0.86 0,-0.05 -0.02,-0.11 -0.03,-0.15 l -0.48,-1.89 c -0.06,-0.26 -0.29,-0.51 -0.51,-0.7 -0.2,-0.18 -0.51,-0.36 -0.8,-0.36 -0.5,0 -0.65,0.52 -0.65,0.92 0,0.47 0.29,1.65 0.56,2.15 0.27,0.49 0.69,0.89 1.11,0.89 l -0.01,0.22 c -1.13,0 -2.37,-1.4 -2.37,-2.83 0,-0.98 0.61,-1.57 1.33,-1.57 0.58,0 1.05,0.47 1.15,0.58 l 0.01,-0.01 c -0.21,-0.88 -0.33,-1.29 -0.33,-1.31 -0.04,-0.09 -0.37,-1.07 -1.43,-1.07 -0.19,0 -0.52,0.01 -0.8,0.1 0.3,0.09 0.41,0.34 0.41,0.51 0,0.16 -0.11,0.35 -0.38,0.35 -0.22,0 -0.54,-0.18 -0.54,-0.58 0,-0.4 0.37,-0.6 1.33,-0.6 1.24,0 1.96,0.77 2.11,1.37 z" />
<path
   inkscape:connector-curvature="0"
   id="path2008"
   style="fill:#000000;fill-opacity:1;stroke:#000000;stroke-width:0;stroke-opacity:1"
   d="m 156.53,658.4 h -0.03 l -0.02,-0.01 h -0.02 l -0.02,-0.01 -0.02,-0.01 h -0.02 l -0.02,-0.01 -0.02,-0.01 -0.01,-0.01 -0.02,-0.01 -0.01,-0.01 -0.02,-0.02 -0.01,-0.01 -0.01,-0.01 -0.01,-0.01 -0.02,-0.02 -0.01,-0.01 -0.01,-0.02 -0.01,-0.01 v -0.02 l -0.01,-0.01 -0.01,-0.02 v -0.01 l -0.01,-0.02 v -0.01 l -0.01,-0.02 v -0.01 l -0.01,-0.02 v -0.01 -0.02 -0.01 -0.01 c 0,-0.19 0.15,-0.26 0.27,-0.26 0.16,0 0.4,0.11 0.4,0.44 0,0.47 -0.54,0.61 -0.92,0.61 -1.05,0 -2.02,-0.96 -2.02,-1.93 0,-0.6 0.42,-1.21 1.29,-1.21 1.18,0 1.74,0.69 1.74,0.79 0,0.04 -0.07,0.12 -0.12,0.12 -0.05,0 -0.06,-0.02 -0.12,-0.07 -0.54,-0.64 -1.36,-0.64 -1.48,-0.64 -0.51,0 -0.73,0.34 -0.73,0.77 0,0.2 0.1,0.96 0.46,1.44 0.27,0.34 0.63,0.53 0.98,0.53 0.1,0 0.43,-0.01 0.61,-0.21 z" />
</g>    </g>
  </g>
</svg>
