<?xml version="1.0" encoding="UTF-8" standalone="no"?>
<svg
   xmlns:ns0="http://www.iki.fi/pav/software/textext/"
   xmlns:dc="http://purl.org/dc/elements/1.1/"
   xmlns:cc="http://creativecommons.org/ns#"
   xmlns:rdf="http://www.w3.org/1999/02/22-rdf-syntax-ns#"
   xmlns:svg="http://www.w3.org/2000/svg"
   xmlns="http://www.w3.org/2000/svg"
   xmlns:sodipodi="http://sodipodi.sourceforge.net/DTD/sodipodi-0.dtd"
   xmlns:inkscape="http://www.inkscape.org/namespaces/inkscape"
   width="81.802574mm"
   height="52.110535mm"
   viewBox="0 0 65.442059 41.688429"
   version="1.1"
   id="svg951"
   inkscape:version="1.0 (4035a4fb49, 2020-05-01)"
   sodipodi:docname="qss_encryption_stage.svg"
   enable-background="new">
  <defs
     id="defs945">
    <marker
       inkscape:isstock="true"
       style="overflow:visible;"
       id="Arrow1Send"
       refX="0.0"
       refY="0.0"
       orient="auto"
       inkscape:stockid="Arrow1Send">
      <path
         transform="scale(0.2) rotate(180) translate(6,0)"
         style="fill-rule:evenodd;stroke:#000000;stroke-width:1pt;stroke-opacity:1;fill:#000000;fill-opacity:1"
         d="M 0.0,0.0 L 5.0,-5.0 L -12.5,0.0 L 5.0,5.0 L 0.0,0.0 z "
         id="path6069" />
    </marker>
    <marker
       inkscape:stockid="Arrow2Mend"
       orient="auto"
       refY="0"
       refX="0"
       id="marker5614"
       style="overflow:visible"
       inkscape:isstock="true">
      <path
         inkscape:connector-curvature="0"
         id="path5612"
         style="fill:#000000;fill-opacity:1;fill-rule:evenodd;stroke:#000000;stroke-width:0.625;stroke-linejoin:round;stroke-opacity:1"
         d="M 8.7185878,4.0337352 -2.2072895,0.01601326 8.7185884,-4.0017078 c -1.7454984,2.3720609 -1.7354408,5.6174519 -6e-7,8.035443 z"
         transform="scale(-0.6)" />
    </marker>
    <marker
       inkscape:stockid="Arrow2Mend"
       orient="auto"
       refY="0"
       refX="0"
       id="marker5103"
       style="overflow:visible"
       inkscape:isstock="true">
      <path
         inkscape:connector-curvature="0"
         id="path5101"
         style="fill:#000000;fill-opacity:1;fill-rule:evenodd;stroke:#000000;stroke-width:0.625;stroke-linejoin:round;stroke-opacity:1"
         d="M 8.7185878,4.0337352 -2.2072895,0.01601326 8.7185884,-4.0017078 c -1.7454984,2.3720609 -1.7354408,5.6174519 -6e-7,8.035443 z"
         transform="scale(-0.6)" />
    </marker>
    <marker
       inkscape:isstock="true"
       style="overflow:visible"
       id="marker1503"
       refX="0"
       refY="0"
       orient="auto"
       inkscape:stockid="Arrow2Mend">
      <path
         transform="scale(-0.6)"
         d="M 8.7185878,4.0337352 -2.2072895,0.01601326 8.7185884,-4.0017078 c -1.7454984,2.3720609 -1.7354408,5.6174519 -6e-7,8.035443 z"
         style="fill:#000000;fill-opacity:1;fill-rule:evenodd;stroke:#000000;stroke-width:0.625;stroke-linejoin:round;stroke-opacity:1"
         id="path1501"
         inkscape:connector-curvature="0" />
    </marker>
    <marker
       inkscape:stockid="Arrow2Mend"
       orient="auto"
       refY="0"
       refX="0"
       id="marker2547"
       style="overflow:visible"
       inkscape:isstock="true">
      <path
         inkscape:connector-curvature="0"
         id="path2545"
         style="fill:#000000;fill-opacity:1;fill-rule:evenodd;stroke:#000000;stroke-width:0.625;stroke-linejoin:round;stroke-opacity:1"
         d="M 8.7185878,4.0337352 -2.2072895,0.01601326 8.7185884,-4.0017078 c -1.7454984,2.3720609 -1.7354408,5.6174519 -6e-7,8.035443 z"
         transform="scale(-0.6)" />
    </marker>
    <marker
       inkscape:collect="always"
       inkscape:isstock="true"
       style="overflow:visible"
       id="Arrow2Mend-0-1"
       refX="0"
       refY="0"
       orient="auto"
       inkscape:stockid="Arrow2Mend">
      <path
         transform="scale(-0.6)"
         d="M 8.7185878,4.0337352 -2.2072895,0.01601326 8.7185884,-4.0017078 c -1.7454984,2.3720609 -1.7354408,5.6174519 -6e-7,8.035443 z"
         style="fill:#000000;fill-opacity:1;fill-rule:evenodd;stroke:#000000;stroke-width:0.625;stroke-linejoin:round;stroke-opacity:1"
         id="path4782-7-2"
         inkscape:connector-curvature="0" />
    </marker>
    <filter
       id="filter4062"
       style="color-interpolation-filters:sRGB"
       inkscape:collect="always">
      <feBlend
         id="feBlend4064"
         in2="BackgroundImage"
         mode="screen"
         inkscape:collect="always" />
    </filter>
  </defs>
  <sodipodi:namedview
     inkscape:document-rotation="0"
     scale-x="0.8"
     inkscape:snap-global="false"
     inkscape:window-maximized="1"
     inkscape:window-y="43"
     inkscape:window-x="1912"
     inkscape:window-height="1027"
     inkscape:window-width="1920"
     fit-margin-bottom="0"
     fit-margin-right="0"
     fit-margin-left="0"
     fit-margin-top="0"
     showgrid="false"
     inkscape:current-layer="layer2"
     inkscape:document-units="mm"
     inkscape:cy="119.93874"
     inkscape:cx="30.637775"
     inkscape:zoom="2"
     inkscape:pageshadow="2"
     inkscape:pageopacity="0.0"
     borderopacity="1.0"
     bordercolor="#666666"
     pagecolor="#ffffff"
     id="base">
    <inkscape:grid
       type="xygrid"
       id="grid2913"
       originx="5.6661128"
       originy="-4.0836623" />
  </sodipodi:namedview>
  <metadata
     id="metadata948">
    <rdf:RDF>
      <cc:Work
         rdf:about="">
        <dc:format>image/svg+xml</dc:format>
        <dc:type
           rdf:resource="http://purl.org/dc/dcmitype/StillImage" />
        <dc:title />
      </cc:Work>
    </rdf:RDF>
  </metadata>
  <g
     transform="translate(7.0826418,6.396186)"
     style="display:inline"
     inkscape:label="Arrows"
     id="layer3"
     inkscape:groupmode="layer">
    <path
       sodipodi:nodetypes="cc"
       inkscape:connector-curvature="0"
       id="path4753-4-5"
       d="M 2.1352054,3.9791885 38.451517,3.9010763"
       style="fill:none;stroke:#000000;stroke-width:0.32320002;stroke-linecap:butt;stroke-linejoin:miter;stroke-miterlimit:4;stroke-dasharray:1.29280003, 0.64640002, 0.32320001, 0.64640002;stroke-dashoffset:0;stroke-opacity:1;marker-end:url(#Arrow2Mend-0-1)" />
    <path
       style="fill:none;stroke:#000000;stroke-width:0.32320002;stroke-linecap:butt;stroke-linejoin:miter;stroke-miterlimit:4;stroke-dasharray:1.29280003, 0.64640002, 0.32320001, 0.64640002;stroke-dashoffset:0;stroke-opacity:1;marker-end:url(#marker5103)"
       d="M 2.2848763,7.7583797 38.389521,30.646101"
       id="path5099"
       inkscape:connector-curvature="0"
       sodipodi:nodetypes="cc" />
    <path
       style="fill:none;stroke:#000000;stroke-width:0.32320002;stroke-linecap:butt;stroke-linejoin:miter;stroke-miterlimit:4;stroke-dasharray:none;stroke-dashoffset:0;stroke-opacity:1;marker-end:url(#Arrow1Send)"
       d="m -5.8615291,21.807571 v 3.386667"
       id="path5610"
       inkscape:connector-curvature="0"
       sodipodi:nodetypes="cc" />
  </g>
  <g
     transform="translate(7.9867539e-7,14.71735)"
     style="opacity:1"
     inkscape:label="Text"
     id="layer2"
     inkscape:groupmode="layer">
    <g
       id="content"
       transform="matrix(0.3,0,0,-0.3,-44.666639,210.45372)"
       xml:space="preserve"
       stroke-miterlimit="10.433"
       font-style="normal"
       font-variant="normal"
       font-weight="normal"
       font-stretch="normal"
       font-size-adjust="none"
       letter-spacing="normal"
       word-spacing="normal"
       ns0:version="0.10.2"
       ns0:texconverter="pdflatex"
       ns0:pdfconverter="pstoedit"
       ns0:text="$X_A = \\mathcal{F}\\left(A_B, A_C\\right)$"
       ns0:preamble="C:\\Users\\MatthewThornton\\AppData\\Roaming\\inkscape\\extensions\\textext\\default_packages.tex"
       ns0:scale="0.225000000001"
       ns0:alignment="middle center"
       inkscapeversion="0.92.4"
       ns0:jacobian_sqrt="0.3"
       style="font-style:normal;font-variant:normal;font-weight:normal;font-stretch:normal;letter-spacing:normal;word-spacing:normal;text-anchor:start;fill:none;fill-opacity:1;fill-rule:evenodd;stroke:#000000;stroke-linecap:butt;stroke-linejoin:miter;stroke-miterlimit:10.43299961;stroke-dasharray:none;stroke-dashoffset:0;stroke-opacity:1">











<g
   transform="translate(0.35277779,1.5875)"
   id="g6972"><path
     id="path4415"
     style="fill:#000000;fill-opacity:1;stroke:#000000;stroke-width:0;stroke-opacity:1"
     d="m 153.55,661.32 -0.84,1.97 c -0.03,0.08 -0.05,0.12 -0.05,0.13 0,0.06 0.17,0.25 0.59,0.29 0.1,0.01 0.2,0.02 0.2,0.19 0,0.12 -0.12,0.12 -0.15,0.12 -0.41,0 -0.84,-0.03 -1.26,-0.03 -0.25,0 -0.86,0.03 -1.11,0.03 -0.06,0 -0.18,0 -0.18,-0.2 0,-0.11 0.1,-0.11 0.23,-0.11 0.59,0 0.65,-0.1 0.74,-0.32 l 1.18,-2.77 -2.1,-2.25 -0.13,-0.11 c -0.49,-0.53 -0.96,-0.69 -1.47,-0.72 -0.13,-0.01 -0.22,-0.01 -0.22,-0.2 0,-0.01 0,-0.11 0.13,-0.11 0.3,0 0.63,0.04 0.94,0.04 0.37,0 0.76,-0.04 1.11,-0.04 0.07,0 0.19,0 0.19,0.2 0,0.1 -0.11,0.11 -0.12,0.11 -0.1,0.01 -0.4,0.03 -0.4,0.31 0,0.16 0.15,0.32 0.27,0.45 l 1.01,1.07 0.9,0.97 1.01,-2.37 c 0.04,-0.11 0.05,-0.12 0.05,-0.14 0,-0.08 -0.19,-0.25 -0.58,-0.29 -0.11,-0.01 -0.2,-0.02 -0.2,-0.19 0,-0.12 0.11,-0.12 0.15,-0.12 0.28,0 0.98,0.04 1.26,0.04 0.25,0 0.85,-0.04 1.1,-0.04 0.07,0 0.19,0 0.19,0.19 0,0.12 -0.1,0.12 -0.18,0.12 -0.67,0.01 -0.69,0.04 -0.86,0.44 -0.38,0.92 -1.05,2.47 -1.28,3.07 0.68,0.69 1.72,1.88 2.04,2.16 0.29,0.23 0.67,0.47 1.27,0.5 0.13,0.01 0.22,0.01 0.22,0.2 0,0.01 0,0.11 -0.13,0.11 -0.3,0 -0.63,-0.03 -0.94,-0.03 -0.37,0 -0.75,0.03 -1.11,0.03 -0.06,0 -0.18,0 -0.18,-0.2 0,-0.07 0.04,-0.1 0.11,-0.11 0.09,-0.01 0.4,-0.03 0.4,-0.31 0,-0.13 -0.11,-0.26 -0.19,-0.35 z"
     inkscape:connector-curvature="0" /><path
     id="path4417"
     style="fill:#000000;fill-opacity:1;stroke:#000000;stroke-width:0;stroke-opacity:1"
     d="m 158.41,656.58 -0.03,-0.04 -0.02,-0.03 -0.02,-0.04 -0.02,-0.03 -0.03,-0.03 -0.02,-0.03 -0.02,-0.02 -0.03,-0.03 -0.02,-0.03 -0.02,-0.02 -0.03,-0.02 -0.02,-0.03 -0.03,-0.02 -0.02,-0.02 -0.03,-0.02 -0.02,-0.02 -0.03,-0.01 -0.02,-0.02 -0.03,-0.02 -0.03,-0.01 -0.03,-0.01 -0.03,-0.02 -0.03,-0.01 -0.03,-0.01 -0.03,-0.01 -0.03,-0.01 h -0.03 l -0.04,-0.01 -0.03,-0.01 h -0.04 l -0.04,-0.01 h -0.04 c -0.06,-0.01 -0.15,-0.01 -0.15,-0.15 0,-0.07 0.06,-0.1 0.09,-0.1 0.18,0 0.42,0.03 0.6,0.03 0.23,0 0.51,-0.03 0.72,-0.03 0.04,0 0.14,0 0.14,0.15 0,0.09 -0.09,0.1 -0.12,0.1 -0.05,0.01 -0.3,0.02 -0.3,0.21 0,0.08 0.07,0.2 0.1,0.26 l 0.56,0.87 h 2 l -0.03,0.25 h -1.8 l 1.47,2.27 0.33,-2.27 0.03,-0.25 0.17,-1.16 c -0.03,-0.07 -0.07,-0.18 -0.48,-0.18 -0.09,0 -0.19,0 -0.19,-0.15 0,-0.03 0.03,-0.1 0.12,-0.1 0.2,0 0.7,0.03 0.9,0.03 0.12,0 0.28,-0.01 0.41,-0.01 0.13,0 0.27,-0.02 0.4,-0.02 0.09,0 0.14,0.06 0.14,0.15 0,0.1 -0.08,0.1 -0.2,0.1 -0.4,0 -0.42,0.06 -0.44,0.22 l -0.61,4.29 c -0.02,0.15 -0.04,0.2 -0.17,0.2 -0.13,0 -0.17,-0.06 -0.24,-0.16 z"
     inkscape:connector-curvature="0" /><path
     id="path4419"
     style="fill:#000000;fill-opacity:1;stroke:#000000;stroke-width:0;stroke-opacity:1"
     d="m 173.07,660.48 h 0.03 0.03 0.03 l 0.02,0.01 h 0.01 0.01 0.02 0.01 0.02 l 0.01,0.01 h 0.01 0.02 l 0.01,0.01 h 0.01 l 0.01,0.01 h 0.01 l 0.02,0.01 0.01,0.01 v 0.01 l 0.01,0.01 0.01,0.01 v 0 l 0.01,0.01 v 0 0.01 l 0.01,0.01 v 0 0.01 0.01 h 0.01 v 0.01 0.01 0.01 0.01 0 0.01 0.01 c 0,0.2 -0.19,0.2 -0.33,0.2 h -5.97 c -0.14,0 -0.33,0 -0.33,-0.2 0,-0.2 0.19,-0.2 0.34,-0.2 z"
     inkscape:connector-curvature="0" /><path
     id="path4421"
     style="fill:#000000;fill-opacity:1;stroke:#000000;stroke-width:0;stroke-opacity:1"
     d="m 173.08,658.56 h 0.02 0.01 0.03 0.03 0.01 0.01 0.02 0.01 0.02 l 0.01,0.01 h 0.01 0.02 l 0.01,0.01 h 0.01 l 0.01,0.01 h 0.01 l 0.02,0.01 h 0.01 l 0.01,0.01 v 0.01 l 0.01,0.01 h 0.01 v 0.01 0.01 h 0.01 v 0.01 0 l 0.01,0.01 v 0.01 0 0.01 l 0.01,0.01 v 0 0.01 0.01 0.01 0.01 0.01 0.01 c 0,0.19 -0.19,0.19 -0.34,0.19 h -5.95 c -0.15,0 -0.34,0 -0.34,-0.19 0,-0.2 0.19,-0.2 0.33,-0.2 z"
     inkscape:connector-curvature="0" /><path
     id="path4423"
     style="fill:#000000;fill-opacity:1;stroke:#000000;stroke-width:0;stroke-opacity:1"
     d="m 185.02,663.64 v 0.02 l -0.01,0.02 v 0.02 0.02 l -0.01,0.02 v 0.02 l -0.01,0.01 -0.01,0.02 -0.01,0.02 -0.01,0.01 -0.01,0.01 -0.01,0.02 -0.01,0.01 -0.01,0.01 -0.01,0.01 -0.02,0.02 -0.01,0.01 -0.02,0.01 -0.03,0.01 -0.04,0.02 -0.03,0.02 -0.04,0.01 -0.04,0.01 -0.04,0.01 -0.05,0.01 h -0.04 l -0.04,0.01 h -0.05 l -0.04,0.01 h -0.05 -0.04 -0.05 -0.04 -0.05 -0.04 -0.04 -0.04 -0.03 -0.04 -0.03 -0.03 -3.76 c -0.5,0 -1.39,-0.29 -1.55,-0.82 0.02,-0.06 0.04,-0.07 0.1,-0.07 0.22,0 0.52,0.18 0.66,0.32 0.31,0 0.61,0.02 0.92,0.02 h 0.62 c 0,0 -0.04,-0.18 -0.04,-0.19 -0.39,-1.81 -0.98,-3.35 -1.42,-4.33 -0.06,-0.13 -0.6,-1.37 -0.74,-1.49 -0.44,0 -0.76,0.24 -0.94,0.63 -0.03,0.06 -0.03,0.1 -0.1,0.1 -0.23,0 -0.78,-0.32 -0.78,-0.49 0,-0.02 0.01,-0.04 0.02,-0.06 0.18,-0.47 0.63,-0.73 1.11,-0.73 0.51,0 1.1,0.36 1.42,0.73 0.33,0.38 0.99,2.01 1.25,2.61 h 1.92 c -0.01,-0.02 -0.02,-0.03 -0.02,-0.04 0,-0.04 0.06,-0.06 0.1,-0.06 0.22,0 0.79,0.27 0.79,0.58 0,0.07 -0.07,0.06 -0.19,0.06 h -2.39 c 0.26,0.9 0.6,1.77 0.78,2.68 h 1.31 c 0.25,0 0.95,0.05 1.13,-0.16 0.02,-0.06 -0.01,-0.16 0.02,-0.21 0.02,-0.02 0.05,-0.03 0.08,-0.03 0.24,0 0.78,0.29 0.78,0.56 z"
     inkscape:connector-curvature="0" /><path
     id="path4425"
     style="fill:#000000;fill-opacity:1;stroke:#000000;stroke-width:0;stroke-opacity:1"
     d="m 189.85,654.85 v 0.01 0 0 0.01 0 0 0.01 h -0.01 v 0 0.01 0 0.01 h -0.01 v 0.01 h -0.01 v 0.01 l -0.01,0.01 v 0 0.01 h -0.01 v 0.01 h -0.01 v 0 0.01 h -0.01 v 0.01 h -0.01 v 0.01 h -0.01 v 0.01 h -0.01 V 655 l -0.01,0.01 v 0 l -0.01,0.01 -0.01,0.01 v 0 l -0.01,0.01 -0.01,0.01 v 0 l -0.01,0.01 -0.01,0.01 c -1.25,1.25 -1.56,3.13 -1.56,4.65 0,1.73 0.37,3.45 1.6,4.7 0.13,0.12 0.13,0.14 0.13,0.17 0,0.07 -0.04,0.09 -0.1,0.09 -0.1,0 -1,-0.67 -1.59,-1.93 -0.5,-1.09 -0.62,-2.2 -0.62,-3.03 0,-0.78 0.11,-1.98 0.65,-3.1 0.6,-1.22 1.46,-1.87 1.56,-1.87 0.06,0 0.1,0.03 0.1,0.1 z"
     inkscape:connector-curvature="0" /><path
     id="path4427"
     style="fill:#000000;fill-opacity:1;stroke:#000000;stroke-width:0;stroke-opacity:1"
     d="m 192.21,658.38 -0.04,-0.06 -0.04,-0.06 -0.03,-0.06 -0.04,-0.05 -0.04,-0.05 -0.03,-0.04 -0.04,-0.05 -0.04,-0.04 -0.04,-0.04 -0.03,-0.04 -0.04,-0.03 -0.04,-0.03 -0.04,-0.03 -0.03,-0.03 -0.04,-0.02 -0.04,-0.03 -0.04,-0.02 -0.04,-0.02 -0.03,-0.02 -0.04,-0.02 -0.04,-0.01 -0.04,-0.01 -0.04,-0.02 -0.04,-0.01 -0.04,-0.01 -0.04,-0.01 h -0.04 l -0.04,-0.01 -0.08,-0.01 -0.08,-0.01 c -0.12,-0.01 -0.21,-0.01 -0.21,-0.2 0,-0.06 0.05,-0.11 0.13,-0.11 0.27,0 0.58,0.04 0.86,0.04 0.33,0 0.68,-0.04 1,-0.04 0.06,0 0.19,0 0.19,0.19 0,0.11 -0.09,0.12 -0.16,0.12 -0.23,0.02 -0.47,0.1 -0.47,0.35 0,0.12 0.06,0.23 0.14,0.37 l 0.76,1.27 h 2.5 l -0.03,0.31 h -2.28 l 1.96,3.28 0.32,-3.28 0.03,-0.31 c 0.02,-0.21 0.16,-1.56 0.16,-1.66 0,-0.3 -0.52,-0.33 -0.72,-0.33 -0.14,0 -0.24,0 -0.24,-0.2 0,-0.11 0.12,-0.11 0.14,-0.11 0.41,0 0.84,0.04 1.25,0.04 0.25,0 0.87,-0.04 1.12,-0.04 0.06,0 0.18,0 0.18,0.2 0,0.11 -0.1,0.11 -0.23,0.11 -0.61,0 -0.61,0.07 -0.64,0.36 l -0.61,6.21 c -0.02,0.2 -0.02,0.24 -0.19,0.24 -0.16,0 -0.2,-0.07 -0.26,-0.17 z"
     inkscape:connector-curvature="0" /><path
     id="path4429"
     style="fill:#000000;fill-opacity:1;stroke:#000000;stroke-width:0;stroke-opacity:1"
     d="m 199.22,656.28 v -0.02 l -0.01,-0.02 v -0.02 l -0.01,-0.02 v -0.01 l -0.01,-0.02 -0.01,-0.02 v -0.01 l -0.01,-0.02 -0.01,-0.01 -0.01,-0.01 -0.01,-0.01 -0.01,-0.01 -0.01,-0.01 -0.01,-0.01 -0.01,-0.01 -0.02,-0.01 -0.02,-0.01 h -0.02 l -0.02,-0.01 H 199 l -0.01,-0.01 h -0.01 -0.01 -0.02 -0.01 L 198.92,656 h -0.01 -0.02 -0.01 -0.02 -0.02 -0.01 l -0.02,-0.01 h -0.02 -0.02 -0.02 -0.02 -0.03 -0.02 -0.02 -0.03 -0.02 c -0.12,0 -0.21,0 -0.21,-0.15 0,-0.1 0.08,-0.1 0.21,-0.1 h 2.71 c 1.17,0 2.07,0.8 2.07,1.49 0,0.49 -0.45,0.92 -1.19,0.99 0.84,0.16 1.55,0.69 1.55,1.28 0,0.53 -0.54,0.99 -1.45,0.99 l -0.11,-0.25 c 0.71,0 0.87,-0.47 0.87,-0.73 0,-0.56 -0.63,-1.2 -1.57,-1.2 h -1.15 l -0.05,-0.2 h 1.49 c 0.65,0 0.9,-0.43 0.9,-0.83 0,-0.69 -0.7,-1.29 -1.55,-1.29 h -1.12 c -0.22,0 -0.23,0.01 -0.23,0.07 0,0.01 0,0.04 0.03,0.15 l 0.48,1.9 0.05,0.2 0.43,1.69 c 0.06,0.22 0.06,0.24 0.36,0.24 h 1.06 l 0.11,0.25 h -2.54 c -0.14,0 -0.23,0 -0.23,-0.15 0,-0.1 0.09,-0.1 0.23,-0.1 0,0 0.14,0 0.26,-0.01 0.15,-0.02 0.16,-0.03 0.16,-0.1 0,-0.02 0,-0.05 -0.03,-0.15 z"
     inkscape:connector-curvature="0" /><path
     id="path4431"
     style="fill:#000000;fill-opacity:1;stroke:#000000;stroke-width:0;stroke-opacity:1"
     d="m 206.78,657.24 v 0.07 l -0.01,0.05 v 0.06 0.06 l -0.01,0.05 -0.01,0.05 -0.01,0.06 -0.01,0.04 -0.01,0.05 -0.01,0.05 -0.02,0.04 -0.01,0.04 -0.02,0.04 -0.02,0.04 -0.02,0.04 -0.02,0.03 -0.02,0.04 -0.02,0.03 -0.02,0.02 -0.03,0.03 -0.02,0.03 -0.03,0.02 -0.03,0.02 -0.03,0.02 -0.03,0.01 -0.03,0.02 -0.03,0.01 -0.03,0.01 -0.04,0.01 h -0.03 l -0.03,0.01 h -0.04 c -0.33,0 -0.53,-0.25 -0.53,-0.53 0,-0.27 0.2,-0.53 0.53,-0.53 0.12,0 0.25,0.05 0.35,0.13 0.03,0.02 0.04,0.03 0.05,0.03 0.01,0 0.02,-0.01 0.02,-0.15 0,-0.73 -0.35,-1.33 -0.68,-1.65 -0.11,-0.11 -0.11,-0.13 -0.11,-0.16 0,-0.07 0.05,-0.11 0.1,-0.11 0.11,0 0.91,0.76 0.91,1.92 z"
     inkscape:connector-curvature="0" /><path
     id="path4433"
     style="fill:#000000;fill-opacity:1;stroke:#000000;stroke-width:0;stroke-opacity:1"
     d="m 210.97,658.38 -0.04,-0.06 -0.04,-0.06 -0.03,-0.06 -0.04,-0.05 -0.04,-0.05 -0.03,-0.04 -0.04,-0.05 -0.04,-0.04 -0.04,-0.04 -0.03,-0.04 -0.04,-0.03 -0.04,-0.03 -0.04,-0.03 -0.03,-0.03 -0.04,-0.02 -0.04,-0.03 -0.04,-0.02 -0.03,-0.02 -0.04,-0.02 -0.04,-0.02 -0.04,-0.01 -0.04,-0.01 -0.04,-0.02 -0.04,-0.01 -0.04,-0.01 -0.04,-0.01 h -0.03 l -0.04,-0.01 -0.09,-0.01 -0.08,-0.01 c -0.12,-0.01 -0.21,-0.01 -0.21,-0.2 0,-0.06 0.05,-0.11 0.13,-0.11 0.27,0 0.58,0.04 0.86,0.04 0.33,0 0.68,-0.04 1,-0.04 0.06,0 0.19,0 0.19,0.19 0,0.11 -0.09,0.12 -0.16,0.12 -0.23,0.02 -0.47,0.1 -0.47,0.35 0,0.12 0.06,0.23 0.14,0.37 l 0.76,1.27 h 2.5 l -0.03,0.31 h -2.28 l 1.96,3.28 0.32,-3.28 0.03,-0.31 c 0.02,-0.21 0.16,-1.56 0.16,-1.66 0,-0.3 -0.52,-0.33 -0.72,-0.33 -0.14,0 -0.24,0 -0.24,-0.2 0,-0.11 0.12,-0.11 0.14,-0.11 0.41,0 0.84,0.04 1.25,0.04 0.25,0 0.88,-0.04 1.13,-0.04 0.06,0 0.17,0 0.17,0.2 0,0.11 -0.1,0.11 -0.22,0.11 -0.62,0 -0.62,0.07 -0.65,0.36 l -0.61,6.21 c -0.02,0.2 -0.02,0.24 -0.19,0.24 -0.16,0 -0.2,-0.07 -0.26,-0.17 z"
     inkscape:connector-curvature="0" /><path
     id="path4435"
     style="fill:#000000;fill-opacity:1;stroke:#000000;stroke-width:0;stroke-opacity:1"
     d="m 222.55,660.54 v 0 0.01 0 0 0.01 h -0.01 v 0 0.01 0 0.01 0 0 l -0.01,0.01 v 0 0 0.01 0 h -0.01 v 0.01 0 h -0.01 v 0.01 h -0.01 v 0 0 h -0.01 v 0.01 h -0.01 v 0 h -0.01 v 0 0 0 h -0.01 v 0 0 c -0.05,0 -0.07,-0.02 -0.13,-0.08 l -0.51,-0.54 c -0.06,0.08 -0.45,0.62 -1.31,0.62 -1.7,0 -3.37,-1.5 -3.37,-3.07 0,-1.13 0.9,-1.96 2.15,-1.96 0.38,0 1.05,0.08 1.77,0.68 0.55,0.47 0.7,1.07 0.7,1.13 0,0.09 -0.08,0.09 -0.11,0.09 -0.1,0 -0.11,-0.03 -0.13,-0.11 -0.29,-0.95 -1.27,-1.54 -2.11,-1.54 -0.74,0 -1.57,0.4 -1.57,1.5 0,0.2 0.05,1.3 0.86,2.17 0.48,0.54 1.21,0.86 1.88,0.86 0.81,0 1.28,-0.59 1.28,-1.36 0,-0.2 -0.02,-0.25 -0.02,-0.29 0,-0.09 0.09,-0.09 0.13,-0.09 0.11,0 0.11,0.02 0.14,0.15 z"
     inkscape:connector-curvature="0" /><path
     id="path4437"
     style="fill:#000000;fill-opacity:1;stroke:#000000;stroke-width:0;stroke-opacity:1"
     d="m 226.24,659.72 v 0.07 l -0.01,0.08 v 0.08 0.08 l -0.01,0.17 -0.01,0.17 -0.02,0.18 -0.02,0.19 -0.02,0.2 -0.04,0.2 -0.04,0.2 -0.04,0.21 -0.06,0.21 -0.06,0.21 -0.07,0.21 -0.08,0.21 -0.04,0.11 -0.04,0.11 -0.05,0.1 -0.05,0.11 c -0.6,1.22 -1.46,1.86 -1.56,1.86 -0.06,0 -0.1,-0.03 -0.1,-0.09 0,-0.03 0,-0.05 0.19,-0.23 0.98,-0.99 1.55,-2.57 1.55,-4.64 0,-1.7 -0.37,-3.45 -1.61,-4.7 -0.13,-0.12 -0.13,-0.14 -0.13,-0.17 0,-0.06 0.04,-0.1 0.1,-0.1 0.1,0 1,0.68 1.59,1.94 0.51,1.09 0.63,2.19 0.63,3.03 z"
     inkscape:connector-curvature="0" /></g>
</g>
    <g
       id="g4579"
       transform="matrix(0.3,0,0,-0.3,-44.560806,217.77306)"
       xml:space="preserve"
       stroke-miterlimit="10.433"
       font-style="normal"
       font-variant="normal"
       font-weight="normal"
       font-stretch="normal"
       font-size-adjust="none"
       letter-spacing="normal"
       word-spacing="normal"
       ns0:version="0.10.2"
       ns0:texconverter="pdflatex"
       ns0:pdfconverter="pstoedit"
       ns0:text="$\\tilde{X}_A = 01011\\dots$"
       ns0:preamble="C:\\Users\\MatthewThornton\\AppData\\Roaming\\inkscape\\extensions\\textext\\default_packages.tex"
       ns0:scale="0.225000000001"
       ns0:alignment="middle center"
       inkscapeversion="0.92.4"
       ns0:jacobian_sqrt="0.3"
       style="font-style:normal;font-variant:normal;font-weight:normal;font-stretch:normal;letter-spacing:normal;word-spacing:normal;text-anchor:start;fill:none;fill-opacity:1;fill-rule:evenodd;stroke:#000000;stroke-linecap:butt;stroke-linejoin:miter;stroke-miterlimit:10.43299961;stroke-dasharray:none;stroke-dashoffset:0;stroke-opacity:1">
<path
   inkscape:connector-curvature="0"
   d="m 155.72,666.24 -0.16,0.15 c 0,-0.01 -0.38,-0.48 -0.82,-0.48 -0.23,0 -0.48,0.15 -0.65,0.25 -0.27,0.16 -0.45,0.23 -0.61,0.23 -0.38,0 -0.57,-0.22 -1.08,-0.78 l 0.16,-0.14 c 0,0.01 0.38,0.47 0.82,0.47 0.22,0 0.47,-0.15 0.64,-0.25 0.27,-0.15 0.45,-0.22 0.62,-0.22 0.38,0 0.57,0.21 1.08,0.77 z"
   style="fill:#000000;fill-opacity:1;stroke:#000000;stroke-width:0;stroke-opacity:1"
   id="path4553" />
<path
   inkscape:connector-curvature="0"
   d="m 153.55,661.32 -0.84,1.97 c -0.03,0.08 -0.05,0.12 -0.05,0.13 0,0.06 0.17,0.25 0.59,0.29 0.1,0.01 0.2,0.02 0.2,0.19 0,0.12 -0.12,0.12 -0.15,0.12 -0.41,0 -0.84,-0.03 -1.26,-0.03 -0.25,0 -0.86,0.03 -1.11,0.03 -0.06,0 -0.18,0 -0.18,-0.2 0,-0.11 0.1,-0.11 0.23,-0.11 0.59,0 0.65,-0.1 0.74,-0.32 l 1.18,-2.77 -2.1,-2.25 -0.13,-0.11 c -0.49,-0.53 -0.96,-0.69 -1.47,-0.72 -0.13,-0.01 -0.22,-0.01 -0.22,-0.2 0,-0.01 0,-0.11 0.13,-0.11 0.3,0 0.63,0.04 0.94,0.04 0.37,0 0.76,-0.04 1.11,-0.04 0.07,0 0.19,0 0.19,0.2 0,0.1 -0.11,0.11 -0.12,0.11 -0.1,0.01 -0.4,0.03 -0.4,0.31 0,0.16 0.15,0.32 0.27,0.45 l 1.01,1.07 0.9,0.97 1.01,-2.37 c 0.04,-0.11 0.05,-0.12 0.05,-0.14 0,-0.08 -0.19,-0.25 -0.58,-0.29 -0.11,-0.01 -0.2,-0.02 -0.2,-0.19 0,-0.12 0.11,-0.12 0.15,-0.12 0.28,0 0.98,0.04 1.26,0.04 0.25,0 0.85,-0.04 1.1,-0.04 0.07,0 0.19,0 0.19,0.19 0,0.12 -0.1,0.12 -0.18,0.12 -0.67,0.01 -0.69,0.04 -0.86,0.44 -0.38,0.92 -1.05,2.47 -1.28,3.07 0.68,0.69 1.72,1.88 2.04,2.16 0.29,0.23 0.67,0.47 1.27,0.5 0.13,0.01 0.22,0.01 0.22,0.2 0,0.01 0,0.11 -0.13,0.11 -0.3,0 -0.63,-0.03 -0.94,-0.03 -0.37,0 -0.75,0.03 -1.11,0.03 -0.06,0 -0.18,0 -0.18,-0.2 0,-0.07 0.04,-0.1 0.11,-0.11 0.09,-0.01 0.4,-0.03 0.4,-0.31 0,-0.13 -0.11,-0.26 -0.19,-0.35 z"
   style="fill:#000000;fill-opacity:1;stroke:#000000;stroke-width:0;stroke-opacity:1"
   id="path4555" />
<path
   inkscape:connector-curvature="0"
   d="m 158.41,656.58 -0.03,-0.04 -0.02,-0.03 -0.02,-0.03 -0.02,-0.04 -0.03,-0.03 -0.02,-0.03 -0.02,-0.02 -0.03,-0.03 -0.02,-0.03 -0.02,-0.02 -0.03,-0.02 -0.02,-0.03 -0.03,-0.02 -0.02,-0.02 -0.03,-0.02 -0.02,-0.02 -0.03,-0.01 -0.02,-0.02 -0.03,-0.02 -0.03,-0.01 -0.03,-0.01 -0.03,-0.02 -0.03,-0.01 -0.03,-0.01 -0.03,-0.01 -0.03,-0.01 h -0.03 l -0.04,-0.01 -0.03,-0.01 h -0.04 l -0.04,-0.01 h -0.04 c -0.06,-0.01 -0.15,-0.01 -0.15,-0.15 0,-0.07 0.06,-0.1 0.09,-0.1 0.18,0 0.42,0.03 0.6,0.03 0.23,0 0.51,-0.03 0.72,-0.03 0.04,0 0.14,0 0.14,0.15 0,0.09 -0.09,0.1 -0.12,0.1 -0.05,0.01 -0.3,0.02 -0.3,0.21 0,0.08 0.07,0.2 0.1,0.26 l 0.56,0.87 h 2 l -0.03,0.25 h -1.8 l 1.47,2.27 0.33,-2.27 0.03,-0.25 0.17,-1.16 c -0.03,-0.07 -0.07,-0.18 -0.48,-0.18 -0.09,0 -0.19,0 -0.19,-0.15 0,-0.03 0.03,-0.1 0.12,-0.1 0.2,0 0.7,0.03 0.9,0.03 0.12,0 0.28,-0.01 0.41,-0.01 0.13,0 0.27,-0.02 0.4,-0.02 0.09,0 0.14,0.06 0.14,0.15 0,0.1 -0.08,0.1 -0.2,0.1 -0.4,0 -0.42,0.06 -0.44,0.22 l -0.61,4.29 c -0.02,0.15 -0.04,0.2 -0.17,0.2 -0.13,0 -0.17,-0.06 -0.24,-0.16 z"
   style="fill:#000000;fill-opacity:1;stroke:#000000;stroke-width:0;stroke-opacity:1"
   id="path4557" />
<path
   inkscape:connector-curvature="0"
   d="m 173.07,660.48 h 0.03 0.03 0.03 l 0.02,0.01 h 0.01 0.01 0.02 0.01 0.02 l 0.01,0.01 h 0.01 0.02 l 0.01,0.01 h 0.01 l 0.01,0.01 h 0.01 l 0.02,0.01 0.01,0.01 v 0.01 l 0.01,0.01 0.01,0.01 v 0 l 0.01,0.01 v 0 0.01 l 0.01,0.01 v 0 0.01 0.01 h 0.01 v 0.01 0.01 0.01 0.01 0 0.01 0.01 c 0,0.2 -0.19,0.2 -0.33,0.2 h -5.97 c -0.14,0 -0.33,0 -0.33,-0.2 0,-0.2 0.19,-0.2 0.34,-0.2 z"
   style="fill:#000000;fill-opacity:1;stroke:#000000;stroke-width:0;stroke-opacity:1"
   id="path4559" />
<path
   inkscape:connector-curvature="0"
   d="m 173.08,658.56 h 0.02 0.01 0.03 0.03 0.01 0.01 0.02 0.01 0.02 l 0.01,0.01 h 0.01 0.02 l 0.01,0.01 h 0.01 l 0.01,0.01 h 0.01 l 0.02,0.01 h 0.01 l 0.01,0.01 v 0.01 l 0.01,0.01 h 0.01 v 0.01 0.01 h 0.01 v 0.01 0 l 0.01,0.01 v 0.01 0 0.01 l 0.01,0.01 v 0 0.01 0.01 0.01 0.01 0.01 0.01 c 0,0.19 -0.19,0.19 -0.34,0.19 h -5.95 c -0.15,0 -0.34,0 -0.34,-0.19 0,-0.2 0.19,-0.2 0.33,-0.2 z"
   style="fill:#000000;fill-opacity:1;stroke:#000000;stroke-width:0;stroke-opacity:1"
   id="path4561" />
<path
   inkscape:connector-curvature="0"
   d="m 181.33,660.41 v 0.15 0.15 l -0.01,0.15 v 0.15 l -0.01,0.15 -0.02,0.14 -0.01,0.15 -0.02,0.15 -0.02,0.14 -0.03,0.15 -0.03,0.14 -0.04,0.15 -0.04,0.14 -0.05,0.14 -0.06,0.14 -0.03,0.07 -0.03,0.07 c -0.46,0.95 -1.28,1.11 -1.69,1.11 -0.6,0 -1.33,-0.26 -1.74,-1.18 -0.32,-0.69 -0.37,-1.46 -0.37,-2.26 0,-0.74 0.04,-1.63 0.45,-2.39 0.43,-0.8 1.16,-1 1.65,-1 v 0.21 c -0.39,0 -0.98,0.25 -1.16,1.21 -0.11,0.59 -0.11,1.51 -0.11,2.09 0,0.64 0,1.29 0.08,1.83 0.19,1.18 0.94,1.27 1.19,1.27 0.32,0 0.98,-0.18 1.17,-1.16 0.1,-0.56 0.1,-1.31 0.1,-1.94 0,-0.74 0,-1.42 -0.11,-2.05 -0.15,-0.95 -0.72,-1.25 -1.16,-1.25 v 0 -0.21 c 0.53,0 1.29,0.2 1.73,1.15 0.32,0.68 0.37,1.46 0.37,2.24 z"
   style="fill:#000000;fill-opacity:1;stroke:#000000;stroke-width:0;stroke-opacity:1"
   id="path4563" />
<path
   inkscape:connector-curvature="0"
   d="m 184.65,663.59 v 0.01 0.01 0.02 0.01 0 0.01 0.01 0.01 0.01 0.01 0.01 0.01 0 0.01 0.01 0 0.01 0.01 0.01 0.01 l -0.01,0.01 v 0.01 0.01 h -0.01 v 0.01 l -0.01,0.01 h -0.01 v 0.01 h -0.01 l -0.01,0.01 v 0 h -0.01 v 0 h -0.01 -0.01 v 0 l -0.01,0.01 v 0 h -0.01 -0.01 -0.01 v 0 h -0.01 -0.01 -0.01 -0.01 -0.01 v 0 h -0.01 -0.01 -0.01 -0.01 c -0.62,-0.63 -1.5,-0.63 -1.82,-0.63 v -0.31 c 0.2,0 0.79,0 1.31,0.26 v -5.15 c 0,-0.36 -0.03,-0.48 -0.93,-0.48 h -0.32 v -0.31 c 0.35,0.04 1.22,0.04 1.62,0.04 0.39,0 1.26,0 1.61,-0.04 v 0.31 h -0.32 c -0.9,0 -0.93,0.11 -0.93,0.48 z"
   style="fill:#000000;fill-opacity:1;stroke:#000000;stroke-width:0;stroke-opacity:1"
   id="path4565" />
<path
   inkscape:connector-curvature="0"
   d="m 191.29,660.41 v 0.15 0.15 l -0.01,0.15 v 0.15 l -0.01,0.15 -0.01,0.14 -0.02,0.15 -0.02,0.15 -0.02,0.14 -0.03,0.15 -0.03,0.14 -0.04,0.15 -0.04,0.14 -0.05,0.14 -0.06,0.14 -0.03,0.07 -0.03,0.07 c -0.46,0.95 -1.27,1.11 -1.69,1.11 -0.6,0 -1.33,-0.26 -1.74,-1.18 -0.32,-0.69 -0.37,-1.46 -0.37,-2.26 0,-0.74 0.04,-1.63 0.45,-2.39 0.43,-0.8 1.16,-1 1.65,-1 v 0.21 c -0.39,0 -0.98,0.25 -1.16,1.21 -0.11,0.59 -0.11,1.51 -0.11,2.09 0,0.64 0,1.29 0.08,1.83 0.19,1.18 0.94,1.27 1.19,1.27 0.33,0 0.98,-0.18 1.17,-1.16 0.1,-0.56 0.1,-1.31 0.1,-1.94 0,-0.74 0,-1.42 -0.11,-2.05 -0.15,-0.95 -0.71,-1.25 -1.16,-1.25 v 0 -0.21 c 0.54,0 1.29,0.2 1.73,1.15 0.32,0.68 0.37,1.46 0.37,2.24 z"
   style="fill:#000000;fill-opacity:1;stroke:#000000;stroke-width:0;stroke-opacity:1"
   id="path4567" />
<path
   inkscape:connector-curvature="0"
   d="m 194.62,663.59 v 0.01 0.01 0.02 0.01 0 0.01 0.01 0.01 0.01 0.01 0.01 0.01 0 l -0.01,0.01 v 0.01 0 0.01 0.01 0.01 0.01 l -0.01,0.01 v 0.01 0.01 h -0.01 v 0.01 l -0.01,0.01 v 0 l -0.01,0.01 h -0.01 l -0.01,0.01 v 0 h -0.01 v 0 h -0.01 v 0 h -0.01 l -0.01,0.01 v 0 h -0.01 -0.01 v 0 h -0.01 -0.01 -0.01 v 0 h -0.01 -0.01 -0.01 -0.01 -0.01 -0.01 -0.01 c -0.62,-0.63 -1.5,-0.63 -1.82,-0.63 v -0.31 c 0.2,0 0.79,0 1.31,0.26 v -5.15 c 0,-0.36 -0.03,-0.48 -0.93,-0.48 h -0.32 v -0.31 c 0.35,0.04 1.22,0.04 1.62,0.04 0.4,0 1.26,0 1.61,-0.04 v 0.31 h -0.32 c -0.89,0 -0.92,0.11 -0.92,0.48 z"
   style="fill:#000000;fill-opacity:1;stroke:#000000;stroke-width:0;stroke-opacity:1"
   id="path4569" />
<path
   inkscape:connector-curvature="0"
   d="m 199.6,663.59 v 0.01 0.01 0.02 0.01 0 0.01 0.01 0.01 0.01 0.01 0.01 0.01 0 0.01 0.01 h -0.01 v 0.01 0.01 0.01 0.01 0.01 l -0.01,0.01 v 0.01 h -0.01 v 0.01 l -0.01,0.01 v 0 l -0.01,0.01 h -0.01 l -0.01,0.01 v 0 h -0.01 v 0 h -0.01 v 0 h -0.01 v 0.01 h -0.01 -0.01 v 0 h -0.01 -0.01 -0.01 -0.01 v 0 h -0.01 -0.01 -0.01 -0.01 -0.01 -0.01 -0.01 c -0.62,-0.63 -1.5,-0.63 -1.82,-0.63 v -0.31 c 0.2,0 0.79,0 1.31,0.26 v -5.15 c 0,-0.36 -0.03,-0.48 -0.93,-0.48 h -0.32 v -0.31 c 0.35,0.04 1.22,0.04 1.62,0.04 0.4,0 1.27,0 1.62,-0.04 v 0.31 h -0.32 c -0.9,0 -0.93,0.11 -0.93,0.48 z"
   style="fill:#000000;fill-opacity:1;stroke:#000000;stroke-width:0;stroke-opacity:1"
   id="path4571" />
<path
   inkscape:connector-curvature="0"
   d="m 205.22,657.76 v 0.03 0.03 l -0.01,0.02 v 0.03 l -0.01,0.02 v 0.03 l -0.01,0.02 -0.01,0.03 -0.01,0.02 -0.01,0.02 -0.02,0.02 -0.01,0.03 -0.02,0.02 -0.01,0.02 -0.02,0.01 -0.02,0.02 -0.01,0.02 -0.02,0.02 -0.02,0.01 -0.02,0.02 -0.03,0.01 -0.02,0.01 -0.02,0.02 -0.02,0.01 -0.03,0.01 h -0.02 l -0.03,0.01 -0.02,0.01 h -0.03 l -0.02,0.01 h -0.03 -0.03 c -0.29,0 -0.53,-0.24 -0.53,-0.53 0,-0.29 0.24,-0.53 0.53,-0.53 0.29,0 0.53,0.24 0.53,0.53 z"
   style="fill:#000000;fill-opacity:1;stroke:#000000;stroke-width:0;stroke-opacity:1"
   id="path4573" />
<path
   inkscape:connector-curvature="0"
   d="m 209.65,657.76 v 0.03 0.03 0.02 l -0.01,0.03 v 0.02 l -0.01,0.03 -0.01,0.02 -0.01,0.03 -0.01,0.02 -0.01,0.02 -0.02,0.02 -0.01,0.03 -0.01,0.02 -0.02,0.02 -0.02,0.01 -0.01,0.02 -0.02,0.02 -0.02,0.02 -0.02,0.01 -0.02,0.02 -0.02,0.01 -0.03,0.01 -0.02,0.02 -0.02,0.01 -0.03,0.01 h -0.02 l -0.03,0.01 -0.02,0.01 h -0.03 l -0.02,0.01 h -0.03 -0.03 c -0.29,0 -0.52,-0.24 -0.52,-0.53 0,-0.29 0.23,-0.53 0.52,-0.53 0.29,0 0.53,0.24 0.53,0.53 z"
   style="fill:#000000;fill-opacity:1;stroke:#000000;stroke-width:0;stroke-opacity:1"
   id="path4575" />
<path
   inkscape:connector-curvature="0"
   d="m 214.07,657.76 v 0.03 0.03 0.02 l -0.01,0.03 v 0.02 l -0.01,0.03 -0.01,0.02 -0.01,0.03 -0.01,0.02 -0.01,0.02 -0.01,0.02 -0.02,0.03 -0.01,0.02 -0.02,0.02 -0.02,0.01 -0.01,0.02 -0.02,0.02 -0.02,0.02 -0.02,0.01 -0.02,0.02 -0.02,0.01 -0.02,0.01 -0.03,0.02 -0.02,0.01 -0.02,0.01 h -0.03 l -0.02,0.01 -0.03,0.01 h -0.03 l -0.02,0.01 h -0.03 -0.03 c -0.28,0 -0.52,-0.24 -0.52,-0.53 0,-0.29 0.24,-0.53 0.52,-0.53 0.29,0 0.53,0.24 0.53,0.53 z"
   style="fill:#000000;fill-opacity:1;stroke:#000000;stroke-width:0;stroke-opacity:1"
   id="path4577" />
</g>
    <g
       id="g1103"
       transform="matrix(0.3,0,0,-0.3,-28.573468,184.66048)"
       xml:space="preserve"
       stroke-miterlimit="10.433"
       font-style="normal"
       font-variant="normal"
       font-weight="normal"
       font-stretch="normal"
       font-size-adjust="none"
       letter-spacing="normal"
       word-spacing="normal"
       ns0:version="0.10.2"
       ns0:texconverter="pdflatex"
       ns0:pdfconverter="pstoedit"
       ns0:text="(b) QSS encryption stage"
       ns0:preamble="C:\\Users\\MatthewThornton\\AppData\\Roaming\\inkscape\\extensions\\textext\\default_packages.tex"
       ns0:scale="0.225000000001"
       ns0:alignment="middle center"
       inkscapeversion="0.92.4"
       ns0:jacobian_sqrt="0.3"
       style="font-style:normal;font-variant:normal;font-weight:normal;font-stretch:normal;letter-spacing:normal;word-spacing:normal;text-anchor:start;fill:none;fill-opacity:1;fill-rule:evenodd;stroke:#000000;stroke-linecap:butt;stroke-linejoin:miter;stroke-miterlimit:10.43299961;stroke-dasharray:none;stroke-dashoffset:0;stroke-opacity:1">
<path
   inkscape:connector-curvature="0"
   d="m 152.01,654.85 v 0.01 0 0 0.01 0 0 0.01 0 0 l -0.01,0.01 v 0 0.01 0 l -0.01,0.01 v 0 l -0.01,0.01 v 0.01 h -0.01 v 0.01 h -0.01 v 0.01 0 h -0.01 v 0.01 0 l -0.01,0.01 v 0 l -0.01,0.01 v 0 l -0.01,0.01 v 0 l -0.01,0.01 v 0.01 h -0.01 l -0.01,0.01 v 0.01 h -0.01 l -0.01,0.01 v 0.01 h -0.01 l -0.01,0.01 -0.01,0.01 c -1.24,1.25 -1.56,3.13 -1.56,4.65 0,1.73 0.38,3.45 1.6,4.7 0.13,0.12 0.13,0.14 0.13,0.17 0,0.07 -0.04,0.09 -0.1,0.09 -0.1,0 -0.99,-0.67 -1.58,-1.93 -0.51,-1.09 -0.63,-2.2 -0.63,-3.03 0,-0.78 0.11,-1.98 0.66,-3.1 0.6,-1.22 1.45,-1.87 1.55,-1.87 0.06,0 0.1,0.03 0.1,0.1 z"
   style="fill:#000000;fill-opacity:1;stroke:#000000;stroke-width:0;stroke-opacity:1"
   id="path1059" />
<path
   inkscape:connector-curvature="0"
   d="m 154.3,660.98 v 3.15 l -1.43,-0.11 v -0.31 c 0.69,0 0.77,-0.07 0.77,-0.55 v -5.93 h 0.25 c 0.01,0.01 0.09,0.15 0.36,0.62 0.15,-0.23 0.57,-0.72 1.31,-0.72 l -0.04,0.21 c -0.45,0 -0.81,0.24 -1.05,0.61 -0.14,0.21 -0.14,0.24 -0.14,0.42 v 0 2.04 c 0,0.19 0,0.2 0.11,0.36 0.39,0.56 0.94,0.64 1.18,0.64 0.45,0 0.81,-0.26 1.04,-0.64 0.26,-0.41 0.29,-0.97 0.29,-1.38 0,-0.37 -0.02,-0.96 -0.3,-1.41 -0.21,-0.31 -0.59,-0.64 -1.13,-0.64 l 0.04,-0.21 c 1.18,0 2.22,0.97 2.22,2.25 0,1.26 -0.98,2.25 -2.11,2.25 -0.78,0 -1.21,-0.47 -1.37,-0.65 z"
   style="fill:#000000;fill-opacity:1;stroke:#000000;stroke-width:0;stroke-opacity:1"
   id="path1061" />
<path
   inkscape:connector-curvature="0"
   d="m 161,659.72 v 0.07 0.08 0.08 0.08 l -0.01,0.17 -0.01,0.17 -0.02,0.18 -0.02,0.19 -0.03,0.2 -0.03,0.2 -0.04,0.2 -0.05,0.21 -0.05,0.21 -0.06,0.21 -0.07,0.21 -0.08,0.21 -0.04,0.11 -0.05,0.11 -0.04,0.1 -0.05,0.11 c -0.6,1.22 -1.46,1.86 -1.56,1.86 -0.06,0 -0.1,-0.03 -0.1,-0.09 0,-0.03 0,-0.05 0.19,-0.23 0.98,-0.99 1.55,-2.57 1.55,-4.64 0,-1.7 -0.37,-3.45 -1.61,-4.7 -0.13,-0.12 -0.13,-0.14 -0.13,-0.17 0,-0.06 0.04,-0.1 0.1,-0.1 0.1,0 1,0.68 1.59,1.94 0.5,1.09 0.62,2.19 0.62,3.03 z"
   style="fill:#000000;fill-opacity:1;stroke:#000000;stroke-width:0;stroke-opacity:1"
   id="path1063" />
<path
   inkscape:connector-curvature="0"
   d="m 170.48,657.3 0.11,0.06 0.11,0.05 0.1,0.06 0.1,0.07 0.1,0.06 0.1,0.08 0.1,0.07 0.09,0.08 0.09,0.08 0.09,0.09 0.09,0.09 0.08,0.09 0.08,0.1 0.07,0.1 0.07,0.1 0.07,0.11 0.07,0.11 0.06,0.11 0.06,0.11 0.05,0.12 0.05,0.12 0.05,0.12 0.04,0.12 0.04,0.13 0.04,0.13 0.03,0.13 0.02,0.13 0.03,0.13 0.01,0.14 0.01,0.13 0.01,0.14 v 0.14 c 0,2.03 -1.5,3.64 -3.32,3.64 v -0.25 c 0.97,0 2.33,-0.85 2.33,-3.39 0,-0.77 -0.12,-2.17 -1.18,-2.95 -0.22,0.56 -0.54,1.06 -1.13,1.06 v -0.22 c 0.54,0 0.76,-0.42 0.87,-1 v 0 c -0.34,-0.19 -0.66,-0.22 -0.88,-0.22 -0.51,0 -0.59,0.45 -0.59,0.6 0,0.29 0.21,0.62 0.6,0.62 v 0.22 c -0.51,0 -0.82,-0.43 -0.82,-0.84 0,-0.27 0.13,-0.46 0.14,-0.48 v 0 c -0.53,0.2 -1.65,0.93 -1.65,3.21 0,2.58 1.39,3.39 2.31,3.39 v 0.25 c -1.78,0 -3.31,-1.59 -3.31,-3.64 0,-2 1.51,-3.58 3.32,-3.58 0.31,0 0.66,0.06 0.95,0.14 0.15,-0.94 0.29,-1.85 1.22,-1.85 1.01,0 1.2,1.32 1.2,1.83 0,0.09 0,0.2 -0.11,0.2 -0.09,0 -0.1,-0.07 -0.11,-0.18 -0.06,-0.53 -0.47,-0.83 -0.9,-0.83 -0.47,0 -0.72,0.34 -0.96,0.97 z"
   style="fill:#000000;fill-opacity:1;stroke:#000000;stroke-width:0;stroke-opacity:1"
   id="path1065" />
<path
   inkscape:connector-curvature="0"
   d="m 176.54,661.09 -1.27,0.31 c -0.62,0.15 -1.01,0.68 -1.01,1.26 0,0.69 0.54,1.3 1.32,1.3 1.66,0 1.88,-1.63 1.94,-2.08 0.01,-0.06 0.01,-0.11 0.12,-0.11 0.13,0 0.13,0.05 0.13,0.23 v 2 c 0,0.17 0,0.24 -0.11,0.24 -0.07,0 -0.08,-0.01 -0.15,-0.13 l -0.35,-0.57 c -0.3,0.29 -0.71,0.7 -1.59,0.7 -1.11,0 -1.95,-0.88 -1.95,-1.93 0,-0.82 0.53,-1.55 1.31,-1.82 0.11,-0.04 0.62,-0.16 1.31,-0.33 0.27,-0.06 0.57,-0.13 0.85,-0.5 0.21,-0.26 0.31,-0.59 0.31,-0.92 0,-0.7 -0.5,-1.42 -1.34,-1.42 -0.29,0 -1.04,0.05 -1.57,0.54 -0.58,0.54 -0.61,1.17 -0.62,1.53 -0.01,0.1 -0.09,0.1 -0.12,0.1 -0.13,0 -0.13,-0.07 -0.13,-0.25 v -1.98 c 0,-0.17 0,-0.24 0.11,-0.24 0.07,0 0.08,0.02 0.15,0.13 0,0.01 0.03,0.03 0.36,0.56 0.31,-0.34 0.95,-0.69 1.83,-0.69 1.17,0 1.97,0.97 1.97,2.06 0,1 -0.66,1.81 -1.5,2.01 z"
   style="fill:#000000;fill-opacity:1;stroke:#000000;stroke-width:0;stroke-opacity:1"
   id="path1067" />
<path
   inkscape:connector-curvature="0"
   d="m 182.08,661.09 -1.28,0.31 c -0.62,0.15 -1.01,0.68 -1.01,1.26 0,0.69 0.54,1.3 1.32,1.3 1.67,0 1.88,-1.63 1.94,-2.08 0.02,-0.06 0.02,-0.11 0.13,-0.11 0.12,0 0.12,0.05 0.12,0.23 v 2 c 0,0.17 0,0.24 -0.1,0.24 -0.07,0 -0.08,-0.01 -0.16,-0.13 l -0.34,-0.57 c -0.3,0.29 -0.71,0.7 -1.6,0.7 -1.11,0 -1.94,-0.88 -1.94,-1.93 0,-0.82 0.52,-1.55 1.3,-1.82 0.11,-0.04 0.62,-0.16 1.32,-0.33 0.27,-0.06 0.57,-0.13 0.85,-0.5 0.21,-0.26 0.31,-0.59 0.31,-0.92 0,-0.7 -0.5,-1.42 -1.34,-1.42 -0.29,0 -1.05,0.05 -1.58,0.54 -0.57,0.54 -0.6,1.17 -0.61,1.53 -0.01,0.1 -0.09,0.1 -0.12,0.1 -0.13,0 -0.13,-0.07 -0.13,-0.25 v -1.98 c 0,-0.17 0,-0.24 0.11,-0.24 0.07,0 0.08,0.02 0.15,0.13 0,0.01 0.03,0.03 0.35,0.56 0.31,-0.34 0.95,-0.69 1.84,-0.69 1.17,0 1.96,0.97 1.96,2.06 0,1 -0.65,1.81 -1.49,2.01 z"
   style="fill:#000000;fill-opacity:1;stroke:#000000;stroke-width:0;stroke-opacity:1"
   id="path1069" />
<path
   inkscape:connector-curvature="0"
   d="m 188.57,659.53 0.01,0.21 c 0.06,1.48 0.9,1.73 1.23,1.73 1.03,0 1.13,-1.34 1.13,-1.73 h -2.36 l -0.01,-0.21 h 2.78 c 0.22,0 0.25,0 0.25,0.21 0,0.98 -0.54,1.94 -1.79,1.94 -1.15,0 -2.07,-1.02 -2.07,-2.26 0,-1.33 1.05,-2.29 2.19,-2.29 1.22,0 1.67,1.1 1.67,1.29 0,0.1 -0.08,0.12 -0.13,0.12 -0.09,0 -0.11,-0.06 -0.13,-0.14 -0.35,-1.03 -1.25,-1.03 -1.35,-1.03 -0.5,0 -0.89,0.3 -1.12,0.67 -0.3,0.48 -0.3,1.13 -0.3,1.49 z"
   style="fill:#000000;fill-opacity:1;stroke:#000000;stroke-width:0;stroke-opacity:1"
   id="path1071" />
<path
   inkscape:connector-curvature="0"
   d="m 192.99,660.65 v -2.66 c 0,-0.45 -0.11,-0.45 -0.78,-0.45 v -0.31 c 0.35,0.01 0.86,0.04 1.12,0.04 0.26,0 0.78,-0.03 1.12,-0.04 v 0.31 c -0.67,0 -0.78,0 -0.78,0.45 v 1.83 c 0,1.03 0.71,1.59 1.35,1.59 0.63,0 0.74,-0.54 0.74,-1.11 v -2.31 c 0,-0.45 -0.11,-0.45 -0.78,-0.45 v -0.31 c 0.35,0.01 0.86,0.04 1.13,0.04 0.26,0 0.77,-0.03 1.11,-0.04 v 0.31 c -0.52,0 -0.76,0 -0.77,0.3 v 1.9 c 0,0.85 0,1.16 -0.31,1.52 -0.14,0.17 -0.47,0.37 -1.05,0.37 -0.73,0 -1.2,-0.43 -1.48,-1.05 v 1.05 l -1.4,-0.11 v -0.31 c 0.69,0 0.78,-0.07 0.78,-0.56 z"
   style="fill:#000000;fill-opacity:1;stroke:#000000;stroke-width:0;stroke-opacity:1"
   id="path1073" />
<path
   inkscape:connector-curvature="0"
   d="m 198.59,659.4 v 0.08 0.07 l 0.01,0.07 v 0.07 0.07 l 0.01,0.07 0.01,0.06 0.01,0.06 0.01,0.06 0.01,0.06 0.01,0.06 0.01,0.06 0.03,0.11 0.03,0.1 0.03,0.1 0.04,0.09 0.03,0.09 0.05,0.08 0.04,0.07 0.05,0.07 0.05,0.07 0.05,0.06 0.05,0.05 0.05,0.05 0.05,0.05 0.06,0.04 0.05,0.04 0.06,0.03 0.06,0.03 0.05,0.03 0.06,0.02 0.06,0.02 0.05,0.01 0.06,0.02 0.05,0.01 h 0.05 l 0.06,0.01 h 0.05 c 0.09,0 0.71,-0.01 1.06,-0.37 -0.41,-0.03 -0.47,-0.33 -0.47,-0.46 0,-0.26 0.18,-0.45 0.46,-0.45 0.26,0 0.46,0.16 0.46,0.46 0,0.68 -0.76,1.06 -1.52,1.06 -1.25,0 -2.17,-1.07 -2.17,-2.3 0,-1.27 0.99,-2.25 2.15,-2.25 1.33,0 1.65,1.19 1.65,1.29 0,0.1 -0.1,0.1 -0.13,0.1 -0.09,0 -0.11,-0.04 -0.13,-0.1 -0.29,-0.93 -0.93,-1.05 -1.3,-1.05 -0.53,0 -1.41,0.43 -1.41,2.03 z"
   style="fill:#000000;fill-opacity:1;stroke:#000000;stroke-width:0;stroke-opacity:1"
   id="path1075" />
<path
   inkscape:connector-curvature="0"
   d="m 203.52,660.53 v 1.1 l -1.39,-0.11 v -0.31 c 0.7,0 0.78,-0.07 0.78,-0.56 v -2.66 c 0,-0.45 -0.11,-0.45 -0.78,-0.45 v -0.31 c 0.39,0.01 0.86,0.04 1.14,0.04 0.39,0 0.86,0 1.26,-0.04 v 0.31 h -0.21 c -0.73,0 -0.75,0.11 -0.75,0.47 v 1.53 c 0,0.98 0.41,1.87 1.17,1.87 0.07,0 0.09,0 0.11,-0.01 -0.03,-0.01 -0.23,-0.13 -0.23,-0.39 0,-0.28 0.21,-0.43 0.43,-0.43 0.18,0 0.43,0.12 0.43,0.44 0,0.32 -0.31,0.61 -0.74,0.61 -0.73,0 -1.09,-0.67 -1.22,-1.1 z"
   style="fill:#000000;fill-opacity:1;stroke:#000000;stroke-width:0;stroke-opacity:1"
   id="path1077" />
<path
   inkscape:connector-curvature="0"
   d="m 209.89,660.57 0.01,0.03 0.02,0.03 0.01,0.03 0.01,0.02 0.02,0.03 0.01,0.02 0.01,0.03 0.02,0.02 0.03,0.04 0.03,0.04 0.03,0.04 0.03,0.04 0.04,0.03 0.03,0.03 0.03,0.02 0.04,0.03 0.03,0.02 0.03,0.02 0.04,0.02 0.03,0.02 0.04,0.01 0.03,0.01 0.03,0.01 0.03,0.01 0.03,0.01 0.04,0.01 h 0.02 l 0.03,0.01 h 0.03 0.03 l 0.02,0.01 h 0.02 0.03 0.02 0.01 0.02 v 0.31 c -0.23,-0.02 -0.52,-0.03 -0.75,-0.03 -0.18,0 -0.65,0.02 -0.87,0.03 v -0.31 c 0.31,-0.01 0.47,-0.18 0.47,-0.43 0,-0.1 -0.01,-0.12 -0.06,-0.24 l -1.01,-2.44 -1.1,2.67 c -0.04,0.1 -0.06,0.14 -0.06,0.18 0,0.26 0.37,0.26 0.56,0.26 v 0.31 c -0.26,-0.01 -0.92,-0.03 -1.09,-0.03 -0.27,0 -0.67,0.01 -0.97,0.03 v -0.31 c 0.48,0 0.67,0 0.81,-0.35 l 1.5,-3.63 c -0.05,-0.12 -0.19,-0.45 -0.25,-0.58 -0.22,-0.55 -0.5,-1.23 -1.14,-1.23 -0.05,0 -0.28,0 -0.47,0.18 0.31,0.04 0.39,0.25 0.39,0.41 0,0.26 -0.19,0.42 -0.42,0.42 -0.2,0 -0.42,-0.13 -0.42,-0.43 0,-0.44 0.42,-0.8 0.92,-0.8 0.63,0 1.04,0.57 1.28,1.13 z"
   style="fill:#000000;fill-opacity:1;stroke:#000000;stroke-width:0;stroke-opacity:1"
   id="path1079" />
<path
   inkscape:connector-curvature="0"
   d="m 212.73,660.97 v 0.66 l -1.44,-0.11 v -0.31 c 0.71,0 0.78,-0.06 0.78,-0.5 v -4.65 c 0,-0.44 -0.11,-0.44 -0.78,-0.44 v -0.31 c 0.34,0.01 0.86,0.03 1.12,0.03 0.27,0 0.77,-0.02 1.12,-0.03 v 0.31 c -0.66,0 -0.77,0 -0.77,0.44 v 1.67 0.09 l 0.14,0.13 c -0.14,0.21 -0.14,0.22 -0.14,0.42 v 0 2.21 c 0.28,0.51 0.77,0.8 1.28,0.8 0.73,0 1.34,-0.88 1.34,-2 0,-1.2 -0.7,-2.04 -1.44,-2.04 -0.4,0 -0.78,0.2 -1.04,0.61 l -0.14,-0.13 c 0.05,-0.16 0.47,-0.69 1.22,-0.69 1.19,0 2.23,0.97 2.23,2.25 0,1.26 -0.97,2.25 -2.09,2.25 -0.78,0 -1.19,-0.44 -1.39,-0.66 z"
   style="fill:#000000;fill-opacity:1;stroke:#000000;stroke-width:0;stroke-opacity:1"
   id="path1081" />
<path
   inkscape:connector-curvature="0"
   d="m 218.27,661.21 h 1.43 v 0.31 h -1.43 v 1.82 h -0.25 c -0.01,-0.81 -0.31,-1.87 -1.28,-1.91 v -0.22 h 0.84 v -2.74 c 0,-1.23 0.93,-1.34 1.29,-1.34 0.71,0 0.99,0.7 0.99,1.34 v 0.56 h -0.25 v -0.54 c 0,-0.74 -0.3,-1.12 -0.67,-1.12 -0.67,0 -0.67,0.91 -0.67,1.08 z"
   style="fill:#000000;fill-opacity:1;stroke:#000000;stroke-width:0;stroke-opacity:1"
   id="path1083" />
<path
   inkscape:connector-curvature="0"
   d="m 222.19,661.63 -1.4,-0.11 v -0.31 c 0.65,0 0.74,-0.06 0.74,-0.55 v -2.67 c 0,-0.45 -0.11,-0.45 -0.78,-0.45 v -0.31 c 0.32,0.01 0.86,0.04 1.1,0.04 0.35,0 0.69,-0.03 1.03,-0.04 v 0.31 c -0.65,0 -0.69,0.05 -0.69,0.44 z"
   style="fill:#000000;fill-opacity:1;stroke:#000000;stroke-width:0;stroke-opacity:1"
   id="path1085" />
<path
   inkscape:connector-curvature="0"
   d="m 222.23,663.35 v 0.03 l -0.01,0.03 v 0.03 l -0.01,0.03 v 0.02 l -0.01,0.03 -0.01,0.03 -0.01,0.02 -0.01,0.02 -0.01,0.03 -0.01,0.02 -0.02,0.02 -0.01,0.02 -0.02,0.02 -0.02,0.02 -0.01,0.02 -0.02,0.01 -0.02,0.02 -0.02,0.01 -0.02,0.02 -0.02,0.01 -0.03,0.01 -0.02,0.01 -0.02,0.01 -0.03,0.01 -0.02,0.01 -0.03,0.01 h -0.02 l -0.03,0.01 h -0.02 -0.03 -0.02 c -0.31,0 -0.53,-0.27 -0.53,-0.53 0,-0.26 0.22,-0.52 0.53,-0.52 0.28,0 0.53,0.21 0.53,0.52 z"
   style="fill:#000000;fill-opacity:1;stroke:#000000;stroke-width:0;stroke-opacity:1"
   id="path1087" />
<path
   inkscape:connector-curvature="0"
   d="m 227.88,659.36 -0.01,0.12 -0.01,0.12 -0.01,0.11 -0.02,0.12 -0.03,0.11 -0.02,0.11 -0.04,0.11 -0.04,0.1 -0.04,0.1 -0.05,0.1 -0.06,0.1 -0.05,0.09 -0.07,0.1 -0.06,0.08 -0.07,0.09 -0.07,0.08 -0.08,0.08 -0.08,0.07 -0.08,0.07 -0.09,0.06 -0.09,0.07 -0.09,0.05 -0.1,0.05 -0.1,0.05 -0.1,0.04 -0.1,0.04 -0.1,0.03 -0.11,0.03 -0.11,0.02 -0.11,0.01 -0.11,0.01 h -0.11 l -0.01,-0.21 c 0.44,0 0.87,-0.22 1.13,-0.65 0.26,-0.43 0.26,-1 0.26,-1.38 0,-0.36 0,-0.89 -0.22,-1.33 -0.22,-0.45 -0.66,-0.74 -1.16,-0.74 v 0 c -0.43,0 -0.87,0.21 -1.13,0.67 -0.25,0.44 -0.25,1.04 -0.25,1.4 0,0.39 0,0.92 0.23,1.36 0.27,0.46 0.74,0.67 1.14,0.67 l 0.01,0.21 c -1.24,0 -2.21,-1.08 -2.21,-2.32 0,-1.28 1.03,-2.23 2.2,-2.23 1.21,0 2.22,0.97 2.22,2.23 z"
   style="fill:#000000;fill-opacity:1;stroke:#000000;stroke-width:0;stroke-opacity:1"
   id="path1089" />
<path
   inkscape:connector-curvature="0"
   d="m 229.26,660.65 v -2.66 c 0,-0.45 -0.11,-0.45 -0.78,-0.45 v -0.31 c 0.35,0.01 0.86,0.04 1.13,0.04 0.26,0 0.77,-0.03 1.11,-0.04 v 0.31 c -0.67,0 -0.77,0 -0.77,0.45 v 1.83 c 0,1.03 0.7,1.59 1.34,1.59 0.63,0 0.74,-0.54 0.74,-1.11 v -2.31 c 0,-0.45 -0.11,-0.45 -0.78,-0.45 v -0.31 c 0.35,0.01 0.86,0.04 1.13,0.04 0.26,0 0.78,-0.03 1.11,-0.04 v 0.31 c -0.51,0 -0.76,0 -0.77,0.3 v 1.9 c 0,0.85 0,1.16 -0.31,1.52 -0.14,0.17 -0.47,0.37 -1.05,0.37 -0.73,0 -1.2,-0.43 -1.48,-1.05 v 1.05 l -1.4,-0.11 v -0.31 c 0.7,0 0.78,-0.07 0.78,-0.56 z"
   style="fill:#000000;fill-opacity:1;stroke:#000000;stroke-width:0;stroke-opacity:1"
   id="path1091" />
<path
   inkscape:connector-curvature="0"
   d="m 239.1,659.16 h 0.02 l 0.02,-0.01 h 0.03 l 0.03,-0.01 0.04,-0.01 0.03,-0.01 0.04,-0.01 0.04,-0.01 0.04,-0.01 0.04,-0.01 0.05,-0.02 0.04,-0.02 0.05,-0.01 0.04,-0.03 0.04,-0.02 0.05,-0.02 0.04,-0.03 0.04,-0.03 0.04,-0.03 0.04,-0.03 0.04,-0.03 0.04,-0.04 0.03,-0.04 0.03,-0.04 0.03,-0.05 0.01,-0.02 0.02,-0.03 0.01,-0.02 0.01,-0.03 0.01,-0.02 0.01,-0.03 0.01,-0.03 v -0.02 l 0.01,-0.03 v -0.03 l 0.01,-0.03 v -0.04 -0.03 -0.03 c 0,-0.51 -0.34,-0.91 -1.12,-0.91 -0.84,0 -1.2,0.57 -1.39,1.42 -0.03,0.12 -0.04,0.16 -0.14,0.16 -0.13,0 -0.13,-0.07 -0.13,-0.25 v -1.31 c 0,-0.16 0,-0.23 0.11,-0.23 0.05,0 0.06,0.01 0.25,0.19 0.02,0.02 0.02,0.04 0.2,0.23 0.44,-0.41 0.89,-0.42 1.1,-0.42 1.14,0 1.6,0.66 1.6,1.38 0,0.52 -0.3,0.82 -0.42,0.94 -0.33,0.32 -0.71,0.4 -1.13,0.48 -0.56,0.11 -1.23,0.23 -1.23,0.81 0,0.35 0.26,0.76 1.12,0.76 1.09,0 1.14,-0.9 1.16,-1.21 0.01,-0.08 0.1,-0.08 0.12,-0.08 0.13,0 0.13,0.05 0.13,0.23 v 1.01 c 0,0.17 0,0.23 -0.11,0.23 -0.05,0 -0.07,0 -0.2,-0.11 -0.03,-0.04 -0.13,-0.13 -0.17,-0.16 -0.37,0.27 -0.78,0.27 -0.93,0.27 -1.22,0 -1.6,-0.66 -1.6,-1.22 0,-0.34 0.16,-0.62 0.43,-0.84 0.32,-0.26 0.6,-0.32 1.32,-0.46 z"
   style="fill:#000000;fill-opacity:1;stroke:#000000;stroke-width:0;stroke-opacity:1"
   id="path1093" />
<path
   inkscape:connector-curvature="0"
   d="m 242.68,661.21 h 1.42 v 0.31 h -1.42 v 1.82 h -0.25 c -0.01,-0.81 -0.31,-1.87 -1.29,-1.91 v -0.22 h 0.85 v -2.74 c 0,-1.23 0.93,-1.34 1.28,-1.34 0.71,0 0.99,0.7 0.99,1.34 v 0.56 h -0.25 v -0.54 c 0,-0.74 -0.3,-1.12 -0.66,-1.12 -0.67,0 -0.67,0.91 -0.67,1.08 z"
   style="fill:#000000;fill-opacity:1;stroke:#000000;stroke-width:0;stroke-opacity:1"
   id="path1095" />
<path
   inkscape:connector-curvature="0"
   d="m 248.15,657.99 v -0.04 l 0.01,-0.03 v -0.04 l 0.01,-0.04 0.01,-0.04 0.01,-0.03 0.02,-0.04 0.01,-0.03 0.01,-0.04 0.02,-0.03 0.02,-0.04 0.02,-0.03 0.02,-0.03 0.02,-0.04 0.02,-0.03 0.03,-0.03 0.02,-0.02 0.03,-0.03 0.02,-0.03 0.03,-0.02 0.03,-0.02 0.03,-0.03 0.04,-0.02 0.03,-0.01 0.04,-0.02 0.03,-0.01 0.04,-0.02 0.04,-0.01 h 0.04 l 0.04,-0.01 h 0.04 l 0.05,-0.01 c 0.2,0 0.81,0.14 0.81,0.95 v 0.55 h -0.25 v -0.55 c 0,-0.58 -0.25,-0.64 -0.36,-0.64 -0.33,0 -0.37,0.45 -0.37,0.5 v 1.99 c 0,0.41 0,0.8 -0.35,1.17 -0.39,0.39 -0.89,0.54 -1.37,0.54 -0.82,0 -1.51,-0.46 -1.51,-1.12 0,-0.29 0.2,-0.46 0.46,-0.46 0.28,0 0.46,0.19 0.46,0.45 0,0.12 -0.05,0.45 -0.51,0.46 0.27,0.35 0.76,0.46 1.08,0.46 0.49,0 1.06,-0.39 1.06,-1.27 v -0.37 -0.21 -0.99 c 0,-0.95 -0.72,-1.29 -1.17,-1.29 -0.49,0 -0.9,0.35 -0.9,0.85 0,0.54 0.42,1.37 2.07,1.43 v 0 0.21 c -0.51,-0.03 -1.21,-0.06 -1.84,-0.36 -0.75,-0.34 -1,-0.85 -1,-1.29 0,-0.81 0.97,-1.05 1.6,-1.05 0.66,0 1.12,0.39 1.31,0.86 z"
   style="fill:#000000;fill-opacity:1;stroke:#000000;stroke-width:0;stroke-opacity:1"
   id="path1097" />
<path
   inkscape:connector-curvature="0"
   d="m 250.86,658.56 v 0 0.01 0 0.01 0.01 l 0.01,0.01 v 0.01 0.01 0.01 0.01 0.02 0.01 l 0.01,0.01 v 0.02 0.01 l 0.01,0.02 v 0.02 0.01 l 0.01,0.02 0.01,0.02 v 0.02 l 0.01,0.01 0.01,0.02 0.01,0.02 0.01,0.02 0.01,0.02 0.01,0.02 0.01,0.02 0.01,0.02 0.01,0.02 0.02,0.01 0.01,0.02 c 0.39,-0.28 0.8,-0.3 0.99,-0.3 v 0.22 c -0.87,0 -0.87,1 -0.87,1.22 0,0.27 0.01,0.59 0.16,0.84 0.08,0.12 0.31,0.4 0.71,0.4 0.87,0 0.87,-1 0.87,-1.23 0,-0.26 -0.01,-0.58 -0.16,-0.83 -0.08,-0.12 -0.31,-0.4 -0.71,-0.4 v 0 -0.22 c 0.93,0 1.62,0.68 1.62,1.44 0,0.37 -0.16,0.74 -0.41,0.97 0.36,0.34 0.72,0.39 0.9,0.39 0.02,0 0.07,0 0.1,-0.01 -0.11,-0.04 -0.16,-0.15 -0.16,-0.27 0,-0.17 0.13,-0.29 0.28,-0.29 0.1,0 0.29,0.07 0.29,0.3 0,0.17 -0.12,0.48 -0.51,0.48 -0.19,0 -0.63,-0.06 -1.05,-0.46 -0.42,0.33 -0.84,0.36 -1.06,0.36 -0.93,0 -1.61,-0.69 -1.61,-1.46 0,-0.43 0.22,-0.81 0.46,-1.02 -0.13,-0.15 -0.3,-0.48 -0.3,-0.82 0,-0.31 0.13,-0.69 0.43,-0.89 -0.59,-0.16 -0.91,-0.59 -0.91,-0.99 0,-0.72 0.98,-1.26 2.2,-1.26 l 0.01,0.23 c -1.01,0 -1.7,0.5 -1.7,1.03 0,0.46 0.38,0.83 0.82,0.85 h 0.59 c 0.86,0 1.98,0 1.98,-0.85 0,-0.54 -0.71,-1.03 -1.69,-1.03 v 0 l -0.01,-0.23 c 1.18,0 2.21,0.51 2.21,1.28 0,0.35 -0.14,0.85 -0.64,1.13 -0.53,0.28 -1.11,0.28 -1.72,0.28 -0.25,0 -0.68,0 -0.75,0.01 -0.32,0.04 -0.53,0.35 -0.53,0.67 z"
   style="fill:#000000;fill-opacity:1;stroke:#000000;stroke-width:0;stroke-opacity:1"
   id="path1099" />
<path
   inkscape:connector-curvature="0"
   d="m 255.9,659.53 v 0.21 c 0.06,1.48 0.9,1.73 1.24,1.73 1.03,0 1.13,-1.34 1.13,-1.73 h -2.37 v -0.21 h 2.78 c 0.22,0 0.25,0 0.25,0.21 0,0.98 -0.54,1.94 -1.79,1.94 -1.15,0 -2.07,-1.02 -2.07,-2.26 0,-1.33 1.04,-2.29 2.19,-2.29 1.22,0 1.67,1.1 1.67,1.29 0,0.1 -0.08,0.12 -0.13,0.12 -0.09,0 -0.11,-0.06 -0.13,-0.14 -0.35,-1.03 -1.25,-1.03 -1.35,-1.03 -0.5,0 -0.9,0.3 -1.12,0.67 -0.3,0.48 -0.3,1.13 -0.3,1.49 z"
   style="fill:#000000;fill-opacity:1;stroke:#000000;stroke-width:0;stroke-opacity:1"
   id="path1101" />
</g>
    <g
       transform="matrix(0.3,0,0,0.3,0.6135674,22.5981)"
       ns0:version="1.0.1"
       ns0:texconverter="pdflatex"
       ns0:pdfconverter="inkscape"
       ns0:text="$\\Upsilon_A = \\sigma_A \\oplus \\tilde{X}_A$"
       ns0:preamble="C:\\Users\\mt45\\AppData\\Roaming\\inkscape\\extensions\\textext\\default_packages.tex"
       ns0:scale="0.225000000001"
       ns0:alignment="middle center"
       ns0:inkscapeversion="0.92.4"
       ns0:jacobian_sqrt="0.3"
       style="fill-opacity:1;stroke:#000000;stroke-width:0;stroke-opacity:1"
       id="g256">
      <defs
         style="fill-opacity:1;stroke:#000000;stroke-width:0;stroke-opacity:1"
         id="id-d9129b48-55c9-4662-b9e3-c64c86705a80">
        <g
           id="id-cfe0541a-8c4d-4d81-a6d9-1856b240d43e"
           style="fill-opacity:1;stroke:#000000;stroke-width:0;stroke-opacity:1">
          <symbol
             id="id-ad45fa04-f4bf-476b-a4b5-3db851819603"
             overflow="visible"
             style="fill-opacity:1;stroke:#000000;stroke-width:0;stroke-opacity:1">
            <path
               id="id-d00b948f-49e3-46ae-872b-ea401139e220"
               d=""
               style="fill-opacity:1;stroke:#000000;stroke-width:0;stroke-opacity:1" />
          </symbol>
          <symbol
             id="id-79adde73-4dfb-4a43-866a-1ce6f9ef5218"
             overflow="visible"
             style="fill-opacity:1;stroke:#000000;stroke-width:0;stroke-opacity:1">
            <path
               id="id-15a83ca9-eebc-48dd-9b47-4d2e69ae97bd"
               d="m 4.3125,-3.5 c 0,-0.953125 0.265625,-2.765625 1.578125,-2.765625 0.3125,0 0.921875,0.15625 0.984375,0.765625 0.015625,0.09375 0.015625,0.171875 0.15625,0.171875 0.15625,0 0.15625,-0.09375 0.15625,-0.171875 0,-0.59375 -0.40625,-1.53125 -1.3125,-1.53125 -1.03125,0 -1.765625,0.90625 -2,2.421875 C 3.796875,-5.03125 3.453125,-7.03125 1.859375,-7.03125 c -0.90625,0 -1.296875,0.9375 -1.296875,1.53125 0,0.078125 0,0.171875 0.15625,0.171875 0.140625,0 0.140625,-0.078125 0.15625,-0.140625 0.078125,-0.796875 0.921875,-0.796875 0.984375,-0.796875 1.375,0 1.5625,1.96875 1.5625,2.765625 v 2.71875 c 0,0.328125 0,0.46875 -0.9375,0.46875 H 2.15625 V 0 c 0.359375,-0.03125 1.296875,-0.03125 1.71875,-0.03125 0.40625,0 1.359375,0 1.71875,0.03125 V -0.3125 H 5.265625 C 4.3125,-0.3125 4.3125,-0.4375 4.3125,-0.78125 Z m 0,0"
               style="fill-opacity:1;stroke:#000000;stroke-width:0;stroke-opacity:1" />
          </symbol>
          <symbol
             id="id-9205c860-baee-4667-a71b-f5adcd5d3b9f"
             overflow="visible"
             style="fill-opacity:1;stroke:#000000;stroke-width:0;stroke-opacity:1">
            <path
               id="id-16c5172c-d2b8-49b3-8319-71cafe506369"
               d="m 6.84375,-3.265625 c 0.15625,0 0.34375,0 0.34375,-0.1875 C 7.1875,-3.65625 7,-3.65625 6.859375,-3.65625 h -5.96875 c -0.140625,0 -0.328125,0 -0.328125,0.203125 0,0.1875 0.1875,0.1875 0.328125,0.1875 z m 0.015625,1.9375 c 0.140625,0 0.328125,0 0.328125,-0.203125 0,-0.1875 -0.1875,-0.1875 -0.34375,-0.1875 H 0.890625 c -0.140625,0 -0.328125,0 -0.328125,0.1875 0,0.203125 0.1875,0.203125 0.328125,0.203125 z m 0,0"
               style="fill-opacity:1;stroke:#000000;stroke-width:0;stroke-opacity:1" />
          </symbol>
          <symbol
             id="id-29f34257-12d6-4347-b1de-bd05d25746e3"
             overflow="visible"
             style="fill-opacity:1;stroke:#000000;stroke-width:0;stroke-opacity:1">
            <path
               id="id-77b6d058-0259-46ed-abca-5c38d940f9ff"
               d="M 4.140625,-6.515625 3.984375,-6.65625 c 0,0 -0.375,0.46875 -0.8125,0.46875 -0.234375,0 -0.484375,-0.140625 -0.65625,-0.25 C 2.25,-6.59375 2.078125,-6.65625 1.90625,-6.65625 c -0.375,0 -0.578125,0.21875 -1.078125,0.78125 l 0.15625,0.140625 c 0,0 0.375,-0.46875 0.8125,-0.46875 0.234375,0 0.484375,0.140625 0.65625,0.234375 0.265625,0.171875 0.453125,0.234375 0.625,0.234375 0.375,0 0.5625,-0.21875 1.0625,-0.78125 z m 0,0"
               style="fill-opacity:1;stroke:#000000;stroke-width:0;stroke-opacity:1" />
          </symbol>
          <symbol
             id="id-c9ce6eb4-52e9-42bb-b83b-a2090b8798a8"
             overflow="visible"
             style="fill-opacity:1;stroke:#000000;stroke-width:0;stroke-opacity:1">
            <path
               id="id-ffbb20ee-9372-410f-90e1-313c95422cfe"
               d=""
               style="fill-opacity:1;stroke:#000000;stroke-width:0;stroke-opacity:1" />
          </symbol>
          <symbol
             id="id-54ac4a1c-e221-466e-b3dc-ebc5c6bb9bdc"
             overflow="visible"
             style="fill-opacity:1;stroke:#000000;stroke-width:0;stroke-opacity:1">
            <path
               id="id-0cc725e3-a085-4160-9ecf-2f18b290e058"
               d="m 1.4375,-0.84375 c -0.25,0.390625 -0.46875,0.5625 -0.875,0.59375 -0.078125,0 -0.171875,0 -0.171875,0.140625 C 0.390625,-0.03125 0.453125,0 0.5,0 0.671875,0 0.90625,-0.03125 1.09375,-0.03125 1.3125,-0.03125 1.609375,0 1.8125,0 1.84375,0 1.953125,0 1.953125,-0.15625 1.953125,-0.25 1.859375,-0.25 1.828125,-0.25 1.78125,-0.265625 1.53125,-0.265625 1.53125,-0.453125 c 0,-0.09375 0.0625,-0.203125 0.09375,-0.265625 l 0.5625,-0.875 h 2 L 4.34375,-0.4375 C 4.328125,-0.359375 4.28125,-0.25 3.875,-0.25 c -0.09375,0 -0.1875,0 -0.1875,0.15625 C 3.6875,-0.0625 3.703125,0 3.796875,0 4,0 4.5,-0.03125 4.703125,-0.03125 c 0.125,0 0.28125,0.015625 0.40625,0.015625 C 5.234375,-0.015625 5.375,0 5.5,0 5.59375,0 5.640625,-0.0625 5.640625,-0.140625 5.640625,-0.25 5.5625,-0.25 5.453125,-0.25 c -0.40625,0 -0.421875,-0.0625 -0.4375,-0.21875 l -0.625,-4.3125 C 4.375,-4.921875 4.359375,-4.96875 4.234375,-4.96875 4.09375,-4.96875 4.0625,-4.90625 4,-4.8125 Z m 0.921875,-1 L 3.8125,-4.125 4.140625,-1.84375 Z m 0,0"
               style="fill-opacity:1;stroke:#000000;stroke-width:0;stroke-opacity:1" />
          </symbol>
          <symbol
             id="id-8060268a-c4b0-4682-af12-dfc65b729385"
             overflow="visible"
             style="fill-opacity:1;stroke:#000000;stroke-width:0;stroke-opacity:1">
            <path
               id="id-5cd41ff9-b230-4a8a-87dd-364748d0d399"
               d=""
               style="fill-opacity:1;stroke:#000000;stroke-width:0;stroke-opacity:1" />
          </symbol>
          <symbol
             id="id-394b4a28-ce4a-40b3-8adc-4c9604c9a224"
             overflow="visible"
             style="fill-opacity:1;stroke:#000000;stroke-width:0;stroke-opacity:1">
            <path
               id="id-64b74fa3-8138-4da2-a629-37a397f4d2c7"
               d="m 5.15625,-3.71875 c 0.140625,0 0.5,0 0.5,-0.34375 0,-0.234375 -0.21875,-0.234375 -0.390625,-0.234375 h -2.28125 c -1.5,0 -2.609375,1.640625 -2.609375,2.828125 0,0.875 0.59375,1.578125 1.5,1.578125 1.171875,0 2.5,-1.203125 2.5,-2.734375 0,-0.171875 0,-0.65625 -0.3125,-1.09375 z M 1.890625,-0.109375 C 1.390625,-0.109375 1,-0.46875 1,-1.1875 c 0,-0.296875 0.109375,-1.109375 0.46875,-1.703125 0.421875,-0.6875 1.015625,-0.828125 1.359375,-0.828125 0.828125,0 0.90625,0.65625 0.90625,0.96875 0,0.46875 -0.203125,1.28125 -0.53125,1.796875 -0.390625,0.578125 -0.9375,0.84375 -1.3125,0.84375 z m 0,0"
               style="fill-opacity:1;stroke:#000000;stroke-width:0;stroke-opacity:1" />
          </symbol>
          <symbol
             id="id-6bd007d5-7596-4734-bc20-58ce1b6285b0"
             overflow="visible"
             style="fill-opacity:1;stroke:#000000;stroke-width:0;stroke-opacity:1">
            <path
               id="id-f0b4c13f-480b-447b-8453-7aaa2895e770"
               d="M 4.828125,-4.09375 4,-6.078125 c -0.03125,-0.078125 -0.046875,-0.125 -0.046875,-0.125 0,-0.0625 0.15625,-0.25 0.578125,-0.296875 0.109375,-0.015625 0.203125,-0.015625 0.203125,-0.1875 0,-0.125 -0.125,-0.125 -0.15625,-0.125 -0.40625,0 -0.828125,0.03125 -1.25,0.03125 -0.25,0 -0.859375,-0.03125 -1.109375,-0.03125 -0.0625,0 -0.1875,0 -0.1875,0.203125 C 2.03125,-6.5 2.140625,-6.5 2.265625,-6.5 c 0.59375,0 0.65625,0.09375 0.75,0.3125 l 1.171875,2.78125 -2.109375,2.265625 -0.125,0.109375 C 1.46875,-0.5 1,-0.34375 0.484375,-0.3125 c -0.125,0.015625 -0.21875,0.015625 -0.21875,0.203125 0,0.015625 0,0.109375 0.140625,0.109375 0.296875,0 0.625,-0.03125 0.921875,-0.03125 C 1.703125,-0.03125 2.09375,0 2.453125,0 2.515625,0 2.625,0 2.625,-0.203125 2.625,-0.296875 2.53125,-0.3125 2.515625,-0.3125 c -0.09375,0 -0.40625,-0.03125 -0.40625,-0.3125 0,-0.15625 0.15625,-0.3125 0.265625,-0.4375 L 3.40625,-2.140625 4.296875,-3.125 l 1,2.390625 c 0.046875,0.109375 0.0625,0.109375 0.0625,0.140625 0,0.078125 -0.203125,0.25 -0.578125,0.28125 C 4.671875,-0.296875 4.578125,-0.296875 4.578125,-0.125 4.578125,0 4.6875,0 4.71875,0 5,0 5.703125,-0.03125 5.984375,-0.03125 6.234375,-0.03125 6.84375,0 7.09375,0 c 0.0625,0 0.1875,0 0.1875,-0.1875 0,-0.125 -0.109375,-0.125 -0.1875,-0.125 -0.65625,0 -0.6875,-0.03125 -0.859375,-0.4375 C 5.859375,-1.671875 5.1875,-3.234375 4.953125,-3.828125 5.625,-4.53125 6.671875,-5.71875 7,-5.984375 7.28125,-6.234375 7.671875,-6.46875 8.265625,-6.5 c 0.125,-0.015625 0.21875,-0.015625 0.21875,-0.203125 0,0 0,-0.109375 -0.125,-0.109375 -0.296875,0 -0.640625,0.03125 -0.9375,0.03125 -0.375,0 -0.75,-0.03125 -1.109375,-0.03125 -0.0625,0 -0.1875,0 -0.1875,0.203125 0,0.0625 0.046875,0.09375 0.109375,0.109375 0.09375,0.015625 0.40625,0.03125 0.40625,0.3125 0,0.140625 -0.109375,0.265625 -0.1875,0.359375 z m 0,0"
               style="fill-opacity:1;stroke:#000000;stroke-width:0;stroke-opacity:1" />
          </symbol>
          <symbol
             id="id-0e222fc3-e186-42f6-a871-49a6e75f54a6"
             overflow="visible"
             style="fill-opacity:1;stroke:#000000;stroke-width:0;stroke-opacity:1">
            <path
               id="id-e035b695-b449-489e-9fc3-29574ca3fdad"
               d=""
               style="fill-opacity:1;stroke:#000000;stroke-width:0;stroke-opacity:1" />
          </symbol>
          <symbol
             id="id-ff61ae8c-7ffd-461a-8003-fc25d3e2ae80"
             overflow="visible"
             style="fill-opacity:1;stroke:#000000;stroke-width:0;stroke-opacity:1">
            <path
               id="id-6b8fcbdb-129f-4837-96d1-cd4ccb44ac8a"
               d="m 7.203125,-2.5 c 0,-1.828125 -1.5,-3.3125 -3.328125,-3.3125 -1.84375,0 -3.328125,1.5 -3.328125,3.3125 0,1.84375 1.5,3.328125 3.328125,3.328125 1.84375,0 3.328125,-1.5 3.328125,-3.328125 z M 0.796875,-2.625 C 0.890625,-4.296875 2.1875,-5.484375 3.75,-5.5625 V -2.625 Z M 4,-5.5625 c 1.5625,0.078125 2.84375,1.28125 2.953125,2.9375 H 4 Z M 3.75,0.578125 C 2.203125,0.5 0.890625,-0.671875 0.796875,-2.375 H 3.75 Z M 6.953125,-2.375 C 6.84375,-0.671875 5.53125,0.5 4,0.578125 V -2.375 Z m 0,0"
               style="fill-opacity:1;stroke:#000000;stroke-width:0;stroke-opacity:1" />
          </symbol>
        </g>
      </defs>
      <g
         transform="translate(-149.275,-125.59)"
         id="id-41c8a0d6-eff2-4599-8e64-47dd867a5ff0"
         style="fill-opacity:1;stroke:#000000;stroke-width:0;stroke-opacity:1">
        <g
           id="id-fda6b77b-62cc-4585-808f-2f9b6f9e5227"
           style="fill:#000000;fill-opacity:1;stroke:#000000;stroke-width:0;stroke-opacity:1">
          <g
             transform="translate(148.712,134.765)"
             style="fill-opacity:1;stroke:#000000;stroke-width:0;stroke-opacity:1"
             id="g220">
            <path
               id="id-da3f1c3e-0e96-4fee-8e21-281b63d1d8fb"
               d="m 4.3125,-3.5 c 0,-0.953125 0.265625,-2.765625 1.578125,-2.765625 0.3125,0 0.921875,0.15625 0.984375,0.765625 0.015625,0.09375 0.015625,0.171875 0.15625,0.171875 0.15625,0 0.15625,-0.09375 0.15625,-0.171875 0,-0.59375 -0.40625,-1.53125 -1.3125,-1.53125 -1.03125,0 -1.765625,0.90625 -2,2.421875 C 3.796875,-5.03125 3.453125,-7.03125 1.859375,-7.03125 c -0.90625,0 -1.296875,0.9375 -1.296875,1.53125 0,0.078125 0,0.171875 0.15625,0.171875 0.140625,0 0.140625,-0.078125 0.15625,-0.140625 0.078125,-0.796875 0.921875,-0.796875 0.984375,-0.796875 1.375,0 1.5625,1.96875 1.5625,2.765625 v 2.71875 c 0,0.328125 0,0.46875 -0.9375,0.46875 H 2.15625 V 0 c 0.359375,-0.03125 1.296875,-0.03125 1.71875,-0.03125 0.40625,0 1.359375,0 1.71875,0.03125 V -0.3125 H 5.265625 C 4.3125,-0.3125 4.3125,-0.4375 4.3125,-0.78125 Z m 0,0"
               style="fill-opacity:1;stroke:#000000;stroke-width:0;stroke-opacity:1" />
          </g>
        </g>
        <g
           id="id-4d3a5f7e-204d-4b5a-80ad-e5743740f35a"
           style="fill:#000000;fill-opacity:1;stroke:#000000;stroke-width:0;stroke-opacity:1">
          <g
             transform="translate(156.461,136.259)"
             style="fill-opacity:1;stroke:#000000;stroke-width:0;stroke-opacity:1"
             id="g224">
            <path
               id="id-1bebfaa8-e5f0-4d2e-98e7-502761992bb5"
               d="m 1.4375,-0.84375 c -0.25,0.390625 -0.46875,0.5625 -0.875,0.59375 -0.078125,0 -0.171875,0 -0.171875,0.140625 C 0.390625,-0.03125 0.453125,0 0.5,0 0.671875,0 0.90625,-0.03125 1.09375,-0.03125 1.3125,-0.03125 1.609375,0 1.8125,0 1.84375,0 1.953125,0 1.953125,-0.15625 1.953125,-0.25 1.859375,-0.25 1.828125,-0.25 1.78125,-0.265625 1.53125,-0.265625 1.53125,-0.453125 c 0,-0.09375 0.0625,-0.203125 0.09375,-0.265625 l 0.5625,-0.875 h 2 L 4.34375,-0.4375 C 4.328125,-0.359375 4.28125,-0.25 3.875,-0.25 c -0.09375,0 -0.1875,0 -0.1875,0.15625 C 3.6875,-0.0625 3.703125,0 3.796875,0 4,0 4.5,-0.03125 4.703125,-0.03125 c 0.125,0 0.28125,0.015625 0.40625,0.015625 C 5.234375,-0.015625 5.375,0 5.5,0 5.59375,0 5.640625,-0.0625 5.640625,-0.140625 5.640625,-0.25 5.5625,-0.25 5.453125,-0.25 c -0.40625,0 -0.421875,-0.0625 -0.4375,-0.21875 l -0.625,-4.3125 C 4.375,-4.921875 4.359375,-4.96875 4.234375,-4.96875 4.09375,-4.96875 4.0625,-4.90625 4,-4.8125 Z m 0.921875,-1 L 3.8125,-4.125 4.140625,-1.84375 Z m 0,0"
               style="fill-opacity:1;stroke:#000000;stroke-width:0;stroke-opacity:1" />
          </g>
        </g>
        <g
           id="id-6f618e9d-aaa3-4f80-a165-2a9581a6315a"
           style="fill:#000000;fill-opacity:1;stroke:#000000;stroke-width:0;stroke-opacity:1">
          <g
             transform="translate(165.718,134.765)"
             style="fill-opacity:1;stroke:#000000;stroke-width:0;stroke-opacity:1"
             id="g228">
            <path
               id="id-892662c8-166a-45c5-baf0-92398d12453b"
               d="m 6.84375,-3.265625 c 0.15625,0 0.34375,0 0.34375,-0.1875 C 7.1875,-3.65625 7,-3.65625 6.859375,-3.65625 h -5.96875 c -0.140625,0 -0.328125,0 -0.328125,0.203125 0,0.1875 0.1875,0.1875 0.328125,0.1875 z m 0.015625,1.9375 c 0.140625,0 0.328125,0 0.328125,-0.203125 0,-0.1875 -0.1875,-0.1875 -0.34375,-0.1875 H 0.890625 c -0.140625,0 -0.328125,0 -0.328125,0.1875 0,0.203125 0.1875,0.203125 0.328125,0.203125 z m 0,0"
               style="fill-opacity:1;stroke:#000000;stroke-width:0;stroke-opacity:1" />
          </g>
        </g>
        <g
           id="id-d4b99a43-bbfb-4ef2-89aa-94e5a1a5d7c4"
           style="fill:#000000;fill-opacity:1;stroke:#000000;stroke-width:0;stroke-opacity:1">
          <g
             transform="translate(176.234,134.765)"
             style="fill-opacity:1;stroke:#000000;stroke-width:0;stroke-opacity:1"
             id="g232">
            <path
               id="id-dd1d6407-b2c4-45b8-aa97-e0484266f7c4"
               d="m 5.15625,-3.71875 c 0.140625,0 0.5,0 0.5,-0.34375 0,-0.234375 -0.21875,-0.234375 -0.390625,-0.234375 h -2.28125 c -1.5,0 -2.609375,1.640625 -2.609375,2.828125 0,0.875 0.59375,1.578125 1.5,1.578125 1.171875,0 2.5,-1.203125 2.5,-2.734375 0,-0.171875 0,-0.65625 -0.3125,-1.09375 z M 1.890625,-0.109375 C 1.390625,-0.109375 1,-0.46875 1,-1.1875 c 0,-0.296875 0.109375,-1.109375 0.46875,-1.703125 0.421875,-0.6875 1.015625,-0.828125 1.359375,-0.828125 0.828125,0 0.90625,0.65625 0.90625,0.96875 0,0.46875 -0.203125,1.28125 -0.53125,1.796875 -0.390625,0.578125 -0.9375,0.84375 -1.3125,0.84375 z m 0,0"
               style="fill-opacity:1;stroke:#000000;stroke-width:0;stroke-opacity:1" />
          </g>
        </g>
        <g
           id="id-4707adb8-c18f-41c1-9b13-d9a8177aa64d"
           style="fill:#000000;fill-opacity:1;stroke:#000000;stroke-width:0;stroke-opacity:1">
          <g
             transform="translate(181.927,136.259)"
             style="fill-opacity:1;stroke:#000000;stroke-width:0;stroke-opacity:1"
             id="g236">
            <path
               id="id-9e382823-e72e-44b1-b8ce-6502869879be"
               d="m 1.4375,-0.84375 c -0.25,0.390625 -0.46875,0.5625 -0.875,0.59375 -0.078125,0 -0.171875,0 -0.171875,0.140625 C 0.390625,-0.03125 0.453125,0 0.5,0 0.671875,0 0.90625,-0.03125 1.09375,-0.03125 1.3125,-0.03125 1.609375,0 1.8125,0 1.84375,0 1.953125,0 1.953125,-0.15625 1.953125,-0.25 1.859375,-0.25 1.828125,-0.25 1.78125,-0.265625 1.53125,-0.265625 1.53125,-0.453125 c 0,-0.09375 0.0625,-0.203125 0.09375,-0.265625 l 0.5625,-0.875 h 2 L 4.34375,-0.4375 C 4.328125,-0.359375 4.28125,-0.25 3.875,-0.25 c -0.09375,0 -0.1875,0 -0.1875,0.15625 C 3.6875,-0.0625 3.703125,0 3.796875,0 4,0 4.5,-0.03125 4.703125,-0.03125 c 0.125,0 0.28125,0.015625 0.40625,0.015625 C 5.234375,-0.015625 5.375,0 5.5,0 5.59375,0 5.640625,-0.0625 5.640625,-0.140625 5.640625,-0.25 5.5625,-0.25 5.453125,-0.25 c -0.40625,0 -0.421875,-0.0625 -0.4375,-0.21875 l -0.625,-4.3125 C 4.375,-4.921875 4.359375,-4.96875 4.234375,-4.96875 4.09375,-4.96875 4.0625,-4.90625 4,-4.8125 Z m 0.921875,-1 L 3.8125,-4.125 4.140625,-1.84375 Z m 0,0"
               style="fill-opacity:1;stroke:#000000;stroke-width:0;stroke-opacity:1" />
          </g>
        </g>
        <g
           id="id-db06cec5-9aad-4de3-89dd-9ae82c793a26"
           style="fill:#000000;fill-opacity:1;stroke:#000000;stroke-width:0;stroke-opacity:1">
          <g
             transform="translate(190.63,134.765)"
             style="fill-opacity:1;stroke:#000000;stroke-width:0;stroke-opacity:1"
             id="g240">
            <path
               id="id-1227e473-27ec-4831-b620-bafce212aafd"
               d="m 7.203125,-2.5 c 0,-1.828125 -1.5,-3.3125 -3.328125,-3.3125 -1.84375,0 -3.328125,1.5 -3.328125,3.3125 0,1.84375 1.5,3.328125 3.328125,3.328125 1.84375,0 3.328125,-1.5 3.328125,-3.328125 z M 0.796875,-2.625 C 0.890625,-4.296875 2.1875,-5.484375 3.75,-5.5625 V -2.625 Z M 4,-5.5625 c 1.5625,0.078125 2.84375,1.28125 2.953125,2.9375 H 4 Z M 3.75,0.578125 C 2.203125,0.5 0.890625,-0.671875 0.796875,-2.375 H 3.75 Z M 6.953125,-2.375 C 6.84375,-0.671875 5.53125,0.5 4,0.578125 V -2.375 Z m 0,0"
               style="fill-opacity:1;stroke:#000000;stroke-width:0;stroke-opacity:1" />
          </g>
        </g>
        <g
           id="id-09b1fe3e-4dc8-491c-9ed7-506eb7be7052"
           style="fill:#000000;fill-opacity:1;stroke:#000000;stroke-width:0;stroke-opacity:1">
          <g
             transform="translate(203.45,132.246)"
             style="fill-opacity:1;stroke:#000000;stroke-width:0;stroke-opacity:1"
             id="g244">
            <path
               id="id-3a7cf629-f142-4465-990a-43df88e9296c"
               d="M 4.140625,-6.515625 3.984375,-6.65625 c 0,0 -0.375,0.46875 -0.8125,0.46875 -0.234375,0 -0.484375,-0.140625 -0.65625,-0.25 C 2.25,-6.59375 2.078125,-6.65625 1.90625,-6.65625 c -0.375,0 -0.578125,0.21875 -1.078125,0.78125 l 0.15625,0.140625 c 0,0 0.375,-0.46875 0.8125,-0.46875 0.234375,0 0.484375,0.140625 0.65625,0.234375 0.265625,0.171875 0.453125,0.234375 0.625,0.234375 0.375,0 0.5625,-0.21875 1.0625,-0.78125 z m 0,0"
               style="fill-opacity:1;stroke:#000000;stroke-width:0;stroke-opacity:1" />
          </g>
        </g>
        <g
           id="id-053137a5-99be-4453-84c0-76d359cc47ca"
           style="fill:#000000;fill-opacity:1;stroke:#000000;stroke-width:0;stroke-opacity:1">
          <g
             transform="translate(200.593,134.765)"
             style="fill-opacity:1;stroke:#000000;stroke-width:0;stroke-opacity:1"
             id="g248">
            <path
               id="id-f4628800-a75b-4f4d-86ce-d1efe60c0173"
               d="M 4.828125,-4.09375 4,-6.078125 c -0.03125,-0.078125 -0.046875,-0.125 -0.046875,-0.125 0,-0.0625 0.15625,-0.25 0.578125,-0.296875 0.109375,-0.015625 0.203125,-0.015625 0.203125,-0.1875 0,-0.125 -0.125,-0.125 -0.15625,-0.125 -0.40625,0 -0.828125,0.03125 -1.25,0.03125 -0.25,0 -0.859375,-0.03125 -1.109375,-0.03125 -0.0625,0 -0.1875,0 -0.1875,0.203125 C 2.03125,-6.5 2.140625,-6.5 2.265625,-6.5 c 0.59375,0 0.65625,0.09375 0.75,0.3125 l 1.171875,2.78125 -2.109375,2.265625 -0.125,0.109375 C 1.46875,-0.5 1,-0.34375 0.484375,-0.3125 c -0.125,0.015625 -0.21875,0.015625 -0.21875,0.203125 0,0.015625 0,0.109375 0.140625,0.109375 0.296875,0 0.625,-0.03125 0.921875,-0.03125 C 1.703125,-0.03125 2.09375,0 2.453125,0 2.515625,0 2.625,0 2.625,-0.203125 2.625,-0.296875 2.53125,-0.3125 2.515625,-0.3125 c -0.09375,0 -0.40625,-0.03125 -0.40625,-0.3125 0,-0.15625 0.15625,-0.3125 0.265625,-0.4375 L 3.40625,-2.140625 4.296875,-3.125 l 1,2.390625 c 0.046875,0.109375 0.0625,0.109375 0.0625,0.140625 0,0.078125 -0.203125,0.25 -0.578125,0.28125 C 4.671875,-0.296875 4.578125,-0.296875 4.578125,-0.125 4.578125,0 4.6875,0 4.71875,0 5,0 5.703125,-0.03125 5.984375,-0.03125 6.234375,-0.03125 6.84375,0 7.09375,0 c 0.0625,0 0.1875,0 0.1875,-0.1875 0,-0.125 -0.109375,-0.125 -0.1875,-0.125 -0.65625,0 -0.6875,-0.03125 -0.859375,-0.4375 C 5.859375,-1.671875 5.1875,-3.234375 4.953125,-3.828125 5.625,-4.53125 6.671875,-5.71875 7,-5.984375 7.28125,-6.234375 7.671875,-6.46875 8.265625,-6.5 c 0.125,-0.015625 0.21875,-0.015625 0.21875,-0.203125 0,0 0,-0.109375 -0.125,-0.109375 -0.296875,0 -0.640625,0.03125 -0.9375,0.03125 -0.375,0 -0.75,-0.03125 -1.109375,-0.03125 -0.0625,0 -0.1875,0 -0.1875,0.203125 0,0.0625 0.046875,0.09375 0.109375,0.109375 0.09375,0.015625 0.40625,0.03125 0.40625,0.3125 0,0.140625 -0.109375,0.265625 -0.1875,0.359375 z m 0,0"
               style="fill-opacity:1;stroke:#000000;stroke-width:0;stroke-opacity:1" />
          </g>
        </g>
        <g
           id="id-e6a3e854-d118-442a-9c0e-26440e243c9c"
           style="fill:#000000;fill-opacity:1;stroke:#000000;stroke-width:0;stroke-opacity:1">
          <g
             transform="translate(208.847,136.259)"
             style="fill-opacity:1;stroke:#000000;stroke-width:0;stroke-opacity:1"
             id="g252">
            <path
               id="id-b991c22e-9a30-4fcc-a359-2a83c07e791c"
               d="m 1.4375,-0.84375 c -0.25,0.390625 -0.46875,0.5625 -0.875,0.59375 -0.078125,0 -0.171875,0 -0.171875,0.140625 C 0.390625,-0.03125 0.453125,0 0.5,0 0.671875,0 0.90625,-0.03125 1.09375,-0.03125 1.3125,-0.03125 1.609375,0 1.8125,0 1.84375,0 1.953125,0 1.953125,-0.15625 1.953125,-0.25 1.859375,-0.25 1.828125,-0.25 1.78125,-0.265625 1.53125,-0.265625 1.53125,-0.453125 c 0,-0.09375 0.0625,-0.203125 0.09375,-0.265625 l 0.5625,-0.875 h 2 L 4.34375,-0.4375 C 4.328125,-0.359375 4.28125,-0.25 3.875,-0.25 c -0.09375,0 -0.1875,0 -0.1875,0.15625 C 3.6875,-0.0625 3.703125,0 3.796875,0 4,0 4.5,-0.03125 4.703125,-0.03125 c 0.125,0 0.28125,0.015625 0.40625,0.015625 C 5.234375,-0.015625 5.375,0 5.5,0 5.59375,0 5.640625,-0.0625 5.640625,-0.140625 5.640625,-0.25 5.5625,-0.25 5.453125,-0.25 c -0.40625,0 -0.421875,-0.0625 -0.4375,-0.21875 l -0.625,-4.3125 C 4.375,-4.921875 4.359375,-4.96875 4.234375,-4.96875 4.09375,-4.96875 4.0625,-4.90625 4,-4.8125 Z m 0.921875,-1 L 3.8125,-4.125 4.140625,-1.84375 Z m 0,0"
               style="fill-opacity:1;stroke:#000000;stroke-width:0;stroke-opacity:1" />
          </g>
        </g>
      </g>
    </g>
    <g
       transform="matrix(0.3 0 0 0.3 24.9321 -7.23929)"
       ns0:version="1.0.1"
       ns0:texconverter="pdflatex"
       ns0:pdfconverter="inkscape"
       ns0:text="$\\Upsilon_A$"
       ns0:preamble="C:\\Users\\mt45\\AppData\\Roaming\\inkscape\\extensions\\textext\\default_packages.tex"
       ns0:scale="0.225000000001"
       ns0:alignment="middle center"
       ns0:inkscapeversion="1.0"
       ns0:jacobian_sqrt="0.3"
       style="fill-opacity:1;stroke:#000000;stroke-opacity:1;stroke-width:0"
       id="g484">
      <defs
         id="id-3d284eeb-4ef1-4bb1-ae0f-f40459e8b81b"
         style="fill-opacity:1;stroke:#000000;stroke-opacity:1;stroke-width:0">
        <g
           id="id-f433de6c-3750-44fd-ad1a-5fba4a7f022d"
           style="fill-opacity:1;stroke:#000000;stroke-opacity:1;stroke-width:0">
          <symbol
             id="id-0f703ef4-b597-432d-95a4-4519dbe40fde"
             overflow="visible"
             style="fill-opacity:1;stroke:#000000;stroke-opacity:1;stroke-width:0">
            <path
               id="id-72763a82-a8b0-4747-8fe0-3b1a9f10722b"
               d=""
               style="stroke:#000000;fill-opacity:1;stroke-opacity:1;stroke-width:0" />
          </symbol>
          <symbol
             id="id-7a32e533-4677-4fc2-ad32-2ada9ca1569c"
             overflow="visible"
             style="fill-opacity:1;stroke:#000000;stroke-opacity:1;stroke-width:0">
            <path
               id="id-0b394b5b-5bfc-4767-8e17-757bfa9d5371"
               d="m 4.3125,-3.5 c 0,-0.953125 0.265625,-2.765625 1.578125,-2.765625 0.3125,0 0.921875,0.15625 0.984375,0.765625 0.015625,0.09375 0.015625,0.171875 0.15625,0.171875 0.15625,0 0.15625,-0.09375 0.15625,-0.171875 0,-0.59375 -0.40625,-1.53125 -1.3125,-1.53125 -1.03125,0 -1.765625,0.90625 -2,2.421875 C 3.796875,-5.03125 3.453125,-7.03125 1.859375,-7.03125 c -0.90625,0 -1.296875,0.9375 -1.296875,1.53125 0,0.078125 0,0.171875 0.15625,0.171875 0.140625,0 0.140625,-0.078125 0.15625,-0.140625 0.078125,-0.796875 0.921875,-0.796875 0.984375,-0.796875 1.375,0 1.5625,1.96875 1.5625,2.765625 v 2.71875 c 0,0.328125 0,0.46875 -0.9375,0.46875 H 2.15625 V 0 c 0.359375,-0.03125 1.296875,-0.03125 1.71875,-0.03125 0.40625,0 1.359375,0 1.71875,0.03125 V -0.3125 H 5.265625 C 4.3125,-0.3125 4.3125,-0.4375 4.3125,-0.78125 Z m 0,0"
               style="stroke:#000000;fill-opacity:1;stroke-opacity:1;stroke-width:0" />
          </symbol>
          <symbol
             id="id-dbfaa6cf-7c90-4cc2-b9e7-1034606889b7"
             overflow="visible"
             style="fill-opacity:1;stroke:#000000;stroke-opacity:1;stroke-width:0">
            <path
               id="id-abab33b8-4078-49ab-912f-f5d3795b657f"
               d=""
               style="stroke:#000000;fill-opacity:1;stroke-opacity:1;stroke-width:0" />
          </symbol>
          <symbol
             id="id-3a2c0e56-ff33-4496-9deb-4aefc0ea846c"
             overflow="visible"
             style="fill-opacity:1;stroke:#000000;stroke-opacity:1;stroke-width:0">
            <path
               id="id-3d8327be-a85f-4343-841d-a7e11dcfcead"
               d="m 1.4375,-0.84375 c -0.25,0.390625 -0.46875,0.5625 -0.875,0.59375 -0.078125,0 -0.171875,0 -0.171875,0.140625 C 0.390625,-0.03125 0.453125,0 0.5,0 0.671875,0 0.90625,-0.03125 1.09375,-0.03125 1.3125,-0.03125 1.609375,0 1.8125,0 1.84375,0 1.953125,0 1.953125,-0.15625 1.953125,-0.25 1.859375,-0.25 1.828125,-0.25 1.78125,-0.265625 1.53125,-0.265625 1.53125,-0.453125 c 0,-0.09375 0.0625,-0.203125 0.09375,-0.265625 l 0.5625,-0.875 h 2 L 4.34375,-0.4375 C 4.328125,-0.359375 4.28125,-0.25 3.875,-0.25 c -0.09375,0 -0.1875,0 -0.1875,0.15625 C 3.6875,-0.0625 3.703125,0 3.796875,0 4,0 4.5,-0.03125 4.703125,-0.03125 c 0.125,0 0.28125,0.015625 0.40625,0.015625 C 5.234375,-0.015625 5.375,0 5.5,0 5.59375,0 5.640625,-0.0625 5.640625,-0.140625 5.640625,-0.25 5.5625,-0.25 5.453125,-0.25 c -0.40625,0 -0.421875,-0.0625 -0.4375,-0.21875 l -0.625,-4.3125 C 4.375,-4.921875 4.359375,-4.96875 4.234375,-4.96875 4.09375,-4.96875 4.0625,-4.90625 4,-4.8125 Z m 0.921875,-1 L 3.8125,-4.125 4.140625,-1.84375 Z m 0,0"
               style="stroke:#000000;fill-opacity:1;stroke-opacity:1;stroke-width:0" />
          </symbol>
        </g>
      </defs>
      <g
         transform="translate(-149.275, -127.734)"
         id="id-b780f774-4270-4308-a088-4641a6b3979a"
         style="fill-opacity:1;stroke:#000000;stroke-opacity:1;stroke-width:0">
        <g
           id="id-c87a08fc-13b6-48c2-bb2f-b3f2d2c75959"
           style="fill:#000000;fill-opacity:1;stroke:#000000;stroke-opacity:1;stroke-width:0">
          <g
             transform="translate(148.712, 134.765)"
             style="fill-opacity:1;stroke:#000000;stroke-opacity:1;stroke-width:0"
             id="g476">
            <path
               id="id-9ac078e9-d6a0-487b-abfd-2b73487b38dc"
               d="m 4.3125,-3.5 c 0,-0.953125 0.265625,-2.765625 1.578125,-2.765625 0.3125,0 0.921875,0.15625 0.984375,0.765625 0.015625,0.09375 0.015625,0.171875 0.15625,0.171875 0.15625,0 0.15625,-0.09375 0.15625,-0.171875 0,-0.59375 -0.40625,-1.53125 -1.3125,-1.53125 -1.03125,0 -1.765625,0.90625 -2,2.421875 C 3.796875,-5.03125 3.453125,-7.03125 1.859375,-7.03125 c -0.90625,0 -1.296875,0.9375 -1.296875,1.53125 0,0.078125 0,0.171875 0.15625,0.171875 0.140625,0 0.140625,-0.078125 0.15625,-0.140625 0.078125,-0.796875 0.921875,-0.796875 0.984375,-0.796875 1.375,0 1.5625,1.96875 1.5625,2.765625 v 2.71875 c 0,0.328125 0,0.46875 -0.9375,0.46875 H 2.15625 V 0 c 0.359375,-0.03125 1.296875,-0.03125 1.71875,-0.03125 0.40625,0 1.359375,0 1.71875,0.03125 V -0.3125 H 5.265625 C 4.3125,-0.3125 4.3125,-0.4375 4.3125,-0.78125 Z m 0,0"
               style="stroke:#000000;fill-opacity:1;stroke-opacity:1;stroke-width:0" />
          </g>
        </g>
        <g
           id="id-31f7ba9f-5765-489a-bf1f-556773d78b27"
           style="fill:#000000;fill-opacity:1;stroke:#000000;stroke-opacity:1;stroke-width:0">
          <g
             transform="translate(156.461, 136.259)"
             style="fill-opacity:1;stroke:#000000;stroke-opacity:1;stroke-width:0"
             id="g480">
            <path
               id="id-30eabcb7-f348-480d-b514-dff0ce7ace25"
               d="m 1.4375,-0.84375 c -0.25,0.390625 -0.46875,0.5625 -0.875,0.59375 -0.078125,0 -0.171875,0 -0.171875,0.140625 C 0.390625,-0.03125 0.453125,0 0.5,0 0.671875,0 0.90625,-0.03125 1.09375,-0.03125 1.3125,-0.03125 1.609375,0 1.8125,0 1.84375,0 1.953125,0 1.953125,-0.15625 1.953125,-0.25 1.859375,-0.25 1.828125,-0.25 1.78125,-0.265625 1.53125,-0.265625 1.53125,-0.453125 c 0,-0.09375 0.0625,-0.203125 0.09375,-0.265625 l 0.5625,-0.875 h 2 L 4.34375,-0.4375 C 4.328125,-0.359375 4.28125,-0.25 3.875,-0.25 c -0.09375,0 -0.1875,0 -0.1875,0.15625 C 3.6875,-0.0625 3.703125,0 3.796875,0 4,0 4.5,-0.03125 4.703125,-0.03125 c 0.125,0 0.28125,0.015625 0.40625,0.015625 C 5.234375,-0.015625 5.375,0 5.5,0 5.59375,0 5.640625,-0.0625 5.640625,-0.140625 5.640625,-0.25 5.5625,-0.25 5.453125,-0.25 c -0.40625,0 -0.421875,-0.0625 -0.4375,-0.21875 l -0.625,-4.3125 C 4.375,-4.921875 4.359375,-4.96875 4.234375,-4.96875 4.09375,-4.96875 4.0625,-4.90625 4,-4.8125 Z m 0.921875,-1 L 3.8125,-4.125 4.140625,-1.84375 Z m 0,0"
               style="stroke:#000000;fill-opacity:1;stroke-opacity:1;stroke-width:0" />
          </g>
        </g>
      </g>
    </g>
    <g
       transform="matrix(0.3 0 0 0.3 25.7553 7.27871)"
       ns0:version="1.0.1"
       ns0:texconverter="pdflatex"
       ns0:pdfconverter="inkscape"
       ns0:text="$\\Upsilon_A$"
       ns0:preamble="C:\\Users\\mt45\\AppData\\Roaming\\inkscape\\extensions\\textext\\default_packages.tex"
       ns0:scale="0.225000000001"
       ns0:alignment="middle center"
       ns0:inkscapeversion="1.0"
       ns0:jacobian_sqrt="0.3"
       style="fill-opacity:1;stroke:#000000;stroke-opacity:1;stroke-width:0"
       id="g692">
      <defs
         id="id-8d4e47d2-4d59-42cf-b23d-bb7611a7f24c"
         style="fill-opacity:1;stroke:#000000;stroke-opacity:1;stroke-width:0">
        <g
           id="id-21a4146c-8baa-41e1-b6d0-ec88edde7b88"
           style="fill-opacity:1;stroke:#000000;stroke-opacity:1;stroke-width:0">
          <symbol
             id="id-1b4784da-02bf-4425-8e3d-2d9e5bc61f77"
             overflow="visible"
             style="fill-opacity:1;stroke:#000000;stroke-opacity:1;stroke-width:0">
            <path
               id="id-137e0f18-1145-4ffb-846c-fb4e5591d912"
               d=""
               style="stroke:#000000;fill-opacity:1;stroke-opacity:1;stroke-width:0" />
          </symbol>
          <symbol
             id="id-0b3878b0-54ba-4c5a-b2aa-6b7f175cfeac"
             overflow="visible"
             style="fill-opacity:1;stroke:#000000;stroke-opacity:1;stroke-width:0">
            <path
               id="id-cb692c53-eff2-4e5b-85b2-14fc7752f57c"
               d="m 4.3125,-3.5 c 0,-0.953125 0.265625,-2.765625 1.578125,-2.765625 0.3125,0 0.921875,0.15625 0.984375,0.765625 0.015625,0.09375 0.015625,0.171875 0.15625,0.171875 0.15625,0 0.15625,-0.09375 0.15625,-0.171875 0,-0.59375 -0.40625,-1.53125 -1.3125,-1.53125 -1.03125,0 -1.765625,0.90625 -2,2.421875 C 3.796875,-5.03125 3.453125,-7.03125 1.859375,-7.03125 c -0.90625,0 -1.296875,0.9375 -1.296875,1.53125 0,0.078125 0,0.171875 0.15625,0.171875 0.140625,0 0.140625,-0.078125 0.15625,-0.140625 0.078125,-0.796875 0.921875,-0.796875 0.984375,-0.796875 1.375,0 1.5625,1.96875 1.5625,2.765625 v 2.71875 c 0,0.328125 0,0.46875 -0.9375,0.46875 H 2.15625 V 0 c 0.359375,-0.03125 1.296875,-0.03125 1.71875,-0.03125 0.40625,0 1.359375,0 1.71875,0.03125 V -0.3125 H 5.265625 C 4.3125,-0.3125 4.3125,-0.4375 4.3125,-0.78125 Z m 0,0"
               style="stroke:#000000;fill-opacity:1;stroke-opacity:1;stroke-width:0" />
          </symbol>
          <symbol
             id="id-d5bf62f0-e947-492f-ae03-cd5e7b10af54"
             overflow="visible"
             style="fill-opacity:1;stroke:#000000;stroke-opacity:1;stroke-width:0">
            <path
               id="id-55b61c6e-bb58-4442-968d-2941f39fe126"
               d=""
               style="stroke:#000000;fill-opacity:1;stroke-opacity:1;stroke-width:0" />
          </symbol>
          <symbol
             id="id-af0ad73b-273d-453b-8a77-8750b97f8e6f"
             overflow="visible"
             style="fill-opacity:1;stroke:#000000;stroke-opacity:1;stroke-width:0">
            <path
               id="id-586d52a9-d56f-45a0-8ace-21b071c4bc8b"
               d="m 1.4375,-0.84375 c -0.25,0.390625 -0.46875,0.5625 -0.875,0.59375 -0.078125,0 -0.171875,0 -0.171875,0.140625 C 0.390625,-0.03125 0.453125,0 0.5,0 0.671875,0 0.90625,-0.03125 1.09375,-0.03125 1.3125,-0.03125 1.609375,0 1.8125,0 1.84375,0 1.953125,0 1.953125,-0.15625 1.953125,-0.25 1.859375,-0.25 1.828125,-0.25 1.78125,-0.265625 1.53125,-0.265625 1.53125,-0.453125 c 0,-0.09375 0.0625,-0.203125 0.09375,-0.265625 l 0.5625,-0.875 h 2 L 4.34375,-0.4375 C 4.328125,-0.359375 4.28125,-0.25 3.875,-0.25 c -0.09375,0 -0.1875,0 -0.1875,0.15625 C 3.6875,-0.0625 3.703125,0 3.796875,0 4,0 4.5,-0.03125 4.703125,-0.03125 c 0.125,0 0.28125,0.015625 0.40625,0.015625 C 5.234375,-0.015625 5.375,0 5.5,0 5.59375,0 5.640625,-0.0625 5.640625,-0.140625 5.640625,-0.25 5.5625,-0.25 5.453125,-0.25 c -0.40625,0 -0.421875,-0.0625 -0.4375,-0.21875 l -0.625,-4.3125 C 4.375,-4.921875 4.359375,-4.96875 4.234375,-4.96875 4.09375,-4.96875 4.0625,-4.90625 4,-4.8125 Z m 0.921875,-1 L 3.8125,-4.125 4.140625,-1.84375 Z m 0,0"
               style="stroke:#000000;fill-opacity:1;stroke-opacity:1;stroke-width:0" />
          </symbol>
        </g>
      </defs>
      <g
         transform="translate(-149.275, -127.734)"
         id="id-b8831044-910c-4607-a449-7349f33922f7"
         style="fill-opacity:1;stroke:#000000;stroke-opacity:1;stroke-width:0">
        <g
           id="id-5b19b094-278a-4d57-a0d5-95112a7dc80b"
           style="fill:#000000;fill-opacity:1;stroke:#000000;stroke-opacity:1;stroke-width:0">
          <g
             transform="translate(148.712, 134.765)"
             style="fill-opacity:1;stroke:#000000;stroke-opacity:1;stroke-width:0"
             id="g684">
            <path
               id="id-d302f0b6-1a97-4cc8-80ca-193fbb01f65e"
               d="m 4.3125,-3.5 c 0,-0.953125 0.265625,-2.765625 1.578125,-2.765625 0.3125,0 0.921875,0.15625 0.984375,0.765625 0.015625,0.09375 0.015625,0.171875 0.15625,0.171875 0.15625,0 0.15625,-0.09375 0.15625,-0.171875 0,-0.59375 -0.40625,-1.53125 -1.3125,-1.53125 -1.03125,0 -1.765625,0.90625 -2,2.421875 C 3.796875,-5.03125 3.453125,-7.03125 1.859375,-7.03125 c -0.90625,0 -1.296875,0.9375 -1.296875,1.53125 0,0.078125 0,0.171875 0.15625,0.171875 0.140625,0 0.140625,-0.078125 0.15625,-0.140625 0.078125,-0.796875 0.921875,-0.796875 0.984375,-0.796875 1.375,0 1.5625,1.96875 1.5625,2.765625 v 2.71875 c 0,0.328125 0,0.46875 -0.9375,0.46875 H 2.15625 V 0 c 0.359375,-0.03125 1.296875,-0.03125 1.71875,-0.03125 0.40625,0 1.359375,0 1.71875,0.03125 V -0.3125 H 5.265625 C 4.3125,-0.3125 4.3125,-0.4375 4.3125,-0.78125 Z m 0,0"
               style="stroke:#000000;fill-opacity:1;stroke-opacity:1;stroke-width:0" />
          </g>
        </g>
        <g
           id="id-8f327a6f-54f8-4256-9112-7113e5128b21"
           style="fill:#000000;fill-opacity:1;stroke:#000000;stroke-opacity:1;stroke-width:0">
          <g
             transform="translate(156.461, 136.259)"
             style="fill-opacity:1;stroke:#000000;stroke-opacity:1;stroke-width:0"
             id="g688">
            <path
               id="id-8a569db6-810d-4170-bd3c-8970b277dd21"
               d="m 1.4375,-0.84375 c -0.25,0.390625 -0.46875,0.5625 -0.875,0.59375 -0.078125,0 -0.171875,0 -0.171875,0.140625 C 0.390625,-0.03125 0.453125,0 0.5,0 0.671875,0 0.90625,-0.03125 1.09375,-0.03125 1.3125,-0.03125 1.609375,0 1.8125,0 1.84375,0 1.953125,0 1.953125,-0.15625 1.953125,-0.25 1.859375,-0.25 1.828125,-0.25 1.78125,-0.265625 1.53125,-0.265625 1.53125,-0.453125 c 0,-0.09375 0.0625,-0.203125 0.09375,-0.265625 l 0.5625,-0.875 h 2 L 4.34375,-0.4375 C 4.328125,-0.359375 4.28125,-0.25 3.875,-0.25 c -0.09375,0 -0.1875,0 -0.1875,0.15625 C 3.6875,-0.0625 3.703125,0 3.796875,0 4,0 4.5,-0.03125 4.703125,-0.03125 c 0.125,0 0.28125,0.015625 0.40625,0.015625 C 5.234375,-0.015625 5.375,0 5.5,0 5.59375,0 5.640625,-0.0625 5.640625,-0.140625 5.640625,-0.25 5.5625,-0.25 5.453125,-0.25 c -0.40625,0 -0.421875,-0.0625 -0.4375,-0.21875 l -0.625,-4.3125 C 4.375,-4.921875 4.359375,-4.96875 4.234375,-4.96875 4.09375,-4.96875 4.0625,-4.90625 4,-4.8125 Z m 0.921875,-1 L 3.8125,-4.125 4.140625,-1.84375 Z m 0,0"
               style="stroke:#000000;fill-opacity:1;stroke-opacity:1;stroke-width:0" />
          </g>
        </g>
      </g>
    </g>
  </g>
  <g
     style="display:inline;filter:url(#filter4062)"
     transform="translate(20.44708,-105.26021)"
     id="layer1"
     inkscape:groupmode="layer"
     inkscape:label="Players">
    <g
       transform="translate(0,-13.124607)"
       id="g1022">
      <rect
         style="opacity:1;fill:#f0f0f0;fill-opacity:1;stroke:#000000;stroke-width:0.12195123;stroke-miterlimit:4;stroke-dasharray:none;stroke-dashoffset:0;stroke-opacity:1"
         id="rect5052"
         width="9.2200174"
         height="9.2200174"
         x="-20.386105"
         y="124.39166" />
      <text
         xml:space="preserve"
         style="font-style:normal;font-variant:normal;font-weight:normal;font-stretch:normal;font-size:12.6729px;line-height:125%;font-family:Garamond;-inkscape-font-specification:Garamond;letter-spacing:0px;word-spacing:0px;fill:#000000;fill-opacity:1;stroke:none;stroke-width:0.322663px;stroke-linecap:butt;stroke-linejoin:miter;stroke-opacity:1"
         x="-19.194302"
         y="132.38712"
         id="text5041-4"><tspan
           style="font-size:10.3252px;stroke-width:0.322663px"
           y="132.38712"
           x="-19.194302"
           id="tspan5039-4"
           sodipodi:role="line">A</tspan></text>
    </g>
    <g
       id="g1193">
      <g
         id="g1003"
         transform="translate(9.8698316,-14.125195)">
        <g
           id="g968">
          <rect
             style="opacity:1;fill:#f0f0f0;fill-opacity:1;stroke:#000000;stroke-width:0.12195123;stroke-miterlimit:4;stroke-dasharray:none;stroke-dashoffset:0;stroke-opacity:1"
             id="rect5052-6"
             width="9.2200174"
             height="9.2200174"
             x="15.733847"
             y="124.39166" />
          <path
             style="opacity:1;fill:#f08c8c;fill-opacity:1;stroke:#000000;stroke-width:0.12195123;stroke-miterlimit:4;stroke-dasharray:none;stroke-dashoffset:0;stroke-opacity:1"
             d="m 15.733847,124.39166 h 9.220017 l -9.220017,9.22002 z"
             id="rect963"
             inkscape:connector-curvature="0"
             sodipodi:nodetypes="cccc" />
        </g>
        <text
           id="text5041-4-6"
           y="132.31175"
           x="17.384697"
           style="font-style:normal;font-variant:normal;font-weight:normal;font-stretch:normal;font-size:12.6729px;line-height:125%;font-family:Garamond;-inkscape-font-specification:Garamond;letter-spacing:0px;word-spacing:0px;fill:#000000;fill-opacity:1;stroke:none;stroke-width:0.322663px;stroke-linecap:butt;stroke-linejoin:miter;stroke-opacity:1"
           xml:space="preserve"><tspan
             sodipodi:role="line"
             id="tspan5039-4-0"
             x="17.384697"
             y="132.31175"
             style="font-size:10.3252px;stroke-width:0.322663px">B</tspan></text>
      </g>
      <g
         id="g1179">
        <g
           transform="rotate(-180,25.278771,135.59655)"
           id="g989">
          <rect
             y="124.39166"
             x="15.733847"
             height="9.2200174"
             width="9.2200174"
             id="rect985"
             style="opacity:1;fill:#f0f0f0;fill-opacity:1;stroke:#000000;stroke-width:0.12195123;stroke-miterlimit:4;stroke-dasharray:none;stroke-dashoffset:0;stroke-opacity:1" />
          <path
             sodipodi:nodetypes="cccc"
             inkscape:connector-curvature="0"
             id="path987"
             d="m 15.733847,124.39166 h 9.220017 l -9.220017,9.22002 z"
             style="opacity:1;fill:#f08c8c;fill-opacity:1;stroke:#000000;stroke-width:0.12195123;stroke-miterlimit:4;stroke-dasharray:none;stroke-dashoffset:0;stroke-opacity:1" />
        </g>
        <text
           id="text5041-4-9"
           y="145.47124"
           x="26.929346"
           style="font-style:normal;font-variant:normal;font-weight:normal;font-stretch:normal;font-size:12.6729px;line-height:125%;font-family:Garamond;-inkscape-font-specification:Garamond;letter-spacing:0px;word-spacing:0px;fill:#000000;fill-opacity:1;stroke:none;stroke-width:0.322663px;stroke-linecap:butt;stroke-linejoin:miter;stroke-opacity:1"
           xml:space="preserve"><tspan
             sodipodi:role="line"
             id="tspan5039-4-6"
             x="26.929346"
             y="145.47124"
             style="font-size:10.3252px;stroke-width:0.322663px">C</tspan></text>
      </g>
    </g>
    <g
       transform="translate(1.0667632)"
       id="g4069">
      <rect
         y="123.96706"
         x="34.647224"
         height="9.2200174"
         width="9.2200174"
         id="rect4047"
         style="opacity:1;fill:#f08c8c;fill-opacity:1;stroke:#000000;stroke-width:0.12195123;stroke-miterlimit:4;stroke-dasharray:none;stroke-dashoffset:0;stroke-opacity:1" />
      <text
         id="text4051"
         y="131.96251"
         x="35.866756"
         style="font-style:normal;font-variant:normal;font-weight:normal;font-stretch:normal;font-size:12.6729px;line-height:125%;font-family:Garamond;-inkscape-font-specification:Garamond;letter-spacing:0px;word-spacing:0px;fill:#000000;fill-opacity:1;stroke:none;stroke-width:0.322663px;stroke-linecap:butt;stroke-linejoin:miter;stroke-opacity:1"
         xml:space="preserve"><tspan
           sodipodi:role="line"
           id="tspan4049"
           x="35.866756"
           y="131.96251"
           style="font-size:10.3252px;stroke-width:0.322663px">E</tspan></text>
    </g>
  </g>
</svg>
