<?xml version="1.0" encoding="UTF-8" standalone="no"?>
<svg
   xmlns:ns0="http://www.iki.fi/pav/software/textext/"
   xmlns:dc="http://purl.org/dc/elements/1.1/"
   xmlns:cc="http://creativecommons.org/ns#"
   xmlns:rdf="http://www.w3.org/1999/02/22-rdf-syntax-ns#"
   xmlns:svg="http://www.w3.org/2000/svg"
   xmlns="http://www.w3.org/2000/svg"
   xmlns:sodipodi="http://sodipodi.sourceforge.net/DTD/sodipodi-0.dtd"
   xmlns:inkscape="http://www.inkscape.org/namespaces/inkscape"
   width="72.668365mm"
   height="45.928936mm"
   viewBox="0 0 58.134691 36.743149"
   version="1.1"
   id="svg951"
   inkscape:version="1.0 (4035a4fb49, 2020-05-01)"
   sodipodi:docname="qss_dishonest_Bob.svg">
  <defs
     id="defs945">
    <marker
       inkscape:stockid="Arrow2Mend"
       orient="auto"
       refY="0"
       refX="0"
       id="marker2547"
       style="overflow:visible"
       inkscape:isstock="true">
      <path
         inkscape:connector-curvature="0"
         id="path2545"
         style="fill:#000000;fill-opacity:1;fill-rule:evenodd;stroke:#000000;stroke-width:0.625;stroke-linejoin:round;stroke-opacity:1"
         d="M 8.7185878,4.0337352 -2.2072895,0.01601326 8.7185884,-4.0017078 c -1.7454984,2.3720609 -1.7354408,5.6174519 -6e-7,8.035443 z"
         transform="scale(-0.6)" />
    </marker>
    <marker
       inkscape:collect="always"
       inkscape:isstock="true"
       style="overflow:visible"
       id="Arrow2Mend-0-1"
       refX="0"
       refY="0"
       orient="auto"
       inkscape:stockid="Arrow2Mend">
      <path
         transform="scale(-0.6)"
         d="M 8.7185878,4.0337352 -2.2072895,0.01601326 8.7185884,-4.0017078 c -1.7454984,2.3720609 -1.7354408,5.6174519 -6e-7,8.035443 z"
         style="fill:#000000;fill-opacity:1;fill-rule:evenodd;stroke:#000000;stroke-width:0.625;stroke-linejoin:round;stroke-opacity:1"
         id="path4782-7-2"
         inkscape:connector-curvature="0" />
    </marker>
  </defs>
  <sodipodi:namedview
     inkscape:document-rotation="0"
     scale-x="0.8"
     inkscape:snap-global="false"
     inkscape:window-maximized="1"
     inkscape:window-y="43"
     inkscape:window-x="1912"
     inkscape:window-height="1027"
     inkscape:window-width="1920"
     fit-margin-bottom="0"
     fit-margin-right="0"
     fit-margin-left="0"
     fit-margin-top="0"
     showgrid="false"
     inkscape:current-layer="layer2"
     inkscape:document-units="mm"
     inkscape:cy="50.350474"
     inkscape:cx="52.806541"
     inkscape:zoom="2.8284273"
     inkscape:pageshadow="2"
     inkscape:pageopacity="0.0"
     borderopacity="1.0"
     bordercolor="#666666"
     pagecolor="#ffffff"
     id="base">
    <inkscape:grid
       type="xygrid"
       id="grid2913"
       originx="5.6661132"
       originy="-4.0836634" />
  </sodipodi:namedview>
  <metadata
     id="metadata948">
    <rdf:RDF>
      <cc:Work
         rdf:about="">
        <dc:format>image/svg+xml</dc:format>
        <dc:type
           rdf:resource="http://purl.org/dc/dcmitype/StillImage" />
        <dc:title />
      </cc:Work>
    </rdf:RDF>
  </metadata>
  <g
     transform="translate(7.0826416,1.4509072)"
     style="display:inline"
     inkscape:label="Arrows"
     id="layer3"
     inkscape:groupmode="layer">
    <path
       sodipodi:nodetypes="cc"
       inkscape:connector-curvature="0"
       id="path4753-4-5"
       d="M 1.4360063,14.617642 29.894588,3.538716"
       style="fill:none;stroke:#000000;stroke-width:0.3232;stroke-linecap:butt;stroke-linejoin:miter;stroke-miterlimit:4;stroke-dasharray:1.29279998,0.64639999,0.3232,0.64639999;stroke-opacity:1;marker-end:url(#Arrow2Mend-0-1);stroke-dashoffset:0" />
    <path
       sodipodi:nodetypes="cc"
       style="fill:none;stroke:#000000;stroke-width:0.323;stroke-linecap:butt;stroke-linejoin:miter;stroke-miterlimit:4;stroke-dasharray:1.29200001,0.646,0.323,0.646;stroke-opacity:1;marker-end:url(#marker2547);stroke-dashoffset:0"
       d="M 2.0187684,19.856125 29.92176,30.448359"
       id="path2543"
       inkscape:connector-curvature="0" />
  </g>
  <g
     transform="translate(5.9602618e-7,9.7720718)"
     style="opacity:1"
     inkscape:label="Text"
     id="layer2"
     inkscape:groupmode="layer">
    <g
       id="g1905"
       transform="matrix(0.352778,0,0,-0.352778,-32.521524,252.02296)"
       xml:space="preserve"
       stroke-miterlimit="10.433"
       font-style="normal"
       font-variant="normal"
       font-weight="normal"
       font-stretch="normal"
       font-size-adjust="none"
       letter-spacing="normal"
       word-spacing="normal"
       ns0:version="0.10.2"
       ns0:texconverter="pdflatex"
       ns0:pdfconverter="pstoedit"
       ns0:text="$K_C$"
       ns0:preamble="C:\\Users\\MatthewThornton\\AppData\\Roaming\\inkscape\\extensions\\textext\\default_packages.tex"
       ns0:scale="1.0"
       ns0:alignment="middle center"
       inkscapeversion="0.92.4"
       ns0:jacobian_sqrt="0.352778"
       style="font-style:normal;font-variant:normal;font-weight:normal;font-stretch:normal;letter-spacing:normal;word-spacing:normal;text-anchor:start;fill:none;fill-opacity:1;fill-rule:evenodd;stroke:#000000;stroke-linecap:butt;stroke-linejoin:miter;stroke-miterlimit:10.43299961;stroke-dasharray:none;stroke-dashoffset:0;stroke-opacity:1">
<path
   inkscape:connector-curvature="0"
   d="m 153.79,661.25 v 0 0 l -0.01,0.01 v 0 0.01 0 0 0.01 h -0.01 v 0.01 0 0.01 l -0.01,0.01 v 0.01 0.01 h -0.01 v 0.01 0 0.01 0 l -0.01,0.01 v 0 0.01 0 0 0.01 0 0 0.01 c 0,0.01 0.18,0.15 0.29,0.23 l 1.74,1.34 c 0.94,0.68 1.33,0.72 1.63,0.75 0.08,0.01 0.18,0.02 0.18,0.2 0,0.04 -0.03,0.11 -0.11,0.11 -0.22,0 -0.47,-0.03 -0.71,-0.03 -0.36,0 -0.75,0.03 -1.11,0.03 -0.07,0 -0.19,0 -0.19,-0.2 0,-0.07 0.05,-0.1 0.12,-0.11 0.22,-0.02 0.31,-0.07 0.31,-0.21 0,-0.18 -0.3,-0.4 -0.36,-0.45 l -3.89,-2.98 0.8,3.19 c 0.09,0.35 0.11,0.45 0.84,0.45 0.25,0 0.34,0 0.34,0.2 0,0.09 -0.08,0.11 -0.14,0.11 -0.28,0 -1,-0.03 -1.28,-0.03 -0.29,0 -0.99,0.03 -1.28,0.03 -0.07,0 -0.2,0 -0.2,-0.19 0,-0.12 0.09,-0.12 0.29,-0.12 0.12,0 0.31,-0.01 0.42,-0.02 0.16,-0.02 0.22,-0.05 0.22,-0.16 0,-0.04 -0.01,-0.07 -0.04,-0.19 l -1.33,-5.33 c -0.1,-0.39 -0.12,-0.47 -0.91,-0.47 -0.17,0 -0.28,0 -0.28,-0.19 0,-0.12 0.12,-0.12 0.15,-0.12 0.28,0 0.99,0.04 1.27,0.04 0.21,0 0.43,-0.01 0.64,-0.01 0.22,0 0.43,-0.03 0.64,-0.03 0.07,0 0.2,0 0.2,0.2 0,0.11 -0.09,0.11 -0.28,0.11 -0.36,0 -0.64,0 -0.64,0.18 0,0.07 0.06,0.29 0.08,0.44 0.14,0.51 0.27,1.04 0.4,1.56 l 1.49,1.15 1.16,-2.67 c 0.12,-0.27 0.12,-0.29 0.12,-0.35 0,-0.3 -0.43,-0.31 -0.52,-0.31 -0.11,0 -0.22,0 -0.22,-0.2 0,-0.11 0.12,-0.11 0.14,-0.11 0.4,0 0.82,0.04 1.21,0.04 0.22,0 0.76,-0.04 0.98,-0.04 0.05,0 0.18,0 0.18,0.2 0,0.11 -0.11,0.11 -0.2,0.11 -0.41,0.01 -0.54,0.1 -0.69,0.45 z"
   style="fill:#000000;fill-opacity:1;stroke:#000000;stroke-width:0;stroke-opacity:1"
   id="path1901" />
<path
   inkscape:connector-curvature="0"
   d="m 163.07,660.54 v 0 0.01 0 0 0.01 0 h -0.01 v 0.01 0 0.01 0 0 0.01 h -0.01 v 0 0.01 0 h -0.01 v 0.01 0 h -0.01 v 0.01 0 h -0.01 v 0 h -0.01 v 0.01 H 163 v 0 0 h -0.01 v 0 0 h -0.01 v 0 0 c -0.05,0 -0.07,-0.02 -0.13,-0.08 l -0.51,-0.54 c -0.06,0.08 -0.45,0.62 -1.31,0.62 -1.7,0 -3.37,-1.5 -3.37,-3.07 0,-1.13 0.9,-1.96 2.15,-1.96 0.38,0 1.05,0.08 1.77,0.68 0.55,0.47 0.71,1.07 0.71,1.13 0,0.09 -0.09,0.09 -0.12,0.09 -0.1,0 -0.11,-0.03 -0.13,-0.11 -0.29,-0.95 -1.27,-1.54 -2.11,-1.54 -0.74,0 -1.57,0.4 -1.57,1.5 0,0.2 0.05,1.3 0.86,2.17 0.48,0.54 1.21,0.86 1.88,0.86 0.81,0 1.28,-0.59 1.28,-1.36 0,-0.2 -0.02,-0.25 -0.02,-0.29 0,-0.09 0.09,-0.09 0.13,-0.09 0.11,0 0.11,0.02 0.14,0.15 z"
   style="fill:#000000;fill-opacity:1;stroke:#000000;stroke-width:0;stroke-opacity:1"
   id="path1903" />
</g>
    <g
       id="content"
       transform="matrix(0.352778,0,0,-0.352778,-32.514468,230.51057)"
       xml:space="preserve"
       stroke-miterlimit="10.433"
       font-style="normal"
       font-variant="normal"
       font-weight="normal"
       font-stretch="normal"
       font-size-adjust="none"
       letter-spacing="normal"
       word-spacing="normal"
       ns0:version="0.10.2"
       ns0:texconverter="pdflatex"
       ns0:pdfconverter="pstoedit"
       ns0:text="$K_B$"
       ns0:preamble="C:\\Users\\MatthewThornton\\AppData\\Roaming\\inkscape\\extensions\\textext\\default_packages.tex"
       ns0:scale="1.0"
       ns0:alignment="middle center"
       inkscapeversion="0.92.4"
       ns0:jacobian_sqrt="0.352778"
       style="font-style:normal;font-variant:normal;font-weight:normal;font-stretch:normal;letter-spacing:normal;word-spacing:normal;text-anchor:start;fill:none;fill-opacity:1;fill-rule:evenodd;stroke:#000000;stroke-linecap:butt;stroke-linejoin:miter;stroke-miterlimit:10.43299961;stroke-dasharray:none;stroke-dashoffset:0;stroke-opacity:1">
<path
   inkscape:connector-curvature="0"
   d="m 153.79,661.25 v 0 0 l -0.01,0.01 v 0 0.01 0 0 0.01 h -0.01 v 0.01 0 0.01 l -0.01,0.01 v 0.01 0.01 h -0.01 v 0.01 0 0.01 0 l -0.01,0.01 v 0 0.01 0 0 0.01 0 0 0.01 c 0,0.01 0.18,0.15 0.29,0.23 l 1.74,1.34 c 0.94,0.68 1.33,0.72 1.63,0.75 0.08,0.01 0.18,0.02 0.18,0.2 0,0.04 -0.03,0.11 -0.11,0.11 -0.22,0 -0.47,-0.03 -0.71,-0.03 -0.36,0 -0.75,0.03 -1.11,0.03 -0.07,0 -0.19,0 -0.19,-0.2 0,-0.07 0.05,-0.1 0.12,-0.11 0.22,-0.02 0.31,-0.07 0.31,-0.21 0,-0.18 -0.3,-0.4 -0.36,-0.45 l -3.89,-2.98 0.8,3.19 c 0.09,0.35 0.11,0.45 0.84,0.45 0.25,0 0.34,0 0.34,0.2 0,0.09 -0.08,0.11 -0.14,0.11 -0.28,0 -1,-0.03 -1.28,-0.03 -0.29,0 -0.99,0.03 -1.28,0.03 -0.07,0 -0.2,0 -0.2,-0.19 0,-0.12 0.09,-0.12 0.29,-0.12 0.12,0 0.31,-0.01 0.42,-0.02 0.16,-0.02 0.22,-0.05 0.22,-0.16 0,-0.04 -0.01,-0.07 -0.04,-0.19 l -1.33,-5.33 c -0.1,-0.39 -0.12,-0.47 -0.91,-0.47 -0.17,0 -0.28,0 -0.28,-0.19 0,-0.12 0.12,-0.12 0.15,-0.12 0.28,0 0.99,0.04 1.27,0.04 0.21,0 0.43,-0.01 0.64,-0.01 0.22,0 0.43,-0.03 0.64,-0.03 0.07,0 0.2,0 0.2,0.2 0,0.11 -0.09,0.11 -0.28,0.11 -0.36,0 -0.64,0 -0.64,0.18 0,0.07 0.06,0.29 0.08,0.44 0.14,0.51 0.27,1.04 0.4,1.56 l 1.49,1.15 1.16,-2.67 c 0.12,-0.27 0.12,-0.29 0.12,-0.35 0,-0.3 -0.43,-0.31 -0.52,-0.31 -0.11,0 -0.22,0 -0.22,-0.2 0,-0.11 0.12,-0.11 0.14,-0.11 0.4,0 0.82,0.04 1.21,0.04 0.22,0 0.76,-0.04 0.98,-0.04 0.05,0 0.18,0 0.18,0.2 0,0.11 -0.11,0.11 -0.2,0.11 -0.41,0.01 -0.54,0.1 -0.69,0.45 z"
   style="fill:#000000;fill-opacity:1;stroke:#000000;stroke-width:0;stroke-opacity:1"
   id="path2091" />
<path
   inkscape:connector-curvature="0"
   d="m 158.5,656.28 v -0.02 l -0.01,-0.02 v -0.02 l -0.01,-0.02 -0.01,-0.01 v -0.02 l -0.01,-0.02 v -0.01 l -0.01,-0.02 -0.01,-0.01 -0.01,-0.01 -0.01,-0.01 -0.01,-0.01 -0.01,-0.01 -0.01,-0.01 -0.02,-0.01 -0.01,-0.01 -0.02,-0.01 h -0.02 l -0.02,-0.01 h -0.02 l -0.01,-0.01 h -0.01 -0.02 -0.01 -0.01 L 158.2,656 h -0.01 -0.02 -0.01 -0.02 -0.02 -0.02 l -0.02,-0.01 h -0.01 -0.02 -0.02 -0.03 -0.02 -0.02 -0.02 -0.03 -0.02 c -0.12,0 -0.21,0 -0.21,-0.15 0,-0.1 0.08,-0.1 0.21,-0.1 h 2.7 c 1.18,0 2.08,0.8 2.08,1.49 0,0.49 -0.46,0.92 -1.2,0.99 0.85,0.16 1.56,0.69 1.56,1.28 0,0.53 -0.54,0.99 -1.45,0.99 l -0.11,-0.25 c 0.71,0 0.87,-0.47 0.87,-0.73 0,-0.56 -0.63,-1.2 -1.57,-1.2 h -1.15 l -0.05,-0.2 h 1.48 c 0.66,0 0.91,-0.43 0.91,-0.83 0,-0.69 -0.7,-1.29 -1.55,-1.29 h -1.12 c -0.22,0 -0.23,0.01 -0.23,0.07 0,0.01 0,0.04 0.03,0.15 l 0.48,1.9 0.05,0.2 0.43,1.69 c 0.05,0.22 0.06,0.24 0.35,0.24 h 1.07 l 0.11,0.25 h -2.55 c -0.13,0 -0.22,0 -0.22,-0.15 0,-0.1 0.08,-0.1 0.22,-0.1 0.01,0 0.14,0 0.27,-0.01 0.15,-0.02 0.16,-0.03 0.16,-0.1 0,-0.02 0,-0.05 -0.03,-0.15 z"
   style="fill:#000000;fill-opacity:1;stroke:#000000;stroke-width:0;stroke-opacity:1"
   id="path2093" />
</g>
    <g
       id="g2255"
       transform="matrix(0.352778,0,0,-0.352778,-39.494184,243.23879)"
       xml:space="preserve"
       stroke-miterlimit="10.433"
       font-style="normal"
       font-variant="normal"
       font-weight="normal"
       font-stretch="normal"
       font-size-adjust="none"
       letter-spacing="normal"
       word-spacing="normal"
       ns0:version="0.10.2"
       ns0:texconverter="pdflatex"
       ns0:pdfconverter="pstoedit"
       ns0:text="$K_A = K_B \\oplus K_C$"
       ns0:preamble="C:\\Users\\MatthewThornton\\AppData\\Roaming\\inkscape\\extensions\\textext\\default_packages.tex"
       ns0:scale="1.0"
       ns0:alignment="middle center"
       inkscapeversion="0.92.4"
       ns0:jacobian_sqrt="0.352778"
       style="font-style:normal;font-variant:normal;font-weight:normal;font-stretch:normal;letter-spacing:normal;word-spacing:normal;text-anchor:start;fill:none;fill-opacity:1;fill-rule:evenodd;stroke:#000000;stroke-linecap:butt;stroke-linejoin:miter;stroke-miterlimit:10.43299961;stroke-dasharray:none;stroke-dashoffset:0;stroke-opacity:1">
<path
   inkscape:connector-curvature="0"
   d="m 153.79,661.25 v 0 0 l -0.01,0.01 v 0 0.01 0 0 0.01 h -0.01 v 0.01 0 0.01 l -0.01,0.01 v 0.01 0.01 h -0.01 v 0.01 0 0.01 0 l -0.01,0.01 v 0 0.01 0 0 0.01 0 0 0.01 c 0,0.01 0.18,0.15 0.29,0.23 l 1.74,1.34 c 0.94,0.68 1.33,0.72 1.63,0.75 0.08,0.01 0.18,0.02 0.18,0.2 0,0.04 -0.03,0.11 -0.11,0.11 -0.22,0 -0.47,-0.03 -0.71,-0.03 -0.36,0 -0.75,0.03 -1.11,0.03 -0.07,0 -0.19,0 -0.19,-0.2 0,-0.07 0.05,-0.1 0.12,-0.11 0.22,-0.02 0.31,-0.07 0.31,-0.21 0,-0.18 -0.3,-0.4 -0.36,-0.45 l -3.89,-2.98 0.8,3.19 c 0.09,0.35 0.11,0.45 0.84,0.45 0.25,0 0.34,0 0.34,0.2 0,0.09 -0.08,0.11 -0.14,0.11 -0.28,0 -1,-0.03 -1.28,-0.03 -0.29,0 -0.99,0.03 -1.28,0.03 -0.07,0 -0.2,0 -0.2,-0.19 0,-0.12 0.09,-0.12 0.29,-0.12 0.12,0 0.31,-0.01 0.42,-0.02 0.16,-0.02 0.22,-0.05 0.22,-0.16 0,-0.04 -0.01,-0.07 -0.04,-0.19 l -1.33,-5.33 c -0.1,-0.39 -0.12,-0.47 -0.91,-0.47 -0.17,0 -0.28,0 -0.28,-0.19 0,-0.12 0.12,-0.12 0.15,-0.12 0.28,0 0.99,0.04 1.27,0.04 0.21,0 0.43,-0.01 0.64,-0.01 0.22,0 0.43,-0.03 0.64,-0.03 0.07,0 0.2,0 0.2,0.2 0,0.11 -0.09,0.11 -0.28,0.11 -0.36,0 -0.64,0 -0.64,0.18 0,0.07 0.06,0.29 0.08,0.44 0.14,0.51 0.27,1.04 0.4,1.56 l 1.49,1.15 1.16,-2.67 c 0.12,-0.27 0.12,-0.29 0.12,-0.35 0,-0.3 -0.43,-0.31 -0.52,-0.31 -0.11,0 -0.22,0 -0.22,-0.2 0,-0.11 0.12,-0.11 0.14,-0.11 0.4,0 0.82,0.04 1.21,0.04 0.22,0 0.76,-0.04 0.98,-0.04 0.05,0 0.18,0 0.18,0.2 0,0.11 -0.11,0.11 -0.2,0.11 -0.41,0.01 -0.54,0.1 -0.69,0.45 z"
   style="fill:#000000;fill-opacity:1;stroke:#000000;stroke-width:0;stroke-opacity:1"
   id="path2237" />
<path
   inkscape:connector-curvature="0"
   d="m 158.61,656.58 -0.02,-0.04 -0.02,-0.03 -0.02,-0.04 -0.03,-0.03 -0.02,-0.03 -0.02,-0.03 -0.03,-0.02 -0.02,-0.03 -0.02,-0.03 -0.03,-0.02 -0.02,-0.02 -0.02,-0.03 -0.03,-0.02 -0.02,-0.02 -0.03,-0.02 -0.02,-0.02 -0.03,-0.01 -0.03,-0.02 -0.02,-0.02 -0.03,-0.01 -0.03,-0.01 -0.03,-0.02 -0.03,-0.01 -0.03,-0.01 -0.03,-0.01 -0.03,-0.01 h -0.04 l -0.03,-0.01 -0.04,-0.01 h -0.03 l -0.04,-0.01 h -0.04 c -0.07,-0.01 -0.16,-0.01 -0.16,-0.15 0,-0.07 0.06,-0.1 0.1,-0.1 0.18,0 0.41,0.03 0.6,0.03 0.23,0 0.51,-0.03 0.72,-0.03 0.04,0 0.14,0 0.14,0.15 0,0.09 -0.09,0.1 -0.12,0.1 -0.05,0.01 -0.3,0.02 -0.3,0.21 0,0.08 0.06,0.2 0.1,0.26 l 0.56,0.87 h 2 l -0.04,0.25 h -1.79 l 1.47,2.27 0.32,-2.27 0.04,-0.25 0.17,-1.16 c -0.03,-0.07 -0.07,-0.18 -0.49,-0.18 -0.08,0 -0.18,0 -0.18,-0.15 0,-0.03 0.02,-0.1 0.12,-0.1 0.2,0 0.69,0.03 0.9,0.03 0.12,0 0.28,-0.01 0.41,-0.01 0.13,0 0.27,-0.02 0.4,-0.02 0.09,0 0.14,0.06 0.14,0.15 0,0.1 -0.09,0.1 -0.2,0.1 -0.4,0 -0.42,0.06 -0.44,0.22 l -0.61,4.29 c -0.02,0.15 -0.04,0.2 -0.17,0.2 -0.13,0 -0.18,-0.06 -0.24,-0.16 z"
   style="fill:#000000;fill-opacity:1;stroke:#000000;stroke-width:0;stroke-opacity:1"
   id="path2239" />
<path
   inkscape:connector-curvature="0"
   d="m 173.28,660.48 h 0.03 0.03 0.03 l 0.01,0.01 h 0.02 0.01 0.02 0.01 0.01 l 0.02,0.01 h 0.01 0.01 l 0.02,0.01 h 0.01 l 0.01,0.01 h 0.01 l 0.01,0.01 0.01,0.01 0.01,0.01 0.01,0.01 0.01,0.01 v 0 l 0.01,0.01 v 0 0.01 l 0.01,0.01 v 0 0.01 0.01 0 l 0.01,0.01 v 0.01 0.01 0.01 0 0.01 0.01 c 0,0.2 -0.19,0.2 -0.33,0.2 h -5.97 c -0.14,0 -0.33,0 -0.33,-0.2 0,-0.2 0.19,-0.2 0.34,-0.2 z"
   style="fill:#000000;fill-opacity:1;stroke:#000000;stroke-width:0;stroke-opacity:1"
   id="path2241" />
<path
   inkscape:connector-curvature="0"
   d="m 173.29,658.56 h 0.02 0.01 0.03 0.02 0.02 0.01 0.02 0.01 0.01 l 0.02,0.01 h 0.01 0.01 l 0.02,0.01 h 0.01 l 0.01,0.01 h 0.01 l 0.01,0.01 h 0.01 l 0.01,0.01 0.01,0.01 0.01,0.01 h 0.01 v 0.01 0.01 h 0.01 v 0.01 0 l 0.01,0.01 v 0.01 0 0.01 0.01 h 0.01 v 0.01 0.01 0.01 0.01 0.01 0.01 c 0,0.19 -0.19,0.19 -0.34,0.19 h -5.95 c -0.15,0 -0.34,0 -0.34,-0.19 0,-0.2 0.19,-0.2 0.33,-0.2 z"
   style="fill:#000000;fill-opacity:1;stroke:#000000;stroke-width:0;stroke-opacity:1"
   id="path2243" />
<path
   inkscape:connector-curvature="0"
   d="m 182.02,661.25 v 0 0 0.01 0 0.01 h -0.01 v 0 0.01 0 0.01 H 182 v 0.01 0.01 l -0.01,0.01 v 0.01 0 0.01 h -0.01 v 0.01 0 0.01 0 0.01 0 h -0.01 v 0.01 0 0 0.01 c 0,0.01 0.18,0.15 0.29,0.23 l 1.75,1.34 c 0.94,0.68 1.32,0.72 1.62,0.75 0.08,0.01 0.18,0.02 0.18,0.2 0,0.04 -0.03,0.11 -0.11,0.11 -0.22,0 -0.47,-0.03 -0.71,-0.03 -0.36,0 -0.74,0.03 -1.1,0.03 -0.07,0 -0.19,0 -0.19,-0.2 0,-0.07 0.05,-0.1 0.12,-0.11 0.22,-0.02 0.31,-0.07 0.31,-0.21 0,-0.18 -0.3,-0.4 -0.36,-0.45 l -3.89,-2.98 0.8,3.19 c 0.09,0.35 0.11,0.45 0.83,0.45 0.25,0 0.34,0 0.34,0.2 0,0.09 -0.08,0.11 -0.14,0.11 -0.28,0 -0.99,-0.03 -1.27,-0.03 -0.29,0 -1,0.03 -1.29,0.03 -0.07,0 -0.2,0 -0.2,-0.19 0,-0.12 0.09,-0.12 0.29,-0.12 0.13,0 0.31,-0.01 0.43,-0.02 0.16,-0.02 0.22,-0.05 0.22,-0.16 0,-0.04 -0.01,-0.07 -0.04,-0.19 l -1.34,-5.33 c -0.1,-0.39 -0.12,-0.47 -0.91,-0.47 -0.16,0 -0.27,0 -0.27,-0.19 0,-0.12 0.12,-0.12 0.15,-0.12 0.28,0 0.98,0.04 1.26,0.04 0.21,0 0.43,-0.01 0.64,-0.01 0.22,0 0.44,-0.03 0.65,-0.03 0.07,0 0.2,0 0.2,0.2 0,0.11 -0.09,0.11 -0.28,0.11 -0.37,0 -0.65,0 -0.65,0.18 0,0.07 0.06,0.29 0.09,0.44 0.14,0.51 0.27,1.04 0.4,1.56 l 1.48,1.15 1.16,-2.67 c 0.12,-0.27 0.12,-0.29 0.12,-0.35 0,-0.3 -0.43,-0.31 -0.52,-0.31 -0.11,0 -0.22,0 -0.22,-0.2 0,-0.11 0.12,-0.11 0.14,-0.11 0.4,0 0.82,0.04 1.22,0.04 0.22,0 0.76,-0.04 0.98,-0.04 0.05,0 0.18,0 0.18,0.2 0,0.11 -0.11,0.11 -0.2,0.11 -0.41,0.01 -0.54,0.1 -0.69,0.45 z"
   style="fill:#000000;fill-opacity:1;stroke:#000000;stroke-width:0;stroke-opacity:1"
   id="path2245" />
<path
   inkscape:connector-curvature="0"
   d="m 186.74,656.28 -0.01,-0.02 -0.01,-0.02 v -0.02 l -0.01,-0.02 v -0.01 l -0.01,-0.02 v -0.02 l -0.01,-0.01 -0.01,-0.02 -0.01,-0.01 v -0.01 l -0.01,-0.01 -0.01,-0.01 -0.02,-0.01 -0.01,-0.01 -0.01,-0.01 -0.02,-0.01 -0.02,-0.01 h -0.01 l -0.02,-0.01 h -0.03 l -0.01,-0.01 h -0.01 -0.01 -0.02 -0.01 L 186.44,656 h -0.02 -0.01 -0.02 -0.02 -0.01 -0.02 l -0.02,-0.01 h -0.02 -0.02 -0.02 -0.02 -0.02 -0.03 -0.02 -0.02 -0.03 c -0.12,0 -0.21,0 -0.21,-0.15 0,-0.1 0.08,-0.1 0.21,-0.1 h 2.71 c 1.17,0 2.07,0.8 2.07,1.49 0,0.49 -0.45,0.92 -1.19,0.99 0.84,0.16 1.55,0.69 1.55,1.28 0,0.53 -0.54,0.99 -1.45,0.99 l -0.11,-0.25 c 0.71,0 0.87,-0.47 0.87,-0.73 0,-0.56 -0.63,-1.2 -1.57,-1.2 h -1.15 l -0.04,-0.2 h 1.48 c 0.66,0 0.91,-0.43 0.91,-0.83 0,-0.69 -0.71,-1.29 -1.55,-1.29 h -1.13 c -0.22,0 -0.22,0.01 -0.22,0.07 0,0.01 0,0.04 0.02,0.15 l 0.49,1.9 0.04,0.2 0.43,1.69 c 0.06,0.22 0.07,0.24 0.36,0.24 h 1.06 l 0.11,0.25 h -2.54 c -0.14,0 -0.23,0 -0.23,-0.15 0,-0.1 0.09,-0.1 0.23,-0.1 0,0 0.14,0 0.26,-0.01 0.15,-0.02 0.16,-0.03 0.16,-0.1 0,-0.02 0,-0.05 -0.02,-0.15 z"
   style="fill:#000000;fill-opacity:1;stroke:#000000;stroke-width:0;stroke-opacity:1"
   id="path2247" />
<path
   inkscape:connector-curvature="0"
   d="m 201.68,659.72 -0.01,0.17 -0.01,0.17 -0.02,0.16 -0.03,0.16 -0.04,0.17 -0.04,0.15 -0.05,0.16 -0.06,0.15 -0.07,0.14 -0.07,0.15 -0.08,0.13 -0.09,0.14 -0.09,0.13 -0.1,0.12 -0.11,0.12 -0.11,0.12 -0.11,0.11 -0.12,0.1 -0.13,0.1 -0.13,0.09 -0.13,0.09 -0.14,0.08 -0.15,0.07 -0.14,0.07 -0.15,0.06 -0.16,0.05 -0.16,0.04 -0.16,0.04 -0.16,0.03 -0.16,0.02 -0.17,0.01 -0.17,0.01 0.12,-0.25 h -0.25 v -2.93 -0.25 h 0.25 2.95 c -0.1,-1.7 -1.42,-2.86 -2.95,-2.94 v 2.94 h -0.25 v -2.94 c -1.55,0.08 -2.85,1.24 -2.95,2.94 h 2.95 v 0.25 h -2.95 c 0.1,1.67 1.39,2.85 2.95,2.93 h 0.25 c 1.56,-0.08 2.85,-1.27 2.95,-2.93 h -2.95 v 2.93 l -0.12,0.25 c -1.86,0 -3.33,-1.5 -3.33,-3.31 0,-1.83 1.49,-3.31 3.32,-3.31 1.85,0 3.33,1.5 3.33,3.31 z"
   style="fill:#000000;fill-opacity:1;stroke:#000000;stroke-width:0;stroke-opacity:1"
   id="path2249" />
<path
   inkscape:connector-curvature="0"
   d="m 209.52,661.25 v 0 0 l -0.01,0.01 v 0 0.01 0 0 0.01 h -0.01 v 0.01 0 0.01 l -0.01,0.01 v 0.01 0.01 h -0.01 v 0.01 0 0.01 0 l -0.01,0.01 v 0 0.01 0 0 0.01 0 0 0.01 c 0,0.01 0.18,0.15 0.29,0.23 l 1.74,1.34 c 0.94,0.68 1.33,0.72 1.63,0.75 0.08,0.01 0.18,0.02 0.18,0.2 0,0.04 -0.03,0.11 -0.11,0.11 -0.22,0 -0.47,-0.03 -0.71,-0.03 -0.36,0 -0.75,0.03 -1.11,0.03 -0.07,0 -0.19,0 -0.19,-0.2 0,-0.07 0.05,-0.1 0.12,-0.11 0.22,-0.02 0.31,-0.07 0.31,-0.21 0,-0.18 -0.3,-0.4 -0.36,-0.45 l -3.89,-2.98 0.8,3.19 c 0.09,0.35 0.11,0.45 0.84,0.45 0.25,0 0.34,0 0.34,0.2 0,0.09 -0.08,0.11 -0.14,0.11 -0.28,0 -1,-0.03 -1.28,-0.03 -0.29,0 -1,0.03 -1.28,0.03 -0.07,0 -0.2,0 -0.2,-0.19 0,-0.12 0.09,-0.12 0.29,-0.12 0.13,0 0.3,-0.01 0.42,-0.02 0.16,-0.02 0.22,-0.05 0.22,-0.16 0,-0.04 -0.01,-0.07 -0.04,-0.19 l -1.33,-5.33 c -0.1,-0.39 -0.12,-0.47 -0.91,-0.47 -0.17,0 -0.28,0 -0.28,-0.19 0,-0.12 0.12,-0.12 0.15,-0.12 0.28,0 0.99,0.04 1.27,0.04 0.21,0 0.43,-0.01 0.64,-0.01 0.22,0 0.43,-0.03 0.64,-0.03 0.07,0 0.2,0 0.2,0.2 0,0.11 -0.09,0.11 -0.28,0.11 -0.37,0 -0.65,0 -0.65,0.18 0,0.07 0.06,0.29 0.09,0.44 0.14,0.51 0.27,1.04 0.4,1.56 l 1.49,1.15 1.16,-2.67 c 0.12,-0.27 0.12,-0.29 0.12,-0.35 0,-0.3 -0.43,-0.31 -0.52,-0.31 -0.11,0 -0.22,0 -0.22,-0.2 0,-0.11 0.12,-0.11 0.14,-0.11 0.4,0 0.82,0.04 1.21,0.04 0.22,0 0.76,-0.04 0.98,-0.04 0.05,0 0.18,0 0.18,0.2 0,0.11 -0.11,0.11 -0.2,0.11 -0.41,0.01 -0.54,0.1 -0.69,0.45 z"
   style="fill:#000000;fill-opacity:1;stroke:#000000;stroke-width:0;stroke-opacity:1"
   id="path2251" />
<path
   inkscape:connector-curvature="0"
   d="m 218.8,660.54 v 0 0.01 0 0 0.01 h -0.01 v 0 0.01 0 0.01 0 0 l -0.01,0.01 v 0 0 0.01 0 h -0.01 v 0.01 0 h -0.01 v 0.01 h -0.01 v 0 0 h -0.01 v 0.01 h -0.01 v 0 h -0.01 v 0 0 0 h -0.01 v 0 0 c -0.05,0 -0.07,-0.02 -0.13,-0.08 l -0.51,-0.54 c -0.06,0.08 -0.45,0.62 -1.31,0.62 -1.7,0 -3.37,-1.5 -3.37,-3.07 0,-1.13 0.9,-1.96 2.15,-1.96 0.38,0 1.05,0.08 1.77,0.68 0.55,0.47 0.7,1.07 0.7,1.13 0,0.09 -0.08,0.09 -0.11,0.09 -0.1,0 -0.11,-0.03 -0.13,-0.11 -0.29,-0.95 -1.27,-1.54 -2.11,-1.54 -0.74,0 -1.57,0.4 -1.57,1.5 0,0.2 0.05,1.3 0.86,2.17 0.48,0.54 1.21,0.86 1.88,0.86 0.81,0 1.28,-0.59 1.28,-1.36 0,-0.2 -0.02,-0.25 -0.02,-0.29 0,-0.09 0.09,-0.09 0.13,-0.09 0.11,0 0.11,0.02 0.14,0.15 z"
   style="fill:#000000;fill-opacity:1;stroke:#000000;stroke-width:0;stroke-opacity:1"
   id="path2253" />
</g>
    <g
       transform="matrix(0.352778 0 0 0.352778 14.2478 4.77709)"
       ns0:version="1.0.1"
       ns0:texconverter="pdflatex"
       ns0:pdfconverter="inkscape"
       ns0:text="$\\Upsilon_A = K_A \\oplus \\sigma_A$"
       ns0:preamble="C:\\Users\\mt45\\AppData\\Roaming\\inkscape\\extensions\\textext\\default_packages.tex"
       ns0:scale="1.0"
       ns0:alignment="middle center"
       ns0:inkscapeversion="0.92.4"
       ns0:jacobian_sqrt="0.352778"
       style="fill-opacity:1;stroke:#000000;stroke-opacity:1;stroke-width:0"
       id="g138">
      <defs
         id="id-7f70f143-6dbf-4bf5-b58a-06dfecd3da3d"
         style="fill-opacity:1;stroke:#000000;stroke-opacity:1;stroke-width:0">
        <g
           id="id-cbc1fc22-3779-4b14-8562-e88638f8f169"
           style="fill-opacity:1;stroke:#000000;stroke-opacity:1;stroke-width:0">
          <symbol
             id="id-857a0178-15a0-4eb0-85aa-35076bfea518"
             overflow="visible"
             style="fill-opacity:1;stroke:#000000;stroke-opacity:1;stroke-width:0">
            <path
               id="id-2602ba9a-7f01-4664-9658-c9eddb6b7042"
               d=""
               style="stroke:#000000;fill-opacity:1;stroke-opacity:1;stroke-width:0" />
          </symbol>
          <symbol
             id="id-ca59dc63-1b2d-490d-8d52-43c858aba64b"
             overflow="visible"
             style="fill-opacity:1;stroke:#000000;stroke-opacity:1;stroke-width:0">
            <path
               id="id-5f69a94e-99a1-45a4-a8cc-a1c30db1ffbc"
               d="m 4.3125,-3.5 c 0,-0.953125 0.265625,-2.765625 1.578125,-2.765625 0.3125,0 0.921875,0.15625 0.984375,0.765625 0.015625,0.09375 0.015625,0.171875 0.15625,0.171875 0.15625,0 0.15625,-0.09375 0.15625,-0.171875 0,-0.59375 -0.40625,-1.53125 -1.3125,-1.53125 -1.03125,0 -1.765625,0.90625 -2,2.421875 C 3.796875,-5.03125 3.453125,-7.03125 1.859375,-7.03125 c -0.90625,0 -1.296875,0.9375 -1.296875,1.53125 0,0.078125 0,0.171875 0.15625,0.171875 0.140625,0 0.140625,-0.078125 0.15625,-0.140625 0.078125,-0.796875 0.921875,-0.796875 0.984375,-0.796875 1.375,0 1.5625,1.96875 1.5625,2.765625 v 2.71875 c 0,0.328125 0,0.46875 -0.9375,0.46875 H 2.15625 V 0 c 0.359375,-0.03125 1.296875,-0.03125 1.71875,-0.03125 0.40625,0 1.359375,0 1.71875,0.03125 V -0.3125 H 5.265625 C 4.3125,-0.3125 4.3125,-0.4375 4.3125,-0.78125 Z m 0,0"
               style="stroke:#000000;fill-opacity:1;stroke-opacity:1;stroke-width:0" />
          </symbol>
          <symbol
             id="id-fc9b9eb9-de96-4c26-a2c2-a5598752709d"
             overflow="visible"
             style="fill-opacity:1;stroke:#000000;stroke-opacity:1;stroke-width:0">
            <path
               id="id-f22d3889-22df-4e43-81f4-7a54b6fc64ed"
               d="m 6.84375,-3.265625 c 0.15625,0 0.34375,0 0.34375,-0.1875 C 7.1875,-3.65625 7,-3.65625 6.859375,-3.65625 h -5.96875 c -0.140625,0 -0.328125,0 -0.328125,0.203125 0,0.1875 0.1875,0.1875 0.328125,0.1875 z m 0.015625,1.9375 c 0.140625,0 0.328125,0 0.328125,-0.203125 0,-0.1875 -0.1875,-0.1875 -0.34375,-0.1875 H 0.890625 c -0.140625,0 -0.328125,0 -0.328125,0.1875 0,0.203125 0.1875,0.203125 0.328125,0.203125 z m 0,0"
               style="stroke:#000000;fill-opacity:1;stroke-opacity:1;stroke-width:0" />
          </symbol>
          <symbol
             id="id-352a7fa9-2c0c-44cf-804e-2aabe87007b4"
             overflow="visible"
             style="fill-opacity:1;stroke:#000000;stroke-opacity:1;stroke-width:0">
            <path
               id="id-3c4da586-b66c-41bc-aa71-e08dc546c45e"
               d=""
               style="stroke:#000000;fill-opacity:1;stroke-opacity:1;stroke-width:0" />
          </symbol>
          <symbol
             id="id-8e96703d-0d93-4af1-83d8-5c079399d302"
             overflow="visible"
             style="fill-opacity:1;stroke:#000000;stroke-opacity:1;stroke-width:0">
            <path
               id="id-06649b0c-84a3-41ef-a924-ff1365dd29dd"
               d="m 1.4375,-0.84375 c -0.25,0.390625 -0.46875,0.5625 -0.875,0.59375 -0.078125,0 -0.171875,0 -0.171875,0.140625 C 0.390625,-0.03125 0.453125,0 0.5,0 0.671875,0 0.90625,-0.03125 1.09375,-0.03125 1.3125,-0.03125 1.609375,0 1.8125,0 1.84375,0 1.953125,0 1.953125,-0.15625 1.953125,-0.25 1.859375,-0.25 1.828125,-0.25 1.78125,-0.265625 1.53125,-0.265625 1.53125,-0.453125 c 0,-0.09375 0.0625,-0.203125 0.09375,-0.265625 l 0.5625,-0.875 h 2 L 4.34375,-0.4375 C 4.328125,-0.359375 4.28125,-0.25 3.875,-0.25 c -0.09375,0 -0.1875,0 -0.1875,0.15625 C 3.6875,-0.0625 3.703125,0 3.796875,0 4,0 4.5,-0.03125 4.703125,-0.03125 c 0.125,0 0.28125,0.015625 0.40625,0.015625 C 5.234375,-0.015625 5.375,0 5.5,0 5.59375,0 5.640625,-0.0625 5.640625,-0.140625 5.640625,-0.25 5.5625,-0.25 5.453125,-0.25 c -0.40625,0 -0.421875,-0.0625 -0.4375,-0.21875 l -0.625,-4.3125 C 4.375,-4.921875 4.359375,-4.96875 4.234375,-4.96875 4.09375,-4.96875 4.0625,-4.90625 4,-4.8125 Z m 0.921875,-1 L 3.8125,-4.125 4.140625,-1.84375 Z m 0,0"
               style="stroke:#000000;fill-opacity:1;stroke-opacity:1;stroke-width:0" />
          </symbol>
          <symbol
             id="id-48f15621-58cd-4bdd-addb-3f99d99f7f71"
             overflow="visible"
             style="fill-opacity:1;stroke:#000000;stroke-opacity:1;stroke-width:0">
            <path
               id="id-295ef951-b448-4e66-a85f-02a34a37c21a"
               d=""
               style="stroke:#000000;fill-opacity:1;stroke-opacity:1;stroke-width:0" />
          </symbol>
          <symbol
             id="id-627f89e4-1ec3-417e-9b42-2bd53232e0a8"
             overflow="visible"
             style="fill-opacity:1;stroke:#000000;stroke-opacity:1;stroke-width:0">
            <path
               id="id-69c4373c-4cf4-4ca4-9203-b9666a706737"
               d="M 5.078125,-4.03125 C 5.0625,-4.0625 5.03125,-4.140625 5.03125,-4.171875 c 0,0 0.171875,-0.140625 0.28125,-0.21875 l 1.75,-1.34375 C 8,-6.4375 8.390625,-6.46875 8.6875,-6.5 8.765625,-6.515625 8.859375,-6.515625 8.859375,-6.703125 8.859375,-6.734375 8.828125,-6.8125 8.75,-6.8125 c -0.21875,0 -0.46875,0.03125 -0.703125,0.03125 -0.359375,0 -0.75,-0.03125 -1.109375,-0.03125 -0.0625,0 -0.1875,0 -0.1875,0.203125 0,0.0625 0.046875,0.09375 0.125,0.109375 0.21875,0.015625 0.296875,0.0625 0.296875,0.203125 0,0.1875 -0.296875,0.421875 -0.359375,0.46875 L 2.9375,-2.84375 3.734375,-6.046875 C 3.8125,-6.40625 3.84375,-6.5 4.5625,-6.5 c 0.25,0 0.34375,0 0.34375,-0.203125 0,-0.078125 -0.078125,-0.109375 -0.140625,-0.109375 -0.28125,0 -1,0.03125 -1.28125,0.03125 C 3.203125,-6.78125 2.5,-6.8125 2.203125,-6.8125 2.140625,-6.8125 2,-6.8125 2,-6.625 2,-6.5 2.09375,-6.5 2.296875,-6.5 c 0.125,0 0.3125,0.015625 0.421875,0.015625 0.15625,0.03125 0.21875,0.046875 0.21875,0.171875 0,0.03125 0,0.0625 -0.03125,0.1875 L 1.5625,-0.78125 c -0.09375,0.390625 -0.109375,0.46875 -0.90625,0.46875 -0.171875,0 -0.28125,0 -0.28125,0.1875 C 0.375,0 0.5,0 0.53125,0 0.8125,0 1.515625,-0.03125 1.796875,-0.03125 2,-0.03125 2.21875,-0.015625 2.4375,-0.015625 2.65625,-0.015625 2.875,0 3.078125,0 3.15625,0 3.28125,0 3.28125,-0.203125 3.28125,-0.3125 3.1875,-0.3125 3,-0.3125 c -0.375,0 -0.640625,0 -0.640625,-0.171875 0,-0.078125 0.046875,-0.296875 0.078125,-0.4375 C 2.578125,-1.453125 2.71875,-1.96875 2.84375,-2.5 l 1.484375,-1.15625 1.15625,2.6875 c 0.125,0.265625 0.125,0.296875 0.125,0.34375 0,0.3125 -0.4375,0.3125 -0.53125,0.3125 -0.109375,0 -0.21875,0 -0.21875,0.203125 C 4.859375,0 4.984375,0 5,0 5.40625,0 5.828125,-0.03125 6.21875,-0.03125 6.4375,-0.03125 6.984375,0 7.203125,0 7.25,0 7.375,0 7.375,-0.203125 7.375,-0.3125 7.265625,-0.3125 7.171875,-0.3125 c -0.40625,0 -0.53125,-0.09375 -0.6875,-0.4375 z m 0,0"
               style="stroke:#000000;fill-opacity:1;stroke-opacity:1;stroke-width:0" />
          </symbol>
          <symbol
             id="id-34be9499-fbed-4fb3-abf2-d32fe47980f2"
             overflow="visible"
             style="fill-opacity:1;stroke:#000000;stroke-opacity:1;stroke-width:0">
            <path
               id="id-66c2a2ca-a4e0-455b-9007-27ce9e83aa63"
               d="m 5.15625,-3.71875 c 0.140625,0 0.5,0 0.5,-0.34375 0,-0.234375 -0.21875,-0.234375 -0.390625,-0.234375 h -2.28125 c -1.5,0 -2.609375,1.640625 -2.609375,2.828125 0,0.875 0.59375,1.578125 1.5,1.578125 1.171875,0 2.5,-1.203125 2.5,-2.734375 0,-0.171875 0,-0.65625 -0.3125,-1.09375 z M 1.890625,-0.109375 C 1.390625,-0.109375 1,-0.46875 1,-1.1875 c 0,-0.296875 0.109375,-1.109375 0.46875,-1.703125 0.421875,-0.6875 1.015625,-0.828125 1.359375,-0.828125 0.828125,0 0.90625,0.65625 0.90625,0.96875 0,0.46875 -0.203125,1.28125 -0.53125,1.796875 -0.390625,0.578125 -0.9375,0.84375 -1.3125,0.84375 z m 0,0"
               style="stroke:#000000;fill-opacity:1;stroke-opacity:1;stroke-width:0" />
          </symbol>
          <symbol
             id="id-fd5b97e3-4851-4cf8-91de-df6095b5a021"
             overflow="visible"
             style="fill-opacity:1;stroke:#000000;stroke-opacity:1;stroke-width:0">
            <path
               id="id-15b2a913-b516-459f-812e-58951cc8b772"
               d=""
               style="stroke:#000000;fill-opacity:1;stroke-opacity:1;stroke-width:0" />
          </symbol>
          <symbol
             id="id-8c65f2c1-2d00-4017-8a08-cda7a91e0812"
             overflow="visible"
             style="fill-opacity:1;stroke:#000000;stroke-opacity:1;stroke-width:0">
            <path
               id="id-fec2c6e0-16cb-4d54-ad7d-318700f7f299"
               d="m 7.203125,-2.5 c 0,-1.828125 -1.5,-3.3125 -3.328125,-3.3125 -1.84375,0 -3.328125,1.5 -3.328125,3.3125 0,1.84375 1.5,3.328125 3.328125,3.328125 1.84375,0 3.328125,-1.5 3.328125,-3.328125 z M 0.796875,-2.625 C 0.890625,-4.296875 2.1875,-5.484375 3.75,-5.5625 V -2.625 Z M 4,-5.5625 c 1.5625,0.078125 2.84375,1.28125 2.953125,2.9375 H 4 Z M 3.75,0.578125 C 2.203125,0.5 0.890625,-0.671875 0.796875,-2.375 H 3.75 Z M 6.953125,-2.375 C 6.84375,-0.671875 5.53125,0.5 4,0.578125 V -2.375 Z m 0,0"
               style="stroke:#000000;fill-opacity:1;stroke-opacity:1;stroke-width:0" />
          </symbol>
        </g>
      </defs>
      <g
         transform="translate(-149.275, -127.734)"
         id="id-4c6fe734-83f1-4903-a998-d5151d404ffc"
         style="fill-opacity:1;stroke:#000000;stroke-opacity:1;stroke-width:0">
        <g
           id="id-0d7316b8-bbb6-4b4f-8027-ab990417da5e"
           style="fill:#000000;fill-opacity:1;stroke:#000000;stroke-opacity:1;stroke-width:0">
          <g
             transform="translate(148.712, 134.765)"
             style="fill-opacity:1;stroke:#000000;stroke-opacity:1;stroke-width:0"
             id="g106">
            <path
               id="id-306e9a31-33bf-410e-92d8-e48277da87ad"
               d="m 4.3125,-3.5 c 0,-0.953125 0.265625,-2.765625 1.578125,-2.765625 0.3125,0 0.921875,0.15625 0.984375,0.765625 0.015625,0.09375 0.015625,0.171875 0.15625,0.171875 0.15625,0 0.15625,-0.09375 0.15625,-0.171875 0,-0.59375 -0.40625,-1.53125 -1.3125,-1.53125 -1.03125,0 -1.765625,0.90625 -2,2.421875 C 3.796875,-5.03125 3.453125,-7.03125 1.859375,-7.03125 c -0.90625,0 -1.296875,0.9375 -1.296875,1.53125 0,0.078125 0,0.171875 0.15625,0.171875 0.140625,0 0.140625,-0.078125 0.15625,-0.140625 0.078125,-0.796875 0.921875,-0.796875 0.984375,-0.796875 1.375,0 1.5625,1.96875 1.5625,2.765625 v 2.71875 c 0,0.328125 0,0.46875 -0.9375,0.46875 H 2.15625 V 0 c 0.359375,-0.03125 1.296875,-0.03125 1.71875,-0.03125 0.40625,0 1.359375,0 1.71875,0.03125 V -0.3125 H 5.265625 C 4.3125,-0.3125 4.3125,-0.4375 4.3125,-0.78125 Z m 0,0"
               style="stroke:#000000;fill-opacity:1;stroke-opacity:1;stroke-width:0" />
          </g>
        </g>
        <g
           id="id-79adae1b-bc52-4fc4-8400-576eff044c43"
           style="fill:#000000;fill-opacity:1;stroke:#000000;stroke-opacity:1;stroke-width:0">
          <g
             transform="translate(156.461, 136.259)"
             style="fill-opacity:1;stroke:#000000;stroke-opacity:1;stroke-width:0"
             id="g110">
            <path
               id="id-6825c917-35b8-4d61-a82f-cea0a00a1de6"
               d="m 1.4375,-0.84375 c -0.25,0.390625 -0.46875,0.5625 -0.875,0.59375 -0.078125,0 -0.171875,0 -0.171875,0.140625 C 0.390625,-0.03125 0.453125,0 0.5,0 0.671875,0 0.90625,-0.03125 1.09375,-0.03125 1.3125,-0.03125 1.609375,0 1.8125,0 1.84375,0 1.953125,0 1.953125,-0.15625 1.953125,-0.25 1.859375,-0.25 1.828125,-0.25 1.78125,-0.265625 1.53125,-0.265625 1.53125,-0.453125 c 0,-0.09375 0.0625,-0.203125 0.09375,-0.265625 l 0.5625,-0.875 h 2 L 4.34375,-0.4375 C 4.328125,-0.359375 4.28125,-0.25 3.875,-0.25 c -0.09375,0 -0.1875,0 -0.1875,0.15625 C 3.6875,-0.0625 3.703125,0 3.796875,0 4,0 4.5,-0.03125 4.703125,-0.03125 c 0.125,0 0.28125,0.015625 0.40625,0.015625 C 5.234375,-0.015625 5.375,0 5.5,0 5.59375,0 5.640625,-0.0625 5.640625,-0.140625 5.640625,-0.25 5.5625,-0.25 5.453125,-0.25 c -0.40625,0 -0.421875,-0.0625 -0.4375,-0.21875 l -0.625,-4.3125 C 4.375,-4.921875 4.359375,-4.96875 4.234375,-4.96875 4.09375,-4.96875 4.0625,-4.90625 4,-4.8125 Z m 0.921875,-1 L 3.8125,-4.125 4.140625,-1.84375 Z m 0,0"
               style="stroke:#000000;fill-opacity:1;stroke-opacity:1;stroke-width:0" />
          </g>
        </g>
        <g
           id="id-41197951-b111-446e-94a8-08214717214c"
           style="fill:#000000;fill-opacity:1;stroke:#000000;stroke-opacity:1;stroke-width:0">
          <g
             transform="translate(165.718, 134.765)"
             style="fill-opacity:1;stroke:#000000;stroke-opacity:1;stroke-width:0"
             id="g114">
            <path
               id="id-9f1dccab-4555-46f9-9321-9566a95f8872"
               d="m 6.84375,-3.265625 c 0.15625,0 0.34375,0 0.34375,-0.1875 C 7.1875,-3.65625 7,-3.65625 6.859375,-3.65625 h -5.96875 c -0.140625,0 -0.328125,0 -0.328125,0.203125 0,0.1875 0.1875,0.1875 0.328125,0.1875 z m 0.015625,1.9375 c 0.140625,0 0.328125,0 0.328125,-0.203125 0,-0.1875 -0.1875,-0.1875 -0.34375,-0.1875 H 0.890625 c -0.140625,0 -0.328125,0 -0.328125,0.1875 0,0.203125 0.1875,0.203125 0.328125,0.203125 z m 0,0"
               style="stroke:#000000;fill-opacity:1;stroke-opacity:1;stroke-width:0" />
          </g>
        </g>
        <g
           id="id-8d9b8e0d-e312-4088-8c6d-e79142ceae00"
           style="fill:#000000;fill-opacity:1;stroke:#000000;stroke-opacity:1;stroke-width:0">
          <g
             transform="translate(176.234, 134.765)"
             style="fill-opacity:1;stroke:#000000;stroke-opacity:1;stroke-width:0"
             id="g118">
            <path
               id="id-48382285-7c95-4851-b898-6f43fc3bd6a5"
               d="M 5.078125,-4.03125 C 5.0625,-4.0625 5.03125,-4.140625 5.03125,-4.171875 c 0,0 0.171875,-0.140625 0.28125,-0.21875 l 1.75,-1.34375 C 8,-6.4375 8.390625,-6.46875 8.6875,-6.5 8.765625,-6.515625 8.859375,-6.515625 8.859375,-6.703125 8.859375,-6.734375 8.828125,-6.8125 8.75,-6.8125 c -0.21875,0 -0.46875,0.03125 -0.703125,0.03125 -0.359375,0 -0.75,-0.03125 -1.109375,-0.03125 -0.0625,0 -0.1875,0 -0.1875,0.203125 0,0.0625 0.046875,0.09375 0.125,0.109375 0.21875,0.015625 0.296875,0.0625 0.296875,0.203125 0,0.1875 -0.296875,0.421875 -0.359375,0.46875 L 2.9375,-2.84375 3.734375,-6.046875 C 3.8125,-6.40625 3.84375,-6.5 4.5625,-6.5 c 0.25,0 0.34375,0 0.34375,-0.203125 0,-0.078125 -0.078125,-0.109375 -0.140625,-0.109375 -0.28125,0 -1,0.03125 -1.28125,0.03125 C 3.203125,-6.78125 2.5,-6.8125 2.203125,-6.8125 2.140625,-6.8125 2,-6.8125 2,-6.625 2,-6.5 2.09375,-6.5 2.296875,-6.5 c 0.125,0 0.3125,0.015625 0.421875,0.015625 0.15625,0.03125 0.21875,0.046875 0.21875,0.171875 0,0.03125 0,0.0625 -0.03125,0.1875 L 1.5625,-0.78125 c -0.09375,0.390625 -0.109375,0.46875 -0.90625,0.46875 -0.171875,0 -0.28125,0 -0.28125,0.1875 C 0.375,0 0.5,0 0.53125,0 0.8125,0 1.515625,-0.03125 1.796875,-0.03125 2,-0.03125 2.21875,-0.015625 2.4375,-0.015625 2.65625,-0.015625 2.875,0 3.078125,0 3.15625,0 3.28125,0 3.28125,-0.203125 3.28125,-0.3125 3.1875,-0.3125 3,-0.3125 c -0.375,0 -0.640625,0 -0.640625,-0.171875 0,-0.078125 0.046875,-0.296875 0.078125,-0.4375 C 2.578125,-1.453125 2.71875,-1.96875 2.84375,-2.5 l 1.484375,-1.15625 1.15625,2.6875 c 0.125,0.265625 0.125,0.296875 0.125,0.34375 0,0.3125 -0.4375,0.3125 -0.53125,0.3125 -0.109375,0 -0.21875,0 -0.21875,0.203125 C 4.859375,0 4.984375,0 5,0 5.40625,0 5.828125,-0.03125 6.21875,-0.03125 6.4375,-0.03125 6.984375,0 7.203125,0 7.25,0 7.375,0 7.375,-0.203125 7.375,-0.3125 7.265625,-0.3125 7.171875,-0.3125 c -0.40625,0 -0.53125,-0.09375 -0.6875,-0.4375 z m 0,0"
               style="stroke:#000000;fill-opacity:1;stroke-opacity:1;stroke-width:0" />
          </g>
        </g>
        <g
           id="id-ddec9913-9ad9-45f4-9e75-83dbe3763c61"
           style="fill:#000000;fill-opacity:1;stroke:#000000;stroke-opacity:1;stroke-width:0">
          <g
             transform="translate(184.695, 136.259)"
             style="fill-opacity:1;stroke:#000000;stroke-opacity:1;stroke-width:0"
             id="g122">
            <path
               id="id-0ef6ecaf-17a1-45eb-b380-6b35f1493b42"
               d="m 1.4375,-0.84375 c -0.25,0.390625 -0.46875,0.5625 -0.875,0.59375 -0.078125,0 -0.171875,0 -0.171875,0.140625 C 0.390625,-0.03125 0.453125,0 0.5,0 0.671875,0 0.90625,-0.03125 1.09375,-0.03125 1.3125,-0.03125 1.609375,0 1.8125,0 1.84375,0 1.953125,0 1.953125,-0.15625 1.953125,-0.25 1.859375,-0.25 1.828125,-0.25 1.78125,-0.265625 1.53125,-0.265625 1.53125,-0.453125 c 0,-0.09375 0.0625,-0.203125 0.09375,-0.265625 l 0.5625,-0.875 h 2 L 4.34375,-0.4375 C 4.328125,-0.359375 4.28125,-0.25 3.875,-0.25 c -0.09375,0 -0.1875,0 -0.1875,0.15625 C 3.6875,-0.0625 3.703125,0 3.796875,0 4,0 4.5,-0.03125 4.703125,-0.03125 c 0.125,0 0.28125,0.015625 0.40625,0.015625 C 5.234375,-0.015625 5.375,0 5.5,0 5.59375,0 5.640625,-0.0625 5.640625,-0.140625 5.640625,-0.25 5.5625,-0.25 5.453125,-0.25 c -0.40625,0 -0.421875,-0.0625 -0.4375,-0.21875 l -0.625,-4.3125 C 4.375,-4.921875 4.359375,-4.96875 4.234375,-4.96875 4.09375,-4.96875 4.0625,-4.90625 4,-4.8125 Z m 0.921875,-1 L 3.8125,-4.125 4.140625,-1.84375 Z m 0,0"
               style="stroke:#000000;fill-opacity:1;stroke-opacity:1;stroke-width:0" />
          </g>
        </g>
        <g
           id="id-1204be61-09b6-4246-94cc-1e2733631880"
           style="fill:#000000;fill-opacity:1;stroke:#000000;stroke-opacity:1;stroke-width:0">
          <g
             transform="translate(193.399, 134.765)"
             style="fill-opacity:1;stroke:#000000;stroke-opacity:1;stroke-width:0"
             id="g126">
            <path
               id="id-e80f002b-11b0-4974-aac6-38b6751cdee8"
               d="m 7.203125,-2.5 c 0,-1.828125 -1.5,-3.3125 -3.328125,-3.3125 -1.84375,0 -3.328125,1.5 -3.328125,3.3125 0,1.84375 1.5,3.328125 3.328125,3.328125 1.84375,0 3.328125,-1.5 3.328125,-3.328125 z M 0.796875,-2.625 C 0.890625,-4.296875 2.1875,-5.484375 3.75,-5.5625 V -2.625 Z M 4,-5.5625 c 1.5625,0.078125 2.84375,1.28125 2.953125,2.9375 H 4 Z M 3.75,0.578125 C 2.203125,0.5 0.890625,-0.671875 0.796875,-2.375 H 3.75 Z M 6.953125,-2.375 C 6.84375,-0.671875 5.53125,0.5 4,0.578125 V -2.375 Z m 0,0"
               style="stroke:#000000;fill-opacity:1;stroke-opacity:1;stroke-width:0" />
          </g>
        </g>
        <g
           id="id-203e9f83-be7a-4548-a66e-1bc62dd9de94"
           style="fill:#000000;fill-opacity:1;stroke:#000000;stroke-opacity:1;stroke-width:0">
          <g
             transform="translate(203.361, 134.765)"
             style="fill-opacity:1;stroke:#000000;stroke-opacity:1;stroke-width:0"
             id="g130">
            <path
               id="id-744dae00-4981-4b1a-b203-4e5a96931b0e"
               d="m 5.15625,-3.71875 c 0.140625,0 0.5,0 0.5,-0.34375 0,-0.234375 -0.21875,-0.234375 -0.390625,-0.234375 h -2.28125 c -1.5,0 -2.609375,1.640625 -2.609375,2.828125 0,0.875 0.59375,1.578125 1.5,1.578125 1.171875,0 2.5,-1.203125 2.5,-2.734375 0,-0.171875 0,-0.65625 -0.3125,-1.09375 z M 1.890625,-0.109375 C 1.390625,-0.109375 1,-0.46875 1,-1.1875 c 0,-0.296875 0.109375,-1.109375 0.46875,-1.703125 0.421875,-0.6875 1.015625,-0.828125 1.359375,-0.828125 0.828125,0 0.90625,0.65625 0.90625,0.96875 0,0.46875 -0.203125,1.28125 -0.53125,1.796875 -0.390625,0.578125 -0.9375,0.84375 -1.3125,0.84375 z m 0,0"
               style="stroke:#000000;fill-opacity:1;stroke-opacity:1;stroke-width:0" />
          </g>
        </g>
        <g
           id="id-342dbcdc-1a0f-4a39-8f9e-50181c5907b5"
           style="fill:#000000;fill-opacity:1;stroke:#000000;stroke-opacity:1;stroke-width:0">
          <g
             transform="translate(209.054, 136.259)"
             style="fill-opacity:1;stroke:#000000;stroke-opacity:1;stroke-width:0"
             id="g134">
            <path
               id="id-ec1bd83a-aaca-48d7-8e29-48cb376bf66f"
               d="m 1.4375,-0.84375 c -0.25,0.390625 -0.46875,0.5625 -0.875,0.59375 -0.078125,0 -0.171875,0 -0.171875,0.140625 C 0.390625,-0.03125 0.453125,0 0.5,0 0.671875,0 0.90625,-0.03125 1.09375,-0.03125 1.3125,-0.03125 1.609375,0 1.8125,0 1.84375,0 1.953125,0 1.953125,-0.15625 1.953125,-0.25 1.859375,-0.25 1.828125,-0.25 1.78125,-0.265625 1.53125,-0.265625 1.53125,-0.453125 c 0,-0.09375 0.0625,-0.203125 0.09375,-0.265625 l 0.5625,-0.875 h 2 L 4.34375,-0.4375 C 4.328125,-0.359375 4.28125,-0.25 3.875,-0.25 c -0.09375,0 -0.1875,0 -0.1875,0.15625 C 3.6875,-0.0625 3.703125,0 3.796875,0 4,0 4.5,-0.03125 4.703125,-0.03125 c 0.125,0 0.28125,0.015625 0.40625,0.015625 C 5.234375,-0.015625 5.375,0 5.5,0 5.59375,0 5.640625,-0.0625 5.640625,-0.140625 5.640625,-0.25 5.5625,-0.25 5.453125,-0.25 c -0.40625,0 -0.421875,-0.0625 -0.4375,-0.21875 l -0.625,-4.3125 C 4.375,-4.921875 4.359375,-4.96875 4.234375,-4.96875 4.09375,-4.96875 4.0625,-4.90625 4,-4.8125 Z m 0.921875,-1 L 3.8125,-4.125 4.140625,-1.84375 Z m 0,0"
               style="stroke:#000000;fill-opacity:1;stroke-opacity:1;stroke-width:0" />
          </g>
        </g>
      </g>
    </g>
  </g>
  <g
     style="display:inline"
     transform="translate(20.44708,-110.20549)"
     id="layer1"
     inkscape:groupmode="layer"
     inkscape:label="Players">
    <g
       transform="translate(0,-0.42460703)"
       id="g1022">
      <rect
         style="opacity:1;fill:#f0f0f0;fill-opacity:1;stroke:#000000;stroke-width:0.12195123;stroke-miterlimit:4;stroke-dasharray:none;stroke-dashoffset:0;stroke-opacity:1"
         id="rect5052"
         width="9.2200174"
         height="9.2200174"
         x="-20.386105"
         y="124.39166" />
      <text
         xml:space="preserve"
         style="font-style:normal;font-variant:normal;font-weight:normal;font-stretch:normal;font-size:12.6729px;line-height:125%;font-family:Garamond;-inkscape-font-specification:Garamond;letter-spacing:0px;word-spacing:0px;fill:#000000;fill-opacity:1;stroke:none;stroke-width:0.322663px;stroke-linecap:butt;stroke-linejoin:miter;stroke-opacity:1"
         x="-19.194302"
         y="132.38712"
         id="text5041-4"><tspan
           sodipodi:role="line"
           id="tspan5039-4"
           x="-19.194302"
           y="132.38712"
           style="font-size:10.3252px;stroke-width:0.322663px">A</tspan></text>
    </g>
    <rect
       y="110.26646"
       x="17.137012"
       height="9.2200174"
       width="9.2200174"
       id="rect5052-6"
       style="opacity:1;fill:#f08c8c;fill-opacity:1;stroke:#000000;stroke-width:0.12195123;stroke-miterlimit:4;stroke-dasharray:none;stroke-dashoffset:0;stroke-opacity:1" />
    <text
       id="text5041-4-6"
       y="118.18655"
       x="18.787863"
       style="font-style:normal;font-variant:normal;font-weight:normal;font-stretch:normal;font-size:12.6729px;line-height:125%;font-family:Garamond;-inkscape-font-specification:Garamond;letter-spacing:0px;word-spacing:0px;fill:#000000;fill-opacity:1;stroke:none;stroke-width:0.322663px;stroke-linecap:butt;stroke-linejoin:miter;stroke-opacity:1"
       xml:space="preserve"><tspan
         style="font-size:10.3252px;stroke-width:0.322663px"
         y="118.18655"
         x="18.787863"
         id="tspan5039-4-0"
         sodipodi:role="line">B</tspan></text>
    <g
       id="g928">
      <rect
         y="137.58142"
         x="17.137012"
         height="9.2200174"
         width="9.2200174"
         id="rect985"
         style="opacity:1;fill:#f0f0f0;fill-opacity:1;stroke:#000000;stroke-width:0.12195123;stroke-miterlimit:4;stroke-dasharray:none;stroke-dashoffset:0;stroke-opacity:1" />
      <text
         xml:space="preserve"
         style="font-style:normal;font-variant:normal;font-weight:normal;font-stretch:normal;font-size:12.6729px;line-height:125%;font-family:Garamond;-inkscape-font-specification:Garamond;letter-spacing:0px;word-spacing:0px;fill:#000000;fill-opacity:1;stroke:none;stroke-width:0.322663px;stroke-linecap:butt;stroke-linejoin:miter;stroke-opacity:1"
         x="18.462681"
         y="145.47124"
         id="text5041-4-9"><tspan
           sodipodi:role="line"
           id="tspan5039-4-6"
           x="18.462681"
           y="145.47124"
           style="font-size:10.3252px;stroke-width:0.322663px">C</tspan></text>
    </g>
    <rect
       style="opacity:1;fill:#f08c8c;fill-opacity:1;stroke:#000000;stroke-width:0.12195123;stroke-miterlimit:4;stroke-dasharray:none;stroke-dashoffset:0;stroke-opacity:1"
       id="rect891"
       width="9.2200174"
       height="9.2200174"
       x="28.40662"
       y="123.96706" />
    <text
       xml:space="preserve"
       style="font-style:normal;font-variant:normal;font-weight:normal;font-stretch:normal;font-size:12.6729px;line-height:125%;font-family:Garamond;-inkscape-font-specification:Garamond;letter-spacing:0px;word-spacing:0px;fill:#000000;fill-opacity:1;stroke:none;stroke-width:0.322663px;stroke-linecap:butt;stroke-linejoin:miter;stroke-opacity:1"
       x="29.62615"
       y="131.75328"
       id="text895"><tspan
         sodipodi:role="line"
         id="tspan893"
         x="29.62615"
         y="131.75328"
         style="font-size:10.3252px;stroke-width:0.322663px">E</tspan></text>
  </g>
</svg>
