<?xml version="1.0" encoding="UTF-8" standalone="no"?>
<!-- Created with Inkscape (http://www.inkscape.org/) -->

<svg
   xmlns:ns0="http://www.iki.fi/pav/software/textext/"
   xmlns:dc="http://purl.org/dc/elements/1.1/"
   xmlns:cc="http://creativecommons.org/ns#"
   xmlns:rdf="http://www.w3.org/1999/02/22-rdf-syntax-ns#"
   xmlns:svg="http://www.w3.org/2000/svg"
   xmlns="http://www.w3.org/2000/svg"
   xmlns:sodipodi="http://sodipodi.sourceforge.net/DTD/sodipodi-0.dtd"
   xmlns:inkscape="http://www.inkscape.org/namespaces/inkscape"
   width="8.6224785cm"
   height="4.5237856cm"
   viewBox="0 0 70.704326 37.095041"
   version="1.1"
   id="svg8"
   inkscape:version="0.92.4 (5da689c313, 2019-01-14)"
   sodipodi:docname="BS0.svg"
   inkscape:export-filename="C:\Users\Matthew Thornton\OneDrive - University of St Andrews\Year 2\Summer 2018\Theory cryptography paper\Images\Fig3.png"
   inkscape:export-xdpi="150"
   inkscape:export-ydpi="150">
  <sodipodi:namedview
     id="base"
     pagecolor="#ffffff"
     bordercolor="#666666"
     borderopacity="1.0"
     inkscape:pageopacity="0.0"
     inkscape:pageshadow="2"
     inkscape:zoom="2"
     inkscape:cx="-23.955151"
     inkscape:cy="93.46855"
     inkscape:document-units="mm"
     inkscape:current-layer="layer2"
     showgrid="false"
     units="cm"
     inkscape:window-width="1920"
     inkscape:window-height="1013"
     inkscape:window-x="-9"
     inkscape:window-y="-9"
     inkscape:window-maximized="1"
     inkscape:snap-global="false"
     fit-margin-top="0"
     fit-margin-left="0"
     fit-margin-right="0"
     fit-margin-bottom="0">
    <inkscape:grid
       originy="5.7301424"
       originx="-11.348535"
       id="grid4485"
       type="xygrid" />
  </sodipodi:namedview>
  <defs
     id="defs2">
    <inkscape:path-effect
       effect="spiro"
       id="path-effect4584"
       is_visible="true" />
    <inkscape:path-effect
       effect="simplify"
       id="path-effect4582"
       is_visible="true"
       steps="1"
       threshold="0.00120879"
       smooth_angles="360"
       helper_size="0"
       simplify_individual_paths="false"
       simplify_just_coalesce="false"
       simplifyindividualpaths="false"
       simplifyJustCoalesce="false" />
    <marker
       inkscape:stockid="Arrow2Mend"
       orient="auto"
       refY="0"
       refX="0"
       id="Arrow2Mend"
       style="overflow:visible"
       inkscape:isstock="true">
      <path
         id="path4782"
         style="fill:#000000;fill-opacity:1;fill-rule:evenodd;stroke:#000000;stroke-width:0.625;stroke-linejoin:round;stroke-opacity:1"
         d="M 8.7185878,4.0337352 -2.2072895,0.01601326 8.7185884,-4.0017078 c -1.7454984,2.3720609 -1.7354408,5.6174519 -6e-7,8.035443 z"
         transform="scale(-0.6)"
         inkscape:connector-curvature="0" />
    </marker>
    <marker
       inkscape:stockid="Arrow2Send"
       orient="auto"
       refY="0"
       refX="0"
       id="Arrow2Send"
       style="overflow:visible"
       inkscape:isstock="true">
      <path
         id="path4788"
         style="fill:#000000;fill-opacity:1;fill-rule:evenodd;stroke:#000000;stroke-width:0.625;stroke-linejoin:round;stroke-opacity:1"
         d="M 8.7185878,4.0337352 -2.2072895,0.01601326 8.7185884,-4.0017078 c -1.7454984,2.3720609 -1.7354408,5.6174519 -6e-7,8.035443 z"
         transform="matrix(-0.3,0,0,-0.3,0.69,0)"
         inkscape:connector-curvature="0" />
    </marker>
    <marker
       inkscape:stockid="Arrow2Lend"
       orient="auto"
       refY="0"
       refX="0"
       id="Arrow2Lend"
       style="overflow:visible"
       inkscape:isstock="true">
      <path
         id="path4776"
         style="fill:#000000;fill-opacity:1;fill-rule:evenodd;stroke:#000000;stroke-width:0.625;stroke-linejoin:round;stroke-opacity:1"
         d="M 8.7185878,4.0337352 -2.2072895,0.01601326 8.7185884,-4.0017078 c -1.7454984,2.3720609 -1.7354408,5.6174519 -6e-7,8.035443 z"
         transform="matrix(-1.1,0,0,-1.1,-1.1,0)"
         inkscape:connector-curvature="0" />
    </marker>
    <marker
       inkscape:stockid="Arrow2Mend"
       orient="auto"
       refY="0"
       refX="0"
       id="Arrow2Mend-0"
       style="overflow:visible"
       inkscape:isstock="true">
      <path
         inkscape:connector-curvature="0"
         id="path4782-7"
         style="fill:#000000;fill-opacity:1;fill-rule:evenodd;stroke:#000000;stroke-width:0.625;stroke-linejoin:round;stroke-opacity:1"
         d="M 8.7185878,4.0337352 -2.2072895,0.01601326 8.7185884,-4.0017078 c -1.7454984,2.3720609 -1.7354408,5.6174519 -6e-7,8.035443 z"
         transform="scale(-0.6)" />
    </marker>
    <marker
       inkscape:stockid="Arrow2Mend"
       orient="auto"
       refY="0"
       refX="0"
       id="Arrow2Mend-0-1"
       style="overflow:visible"
       inkscape:isstock="true">
      <path
         inkscape:connector-curvature="0"
         id="path4782-7-2"
         style="fill:#000000;fill-opacity:1;fill-rule:evenodd;stroke:#000000;stroke-width:0.625;stroke-linejoin:round;stroke-opacity:1"
         d="M 8.7185878,4.0337352 -2.2072895,0.01601326 8.7185884,-4.0017078 c -1.7454984,2.3720609 -1.7354408,5.6174519 -6e-7,8.035443 z"
         transform="scale(-0.6)" />
    </marker>
    <marker
       inkscape:stockid="Arrow2Mend"
       orient="auto"
       refY="0"
       refX="0"
       id="Arrow2Mend-9"
       style="overflow:visible"
       inkscape:isstock="true">
      <path
         inkscape:connector-curvature="0"
         id="path4782-2"
         style="fill:#000000;fill-opacity:1;fill-rule:evenodd;stroke:#000000;stroke-width:0.625;stroke-linejoin:round;stroke-opacity:1"
         d="M 8.7185878,4.0337352 -2.2072895,0.01601326 8.7185884,-4.0017078 c -1.7454984,2.3720609 -1.7354408,5.6174519 -6e-7,8.035443 z"
         transform="scale(-0.6)" />
    </marker>
  </defs>
  <metadata
     id="metadata5">
    <rdf:RDF>
      <cc:Work
         rdf:about="">
        <dc:format>image/svg+xml</dc:format>
        <dc:type
           rdf:resource="http://purl.org/dc/dcmitype/StillImage" />
        <dc:title />
      </cc:Work>
    </rdf:RDF>
  </metadata>
  <g
     inkscape:label="Layer 1"
     inkscape:groupmode="layer"
     id="layer1"
     transform="translate(-13.839676,-258.75014)" />
  <g
     inkscape:groupmode="layer"
     id="layer3"
     inkscape:label="State labels"
     transform="translate(-13.839676,-2.6501234)" />
  <g
     inkscape:groupmode="layer"
     id="layer6"
     inkscape:label="Arrows"
     transform="translate(-13.839676,-2.6501234)" />
  <g
     inkscape:groupmode="layer"
     id="layer5"
     inkscape:label="Circles"
     transform="translate(-13.839676,-2.6501234)" />
  <g
     inkscape:groupmode="layer"
     id="layer4"
     inkscape:label="Names"
     transform="translate(-13.839676,-2.6501234)" />
  <g
     inkscape:groupmode="layer"
     id="layer2"
     inkscape:label="BS"
     transform="translate(-13.839676,-2.6501234)">
    <g
       style="font-style:normal;font-variant:normal;font-weight:normal;font-stretch:normal;letter-spacing:normal;word-spacing:normal;text-anchor:start;fill:#000000;fill-opacity:1;fill-rule:evenodd;stroke:#000000;stroke-linecap:butt;stroke-linejoin:miter;stroke-miterlimit:10.43299961;stroke-dasharray:none;stroke-dashoffset:0;stroke-opacity:1"
       id="content"
       transform="matrix(0.30000001,0,0,-0.30000001,-11.740649,237.03446)"
       xml:space="preserve"
       stroke-miterlimit="10.433"
       font-style="normal"
       font-variant="normal"
       font-weight="normal"
       font-stretch="normal"
       font-size-adjust="none"
       letter-spacing="normal"
       word-spacing="normal"
       ns0:text="$\\rho_A$"
       ns0:preamble="C:\\Users\\Matthew Thornton\\AppData\\Roaming\\inkscape\\extensions\\default_packages.tex"
       ns0:scale="0.3"><path
         style="fill:#000000;stroke-width:0"
         inkscape:connector-curvature="0"
         d="m 149.04,705.52 v -0.01 0 -0.01 -0.01 h -0.01 v 0 -0.01 0 -0.01 0 -0.01 0 -0.01 0 l -0.01,-0.01 v 0 -0.01 -0.01 0 -0.01 0 -0.01 h -0.01 v 0 -0.01 0 -0.01 0 0 0 -0.01 0 0 -0.01 0 0 c 0,-0.15 0.11,-0.27 0.28,-0.27 0.21,0 0.33,0.18 0.35,0.21 0.05,0.09 0.37,1.42 0.64,2.49 0.2,-0.4 0.52,-0.66 0.98,-0.66 v 0.21 c -0.7,0 -0.86,0.8 -0.86,0.89 0,0.04 0.05,0.24 0.08,0.37 0.28,1.11 0.38,1.47 0.59,1.86 0.43,0.73 0.93,0.95 1.24,0.95 0.37,0 0.69,-0.29 0.69,-0.98 0,-0.54 -0.29,-1.65 -0.56,-2.14 -0.33,-0.63 -0.81,-0.95 -1.18,-0.95 v 0 -0.21 c 1.17,0 2.46,1.4 2.46,2.88 0,1.05 -0.66,1.62 -1.39,1.62 -0.96,0 -2.01,-1 -2.31,-2.21 z"
         id="path4500" /><path
         style="fill:#000000;stroke-width:0"
         inkscape:connector-curvature="0"
         d="m 155.3,706.58 -0.02,-0.04 -0.02,-0.03 -0.03,-0.04 -0.02,-0.03 -0.02,-0.03 -0.02,-0.03 -0.03,-0.02 -0.02,-0.03 -0.02,-0.03 -0.03,-0.02 -0.02,-0.02 -0.02,-0.03 -0.03,-0.02 -0.02,-0.02 -0.03,-0.02 -0.02,-0.02 -0.03,-0.01 -0.03,-0.02 -0.02,-0.02 -0.03,-0.01 -0.03,-0.01 -0.03,-0.02 -0.03,-0.01 -0.03,-0.01 -0.03,-0.01 -0.03,-0.01 h -0.04 l -0.03,-0.01 -0.04,-0.01 h -0.03 l -0.04,-0.01 h -0.04 c -0.07,-0.01 -0.16,-0.01 -0.16,-0.15 0,-0.07 0.06,-0.1 0.1,-0.1 0.18,0 0.41,0.03 0.6,0.03 0.22,0 0.51,-0.03 0.72,-0.03 0.04,0 0.14,0 0.14,0.15 0,0.09 -0.09,0.1 -0.12,0.1 -0.05,0.01 -0.31,0.02 -0.31,0.21 0,0.08 0.07,0.2 0.11,0.26 l 0.56,0.87 h 2 l -0.04,0.25 h -1.79 l 1.47,2.27 0.32,-2.27 0.04,-0.25 0.17,-1.16 c -0.03,-0.07 -0.07,-0.18 -0.49,-0.18 -0.08,0 -0.18,0 -0.18,-0.15 0,-0.03 0.02,-0.1 0.11,-0.1 0.21,0 0.7,0.03 0.91,0.03 0.12,0 0.28,-0.01 0.41,-0.01 0.12,0 0.27,-0.02 0.4,-0.02 0.09,0 0.14,0.06 0.14,0.15 0,0.1 -0.09,0.1 -0.2,0.1 -0.4,0 -0.42,0.06 -0.44,0.22 l -0.62,4.29 c -0.02,0.15 -0.03,0.2 -0.16,0.2 -0.14,0 -0.18,-0.06 -0.24,-0.16 z"
         id="path4502" /></g>    <g
       ns0:scale="0.3"
       ns0:preamble="C:\\Users\\Matthew Thornton\\AppData\\Roaming\\inkscape\\extensions\\default_packages.tex"
       ns0:text="$\\rho_B$"
       word-spacing="normal"
       letter-spacing="normal"
       font-size-adjust="none"
       font-stretch="normal"
       font-weight="normal"
       font-variant="normal"
       font-style="normal"
       stroke-miterlimit="10.433"
       xml:space="preserve"
       transform="matrix(0.30000001,0,0,-0.30000001,0.4165064,230.50311)"
       id="g4531"
       style="font-style:normal;font-variant:normal;font-weight:normal;font-stretch:normal;letter-spacing:normal;word-spacing:normal;text-anchor:start;fill:#000000;fill-opacity:1;fill-rule:evenodd;stroke:#000000;stroke-linecap:butt;stroke-linejoin:miter;stroke-miterlimit:10.43299961;stroke-dasharray:none;stroke-dashoffset:0;stroke-opacity:1"><path
         id="path4527"
         d="m 149.04,705.52 v -0.01 0 -0.01 -0.01 h -0.01 v 0 -0.01 0 -0.01 0 -0.01 0 -0.01 0 l -0.01,-0.01 v 0 -0.01 -0.01 0 -0.01 0 -0.01 h -0.01 v 0 -0.01 0 -0.01 0 0 0 -0.01 0 0 -0.01 0 0 c 0,-0.15 0.11,-0.27 0.28,-0.27 0.21,0 0.33,0.18 0.35,0.21 0.05,0.09 0.37,1.42 0.64,2.49 0.2,-0.4 0.52,-0.66 0.98,-0.66 v 0.21 c -0.7,0 -0.86,0.8 -0.86,0.89 0,0.04 0.05,0.24 0.08,0.37 0.28,1.11 0.38,1.47 0.59,1.86 0.43,0.73 0.93,0.95 1.24,0.95 0.37,0 0.69,-0.29 0.69,-0.98 0,-0.54 -0.29,-1.65 -0.56,-2.14 -0.33,-0.63 -0.81,-0.95 -1.18,-0.95 v 0 -0.21 c 1.17,0 2.46,1.4 2.46,2.88 0,1.05 -0.66,1.62 -1.39,1.62 -0.96,0 -2.01,-1 -2.31,-2.21 z"
         inkscape:connector-curvature="0"
         style="fill:#000000;stroke-width:0" /><path
         id="path4529"
         d="m 155.19,706.28 v -0.02 l -0.01,-0.02 -0.01,-0.02 v -0.02 l -0.01,-0.01 v -0.02 l -0.01,-0.02 -0.01,-0.01 v -0.02 l -0.01,-0.01 -0.01,-0.01 -0.01,-0.01 -0.01,-0.01 -0.01,-0.01 -0.01,-0.01 -0.02,-0.01 -0.01,-0.01 -0.02,-0.01 h -0.02 l -0.02,-0.01 h -0.02 l -0.01,-0.01 h -0.02 -0.01 -0.01 -0.01 L 154.89,706 h -0.01 -0.02 -0.02 -0.01 -0.02 -0.02 l -0.02,-0.01 h -0.02 -0.02 -0.02 -0.02 -0.02 -0.02 -0.02 -0.03 -0.02 c -0.12,0 -0.21,0 -0.21,-0.15 0,-0.1 0.08,-0.1 0.21,-0.1 h 2.7 c 1.18,0 2.08,0.8 2.08,1.49 0,0.49 -0.46,0.92 -1.2,0.99 0.85,0.16 1.55,0.69 1.55,1.28 0,0.53 -0.53,0.99 -1.44,0.99 l -0.11,-0.25 c 0.71,0 0.87,-0.47 0.87,-0.73 0,-0.56 -0.64,-1.2 -1.57,-1.2 h -1.15 l -0.05,-0.2 h 1.48 c 0.66,0 0.91,-0.43 0.91,-0.83 0,-0.69 -0.7,-1.29 -1.55,-1.29 h -1.12 c -0.22,0 -0.23,0.01 -0.23,0.07 0,0.01 0,0.04 0.03,0.15 l 0.48,1.9 0.05,0.2 0.43,1.69 c 0.05,0.22 0.06,0.24 0.35,0.24 h 1.07 l 0.11,0.25 h -2.55 c -0.13,0 -0.22,0 -0.22,-0.15 0,-0.1 0.08,-0.1 0.22,-0.1 0.01,0 0.14,0 0.27,-0.01 0.14,-0.02 0.16,-0.03 0.16,-0.1 0,-0.02 0,-0.05 -0.03,-0.15 z"
         inkscape:connector-curvature="0"
         style="fill:#000000;stroke-width:0" /></g>    <g
       style="font-style:normal;font-variant:normal;font-weight:normal;font-stretch:normal;letter-spacing:normal;word-spacing:normal;text-anchor:start;fill:#000000;fill-opacity:1;fill-rule:evenodd;stroke:#000000;stroke-linecap:butt;stroke-linejoin:miter;stroke-miterlimit:10.43299961;stroke-dasharray:none;stroke-dashoffset:0;stroke-opacity:1"
       id="g4565"
       transform="matrix(0.30000001,0,0,-0.30000001,17.095158,237.03446)"
       xml:space="preserve"
       stroke-miterlimit="10.433"
       font-style="normal"
       font-variant="normal"
       font-weight="normal"
       font-stretch="normal"
       font-size-adjust="none"
       letter-spacing="normal"
       word-spacing="normal"
       ns0:text="$\\rho_C$"
       ns0:preamble="C:\\Users\\Matthew Thornton\\AppData\\Roaming\\inkscape\\extensions\\default_packages.tex"
       ns0:scale="0.3"><path
         style="fill:#000000;stroke-width:0"
         inkscape:connector-curvature="0"
         d="m 149.04,705.52 v -0.01 0 -0.01 -0.01 h -0.01 v 0 -0.01 0 -0.01 0 -0.01 0 -0.01 0 l -0.01,-0.01 v 0 -0.01 -0.01 0 -0.01 0 -0.01 h -0.01 v 0 -0.01 0 -0.01 0 0 0 -0.01 0 0 -0.01 0 0 c 0,-0.15 0.11,-0.27 0.28,-0.27 0.21,0 0.33,0.18 0.35,0.21 0.05,0.09 0.37,1.42 0.64,2.49 0.2,-0.4 0.52,-0.66 0.98,-0.66 v 0.21 c -0.7,0 -0.86,0.8 -0.86,0.89 0,0.04 0.05,0.24 0.08,0.37 0.28,1.11 0.38,1.47 0.59,1.86 0.43,0.73 0.93,0.95 1.24,0.95 0.37,0 0.69,-0.29 0.69,-0.98 0,-0.54 -0.29,-1.65 -0.56,-2.14 -0.33,-0.63 -0.81,-0.95 -1.18,-0.95 v 0 -0.21 c 1.17,0 2.46,1.4 2.46,2.88 0,1.05 -0.66,1.62 -1.39,1.62 -0.96,0 -2.01,-1 -2.31,-2.21 z"
         id="path4561" /><path
         style="fill:#000000;stroke-width:0"
         inkscape:connector-curvature="0"
         d="m 159.76,710.54 v 0 0.01 0 0 0.01 h -0.01 v 0 0.01 0 0.01 0 0 l -0.01,0.01 v 0 0 0.01 0 h -0.01 v 0.01 0 h -0.01 v 0.01 h -0.01 v 0 0 h -0.01 v 0.01 h -0.01 v 0 h -0.01 v 0 0 0 h -0.01 v 0 0 c -0.05,0 -0.07,-0.02 -0.13,-0.08 l -0.51,-0.54 c -0.06,0.08 -0.45,0.62 -1.31,0.62 -1.7,0 -3.37,-1.5 -3.37,-3.07 0,-1.13 0.9,-1.96 2.15,-1.96 0.38,0 1.05,0.08 1.77,0.68 0.55,0.47 0.7,1.07 0.7,1.13 0,0.09 -0.08,0.09 -0.12,0.09 -0.09,0 -0.1,-0.03 -0.12,-0.11 -0.29,-0.95 -1.27,-1.54 -2.11,-1.54 -0.74,0 -1.57,0.4 -1.57,1.5 0,0.2 0.05,1.3 0.85,2.17 0.49,0.54 1.22,0.86 1.89,0.86 0.81,0 1.28,-0.59 1.28,-1.36 0,-0.2 -0.02,-0.25 -0.02,-0.29 0,-0.09 0.09,-0.09 0.13,-0.09 0.11,0 0.11,0.02 0.14,0.15 z"
         id="path4563" /></g>    <g
       style="font-style:normal;font-variant:normal;font-weight:normal;font-stretch:normal;letter-spacing:normal;word-spacing:normal;text-anchor:start;fill:#000000;fill-opacity:1;fill-rule:evenodd;stroke:#000000;stroke-linecap:butt;stroke-linejoin:miter;stroke-miterlimit:10.43299961;stroke-dasharray:none;stroke-dashoffset:0;stroke-opacity:1"
       id="g7426"
       transform="matrix(0.30000001,0,0,-0.30000001,9.737298,230.95508)"
       xml:space="preserve"
       stroke-miterlimit="10.433"
       font-style="normal"
       font-variant="normal"
       font-weight="normal"
       font-stretch="normal"
       font-size-adjust="none"
       letter-spacing="normal"
       word-spacing="normal"
       ns0:text="$\n\\{T,1-T\\}\n$"
       ns0:preamble="C:\\Users\\Matthew Thornton\\AppData\\Roaming\\inkscape\\extensions\\default_packages.tex"
       ns0:scale="0.3"><path
         style="fill:#000000;stroke-width:0"
         inkscape:connector-curvature="0"
         d="m 151.53,713.36 v 0.04 l 0.01,0.04 v 0.04 l 0.01,0.04 0.01,0.04 0.01,0.05 0.01,0.04 0.01,0.04 0.02,0.05 0.02,0.04 0.02,0.05 0.02,0.04 0.03,0.04 0.03,0.04 0.03,0.05 0.04,0.04 0.04,0.04 0.04,0.04 0.05,0.04 0.05,0.03 0.05,0.04 0.06,0.03 0.06,0.03 0.06,0.03 0.07,0.03 0.07,0.02 0.08,0.03 0.08,0.02 h 0.04 l 0.05,0.01 0.04,0.01 0.05,0.01 h 0.04 l 0.05,0.01 h 0.05 l 0.05,0.01 c 0.05,0.01 0.09,0.05 0.09,0.11 0,0.1 -0.08,0.1 -0.19,0.1 -1,0 -1.9,-0.5 -1.91,-1.24 v -2.26 c 0,-0.39 0,-0.71 -0.4,-1.03 -0.35,-0.29 -0.73,-0.31 -0.95,-0.32 -0.05,-0.01 -0.09,-0.05 -0.09,-0.11 0,-0.1 0.06,-0.1 0.16,-0.11 0.66,-0.04 1.14,-0.4 1.25,-0.89 0.03,-0.1 0.03,-0.12 0.03,-0.48 v -1.97 c 0,-0.42 0,-0.73 0.48,-1.11 0.38,-0.3 1.04,-0.41 1.43,-0.41 0.11,0 0.19,0 0.19,0.11 0,0.1 -0.06,0.1 -0.16,0.11 -0.63,0.04 -1.12,0.36 -1.25,0.86 -0.03,0.09 -0.03,0.11 -0.03,0.47 v 2.09 c 0,0.45 -0.08,0.62 -0.4,0.94 -0.2,0.21 -0.49,0.31 -0.77,0.39 0.82,0.23 1.17,0.68 1.17,1.26 z"
         id="path7412" /><path
         style="fill:#000000;stroke-width:0"
         inkscape:connector-curvature="0"
         d="m 157.95,713.27 0.01,0.02 v 0.02 l 0.01,0.03 0.01,0.02 v 0.02 l 0.01,0.02 v 0.02 l 0.01,0.02 0.01,0.01 v 0.02 l 0.01,0.01 v 0.02 l 0.01,0.01 0.01,0.01 v 0.01 l 0.01,0.01 v 0.01 l 0.01,0.01 0.01,0.01 v 0.01 h 0.01 l 0.01,0.01 0.01,0.01 v 0 l 0.01,0.01 h 0.01 l 0.01,0.01 h 0.01 0.01 l 0.01,0.01 h 0.01 0.01 c 0.09,0.02 0.42,0.02 0.63,0.02 1.01,0 1.46,-0.04 1.46,-0.81 0,-0.15 -0.04,-0.54 -0.08,-0.8 -0.01,-0.04 -0.03,-0.16 -0.03,-0.19 0,-0.06 0.03,-0.13 0.12,-0.13 0.1,0 0.12,0.08 0.15,0.23 l 0.26,1.73 c 0.01,0.04 0.02,0.14 0.02,0.17 0,0.11 -0.09,0.11 -0.26,0.11 h -5.54 c -0.24,0 -0.25,-0.01 -0.32,-0.2 l -0.6,-1.75 c -0.01,-0.02 -0.06,-0.16 -0.06,-0.18 0,-0.05 0.05,-0.11 0.12,-0.11 0.1,0 0.11,0.06 0.17,0.21 0.54,1.54 0.8,1.72 2.28,1.72 h 0.38 c 0.28,0 0.28,-0.04 0.28,-0.12 0,-0.06 -0.03,-0.18 -0.04,-0.21 l -1.33,-5.3 c -0.09,-0.37 -0.12,-0.48 -1.19,-0.48 -0.36,0 -0.42,0 -0.42,-0.19 0,-0.12 0.11,-0.12 0.17,-0.12 0.27,0 0.55,0.03 0.82,0.03 0.28,0 0.57,0.01 0.85,0.01 0.28,0 0.56,-0.01 0.83,-0.01 0.28,0 0.58,-0.03 0.86,-0.03 0.1,0 0.22,0 0.22,0.2 0,0.11 -0.08,0.11 -0.34,0.11 -0.25,0 -0.38,0 -0.63,0.02 -0.29,0.03 -0.37,0.06 -0.37,0.22 0,0.01 0,0.06 0.04,0.21 z"
         id="path7414" /><path
         style="fill:#000000;stroke-width:0"
         inkscape:connector-curvature="0"
         d="m 162.37,707.24 v 0.07 l -0.01,0.05 v 0.06 0.06 l -0.01,0.05 -0.01,0.05 -0.01,0.06 -0.01,0.04 -0.01,0.05 -0.01,0.05 -0.02,0.04 -0.01,0.04 -0.02,0.04 -0.02,0.04 -0.02,0.04 -0.02,0.03 -0.02,0.04 -0.02,0.03 -0.02,0.02 -0.03,0.03 -0.02,0.03 -0.03,0.02 -0.03,0.02 -0.03,0.02 -0.03,0.01 -0.03,0.02 -0.03,0.01 -0.03,0.01 -0.04,0.01 h -0.03 l -0.03,0.01 h -0.04 c -0.33,0 -0.53,-0.25 -0.53,-0.53 0,-0.27 0.2,-0.53 0.53,-0.53 0.12,0 0.25,0.05 0.35,0.13 0.03,0.02 0.04,0.03 0.05,0.03 0.01,0 0.02,-0.01 0.02,-0.15 0,-0.73 -0.35,-1.33 -0.68,-1.65 -0.11,-0.11 -0.11,-0.13 -0.11,-0.16 0,-0.07 0.05,-0.11 0.1,-0.11 0.11,0 0.91,0.76 0.91,1.92 z"
         id="path7416" /><path
         style="fill:#000000;stroke-width:0"
         inkscape:connector-curvature="0"
         d="m 167.71,713.59 v 0.01 0.01 0.02 0.01 0 0.01 0.01 0.01 0.01 0.01 l -0.01,0.01 v 0.01 0 0.01 0.01 0 0.01 0.01 0.01 0.01 l -0.01,0.01 v 0.01 0.01 h -0.01 v 0.01 l -0.01,0.01 v 0 l -0.01,0.01 h -0.01 l -0.01,0.01 v 0 h -0.01 v 0 h -0.01 -0.01 v 0 l -0.01,0.01 v 0 h -0.01 -0.01 v 0 h -0.01 -0.01 -0.01 -0.01 -0.01 v 0 h -0.01 -0.01 -0.01 -0.01 -0.01 c -0.62,-0.63 -1.5,-0.63 -1.82,-0.63 v -0.31 c 0.2,0 0.79,0 1.31,0.25 v -5.14 c 0,-0.36 -0.03,-0.48 -0.93,-0.48 h -0.32 v -0.31 c 0.35,0.04 1.22,0.04 1.62,0.04 0.4,0 1.26,0 1.61,-0.04 v 0.31 h -0.32 c -0.89,0 -0.92,0.11 -0.92,0.48 z"
         id="path7418" /><path
         style="fill:#000000;stroke-width:0"
         inkscape:connector-curvature="0"
         d="m 178.54,709.52 h 0.03 0.03 0.04 0.01 0.02 0.01 l 0.02,0.01 h 0.01 0.02 0.01 l 0.01,0.01 h 0.02 0.01 l 0.01,0.01 0.01,0.01 h 0.01 l 0.01,0.01 0.01,0.01 h 0.01 l 0.01,0.01 0.01,0.01 v 0.01 h 0.01 v 0.01 0.01 h 0.01 v 0.01 0.01 0 0.01 l 0.01,0.01 v 0.01 0 0.01 0.01 0.01 0.01 c 0,0.2 -0.18,0.2 -0.35,0.2 h -5.39 c -0.17,0 -0.35,0 -0.35,-0.2 0,-0.2 0.18,-0.2 0.35,-0.2 z"
         id="path7420" /><path
         style="fill:#000000;stroke-width:0"
         inkscape:connector-curvature="0"
         d="m 186.19,713.27 0.01,0.02 v 0.02 l 0.01,0.03 v 0.02 l 0.01,0.02 0.01,0.02 v 0.02 l 0.01,0.02 v 0.01 l 0.01,0.02 v 0.01 l 0.01,0.02 0.01,0.01 v 0.01 l 0.01,0.01 0.01,0.01 v 0.01 l 0.01,0.01 v 0.01 l 0.01,0.01 h 0.01 l 0.01,0.01 v 0.01 h 0.01 l 0.01,0.01 h 0.01 l 0.01,0.01 h 0.01 0.01 l 0.01,0.01 h 0.01 0.01 c 0.09,0.02 0.42,0.02 0.63,0.02 1,0 1.45,-0.04 1.45,-0.81 0,-0.15 -0.04,-0.54 -0.08,-0.8 -0.01,-0.04 -0.03,-0.16 -0.03,-0.19 0,-0.06 0.03,-0.13 0.12,-0.13 0.11,0 0.13,0.08 0.15,0.23 l 0.27,1.73 c 0.01,0.04 0.02,0.14 0.02,0.17 0,0.11 -0.1,0.11 -0.27,0.11 h -5.53 c -0.24,0 -0.25,-0.01 -0.32,-0.2 l -0.6,-1.75 c -0.01,-0.02 -0.06,-0.16 -0.06,-0.18 0,-0.05 0.05,-0.11 0.12,-0.11 0.1,0 0.11,0.06 0.17,0.21 0.54,1.54 0.8,1.72 2.27,1.72 h 0.39 c 0.28,0 0.28,-0.04 0.28,-0.12 0,-0.06 -0.03,-0.18 -0.04,-0.21 l -1.34,-5.3 c -0.09,-0.37 -0.11,-0.48 -1.18,-0.48 -0.36,0 -0.42,0 -0.42,-0.19 0,-0.12 0.11,-0.12 0.17,-0.12 0.27,0 0.55,0.03 0.82,0.03 0.28,0 0.57,0.01 0.85,0.01 0.27,0 0.55,-0.01 0.82,-0.01 0.29,0 0.59,-0.03 0.87,-0.03 0.1,0 0.22,0 0.22,0.2 0,0.11 -0.08,0.11 -0.34,0.11 -0.25,0 -0.38,0 -0.64,0.02 -0.29,0.03 -0.37,0.06 -0.37,0.22 0,0.01 0,0.06 0.04,0.21 z"
         id="path7422" /><path
         style="fill:#000000;stroke-width:0"
         inkscape:connector-curvature="0"
         d="M 191.29,706.07 V 706.04 706 l -0.01,-0.04 v -0.05 l -0.01,-0.04 -0.01,-0.04 -0.01,-0.04 -0.02,-0.05 -0.01,-0.04 -0.02,-0.05 -0.02,-0.04 -0.03,-0.04 -0.03,-0.05 -0.03,-0.04 -0.03,-0.04 -0.03,-0.04 -0.04,-0.04 -0.05,-0.04 -0.04,-0.04 -0.05,-0.04 -0.05,-0.03 -0.06,-0.03 -0.06,-0.03 -0.07,-0.03 -0.06,-0.03 -0.08,-0.03 -0.07,-0.02 -0.09,-0.02 -0.04,-0.01 -0.04,-0.01 h -0.05 l -0.04,-0.01 -0.05,-0.01 h -0.05 L 190,704.97 h -0.05 c -0.05,-0.01 -0.1,-0.05 -0.1,-0.11 0,-0.11 0.11,-0.11 0.2,-0.11 0.97,0 1.9,0.49 1.91,1.24 v 2.27 c 0,0.39 0,0.7 0.4,1.03 0.35,0.29 0.73,0.31 0.94,0.32 0.05,0.01 0.1,0.05 0.1,0.11 0,0.1 -0.06,0.1 -0.16,0.11 -0.66,0.04 -1.14,0.39 -1.25,0.88 -0.03,0.11 -0.03,0.13 -0.03,0.49 v 1.96 c 0,0.42 0,0.74 -0.48,1.12 -0.4,0.31 -1.09,0.4 -1.43,0.4 -0.09,0 -0.2,0 -0.2,-0.1 0,-0.1 0.06,-0.1 0.16,-0.11 0.63,-0.04 1.12,-0.36 1.25,-0.87 0.03,-0.09 0.03,-0.11 0.03,-0.46 v -2.09 c 0,-0.46 0.08,-0.63 0.4,-0.94 0.21,-0.21 0.5,-0.31 0.78,-0.39 -0.82,-0.23 -1.18,-0.69 -1.18,-1.26 z"
         id="path7424" /></g>    <path
       style="fill:none;stroke:#000000;stroke-width:0.26499999;stroke-linecap:butt;stroke-linejoin:miter;stroke-miterlimit:4;stroke-dasharray:none;stroke-opacity:1;marker-end:url(#Arrow2Mend)"
       d="M 49.322262,25.471479 V 10.919396"
       id="path4753"
       inkscape:connector-curvature="0" />
    <path
       style="fill:none;stroke:#000000;stroke-width:0.26499999;stroke-linecap:butt;stroke-linejoin:miter;stroke-miterlimit:4;stroke-dasharray:none;stroke-opacity:1;marker-end:url(#Arrow2Mend-0)"
       d="M 49.981173,26.558826 H 76.439506"
       id="path4753-4"
       inkscape:connector-curvature="0" />
    <path
       style="fill:none;stroke:#000000;stroke-width:0.26499999;stroke-linecap:butt;stroke-linejoin:miter;stroke-miterlimit:4;stroke-dasharray:none;stroke-opacity:1;marker-end:url(#Arrow2Mend-0-1)"
       d="M 21.110866,26.558826 H 47.569199"
       id="path4753-4-5"
       inkscape:connector-curvature="0" />
    <path
       style="fill:none;stroke:#000000;stroke-width:0.26499999;stroke-linecap:butt;stroke-linejoin:miter;stroke-miterlimit:4;stroke-dasharray:none;stroke-opacity:1;marker-end:url(#Arrow2Mend-9)"
       d="m 49.322262,36.426909 v -7.9375"
       id="path4753-8"
       inkscape:connector-curvature="0" />
    <g
       id="g4678"
       transform="translate(9.2353398,-0.63121715)">
      <rect
         y="23.40729"
         x="4.6543365"
         height="7.5604143"
         width="7.5604143"
         id="rect5052"
         style="opacity:1;fill:#f0f0f0;fill-opacity:1;stroke:#000000;stroke-width:0.10000001;stroke-miterlimit:4;stroke-dasharray:none;stroke-dashoffset:0;stroke-opacity:1" />
      <text
         id="text5041-4"
         y="29.963554"
         x="5.6316142"
         style="font-style:normal;font-variant:normal;font-weight:normal;font-stretch:normal;font-size:10.39181519px;line-height:125%;font-family:Garamond;-inkscape-font-specification:Garamond;letter-spacing:0px;word-spacing:0px;fill:#000000;fill-opacity:1;stroke:none;stroke-width:0.26458332px;stroke-linecap:butt;stroke-linejoin:miter;stroke-opacity:1"
         xml:space="preserve"><tspan
           style="font-size:8.46666622px;stroke-width:0.26458332px"
           y="29.963554"
           x="5.6316142"
           id="tspan5039-4"
           sodipodi:role="line">A</tspan></text>
    </g>
    <g
       id="g4656"
       transform="translate(60.068415,13.808944)">
      <rect
         y="8.9671288"
         x="16.865171"
         height="7.5604143"
         width="7.5604143"
         id="rect5052-1"
         style="opacity:1;fill:#f0f0f0;fill-opacity:1;stroke:#000000;stroke-width:0.10000001;stroke-miterlimit:4;stroke-dasharray:none;stroke-dashoffset:0;stroke-opacity:1" />
      <text
         id="text5041-4-9"
         y="15.401438"
         x="17.916862"
         style="font-style:normal;font-variant:normal;font-weight:normal;font-stretch:normal;font-size:10.39181519px;line-height:125%;font-family:Garamond;-inkscape-font-specification:Garamond;letter-spacing:0px;word-spacing:0px;fill:#000000;fill-opacity:1;stroke:none;stroke-width:0.26458332px;stroke-linecap:butt;stroke-linejoin:miter;stroke-opacity:1"
         xml:space="preserve"><tspan
           style="font-size:8.46666622px;stroke-width:0.26458332px"
           y="15.401438"
           x="17.916862"
           id="tspan5039-4-6"
           sodipodi:role="line">C</tspan></text>
    </g>
    <g
       id="g4661"
       transform="translate(30.055133,-14.876298)">
      <rect
         y="17.576422"
         x="15.484376"
         height="7.5604143"
         width="7.5604143"
         id="rect5052-6"
         style="opacity:1;fill:#f0f0f0;fill-opacity:1;stroke:#000000;stroke-width:0.10000001;stroke-miterlimit:4;stroke-dasharray:none;stroke-dashoffset:0;stroke-opacity:1" />
      <text
         id="text5041-4-6"
         y="24.035536"
         x="16.802717"
         style="font-style:normal;font-variant:normal;font-weight:normal;font-stretch:normal;font-size:10.39181519px;line-height:125%;font-family:Garamond;-inkscape-font-specification:Garamond;letter-spacing:0px;word-spacing:0px;fill:#000000;fill-opacity:1;stroke:none;stroke-width:0.26458332px;stroke-linecap:butt;stroke-linejoin:miter;stroke-opacity:1"
         xml:space="preserve"><tspan
           style="font-size:8.46666622px;stroke-width:0.26458332px"
           y="24.035536"
           x="16.802717"
           id="tspan5039-4-0"
           sodipodi:role="line">B</tspan></text>
    </g>
    <rect
       style="opacity:1;fill:#bdbdbd;fill-opacity:1;fill-rule:nonzero;stroke:#636363;stroke-width:0.2;stroke-linecap:butt;stroke-linejoin:miter;stroke-miterlimit:4;stroke-dasharray:none;stroke-dashoffset:0;stroke-opacity:1"
       id="rect4490"
       width="17.500973"
       height="1.9445524"
       x="7.3456931"
       y="52.680153"
       transform="rotate(-45)" />
    <g
       style="font-style:normal;font-variant:normal;font-weight:normal;font-stretch:normal;letter-spacing:normal;word-spacing:normal;text-anchor:start;fill:#000000;fill-opacity:1;fill-rule:evenodd;stroke:#000000;stroke-linecap:butt;stroke-linejoin:miter;stroke-miterlimit:10.43299961;stroke-dasharray:none;stroke-dashoffset:0;stroke-opacity:1"
       ns0:jacobian_sqrt="0.3"
       inkscapeversion="0.92.1"
       ns0:alignment="middle center"
       ns0:scale="0.225000000001"
       ns0:preamble="C:\\Users\\MatthewThornton\\AppData\\Roaming\\inkscape\\extensions\\textext\\default_packages.tex"
       ns0:text="$\\dyad{0}$"
       ns0:pdfconverter="pstoedit"
       ns0:texconverter="pdflatex"
       ns0:version="0.10.2"
       word-spacing="normal"
       letter-spacing="normal"
       font-size-adjust="none"
       font-stretch="normal"
       font-weight="normal"
       font-variant="normal"
       font-style="normal"
       stroke-miterlimit="10.433"
       xml:space="preserve"
       transform="matrix(0.3,0,0,-0.3,1.466717,236.17016)"
       id="g1059">
<path
   id="path1047"
   style="fill:#000000;fill-opacity:1;stroke:#000000;stroke-width:0;stroke-opacity:1"
   d="m 150.3,664.33 v 0.03 0.03 0.04 0.01 l -0.01,0.02 v 0.01 0.02 0.02 0.01 l -0.01,0.01 v 0.02 0.01 l -0.01,0.01 v 0.02 l -0.01,0.01 v 0.01 l -0.01,0.01 -0.01,0.01 -0.01,0.01 -0.01,0.01 h -0.01 l -0.01,0.01 v 0 l -0.01,0.01 h -0.01 v 0 h -0.01 l -0.01,0.01 v 0 h -0.01 -0.01 -0.01 -0.01 v 0 h -0.01 -0.01 c -0.2,0 -0.2,-0.17 -0.2,-0.35 v -9.22 c 0,-0.18 0,-0.36 0.2,-0.36 0.2,0 0.2,0.18 0.2,0.36 z"
   inkscape:connector-curvature="0" />
<path
   id="path1049"
   style="fill:#000000;fill-opacity:1;stroke:#000000;stroke-width:0;stroke-opacity:1"
   d="m 156.07,660.41 v 0.15 l -0.01,0.15 v 0.15 l -0.01,0.15 -0.01,0.15 -0.01,0.14 -0.01,0.15 -0.02,0.15 -0.02,0.14 -0.03,0.15 -0.03,0.14 -0.04,0.15 -0.05,0.14 -0.04,0.14 -0.06,0.14 -0.03,0.07 -0.03,0.07 c -0.46,0.95 -1.28,1.11 -1.7,1.11 -0.59,0 -1.32,-0.26 -1.73,-1.18 -0.32,-0.69 -0.37,-1.46 -0.37,-2.26 0,-0.74 0.04,-1.63 0.45,-2.39 0.43,-0.8 1.15,-1 1.64,-1 v 0.21 c -0.39,0 -0.97,0.25 -1.15,1.21 -0.11,0.59 -0.11,1.51 -0.11,2.09 0,0.64 0,1.29 0.08,1.83 0.19,1.18 0.93,1.27 1.18,1.27 0.33,0 0.99,-0.18 1.18,-1.16 0.1,-0.56 0.1,-1.31 0.1,-1.94 0,-0.74 0,-1.42 -0.11,-2.05 -0.15,-0.95 -0.72,-1.25 -1.17,-1.25 v 0 -0.21 c 0.54,0 1.3,0.2 1.74,1.15 0.32,0.68 0.37,1.46 0.37,2.24 z"
   inkscape:connector-curvature="0" />
<path
   id="path1051"
   style="fill:#000000;fill-opacity:1;stroke:#000000;stroke-width:0;stroke-opacity:1"
   d="m 159.18,659.55 0.01,0.01 v 0 0.01 0 0.01 h 0.01 v 0.01 0 0 0.01 0 l 0.01,0.01 v 0.01 0 0.01 l 0.01,0.01 v 0 0.01 0 0.01 h 0.01 v 0.01 0 0.01 0 0 0.01 0 0 0.01 0 0.01 0 0.01 c 0,0.03 0,0.05 -0.05,0.17 l -1.74,4.57 c -0.06,0.17 -0.12,0.22 -0.23,0.22 -0.11,0 -0.2,-0.08 -0.2,-0.19 0,-0.03 0,-0.05 0.05,-0.16 l 1.76,-4.61 -1.76,-4.59 c -0.05,-0.11 -0.05,-0.13 -0.05,-0.18 0,-0.11 0.09,-0.2 0.2,-0.2 0.13,0 0.17,0.1 0.21,0.2 z"
   inkscape:connector-curvature="0" />
<path
   id="path1053"
   style="fill:#000000;fill-opacity:1;stroke:#000000;stroke-width:0;stroke-opacity:1"
   d="m 161.94,664.31 h 0.01 v 0.01 0 0.01 l 0.01,0.01 v 0 0.01 l 0.01,0.01 v 0.01 0 0.01 l 0.01,0.01 v 0 0.01 0 0.01 0 l 0.01,0.01 v 0 0.01 0 0.01 0.01 0 0.01 0.01 0.01 0 0.01 c 0,0.11 -0.09,0.19 -0.2,0.19 -0.09,0 -0.16,-0.04 -0.23,-0.22 l -1.74,-4.56 c -0.02,-0.06 -0.05,-0.12 -0.05,-0.18 0,-0.03 0,-0.05 0.05,-0.17 l 1.74,-4.56 c 0.04,-0.11 0.09,-0.24 0.23,-0.24 0.11,0 0.2,0.09 0.2,0.2 0,0.03 0,0.05 -0.05,0.16 l -1.76,4.61 z"
   inkscape:connector-curvature="0" />
<path
   id="path1055"
   style="fill:#000000;fill-opacity:1;stroke:#000000;stroke-width:0;stroke-opacity:1"
   d="m 167.14,660.41 v 0.15 l -0.01,0.15 v 0.15 l -0.01,0.15 -0.01,0.15 -0.01,0.14 -0.01,0.15 -0.02,0.15 -0.03,0.14 -0.02,0.15 -0.04,0.14 -0.03,0.15 -0.05,0.14 -0.05,0.14 -0.05,0.14 -0.03,0.07 -0.03,0.07 c -0.46,0.95 -1.28,1.11 -1.7,1.11 -0.6,0 -1.32,-0.26 -1.73,-1.18 -0.32,-0.69 -0.37,-1.46 -0.37,-2.26 0,-0.74 0.04,-1.63 0.45,-2.39 0.43,-0.8 1.15,-1 1.64,-1 v 0.21 c -0.39,0 -0.98,0.25 -1.15,1.21 -0.11,0.59 -0.11,1.51 -0.11,2.09 0,0.64 0,1.29 0.08,1.83 0.19,1.18 0.93,1.27 1.18,1.27 0.33,0 0.99,-0.18 1.18,-1.16 0.1,-0.56 0.1,-1.31 0.1,-1.94 0,-0.74 0,-1.42 -0.11,-2.05 -0.15,-0.95 -0.72,-1.25 -1.17,-1.25 v 0 -0.21 c 0.54,0 1.3,0.2 1.74,1.15 0.32,0.68 0.37,1.46 0.37,2.24 z"
   inkscape:connector-curvature="0" />
<path
   id="path1057"
   style="fill:#000000;fill-opacity:1;stroke:#000000;stroke-width:0;stroke-opacity:1"
   d="m 169.12,664.33 v 0.03 0.03 0.04 l -0.01,0.01 v 0.02 0.01 0.02 0.02 0.01 l -0.01,0.01 v 0.02 0.01 l -0.01,0.01 v 0.02 l -0.01,0.01 v 0.01 l -0.01,0.01 -0.01,0.01 -0.01,0.01 -0.01,0.01 h -0.01 l -0.01,0.01 v 0 l -0.01,0.01 H 169 v 0 h -0.01 l -0.01,0.01 v 0 h -0.01 -0.01 -0.01 -0.01 v 0 h -0.01 -0.01 c -0.2,0 -0.2,-0.17 -0.2,-0.35 v -9.22 c 0,-0.18 0,-0.36 0.2,-0.36 0.2,0 0.2,0.18 0.2,0.36 z"
   inkscape:connector-curvature="0" />
</g>  </g>
</svg>
