<?xml version="1.0" encoding="UTF-8" standalone="no"?>
<!-- Created with Inkscape (http://www.inkscape.org/) -->

<svg
   xmlns:ns0="http://www.iki.fi/pav/software/textext/"
   xmlns:dc="http://purl.org/dc/elements/1.1/"
   xmlns:cc="http://creativecommons.org/ns#"
   xmlns:rdf="http://www.w3.org/1999/02/22-rdf-syntax-ns#"
   xmlns:svg="http://www.w3.org/2000/svg"
   xmlns="http://www.w3.org/2000/svg"
   xmlns:sodipodi="http://sodipodi.sourceforge.net/DTD/sodipodi-0.dtd"
   xmlns:inkscape="http://www.inkscape.org/namespaces/inkscape"
   width="8.6032372cm"
   height="4.1272163cm"
   viewBox="0 0 85.172051 40.85944"
   version="1.1"
   id="svg8"
   inkscape:version="0.92.0 r15299"
   sodipodi:docname="elimsig.svg"
   inkscape:export-filename="C:\Users\Matthew Thornton\OneDrive - University of St Andrews\Year 2\Summer 2018\Theory cryptography paper\Images\fig2.png"
   inkscape:export-xdpi="150"
   inkscape:export-ydpi="150">
  <sodipodi:namedview
     id="base"
     pagecolor="#ffffff"
     bordercolor="#666666"
     borderopacity="1.0"
     inkscape:pageopacity="0.0"
     inkscape:pageshadow="2"
     inkscape:zoom="1.979899"
     inkscape:cx="262.59609"
     inkscape:cy="88.853158"
     inkscape:document-units="mm"
     inkscape:current-layer="layer3"
     showgrid="false"
     units="cm"
     inkscape:window-width="1920"
     inkscape:window-height="1027"
     inkscape:window-x="1592"
     inkscape:window-y="-8"
     inkscape:window-maximized="1"
     showguides="false"
     fit-margin-top="0"
     fit-margin-left="0"
     fit-margin-right="0"
     fit-margin-bottom="0"
     inkscape:snap-global="false">
    <inkscape:grid
       originy="-0.80612202"
       originx="-1.309679"
       id="grid4485"
       type="xygrid" />
  </sodipodi:namedview>
  <defs
     id="defs2" />
  <metadata
     id="metadata5">
    <rdf:RDF>
      <cc:Work
         rdf:about="">
        <dc:format>image/svg+xml</dc:format>
        <dc:type
           rdf:resource="http://purl.org/dc/dcmitype/StillImage" />
        <dc:title />
      </cc:Work>
    </rdf:RDF>
  </metadata>
  <g
     inkscape:groupmode="layer"
     id="layer4"
     inkscape:label="background" />
  <g
     transform="translate(-1.32291,-254.91358)"
     id="layer1"
     inkscape:groupmode="layer"
     inkscape:label="Layer 1"
     style="display:inline">
    <g
       transform="translate(0,0.24691737)"
       id="g4607">
      <g
         id="g4493"
         transform="translate(3.968747,-1.3229162)">
        <path
           inkscape:connector-curvature="0"
           id="path4487"
           d="m 14.552083,255.98958 v 34.39584"
           style="fill:none;fill-rule:evenodd;stroke:#000000;stroke-width:0.66500002;stroke-linecap:butt;stroke-linejoin:miter;stroke-miterlimit:4;stroke-dasharray:none;stroke-opacity:1" />
        <path
           style="fill:none;fill-rule:evenodd;stroke:#000000;stroke-width:0.66500002;stroke-linecap:butt;stroke-linejoin:miter;stroke-miterlimit:4;stroke-dasharray:none;stroke-opacity:1"
           d="M 31.750003,273.1875 H -2.645837"
           id="path4489"
           inkscape:connector-curvature="0" />
      </g>
      <circle
         style="opacity:1;fill:#636363;fill-opacity:1;stroke:none;stroke-width:0.66499996;stroke-miterlimit:4;stroke-dasharray:none;stroke-dashoffset:0;stroke-opacity:1"
         id="path4501"
         cx="29.293156"
         cy="268.93527"
         r="1.3229166" />
    </g>
    <path
       inkscape:connector-curvature="0"
       id="path4497"
       d="M 82.020832,272.11149 H 47.624992"
       style="fill:none;fill-rule:evenodd;stroke:#000000;stroke-width:0.66500002;stroke-linecap:butt;stroke-linejoin:miter;stroke-miterlimit:4;stroke-dasharray:none;stroke-opacity:1" />
    <circle
       style="opacity:1;fill:#f0f0f0;fill-opacity:1;stroke:#bdbdbd;stroke-width:0.66500002;stroke-miterlimit:4;stroke-dasharray:0.665, 0.665;stroke-dashoffset:0;stroke-opacity:1"
       id="circle4515"
       cx="71.815475"
       cy="272.11151"
       r="4.6302085" />
    <circle
       style="opacity:1;fill:#f0f0f0;fill-opacity:1;stroke:#bdbdbd;stroke-width:0.66500002;stroke-miterlimit:4;stroke-dasharray:0.66500005, 0.66500005;stroke-dashoffset:0;stroke-opacity:1"
       id="circle4517"
       cx="57.830357"
       cy="272.11151"
       r="4.6302085" />
    <path
       style="fill:none;fill-rule:evenodd;stroke:#000000;stroke-width:0.66500002;stroke-linecap:butt;stroke-linejoin:miter;stroke-miterlimit:4;stroke-dasharray:none;stroke-opacity:1"
       d="M 64.822925,289.30942 V 254.91358"
       id="path4537"
       inkscape:connector-curvature="0" />
    <circle
       transform="rotate(90)"
       r="4.6302085"
       cy="-64.822914"
       cx="279.10406"
       id="circle4539"
       style="opacity:1;fill:#f0f0f0;fill-opacity:1;stroke:#bdbdbd;stroke-width:0.66500002;stroke-miterlimit:4;stroke-dasharray:0.66500005, 0.66500005;stroke-dashoffset:0;stroke-opacity:1" />
    <circle
       transform="rotate(90)"
       r="4.6302085"
       cy="-64.822914"
       cx="265.11896"
       id="circle4541"
       style="opacity:1;fill:#f0f0f0;fill-opacity:1;stroke:#bdbdbd;stroke-width:0.66500002;stroke-miterlimit:4;stroke-dasharray:0.665, 0.665;stroke-dashoffset:0;stroke-opacity:1" />
    <g
       style="fill:none;stroke:#636363;stroke-opacity:1"
       transform="translate(6.8980637,-5.706202)"
       id="g4577">
      <g
         id="g4572"
         transform="translate(-6.8980647,7.2760204)"
         style="fill:none;stroke:#636363;stroke-width:0.76499999;stroke-miterlimit:4;stroke-dasharray:none;stroke-opacity:1">
        <path
           inkscape:connector-curvature="0"
           id="path4567"
           d="m 54.523065,267.2344 6.614583,6.61458"
           style="fill:none;fill-rule:evenodd;stroke:#636363;stroke-width:0.76499999;stroke-linecap:butt;stroke-linejoin:miter;stroke-miterlimit:4;stroke-dasharray:none;stroke-opacity:1" />
      </g>
      <path
         inkscape:connector-curvature="0"
         id="path4569"
         d="m 54.239582,274.51042 -6.61458,6.61458"
         style="fill:none;fill-rule:evenodd;stroke:#636363;stroke-width:0.76499999;stroke-linecap:butt;stroke-linejoin:miter;stroke-miterlimit:4;stroke-dasharray:none;stroke-opacity:1" />
    </g>
    <g
       id="g4585"
       transform="translate(13.890621,1.2863517)"
       style="fill:none;stroke:#636363;stroke-opacity:1">
      <g
         style="fill:none;stroke:#636363;stroke-width:0.76499999;stroke-miterlimit:4;stroke-dasharray:none;stroke-opacity:1"
         transform="translate(-6.8980647,7.2760204)"
         id="g4581">
        <path
           style="fill:none;fill-rule:evenodd;stroke:#636363;stroke-width:0.76499999;stroke-linecap:butt;stroke-linejoin:miter;stroke-miterlimit:4;stroke-dasharray:none;stroke-opacity:1"
           d="m 54.523065,267.2344 6.614583,6.61458"
           id="path4579"
           inkscape:connector-curvature="0" />
      </g>
      <path
         style="fill:none;fill-rule:evenodd;stroke:#636363;stroke-width:0.76499999;stroke-linecap:butt;stroke-linejoin:miter;stroke-miterlimit:4;stroke-dasharray:none;stroke-opacity:1"
         d="m 54.239582,274.51042 -6.61458,6.61458"
         id="path4583"
         inkscape:connector-curvature="0" />
    </g>
  </g>
  <g
     inkscape:label="a b"
     id="layer2"
     inkscape:groupmode="layer"
     style="display:inline">
    <g
       id="content"
       transform="matrix(0.4,0,0,-0.4,-44.83208,322.75944)"
       xml:space="preserve"
       stroke-miterlimit="10.433"
       font-style="normal"
       font-variant="normal"
       font-weight="normal"
       font-stretch="normal"
       font-size-adjust="none"
       letter-spacing="normal"
       word-spacing="normal"
       ns0:text="(a)"
       ns0:preamble="C:\\Users\\Matthew Thornton\\AppData\\Roaming\\inkscape\\extensions\\default_packages.tex"
       ns0:scale="0.4"
       style="font-style:normal;font-variant:normal;font-weight:normal;font-stretch:normal;letter-spacing:normal;word-spacing:normal;text-anchor:start;fill:#000000;fill-opacity:1;fill-rule:evenodd;stroke:#000000;stroke-linecap:butt;stroke-linejoin:miter;stroke-miterlimit:10.43299961;stroke-dasharray:none;stroke-dashoffset:0;stroke-opacity:1"><path
         inkscape:connector-curvature="0"
         d="m 152.01,704.85 v 0.01 0 0 0.01 0 0 0.01 0 0 l -0.01,0.01 v 0 0.01 0 l -0.01,0.01 v 0 l -0.01,0.01 v 0.01 h -0.01 v 0.01 h -0.01 v 0.01 0 h -0.01 v 0.01 0 l -0.01,0.01 v 0 l -0.01,0.01 v 0 l -0.01,0.01 v 0 l -0.01,0.01 v 0.01 h -0.01 l -0.01,0.01 v 0.01 h -0.01 l -0.01,0.01 v 0.01 h -0.01 l -0.01,0.01 -0.01,0.01 c -1.24,1.25 -1.56,3.13 -1.56,4.65 0,1.73 0.38,3.45 1.6,4.7 0.13,0.12 0.13,0.14 0.13,0.17 0,0.07 -0.04,0.09 -0.1,0.09 -0.1,0 -0.99,-0.67 -1.58,-1.93 -0.51,-1.09 -0.63,-2.2 -0.63,-3.03 0,-0.78 0.11,-1.98 0.66,-3.1 0.6,-1.22 1.45,-1.87 1.55,-1.87 0.06,0 0.1,0.03 0.1,0.1 z"
         font-size-adjust="none"
         font-stretch="normal"
         font-style="normal"
         font-variant="normal"
         font-weight="normal"
         letter-spacing="normal"
         stroke-miterlimit="10.433"
         word-spacing="normal"
         style="font-style:normal;font-variant:normal;font-weight:normal;font-stretch:normal;letter-spacing:normal;word-spacing:normal;text-anchor:start;fill:#000000;fill-opacity:1;fill-rule:evenodd;stroke:#000000;stroke-width:0;stroke-linecap:butt;stroke-linejoin:miter;stroke-miterlimit:10.43299961;stroke-dasharray:none;stroke-dashoffset:0;stroke-opacity:1"
         id="path4604" /><path
         inkscape:connector-curvature="0"
         d="m 155.91,707.99 v -0.04 l 0.01,-0.03 v -0.04 l 0.01,-0.04 0.01,-0.04 0.01,-0.03 0.02,-0.04 0.01,-0.03 0.01,-0.04 0.02,-0.03 0.02,-0.04 0.02,-0.03 0.02,-0.03 0.02,-0.04 0.02,-0.03 0.03,-0.03 0.02,-0.02 0.03,-0.03 0.02,-0.03 0.03,-0.02 0.03,-0.02 0.03,-0.03 0.04,-0.02 0.03,-0.01 0.04,-0.02 0.03,-0.01 0.04,-0.02 0.04,-0.01 h 0.04 l 0.04,-0.01 h 0.04 l 0.04,-0.01 c 0.21,0 0.82,0.14 0.82,0.95 v 0.55 h -0.25 v -0.55 c 0,-0.58 -0.25,-0.64 -0.36,-0.64 -0.32,0 -0.37,0.45 -0.37,0.5 v 1.99 c 0,0.41 0,0.8 -0.35,1.17 -0.39,0.39 -0.89,0.54 -1.37,0.54 -0.82,0 -1.51,-0.46 -1.51,-1.12 0,-0.29 0.2,-0.46 0.46,-0.46 0.28,0 0.46,0.19 0.46,0.45 0,0.12 -0.05,0.45 -0.51,0.46 0.27,0.35 0.76,0.46 1.08,0.46 0.49,0 1.06,-0.39 1.06,-1.27 v -0.37 -0.21 -0.99 c 0,-0.95 -0.72,-1.29 -1.17,-1.29 -0.49,0 -0.9,0.35 -0.9,0.85 0,0.54 0.42,1.37 2.07,1.43 v 0 0.21 c -0.51,-0.03 -1.21,-0.06 -1.84,-0.36 -0.74,-0.34 -0.99,-0.85 -0.99,-1.29 0,-0.81 0.96,-1.05 1.59,-1.05 0.66,0 1.12,0.39 1.31,0.86 z"
         font-size-adjust="none"
         font-stretch="normal"
         font-style="normal"
         font-variant="normal"
         font-weight="normal"
         letter-spacing="normal"
         stroke-miterlimit="10.433"
         word-spacing="normal"
         style="font-style:normal;font-variant:normal;font-weight:normal;font-stretch:normal;letter-spacing:normal;word-spacing:normal;text-anchor:start;fill:#000000;fill-opacity:1;fill-rule:evenodd;stroke:#000000;stroke-width:0;stroke-linecap:butt;stroke-linejoin:miter;stroke-miterlimit:10.43299961;stroke-dasharray:none;stroke-dashoffset:0;stroke-opacity:1"
         id="path4606" /><path
         inkscape:connector-curvature="0"
         d="m 160.45,709.72 v 0.07 0.08 0.08 l -0.01,0.08 v 0.17 l -0.02,0.17 -0.01,0.18 -0.02,0.19 -0.03,0.2 -0.03,0.2 -0.04,0.2 -0.05,0.21 -0.05,0.21 -0.06,0.21 -0.07,0.21 -0.08,0.21 -0.05,0.11 -0.04,0.11 -0.05,0.1 -0.05,0.11 c -0.6,1.22 -1.45,1.86 -1.55,1.86 -0.06,0 -0.1,-0.03 -0.1,-0.09 0,-0.03 0,-0.05 0.19,-0.23 0.97,-0.99 1.54,-2.57 1.54,-4.64 0,-1.7 -0.37,-3.45 -1.6,-4.7 -0.13,-0.12 -0.13,-0.14 -0.13,-0.17 0,-0.06 0.04,-0.1 0.1,-0.1 0.1,0 0.99,0.68 1.58,1.94 0.51,1.09 0.63,2.19 0.63,3.03 z"
         font-size-adjust="none"
         font-stretch="normal"
         font-style="normal"
         font-variant="normal"
         font-weight="normal"
         letter-spacing="normal"
         stroke-miterlimit="10.433"
         word-spacing="normal"
         style="font-style:normal;font-variant:normal;font-weight:normal;font-stretch:normal;letter-spacing:normal;word-spacing:normal;text-anchor:start;fill:#000000;fill-opacity:1;fill-rule:evenodd;stroke:#000000;stroke-width:0;stroke-linecap:butt;stroke-linejoin:miter;stroke-miterlimit:10.43299961;stroke-dasharray:none;stroke-dashoffset:0;stroke-opacity:1"
         id="path4608" /></g>    <g
       style="font-style:normal;font-variant:normal;font-weight:normal;font-stretch:normal;letter-spacing:normal;word-spacing:normal;text-anchor:start;fill:#000000;fill-opacity:1;fill-rule:evenodd;stroke:#000000;stroke-linecap:butt;stroke-linejoin:miter;stroke-miterlimit:10.43299961;stroke-dasharray:none;stroke-dashoffset:0;stroke-opacity:1"
       ns0:scale="0.4"
       ns0:preamble="C:\\Users\\Matthew Thornton\\AppData\\Roaming\\inkscape\\extensions\\default_packages.tex"
       ns0:text="(b)"
       word-spacing="normal"
       letter-spacing="normal"
       font-size-adjust="none"
       font-stretch="normal"
       font-weight="normal"
       font-variant="normal"
       font-style="normal"
       stroke-miterlimit="10.433"
       xml:space="preserve"
       transform="matrix(0.4,0,0,-0.4,1.360015,322.75944)"
       id="g4699"><path
         id="path4693"
         style="font-style:normal;font-variant:normal;font-weight:normal;font-stretch:normal;letter-spacing:normal;word-spacing:normal;text-anchor:start;fill:#000000;fill-opacity:1;fill-rule:evenodd;stroke:#000000;stroke-width:0;stroke-linecap:butt;stroke-linejoin:miter;stroke-miterlimit:10.43299961;stroke-dasharray:none;stroke-dashoffset:0;stroke-opacity:1"
         word-spacing="normal"
         stroke-miterlimit="10.433"
         letter-spacing="normal"
         font-weight="normal"
         font-variant="normal"
         font-style="normal"
         font-stretch="normal"
         font-size-adjust="none"
         d="m 152.01,704.85 v 0.01 0 0 0.01 0 0 0.01 0 0 l -0.01,0.01 v 0 0.01 0 l -0.01,0.01 v 0 l -0.01,0.01 v 0.01 h -0.01 v 0.01 h -0.01 v 0.01 0 h -0.01 v 0.01 0 l -0.01,0.01 v 0 l -0.01,0.01 v 0 l -0.01,0.01 v 0 l -0.01,0.01 v 0.01 h -0.01 l -0.01,0.01 v 0.01 h -0.01 l -0.01,0.01 v 0.01 h -0.01 l -0.01,0.01 -0.01,0.01 c -1.24,1.25 -1.56,3.13 -1.56,4.65 0,1.73 0.38,3.45 1.6,4.7 0.13,0.12 0.13,0.14 0.13,0.17 0,0.07 -0.04,0.09 -0.1,0.09 -0.1,0 -0.99,-0.67 -1.58,-1.93 -0.51,-1.09 -0.63,-2.2 -0.63,-3.03 0,-0.78 0.11,-1.98 0.66,-3.1 0.6,-1.22 1.45,-1.87 1.55,-1.87 0.06,0 0.1,0.03 0.1,0.1 z"
         inkscape:connector-curvature="0" /><path
         id="path4695"
         style="font-style:normal;font-variant:normal;font-weight:normal;font-stretch:normal;letter-spacing:normal;word-spacing:normal;text-anchor:start;fill:#000000;fill-opacity:1;fill-rule:evenodd;stroke:#000000;stroke-width:0;stroke-linecap:butt;stroke-linejoin:miter;stroke-miterlimit:10.43299961;stroke-dasharray:none;stroke-dashoffset:0;stroke-opacity:1"
         word-spacing="normal"
         stroke-miterlimit="10.433"
         letter-spacing="normal"
         font-weight="normal"
         font-variant="normal"
         font-style="normal"
         font-stretch="normal"
         font-size-adjust="none"
         d="m 154.3,710.98 v 3.15 l -1.43,-0.11 v -0.31 c 0.69,0 0.77,-0.07 0.77,-0.55 v -5.93 h 0.25 c 0.01,0.01 0.09,0.15 0.36,0.62 0.15,-0.23 0.57,-0.72 1.31,-0.72 l -0.04,0.21 c -0.45,0 -0.81,0.24 -1.05,0.61 -0.14,0.21 -0.14,0.24 -0.14,0.42 v 0 2.04 c 0,0.19 0,0.2 0.11,0.36 0.39,0.56 0.94,0.64 1.18,0.64 0.45,0 0.81,-0.26 1.04,-0.64 0.26,-0.41 0.29,-0.97 0.29,-1.38 0,-0.37 -0.02,-0.96 -0.3,-1.41 -0.21,-0.31 -0.59,-0.64 -1.13,-0.64 l 0.04,-0.21 c 1.18,0 2.22,0.97 2.22,2.25 0,1.26 -0.98,2.25 -2.11,2.25 -0.78,0 -1.21,-0.47 -1.37,-0.65 z"
         inkscape:connector-curvature="0" /><path
         id="path4697"
         style="font-style:normal;font-variant:normal;font-weight:normal;font-stretch:normal;letter-spacing:normal;word-spacing:normal;text-anchor:start;fill:#000000;fill-opacity:1;fill-rule:evenodd;stroke:#000000;stroke-width:0;stroke-linecap:butt;stroke-linejoin:miter;stroke-miterlimit:10.43299961;stroke-dasharray:none;stroke-dashoffset:0;stroke-opacity:1"
         word-spacing="normal"
         stroke-miterlimit="10.433"
         letter-spacing="normal"
         font-weight="normal"
         font-variant="normal"
         font-style="normal"
         font-stretch="normal"
         font-size-adjust="none"
         d="m 161,709.72 v 0.07 0.08 0.08 0.08 l -0.01,0.17 -0.01,0.17 -0.02,0.18 -0.02,0.19 -0.03,0.2 -0.03,0.2 -0.04,0.2 -0.05,0.21 -0.05,0.21 -0.06,0.21 -0.07,0.21 -0.08,0.21 -0.04,0.11 -0.05,0.11 -0.04,0.1 -0.05,0.11 c -0.6,1.22 -1.46,1.86 -1.56,1.86 -0.06,0 -0.1,-0.03 -0.1,-0.09 0,-0.03 0,-0.05 0.19,-0.23 0.98,-0.99 1.55,-2.57 1.55,-4.64 0,-1.7 -0.37,-3.45 -1.61,-4.7 -0.13,-0.12 -0.13,-0.14 -0.13,-0.17 0,-0.06 0.04,-0.1 0.1,-0.1 0.1,0 1,0.68 1.59,1.94 0.5,1.09 0.62,2.19 0.62,3.03 z"
         inkscape:connector-curvature="0" /></g>  </g>
  <g
     inkscape:groupmode="layer"
     id="layer3"
     inkscape:label="axes labels">
    <g
       id="g4599"
       transform="matrix(0.3,0,0,-0.3,-25.869514,214.856)"
       xml:space="preserve"
       stroke-miterlimit="10.433"
       font-style="normal"
       font-variant="normal"
       font-weight="normal"
       font-stretch="normal"
       font-size-adjust="none"
       letter-spacing="normal"
       word-spacing="normal"
       ns0:text="Im($z$)"
       ns0:preamble="C:\\Users\\Matthew Thornton\\AppData\\Roaming\\inkscape\\extensions\\default_packages.tex"
       ns0:scale="0.3"
       style="font-style:normal;font-variant:normal;font-weight:normal;font-stretch:normal;letter-spacing:normal;word-spacing:normal;text-anchor:start;fill:#000000;fill-opacity:1;fill-rule:evenodd;stroke:#000000;stroke-linecap:butt;stroke-linejoin:miter;stroke-miterlimit:10.43299961;stroke-dasharray:none;stroke-dashoffset:0;stroke-opacity:1"><path
         d="m 150.96,713.14 v 0.03 0.03 0.03 0.03 0.03 0.02 l 0.01,0.03 v 0.02 l 0.01,0.02 0.01,0.02 0.01,0.02 0.01,0.02 0.01,0.02 0.01,0.01 0.02,0.02 0.02,0.01 0.02,0.02 0.02,0.01 h 0.02 l 0.01,0.01 h 0.01 l 0.02,0.01 h 0.01 l 0.02,0.01 h 0.02 l 0.01,0.01 h 0.02 0.02 l 0.02,0.01 h 0.02 0.03 0.02 l 0.02,0.01 h 0.03 0.02 0.03 l 0.02,0.01 h 0.03 0.03 0.03 0.03 0.03 0.04 0.03 0.04 0.03 0.26 v 0.31 c -0.35,-0.03 -1.13,-0.03 -1.51,-0.03 -0.39,0 -1.18,0 -1.53,0.03 v -0.31 h 0.26 c 0.79,0 0.82,-0.11 0.82,-0.46 v -5.24 c 0,-0.36 -0.03,-0.47 -0.82,-0.47 h -0.26 v -0.3 c 0.35,0.03 1.14,0.03 1.52,0.03 0.39,0 1.17,0 1.52,-0.03 v 0.3 h -0.26 c -0.78,0 -0.81,0.11 -0.81,0.47 z"
         font-size-adjust="none"
         font-stretch="normal"
         font-style="normal"
         font-variant="normal"
         font-weight="normal"
         letter-spacing="normal"
         stroke-miterlimit="10.433"
         word-spacing="normal"
         style="font-style:normal;font-variant:normal;font-weight:normal;font-stretch:normal;letter-spacing:normal;word-spacing:normal;text-anchor:start;fill:#000000;fill-opacity:1;fill-rule:evenodd;stroke:#000000;stroke-width:0;stroke-linecap:butt;stroke-linejoin:miter;stroke-miterlimit:10.43299961;stroke-dasharray:none;stroke-dashoffset:0;stroke-opacity:1"
         id="path4589"
         inkscape:connector-curvature="0" /><path
         d="m 153.41,710.54 v -2.66 c 0,-0.45 -0.11,-0.45 -0.78,-0.45 v -0.3 c 0.35,0.01 0.86,0.03 1.13,0.03 0.25,0 0.77,-0.02 1.11,-0.03 v 0.3 c -0.67,0 -0.77,0 -0.77,0.45 v 1.83 c 0,1.03 0.7,1.59 1.34,1.59 0.63,0 0.74,-0.54 0.74,-1.1 v -2.32 c 0,-0.45 -0.11,-0.45 -0.78,-0.45 v -0.3 c 0.35,0.01 0.86,0.03 1.13,0.03 0.26,0 0.78,-0.02 1.12,-0.03 v 0.3 c -0.67,0 -0.78,0 -0.78,0.45 v 1.83 c 0,1.03 0.7,1.59 1.34,1.59 0.63,0 0.74,-0.54 0.74,-1.1 v -2.32 c 0,-0.45 -0.11,-0.45 -0.78,-0.45 v -0.3 c 0.35,0.01 0.86,0.03 1.13,0.03 0.26,0 0.78,-0.02 1.12,-0.03 v 0.3 c -0.52,0 -0.77,0 -0.78,0.3 v 1.9 c 0,0.85 0,1.16 -0.31,1.52 -0.14,0.17 -0.47,0.37 -1.05,0.37 -0.83,0 -1.27,-0.6 -1.44,-0.98 -0.14,0.87 -0.88,0.98 -1.33,0.98 -0.73,0 -1.2,-0.43 -1.47,-1.05 v 1.05 l -1.41,-0.11 v -0.31 c 0.7,0 0.78,-0.07 0.78,-0.56 z"
         font-size-adjust="none"
         font-stretch="normal"
         font-style="normal"
         font-variant="normal"
         font-weight="normal"
         letter-spacing="normal"
         stroke-miterlimit="10.433"
         word-spacing="normal"
         style="font-style:normal;font-variant:normal;font-weight:normal;font-stretch:normal;letter-spacing:normal;word-spacing:normal;text-anchor:start;fill:#000000;fill-opacity:1;fill-rule:evenodd;stroke:#000000;stroke-width:0;stroke-linecap:butt;stroke-linejoin:miter;stroke-miterlimit:10.43299961;stroke-dasharray:none;stroke-dashoffset:0;stroke-opacity:1"
         id="path4591"
         inkscape:connector-curvature="0" /><path
         d="m 163.91,704.74 v 0.01 0 0 0.01 0 0 0.01 0 0 l -0.01,0.01 v 0 0.01 h -0.01 v 0.01 0 l -0.01,0.01 v 0.01 h -0.01 v 0.01 h -0.01 v 0.01 0 h -0.01 v 0.01 0 l -0.01,0.01 v 0 l -0.01,0.01 v 0 l -0.01,0.01 v 0 l -0.01,0.01 -0.01,0.01 v 0 l -0.01,0.01 v 0.01 h -0.01 l -0.01,0.01 v 0.01 h -0.01 l -0.01,0.01 -0.01,0.01 c -1.24,1.25 -1.56,3.13 -1.56,4.65 0,1.73 0.38,3.46 1.6,4.7 0.13,0.12 0.13,0.14 0.13,0.17 0,0.07 -0.04,0.1 -0.1,0.1 -0.1,0 -0.99,-0.68 -1.58,-1.94 -0.51,-1.09 -0.63,-2.2 -0.63,-3.03 0,-0.78 0.11,-1.98 0.66,-3.1 0.59,-1.22 1.45,-1.87 1.55,-1.87 0.06,0 0.1,0.03 0.1,0.1 z"
         font-size-adjust="none"
         font-stretch="normal"
         font-style="normal"
         font-variant="normal"
         font-weight="normal"
         letter-spacing="normal"
         stroke-miterlimit="10.433"
         word-spacing="normal"
         style="font-style:normal;font-variant:normal;font-weight:normal;font-stretch:normal;letter-spacing:normal;word-spacing:normal;text-anchor:start;fill:#000000;fill-opacity:1;fill-rule:evenodd;stroke:#000000;stroke-width:0;stroke-linecap:butt;stroke-linejoin:miter;stroke-miterlimit:10.43299961;stroke-dasharray:none;stroke-dashoffset:0;stroke-opacity:1"
         id="path4593"
         inkscape:connector-curvature="0" /><path
         d="m 165.81,707.95 0.05,0.05 0.05,0.05 0.05,0.05 0.04,0.05 0.05,0.05 0.04,0.04 0.04,0.04 0.05,0.05 0.04,0.04 0.03,0.04 0.04,0.03 0.04,0.04 0.04,0.04 0.03,0.03 0.07,0.07 0.07,0.06 0.07,0.06 0.06,0.06 0.07,0.06 0.13,0.11 0.06,0.05 0.07,0.06 c 0,0.01 0.62,0.54 0.98,0.9 0.95,0.92 1.16,1.4 1.16,1.44 0,0.1 -0.09,0.1 -0.11,0.1 -0.07,0 -0.1,-0.02 -0.15,-0.11 -0.29,-0.48 -0.5,-0.64 -0.74,-0.64 -0.24,0 -0.36,0.15 -0.51,0.32 -0.19,0.23 -0.36,0.43 -0.69,0.43 -0.75,0 -1.21,-0.93 -1.21,-1.14 0,-0.05 0.03,-0.11 0.12,-0.11 0.09,0 0.11,0.05 0.13,0.11 0.19,0.46 0.77,0.47 0.85,0.47 0.21,0 0.4,-0.07 0.63,-0.15 0.4,-0.15 0.51,-0.15 0.77,-0.15 -0.36,-0.42 -1.2,-1.14 -1.39,-1.3 l -0.9,-0.83 c -0.68,-0.67 -1.02,-1.24 -1.02,-1.31 0,-0.09 0.1,-0.09 0.12,-0.09 0.08,0 0.09,0.02 0.16,0.13 0.22,0.34 0.52,0.61 0.84,0.61 0.23,0 0.33,-0.09 0.58,-0.38 0.17,-0.21 0.35,-0.36 0.64,-0.36 0.99,0 1.56,1.26 1.56,1.53 0,0.04 -0.03,0.1 -0.11,0.1 -0.09,0 -0.11,-0.06 -0.14,-0.13 -0.23,-0.65 -0.87,-0.84 -1.2,-0.84 -0.2,0 -0.38,0.06 -0.59,0.13 -0.34,0.13 -0.49,0.17 -0.7,0.17 -0.02,0 -0.18,0 -0.27,-0.03 z"
         font-size-adjust="none"
         font-stretch="normal"
         font-style="normal"
         font-variant="normal"
         font-weight="normal"
         letter-spacing="normal"
         stroke-miterlimit="10.433"
         word-spacing="normal"
         style="font-style:normal;font-variant:normal;font-weight:normal;font-stretch:normal;letter-spacing:normal;word-spacing:normal;text-anchor:start;fill:#000000;fill-opacity:1;fill-rule:evenodd;stroke:#000000;stroke-width:0;stroke-linecap:butt;stroke-linejoin:miter;stroke-miterlimit:10.43299961;stroke-dasharray:none;stroke-dashoffset:0;stroke-opacity:1"
         id="path4595"
         inkscape:connector-curvature="0" /><path
         d="m 172.44,709.61 v 0.07 0.08 0.08 l -0.01,0.08 v 0.17 l -0.02,0.17 -0.01,0.18 -0.02,0.19 -0.03,0.2 -0.03,0.2 -0.04,0.2 -0.05,0.21 -0.05,0.21 -0.06,0.21 -0.07,0.21 -0.08,0.21 -0.05,0.11 -0.04,0.11 -0.05,0.1 -0.05,0.11 c -0.6,1.22 -1.45,1.87 -1.55,1.87 -0.06,0 -0.1,-0.04 -0.1,-0.1 0,-0.03 0,-0.05 0.19,-0.23 0.97,-0.99 1.54,-2.57 1.54,-4.64 0,-1.7 -0.37,-3.45 -1.6,-4.7 -0.13,-0.12 -0.13,-0.14 -0.13,-0.17 0,-0.06 0.04,-0.1 0.1,-0.1 0.1,0 0.99,0.68 1.58,1.94 0.51,1.09 0.63,2.19 0.63,3.03 z"
         font-size-adjust="none"
         font-stretch="normal"
         font-style="normal"
         font-variant="normal"
         font-weight="normal"
         letter-spacing="normal"
         stroke-miterlimit="10.433"
         word-spacing="normal"
         style="font-style:normal;font-variant:normal;font-weight:normal;font-stretch:normal;letter-spacing:normal;word-spacing:normal;text-anchor:start;fill:#000000;fill-opacity:1;fill-rule:evenodd;stroke:#000000;stroke-width:0;stroke-linecap:butt;stroke-linejoin:miter;stroke-miterlimit:10.43299961;stroke-dasharray:none;stroke-dashoffset:0;stroke-opacity:1"
         id="path4597"
         inkscape:connector-curvature="0" /></g>    <g
       style="stroke-linejoin:miter;letter-spacing:normal;stroke-opacity:1;fill-opacity:1;fill-rule:evenodd;stroke-linecap:butt;stroke-dashoffset:0;text-anchor:start;word-spacing:normal;stroke:#000000;font-stretch:normal;stroke-miterlimit:10.43299961;font-variant:normal;stroke-dasharray:none;font-weight:normal;font-style:normal;fill:black"
       ns0:scale="0.3"
       ns0:preamble="C:\\Users\\Matthew Thornton\\AppData\\Roaming\\inkscape\\extensions\\default_packages.tex"
       ns0:text="Re($z$)"
       text-anchor="start"
       word-spacing="normal"
       letter-spacing="normal"
       font-size-adjust="none"
       font-stretch="normal"
       font-weight="normal"
       font-variant="normal"
       font-style="normal"
       fill-opacity="1"
       fill-rule="evenodd"
       fill="black"
       stroke-opacity="1"
       stroke-dashoffset="0"
       stroke-dasharray="none"
       stroke-miterlimit="10.433"
       stroke-linejoin="miter"
       stroke-linecap="butt"
       stroke="black"
       xml:space="preserve"
       transform="matrix(0.300000,  0,  0,  -0.300000, -12.870683, 232.645130)"
       id="g4723"><path
         id="path4713"
         style="stroke-linejoin:miter;letter-spacing:normal;stroke-opacity:1;fill-opacity:1;fill-rule:evenodd;stroke-linecap:butt;stroke-dashoffset:0;text-anchor:start;word-spacing:normal;stroke:#000000;font-stretch:normal;stroke-miterlimit:10.43299961;font-variant:normal;stroke-dasharray:none;font-weight:normal;font-style:normal;fill:black"
         word-spacing="normal"
         stroke-miterlimit="10.433"
         letter-spacing="normal"
         font-weight="normal"
         font-variant="normal"
         font-style="normal"
         font-stretch="normal"
         font-size-adjust="none"
         fill="black"
         stroke-width="0"
         d="M153.05,710.5 L153.14,710.53 L153.23,710.55 L153.32,710.58 L153.4,710.61 L153.49,710.64 L153.57,710.67 L153.65,710.71 L153.73,710.75 L153.81,710.79 L153.88,710.83 L153.96,710.87 L154.03,710.92 L154.1,710.96 L154.16,711.01 L154.22,711.06 L154.29,711.11 L154.34,711.16 L154.4,711.22 L154.45,711.27 L154.5,711.33 L154.54,711.39 L154.59,711.45 L154.62,711.51 L154.66,711.58 L154.69,711.64 L154.72,711.71 L154.74,711.77 L154.76,711.84 L154.77,711.91 L154.79,711.98 L154.79,712.05 L154.79,712.12 C154.79,713.08,153.66,713.91,152.19,713.91 H149.06 V713.6 H149.3 C150.07,713.6,150.09,713.49,150.09,713.14 V707.9 C150.09,707.54,150.07,707.43,149.3,707.43 H149.06 V707.13 C149.42,707.16,150.13,707.16,150.52,707.16 C150.91,707.16,151.61,707.16,151.97,707.13 V707.43 H151.73 C150.97,707.43,150.95,707.54,150.95,707.9 V710.41 V710.63 V713.21 C150.95,713.43,150.95,713.55,151.16,713.58 C151.26,713.6,151.55,713.6,151.75,713.6 C152.65,713.6,153.77,713.56,153.77,712.12 C153.77,711.44,153.53,710.63,152.05,710.63 H150.95 V710.41 H152.09 C152.25,710.41,152.67,710.41,153.02,710.08 C153.4,709.72,153.4,709.41,153.4,708.74 C153.4,708.1,153.4,707.7,153.81,707.32 C154.22,706.97,154.76,706.91,155.06,706.91 C155.84,706.91,156.01,707.72,156.01,708 C156.01,708.06,156.01,708.17,155.88,708.17 C155.77,708.17,155.77,708.08,155.76,708.01 C155.7,707.3,155.35,707.13,155.1,707.13 C154.62,707.13,154.54,707.63,154.4,708.55 L154.27,709.35 C154.09,709.99,153.6,710.31,153.05,710.5 Z " /><path
         id="path4715"
         style="stroke-linejoin:miter;letter-spacing:normal;stroke-opacity:1;fill-opacity:1;fill-rule:evenodd;stroke-linecap:butt;stroke-dashoffset:0;text-anchor:start;word-spacing:normal;stroke:#000000;font-stretch:normal;stroke-miterlimit:10.43299961;font-variant:normal;stroke-dasharray:none;font-weight:normal;font-style:normal;fill:black"
         word-spacing="normal"
         stroke-miterlimit="10.433"
         letter-spacing="normal"
         font-weight="normal"
         font-variant="normal"
         font-style="normal"
         font-stretch="normal"
         font-size-adjust="none"
         fill="black"
         stroke-width="0"
         d="M157.15,709.42 L157.16,709.63 C157.22,711.11,158.06,711.36,158.4,711.36 C159.43,711.36,159.53,710.02,159.53,709.63 H157.16 L157.15,709.42 H159.93 C160.15,709.42,160.18,709.42,160.18,709.63 C160.18,710.61,159.65,711.58,158.4,711.58 C157.24,711.58,156.32,710.55,156.32,709.31 C156.32,707.98,157.37,707.02,158.52,707.02 C159.74,707.02,160.18,708.12,160.18,708.31 C160.18,708.41,160.1,708.43,160.05,708.43 C159.96,708.43,159.95,708.37,159.93,708.29 C159.58,707.26,158.68,707.26,158.58,707.26 C158.08,707.26,157.68,707.56,157.45,707.93 C157.15,708.41,157.15,709.06,157.15,709.42 Z " /><path
         id="path4717"
         style="stroke-linejoin:miter;letter-spacing:normal;stroke-opacity:1;fill-opacity:1;fill-rule:evenodd;stroke-linecap:butt;stroke-dashoffset:0;text-anchor:start;word-spacing:normal;stroke:#000000;font-stretch:normal;stroke-miterlimit:10.43299961;font-variant:normal;stroke-dasharray:none;font-weight:normal;font-style:normal;fill:black"
         word-spacing="normal"
         stroke-miterlimit="10.433"
         letter-spacing="normal"
         font-weight="normal"
         font-variant="normal"
         font-style="normal"
         font-stretch="normal"
         font-size-adjust="none"
         fill="black"
         stroke-width="0"
         d="M163.77,704.74 L163.77,704.75 L163.77,704.75 L163.77,704.75 L163.77,704.76 L163.77,704.76 L163.77,704.76 L163.77,704.77 L163.77,704.77 L163.77,704.77 L163.77,704.78 L163.76,704.78 L163.76,704.79 L163.76,704.79 L163.75,704.8 L163.75,704.8 L163.74,704.81 L163.74,704.82 L163.73,704.82 L163.73,704.83 L163.73,704.83 L163.72,704.84 L163.72,704.84 L163.71,704.84 L163.71,704.85 L163.71,704.85 L163.7,704.86 L163.7,704.86 L163.69,704.87 L163.69,704.87 L163.68,704.88 L163.68,704.88 L163.67,704.89 L163.67,704.9 L163.66,704.9 L163.65,704.91 L163.65,704.92 L163.64,704.92 L163.63,704.93 L163.63,704.94 L163.62,704.94 L163.61,704.95 L163.6,704.96 C162.36,706.21,162.04,708.09,162.04,709.61 C162.04,711.34,162.42,713.07,163.64,714.31 C163.77,714.43,163.77,714.45,163.77,714.48 C163.77,714.55,163.73,714.58,163.67,714.58 C163.57,714.58,162.68,713.9,162.09,712.64 C161.58,711.55,161.46,710.44,161.46,709.61 C161.46,708.83,161.57,707.63,162.12,706.51 C162.72,705.29,163.57,704.64,163.67,704.64 C163.73,704.64,163.77,704.67,163.77,704.74 Z " /><path
         id="path4719"
         style="stroke-linejoin:miter;letter-spacing:normal;stroke-opacity:1;fill-opacity:1;fill-rule:evenodd;stroke-linecap:butt;stroke-dashoffset:0;text-anchor:start;word-spacing:normal;stroke:#000000;font-stretch:normal;stroke-miterlimit:10.43299961;font-variant:normal;stroke-dasharray:none;font-weight:normal;font-style:normal;fill:black"
         word-spacing="normal"
         stroke-miterlimit="10.433"
         letter-spacing="normal"
         font-weight="normal"
         font-variant="normal"
         font-style="normal"
         font-stretch="normal"
         font-size-adjust="none"
         fill="black"
         stroke-width="0"
         d="M165.67,707.95 L165.72,708 L165.77,708.05 L165.82,708.1 L165.87,708.15 L165.91,708.2 L165.95,708.24 L166,708.28 L166.04,708.33 L166.08,708.37 L166.12,708.41 L166.15,708.44 L166.19,708.48 L166.23,708.52 L166.26,708.55 L166.33,708.62 L166.4,708.68 L166.47,708.74 L166.54,708.8 L166.6,708.86 L166.73,708.97 L166.79,709.02 L166.86,709.08 C166.86,709.09,167.48,709.62,167.84,709.98 C168.79,710.9,169.01,711.38,169.01,711.42 C169.01,711.52,168.91,711.52,168.9,711.52 C168.83,711.52,168.8,711.5,168.75,711.41 C168.45,710.93,168.24,710.77,168,710.77 C167.76,710.77,167.64,710.92,167.49,711.09 C167.3,711.32,167.13,711.52,166.8,711.52 C166.05,711.52,165.6,710.59,165.6,710.38 C165.6,710.33,165.62,710.27,165.71,710.27 C165.8,710.27,165.82,710.32,165.84,710.38 C166.03,710.84,166.61,710.85,166.69,710.85 C166.9,710.85,167.09,710.78,167.32,710.7 C167.72,710.55,167.83,710.55,168.09,710.55 C167.73,710.13,166.89,709.41,166.7,709.25 L165.8,708.42 C165.13,707.75,164.78,707.18,164.78,707.11 C164.78,707.02,164.88,707.02,164.9,707.02 C164.98,707.02,165,707.04,165.06,707.15 C165.29,707.49,165.59,707.76,165.9,707.76 C166.13,707.76,166.23,707.67,166.48,707.38 C166.65,707.17,166.83,707.02,167.12,707.02 C168.11,707.02,168.69,708.28,168.69,708.55 C168.69,708.59,168.65,708.65,168.57,708.65 C168.48,708.65,168.46,708.59,168.43,708.52 C168.2,707.87,167.56,707.68,167.23,707.68 C167.03,707.68,166.85,707.74,166.64,707.81 C166.3,707.94,166.15,707.98,165.94,707.98 C165.92,707.98,165.76,707.98,165.67,707.95 Z " /><path
         id="path4721"
         style="stroke-linejoin:miter;letter-spacing:normal;stroke-opacity:1;fill-opacity:1;fill-rule:evenodd;stroke-linecap:butt;stroke-dashoffset:0;text-anchor:start;word-spacing:normal;stroke:#000000;font-stretch:normal;stroke-miterlimit:10.43299961;font-variant:normal;stroke-dasharray:none;font-weight:normal;font-style:normal;fill:black"
         word-spacing="normal"
         stroke-miterlimit="10.433"
         letter-spacing="normal"
         font-weight="normal"
         font-variant="normal"
         font-style="normal"
         font-stretch="normal"
         font-size-adjust="none"
         fill="black"
         stroke-width="0"
         d="M172.3,709.61 L172.3,709.68 L172.3,709.76 L172.3,709.84 L172.3,709.92 L172.29,710.09 L172.28,710.26 L172.26,710.44 L172.24,710.63 L172.21,710.83 L172.18,711.03 L172.14,711.23 L172.09,711.44 L172.04,711.65 L171.98,711.86 L171.91,712.07 L171.83,712.28 L171.79,712.39 L171.74,712.5 L171.69,712.6 L171.64,712.71 C171.04,713.93,170.19,714.58,170.09,714.58 C170.03,714.58,169.99,714.54,169.99,714.48 C169.99,714.45,169.99,714.43,170.18,714.25 C171.15,713.26,171.72,711.68,171.72,709.61 C171.72,707.91,171.35,706.16,170.12,704.91 C169.99,704.79,169.99,704.77,169.99,704.74 C169.99,704.68,170.03,704.64,170.09,704.64 C170.19,704.64,171.08,705.32,171.67,706.58 C172.18,707.67,172.3,708.77,172.3,709.61 Z " /></g>    <g
       id="g4847"
       transform="matrix(0.3,0,0,-0.3,20.511711,214.9982)"
       xml:space="preserve"
       stroke-miterlimit="10.433"
       font-style="normal"
       font-variant="normal"
       font-weight="normal"
       font-stretch="normal"
       font-size-adjust="none"
       letter-spacing="normal"
       word-spacing="normal"
       ns0:text="Im($z$)"
       ns0:preamble="C:\\Users\\Matthew Thornton\\AppData\\Roaming\\inkscape\\extensions\\default_packages.tex"
       ns0:scale="0.3"
       style="font-style:normal;font-variant:normal;font-weight:normal;font-stretch:normal;letter-spacing:normal;word-spacing:normal;text-anchor:start;fill:#000000;fill-opacity:1;fill-rule:evenodd;stroke:#000000;stroke-linecap:butt;stroke-linejoin:miter;stroke-miterlimit:10.43299961;stroke-dasharray:none;stroke-dashoffset:0;stroke-opacity:1"><path
         d="m 150.96,713.14 v 0.03 0.03 0.03 0.03 0.03 0.02 l 0.01,0.03 v 0.02 l 0.01,0.02 0.01,0.02 0.01,0.02 0.01,0.02 0.01,0.02 0.01,0.01 0.02,0.02 0.02,0.01 0.02,0.02 0.02,0.01 h 0.02 l 0.01,0.01 h 0.01 l 0.02,0.01 h 0.01 l 0.02,0.01 h 0.02 l 0.01,0.01 h 0.02 0.02 l 0.02,0.01 h 0.02 0.03 0.02 l 0.02,0.01 h 0.03 0.02 0.03 l 0.02,0.01 h 0.03 0.03 0.03 0.03 0.03 0.04 0.03 0.04 0.03 0.26 v 0.31 c -0.35,-0.03 -1.13,-0.03 -1.51,-0.03 -0.39,0 -1.18,0 -1.53,0.03 v -0.31 h 0.26 c 0.79,0 0.82,-0.11 0.82,-0.46 v -5.24 c 0,-0.36 -0.03,-0.47 -0.82,-0.47 h -0.26 v -0.3 c 0.35,0.03 1.14,0.03 1.52,0.03 0.39,0 1.17,0 1.52,-0.03 v 0.3 h -0.26 c -0.78,0 -0.81,0.11 -0.81,0.47 z"
         font-size-adjust="none"
         font-stretch="normal"
         font-style="normal"
         font-variant="normal"
         font-weight="normal"
         letter-spacing="normal"
         stroke-miterlimit="10.433"
         word-spacing="normal"
         style="font-style:normal;font-variant:normal;font-weight:normal;font-stretch:normal;letter-spacing:normal;word-spacing:normal;text-anchor:start;fill:#000000;fill-opacity:1;fill-rule:evenodd;stroke:#000000;stroke-width:0;stroke-linecap:butt;stroke-linejoin:miter;stroke-miterlimit:10.43299961;stroke-dasharray:none;stroke-dashoffset:0;stroke-opacity:1"
         id="path4837"
         inkscape:connector-curvature="0" /><path
         d="m 153.41,710.54 v -2.66 c 0,-0.45 -0.11,-0.45 -0.78,-0.45 v -0.3 c 0.35,0.01 0.86,0.03 1.13,0.03 0.25,0 0.77,-0.02 1.11,-0.03 v 0.3 c -0.67,0 -0.77,0 -0.77,0.45 v 1.83 c 0,1.03 0.7,1.59 1.34,1.59 0.63,0 0.74,-0.54 0.74,-1.1 v -2.32 c 0,-0.45 -0.11,-0.45 -0.78,-0.45 v -0.3 c 0.35,0.01 0.86,0.03 1.13,0.03 0.26,0 0.78,-0.02 1.12,-0.03 v 0.3 c -0.67,0 -0.78,0 -0.78,0.45 v 1.83 c 0,1.03 0.7,1.59 1.34,1.59 0.63,0 0.74,-0.54 0.74,-1.1 v -2.32 c 0,-0.45 -0.11,-0.45 -0.78,-0.45 v -0.3 c 0.35,0.01 0.86,0.03 1.13,0.03 0.26,0 0.78,-0.02 1.12,-0.03 v 0.3 c -0.52,0 -0.77,0 -0.78,0.3 v 1.9 c 0,0.85 0,1.16 -0.31,1.52 -0.14,0.17 -0.47,0.37 -1.05,0.37 -0.83,0 -1.27,-0.6 -1.44,-0.98 -0.14,0.87 -0.88,0.98 -1.33,0.98 -0.73,0 -1.2,-0.43 -1.47,-1.05 v 1.05 l -1.41,-0.11 v -0.31 c 0.7,0 0.78,-0.07 0.78,-0.56 z"
         font-size-adjust="none"
         font-stretch="normal"
         font-style="normal"
         font-variant="normal"
         font-weight="normal"
         letter-spacing="normal"
         stroke-miterlimit="10.433"
         word-spacing="normal"
         style="font-style:normal;font-variant:normal;font-weight:normal;font-stretch:normal;letter-spacing:normal;word-spacing:normal;text-anchor:start;fill:#000000;fill-opacity:1;fill-rule:evenodd;stroke:#000000;stroke-width:0;stroke-linecap:butt;stroke-linejoin:miter;stroke-miterlimit:10.43299961;stroke-dasharray:none;stroke-dashoffset:0;stroke-opacity:1"
         id="path4839"
         inkscape:connector-curvature="0" /><path
         d="m 163.91,704.74 v 0.01 0 0 0.01 0 0 0.01 0 0 l -0.01,0.01 v 0 0.01 h -0.01 v 0.01 0 l -0.01,0.01 v 0.01 h -0.01 v 0.01 h -0.01 v 0.01 0 h -0.01 v 0.01 0 l -0.01,0.01 v 0 l -0.01,0.01 v 0 l -0.01,0.01 v 0 l -0.01,0.01 -0.01,0.01 v 0 l -0.01,0.01 v 0.01 h -0.01 l -0.01,0.01 v 0.01 h -0.01 l -0.01,0.01 -0.01,0.01 c -1.24,1.25 -1.56,3.13 -1.56,4.65 0,1.73 0.38,3.46 1.6,4.7 0.13,0.12 0.13,0.14 0.13,0.17 0,0.07 -0.04,0.1 -0.1,0.1 -0.1,0 -0.99,-0.68 -1.58,-1.94 -0.51,-1.09 -0.63,-2.2 -0.63,-3.03 0,-0.78 0.11,-1.98 0.66,-3.1 0.59,-1.22 1.45,-1.87 1.55,-1.87 0.06,0 0.1,0.03 0.1,0.1 z"
         font-size-adjust="none"
         font-stretch="normal"
         font-style="normal"
         font-variant="normal"
         font-weight="normal"
         letter-spacing="normal"
         stroke-miterlimit="10.433"
         word-spacing="normal"
         style="font-style:normal;font-variant:normal;font-weight:normal;font-stretch:normal;letter-spacing:normal;word-spacing:normal;text-anchor:start;fill:#000000;fill-opacity:1;fill-rule:evenodd;stroke:#000000;stroke-width:0;stroke-linecap:butt;stroke-linejoin:miter;stroke-miterlimit:10.43299961;stroke-dasharray:none;stroke-dashoffset:0;stroke-opacity:1"
         id="path4841"
         inkscape:connector-curvature="0" /><path
         d="m 165.81,707.95 0.05,0.05 0.05,0.05 0.05,0.05 0.04,0.05 0.05,0.05 0.04,0.04 0.04,0.04 0.05,0.05 0.04,0.04 0.03,0.04 0.04,0.03 0.04,0.04 0.04,0.04 0.03,0.03 0.07,0.07 0.07,0.06 0.07,0.06 0.06,0.06 0.07,0.06 0.13,0.11 0.06,0.05 0.07,0.06 c 0,0.01 0.62,0.54 0.98,0.9 0.95,0.92 1.16,1.4 1.16,1.44 0,0.1 -0.09,0.1 -0.11,0.1 -0.07,0 -0.1,-0.02 -0.15,-0.11 -0.29,-0.48 -0.5,-0.64 -0.74,-0.64 -0.24,0 -0.36,0.15 -0.51,0.32 -0.19,0.23 -0.36,0.43 -0.69,0.43 -0.75,0 -1.21,-0.93 -1.21,-1.14 0,-0.05 0.03,-0.11 0.12,-0.11 0.09,0 0.11,0.05 0.13,0.11 0.19,0.46 0.77,0.47 0.85,0.47 0.21,0 0.4,-0.07 0.63,-0.15 0.4,-0.15 0.51,-0.15 0.77,-0.15 -0.36,-0.42 -1.2,-1.14 -1.39,-1.3 l -0.9,-0.83 c -0.68,-0.67 -1.02,-1.24 -1.02,-1.31 0,-0.09 0.1,-0.09 0.12,-0.09 0.08,0 0.09,0.02 0.16,0.13 0.22,0.34 0.52,0.61 0.84,0.61 0.23,0 0.33,-0.09 0.58,-0.38 0.17,-0.21 0.35,-0.36 0.64,-0.36 0.99,0 1.56,1.26 1.56,1.53 0,0.04 -0.03,0.1 -0.11,0.1 -0.09,0 -0.11,-0.06 -0.14,-0.13 -0.23,-0.65 -0.87,-0.84 -1.2,-0.84 -0.2,0 -0.38,0.06 -0.59,0.13 -0.34,0.13 -0.49,0.17 -0.7,0.17 -0.02,0 -0.18,0 -0.27,-0.03 z"
         font-size-adjust="none"
         font-stretch="normal"
         font-style="normal"
         font-variant="normal"
         font-weight="normal"
         letter-spacing="normal"
         stroke-miterlimit="10.433"
         word-spacing="normal"
         style="font-style:normal;font-variant:normal;font-weight:normal;font-stretch:normal;letter-spacing:normal;word-spacing:normal;text-anchor:start;fill:#000000;fill-opacity:1;fill-rule:evenodd;stroke:#000000;stroke-width:0;stroke-linecap:butt;stroke-linejoin:miter;stroke-miterlimit:10.43299961;stroke-dasharray:none;stroke-dashoffset:0;stroke-opacity:1"
         id="path4843"
         inkscape:connector-curvature="0" /><path
         d="m 172.44,709.61 v 0.07 0.08 0.08 l -0.01,0.08 v 0.17 l -0.02,0.17 -0.01,0.18 -0.02,0.19 -0.03,0.2 -0.03,0.2 -0.04,0.2 -0.05,0.21 -0.05,0.21 -0.06,0.21 -0.07,0.21 -0.08,0.21 -0.05,0.11 -0.04,0.11 -0.05,0.1 -0.05,0.11 c -0.6,1.22 -1.45,1.87 -1.55,1.87 -0.06,0 -0.1,-0.04 -0.1,-0.1 0,-0.03 0,-0.05 0.19,-0.23 0.97,-0.99 1.54,-2.57 1.54,-4.64 0,-1.7 -0.37,-3.45 -1.6,-4.7 -0.13,-0.12 -0.13,-0.14 -0.13,-0.17 0,-0.06 0.04,-0.1 0.1,-0.1 0.1,0 0.99,0.68 1.58,1.94 0.51,1.09 0.63,2.19 0.63,3.03 z"
         font-size-adjust="none"
         font-stretch="normal"
         font-style="normal"
         font-variant="normal"
         font-weight="normal"
         letter-spacing="normal"
         stroke-miterlimit="10.433"
         word-spacing="normal"
         style="font-style:normal;font-variant:normal;font-weight:normal;font-stretch:normal;letter-spacing:normal;word-spacing:normal;text-anchor:start;fill:#000000;fill-opacity:1;fill-rule:evenodd;stroke:#000000;stroke-width:0;stroke-linecap:butt;stroke-linejoin:miter;stroke-miterlimit:10.43299961;stroke-dasharray:none;stroke-dashoffset:0;stroke-opacity:1"
         id="path4845"
         inkscape:connector-curvature="0" /></g>    <g
       style="stroke-linejoin:miter;letter-spacing:normal;stroke-opacity:1;fill-opacity:1;fill-rule:evenodd;stroke-linecap:butt;stroke-dashoffset:0;text-anchor:start;word-spacing:normal;stroke:#000000;font-stretch:normal;stroke-miterlimit:10.43299961;font-variant:normal;stroke-dasharray:none;font-weight:normal;font-style:normal;fill:black"
       ns0:scale="0.3"
       ns0:preamble="C:\\Users\\Matthew Thornton\\AppData\\Roaming\\inkscape\\extensions\\default_packages.tex"
       ns0:text="Re($z$)"
       text-anchor="start"
       word-spacing="normal"
       letter-spacing="normal"
       font-size-adjust="none"
       font-stretch="normal"
       font-weight="normal"
       font-variant="normal"
       font-style="normal"
       fill-opacity="1"
       fill-rule="evenodd"
       fill="black"
       stroke-opacity="1"
       stroke-dashoffset="0"
       stroke-dasharray="none"
       stroke-miterlimit="10.433"
       stroke-linejoin="miter"
       stroke-linecap="butt"
       stroke="black"
       xml:space="preserve"
       transform="matrix(0.300000,  0,  0,  -0.300000, 33.510544, 232.787323)"
       id="g4971"><path
         id="path4961"
         style="stroke-linejoin:miter;letter-spacing:normal;stroke-opacity:1;fill-opacity:1;fill-rule:evenodd;stroke-linecap:butt;stroke-dashoffset:0;text-anchor:start;word-spacing:normal;stroke:#000000;font-stretch:normal;stroke-miterlimit:10.43299961;font-variant:normal;stroke-dasharray:none;font-weight:normal;font-style:normal;fill:black"
         word-spacing="normal"
         stroke-miterlimit="10.433"
         letter-spacing="normal"
         font-weight="normal"
         font-variant="normal"
         font-style="normal"
         font-stretch="normal"
         font-size-adjust="none"
         fill="black"
         stroke-width="0"
         d="M153.05,710.5 L153.14,710.53 L153.23,710.55 L153.32,710.58 L153.4,710.61 L153.49,710.64 L153.57,710.67 L153.65,710.71 L153.73,710.75 L153.81,710.79 L153.88,710.83 L153.96,710.87 L154.03,710.92 L154.1,710.96 L154.16,711.01 L154.22,711.06 L154.29,711.11 L154.34,711.16 L154.4,711.22 L154.45,711.27 L154.5,711.33 L154.54,711.39 L154.59,711.45 L154.62,711.51 L154.66,711.58 L154.69,711.64 L154.72,711.71 L154.74,711.77 L154.76,711.84 L154.77,711.91 L154.79,711.98 L154.79,712.05 L154.79,712.12 C154.79,713.08,153.66,713.91,152.19,713.91 H149.06 V713.6 H149.3 C150.07,713.6,150.09,713.49,150.09,713.14 V707.9 C150.09,707.54,150.07,707.43,149.3,707.43 H149.06 V707.13 C149.42,707.16,150.13,707.16,150.52,707.16 C150.91,707.16,151.61,707.16,151.97,707.13 V707.43 H151.73 C150.97,707.43,150.95,707.54,150.95,707.9 V710.41 V710.63 V713.21 C150.95,713.43,150.95,713.55,151.16,713.58 C151.26,713.6,151.55,713.6,151.75,713.6 C152.65,713.6,153.77,713.56,153.77,712.12 C153.77,711.44,153.53,710.63,152.05,710.63 H150.95 V710.41 H152.09 C152.25,710.41,152.67,710.41,153.02,710.08 C153.4,709.72,153.4,709.41,153.4,708.74 C153.4,708.1,153.4,707.7,153.81,707.32 C154.22,706.97,154.76,706.91,155.06,706.91 C155.84,706.91,156.01,707.72,156.01,708 C156.01,708.06,156.01,708.17,155.88,708.17 C155.77,708.17,155.77,708.08,155.76,708.01 C155.7,707.3,155.35,707.13,155.1,707.13 C154.62,707.13,154.54,707.63,154.4,708.55 L154.27,709.35 C154.09,709.99,153.6,710.31,153.05,710.5 Z " /><path
         id="path4963"
         style="stroke-linejoin:miter;letter-spacing:normal;stroke-opacity:1;fill-opacity:1;fill-rule:evenodd;stroke-linecap:butt;stroke-dashoffset:0;text-anchor:start;word-spacing:normal;stroke:#000000;font-stretch:normal;stroke-miterlimit:10.43299961;font-variant:normal;stroke-dasharray:none;font-weight:normal;font-style:normal;fill:black"
         word-spacing="normal"
         stroke-miterlimit="10.433"
         letter-spacing="normal"
         font-weight="normal"
         font-variant="normal"
         font-style="normal"
         font-stretch="normal"
         font-size-adjust="none"
         fill="black"
         stroke-width="0"
         d="M157.15,709.42 L157.16,709.63 C157.22,711.11,158.06,711.36,158.4,711.36 C159.43,711.36,159.53,710.02,159.53,709.63 H157.16 L157.15,709.42 H159.93 C160.15,709.42,160.18,709.42,160.18,709.63 C160.18,710.61,159.65,711.58,158.4,711.58 C157.24,711.58,156.32,710.55,156.32,709.31 C156.32,707.98,157.37,707.02,158.52,707.02 C159.74,707.02,160.18,708.12,160.18,708.31 C160.18,708.41,160.1,708.43,160.05,708.43 C159.96,708.43,159.95,708.37,159.93,708.29 C159.58,707.26,158.68,707.26,158.58,707.26 C158.08,707.26,157.68,707.56,157.45,707.93 C157.15,708.41,157.15,709.06,157.15,709.42 Z " /><path
         id="path4965"
         style="stroke-linejoin:miter;letter-spacing:normal;stroke-opacity:1;fill-opacity:1;fill-rule:evenodd;stroke-linecap:butt;stroke-dashoffset:0;text-anchor:start;word-spacing:normal;stroke:#000000;font-stretch:normal;stroke-miterlimit:10.43299961;font-variant:normal;stroke-dasharray:none;font-weight:normal;font-style:normal;fill:black"
         word-spacing="normal"
         stroke-miterlimit="10.433"
         letter-spacing="normal"
         font-weight="normal"
         font-variant="normal"
         font-style="normal"
         font-stretch="normal"
         font-size-adjust="none"
         fill="black"
         stroke-width="0"
         d="M163.77,704.74 L163.77,704.75 L163.77,704.75 L163.77,704.75 L163.77,704.76 L163.77,704.76 L163.77,704.76 L163.77,704.77 L163.77,704.77 L163.77,704.77 L163.77,704.78 L163.76,704.78 L163.76,704.79 L163.76,704.79 L163.75,704.8 L163.75,704.8 L163.74,704.81 L163.74,704.82 L163.73,704.82 L163.73,704.83 L163.73,704.83 L163.72,704.84 L163.72,704.84 L163.71,704.84 L163.71,704.85 L163.71,704.85 L163.7,704.86 L163.7,704.86 L163.69,704.87 L163.69,704.87 L163.68,704.88 L163.68,704.88 L163.67,704.89 L163.67,704.9 L163.66,704.9 L163.65,704.91 L163.65,704.92 L163.64,704.92 L163.63,704.93 L163.63,704.94 L163.62,704.94 L163.61,704.95 L163.6,704.96 C162.36,706.21,162.04,708.09,162.04,709.61 C162.04,711.34,162.42,713.07,163.64,714.31 C163.77,714.43,163.77,714.45,163.77,714.48 C163.77,714.55,163.73,714.58,163.67,714.58 C163.57,714.58,162.68,713.9,162.09,712.64 C161.58,711.55,161.46,710.44,161.46,709.61 C161.46,708.83,161.57,707.63,162.12,706.51 C162.72,705.29,163.57,704.64,163.67,704.64 C163.73,704.64,163.77,704.67,163.77,704.74 Z " /><path
         id="path4967"
         style="stroke-linejoin:miter;letter-spacing:normal;stroke-opacity:1;fill-opacity:1;fill-rule:evenodd;stroke-linecap:butt;stroke-dashoffset:0;text-anchor:start;word-spacing:normal;stroke:#000000;font-stretch:normal;stroke-miterlimit:10.43299961;font-variant:normal;stroke-dasharray:none;font-weight:normal;font-style:normal;fill:black"
         word-spacing="normal"
         stroke-miterlimit="10.433"
         letter-spacing="normal"
         font-weight="normal"
         font-variant="normal"
         font-style="normal"
         font-stretch="normal"
         font-size-adjust="none"
         fill="black"
         stroke-width="0"
         d="M165.67,707.95 L165.72,708 L165.77,708.05 L165.82,708.1 L165.87,708.15 L165.91,708.2 L165.95,708.24 L166,708.28 L166.04,708.33 L166.08,708.37 L166.12,708.41 L166.15,708.44 L166.19,708.48 L166.23,708.52 L166.26,708.55 L166.33,708.62 L166.4,708.68 L166.47,708.74 L166.54,708.8 L166.6,708.86 L166.73,708.97 L166.79,709.02 L166.86,709.08 C166.86,709.09,167.48,709.62,167.84,709.98 C168.79,710.9,169.01,711.38,169.01,711.42 C169.01,711.52,168.91,711.52,168.9,711.52 C168.83,711.52,168.8,711.5,168.75,711.41 C168.45,710.93,168.24,710.77,168,710.77 C167.76,710.77,167.64,710.92,167.49,711.09 C167.3,711.32,167.13,711.52,166.8,711.52 C166.05,711.52,165.6,710.59,165.6,710.38 C165.6,710.33,165.62,710.27,165.71,710.27 C165.8,710.27,165.82,710.32,165.84,710.38 C166.03,710.84,166.61,710.85,166.69,710.85 C166.9,710.85,167.09,710.78,167.32,710.7 C167.72,710.55,167.83,710.55,168.09,710.55 C167.73,710.13,166.89,709.41,166.7,709.25 L165.8,708.42 C165.13,707.75,164.78,707.18,164.78,707.11 C164.78,707.02,164.88,707.02,164.9,707.02 C164.98,707.02,165,707.04,165.06,707.15 C165.29,707.49,165.59,707.76,165.9,707.76 C166.13,707.76,166.23,707.67,166.48,707.38 C166.65,707.17,166.83,707.02,167.12,707.02 C168.11,707.02,168.69,708.28,168.69,708.55 C168.69,708.59,168.65,708.65,168.57,708.65 C168.48,708.65,168.46,708.59,168.43,708.52 C168.2,707.87,167.56,707.68,167.23,707.68 C167.03,707.68,166.85,707.74,166.64,707.81 C166.3,707.94,166.15,707.98,165.94,707.98 C165.92,707.98,165.76,707.98,165.67,707.95 Z " /><path
         id="path4969"
         style="stroke-linejoin:miter;letter-spacing:normal;stroke-opacity:1;fill-opacity:1;fill-rule:evenodd;stroke-linecap:butt;stroke-dashoffset:0;text-anchor:start;word-spacing:normal;stroke:#000000;font-stretch:normal;stroke-miterlimit:10.43299961;font-variant:normal;stroke-dasharray:none;font-weight:normal;font-style:normal;fill:black"
         word-spacing="normal"
         stroke-miterlimit="10.433"
         letter-spacing="normal"
         font-weight="normal"
         font-variant="normal"
         font-style="normal"
         font-stretch="normal"
         font-size-adjust="none"
         fill="black"
         stroke-width="0"
         d="M172.3,709.61 L172.3,709.68 L172.3,709.76 L172.3,709.84 L172.3,709.92 L172.29,710.09 L172.28,710.26 L172.26,710.44 L172.24,710.63 L172.21,710.83 L172.18,711.03 L172.14,711.23 L172.09,711.44 L172.04,711.65 L171.98,711.86 L171.91,712.07 L171.83,712.28 L171.79,712.39 L171.74,712.5 L171.69,712.6 L171.64,712.71 C171.04,713.93,170.19,714.58,170.09,714.58 C170.03,714.58,169.99,714.54,169.99,714.48 C169.99,714.45,169.99,714.43,170.18,714.25 C171.15,713.26,171.72,711.68,171.72,709.61 C171.72,707.91,171.35,706.16,170.12,704.91 C169.99,704.79,169.99,704.77,169.99,704.74 C169.99,704.68,170.03,704.64,170.09,704.64 C170.19,704.64,171.08,705.32,171.67,706.58 C172.18,707.67,172.3,708.77,172.3,709.61 Z " /></g>  </g>
</svg>
